<?xml version="1.0" encoding="UTF-8" standalone="no"?>
<svg
   xmlns:dc="http://purl.org/dc/elements/1.1/"
   xmlns:cc="http://creativecommons.org/ns#"
   xmlns:rdf="http://www.w3.org/1999/02/22-rdf-syntax-ns#"
   xmlns:svg="http://www.w3.org/2000/svg"
   xmlns="http://www.w3.org/2000/svg"
   xmlns:sodipodi="http://sodipodi.sourceforge.net/DTD/sodipodi-0.dtd"
   xmlns:inkscape="http://www.inkscape.org/namespaces/inkscape"
   width="107.87054"
   height="107.89186"
   viewBox="0 0 107.87054 107.89186"
   version="1.1"
   preserveAspectRatio="xMidYMid"
   id="svg26"
   sodipodi:docname="Ansible_logo.svg"
   inkscape:version="0.92.3 (2405546, 2018-03-11)">
  <metadata
     id="metadata32">
    <rdf:RDF>
      <cc:Work
         rdf:about="">
        <dc:format>image/svg+xml</dc:format>
        <dc:type
           rdf:resource="http://purl.org/dc/dcmitype/StillImage" />
        <dc:title></dc:title>
      </cc:Work>
    </rdf:RDF>
  </metadata>
  <defs
     id="defs30" />
  <sodipodi:namedview
     pagecolor="#ffffff"
     bordercolor="#666666"
     borderopacity="1"
     objecttolerance="10"
     gridtolerance="10"
     guidetolerance="10"
     inkscape:pageopacity="0"
     inkscape:pageshadow="2"
     inkscape:window-width="1680"
     inkscape:window-height="987"
     id="namedview28"
     showgrid="false"
     fit-margin-top="0"
     fit-margin-left="0"
     fit-margin-right="0"
     fit-margin-bottom="0"
     inkscape:zoom="2.1190756"
     inkscape:cx="217.40722"
     inkscape:cy="42.698303"
     inkscape:window-x="1912"
     inkscape:window-y="24"
     inkscape:window-maximized="1"
     inkscape:current-layer="svg26" />
  <g
     style="fill:#1a1918;stroke:none;stroke-opacity:1"
     id="g16"
     transform="translate(-473.50246,191.1398)" />
  <path
     style="fill:#333333;fill-opacity:1;stroke-width:0.09025794"
     d="m 52.52656,107.87584 c -4.37515,-0.10488 -8.95664,-0.79217 -13.1548,-1.97341 C 30.60698,103.43628 22.78491,98.917565 16.25525,92.548305 6.7045202,83.232205 1.0452102,71.005455 0.08756019,57.618485 c -0.11765,-1.64459 -0.1165,-5.74297 0.002,-7.42936 0.60153,-8.55437 3.21400001,-16.84355 7.59444001,-24.09672 C 16.29111,11.840725 30.85627,2.3868954 47.33663,0.35503537 c 2.58342,-0.31851 4.20599,-0.39185 7.51681,-0.33974 4.71106,0.0741 7.92684,0.48339 12.20455,1.55319003 17.15562,4.29042 31.22476,16.8667596 37.40976,33.4403896 2.96872,7.95522 4.01158,16.48264 3.06304,25.04658 -1.67064,15.08339 -9.86311,28.96945 -22.32928,37.84774 -9.53785,6.792775 -20.88276,10.255315 -32.67504,9.972645 z m 25.2154,-27.448505 c 0.78322,-0.36651 1.51933,-1.06691 1.86096,-1.77067 0.45929,-0.94615 0.51197,-1.86584 0.16847,-2.94146 -0.19447,-0.60893 -21.57798,-52.03913 -21.85029,-52.55288 -0.6849,-1.2921 -2.12156,-1.98644 -3.66395,-1.77077 -1.23261,0.17235 -2.21941,0.91625 -2.76864,2.08715 -0.31682,0.67541 -23.49605,56.3995 -23.57796,56.68264 -0.0435,0.15024 0.17377,0.15761 3.99226,0.13539 l 4.03821,-0.0235 4.62567,-11.59814 c 2.54412,-6.37898 4.66403,-11.59815 4.71091,-11.59815 0.0469,0 6.39197,5.09732 14.10019,11.32737 7.70821,6.23006 14.28388,11.50129 14.61258,11.71386 0.84567,0.54688 1.24825,0.65617 2.28413,0.6201 0.74492,-0.026 0.95238,-0.0699 1.46746,-0.31094 z M 58.38534,59.188175 c -5.67961,-4.47318 -10.40231,-8.2055 -10.4949,-8.29407 -0.16356,-0.15645 -0.0678,-0.41257 3.37291,-9.02321 1.9477,-4.87421 3.57014,-8.82847 3.60544,-8.78725 0.0353,0.0412 2.66865,6.51259 5.85191,14.38082 3.18326,7.86824 6.29394,15.55483 6.91265,17.08132 0.6187,1.52648 1.11447,2.77543 1.10172,2.77543 -0.0128,0 -4.67014,-3.65987 -10.34973,-8.13304 z"
     id="path4557"
     inkscape:connector-curvature="0"
     sodipodi:nodetypes="ccsccsssssssccccccsccscssscscscccssss" />
</svg>
