<?xml version="1.0" encoding="UTF-8" standalone="no"?>
<!-- Created with Inkscape (http://www.inkscape.org/) -->

<svg
   width="95.496773mm"
   height="106.76511mm"
   viewBox="0 0 190.99356 213.53024"
   version="1.1"
   id="svg8"
   inkscape:version="1.2.2 (b0a8486541, 2022-12-01)"
   sodipodi:docname="BlueBanquise_logo.svg"
   xmlns:inkscape="http://www.inkscape.org/namespaces/inkscape"
   xmlns:sodipodi="http://sodipodi.sourceforge.net/DTD/sodipodi-0.dtd"
   xmlns="http://www.w3.org/2000/svg"
   xmlns:svg="http://www.w3.org/2000/svg"
   xmlns:rdf="http://www.w3.org/1999/02/22-rdf-syntax-ns#"
   xmlns:cc="http://creativecommons.org/ns#"
   xmlns:dc="http://purl.org/dc/elements/1.1/">
  <defs
     id="defs2" />
  <sodipodi:namedview
     id="base"
     pagecolor="#ffffff"
     bordercolor="#666666"
     borderopacity="1.0"
     inkscape:pageopacity="0.0"
     inkscape:pageshadow="2"
     inkscape:zoom="1.4209237"
     inkscape:cx="165.03349"
     inkscape:cy="306.84265"
     inkscape:document-units="mm"
     inkscape:current-layer="layer1"
     showgrid="false"
     inkscape:window-width="1920"
     inkscape:window-height="1029"
     inkscape:window-x="0"
     inkscape:window-y="27"
     inkscape:window-maximized="1"
     fit-margin-top="0"
     fit-margin-left="0"
     fit-margin-right="0"
     fit-margin-bottom="0"
     scale-x="2"
     inkscape:showpageshadow="2"
     inkscape:pagecheckerboard="0"
     inkscape:deskcolor="#d1d1d1" />
  <metadata
     id="metadata5">
    <rdf:RDF>
      <cc:Work
         rdf:about="">
        <dc:format>image/svg+xml</dc:format>
        <dc:type
           rdf:resource="http://purl.org/dc/dcmitype/StillImage" />
      </cc:Work>
    </rdf:RDF>
  </metadata>
  <g
     inkscape:label="Layer 1"
     inkscape:groupmode="layer"
     id="layer1"
     transform="translate(-43.843891,32.589598)">
    <path
       style="opacity:0.3;fill:#108bde;fill-opacity:1;stroke:none;stroke-width:1.23312;stroke-miterlimit:4;stroke-dasharray:none;stroke-opacity:1"
       d="m 159.53321,-0.8984575 c -1.0779,-1.7214894 -2.18069,-3.5026243 -2.4506,-3.9580603 l -0.49072,-0.8280776 0.91509,-0.6878166 c 0.50331,-0.3782923 0.97811,-0.612567 1.05513,-0.5206057 0.1905,0.2275716 3.09095,8.9830097 3.00188,9.0618165 -0.0391,0.034481 -0.95286,-1.34576531 -2.03078,-3.0672563 z"
       id="path874"
       inkscape:connector-curvature="0" />
    <path
       style="opacity:0.3;fill:#108bde;fill-opacity:1;stroke:none;stroke-width:1.00087;stroke-miterlimit:4;stroke-dasharray:none;stroke-opacity:1"
       d="m 133.47416,-6.0671666 c -2.91632,-1.757095 -5.30463,-3.2589817 -5.30735,-3.3375275 -0.003,-0.07855 2.34134,-4.5891649 5.20904,-10.0235909 l 5.21401,-9.880775 0.11536,4.294707 c 0.25148,9.358764 0.38596,22.1648201 0.23261,22.153653 -0.0888,-0.00649 -2.5474,-1.4493763 -5.46372,-3.2064666 z"
       id="path872"
       inkscape:connector-curvature="0" />
    <path
       style="opacity:0.3;fill:#108bde;fill-opacity:1;stroke:none;stroke-width:1.14373;stroke-miterlimit:4;stroke-dasharray:none;stroke-opacity:1"
       d="m 122.1258,-2.9726265 c -3.52297,-3.8766188 -4.38461,-4.9337871 -4.17665,-5.1243986 0.46678,-0.4278057 6.12481,-3.5870869 6.2318,-3.4796459 0.15626,0.156927 2.50369,12.8532084 2.43933,13.1933427 -0.0308,0.1626899 -2.04609,-1.89512331 -4.49448,-4.5892982 z"
       id="path870"
       inkscape:connector-curvature="0" />
    <path
       style="opacity:0.3;fill:#108bde;fill-opacity:1;stroke:none;stroke-width:0.97842;stroke-miterlimit:4;stroke-dasharray:none;stroke-opacity:1"
       d="m 102.12189,0.5739475 c -4.766694,-2.889168 -8.632926,-5.3246216 -8.591633,-5.4121158 0.121671,-0.2577844 13.933073,-12.9069407 14.093573,-12.9069407 0.0806,0 0.32167,3.883673 0.98591,8.1802315 0.66424,4.2965568 1.47333,9.52157882 1.79799,11.611162 0.32465,2.0895768 0.54316,3.7950681 0.48558,3.7899696 -0.0576,-0.00506 -4.00473,-2.3731354 -8.77142,-5.2623066 z"
       id="path868"
       inkscape:connector-curvature="0"
       sodipodi:nodetypes="scssccs" />
    <path
       style="opacity:0.3;fill:#108bde;fill-opacity:1;stroke:none;stroke-width:1.05898;stroke-miterlimit:4;stroke-dasharray:none;stroke-opacity:1"
       d="m 81.632076,5.1159065 c -2.213153,-0.8616119 -4.183785,-1.6338576 -4.37918,-1.7160998 -0.295217,-0.124266 0.595515,-0.9887642 5.269402,-5.1143029 3.093576,-2.7306239 5.644246,-4.947035 5.668166,-4.9253577 0.03442,0.031205 -2.281958,12.2567759 -2.483042,13.105276 -0.03195,0.1348682 -1.575141,-0.3761545 -4.075346,-1.3495156 z"
       id="path866"
       inkscape:connector-curvature="0" />
    <path
       style="opacity:1;fill:#108bde;fill-opacity:1;stroke:none;stroke-width:1.02935;stroke-miterlimit:4;stroke-dasharray:none;stroke-opacity:1"
       d="m 131.07218,157.51948 c -0.0789,-0.24611 -1.37724,-5.59376 -2.88515,-11.88363 l -2.74164,-11.43612 3.92284,-17.94916 c 2.15756,-9.87204 3.93239,-17.93587 3.94408,-17.919635 0.0127,0.01424 -0.42994,12.675755 -0.98133,28.132305 -0.55141,15.45652 -1.02792,28.868 -1.05892,29.80327 -0.0372,1.1213 -0.10523,1.54806 -0.19988,1.25297 z"
       id="path882"
       inkscape:connector-curvature="0" />
    <path
       style="opacity:1;fill:#108bde;fill-opacity:1;stroke:none;stroke-width:1.11902;stroke-miterlimit:4;stroke-dasharray:none;stroke-opacity:1"
       d="m 106.94778,122.10215 -1.74919,-3.77325 0.88166,-4.26059 c 0.48491,-2.34335 1.28524,-6.12233 1.77851,-8.39778 l 0.89685,-4.13721 0.0237,12.17104 c 0.013,6.69406 -1.6e-4,12.17103 -0.0293,12.17103 -0.0292,0 -0.84015,-1.69797 -1.80221,-3.77324 z"
       id="path878"
       inkscape:connector-curvature="0" />
    <path
       style="opacity:1;fill:#108bde;fill-opacity:1;stroke:none;stroke-width:1.00684;stroke-miterlimit:4;stroke-dasharray:none;stroke-opacity:1"
       d="m 109.02573,153.13395 c -3.32235,-13.48544 -6.09493,-24.64323 -6.16129,-24.79505 -0.101,-0.23107 1.39578,-8.9062 1.68221,-9.74978 0.051,-0.15017 0.91205,1.7129 1.91344,4.14029 1.00138,2.42738 1.9061,4.55834 2.01048,4.73542 0.28017,0.47539 1.1747,0.41964 1.47633,-0.0919 0.13423,-0.22768 0.90646,-2.89819 1.71604,-5.93441 1.41265,-5.29799 1.47383,-5.47592 1.51853,-4.41633 0.22436,5.31862 1.97759,59.72041 1.93736,60.11559 -0.0288,0.28344 -2.77075,-10.51823 -6.0931,-24.00372 z"
       id="path880"
       inkscape:connector-curvature="0" />
    <path
       style="opacity:1;fill:#108bde;fill-opacity:1;stroke:none;stroke-width:0.953608;stroke-miterlimit:4;stroke-dasharray:none;stroke-opacity:1"
       d="m 90.238278,142.68334 -4.681499,-16.93662 3.335096,-15.72579 c 1.863415,-8.78644 3.354282,-15.46018 3.378584,-15.12384 0.128903,1.78389 3.328321,65.06915 3.287345,65.3821 -0.02679,0.20462 -2.744699,-8.28071 -5.319526,-17.59585 z"
       id="path876"
       inkscape:connector-curvature="0"
       sodipodi:nodetypes="scsccs" />
    <path
       style="fill:none;stroke:#141414;stroke-width:1.10768;stroke-linecap:butt;stroke-linejoin:round;stroke-miterlimit:4;stroke-dasharray:none;stroke-opacity:1"
       d="m 172.439,43.884514 -35.28925,124.672926 3.6475,-49.88983 -9.26919,43.56517 2.3173,-69.055414 -18.07491,87.130314 -2.31729,-66.27466 -4.17115,14.83067 V 95.958091 L 95.841701,165.01352 92.597491,90.860064 83.328299,133.4983 44.397731,15.316198 66.643779,-0.90486781 86.109055,6.9739303 88.889811,-7.8567578 111.59931,6.5104763 l -3.70768,-25.0268043 19.4653,21.3191243 -2.78076,-14.8306883 14.8307,9.7326462 -0.46347,-29.6613922 25.02681,38.9305683 -5.09806,-14.8306881 20.39222,23.1729558"
       id="path899"
       inkscape:connector-curvature="0"
       sodipodi:nodetypes="ccccccccccccccccccccccccc" />
    <path
       style="fill:none;stroke:#141414;stroke-width:1.26592;stroke-linecap:round;stroke-linejoin:miter;stroke-miterlimit:4;stroke-dasharray:none;stroke-opacity:1"
       d="M 88.889811,-7.8567578 76.791201,2.8334443"
       id="path901"
       inkscape:connector-curvature="0"
       sodipodi:nodetypes="cc" />
    <path
       style="fill:none;stroke:#141414;stroke-width:1.26592;stroke-linecap:round;stroke-linejoin:miter;stroke-miterlimit:4;stroke-dasharray:none;stroke-opacity:1"
       d="M 107.89163,-18.516328 93.879851,-5.1920695"
       id="path903"
       inkscape:connector-curvature="0"
       sodipodi:nodetypes="cc" />
    <path
       style="fill:none;stroke:#141414;stroke-width:1.26592;stroke-linecap:round;stroke-linejoin:miter;stroke-miterlimit:4;stroke-dasharray:none;stroke-opacity:1"
       d="m 124.57617,-12.027892 -6.62298,3.5660583"
       id="path905"
       inkscape:connector-curvature="0"
       sodipodi:nodetypes="cc" />
    <path
       style="fill:none;stroke:#141414;stroke-width:1.26592;stroke-linecap:round;stroke-linejoin:miter;stroke-miterlimit:4;stroke-dasharray:none;stroke-opacity:1"
       d="m 138.9434,-31.956638 -10.40269,21.602102"
       id="path907"
       inkscape:connector-curvature="0"
       sodipodi:nodetypes="cc" />
    <path
       style="fill:none;stroke:#141414;stroke-width:1.5824;stroke-linecap:butt;stroke-linejoin:miter;stroke-miterlimit:4;stroke-dasharray:none;stroke-opacity:1"
       d="m 158.87215,-7.8567578 -3.20932,2.437343"
       id="path911"
       inkscape:connector-curvature="0"
       sodipodi:nodetypes="cc" />
    <path
       style="fill:none;stroke:#141414;stroke-width:1.26592;stroke-linecap:round;stroke-linejoin:miter;stroke-miterlimit:4;stroke-dasharray:none;stroke-opacity:1"
       d="m 85.556779,125.74672 10.139072,38.3917"
       id="path913"
       inkscape:connector-curvature="0"
       sodipodi:nodetypes="cc" />
    <path
       style="fill:none;stroke:#141414;stroke-width:1.26592;stroke-linecap:round;stroke-linejoin:miter;stroke-miterlimit:4;stroke-dasharray:none;stroke-opacity:1"
       d="M 109.28201,128.86369 105.19859,118.3289"
       id="path915"
       inkscape:connector-curvature="0"
       sodipodi:nodetypes="cc" />
    <path
       style="fill:none;stroke:#141414;stroke-width:1.26592;stroke-linecap:round;stroke-linejoin:miter;stroke-miterlimit:4;stroke-dasharray:none;stroke-opacity:1"
       d="M 115.77045,180.30768 103.09962,129.45236"
       id="path917"
       inkscape:connector-curvature="0"
       sodipodi:nodetypes="cc" />
    <path
       style="fill:none;stroke:#141414;stroke-width:1.26592;stroke-linecap:round;stroke-linejoin:miter;stroke-miterlimit:4;stroke-dasharray:none;stroke-opacity:1"
       d="m 131.52806,162.23278 -6.08267,-28.03305"
       id="path919"
       inkscape:connector-curvature="0"
       sodipodi:nodetypes="cc" />
    <path
       style="fill:none;stroke:#108bde;stroke-width:1.10768;stroke-linecap:round;stroke-linejoin:miter;stroke-miterlimit:4;stroke-dasharray:none;stroke-opacity:1"
       d="M 44.397731,15.316198 234.2836,15.358923"
       id="path937"
       inkscape:connector-curvature="0"
       sodipodi:nodetypes="cc" />
    <g
       aria-label="BlueBanquise"
       style="font-style:normal;font-weight:normal;font-size:21.1667px;line-height:1.25;font-family:sans-serif;letter-spacing:0px;word-spacing:0px;fill:#108bde;fill-opacity:1;stroke:none;stroke-width:0.529167"
       id="text847"
       transform="matrix(1.5824026,0,0,1.5824026,-25.534793,-105.38029)">
      <path
         d="m 65.072797,78.575778 h 3.177411 q 2.147328,0 3.15364,0.728982 1.006313,0.728982 1.006313,2.202794 0,1.006312 -0.61805,1.679828 -0.610127,0.665593 -1.790761,0.855762 v 0.04754 q 1.386651,0.206017 2.036396,0.879533 0.657669,0.665593 0.657669,1.862074 0,1.600592 -1.061779,2.464277 -1.061778,0.863685 -3.011013,0.863685 h -3.549826 z m 0.808219,5.158341 h 2.551438 q 1.632286,0 2.369192,-0.538813 0.744829,-0.546737 0.744829,-1.7036 0,-1.156863 -0.839914,-1.679828 -0.83199,-0.522966 -2.488048,-0.522966 h -2.337497 z m 0,0.713135 v 4.999867 h 2.725759 q 3.217031,0 3.217031,-2.614828 0,-2.385039 -3.391352,-2.385039 z"
         style="font-style:normal;font-variant:normal;font-weight:normal;font-stretch:normal;font-size:16.2278px;font-family:'Open Sans Light';-inkscape-font-specification:'Open Sans Light, ';fill:#108bde;fill-opacity:1;stroke-width:0.529167"
         id="path851" />
      <path
         d="M 75.833208,90.160255 H 75.04876 V 77.830948 h 0.784448 z"
         style="font-style:normal;font-variant:normal;font-weight:normal;font-stretch:normal;font-size:16.2278px;font-family:'Open Sans Light';-inkscape-font-specification:'Open Sans Light, ';fill:#108bde;fill-opacity:1;stroke-width:0.529167"
         id="path853" />
      <path
         d="m 79.406806,81.547172 v 5.578299 q 0,1.29949 0.546736,1.893769 0.546737,0.586355 1.695676,0.586355 1.537202,0 2.25826,-0.776524 0.728983,-0.776525 0.728983,-2.527667 v -4.754232 h 0.776524 v 8.613083 h -0.665592 l -0.142627,-1.188557 h -0.04754 q -0.839914,1.347032 -2.987242,1.347032 -2.9397,0 -2.9397,-3.145717 v -5.625841 z"
         style="font-style:normal;font-variant:normal;font-weight:normal;font-stretch:normal;font-size:16.2278px;font-family:'Open Sans Light';-inkscape-font-specification:'Open Sans Light, ';fill:#108bde;fill-opacity:1;stroke-width:0.529167"
         id="path855" />
      <path
         d="m 91.77573,90.31873 q -1.877921,0 -2.931776,-1.156863 -1.045931,-1.156863 -1.045931,-3.240801 0,-2.060168 1.014236,-3.296268 1.014236,-1.244024 2.733684,-1.244024 1.521354,0 2.400887,1.061779 0.879532,1.061778 0.879532,2.884234 v 0.633897 H 88.62209 q 0.01585,1.774913 0.824067,2.709912 0.816143,0.934999 2.329573,0.934999 0.736906,0 1.291567,-0.103008 0.562584,-0.103009 1.418345,-0.443729 v 0.713135 q -0.728982,0.316949 -1.347032,0.427881 -0.61805,0.118856 -1.36288,0.118856 z m -0.229787,-8.240668 q -1.244024,0 -1.996778,0.824066 -0.752753,0.816144 -0.879533,2.361269 h 5.32474 q 0,-1.497583 -0.649745,-2.337497 -0.649745,-0.847838 -1.798684,-0.847838 z"
         style="font-style:normal;font-variant:normal;font-weight:normal;font-stretch:normal;font-size:16.2278px;font-family:'Open Sans Light';-inkscape-font-specification:'Open Sans Light, ';fill:#108bde;fill-opacity:1;stroke-width:0.529167"
         id="path857" />
      <path
         d="m 97.40157,78.575778 h 3.17741 q 2.14733,0 3.15364,0.728982 1.00631,0.728982 1.00631,2.202794 0,1.006312 -0.61805,1.679828 -0.61012,0.665593 -1.79076,0.855762 v 0.04754 q 1.38665,0.206017 2.0364,0.879533 0.65767,0.665593 0.65767,1.862074 0,1.600592 -1.06178,2.464277 -1.06178,0.863685 -3.01101,0.863685 h -3.54983 z m 0.808219,5.158341 h 2.551441 q 1.63228,0 2.36919,-0.538813 0.74483,-0.546737 0.74483,-1.7036 0,-1.156863 -0.83992,-1.679828 -0.83199,-0.522966 -2.48804,-0.522966 h -2.337501 z m 0,0.713135 v 4.999867 h 2.725761 q 3.21703,0 3.21703,-2.614828 0,-2.385039 -3.39135,-2.385039 z"
         style="font-size:16.2278px;fill:#565656;fill-opacity:1"
         id="path859" />
      <path
         d="m 112.60719,90.160255 -0.19809,-1.362879 h -0.0634 q -0.64975,0.83199 -1.33911,1.180634 -0.68144,0.34072 -1.61644,0.34072 -1.2678,0 -1.97301,-0.649745 -0.70521,-0.649745 -0.70521,-1.798684 0,-1.259872 1.04593,-1.957159 1.05386,-0.697288 3.04271,-0.736906 l 1.64021,-0.04754 v -0.570508 q 0,-1.228177 -0.49919,-1.854151 -0.4992,-0.625973 -1.60852,-0.625973 -1.19648,0 -2.48012,0.665592 l -0.29318,-0.68144 q 1.41835,-0.665592 2.805,-0.665592 1.41834,0 2.11563,0.736906 0.70521,0.736906 0.70521,2.297878 v 5.728849 z m -3.16949,-0.55466 q 1.37873,0 2.1711,-0.784448 0.8003,-0.792372 0.8003,-2.19487 v -0.847838 l -1.50551,0.06339 q -1.81453,0.08716 -2.59106,0.570508 -0.7686,0.475423 -0.7686,1.489659 0,0.80822 0.49127,1.259872 0.4992,0.443728 1.4025,0.443728 z"
         style="font-size:16.2278px;fill:#565656;fill-opacity:1"
         id="path861" />
      <path
         d="m 121.97303,90.160255 v -5.586222 q 0,-1.29949 -0.54674,-1.885845 -0.54674,-0.594279 -1.69568,-0.594279 -1.54512,0 -2.26618,0.784448 -0.71313,0.776525 -0.71313,2.527667 v 4.754231 h -0.78445 v -8.613083 h 0.66559 l 0.15055,1.180635 h 0.0475 q 0.83992,-1.347033 2.98725,-1.347033 2.93177,0 2.93177,3.145717 v 5.633764 z"
         style="font-size:16.2278px;fill:#565656;fill-opacity:1"
         id="path863" />
      <path
         d="m 128.60518,90.31873 q -1.69568,0 -2.63068,-1.125168 -0.935,-1.125169 -0.935,-3.248725 0,-2.179023 0.935,-3.367581 0.935,-1.196482 2.67822,-1.196482 1.87,0 2.79707,1.378727 h 0.0475 l 0.14263,-1.212329 h 0.66559 v 12.511553 h -0.77652 v -3.280419 q 0,-0.966694 0.0475,-1.965083 h -0.0475 q -0.935,1.505507 -2.92385,1.505507 z m 0.0158,-0.697287 q 1.5689,0 2.23449,-0.863686 0.67352,-0.863685 0.67352,-2.900081 v -0.09508 q 0,-1.941311 -0.67352,-2.804997 -0.67351,-0.863685 -2.14732,-0.863685 -1.39458,0 -2.12356,0.982541 -0.72106,0.982541 -0.72106,2.884234 0,1.814532 0.70521,2.741607 0.71314,0.919152 2.05224,0.919152 z"
         style="font-size:16.2278px;fill:#565656;fill-opacity:1"
         id="path865" />
      <path
         d="m 135.88708,81.547172 v 5.578299 q 0,1.29949 0.54673,1.893769 0.54674,0.586355 1.69568,0.586355 1.5372,0 2.25826,-0.776524 0.72898,-0.776525 0.72898,-2.527667 v -4.754232 h 0.77653 v 8.613083 h -0.6656 l -0.14262,-1.188557 h -0.0476 q -0.83991,1.347032 -2.98724,1.347032 -2.9397,0 -2.9397,-3.145717 v -5.625841 z"
         style="font-size:16.2278px;fill:#565656;fill-opacity:1"
         id="path867" />
      <path
         d="m 145.56194,90.160255 h -0.78445 v -8.613083 h 0.78445 z m -0.89538,-11.006046 q 0,-0.760677 0.49919,-0.760677 0.24564,0 0.38034,0.198093 0.14263,0.198093 0.14263,0.562584 0,0.356567 -0.14263,0.562584 -0.1347,0.206017 -0.38034,0.206017 -0.49919,0 -0.49919,-0.768601 z"
         style="font-size:16.2278px;fill:#565656;fill-opacity:1"
         id="path869" />
      <path
         d="m 153.79468,87.917843 q 0,1.156863 -0.87953,1.782837 -0.87953,0.61805 -2.49597,0.61805 -1.72737,0 -2.74161,-0.530889 v -0.847838 q 1.29949,0.649745 2.74161,0.649745 1.27572,0 1.93339,-0.419958 0.66559,-0.42788 0.66559,-1.133091 0,-0.649745 -0.53089,-1.093474 -0.52297,-0.443728 -1.72737,-0.871609 -1.29157,-0.467499 -1.81453,-0.800295 -0.52297,-0.34072 -0.79238,-0.760678 -0.26148,-0.42788 -0.26148,-1.038007 0,-0.966694 0.80822,-1.529278 0.81614,-0.562584 2.27411,-0.562584 1.39457,0 2.64652,0.522966 l -0.29318,0.713134 q -1.26779,-0.522965 -2.35334,-0.522965 -1.05386,0 -1.67191,0.348644 -0.61805,0.348643 -0.61805,0.966693 0,0.673517 0.47543,1.077626 0.48334,0.40411 1.87792,0.903304 1.16478,0.419957 1.69567,0.760677 0.53089,0.332797 0.79238,0.760677 0.2694,0.427881 0.2694,1.006313 z"
         style="font-size:16.2278px;fill:#565656;fill-opacity:1"
         id="path871" />
      <path
         d="m 159.50768,90.31873 q -1.87792,0 -2.93178,-1.156863 -1.04593,-1.156863 -1.04593,-3.240801 0,-2.060168 1.01424,-3.296268 1.01424,-1.244024 2.73368,-1.244024 1.52136,0 2.40089,1.061779 0.87953,1.061778 0.87953,2.884234 v 0.633897 h -6.20427 q 0.0159,1.774913 0.82407,2.709912 0.81614,0.934999 2.32957,0.934999 0.73691,0 1.29157,-0.103008 0.56258,-0.103009 1.41834,-0.443729 v 0.713135 q -0.72898,0.316949 -1.34703,0.427881 -0.61805,0.118856 -1.36288,0.118856 z m -0.22979,-8.240668 q -1.24402,0 -1.99677,0.824066 -0.75276,0.816144 -0.87954,2.361269 h 5.32474 q 0,-1.497583 -0.64974,-2.337497 -0.64975,-0.847838 -1.79869,-0.847838 z"
         style="font-size:16.2278px;fill:#565656;fill-opacity:1"
         id="path873" />
    </g>
  </g>
</svg>
