<?xml version="1.0" encoding="UTF-8" standalone="no"?>
<!-- Created with Inkscape (http://www.inkscape.org/) -->

<svg
   xmlns:dc="http://purl.org/dc/elements/1.1/"
   xmlns:cc="http://creativecommons.org/ns#"
   xmlns:rdf="http://www.w3.org/1999/02/22-rdf-syntax-ns#"
   xmlns:svg="http://www.w3.org/2000/svg"
   xmlns="http://www.w3.org/2000/svg"
   xmlns:sodipodi="http://sodipodi.sourceforge.net/DTD/sodipodi-0.dtd"
   xmlns:inkscape="http://www.inkscape.org/namespaces/inkscape"
   width="537.22601mm"
   height="132.64743mm"
   viewBox="0 0 537.22601 132.64744"
   version="1.1"
   id="svg8"
   inkscape:version="0.92.3 (2405546, 2018-03-11)"
   sodipodi:docname="bluebanquise_logo_ng_work.svg"
   inkscape:export-filename="D:\images\BlueBanquise_logo_ng_text.png"
   inkscape:export-xdpi="38.292931"
   inkscape:export-ydpi="38.292931">
  <defs
     id="defs2" />
  <sodipodi:namedview
     id="base"
     pagecolor="#ffffff"
     bordercolor="#666666"
     borderopacity="1.0"
     inkscape:pageopacity="0.0"
     inkscape:pageshadow="2"
     inkscape:zoom="0.17111495"
     inkscape:cx="-2165.0727"
     inkscape:cy="98.98258"
     inkscape:document-units="mm"
     inkscape:current-layer="layer1"
     showgrid="false"
     inkscape:window-width="1920"
     inkscape:window-height="1137"
     inkscape:window-x="-8"
     inkscape:window-y="24"
     inkscape:window-maximized="1"
     fit-margin-top="0"
     fit-margin-left="0"
     fit-margin-right="0"
     fit-margin-bottom="0" />
  <metadata
     id="metadata5">
    <rdf:RDF>
      <cc:Work
         rdf:about="">
        <dc:format>image/svg+xml</dc:format>
        <dc:type
           rdf:resource="http://purl.org/dc/dcmitype/StillImage" />
        <dc:title />
      </cc:Work>
    </rdf:RDF>
  </metadata>
  <g
     inkscape:label="Layer 1"
     inkscape:groupmode="layer"
     id="layer1"
     transform="translate(-57.610198,-46.77355)">
    <path
       style="opacity:1;fill:#093d84;fill-opacity:1;fill-rule:nonzero;stroke:#2cd1f5;stroke-width:0.26374856;stroke-linecap:round;stroke-miterlimit:4;stroke-dasharray:0.52749711, 1.05499421;stroke-dashoffset:0;stroke-opacity:0"
       d="m -83.220365,154.36392 c -0.38797,-1.26128 -7.597903,-29.26944 -7.627363,-29.62977 -0.0281,-0.3432 14.339163,-33.746674 14.459253,-33.617444 0.024,0.0259 -0.13535,8.10509 -0.35424,17.953784 l -0.39798,17.9067 -2.87921,13.69337 c -1.58356,7.53134 -2.91504,13.81186 -2.95883,13.95669 -0.0438,0.14483 -0.15252,0.0263 -0.24163,-0.26333 z"
       id="path940-6"
       inkscape:connector-curvature="0"
       inkscape:export-filename="D:\images\BlueBanquise_logo_ng_text.png"
       inkscape:export-xdpi="38.292931"
       inkscape:export-ydpi="38.292931" />
    <path
       style="opacity:1;fill:#0659b1;fill-opacity:1;fill-rule:nonzero;stroke:#2cd1f5;stroke-width:0.26374856;stroke-linecap:round;stroke-miterlimit:4;stroke-dasharray:0.52749711, 1.05499421;stroke-dashoffset:0;stroke-opacity:0"
       d="m -73.114915,137.59291 -3.53574,-10.28051 0.31347,-15.17763 c 0.17241,-8.3477 0.38783,-16.881714 0.47869,-18.964464 0.13158,-3.01583 0.0966,-3.76395 -0.17178,-3.67449 -0.18535,0.0618 -3.71437,7.86861 -7.84228,17.348524 l -7.505283,17.23618 -2.16553,10.66502 c -1.19104,5.86576 -2.238311,10.48727 -2.327261,10.27002 -0.4885,-1.1931 -9.126951,-26.64487 -9.126951,-26.89105 0,-0.35849 31.905445,-55.26911 32.113735,-55.26911 0.0814,0 2.01018,14.544756 4.28623,32.321696 2.27605,17.776944 4.24191,32.356244 4.36856,32.398464 0.1865,0.0622 -1.23171,5.4529 -5.15459,19.5931 -0.15923,0.57397 -0.8517,-1.20316 -3.73127,-9.57575 z"
       id="path942"
       inkscape:connector-curvature="0"
       inkscape:export-filename="D:\images\BlueBanquise_logo_ng_text.png"
       inkscape:export-xdpi="38.292931"
       inkscape:export-ydpi="38.292931" />
    <path
       style="opacity:1;fill:#099bee;fill-opacity:1;fill-rule:nonzero;stroke:#2cd1f5;stroke-width:0.26374856;stroke-linecap:round;stroke-miterlimit:4;stroke-dasharray:0.52749711, 1.05499421;stroke-dashoffset:0;stroke-opacity:0"
       d="m -64.005555,126.58219 c -0.0791,-0.21725 -2.00048,-14.97053 -4.26961,-32.785064 -2.26914,-17.81454 -4.1722,-32.43944 -4.22903,-32.499786 -0.0568,-0.06035 -0.14922,-0.06035 -0.20533,0 -0.0561,0.06035 -7.42714,12.711758 -16.380073,28.114236 -16.210342,27.888044 -16.279292,28.000864 -16.577612,27.123394 -0.16476,-0.48462 -5.19554,-15.132 -11.17951,-32.549734 -5.98397,-17.417724 -10.8139,-31.734641 -10.73317,-31.815365 0.0807,-0.08072 12.89743,-2.678668 28.481571,-5.77321 l 28.334804,-5.626438 13.58759,5.559377 c 7.47318,3.057659 13.64103,5.698637 13.70635,5.868843 0.0653,0.170204 -4.33788,16.531802 -9.78487,36.359103 -11.38701,41.449274 -10.56397,38.538334 -10.75111,38.024644 z"
       id="path944"
       inkscape:connector-curvature="0"
       inkscape:export-filename="D:\images\BlueBanquise_logo_ng_text.png"
       inkscape:export-xdpi="38.292931"
       inkscape:export-ydpi="38.292931" />
    <path
       style="opacity:1;fill:#2edaf9;fill-opacity:1;fill-rule:nonzero;stroke:#2cd1f5;stroke-width:0.26374856;stroke-linecap:round;stroke-miterlimit:4;stroke-dasharray:0.52749711, 1.05499421;stroke-dashoffset:0;stroke-opacity:0"
       d="m -125.51567,50.902554 c 0.0603,-0.05655 12.92127,-6.506875 28.579841,-14.334051 l 28.470124,-14.23123 12.14697,14.24843 c 6.68084,7.836638 12.10688,14.288522 12.05789,14.33752 -0.049,0.049 -6.01804,-2.3359 -13.26454,-5.299772 l -13.17544,-5.388858 -27.089234,5.38268 c -25.489551,5.06482 -28.001311,5.543631 -27.725611,5.285281 z"
       id="path946"
       inkscape:connector-curvature="0"
       inkscape:export-filename="D:\images\BlueBanquise_logo_ng_text.png"
       inkscape:export-xdpi="38.292931"
       inkscape:export-ydpi="38.292931" />
    <text
       inkscape:export-filename="D:\images\BlueBanquise_logo_ng_text.png"
       inkscape:export-xdpi="38.292931"
       inkscape:export-ydpi="38.292931"
       xml:space="preserve"
       style="font-style:normal;font-weight:normal;font-size:10.58333302px;line-height:1.25;font-family:sans-serif;letter-spacing:0px;word-spacing:0px;fill:#000000;fill-opacity:1;stroke:none;stroke-width:0.26458332"
       x="163.85477"
       y="149.89175"
       id="text1012"><tspan
         sodipodi:role="line"
         id="tspan1010"
         x="163.85477"
         y="149.89175"
         style="font-style:normal;font-variant:normal;font-weight:normal;font-stretch:normal;font-size:70.55555725px;font-family:'Open Sans Light';-inkscape-font-specification:'Open Sans Light, ';stroke-width:0.26458332">BlueBanquise</tspan></text>
    <path
       style="opacity:1;fill:#093d84;fill-opacity:1;fill-rule:nonzero;stroke:#2cd1f5;stroke-width:0.26374856;stroke-linecap:round;stroke-miterlimit:4;stroke-dasharray:0.52749712, 1.05499422;stroke-dashoffset:0;stroke-opacity:0"
       d="m 145.62472,443.08037 c -0.38797,-1.26128 -7.5979,-29.26944 -7.62736,-29.62977 -0.0281,-0.3432 14.33916,-33.74667 14.45925,-33.61744 0.024,0.0259 -0.13535,8.10509 -0.35424,17.95378 l -0.39798,17.9067 -2.87921,13.69337 c -1.58356,7.53134 -2.91504,13.81186 -2.95883,13.95669 -0.0438,0.14483 -0.15252,0.0263 -0.24163,-0.26333 z"
       id="path940-6-0"
       inkscape:connector-curvature="0"
       inkscape:export-filename="D:\images\BlueBanquise_logo_ng_text.png"
       inkscape:export-xdpi="38.292931"
       inkscape:export-ydpi="38.292931" />
    <path
       style="opacity:1;fill:#0659b1;fill-opacity:1;fill-rule:nonzero;stroke:#2cd1f5;stroke-width:0.26374856;stroke-linecap:round;stroke-miterlimit:4;stroke-dasharray:0.52749712, 1.05499422;stroke-dashoffset:0;stroke-opacity:0"
       d="m 155.73017,426.30936 -3.53574,-10.28051 0.31347,-15.17763 c 0.17241,-8.3477 0.38783,-16.88171 0.47869,-18.96446 0.13158,-3.01583 0.0966,-3.76395 -0.17178,-3.67449 -0.18535,0.0618 -3.71437,7.86861 -7.84228,17.34852 l -7.50528,17.23618 -2.16553,10.66502 c -1.19104,5.86576 -2.23831,10.48727 -2.32726,10.27002 -0.4885,-1.1931 -9.12695,-26.64487 -9.12695,-26.89105 0,-0.35849 31.90544,-55.26911 32.11373,-55.26911 0.0814,0 2.01018,14.54476 4.28623,32.3217 2.27605,17.77694 4.24191,32.35624 4.36856,32.39846 0.1865,0.0622 -1.23171,5.4529 -5.15459,19.5931 -0.15923,0.57397 -0.8517,-1.20316 -3.73127,-9.57575 z"
       id="path942-1"
       inkscape:connector-curvature="0"
       inkscape:export-filename="D:\images\BlueBanquise_logo_ng_text.png"
       inkscape:export-xdpi="38.292931"
       inkscape:export-ydpi="38.292931" />
    <path
       style="opacity:1;fill:#099bee;fill-opacity:1;fill-rule:nonzero;stroke:#2cd1f5;stroke-width:0.26374856;stroke-linecap:round;stroke-miterlimit:4;stroke-dasharray:0.52749712, 1.05499422;stroke-dashoffset:0;stroke-opacity:0"
       d="m 164.83953,415.29864 c -0.0791,-0.21725 -2.00048,-14.97053 -4.26961,-32.78506 -2.26914,-17.81454 -4.1722,-32.43944 -4.22903,-32.49979 -0.0568,-0.0603 -0.14922,-0.0603 -0.20533,0 -0.0561,0.0604 -7.42714,12.71176 -16.38007,28.11424 -16.21034,27.88804 -16.27929,28.00086 -16.57761,27.12339 -0.16476,-0.48462 -5.19554,-15.132 -11.17951,-32.54973 -5.98397,-17.41772 -10.8139,-31.73464 -10.73317,-31.81537 0.0807,-0.0807 12.89743,-2.67867 28.48157,-5.77321 l 28.3348,-5.62643 13.58759,5.55937 c 7.47318,3.05766 13.64103,5.69864 13.70635,5.86885 0.0653,0.1702 -4.33788,16.5318 -9.78487,36.3591 -11.38701,41.44927 -10.56397,38.53833 -10.75111,38.02464 z"
       id="path944-8"
       inkscape:connector-curvature="0"
       inkscape:export-filename="D:\images\BlueBanquise_logo_ng_text.png"
       inkscape:export-xdpi="38.292931"
       inkscape:export-ydpi="38.292931" />
    <path
       style="opacity:1;fill:#2edaf9;fill-opacity:1;fill-rule:nonzero;stroke:#2cd1f5;stroke-width:0.26374856;stroke-linecap:round;stroke-miterlimit:4;stroke-dasharray:0.52749712, 1.05499422;stroke-dashoffset:0;stroke-opacity:0"
       d="m 103.32942,339.61901 c 0.0603,-0.0566 12.92127,-6.50688 28.57984,-14.33405 l 28.47012,-14.23123 12.14697,14.24843 c 6.68084,7.83663 12.10688,14.28852 12.05789,14.33751 -0.049,0.049 -6.01804,-2.33589 -13.26454,-5.29977 l -13.17544,-5.38885 -27.08923,5.38268 c -25.48955,5.06482 -28.00131,5.54363 -27.72561,5.28528 z"
       id="path946-5"
       inkscape:connector-curvature="0"
       inkscape:export-filename="D:\images\BlueBanquise_logo_ng_text.png"
       inkscape:export-xdpi="38.292931"
       inkscape:export-ydpi="38.292931" />
    <path
       style="fill:none;stroke:#000000;stroke-width:0.26458332px;stroke-linecap:butt;stroke-linejoin:miter;stroke-opacity:1"
       d="m 2.8869989,233.38075 59.7481821,-29.87409 25.48085,29.87409 -26.61435,96.84087 -7.39658,-21.37439 -6.11408,28.79996 -8.19354,-31.67253 -4.40044,22.00738 z"
       id="path904-2"
       inkscape:connector-curvature="0" />
    <path
       style="fill:none;stroke:#000000;stroke-width:0.26458332px;stroke-linecap:butt;stroke-linejoin:miter;stroke-opacity:1"
       d="m 2.8869989,233.38075 57.4077321,-11.39289 27.8213,11.39289"
       id="path908-5"
       inkscape:connector-curvature="0"
       sodipodi:nodetypes="ccc" />
    <path
       style="fill:none;stroke:#000000;stroke-width:0.26458332px;stroke-linecap:butt;stroke-linejoin:miter;stroke-opacity:1"
       d="m 39.797481,305.97466 15.17575,-34.93681 -0.86813,37.80939"
       id="path933"
       inkscape:connector-curvature="0"
       sodipodi:nodetypes="ccc" />
    <path
       style="fill:none;stroke:#000000;stroke-width:0.26458332px;stroke-linecap:butt;stroke-linejoin:miter;stroke-opacity:1"
       d="m 25.479831,299.74124 32.91674,-56.61678 15.371092,43.53824"
       id="path935"
       inkscape:connector-curvature="0"
       sodipodi:nodetypes="ccc" />
    <path
       style="opacity:1;fill:#093d84;fill-opacity:0;fill-rule:nonzero;stroke:#2cd1f5;stroke-width:0.26374856;stroke-linecap:round;stroke-miterlimit:4;stroke-dasharray:0.52749711, 1.05499421;stroke-dashoffset:0;stroke-opacity:0"
       d="m 47.811801,335.84868 c -0.38798,-1.26128 -7.59791,-29.26944 -7.62737,-29.62976 -0.0281,-0.3432 14.33916,-33.74668 14.45925,-33.61744 0.0241,0.0259 -0.13534,8.10509 -0.35423,17.95378 l -0.39798,17.9067 -2.87921,13.69336 c -1.58357,7.53135 -2.91504,13.81186 -2.95884,13.9567 -0.0438,0.14483 -0.15252,0.0263 -0.24162,-0.26334 z"
       id="path940"
       inkscape:connector-curvature="0" />
    <path
       style="opacity:1;fill:#093d84;fill-opacity:0;fill-rule:nonzero;stroke:#2cd1f5;stroke-width:0.26374856;stroke-linecap:round;stroke-miterlimit:4;stroke-dasharray:0.52749712, 1.05499422;stroke-dashoffset:0;stroke-opacity:0"
       d="m -378.95631,852.81028 c -0.38798,-1.26128 -7.59791,-29.26944 -7.62737,-29.62976 -0.0281,-0.3432 14.33916,-33.74668 14.45925,-33.61744 0.0241,0.0259 -0.13534,8.10509 -0.35423,17.95378 l -0.39798,17.9067 -2.87921,13.69336 c -1.58357,7.53135 -2.91504,13.81186 -2.95884,13.9567 -0.0438,0.14483 -0.15252,0.0263 -0.24162,-0.26334 z"
       id="path940-3"
       inkscape:connector-curvature="0" />
    <path
       style="opacity:1;fill:#093d84;fill-opacity:1;fill-rule:nonzero;stroke:#2cd1f5;stroke-width:0.73214185;stroke-linecap:round;stroke-miterlimit:4;stroke-dasharray:1.46428381, 2.92856762;stroke-dashoffset:0;stroke-opacity:0"
       d="m -382.82009,836.99547 -3.55695,-14.16919 6.4497,-14.91522 c 3.54733,-8.20337 6.72119,-15.40864 7.05302,-16.01171 0.33183,-0.60307 0.43284,6.46927 0.22447,15.7163 -0.34941,15.50606 -0.57975,17.80704 -2.9637,29.60514 -1.42166,7.03577 -2.82441,13.05142 -3.11721,13.3681 -0.29281,0.31665 -2.133,-5.80039 -4.08933,-13.59342 z"
       id="path1106"
       inkscape:connector-curvature="0" />
    <path
       style="opacity:1;fill:#0659b1;fill-opacity:1;fill-rule:nonzero;stroke:#2cd1f5;stroke-width:0.73214185;stroke-linecap:round;stroke-miterlimit:4;stroke-dasharray:1.46428381, 2.92856762;stroke-dashoffset:0;stroke-opacity:0"
       d="m -368.82305,835.42681 -3.46871,-10.02016 0.50353,-19.12937 c 0.32131,-12.20678 0.24998,-18.86484 -0.19712,-18.39838 -0.38536,0.40205 -4.02362,8.46122 -8.08502,17.90928 -6.59354,15.33854 -7.59739,18.26233 -9.37332,27.30037 l -1.98895,10.12211 -4.60067,-13.3196 -4.60067,-13.31961 15.86643,-27.31203 c 8.72653,-15.02161 16.03089,-27.31291 16.23191,-27.31398 0.20103,-10e-4 3.62006,9.25549 7.59786,20.57015 l 7.23236,20.57208 -4.9379,18.17706 c -2.71584,9.99737 -5.33685,19.52822 -5.82445,21.17965 l -0.88656,3.00257 z"
       id="path1108"
       inkscape:connector-curvature="0" />
    <path
       style="opacity:1;fill:#099bee;fill-opacity:1;fill-rule:nonzero;stroke:#2cd1f5;stroke-width:0.73214185;stroke-linecap:round;stroke-miterlimit:4;stroke-dasharray:1.46428381, 2.92856762;stroke-dashoffset:0;stroke-opacity:0"
       d="m -411.97812,783.45952 c -5.98233,-17.42788 -10.84203,-31.94876 -10.79934,-32.26862 0.0427,-0.31987 12.67574,-3.10218 28.07346,-6.18291 l 27.99584,-5.60135 13.52333,5.4941 c 7.43783,3.02176 13.61469,5.57643 13.72634,5.67704 0.30489,0.27475 -13.08771,48.91551 -13.63337,49.5152 -0.25934,0.28502 -3.59357,-8.37078 -7.40941,-19.23511 -6.9503,-19.78871 -7.71261,-21.74172 -8.23627,-21.10095 -0.15477,0.18938 -7.13708,12.18637 -15.51625,26.66 -8.37916,14.47362 -15.59767,26.85881 -16.04111,27.52266 -0.64668,0.96808 -2.95912,-5.06478 -11.68322,-30.48006 z"
       id="path1110"
       inkscape:connector-curvature="0" />
    <path
       style="opacity:1;fill:#2edaf9;fill-opacity:1;fill-rule:nonzero;stroke:#2cd1f5;stroke-width:0.73214185;stroke-linecap:round;stroke-miterlimit:4;stroke-dasharray:1.46428381, 2.92856762;stroke-dashoffset:0;stroke-opacity:0"
       d="m -418.91308,748.48625 c 0.16751,-0.15655 12.53113,-6.39405 27.4747,-13.8611 l 27.17013,-13.57647 11.67853,13.67836 c 6.4232,7.52309 11.60617,13.75776 11.51774,13.85482 -0.0884,0.0971 -5.80427,-2.1322 -12.70186,-4.95391 l -12.54108,-5.13039 -26.0844,5.13666 c -27.04125,5.32509 -27.01479,5.32026 -26.51376,4.85203 z"
       id="path1112"
       inkscape:connector-curvature="0" />
    <path
       style="opacity:0.3;fill:#141414;fill-opacity:1;stroke:none;stroke-width:0.86248863;stroke-miterlimit:4;stroke-dasharray:none;stroke-opacity:1"
       d="m -101.47733,284.35427 c -0.75392,-1.20407 -1.52524,-2.44985 -1.71404,-2.7684 l -0.34324,-0.57919 0.64006,-0.48107 c 0.35202,-0.26461 0.68413,-0.42846 0.73798,-0.36414 0.13326,0.15916 2.161935,6.28304 2.09962,6.33816 -0.0275,0.0241 -0.66646,-0.94128 -1.42038,-2.14536 z"
       id="path874"
       inkscape:connector-curvature="0" />
    <path
       style="opacity:0.3;fill:#141414;fill-opacity:1;stroke:none;stroke-width:0.70004523;stroke-miterlimit:4;stroke-dasharray:none;stroke-opacity:1"
       d="m -119.70393,280.73911 c -2.03979,-1.22898 -3.71026,-2.27945 -3.71217,-2.3344 -0.002,-0.0549 1.63763,-3.20981 3.64339,-7.01085 l 3.64687,-6.91096 0.0808,3.00386 c 0.17598,6.54586 0.26997,15.50287 0.1627,15.49505 -0.062,-0.004 -1.78173,-1.01375 -3.82152,-2.2427 z"
       id="path872"
       inkscape:connector-curvature="0" />
    <path
       style="opacity:0.3;fill:#141414;fill-opacity:1;stroke:none;stroke-width:0.79996258;stroke-miterlimit:4;stroke-dasharray:none;stroke-opacity:1"
       d="m -127.64139,282.90352 c -2.46409,-2.71143 -3.06676,-3.45086 -2.92128,-3.58418 0.32648,-0.29923 4.28391,-2.50893 4.35873,-2.43378 0.10935,0.10979 1.75116,8.98997 1.70616,9.22789 -0.0221,0.11377 -1.43112,-1.32552 -3.14361,-3.20993 z"
       id="path870"
       inkscape:connector-curvature="0" />
    <path
       style="opacity:0.3;fill:#141414;fill-opacity:1;stroke:none;stroke-width:0.68434131;stroke-miterlimit:4;stroke-dasharray:none;stroke-opacity:1"
       d="m -141.63283,285.38412 c -3.33397,-2.02078 -6.03817,-3.72423 -6.00928,-3.78542 0.085,-0.1804 9.48767,-8.76996 9.59992,-8.76996 0.0565,0 0.48261,2.45877 0.94719,5.46395 0.46461,3.00514 1.03051,6.65971 1.25758,8.12123 0.22709,1.46153 0.37991,2.65441 0.33965,2.65084 -0.0403,-0.004 -2.80106,-1.65985 -6.13506,-3.68064 z"
       id="path868"
       inkscape:connector-curvature="0" />
    <path
       style="opacity:0.3;fill:#141414;fill-opacity:1;stroke:none;stroke-width:0.74068677;stroke-miterlimit:4;stroke-dasharray:none;stroke-opacity:1"
       d="m -155.96411,288.56093 c -1.54795,-0.60265 -2.92628,-1.14278 -3.06295,-1.20031 -0.20652,-0.087 0.41653,-0.69157 3.68561,-3.57712 2.16374,-1.90989 3.94777,-3.46013 3.96451,-3.44496 0.0241,0.0221 -1.59608,8.57282 -1.73673,9.16628 -0.0223,0.0943 -1.10172,-0.26308 -2.85044,-0.94389 z"
       id="path866"
       inkscape:connector-curvature="0" />
    <path
       style="opacity:1;fill:#108bde;fill-opacity:1;stroke:none;stroke-width:0.70696419;stroke-miterlimit:4;stroke-dasharray:none;stroke-opacity:1"
       d="m -121.43608,395.15877 c -0.0545,-0.16823 -0.95055,-3.82309 -1.99126,-8.12194 l -1.89221,-7.81609 2.70744,-12.26746 c 1.4891,-6.74711 2.71402,-12.25838 2.7221,-12.24729 0.009,0.0111 -0.29673,8.66334 -0.67728,19.2272 -0.38058,10.56387 -0.70945,19.73002 -0.73084,20.36921 -0.0257,0.76636 -0.0726,1.05805 -0.1379,0.85637 z"
       id="path882"
       inkscape:connector-curvature="0" />
    <path
       style="opacity:1;fill:#108bde;fill-opacity:1;stroke:none;stroke-width:0.76916564;stroke-miterlimit:4;stroke-dasharray:none;stroke-opacity:1"
       d="m -138.25741,370.47554 -1.22347,-2.54877 0.61668,-2.87798 c 0.33917,-1.58291 0.89894,-4.13558 1.24394,-5.67262 l 0.62731,-2.79462 0.0155,8.22138 c 0.009,4.52178 -1.3e-4,8.22139 -0.0199,8.22139 -0.0199,0 -0.58764,-1.14694 -1.26054,-2.54878 z"
       id="path878"
       inkscape:connector-curvature="0" />
    <path
       style="opacity:1;fill:#108bde;fill-opacity:1;stroke:none;stroke-width:0.68377012;stroke-miterlimit:4;stroke-dasharray:none;stroke-opacity:1"
       d="m -136.65917,392.49384 c -2.24478,-9.20533 -4.11811,-16.82177 -4.16293,-16.92539 -0.0682,-0.15783 0.94307,-6.0795 1.1366,-6.65534 0.0345,-0.10248 0.61624,1.16926 1.29284,2.82623 0.67658,1.65695 1.28788,3.11156 1.3584,3.23244 0.18926,0.32451 0.7937,0.28646 0.99748,-0.0629 0.0908,-0.1554 0.61248,-1.97834 1.15948,-4.05089 0.95447,-3.61647 0.99582,-3.73793 1.02601,-3.01465 0.15163,3.63055 1.33618,40.76587 1.309,41.03561 -0.0199,0.19347 -1.87209,-7.17986 -4.11688,-16.38521 z"
       id="path880"
       inkscape:connector-curvature="0" />
    <path
       style="opacity:1;fill:#108bde;fill-opacity:1;stroke:none;stroke-width:0.65993273;stroke-miterlimit:4;stroke-dasharray:none;stroke-opacity:1"
       d="m -149.94462,385.02422 -3.27441,-11.59683 2.33268,-10.76774 c 1.30333,-6.01625 2.34611,-10.58587 2.36311,-10.35559 0.0901,1.22147 1.91576,43.84796 1.88709,44.06224 -0.0177,0.14011 -1.50755,-4.96381 -3.30847,-11.34208 z"
       id="path876"
       inkscape:connector-curvature="0" />
    <path
       style="fill:none;stroke:#141414;stroke-width:1.10678756;stroke-linecap:butt;stroke-linejoin:round;stroke-miterlimit:4;stroke-dasharray:none;stroke-opacity:1"
       d="m -209.43911,184.47495 -24.68254,87.20061 2.55119,-34.89471 -6.48318,30.47101 1.6208,-48.29977 -12.64224,60.94199 -1.62078,-46.35481 -2.91745,10.37308 v -23.01532 l -9.40063,48.29977 -2.26912,-51.86551 -6.48318,29.82266 -27.22941,-82.66068 15.55966,-11.34559 13.61471,5.51072 1.94496,-10.3731 15.88381,10.04894 -2.59329,-17.50462 13.61471,14.91133 -1.94496,-10.3731 10.3731,6.80736 -0.32415,-20.74622 17.50462,27.22941 -3.56576,-10.3731 14.26304,16.20797"
       id="path899"
       inkscape:connector-curvature="0"
       sodipodi:nodetypes="ccccccccccccccccccccccccc" />
    <path
       style="fill:none;stroke:#141414;stroke-width:1.10678756;stroke-linecap:butt;stroke-linejoin:miter;stroke-miterlimit:4;stroke-dasharray:none;stroke-opacity:1"
       d="m -150.88778,279.4874 -8.77134,7.9408"
       id="path901"
       inkscape:connector-curvature="0" />
    <path
       style="fill:none;stroke:#141414;stroke-width:1.10678756;stroke-linecap:butt;stroke-linejoin:miter;stroke-miterlimit:4;stroke-dasharray:none;stroke-opacity:1"
       d="m -137.59726,272.03172 -10.10946,9.6801"
       id="path903"
       inkscape:connector-curvature="0" />
    <path
       style="fill:none;stroke:#141414;stroke-width:1.10678756;stroke-linecap:butt;stroke-linejoin:miter;stroke-miterlimit:4;stroke-dasharray:none;stroke-opacity:1"
       d="m -125.92751,276.56995 -4.88994,2.80336"
       id="path905"
       inkscape:connector-curvature="0" />
    <path
       style="fill:none;stroke:#141414;stroke-width:1.10678756;stroke-linecap:butt;stroke-linejoin:miter;stroke-miterlimit:4;stroke-dasharray:none;stroke-opacity:1"
       d="m -115.87856,262.63109 -7.53362,15.57296"
       id="path907"
       inkscape:connector-curvature="0" />
    <path
       style="fill:none;stroke:#141414;stroke-width:1.10678756;stroke-linecap:butt;stroke-linejoin:miter;stroke-miterlimit:4;stroke-dasharray:none;stroke-opacity:1"
       d="m -101.9397,279.4874 -2.2447,1.70476"
       id="path911"
       inkscape:connector-curvature="0"
       sodipodi:nodetypes="cc" />
    <path
       style="fill:none;stroke:#141414;stroke-width:1.10678756;stroke-linecap:butt;stroke-linejoin:miter;stroke-miterlimit:4;stroke-dasharray:none;stroke-opacity:1"
       d="m -153.65502,373.21115 7.52762,26.57567"
       id="path913"
       inkscape:connector-curvature="0"
       sodipodi:nodetypes="cc" />
    <path
       style="fill:none;stroke:#141414;stroke-width:1.10678756;stroke-linecap:butt;stroke-linejoin:miter;stroke-miterlimit:4;stroke-dasharray:none;stroke-opacity:1"
       d="m -136.62477,375.11445 -3.02706,-7.00761"
       id="path915"
       inkscape:connector-curvature="0" />
    <path
       style="fill:none;stroke:#141414;stroke-width:1.10678756;stroke-linecap:butt;stroke-linejoin:miter;stroke-miterlimit:4;stroke-dasharray:none;stroke-opacity:1"
       d="m -132.08654,411.09618 -9.06851,-35.05478"
       id="path917"
       inkscape:connector-curvature="0"
       sodipodi:nodetypes="cc" />
    <path
       style="fill:none;stroke:#141414;stroke-width:1.10678756;stroke-linecap:butt;stroke-linejoin:miter;stroke-miterlimit:4;stroke-dasharray:none;stroke-opacity:1"
       d="m -121.0651,398.45396 -4.42576,-19.44364"
       id="path919"
       inkscape:connector-curvature="0"
       sodipodi:nodetypes="cc" />
    <g
       transform="matrix(1.1067876,0,0,1.1067876,-230.92035,211.27603)"
       aria-label="BlueBanquise"
       style="font-style:normal;font-variant:normal;font-weight:normal;font-stretch:normal;font-size:10.58333302px;line-height:1.25;font-family:Uroob;-inkscape-font-specification:Uroob;letter-spacing:0px;word-spacing:0px;fill:#000000;fill-opacity:1;stroke:none;stroke-width:0.26458332"
       id="text935">
      <path
         d="M 59.760843,91.440544 V 79.307811 h 3.869267 q 1.1176,0 1.921933,0.220134 0.8128,0.220133 1.329267,0.626533 0.524933,0.4064 0.770466,0.999067 0.254,0.5842 0.254,1.3208 0,0.448733 -0.143933,0.8636 -0.135467,0.414866 -0.423333,0.770466 -0.2794,0.3556 -0.7112,0.635 -0.423334,0.2794 -0.999067,0.4572 1.329267,0.262467 2.0066,0.956733 0.677333,0.694267 0.677333,1.8288 0,0.770467 -0.287866,1.405467 -0.2794,0.635 -0.829734,1.0922 -0.541866,0.4572 -1.337733,0.7112 -0.7874,0.245533 -1.8034,0.245533 z m 1.642534,-5.528733 v 4.224867 h 2.624666 q 0.702733,0 1.202267,-0.160867 0.508,-0.160867 0.829733,-0.448733 0.3302,-0.296334 0.4826,-0.694267 0.1524,-0.4064 0.1524,-0.889 0,-0.9398 -0.668867,-1.481667 -0.6604,-0.550333 -2.0066,-0.550333 z m 0,-1.1684 h 2.167466 q 0.694267,0 1.202267,-0.1524 0.508,-0.1524 0.8382,-0.423333 0.338666,-0.270933 0.499533,-0.651933 0.160867,-0.389467 0.160867,-0.846667 0,-1.0668 -0.643467,-1.566333 -0.643467,-0.499534 -1.998133,-0.499534 h -2.226733 z"
         style="fill:#108bde;fill-opacity:1"
         id="path4546"
         inkscape:connector-curvature="0" />
      <path
         d="M 72.147312,78.969145 V 91.440544 H 70.640245 V 78.969145 Z"
         style="fill:#108bde;fill-opacity:1"
         id="path4548"
         inkscape:connector-curvature="0" />
      <path
         d="m 76.10733,82.863811 v 5.469467 q 0,0.973666 0.448734,1.507066 0.448733,0.5334 1.354666,0.5334 0.6604,0 1.2446,-0.313266 0.5842,-0.313267 1.075267,-0.872067 v -6.3246 h 1.507066 v 8.576733 h -0.897466 q -0.321734,0 -0.4064,-0.313267 l -0.118534,-0.922866 q -0.5588,0.618066 -1.253066,0.999066 -0.694267,0.372534 -1.591734,0.372534 -0.702733,0 -1.244599,-0.2286 -0.5334,-0.237067 -0.897467,-0.6604 -0.364067,-0.423333 -0.550333,-1.024467 -0.1778,-0.601133 -0.1778,-1.329266 v -5.469467 z"
         style="fill:#108bde;fill-opacity:1"
         id="path4550"
         inkscape:connector-curvature="0" />
      <path
         d="m 87.624377,82.728345 q 0.770467,0 1.4224,0.262466 0.651933,0.254 1.126067,0.745067 0.474133,0.4826 0.7366,1.202266 0.270933,0.7112 0.270933,1.6256 0,0.3556 -0.0762,0.474134 -0.0762,0.118533 -0.287867,0.118533 h -5.706533 q 0.01693,0.8128 0.220134,1.413933 0.2032,0.601134 0.5588,1.007534 0.355599,0.397933 0.846666,0.601133 0.491067,0.194733 1.100667,0.194733 0.567266,0 0.973666,-0.127 0.414867,-0.135466 0.7112,-0.287866 0.296334,-0.1524 0.491067,-0.2794 0.2032,-0.135467 0.347133,-0.135467 0.186267,0 0.287867,0.143933 l 0.423333,0.550334 q -0.2794,0.338666 -0.668866,0.592666 -0.389467,0.245533 -0.8382,0.4064 -0.440267,0.160867 -0.9144,0.237067 -0.474134,0.08467 -0.9398,0.08467 -0.889,0 -1.642534,-0.296333 -0.745066,-0.3048 -1.295399,-0.880533 -0.541867,-0.5842 -0.846667,-1.439333 -0.3048,-0.855134 -0.3048,-1.964267 0,-0.897467 0.270933,-1.6764 0.2794,-0.778933 0.795867,-1.3462 0.516467,-0.575733 1.261533,-0.897466 0.745067,-0.3302 1.6764,-0.3302 z m 0.03387,1.109133 q -1.0922,0 -1.718733,0.635 -0.626534,0.626533 -0.778934,1.744133 h 4.665133 q 0,-0.524933 -0.143933,-0.956733 -0.143933,-0.440267 -0.423333,-0.753534 -0.2794,-0.321733 -0.6858,-0.491066 -0.397934,-0.1778 -0.9144,-0.1778 z"
         style="fill:#108bde;fill-opacity:1"
         id="path4552"
         inkscape:connector-curvature="0" />
      <path
         d="M 93.329851,91.440544 V 79.307811 h 3.869267 q 1.1176,0 1.921933,0.220134 0.8128,0.220133 1.329269,0.626533 0.52493,0.4064 0.77046,0.999067 0.254,0.5842 0.254,1.3208 0,0.448733 -0.14393,0.8636 -0.13547,0.414866 -0.42333,0.770466 -0.2794,0.3556 -0.7112,0.635 -0.423336,0.2794 -0.999069,0.4572 1.329269,0.262467 2.006599,0.956733 0.67733,0.694267 0.67733,1.8288 0,0.770467 -0.28786,1.405467 -0.2794,0.635 -0.82974,1.0922 -0.54186,0.4572 -1.337729,0.7112 -0.7874,0.245533 -1.8034,0.245533 z m 1.642533,-5.528733 v 4.224867 h 2.624667 q 0.702733,0 1.202267,-0.160867 0.508,-0.160867 0.829733,-0.448733 0.3302,-0.296334 0.482599,-0.694267 0.1524,-0.4064 0.1524,-0.889 0,-0.9398 -0.668866,-1.481667 -0.6604,-0.550333 -2.0066,-0.550333 z m 0,-1.1684 h 2.167467 q 0.694267,0 1.202267,-0.1524 0.508,-0.1524 0.8382,-0.423333 0.338666,-0.270933 0.499533,-0.651933 0.160867,-0.389467 0.160867,-0.846667 0,-1.0668 -0.643467,-1.566333 -0.643467,-0.499534 -1.998133,-0.499534 h -2.226734 z"
         style="font-style:normal;font-variant:normal;font-weight:normal;font-stretch:normal;font-size:16.93333244px;font-family:Lato;-inkscape-font-specification:Lato;fill:#565656;fill-opacity:1;stroke-width:0.26458332"
         id="path4554"
         inkscape:connector-curvature="0" />
      <path
         d="m 110.33912,91.440544 h -0.66887 q -0.22013,0 -0.3556,-0.06773 -0.13546,-0.06773 -0.1778,-0.287867 l -0.16933,-0.795866 q -0.33867,0.3048 -0.6604,0.550333 -0.32173,0.237066 -0.67733,0.4064 -0.3556,0.160866 -0.762,0.245533 -0.39794,0.08467 -0.889,0.08467 -0.49954,0 -0.9398,-0.135467 -0.4318,-0.143933 -0.75354,-0.423333 -0.32173,-0.2794 -0.51646,-0.702733 -0.18627,-0.4318 -0.18627,-1.016 0,-0.508 0.2794,-0.973667 0.2794,-0.474133 0.89747,-0.8382 0.62653,-0.364067 1.63406,-0.592667 1.00754,-0.237066 2.4638,-0.270933 V 85.95415 q 0,-0.999066 -0.4318,-1.507066 -0.42333,-0.516467 -1.26153,-0.516467 -0.55033,0 -0.93133,0.143934 -0.37254,0.135466 -0.65194,0.313266 -0.27093,0.169333 -0.47413,0.313267 -0.19473,0.135466 -0.38947,0.135466 -0.1524,0 -0.27093,-0.0762 -0.11007,-0.08467 -0.1778,-0.2032 l -0.27093,-0.482599 q 0.7112,-0.6858 1.53246,-1.024467 0.82127,-0.338667 1.82034,-0.338667 0.71966,0 1.27846,0.237067 0.5588,0.237067 0.9398,0.6604 0.381,0.423333 0.57574,1.024466 0.19473,0.601134 0.19473,1.3208 z m -3.9116,-0.922866 q 0.39793,0 0.72813,-0.0762 0.3302,-0.08467 0.61807,-0.2286 0.29633,-0.1524 0.5588,-0.364067 0.27093,-0.211667 0.52493,-0.4826 v -1.786467 q -1.0414,0.03387 -1.76953,0.169334 -0.72813,0.127 -1.18533,0.338666 -0.4572,0.211667 -0.66887,0.499534 -0.2032,0.287866 -0.2032,0.643466 0,0.338667 0.11007,0.5842 0.11006,0.245534 0.29633,0.4064 0.18627,0.1524 0.44027,0.2286 0.254,0.06773 0.55033,0.06773 z"
         style="font-style:normal;font-variant:normal;font-weight:normal;font-stretch:normal;font-size:16.93333244px;font-family:Lato;-inkscape-font-specification:Lato;fill:#565656;fill-opacity:1;stroke-width:0.26458332"
         id="path4556"
         inkscape:connector-curvature="0" />
      <path
         d="m 112.63888,91.440544 v -8.576733 h 0.89746 q 0.32174,0 0.4064,0.313267 l 0.11854,0.931333 q 0.5588,-0.618066 1.2446,-0.999066 0.69426,-0.381 1.6002,-0.381 0.70273,0 1.23613,0.237066 0.54187,0.2286 0.89747,0.6604 0.36406,0.423334 0.55033,1.024467 0.18627,0.601133 0.18627,1.329266 v 5.461 h -1.50707 v -5.461 q 0,-0.973666 -0.44873,-1.507066 -0.44027,-0.541867 -1.35467,-0.541867 -0.66887,0 -1.25307,0.321734 -0.57573,0.321733 -1.0668,0.872066 v 6.316133 z"
         style="font-style:normal;font-variant:normal;font-weight:normal;font-stretch:normal;font-size:16.93333244px;font-family:Lato;-inkscape-font-specification:Lato;fill:#565656;fill-opacity:1;stroke-width:0.26458332"
         id="path4558"
         inkscape:connector-curvature="0" />
      <path
         d="m 128.99886,82.863811 v 11.4808 h -1.50707 v -4.174067 q -0.54186,0.626533 -1.23613,1.007533 -0.6858,0.381 -1.5748,0.381 -0.7366,0 -1.33773,-0.2794 -0.60114,-0.287866 -1.02447,-0.838199 -0.42333,-0.550334 -0.65193,-1.3716 -0.2286,-0.821267 -0.2286,-1.888067 0,-0.948267 0.254,-1.761067 0.254,-0.821266 0.72813,-1.422399 0.4826,-0.601134 1.1684,-0.9398 0.6858,-0.347134 1.55787,-0.347134 0.82973,0 1.40546,0.296334 0.5842,0.296333 1.0414,0.8382 l 0.1016,-0.668867 q 0.0847,-0.313267 0.4064,-0.313267 z m -3.81847,7.476067 q 0.7366,0 1.28694,-0.338667 0.5588,-0.338667 1.02446,-0.956733 v -4.148667 q -0.4064,-0.541866 -0.90593,-0.770466 -0.49953,-0.237067 -1.10067,-0.237067 -1.20226,0 -1.84573,0.855133 -0.64347,0.855133 -0.64347,2.4384 0,0.8382 0.14394,1.439333 0.14393,0.592667 0.42333,0.982134 0.2794,0.381 0.6858,0.5588 0.4064,0.1778 0.93133,0.1778 z"
         style="font-style:normal;font-variant:normal;font-weight:normal;font-stretch:normal;font-size:16.93333244px;font-family:Lato;-inkscape-font-specification:Lato;fill:#565656;fill-opacity:1;stroke-width:0.26458332"
         id="path4560"
         inkscape:connector-curvature="0" />
      <path
         d="m 132.82738,82.863811 v 5.469467 q 0,0.973666 0.44873,1.507066 0.44873,0.5334 1.35467,0.5334 0.6604,0 1.2446,-0.313266 0.5842,-0.313267 1.07526,-0.872067 v -6.3246 h 1.50707 v 8.576733 h -0.89747 q -0.32173,0 -0.4064,-0.313267 l -0.11853,-0.922866 q -0.5588,0.618066 -1.25307,0.999066 -0.69426,0.372534 -1.59173,0.372534 -0.70273,0 -1.2446,-0.2286 -0.5334,-0.237067 -0.89747,-0.6604 -0.36406,-0.423333 -0.55033,-1.024467 -0.1778,-0.601133 -0.1778,-1.329266 v -5.469467 z"
         style="font-style:normal;font-variant:normal;font-weight:normal;font-stretch:normal;font-size:16.93333244px;font-family:Lato;-inkscape-font-specification:Lato;fill:#565656;fill-opacity:1;stroke-width:0.26458332"
         id="path4562"
         inkscape:connector-curvature="0" />
      <path
         d="m 142.62569,82.863811 v 8.576733 h -1.50707 v -8.576733 z m 0.33867,-2.6924 q 0,0.220134 -0.0931,0.414867 -0.0847,0.186267 -0.23706,0.338667 -0.14394,0.143933 -0.33867,0.2286 -0.19473,0.08467 -0.41487,0.08467 -0.22013,0 -0.41486,-0.08467 -0.18627,-0.08467 -0.33867,-0.2286 -0.14393,-0.1524 -0.2286,-0.338667 -0.0847,-0.194733 -0.0847,-0.414867 0,-0.220133 0.0847,-0.414866 0.0847,-0.2032 0.2286,-0.347134 0.1524,-0.1524 0.33867,-0.237066 0.19473,-0.08467 0.41486,-0.08467 0.22014,0 0.41487,0.08467 0.19473,0.08467 0.33867,0.237066 0.1524,0.143934 0.23706,0.347134 0.0931,0.194733 0.0931,0.414866 z"
         style="font-style:normal;font-variant:normal;font-weight:normal;font-stretch:normal;font-size:16.93333244px;font-family:Lato;-inkscape-font-specification:Lato;fill:#565656;fill-opacity:1;stroke-width:0.26458332"
         id="path4564"
         inkscape:connector-curvature="0" />
      <path
         d="m 150.19252,84.277745 q -0.1016,0.186266 -0.31327,0.186266 -0.127,0 -0.28787,-0.09313 -0.16086,-0.09313 -0.39793,-0.2032 -0.2286,-0.118533 -0.55033,-0.211667 -0.32174,-0.1016 -0.762,-0.1016 -0.381,0 -0.6858,0.1016 -0.3048,0.09313 -0.52494,0.262467 -0.21166,0.169333 -0.3302,0.397933 -0.11006,0.220133 -0.11006,0.4826 0,0.3302 0.18626,0.550333 0.19474,0.220134 0.508,0.381 0.31327,0.160867 0.7112,0.287867 0.39794,0.118533 0.8128,0.262467 0.42334,0.135466 0.82127,0.3048 0.39793,0.169333 0.7112,0.423333 0.31327,0.254 0.49953,0.626533 0.19473,0.364067 0.19473,0.880534 0,0.592666 -0.21166,1.100666 -0.21167,0.499534 -0.62653,0.872067 -0.41487,0.364066 -1.016,0.575733 -0.60114,0.211667 -1.38854,0.211667 -0.89746,0 -1.6256,-0.287867 -0.72813,-0.296333 -1.23613,-0.753533 l 0.3556,-0.575733 q 0.0677,-0.110067 0.16087,-0.169334 0.0931,-0.05927 0.24553,-0.05927 0.1524,0 0.32173,0.118533 0.16934,0.118533 0.4064,0.262467 0.24554,0.143933 0.5842,0.262466 0.34714,0.118534 0.8636,0.118534 0.44027,0 0.77047,-0.110067 0.3302,-0.118533 0.55033,-0.313267 0.22014,-0.194733 0.32174,-0.448733 0.11006,-0.254 0.11006,-0.541867 0,-0.3556 -0.19473,-0.5842 -0.18627,-0.237066 -0.49953,-0.397933 -0.31327,-0.169333 -0.71967,-0.287867 -0.39793,-0.127 -0.82127,-0.262466 -0.41486,-0.135467 -0.82126,-0.3048 -0.39794,-0.1778 -0.7112,-0.440267 -0.31327,-0.262467 -0.508,-0.643467 -0.18627,-0.389466 -0.18627,-0.9398 0,-0.491066 0.2032,-0.939799 0.2032,-0.4572 0.59267,-0.795867 0.38946,-0.347133 0.95673,-0.550333 0.56727,-0.2032 1.2954,-0.2032 0.84667,0 1.51553,0.270933 0.67734,0.262467 1.1684,0.728133 z"
         style="font-style:normal;font-variant:normal;font-weight:normal;font-stretch:normal;font-size:16.93333244px;font-family:Lato;-inkscape-font-specification:Lato;fill:#565656;fill-opacity:1;stroke-width:0.26458332"
         id="path4566"
         inkscape:connector-curvature="0" />
      <path
         d="m 156.01917,82.728345 q 0.77046,0 1.4224,0.262466 0.65193,0.254 1.12606,0.745067 0.47414,0.4826 0.7366,1.202266 0.27094,0.7112 0.27094,1.6256 0,0.3556 -0.0762,0.474134 -0.0762,0.118533 -0.28787,0.118533 h -5.70653 q 0.0169,0.8128 0.22013,1.413933 0.2032,0.601134 0.5588,1.007534 0.3556,0.397933 0.84667,0.601133 0.49106,0.194733 1.10066,0.194733 0.56727,0 0.97367,-0.127 0.41487,-0.135466 0.7112,-0.287866 0.29633,-0.1524 0.49107,-0.2794 0.2032,-0.135467 0.34713,-0.135467 0.18627,0 0.28787,0.143933 l 0.42333,0.550334 q -0.2794,0.338666 -0.66887,0.592666 -0.38946,0.245533 -0.8382,0.4064 -0.44026,0.160867 -0.9144,0.237067 -0.47413,0.08467 -0.9398,0.08467 -0.889,0 -1.64253,-0.296333 -0.74507,-0.3048 -1.2954,-0.880533 -0.54187,-0.5842 -0.84667,-1.439333 -0.3048,-0.855134 -0.3048,-1.964267 0,-0.897467 0.27094,-1.6764 0.2794,-0.778933 0.79586,-1.3462 0.51647,-0.575733 1.26154,-0.897466 0.74506,-0.3302 1.6764,-0.3302 z m 0.0339,1.109133 q -1.0922,0 -1.71873,0.635 -0.62653,0.626533 -0.77893,1.744133 h 4.66513 q 0,-0.524933 -0.14393,-0.956733 -0.14394,-0.440267 -0.42334,-0.753534 -0.2794,-0.321733 -0.6858,-0.491066 -0.39793,-0.1778 -0.9144,-0.1778 z"
         style="font-style:normal;font-variant:normal;font-weight:normal;font-stretch:normal;font-size:16.93333244px;font-family:Lato;-inkscape-font-specification:Lato;fill:#565656;fill-opacity:1;stroke-width:0.26458332"
         id="path4568"
         inkscape:connector-curvature="0" />
    </g>
    <path
       style="fill:none;stroke:#108bde;stroke-width:1.07137036;stroke-linecap:round;stroke-linejoin:miter;stroke-miterlimit:4;stroke-dasharray:none;stroke-opacity:1"
       d="m -182.00711,295.69537 132.812811,0.0299"
       id="path937"
       inkscape:connector-curvature="0"
       sodipodi:nodetypes="cc" />
    <path
       style="fill:none;stroke:#000000;stroke-width:0.26458332px;stroke-linecap:butt;stroke-linejoin:miter;stroke-opacity:1"
       d="m 331.59535,460.13092 -27.22941,-82.66068 15.55966,-11.34559 6.78833,3.07842 8.77134,-7.9408 3.18106,2.22442 10.10946,-9.6801 6.77981,7.34159 4.88994,-2.80336 2.51533,1.6341 7.53362,-15.57296 11.69416,18.56107 2.2447,-1.70476 14.26304,16.20797 -29.45645,107.18229 2.55119,-34.89471 -6.48318,30.47101 -4.25445,-19.23323 -6.76699,31.87544 -9.06851,-35.05478 -4.97235,23.74543 -7.09163,-26.35943 z"
       id="path902"
       inkscape:connector-curvature="0" />
    <g
       id="g928"
       transform="matrix(1.1068217,0,0,1.1068217,655.65754,-43.471397)">
      <path
         sodipodi:nodetypes="ccc"
         inkscape:connector-curvature="0"
         id="path908-5-5"
         d="m -317.38771,380.31567 58.52468,-8.4759 26.70174,8.4759"
         style="fill:none;stroke:#000000;stroke-width:0.26458332px;stroke-linecap:butt;stroke-linejoin:miter;stroke-opacity:1" />
      <path
         sodipodi:nodetypes="ccc"
         inkscape:connector-curvature="0"
         id="path933-7"
         d="m -280.47837,452.90733 15.16944,-33.82174 -0.86226,36.69424"
         style="fill:none;stroke:#000000;stroke-width:0.26458332px;stroke-linecap:butt;stroke-linejoin:miter;stroke-opacity:1" />
      <path
         sodipodi:nodetypes="ccc"
         inkscape:connector-curvature="0"
         id="path935-2"
         d="m -295.41352,447.52704 33.52793,-56.35484 15.02185,42.49049"
         style="fill:none;stroke:#000000;stroke-width:0.26458332px;stroke-linecap:butt;stroke-linejoin:miter;stroke-opacity:1" />
    </g>
    <path
       style="opacity:1;fill:#099bee;fill-opacity:1;stroke:none;stroke-width:0.77433324;stroke-linecap:round;stroke-miterlimit:4;stroke-dasharray:1.54866648, 3.09733296;stroke-dashoffset:0;stroke-opacity:1"
       d="m -412.22599,635.57597 c -6.54248,-19.73313 -11.72106,-36.05276 -11.50797,-36.26585 0.21309,-0.2131 14.58623,-2.44888 31.94032,-4.9684 l 31.55289,-4.58094 14.27038,4.49834 c 7.84871,2.47411 14.36744,4.61478 14.48605,4.75707 0.11862,0.14229 -3.19843,12.60922 -7.37121,27.70431 -4.17278,15.09509 -7.69042,27.88973 -7.81697,28.43252 -0.12654,0.54279 -3.85053,-9.28544 -8.27552,-21.84051 -4.425,-12.55508 -8.29014,-22.82742 -8.58921,-22.82742 -0.29907,0 -7.09625,11.04587 -15.10484,24.54642 -8.00859,13.50053 -16.16474,27.21862 -18.12479,30.48466 l -3.56371,5.93823 z"
       id="path930"
       inkscape:connector-curvature="0" />
    <path
       style="opacity:1;fill:#2edaf9;fill-opacity:1;stroke:none;stroke-width:0.82556468;stroke-linecap:round;stroke-miterlimit:4;stroke-dasharray:1.65112935, 3.3022587;stroke-dashoffset:0;stroke-opacity:1"
       d="m -421.08304,596.54355 c 0.40395,-0.44887 3.16061,-2.82021 6.1259,-5.26967 5.56768,-4.59909 6.17909,-4.73119 10.42542,-2.25238 1.75967,1.02718 2.22849,0.78556 6.31505,-3.25469 3.93779,-3.89321 4.59814,-4.25243 6.11783,-3.32792 1.5428,0.93857 2.15215,0.53099 6.45683,-4.31864 l 4.75326,-5.35501 3.54923,4.0344 3.54923,4.03441 2.43393,-1.43067 c 1.72822,-1.01588 2.84065,-1.18329 3.83664,-0.57739 1.22375,0.74445 1.8393,-0.15964 4.82499,-7.08668 1.88226,-4.36704 3.63313,-8.08859 3.89083,-8.27014 0.25769,-0.18157 2.86696,4.00721 5.79836,9.30842 4.30865,7.79181 5.64543,9.59683 6.977,9.4208 1.21109,-0.16013 3.18991,1.75943 7.47463,7.25071 3.20512,4.10764 5.74748,7.55941 5.6497,7.67057 -0.0978,0.11116 -6.22585,-2.00232 -13.61794,-4.69658 l -13.44016,-4.89862 -29.80658,4.92815 c -31.90472,5.27508 -32.44312,5.34539 -31.31415,4.09093 z"
       id="path932"
       inkscape:connector-curvature="0" />
    <path
       style="opacity:1;fill:#0659b1;fill-opacity:1;stroke:none;stroke-width:0.77433324;stroke-linecap:round;stroke-miterlimit:4;stroke-dasharray:1.54866648, 3.09733296;stroke-dashoffset:0;stroke-opacity:1"
       d="m -392.47041,687.98173 c -1.64207,-6.2674 -3.15699,-11.70393 -3.3665,-12.08119 -0.20951,-0.37727 -0.78003,0.29046 -1.26782,1.48383 l -0.88689,2.16974 -0.98236,-3.27882 -0.98236,-3.27882 18.02261,-30.37478 c 9.91243,-16.7061 18.25207,-29.9884 18.53253,-29.51617 0.28046,0.47223 4.00001,10.71359 8.26566,22.75856 l 7.75573,21.89998 -5.49838,20.03851 c -3.02411,11.02117 -5.6405,19.89638 -5.81419,19.72268 -0.1737,-0.1737 0.10056,-5.65857 0.60947,-12.18856 1.50207,-19.2736 0.90659,-18.5289 -4.13094,5.16588 l -1.80801,8.50427 -1.49087,-6.18493 c -1.30091,-5.39689 -1.48791,-9.06621 -1.46771,-28.79857 0.0127,-12.43748 -0.17711,-22.61362 -0.42187,-22.61362 -0.24476,0 -4.18096,8.34596 -8.7471,18.5466 -7.31123,16.33305 -8.54522,19.72403 -10.33925,28.41199 -1.12044,5.42597 -2.25294,10.12264 -2.51667,10.43705 -0.26373,0.31437 -1.82302,-4.55626 -3.46508,-10.82363 z"
       id="path934"
       inkscape:connector-curvature="0" />
    <path
       style="opacity:1;fill:#093d84;fill-opacity:1;stroke:none;stroke-width:0.77433324;stroke-linecap:round;stroke-miterlimit:4;stroke-dasharray:1.54866648, 3.09733296;stroke-dashoffset:0;stroke-opacity:1"
       d="m -379.29956,695.33453 c -2.0846,-8.18537 -3.5115,-14.74228 -3.83906,-15.11384 -0.32756,-0.37155 -0.24898,-1.06735 0.17463,-1.54622 0.4236,-0.4789 3.52559,-8.62083 7.56147,-17.5503 l 7.33796,-16.23545 -0.36213,18.69943 c -0.34881,18.01159 -0.47062,19.21306 -3.31173,32.66414 -1.62229,7.68058 -3.13441,13.96473 -3.36028,13.96473 -0.22588,0 -2.11626,-6.69713 -4.20086,-14.88249 z"
       id="path936"
       inkscape:connector-curvature="0"
       sodipodi:nodetypes="sccccscss" />
    <path
       style="opacity:0.3;fill:#141414;fill-opacity:1;stroke:none;stroke-width:0.84436196;stroke-miterlimit:4;stroke-dasharray:none;stroke-opacity:1"
       d="m -349.1391,432.19651 c -0.73808,-1.17877 -1.49319,-2.39837 -1.67802,-2.71022 l -0.33602,-0.56701 0.62661,-0.47099 c 0.34462,-0.25903 0.66975,-0.41944 0.72249,-0.35647 0.13045,0.15582 2.11647,6.15097 2.05549,6.20495 -0.0268,0.0236 -0.65245,-0.92149 -1.39055,-2.10026 z"
       id="path874-8"
       inkscape:connector-curvature="0" />
    <path
       style="opacity:0.3;fill:#141414;fill-opacity:1;stroke:none;stroke-width:0.68533254;stroke-miterlimit:4;stroke-dasharray:none;stroke-opacity:1"
       d="m -366.98264,428.65729 c -1.99692,-1.20311 -3.63229,-2.23151 -3.63415,-2.2853 -0.002,-0.0537 1.6032,-3.14236 3.56682,-6.86351 l 3.57021,-6.76572 0.0789,2.94074 c 0.17228,6.40828 0.26429,15.17704 0.15928,15.16939 -0.0609,-0.004 -1.74428,-0.99244 -3.74121,-2.1956 z"
       id="path872-2"
       inkscape:connector-curvature="0" />
    <path
       style="opacity:0.3;fill:#141414;fill-opacity:1;stroke:none;stroke-width:0.78314996;stroke-miterlimit:4;stroke-dasharray:none;stroke-opacity:1"
       d="m -374.75328,430.77625 c -2.4123,-2.65445 -3.00228,-3.37834 -2.85989,-3.50885 0.31962,-0.29295 4.19388,-2.45621 4.26713,-2.38263 0.10705,0.10747 1.71435,8.80102 1.6703,9.03394 -0.0217,0.11138 -1.40103,-1.29768 -3.07754,-3.14246 z"
       id="path870-1"
       inkscape:connector-curvature="0" />
    <path
       style="opacity:0.3;fill:#141414;fill-opacity:1;stroke:none;stroke-width:0.66995871;stroke-miterlimit:4;stroke-dasharray:none;stroke-opacity:1"
       d="m -388.45064,433.20471 c -3.26393,-1.97831 -5.91129,-3.64596 -5.883,-3.70586 0.0832,-0.17661 9.28826,-8.58564 9.39816,-8.58564 0.0553,0 0.47245,2.40709 0.92729,5.34909 0.45483,2.942 1.00884,6.51977 1.23114,7.95057 0.22232,1.43082 0.37192,2.59861 0.33251,2.59512 -0.0394,-0.004 -2.74219,-1.62496 -6.0061,-3.60328 z"
       id="path868-6"
       inkscape:connector-curvature="0" />
    <path
       style="opacity:0.3;fill:#141414;fill-opacity:1;stroke:none;stroke-width:0.72511989;stroke-miterlimit:4;stroke-dasharray:none;stroke-opacity:1"
       d="m -402.48074,436.31476 c -1.51543,-0.58999 -2.86479,-1.11877 -2.99858,-1.17509 -0.20219,-0.0851 0.40777,-0.67703 3.60814,-3.50193 2.11827,-1.86976 3.86481,-3.38742 3.88119,-3.37257 0.0236,0.0217 -1.56253,8.39264 -1.70023,8.97363 -0.0219,0.0923 -1.07856,-0.25755 -2.79052,-0.92404 z"
       id="path866-9"
       inkscape:connector-curvature="0" />
    <path
       style="opacity:1;fill:#108bde;fill-opacity:1;stroke:none;stroke-width:0.69210607;stroke-miterlimit:4;stroke-dasharray:none;stroke-opacity:1"
       d="m -368.67838,540.67225 c -0.0533,-0.16469 -0.93056,-3.74273 -1.94941,-7.95124 l -1.85245,-7.65182 2.65055,-12.00964 c 1.4578,-6.6053 2.657,-12.00074 2.66489,-11.98989 0.009,0.0108 -0.2905,8.48126 -0.66306,18.82311 -0.37255,10.34185 -0.69453,19.31536 -0.71547,19.94112 -0.0251,0.75025 -0.0711,1.0358 -0.13501,0.83836 z"
       id="path882-1"
       inkscape:connector-curvature="0" />
    <path
       style="opacity:1;fill:#108bde;fill-opacity:1;stroke:none;stroke-width:0.75300026;stroke-miterlimit:4;stroke-dasharray:none;stroke-opacity:1"
       d="m -385.14619,516.50779 -1.19773,-2.49521 0.6037,-2.81749 c 0.33203,-1.54965 0.88003,-4.04866 1.2178,-5.55341 l 0.61412,-2.73588 0.0151,8.04859 c 0.009,4.42675 -1.1e-4,8.04861 -0.0195,8.04861 -0.0195,0 -0.57529,-1.12284 -1.23406,-2.49521 z"
       id="path878-7"
       inkscape:connector-curvature="0" />
    <path
       style="opacity:1;fill:#108bde;fill-opacity:1;stroke:none;stroke-width:0.66939944;stroke-miterlimit:4;stroke-dasharray:none;stroke-opacity:1"
       d="m -383.58153,538.06334 c -2.19761,-9.01187 -4.03157,-16.46825 -4.07545,-16.56968 -0.0668,-0.15451 0.92325,-5.95172 1.11271,-6.51547 0.0338,-0.10028 0.60329,1.14469 1.26568,2.76683 0.66238,1.62213 1.2608,3.04617 1.32985,3.16451 0.18528,0.31769 0.77702,0.28044 0.97654,-0.0615 0.0888,-0.15213 0.59958,-1.93676 1.13508,-3.96576 0.93443,-3.54046 0.9749,-3.65937 1.00445,-2.95129 0.14844,3.55426 1.3081,39.90911 1.2815,40.17319 -0.0195,0.1894 -1.83275,-7.02898 -4.03036,-16.04085 z"
       id="path880-9"
       inkscape:connector-curvature="0" />
    <path
       style="opacity:1;fill:#108bde;fill-opacity:1;stroke:none;stroke-width:0.64606309;stroke-miterlimit:4;stroke-dasharray:none;stroke-opacity:1"
       d="m -396.58777,530.75071 -3.2056,-11.35311 2.28367,-10.54144 c 1.27593,-5.8898 2.29679,-10.36338 2.31344,-10.13795 0.0881,1.1958 1.87549,42.92642 1.84743,43.13619 -0.0195,0.13718 -1.47587,-4.85948 -3.23894,-11.10369 z"
       id="path876-9"
       inkscape:connector-curvature="0" />
    <path
       style="fill:none;stroke:#141414;stroke-width:1.08352649;stroke-linecap:butt;stroke-linejoin:round;stroke-miterlimit:4;stroke-dasharray:none;stroke-opacity:1"
       d="m -340.30206,462.86099 -24.16379,85.36792 2.49758,-34.16133 -6.34693,29.83061 1.58673,-47.28466 -12.37654,59.66118 -1.58671,-45.38059 -2.85614,10.15507 v -22.53161 l -9.20306,47.28467 -2.22142,-50.77546 -6.34693,29.19589 -26.65715,-80.92343 15.23266,-11.10714 13.32857,5.3949 1.90408,-10.15509 15.54999,9.83774 -2.53879,-17.13673 13.32857,14.59794 -1.90408,-10.15509 10.15511,6.6643 -0.31736,-20.31021 17.13673,26.65714 -3.49082,-10.15509 13.96328,15.86733"
       id="path899-4"
       inkscape:connector-curvature="0"
       sodipodi:nodetypes="ccccccccccccccccccccccccc" />
    <path
       style="fill:none;stroke:#141414;stroke-width:1.08352649;stroke-linecap:butt;stroke-linejoin:miter;stroke-miterlimit:4;stroke-dasharray:none;stroke-opacity:1"
       d="m -397.51111,427.43192 -8.58699,7.77391"
       id="path901-4"
       inkscape:connector-curvature="0" />
    <path
       style="fill:none;stroke:#141414;stroke-width:1.08352649;stroke-linecap:butt;stroke-linejoin:miter;stroke-miterlimit:4;stroke-dasharray:none;stroke-opacity:1"
       d="m -384.49991,420.13293 -9.897,9.47666"
       id="path903-7"
       inkscape:connector-curvature="0" />
    <path
       style="fill:none;stroke:#141414;stroke-width:1.08352649;stroke-linecap:butt;stroke-linejoin:miter;stroke-miterlimit:4;stroke-dasharray:none;stroke-opacity:1"
       d="m -373.07542,424.57578 -4.78718,2.74444"
       id="path905-1"
       inkscape:connector-curvature="0" />
    <path
       style="fill:none;stroke:#141414;stroke-width:1.08352649;stroke-linecap:butt;stroke-linejoin:miter;stroke-miterlimit:4;stroke-dasharray:none;stroke-opacity:1"
       d="m -363.23767,410.92987 -7.37529,15.24567"
       id="path907-0"
       inkscape:connector-curvature="0" />
    <path
       style="fill:none;stroke:#141414;stroke-width:1.08352649;stroke-linecap:butt;stroke-linejoin:miter;stroke-miterlimit:4;stroke-dasharray:none;stroke-opacity:1"
       d="m -349.59176,427.43192 -2.19752,1.66893"
       id="path911-8"
       inkscape:connector-curvature="0"
       sodipodi:nodetypes="cc" />
    <path
       style="fill:none;stroke:#141414;stroke-width:1.08352649;stroke-linecap:butt;stroke-linejoin:miter;stroke-miterlimit:4;stroke-dasharray:none;stroke-opacity:1"
       d="m -400.22018,519.1859 7.36941,26.01715"
       id="path913-0"
       inkscape:connector-curvature="0"
       sodipodi:nodetypes="cc" />
    <path
       style="fill:none;stroke:#141414;stroke-width:1.08352649;stroke-linecap:butt;stroke-linejoin:miter;stroke-miterlimit:4;stroke-dasharray:none;stroke-opacity:1"
       d="m -383.54786,521.04919 -2.96345,-6.86032"
       id="path915-6"
       inkscape:connector-curvature="0" />
    <path
       style="fill:none;stroke:#141414;stroke-width:1.08352649;stroke-linecap:butt;stroke-linejoin:miter;stroke-miterlimit:4;stroke-dasharray:none;stroke-opacity:1"
       d="m -379.10501,556.27471 -8.87791,-34.31804"
       id="path917-6"
       inkscape:connector-curvature="0"
       sodipodi:nodetypes="cc" />
    <path
       style="fill:none;stroke:#141414;stroke-width:1.08352649;stroke-linecap:butt;stroke-linejoin:miter;stroke-miterlimit:4;stroke-dasharray:none;stroke-opacity:1"
       d="m -368.3152,543.89819 -4.33274,-19.035"
       id="path919-8"
       inkscape:connector-curvature="0"
       sodipodi:nodetypes="cc" />
    <g
       transform="matrix(1.0835265,0,0,1.0835265,-475.86166,360.65413)"
       aria-label="BlueBanquise"
       style="font-style:normal;font-variant:normal;font-weight:normal;font-stretch:normal;font-size:10.58333302px;line-height:1.25;font-family:Uroob;-inkscape-font-specification:Uroob;letter-spacing:0px;word-spacing:0px;fill:#000000;fill-opacity:1;stroke:none;stroke-width:0.26458332"
       id="text935-8">
      <path
         d="M 59.760843,91.440544 V 79.307811 h 3.869267 q 1.1176,0 1.921933,0.220134 0.8128,0.220133 1.329267,0.626533 0.524933,0.4064 0.770466,0.999067 0.254,0.5842 0.254,1.3208 0,0.448733 -0.143933,0.8636 -0.135467,0.414866 -0.423333,0.770466 -0.2794,0.3556 -0.7112,0.635 -0.423334,0.2794 -0.999067,0.4572 1.329267,0.262467 2.0066,0.956733 0.677333,0.694267 0.677333,1.8288 0,0.770467 -0.287866,1.405467 -0.2794,0.635 -0.829734,1.0922 -0.541866,0.4572 -1.337733,0.7112 -0.7874,0.245533 -1.8034,0.245533 z m 1.642534,-5.528733 v 4.224867 h 2.624666 q 0.702733,0 1.202267,-0.160867 0.508,-0.160867 0.829733,-0.448733 0.3302,-0.296334 0.4826,-0.694267 0.1524,-0.4064 0.1524,-0.889 0,-0.9398 -0.668867,-1.481667 -0.6604,-0.550333 -2.0066,-0.550333 z m 0,-1.1684 h 2.167466 q 0.694267,0 1.202267,-0.1524 0.508,-0.1524 0.8382,-0.423333 0.338666,-0.270933 0.499533,-0.651933 0.160867,-0.389467 0.160867,-0.846667 0,-1.0668 -0.643467,-1.566333 -0.643467,-0.499534 -1.998133,-0.499534 h -2.226733 z"
         style="fill:#108bde;fill-opacity:1"
         id="path4546-7"
         inkscape:connector-curvature="0" />
      <path
         d="M 72.147312,78.969145 V 91.440544 H 70.640245 V 78.969145 Z"
         style="fill:#108bde;fill-opacity:1"
         id="path4548-4"
         inkscape:connector-curvature="0" />
      <path
         d="m 76.10733,82.863811 v 5.469467 q 0,0.973666 0.448734,1.507066 0.448733,0.5334 1.354666,0.5334 0.6604,0 1.2446,-0.313266 0.5842,-0.313267 1.075267,-0.872067 v -6.3246 h 1.507066 v 8.576733 h -0.897466 q -0.321734,0 -0.4064,-0.313267 l -0.118534,-0.922866 q -0.5588,0.618066 -1.253066,0.999066 -0.694267,0.372534 -1.591734,0.372534 -0.702733,0 -1.244599,-0.2286 -0.5334,-0.237067 -0.897467,-0.6604 -0.364067,-0.423333 -0.550333,-1.024467 -0.1778,-0.601133 -0.1778,-1.329266 v -5.469467 z"
         style="fill:#108bde;fill-opacity:1"
         id="path4550-8"
         inkscape:connector-curvature="0" />
      <path
         d="m 87.624377,82.728345 q 0.770467,0 1.4224,0.262466 0.651933,0.254 1.126067,0.745067 0.474133,0.4826 0.7366,1.202266 0.270933,0.7112 0.270933,1.6256 0,0.3556 -0.0762,0.474134 -0.0762,0.118533 -0.287867,0.118533 h -5.706533 q 0.01693,0.8128 0.220134,1.413933 0.2032,0.601134 0.5588,1.007534 0.355599,0.397933 0.846666,0.601133 0.491067,0.194733 1.100667,0.194733 0.567266,0 0.973666,-0.127 0.414867,-0.135466 0.7112,-0.287866 0.296334,-0.1524 0.491067,-0.2794 0.2032,-0.135467 0.347133,-0.135467 0.186267,0 0.287867,0.143933 l 0.423333,0.550334 q -0.2794,0.338666 -0.668866,0.592666 -0.389467,0.245533 -0.8382,0.4064 -0.440267,0.160867 -0.9144,0.237067 -0.474134,0.08467 -0.9398,0.08467 -0.889,0 -1.642534,-0.296333 -0.745066,-0.3048 -1.295399,-0.880533 -0.541867,-0.5842 -0.846667,-1.439333 -0.3048,-0.855134 -0.3048,-1.964267 0,-0.897467 0.270933,-1.6764 0.2794,-0.778933 0.795867,-1.3462 0.516467,-0.575733 1.261533,-0.897466 0.745067,-0.3302 1.6764,-0.3302 z m 0.03387,1.109133 q -1.0922,0 -1.718733,0.635 -0.626534,0.626533 -0.778934,1.744133 h 4.665133 q 0,-0.524933 -0.143933,-0.956733 -0.143933,-0.440267 -0.423333,-0.753534 -0.2794,-0.321733 -0.6858,-0.491066 -0.397934,-0.1778 -0.9144,-0.1778 z"
         style="fill:#108bde;fill-opacity:1"
         id="path4552-4"
         inkscape:connector-curvature="0" />
      <path
         d="M 93.329851,91.440544 V 79.307811 h 3.869267 q 1.1176,0 1.921933,0.220134 0.8128,0.220133 1.329269,0.626533 0.52493,0.4064 0.77046,0.999067 0.254,0.5842 0.254,1.3208 0,0.448733 -0.14393,0.8636 -0.13547,0.414866 -0.42333,0.770466 -0.2794,0.3556 -0.7112,0.635 -0.423336,0.2794 -0.999069,0.4572 1.329269,0.262467 2.006599,0.956733 0.67733,0.694267 0.67733,1.8288 0,0.770467 -0.28786,1.405467 -0.2794,0.635 -0.82974,1.0922 -0.54186,0.4572 -1.337729,0.7112 -0.7874,0.245533 -1.8034,0.245533 z m 1.642533,-5.528733 v 4.224867 h 2.624667 q 0.702733,0 1.202267,-0.160867 0.508,-0.160867 0.829733,-0.448733 0.3302,-0.296334 0.482599,-0.694267 0.1524,-0.4064 0.1524,-0.889 0,-0.9398 -0.668866,-1.481667 -0.6604,-0.550333 -2.0066,-0.550333 z m 0,-1.1684 h 2.167467 q 0.694267,0 1.202267,-0.1524 0.508,-0.1524 0.8382,-0.423333 0.338666,-0.270933 0.499533,-0.651933 0.160867,-0.389467 0.160867,-0.846667 0,-1.0668 -0.643467,-1.566333 -0.643467,-0.499534 -1.998133,-0.499534 h -2.226734 z"
         style="font-style:normal;font-variant:normal;font-weight:normal;font-stretch:normal;font-size:16.93333244px;font-family:Lato;-inkscape-font-specification:Lato;fill:#565656;fill-opacity:1;stroke-width:0.26458332"
         id="path4554-2"
         inkscape:connector-curvature="0" />
      <path
         d="m 110.33912,91.440544 h -0.66887 q -0.22013,0 -0.3556,-0.06773 -0.13546,-0.06773 -0.1778,-0.287867 l -0.16933,-0.795866 q -0.33867,0.3048 -0.6604,0.550333 -0.32173,0.237066 -0.67733,0.4064 -0.3556,0.160866 -0.762,0.245533 -0.39794,0.08467 -0.889,0.08467 -0.49954,0 -0.9398,-0.135467 -0.4318,-0.143933 -0.75354,-0.423333 -0.32173,-0.2794 -0.51646,-0.702733 -0.18627,-0.4318 -0.18627,-1.016 0,-0.508 0.2794,-0.973667 0.2794,-0.474133 0.89747,-0.8382 0.62653,-0.364067 1.63406,-0.592667 1.00754,-0.237066 2.4638,-0.270933 V 85.95415 q 0,-0.999066 -0.4318,-1.507066 -0.42333,-0.516467 -1.26153,-0.516467 -0.55033,0 -0.93133,0.143934 -0.37254,0.135466 -0.65194,0.313266 -0.27093,0.169333 -0.47413,0.313267 -0.19473,0.135466 -0.38947,0.135466 -0.1524,0 -0.27093,-0.0762 -0.11007,-0.08467 -0.1778,-0.2032 l -0.27093,-0.482599 q 0.7112,-0.6858 1.53246,-1.024467 0.82127,-0.338667 1.82034,-0.338667 0.71966,0 1.27846,0.237067 0.5588,0.237067 0.9398,0.6604 0.381,0.423333 0.57574,1.024466 0.19473,0.601134 0.19473,1.3208 z m -3.9116,-0.922866 q 0.39793,0 0.72813,-0.0762 0.3302,-0.08467 0.61807,-0.2286 0.29633,-0.1524 0.5588,-0.364067 0.27093,-0.211667 0.52493,-0.4826 v -1.786467 q -1.0414,0.03387 -1.76953,0.169334 -0.72813,0.127 -1.18533,0.338666 -0.4572,0.211667 -0.66887,0.499534 -0.2032,0.287866 -0.2032,0.643466 0,0.338667 0.11007,0.5842 0.11006,0.245534 0.29633,0.4064 0.18627,0.1524 0.44027,0.2286 0.254,0.06773 0.55033,0.06773 z"
         style="font-style:normal;font-variant:normal;font-weight:normal;font-stretch:normal;font-size:16.93333244px;font-family:Lato;-inkscape-font-specification:Lato;fill:#565656;fill-opacity:1;stroke-width:0.26458332"
         id="path4556-8"
         inkscape:connector-curvature="0" />
      <path
         d="m 112.63888,91.440544 v -8.576733 h 0.89746 q 0.32174,0 0.4064,0.313267 l 0.11854,0.931333 q 0.5588,-0.618066 1.2446,-0.999066 0.69426,-0.381 1.6002,-0.381 0.70273,0 1.23613,0.237066 0.54187,0.2286 0.89747,0.6604 0.36406,0.423334 0.55033,1.024467 0.18627,0.601133 0.18627,1.329266 v 5.461 h -1.50707 v -5.461 q 0,-0.973666 -0.44873,-1.507066 -0.44027,-0.541867 -1.35467,-0.541867 -0.66887,0 -1.25307,0.321734 -0.57573,0.321733 -1.0668,0.872066 v 6.316133 z"
         style="font-style:normal;font-variant:normal;font-weight:normal;font-stretch:normal;font-size:16.93333244px;font-family:Lato;-inkscape-font-specification:Lato;fill:#565656;fill-opacity:1;stroke-width:0.26458332"
         id="path4558-5"
         inkscape:connector-curvature="0" />
      <path
         d="m 128.99886,82.863811 v 11.4808 h -1.50707 v -4.174067 q -0.54186,0.626533 -1.23613,1.007533 -0.6858,0.381 -1.5748,0.381 -0.7366,0 -1.33773,-0.2794 -0.60114,-0.287866 -1.02447,-0.838199 -0.42333,-0.550334 -0.65193,-1.3716 -0.2286,-0.821267 -0.2286,-1.888067 0,-0.948267 0.254,-1.761067 0.254,-0.821266 0.72813,-1.422399 0.4826,-0.601134 1.1684,-0.9398 0.6858,-0.347134 1.55787,-0.347134 0.82973,0 1.40546,0.296334 0.5842,0.296333 1.0414,0.8382 l 0.1016,-0.668867 q 0.0847,-0.313267 0.4064,-0.313267 z m -3.81847,7.476067 q 0.7366,0 1.28694,-0.338667 0.5588,-0.338667 1.02446,-0.956733 v -4.148667 q -0.4064,-0.541866 -0.90593,-0.770466 -0.49953,-0.237067 -1.10067,-0.237067 -1.20226,0 -1.84573,0.855133 -0.64347,0.855133 -0.64347,2.4384 0,0.8382 0.14394,1.439333 0.14393,0.592667 0.42333,0.982134 0.2794,0.381 0.6858,0.5588 0.4064,0.1778 0.93133,0.1778 z"
         style="font-style:normal;font-variant:normal;font-weight:normal;font-stretch:normal;font-size:16.93333244px;font-family:Lato;-inkscape-font-specification:Lato;fill:#565656;fill-opacity:1;stroke-width:0.26458332"
         id="path4560-6"
         inkscape:connector-curvature="0" />
      <path
         d="m 132.82738,82.863811 v 5.469467 q 0,0.973666 0.44873,1.507066 0.44873,0.5334 1.35467,0.5334 0.6604,0 1.2446,-0.313266 0.5842,-0.313267 1.07526,-0.872067 v -6.3246 h 1.50707 v 8.576733 h -0.89747 q -0.32173,0 -0.4064,-0.313267 l -0.11853,-0.922866 q -0.5588,0.618066 -1.25307,0.999066 -0.69426,0.372534 -1.59173,0.372534 -0.70273,0 -1.2446,-0.2286 -0.5334,-0.237067 -0.89747,-0.6604 -0.36406,-0.423333 -0.55033,-1.024467 -0.1778,-0.601133 -0.1778,-1.329266 v -5.469467 z"
         style="font-style:normal;font-variant:normal;font-weight:normal;font-stretch:normal;font-size:16.93333244px;font-family:Lato;-inkscape-font-specification:Lato;fill:#565656;fill-opacity:1;stroke-width:0.26458332"
         id="path4562-7"
         inkscape:connector-curvature="0" />
      <path
         d="m 142.62569,82.863811 v 8.576733 h -1.50707 v -8.576733 z m 0.33867,-2.6924 q 0,0.220134 -0.0931,0.414867 -0.0847,0.186267 -0.23706,0.338667 -0.14394,0.143933 -0.33867,0.2286 -0.19473,0.08467 -0.41487,0.08467 -0.22013,0 -0.41486,-0.08467 -0.18627,-0.08467 -0.33867,-0.2286 -0.14393,-0.1524 -0.2286,-0.338667 -0.0847,-0.194733 -0.0847,-0.414867 0,-0.220133 0.0847,-0.414866 0.0847,-0.2032 0.2286,-0.347134 0.1524,-0.1524 0.33867,-0.237066 0.19473,-0.08467 0.41486,-0.08467 0.22014,0 0.41487,0.08467 0.19473,0.08467 0.33867,0.237066 0.1524,0.143934 0.23706,0.347134 0.0931,0.194733 0.0931,0.414866 z"
         style="font-style:normal;font-variant:normal;font-weight:normal;font-stretch:normal;font-size:16.93333244px;font-family:Lato;-inkscape-font-specification:Lato;fill:#565656;fill-opacity:1;stroke-width:0.26458332"
         id="path4564-4"
         inkscape:connector-curvature="0" />
      <path
         d="m 150.19252,84.277745 q -0.1016,0.186266 -0.31327,0.186266 -0.127,0 -0.28787,-0.09313 -0.16086,-0.09313 -0.39793,-0.2032 -0.2286,-0.118533 -0.55033,-0.211667 -0.32174,-0.1016 -0.762,-0.1016 -0.381,0 -0.6858,0.1016 -0.3048,0.09313 -0.52494,0.262467 -0.21166,0.169333 -0.3302,0.397933 -0.11006,0.220133 -0.11006,0.4826 0,0.3302 0.18626,0.550333 0.19474,0.220134 0.508,0.381 0.31327,0.160867 0.7112,0.287867 0.39794,0.118533 0.8128,0.262467 0.42334,0.135466 0.82127,0.3048 0.39793,0.169333 0.7112,0.423333 0.31327,0.254 0.49953,0.626533 0.19473,0.364067 0.19473,0.880534 0,0.592666 -0.21166,1.100666 -0.21167,0.499534 -0.62653,0.872067 -0.41487,0.364066 -1.016,0.575733 -0.60114,0.211667 -1.38854,0.211667 -0.89746,0 -1.6256,-0.287867 -0.72813,-0.296333 -1.23613,-0.753533 l 0.3556,-0.575733 q 0.0677,-0.110067 0.16087,-0.169334 0.0931,-0.05927 0.24553,-0.05927 0.1524,0 0.32173,0.118533 0.16934,0.118533 0.4064,0.262467 0.24554,0.143933 0.5842,0.262466 0.34714,0.118534 0.8636,0.118534 0.44027,0 0.77047,-0.110067 0.3302,-0.118533 0.55033,-0.313267 0.22014,-0.194733 0.32174,-0.448733 0.11006,-0.254 0.11006,-0.541867 0,-0.3556 -0.19473,-0.5842 -0.18627,-0.237066 -0.49953,-0.397933 -0.31327,-0.169333 -0.71967,-0.287867 -0.39793,-0.127 -0.82127,-0.262466 -0.41486,-0.135467 -0.82126,-0.3048 -0.39794,-0.1778 -0.7112,-0.440267 -0.31327,-0.262467 -0.508,-0.643467 -0.18627,-0.389466 -0.18627,-0.9398 0,-0.491066 0.2032,-0.939799 0.2032,-0.4572 0.59267,-0.795867 0.38946,-0.347133 0.95673,-0.550333 0.56727,-0.2032 1.2954,-0.2032 0.84667,0 1.51553,0.270933 0.67734,0.262467 1.1684,0.728133 z"
         style="font-style:normal;font-variant:normal;font-weight:normal;font-stretch:normal;font-size:16.93333244px;font-family:Lato;-inkscape-font-specification:Lato;fill:#565656;fill-opacity:1;stroke-width:0.26458332"
         id="path4566-1"
         inkscape:connector-curvature="0" />
      <path
         d="m 156.01917,82.728345 q 0.77046,0 1.4224,0.262466 0.65193,0.254 1.12606,0.745067 0.47414,0.4826 0.7366,1.202266 0.27094,0.7112 0.27094,1.6256 0,0.3556 -0.0762,0.474134 -0.0762,0.118533 -0.28787,0.118533 h -5.70653 q 0.0169,0.8128 0.22013,1.413933 0.2032,0.601134 0.5588,1.007534 0.3556,0.397933 0.84667,0.601133 0.49106,0.194733 1.10066,0.194733 0.56727,0 0.97367,-0.127 0.41487,-0.135466 0.7112,-0.287866 0.29633,-0.1524 0.49107,-0.2794 0.2032,-0.135467 0.34713,-0.135467 0.18627,0 0.28787,0.143933 l 0.42333,0.550334 q -0.2794,0.338666 -0.66887,0.592666 -0.38946,0.245533 -0.8382,0.4064 -0.44026,0.160867 -0.9144,0.237067 -0.47413,0.08467 -0.9398,0.08467 -0.889,0 -1.64253,-0.296333 -0.74507,-0.3048 -1.2954,-0.880533 -0.54187,-0.5842 -0.84667,-1.439333 -0.3048,-0.855134 -0.3048,-1.964267 0,-0.897467 0.27094,-1.6764 0.2794,-0.778933 0.79586,-1.3462 0.51647,-0.575733 1.26154,-0.897466 0.74506,-0.3302 1.6764,-0.3302 z m 0.0339,1.109133 q -1.0922,0 -1.71873,0.635 -0.62653,0.626533 -0.77893,1.744133 h 4.66513 q 0,-0.524933 -0.14393,-0.956733 -0.14394,-0.440267 -0.42334,-0.753534 -0.2794,-0.321733 -0.6858,-0.491066 -0.39793,-0.1778 -0.9144,-0.1778 z"
         style="font-style:normal;font-variant:normal;font-weight:normal;font-stretch:normal;font-size:16.93333244px;font-family:Lato;-inkscape-font-specification:Lato;fill:#565656;fill-opacity:1;stroke-width:0.26458332"
         id="path4568-9"
         inkscape:connector-curvature="0" />
    </g>
    <path
       style="fill:none;stroke:#108bde;stroke-width:1.04885364;stroke-linecap:round;stroke-linejoin:miter;stroke-miterlimit:4;stroke-dasharray:none;stroke-opacity:1"
       d="m -427.97642,443.29925 130.02152,0.0293"
       id="path937-7"
       inkscape:connector-curvature="0"
       sodipodi:nodetypes="cc" />
    <text
       inkscape:export-filename="D:\images\BlueBanquise_logo_ng_text.png"
       inkscape:export-xdpi="38.292931"
       inkscape:export-ydpi="38.292931"
       xml:space="preserve"
       style="font-style:normal;font-weight:normal;font-size:11.56614876px;line-height:1.25;font-family:sans-serif;letter-spacing:0px;word-spacing:0px;fill:#000000;fill-opacity:1;stroke:none;stroke-width:0.28915372"
       x="-316.51233"
       y="678.31104"
       id="text1012-3"><tspan
         sodipodi:role="line"
         id="tspan1010-6"
         x="-316.51233"
         y="678.31104"
         style="font-style:normal;font-variant:normal;font-weight:normal;font-stretch:normal;font-size:77.10766602px;font-family:'Open Sans Light';-inkscape-font-specification:'Open Sans Light, ';stroke-width:0.28915372">BlueBanquise</tspan></text>
    <path
       style="fill:none;stroke:none;stroke-width:0.60000002;stroke-linecap:butt;stroke-linejoin:round;stroke-miterlimit:4;stroke-dasharray:none;stroke-opacity:1"
       d="m -1056.5504,-277.2587 -64.5542,234.891396 5.591,-76.472216 -14.208,66.777626 3.552,-105.849586 -27.7056,133.555166 -3.552,-101.587176 -6.3936,22.73274 v -50.43837 l -20.6016,105.849576 -4.9728,-113.663936 -14.208,65.356736 -59.6736,-181.151956 34.0992,-24.86401 29.8368,12.07681 4.2624,-22.7328 34.8096,22.0224 -5.6832,-38.3616 29.8368,32.67837 -4.2624,-22.73274 22.7328,14.91838 -0.7104,-45.46558 38.3616,59.67357 -7.8144,-22.7328 31.2576,35.52"
       id="path899-9"
       inkscape:connector-curvature="0"
       sodipodi:nodetypes="ccccccccccccccccccccccccc" />
    <path
       style="fill:none;stroke:none;stroke-width:0.60000002;stroke-linecap:butt;stroke-linejoin:miter;stroke-miterlimit:4;stroke-dasharray:none;stroke-opacity:1"
       d="m -1195.0784,-312.7787 -19.2225,17.40238"
       id="path901-9"
       inkscape:connector-curvature="0" />
    <path
       style="fill:none;stroke:none;stroke-width:0.60000002;stroke-linecap:butt;stroke-linejoin:miter;stroke-miterlimit:4;stroke-dasharray:none;stroke-opacity:1"
       d="m -1165.952,-329.1179 -22.155,21.2141"
       id="path903-5"
       inkscape:connector-curvature="0" />
    <path
       style="fill:none;stroke:none;stroke-width:0.60000002;stroke-linecap:butt;stroke-linejoin:miter;stroke-miterlimit:4;stroke-dasharray:none;stroke-opacity:1"
       d="m -1140.3776,-319.17227 -10.7164,6.1436"
       id="path905-4"
       inkscape:connector-curvature="0" />
    <path
       style="fill:none;stroke:none;stroke-width:0.60000002;stroke-linecap:butt;stroke-linejoin:miter;stroke-miterlimit:4;stroke-dasharray:none;stroke-opacity:1"
       d="m -1118.3552,-349.71947 -16.51,34.12837"
       id="path907-2"
       inkscape:connector-curvature="0" />
    <path
       style="fill:none;stroke:none;stroke-width:0.60000002;stroke-linecap:butt;stroke-linejoin:miter;stroke-miterlimit:4;stroke-dasharray:none;stroke-opacity:1"
       d="m -1087.808,-312.7787 -4.9193,3.73602"
       id="path911-4"
       inkscape:connector-curvature="0"
       sodipodi:nodetypes="cc" />
    <path
       style="fill:none;stroke:none;stroke-width:0.60000002;stroke-linecap:butt;stroke-linejoin:miter;stroke-miterlimit:4;stroke-dasharray:none;stroke-opacity:1"
       d="m -1201.1428,-107.38185 16.4968,58.240936"
       id="path913-6"
       inkscape:connector-curvature="0"
       sodipodi:nodetypes="cc" />
    <path
       style="fill:none;stroke:none;stroke-width:0.60000002;stroke-linecap:butt;stroke-linejoin:miter;stroke-miterlimit:4;stroke-dasharray:none;stroke-opacity:1"
       d="m -1163.8208,-103.21075 -6.6339,-15.35726"
       id="path915-3"
       inkscape:connector-curvature="0" />
    <path
       style="fill:none;stroke:none;stroke-width:0.60000002;stroke-linecap:butt;stroke-linejoin:miter;stroke-miterlimit:4;stroke-dasharray:none;stroke-opacity:1"
       d="m -1153.8752,-24.356314 -19.8737,-76.822996"
       id="path917-8"
       inkscape:connector-curvature="0"
       sodipodi:nodetypes="cc" />
    <path
       style="fill:none;stroke:none;stroke-width:0.60000002;stroke-linecap:butt;stroke-linejoin:miter;stroke-miterlimit:4;stroke-dasharray:none;stroke-opacity:1"
       d="m -1129.7216,-52.061894 -9.6991,-42.61101"
       id="path919-5"
       inkscape:connector-curvature="0"
       sodipodi:nodetypes="cc" />
    <g
       transform="matrix(2.4255396,0,0,2.4255396,-861.45763,-66.285164)"
       aria-label="BlueBanquise"
       style="font-style:normal;font-variant:normal;font-weight:normal;font-stretch:normal;font-size:10.58333302px;line-height:1.25;font-family:Uroob;-inkscape-font-specification:Uroob;letter-spacing:0px;word-spacing:0px;fill:#000000;fill-opacity:1;stroke:none;stroke-width:0.24736764;stroke-miterlimit:4;stroke-dasharray:none"
       id="text935-88">
      <path
         d="M 59.760843,91.440544 V 79.307811 h 3.869267 q 1.1176,0 1.921933,0.220134 0.8128,0.220133 1.329267,0.626533 0.524933,0.4064 0.770466,0.999067 0.254,0.5842 0.254,1.3208 0,0.448733 -0.143933,0.8636 -0.135467,0.414866 -0.423333,0.770466 -0.2794,0.3556 -0.7112,0.635 -0.423334,0.2794 -0.999067,0.4572 1.329267,0.262467 2.0066,0.956733 0.677333,0.694267 0.677333,1.8288 0,0.770467 -0.287866,1.405467 -0.2794,0.635 -0.829734,1.0922 -0.541866,0.4572 -1.337733,0.7112 -0.7874,0.245533 -1.8034,0.245533 z m 1.642534,-5.528733 v 4.224867 h 2.624666 q 0.702733,0 1.202267,-0.160867 0.508,-0.160867 0.829733,-0.448733 0.3302,-0.296334 0.4826,-0.694267 0.1524,-0.4064 0.1524,-0.889 0,-0.9398 -0.668867,-1.481667 -0.6604,-0.550333 -2.0066,-0.550333 z m 0,-1.1684 h 2.167466 q 0.694267,0 1.202267,-0.1524 0.508,-0.1524 0.8382,-0.423333 0.338666,-0.270933 0.499533,-0.651933 0.160867,-0.389467 0.160867,-0.846667 0,-1.0668 -0.643467,-1.566333 -0.643467,-0.499534 -1.998133,-0.499534 h -2.226733 z"
         style="fill:#108bde;fill-opacity:1;stroke-width:0.24736764;stroke-miterlimit:4;stroke-dasharray:none"
         id="path4546-9"
         inkscape:connector-curvature="0" />
      <path
         d="M 72.147312,78.969145 V 91.440544 H 70.640245 V 78.969145 Z"
         style="fill:#108bde;fill-opacity:1;stroke-width:0.24736764;stroke-miterlimit:4;stroke-dasharray:none"
         id="path4548-7"
         inkscape:connector-curvature="0" />
      <path
         d="m 76.10733,82.863811 v 5.469467 q 0,0.973666 0.448734,1.507066 0.448733,0.5334 1.354666,0.5334 0.6604,0 1.2446,-0.313266 0.5842,-0.313267 1.075267,-0.872067 v -6.3246 h 1.507066 v 8.576733 h -0.897466 q -0.321734,0 -0.4064,-0.313267 l -0.118534,-0.922866 q -0.5588,0.618066 -1.253066,0.999066 -0.694267,0.372534 -1.591734,0.372534 -0.702733,0 -1.244599,-0.2286 -0.5334,-0.237067 -0.897467,-0.6604 -0.364067,-0.423333 -0.550333,-1.024467 -0.1778,-0.601133 -0.1778,-1.329266 v -5.469467 z"
         style="fill:#108bde;fill-opacity:1;stroke-width:0.24736764;stroke-miterlimit:4;stroke-dasharray:none"
         id="path4550-0"
         inkscape:connector-curvature="0" />
      <path
         d="m 87.624377,82.728345 q 0.770467,0 1.4224,0.262466 0.651933,0.254 1.126067,0.745067 0.474133,0.4826 0.7366,1.202266 0.270933,0.7112 0.270933,1.6256 0,0.3556 -0.0762,0.474134 -0.0762,0.118533 -0.287867,0.118533 h -5.706533 q 0.01693,0.8128 0.220134,1.413933 0.2032,0.601134 0.5588,1.007534 0.355599,0.397933 0.846666,0.601133 0.491067,0.194733 1.100667,0.194733 0.567266,0 0.973666,-0.127 0.414867,-0.135466 0.7112,-0.287866 0.296334,-0.1524 0.491067,-0.2794 0.2032,-0.135467 0.347133,-0.135467 0.186267,0 0.287867,0.143933 l 0.423333,0.550334 q -0.2794,0.338666 -0.668866,0.592666 -0.389467,0.245533 -0.8382,0.4064 -0.440267,0.160867 -0.9144,0.237067 -0.474134,0.08467 -0.9398,0.08467 -0.889,0 -1.642534,-0.296333 -0.745066,-0.3048 -1.295399,-0.880533 -0.541867,-0.5842 -0.846667,-1.439333 -0.3048,-0.855134 -0.3048,-1.964267 0,-0.897467 0.270933,-1.6764 0.2794,-0.778933 0.795867,-1.3462 0.516467,-0.575733 1.261533,-0.897466 0.745067,-0.3302 1.6764,-0.3302 z m 0.03387,1.109133 q -1.0922,0 -1.718733,0.635 -0.626534,0.626533 -0.778934,1.744133 h 4.665133 q 0,-0.524933 -0.143933,-0.956733 -0.143933,-0.440267 -0.423333,-0.753534 -0.2794,-0.321733 -0.6858,-0.491066 -0.397934,-0.1778 -0.9144,-0.1778 z"
         style="fill:#108bde;fill-opacity:1;stroke-width:0.24736764;stroke-miterlimit:4;stroke-dasharray:none"
         id="path4552-5"
         inkscape:connector-curvature="0" />
      <path
         d="M 93.329851,91.440544 V 79.307811 h 3.869267 q 1.1176,0 1.921933,0.220134 0.8128,0.220133 1.329269,0.626533 0.52493,0.4064 0.77046,0.999067 0.254,0.5842 0.254,1.3208 0,0.448733 -0.14393,0.8636 -0.13547,0.414866 -0.42333,0.770466 -0.2794,0.3556 -0.7112,0.635 -0.423336,0.2794 -0.999069,0.4572 1.329269,0.262467 2.006599,0.956733 0.67733,0.694267 0.67733,1.8288 0,0.770467 -0.28786,1.405467 -0.2794,0.635 -0.82974,1.0922 -0.54186,0.4572 -1.337729,0.7112 -0.7874,0.245533 -1.8034,0.245533 z m 1.642533,-5.528733 v 4.224867 h 2.624667 q 0.702733,0 1.202267,-0.160867 0.508,-0.160867 0.829733,-0.448733 0.3302,-0.296334 0.482599,-0.694267 0.1524,-0.4064 0.1524,-0.889 0,-0.9398 -0.668866,-1.481667 -0.6604,-0.550333 -2.0066,-0.550333 z m 0,-1.1684 h 2.167467 q 0.694267,0 1.202267,-0.1524 0.508,-0.1524 0.8382,-0.423333 0.338666,-0.270933 0.499533,-0.651933 0.160867,-0.389467 0.160867,-0.846667 0,-1.0668 -0.643467,-1.566333 -0.643467,-0.499534 -1.998133,-0.499534 h -2.226734 z"
         style="font-style:normal;font-variant:normal;font-weight:normal;font-stretch:normal;font-size:16.93333244px;font-family:Lato;-inkscape-font-specification:Lato;fill:#565656;fill-opacity:1;stroke-width:0.24736764;stroke-miterlimit:4;stroke-dasharray:none"
         id="path4554-7"
         inkscape:connector-curvature="0" />
      <path
         d="m 110.33912,91.440544 h -0.66887 q -0.22013,0 -0.3556,-0.06773 -0.13546,-0.06773 -0.1778,-0.287867 l -0.16933,-0.795866 q -0.33867,0.3048 -0.6604,0.550333 -0.32173,0.237066 -0.67733,0.4064 -0.3556,0.160866 -0.762,0.245533 -0.39794,0.08467 -0.889,0.08467 -0.49954,0 -0.9398,-0.135467 -0.4318,-0.143933 -0.75354,-0.423333 -0.32173,-0.2794 -0.51646,-0.702733 -0.18627,-0.4318 -0.18627,-1.016 0,-0.508 0.2794,-0.973667 0.2794,-0.474133 0.89747,-0.8382 0.62653,-0.364067 1.63406,-0.592667 1.00754,-0.237066 2.4638,-0.270933 V 85.95415 q 0,-0.999066 -0.4318,-1.507066 -0.42333,-0.516467 -1.26153,-0.516467 -0.55033,0 -0.93133,0.143934 -0.37254,0.135466 -0.65194,0.313266 -0.27093,0.169333 -0.47413,0.313267 -0.19473,0.135466 -0.38947,0.135466 -0.1524,0 -0.27093,-0.0762 -0.11007,-0.08467 -0.1778,-0.2032 l -0.27093,-0.482599 q 0.7112,-0.6858 1.53246,-1.024467 0.82127,-0.338667 1.82034,-0.338667 0.71966,0 1.27846,0.237067 0.5588,0.237067 0.9398,0.6604 0.381,0.423333 0.57574,1.024466 0.19473,0.601134 0.19473,1.3208 z m -3.9116,-0.922866 q 0.39793,0 0.72813,-0.0762 0.3302,-0.08467 0.61807,-0.2286 0.29633,-0.1524 0.5588,-0.364067 0.27093,-0.211667 0.52493,-0.4826 v -1.786467 q -1.0414,0.03387 -1.76953,0.169334 -0.72813,0.127 -1.18533,0.338666 -0.4572,0.211667 -0.66887,0.499534 -0.2032,0.287866 -0.2032,0.643466 0,0.338667 0.11007,0.5842 0.11006,0.245534 0.29633,0.4064 0.18627,0.1524 0.44027,0.2286 0.254,0.06773 0.55033,0.06773 z"
         style="font-style:normal;font-variant:normal;font-weight:normal;font-stretch:normal;font-size:16.93333244px;font-family:Lato;-inkscape-font-specification:Lato;fill:#565656;fill-opacity:1;stroke-width:0.24736764;stroke-miterlimit:4;stroke-dasharray:none"
         id="path4556-1"
         inkscape:connector-curvature="0" />
      <path
         d="m 112.63888,91.440544 v -8.576733 h 0.89746 q 0.32174,0 0.4064,0.313267 l 0.11854,0.931333 q 0.5588,-0.618066 1.2446,-0.999066 0.69426,-0.381 1.6002,-0.381 0.70273,0 1.23613,0.237066 0.54187,0.2286 0.89747,0.6604 0.36406,0.423334 0.55033,1.024467 0.18627,0.601133 0.18627,1.329266 v 5.461 h -1.50707 v -5.461 q 0,-0.973666 -0.44873,-1.507066 -0.44027,-0.541867 -1.35467,-0.541867 -0.66887,0 -1.25307,0.321734 -0.57573,0.321733 -1.0668,0.872066 v 6.316133 z"
         style="font-style:normal;font-variant:normal;font-weight:normal;font-stretch:normal;font-size:16.93333244px;font-family:Lato;-inkscape-font-specification:Lato;fill:#565656;fill-opacity:1;stroke-width:0.24736764;stroke-miterlimit:4;stroke-dasharray:none"
         id="path4558-7"
         inkscape:connector-curvature="0" />
      <path
         d="m 128.99886,82.863811 v 11.4808 h -1.50707 v -4.174067 q -0.54186,0.626533 -1.23613,1.007533 -0.6858,0.381 -1.5748,0.381 -0.7366,0 -1.33773,-0.2794 -0.60114,-0.287866 -1.02447,-0.838199 -0.42333,-0.550334 -0.65193,-1.3716 -0.2286,-0.821267 -0.2286,-1.888067 0,-0.948267 0.254,-1.761067 0.254,-0.821266 0.72813,-1.422399 0.4826,-0.601134 1.1684,-0.9398 0.6858,-0.347134 1.55787,-0.347134 0.82973,0 1.40546,0.296334 0.5842,0.296333 1.0414,0.8382 l 0.1016,-0.668867 q 0.0847,-0.313267 0.4064,-0.313267 z m -3.81847,7.476067 q 0.7366,0 1.28694,-0.338667 0.5588,-0.338667 1.02446,-0.956733 v -4.148667 q -0.4064,-0.541866 -0.90593,-0.770466 -0.49953,-0.237067 -1.10067,-0.237067 -1.20226,0 -1.84573,0.855133 -0.64347,0.855133 -0.64347,2.4384 0,0.8382 0.14394,1.439333 0.14393,0.592667 0.42333,0.982134 0.2794,0.381 0.6858,0.5588 0.4064,0.1778 0.93133,0.1778 z"
         style="font-style:normal;font-variant:normal;font-weight:normal;font-stretch:normal;font-size:16.93333244px;font-family:Lato;-inkscape-font-specification:Lato;fill:#565656;fill-opacity:1;stroke-width:0.24736764;stroke-miterlimit:4;stroke-dasharray:none"
         id="path4560-4"
         inkscape:connector-curvature="0" />
      <path
         d="m 132.82738,82.863811 v 5.469467 q 0,0.973666 0.44873,1.507066 0.44873,0.5334 1.35467,0.5334 0.6604,0 1.2446,-0.313266 0.5842,-0.313267 1.07526,-0.872067 v -6.3246 h 1.50707 v 8.576733 h -0.89747 q -0.32173,0 -0.4064,-0.313267 l -0.11853,-0.922866 q -0.5588,0.618066 -1.25307,0.999066 -0.69426,0.372534 -1.59173,0.372534 -0.70273,0 -1.2446,-0.2286 -0.5334,-0.237067 -0.89747,-0.6604 -0.36406,-0.423333 -0.55033,-1.024467 -0.1778,-0.601133 -0.1778,-1.329266 v -5.469467 z"
         style="font-style:normal;font-variant:normal;font-weight:normal;font-stretch:normal;font-size:16.93333244px;font-family:Lato;-inkscape-font-specification:Lato;fill:#565656;fill-opacity:1;stroke-width:0.24736764;stroke-miterlimit:4;stroke-dasharray:none"
         id="path4562-3"
         inkscape:connector-curvature="0" />
      <path
         d="m 142.62569,82.863811 v 8.576733 h -1.50707 v -8.576733 z m 0.33867,-2.6924 q 0,0.220134 -0.0931,0.414867 -0.0847,0.186267 -0.23706,0.338667 -0.14394,0.143933 -0.33867,0.2286 -0.19473,0.08467 -0.41487,0.08467 -0.22013,0 -0.41486,-0.08467 -0.18627,-0.08467 -0.33867,-0.2286 -0.14393,-0.1524 -0.2286,-0.338667 -0.0847,-0.194733 -0.0847,-0.414867 0,-0.220133 0.0847,-0.414866 0.0847,-0.2032 0.2286,-0.347134 0.1524,-0.1524 0.33867,-0.237066 0.19473,-0.08467 0.41486,-0.08467 0.22014,0 0.41487,0.08467 0.19473,0.08467 0.33867,0.237066 0.1524,0.143934 0.23706,0.347134 0.0931,0.194733 0.0931,0.414866 z"
         style="font-style:normal;font-variant:normal;font-weight:normal;font-stretch:normal;font-size:16.93333244px;font-family:Lato;-inkscape-font-specification:Lato;fill:#565656;fill-opacity:1;stroke-width:0.24736764;stroke-miterlimit:4;stroke-dasharray:none"
         id="path4564-9"
         inkscape:connector-curvature="0" />
      <path
         d="m 150.19252,84.277745 q -0.1016,0.186266 -0.31327,0.186266 -0.127,0 -0.28787,-0.09313 -0.16086,-0.09313 -0.39793,-0.2032 -0.2286,-0.118533 -0.55033,-0.211667 -0.32174,-0.1016 -0.762,-0.1016 -0.381,0 -0.6858,0.1016 -0.3048,0.09313 -0.52494,0.262467 -0.21166,0.169333 -0.3302,0.397933 -0.11006,0.220133 -0.11006,0.4826 0,0.3302 0.18626,0.550333 0.19474,0.220134 0.508,0.381 0.31327,0.160867 0.7112,0.287867 0.39794,0.118533 0.8128,0.262467 0.42334,0.135466 0.82127,0.3048 0.39793,0.169333 0.7112,0.423333 0.31327,0.254 0.49953,0.626533 0.19473,0.364067 0.19473,0.880534 0,0.592666 -0.21166,1.100666 -0.21167,0.499534 -0.62653,0.872067 -0.41487,0.364066 -1.016,0.575733 -0.60114,0.211667 -1.38854,0.211667 -0.89746,0 -1.6256,-0.287867 -0.72813,-0.296333 -1.23613,-0.753533 l 0.3556,-0.575733 q 0.0677,-0.110067 0.16087,-0.169334 0.0931,-0.05927 0.24553,-0.05927 0.1524,0 0.32173,0.118533 0.16934,0.118533 0.4064,0.262467 0.24554,0.143933 0.5842,0.262466 0.34714,0.118534 0.8636,0.118534 0.44027,0 0.77047,-0.110067 0.3302,-0.118533 0.55033,-0.313267 0.22014,-0.194733 0.32174,-0.448733 0.11006,-0.254 0.11006,-0.541867 0,-0.3556 -0.19473,-0.5842 -0.18627,-0.237066 -0.49953,-0.397933 -0.31327,-0.169333 -0.71967,-0.287867 -0.39793,-0.127 -0.82127,-0.262466 -0.41486,-0.135467 -0.82126,-0.3048 -0.39794,-0.1778 -0.7112,-0.440267 -0.31327,-0.262467 -0.508,-0.643467 -0.18627,-0.389466 -0.18627,-0.9398 0,-0.491066 0.2032,-0.939799 0.2032,-0.4572 0.59267,-0.795867 0.38946,-0.347133 0.95673,-0.550333 0.56727,-0.2032 1.2954,-0.2032 0.84667,0 1.51553,0.270933 0.67734,0.262467 1.1684,0.728133 z"
         style="font-style:normal;font-variant:normal;font-weight:normal;font-stretch:normal;font-size:16.93333244px;font-family:Lato;-inkscape-font-specification:Lato;fill:#565656;fill-opacity:1;stroke-width:0.24736764;stroke-miterlimit:4;stroke-dasharray:none"
         id="path4566-8"
         inkscape:connector-curvature="0" />
      <path
         d="m 156.01917,82.728345 q 0.77046,0 1.4224,0.262466 0.65193,0.254 1.12606,0.745067 0.47414,0.4826 0.7366,1.202266 0.27094,0.7112 0.27094,1.6256 0,0.3556 -0.0762,0.474134 -0.0762,0.118533 -0.28787,0.118533 h -5.70653 q 0.0169,0.8128 0.22013,1.413933 0.2032,0.601134 0.5588,1.007534 0.3556,0.397933 0.84667,0.601133 0.49106,0.194733 1.10066,0.194733 0.56727,0 0.97367,-0.127 0.41487,-0.135466 0.7112,-0.287866 0.29633,-0.1524 0.49107,-0.2794 0.2032,-0.135467 0.34713,-0.135467 0.18627,0 0.28787,0.143933 l 0.42333,0.550334 q -0.2794,0.338666 -0.66887,0.592666 -0.38946,0.245533 -0.8382,0.4064 -0.44026,0.160867 -0.9144,0.237067 -0.47413,0.08467 -0.9398,0.08467 -0.889,0 -1.64253,-0.296333 -0.74507,-0.3048 -1.2954,-0.880533 -0.54187,-0.5842 -0.84667,-1.439333 -0.3048,-0.855134 -0.3048,-1.964267 0,-0.897467 0.27094,-1.6764 0.2794,-0.778933 0.79586,-1.3462 0.51647,-0.575733 1.26154,-0.897466 0.74506,-0.3302 1.6764,-0.3302 z m 0.0339,1.109133 q -1.0922,0 -1.71873,0.635 -0.62653,0.626533 -0.77893,1.744133 h 4.66513 q 0,-0.524933 -0.14393,-0.956733 -0.14394,-0.440267 -0.42334,-0.753534 -0.2794,-0.321733 -0.6858,-0.491066 -0.39793,-0.1778 -0.9144,-0.1778 z"
         style="font-style:normal;font-variant:normal;font-weight:normal;font-stretch:normal;font-size:16.93333244px;font-family:Lato;-inkscape-font-specification:Lato;fill:#565656;fill-opacity:1;stroke-width:0.24736764;stroke-miterlimit:4;stroke-dasharray:none"
         id="path4568-5"
         inkscape:connector-curvature="0" />
    </g>
    <path
       style="opacity:1;fill:#093d84;fill-opacity:1;stroke:none;stroke-width:2.47940969;stroke-linecap:round;stroke-miterlimit:4;stroke-dasharray:none;stroke-dashoffset:0;stroke-opacity:1"
       d="m -1193.1046,-81.925314 c -3.7763,-13.3922 -6.8513,-25.047226 -6.8335,-25.900056 0.063,-3.03032 9.1918,-43.77539 9.6946,-43.27255 0.5667,0.56674 4.7169,89.919276 4.2793,92.132996 -0.151,0.76398 -3.3642,-9.56818 -7.1404,-22.96039 z"
       id="path1222"
       inkscape:connector-curvature="0" />
    <path
       style="opacity:1;fill:#093d84;fill-opacity:1;stroke:none;stroke-width:2.47940969;stroke-linecap:round;stroke-miterlimit:4;stroke-dasharray:none;stroke-dashoffset:0;stroke-opacity:1"
       d="m -1164.2926,-67.873314 c -7.57,-29.44818 -8.4381,-33.833136 -7.7345,-39.066516 1.2004,-8.92755 1.9774,-9.25534 4.8423,-2.04267 1.4275,3.59397 2.9395,6.53447 3.3599,6.53447 0.4204,0 1.755,-3.56706 2.9658,-7.92678 2.107,-7.58677 2.2285,-7.76264 2.8332,-4.10007 0.7158,4.33568 3.1746,78.858746 2.6201,79.413256 -0.1979,0.19786 -4.197,-14.5674 -8.8868,-32.81169 z"
       id="path1224"
       inkscape:connector-curvature="0" />
    <path
       style="opacity:1;fill:#093d84;fill-opacity:1;stroke:none;stroke-width:2.47940969;stroke-linecap:round;stroke-miterlimit:4;stroke-dasharray:none;stroke-dashoffset:0;stroke-opacity:1"
       d="m -1167.6725,-114.13475 c -1.9006,-4.97653 -1.8927,-5.44867 0.2704,-16.12694 l 2.2284,-11.00029 0.1276,16.12694 c 0.07,8.86978 -0.052,16.12691 -0.2704,16.12691 -0.219,0 -1.2792,-2.30699 -2.356,-5.12662 z"
       id="path1226"
       inkscape:connector-curvature="0" />
    <path
       style="opacity:1;fill:#093d84;fill-opacity:1;stroke:none;stroke-width:2.47940969;stroke-linecap:round;stroke-miterlimit:4;stroke-dasharray:none;stroke-dashoffset:0;stroke-opacity:1"
       d="m -1134.4881,-76.461534 -4.0103,-17.88898 5.3472,-25.095746 5.3473,-25.09576 -0.6541,25.69374 c -0.3597,14.13156 -0.9614,33.474686 -1.337,42.984736 l -0.6829,17.29099 z"
       id="path1228"
       inkscape:connector-curvature="0" />
    <path
       style="fill:none;stroke:none;stroke-width:0.51963723px;stroke-linecap:butt;stroke-linejoin:miter;stroke-opacity:1"
       d="m -1254.53,-254.29833 143.6182,-27.95778 46.7079,30.14448"
       id="path908-5-7"
       inkscape:connector-curvature="0"
       sodipodi:nodetypes="ccc" />
    <path
       style="fill:none;stroke:none;stroke-width:0.61248106px;stroke-linecap:butt;stroke-linejoin:miter;stroke-opacity:1"
       d="m -1224.8395,-157.54144 91.3141,-86.63828 45.4103,76.37521"
       id="path935-7"
       inkscape:connector-curvature="0"
       sodipodi:nodetypes="ccc" />
    <path
       style="opacity:1;fill:#0659b1;fill-opacity:1;stroke:none;stroke-width:2.47940969;stroke-linecap:round;stroke-miterlimit:4;stroke-dasharray:none;stroke-dashoffset:0;stroke-opacity:1"
       d="m -1153.5104,-37.940344 c -0.3873,-20.19345 -3.2808,-87.775936 -3.7794,-88.274566 -0.6706,-0.67056 -0.7731,-0.41106 -3.7735,9.55333 l -2.14,7.10676 -0.1355,-22.41367 c -0.074,-12.32755 -0.5364,-21.6757 -1.0263,-20.77368 -0.49,0.90202 -5.0233,23.02206 -10.074,49.15567 -5.0507,26.133576 -9.3023,46.797906 -9.4478,45.920726 -0.2451,-1.47642 -4.668,-99.620936 -4.668,-103.581536 0,-5.77956 -2.625,3.77079 -8.2729,30.09882 -3.5152,16.38659 -6.6648,29.79383 -6.999,29.79383 -0.3342,0 -4.8416,-12.72249 -10.0164,-28.27216 l -9.4086,-28.27216 44.2597,-41.97564 c 24.3428,-23.08659 44.5728,-42.08682 44.9556,-42.22271 0.3827,-0.13589 10.9059,16.93931 23.3849,37.94487 l 22.689,38.19192 -15.8271,57.17667 c -13.3411,48.195756 -15.7327,55.888646 -15.2262,48.976506 0.3305,-4.51006 1.4405,-19.6765 2.4667,-33.7032 1.0262,-14.026676 1.5496,-25.698526 1.1631,-25.937396 -0.3865,-0.23886 -2.2584,6.80945 -4.1597,15.66294 -8.6582,40.317706 -8.6836,40.420236 -8.7479,35.230876 -0.034,-2.70605 0.626,-23.85761 1.4656,-47.003456 0.8396,-23.14586 1.3168,-42.29317 1.0604,-42.54958 -0.2564,-0.25641 -0.6552,-0.26117 -0.8863,-0.0106 -0.231,0.25053 -6.1598,28.25398 -13.175,62.229856 -7.0152,33.97589 -12.9375,62.26633 -13.1605,62.86767 -0.223,0.60135 -0.4574,-1.61268 -0.5209,-4.92008 z"
       id="path1264"
       inkscape:connector-curvature="0" />
    <path
       style="opacity:1;fill:#099bee;fill-opacity:1;stroke:none;stroke-width:2.47940969;stroke-linecap:round;stroke-miterlimit:4;stroke-dasharray:none;stroke-dashoffset:0;stroke-opacity:1"
       d="m -1238.849,-205.338 c -8.1182,-24.6688 -14.7603,-45.63528 -14.7603,-46.59223 0,-1.4301 12.2641,-4.13639 68.8811,-15.19981 37.8846,-7.40296 70.1111,-13.56143 71.6145,-13.68549 1.8886,-0.15587 9.7428,4.31019 25.4122,14.44977 12.4734,8.07143 22.6825,15.15014 22.687,15.73046 0,0.58028 -5.0204,19.35625 -11.1667,41.72436 l -11.1749,40.66932 -21.2006,-35.71097 c -25.7212,-43.32573 -24.1643,-40.84201 -25.3403,-40.42558 -0.53,0.18767 -20.698,19.03751 -44.8177,41.88854 -24.1198,22.85103 -44.1961,41.65007 -44.6141,41.77564 -0.418,0.12555 -7.4021,-19.95524 -15.5202,-44.62401 z"
       id="path1266"
       inkscape:connector-curvature="0" />
    <path
       style="opacity:1;fill:#2edaf9;fill-opacity:1;stroke:none;stroke-width:2.47940969;stroke-linecap:round;stroke-miterlimit:4;stroke-dasharray:none;stroke-dashoffset:0;stroke-opacity:1"
       d="m -1087.4802,-268.11646 c -12.5895,-8.10395 -23.2462,-14.73446 -23.6815,-14.73446 -0.4353,0 -32.3494,6.15011 -70.9202,13.6669 -38.5707,7.51678 -70.7718,13.66689 -71.5579,13.66689 -0.8346,0 -2.8838,-4.36621 -4.9256,-10.49496 -2.9422,-8.83148 -3.2597,-10.7196 -2.0035,-11.91237 0.8211,-0.77959 8.2927,-6.34899 16.6036,-12.37649 l 15.1107,-10.95904 14.2736,5.9245 c 7.8504,3.25845 14.6583,5.92447 15.1287,5.92447 0.4703,0 1.7055,-4.79706 2.7449,-10.66017 1.0393,-5.86309 2.0043,-10.80072 2.1445,-10.97251 0.1402,-0.17179 7.6349,4.37928 16.6551,10.11349 9.0201,5.7342 16.8751,10.42585 17.4554,10.42585 0.6134,0 -0.01,-6.98151 -1.4784,-16.67359 -1.3935,-9.17049 -2.4008,-17.09692 -2.2385,-17.6143 0.1624,-0.51738 6.36,5.75572 13.7724,13.94021 7.4124,8.18452 13.9228,14.88091 14.4675,14.88091 0.5447,0 0.7233,-1.10702 0.3969,-2.46002 -1.2896,-5.34543 -3.5456,-18.31363 -3.186,-18.31363 0.2099,0 4.6288,2.73989 9.8198,6.08867 5.191,3.34875 10.0214,6.31245 10.7343,6.58601 0.9811,0.3765 1.1916,-4.75695 0.8662,-21.12223 -0.2365,-11.89078 -0.1945,-21.3736 0.093,-21.07293 0.2878,0.30068 8.542,13.09288 18.3427,28.42713 20.3826,31.89071 18.3931,28.94738 19.0933,28.24724 0.2993,-0.29937 -0.6836,-4.15448 -2.1844,-8.56694 -1.5008,-4.41243 -2.5532,-8.19812 -2.3387,-8.41259 0.304,-0.30403 17.5139,18.7288 25.4114,28.10301 1.1406,1.35393 0.8236,3.68279 -1.7663,12.97424 -1.736,6.22827 -3.3335,11.5012 -3.5499,11.71763 -0.2164,0.21646 -10.694,-6.23697 -23.2835,-14.34092 z"
       id="path1268"
       inkscape:connector-curvature="0" />
    <path
       style="opacity:0.378;fill:#2edaf9;fill-opacity:1;stroke:none;stroke-width:1.75320745;stroke-linecap:round;stroke-miterlimit:4;stroke-dasharray:none;stroke-dashoffset:0;stroke-opacity:1"
       d="m -1206.5889,-293.64949 c -2.9765,-1.20414 -5.3264,-2.40424 -5.222,-2.66689 0.2549,-0.64109 15.2261,-14.3037 15.4397,-14.09012 0.4907,0.49067 -3.4194,18.56298 -4.0541,18.7385 -0.4135,0.1143 -3.1871,-0.77737 -6.1636,-1.98149 z"
       id="path1270"
       inkscape:connector-curvature="0" />
    <path
       style="opacity:0.378;fill:#2edaf9;fill-opacity:1;stroke:none;stroke-width:1.75320745;stroke-linecap:round;stroke-miterlimit:4;stroke-dasharray:none;stroke-dashoffset:0;stroke-opacity:1"
       d="m -1173.6305,-299.9983 c -6.5353,-4.14626 -12.1017,-7.76668 -12.3699,-8.0454 -0.2681,-0.27871 4.0352,-4.79306 9.563,-10.03192 l 10.0505,-9.52518 2.5047,16.76011 c 1.3775,9.21806 2.4213,17.12482 2.3193,17.57056 -0.1019,0.44577 -5.5324,-2.58194 -12.0676,-6.72817 z"
       id="path1272"
       inkscape:connector-curvature="0" />
    <path
       style="opacity:0.378;fill:#2edaf9;fill-opacity:1;stroke:none;stroke-width:1.75320745;stroke-linecap:round;stroke-miterlimit:4;stroke-dasharray:none;stroke-dashoffset:0;stroke-opacity:1"
       d="m -1143.5256,-305.61641 c -3.1456,-3.52359 -5.6985,-6.6929 -5.6731,-7.04289 0.025,-0.34999 1.9088,-1.73125 4.1854,-3.06948 l 4.1392,-2.43313 1.7371,9.27279 c 0.9553,5.10003 1.6456,9.36424 1.5338,9.47603 -0.1118,0.11178 -2.7769,-2.6797 -5.9224,-6.20332 z"
       id="path1274"
       inkscape:connector-curvature="0" />
    <path
       style="opacity:0.378;fill:#2edaf9;fill-opacity:1;stroke:none;stroke-width:1.75320745;stroke-linecap:round;stroke-miterlimit:4;stroke-dasharray:none;stroke-dashoffset:0;stroke-opacity:1"
       d="m -1125.6179,-310.29451 c -3.9403,-2.64811 -7.3905,-5.04105 -7.6671,-5.31767 -0.2766,-0.2766 2.7733,-7.35004 6.7776,-15.71875 l 7.2805,-15.21582 0.4811,20.43472 c 0.2646,11.23909 0.4385,20.47916 0.3866,20.53351 -0.052,0.0543 -3.3184,-2.06785 -7.2587,-4.71599 z"
       id="path1276"
       inkscape:connector-curvature="0" />
    <path
       style="opacity:0.378;fill:#2edaf9;fill-opacity:1;stroke:none;stroke-width:1.75320745;stroke-linecap:round;stroke-miterlimit:4;stroke-dasharray:none;stroke-dashoffset:0;stroke-opacity:1"
       d="m -1087.7788,-303.4141 c -1.7761,-2.78593 -3.2293,-5.37937 -3.2293,-5.76315 0,-0.38378 0.6681,-1.05534 1.4846,-1.49236 1.348,-0.72141 1.6757,-0.22106 3.5589,5.43365 1.1408,3.4255 1.9259,6.37648 1.7446,6.55772 -0.1812,0.18124 -1.7827,-1.9499 -3.5588,-4.73586 z"
       id="path1278"
       inkscape:connector-curvature="0" />
    <text
       inkscape:export-filename="D:\images\BlueBanquise_logo_ng_text.png"
       inkscape:export-xdpi="38.292931"
       inkscape:export-ydpi="38.292931"
       xml:space="preserve"
       style="font-style:normal;font-weight:normal;font-size:22.45378876px;line-height:1.25;font-family:sans-serif;letter-spacing:0px;word-spacing:0px;fill:#000000;fill-opacity:1;stroke:none;stroke-width:0.56134474"
       x="-1044.1914"
       y="-117.95525"
       id="text1012-3-1"><tspan
         sodipodi:role="line"
         id="tspan1010-6-1"
         x="-1044.1914"
         y="-117.95525"
         style="font-style:normal;font-variant:normal;font-weight:normal;font-stretch:normal;font-size:149.69194031px;font-family:'Open Sans Light';-inkscape-font-specification:'Open Sans Light, ';stroke-width:0.56134474">BlueBanquise</tspan></text>
  </g>
</svg>
