<?xml version="1.0" encoding="UTF-8" standalone="no"?>
<!-- Created with Inkscape (http://www.inkscape.org/) -->

<svg
   xmlns:dc="http://purl.org/dc/elements/1.1/"
   xmlns:cc="http://creativecommons.org/ns#"
   xmlns:rdf="http://www.w3.org/1999/02/22-rdf-syntax-ns#"
   xmlns:svg="http://www.w3.org/2000/svg"
   xmlns="http://www.w3.org/2000/svg"
   xmlns:sodipodi="http://sodipodi.sourceforge.net/DTD/sodipodi-0.dtd"
   xmlns:inkscape="http://www.inkscape.org/namespaces/inkscape"
   width="229.77562mm"
   height="67.475594mm"
   viewBox="0 0 459.55127 134.95119"
   version="1.1"
   id="svg8"
   inkscape:version="0.92.3 (2405546, 2018-03-11)"
   sodipodi:docname="BlueBanquise_logo_large.svg">
  <defs
     id="defs2" />
  <sodipodi:namedview
     id="base"
     pagecolor="#ffffff"
     bordercolor="#666666"
     borderopacity="1.0"
     inkscape:pageopacity="0.0"
     inkscape:pageshadow="2"
     inkscape:zoom="1.4209237"
     inkscape:cx="354.29032"
     inkscape:cy="167.7208"
     inkscape:document-units="mm"
     inkscape:current-layer="layer1"
     showgrid="false"
     inkscape:window-width="1920"
     inkscape:window-height="1137"
     inkscape:window-x="-8"
     inkscape:window-y="24"
     inkscape:window-maximized="1"
     fit-margin-top="0"
     fit-margin-left="0"
     fit-margin-right="0"
     fit-margin-bottom="0"
     scale-x="2" />
  <metadata
     id="metadata5">
    <rdf:RDF>
      <cc:Work
         rdf:about="">
        <dc:format>image/svg+xml</dc:format>
        <dc:type
           rdf:resource="http://purl.org/dc/dcmitype/StillImage" />
        <dc:title />
      </cc:Work>
    </rdf:RDF>
  </metadata>
  <g
     inkscape:label="Layer 1"
     inkscape:groupmode="layer"
     id="layer1"
     transform="translate(-43.838905,-45.994973)">
    <path
       style="opacity:0.3;fill:#108bde;fill-opacity:1;stroke:none;stroke-width:0.77927208;stroke-miterlimit:4;stroke-dasharray:none;stroke-opacity:1"
       d="m 116.95381,66.027341 c -0.68118,-1.087896 -1.37809,-2.213485 -1.54866,-2.501298 l -0.31011,-0.523304 0.57829,-0.434666 c 0.31807,-0.239062 0.61812,-0.387112 0.66679,-0.328997 0.12039,0.143814 1.95333,5.676817 1.89704,5.726619 -0.0247,0.02179 -0.60216,-0.850457 -1.28335,-1.938354 z"
       id="path874"
       inkscape:connector-curvature="0" />
    <path
       style="opacity:0.3;fill:#108bde;fill-opacity:1;stroke:none;stroke-width:0.6325019;stroke-miterlimit:4;stroke-dasharray:none;stroke-opacity:1"
       d="m 100.48578,62.760973 c -1.842968,-1.110397 -3.352262,-2.059515 -3.353984,-2.109152 -0.0016,-0.04964 1.479615,-2.900125 3.291854,-6.334413 l 3.295,-6.24416 0.0729,2.714042 c 0.15892,5.914275 0.24391,14.007068 0.147,14.000011 -0.0561,-0.0041 -1.60983,-0.915934 -3.4528,-2.026328 z"
       id="path872"
       inkscape:connector-curvature="0" />
    <path
       style="opacity:0.3;fill:#108bde;fill-opacity:1;stroke:none;stroke-width:0.7227788;stroke-miterlimit:4;stroke-dasharray:none;stroke-opacity:1"
       d="m 93.314177,64.716569 c -2.226343,-2.449831 -2.770858,-3.117909 -2.639433,-3.238366 0.294978,-0.270352 3.870576,-2.266861 3.938184,-2.198964 0.09875,0.09917 1.58221,8.122591 1.541536,8.337539 -0.01946,0.102812 -1.293025,-1.197624 -2.840287,-2.900209 z"
       id="path870"
       inkscape:connector-curvature="0" />
    <path
       style="opacity:0.3;fill:#108bde;fill-opacity:1;stroke:none;stroke-width:0.61831313;stroke-miterlimit:4;stroke-dasharray:none;stroke-opacity:1"
       d="m 80.672698,66.957828 c -3.012314,-1.825811 -5.455581,-3.364897 -5.429486,-3.420189 0.07689,-0.162907 8.805009,-8.156547 8.906441,-8.156547 0.05093,0 0.203279,2.454289 0.623045,5.169501 0.419765,2.715211 0.931073,6.017166 1.136238,7.337679 0.205166,1.320509 0.343255,2.398295 0.306864,2.395073 -0.03639,-0.0032 -2.530788,-1.499704 -5.543102,-3.325517 z"
       id="path868"
       inkscape:connector-curvature="0"
       sodipodi:nodetypes="scssccs" />
    <path
       style="opacity:0.3;fill:#108bde;fill-opacity:1;stroke:none;stroke-width:0.66922212;stroke-miterlimit:4;stroke-dasharray:none;stroke-opacity:1"
       d="m 67.724151,69.828121 c -1.398603,-0.544496 -2.643945,-1.032517 -2.767425,-1.08449 -0.186562,-0.07853 0.376336,-0.62485 3.330001,-3.231986 1.954987,-1.725619 3.566884,-3.126281 3.582,-3.112582 0.02175,0.01972 -1.442084,7.745675 -1.569159,8.281885 -0.02019,0.08523 -0.995411,-0.237711 -2.575417,-0.852827 z"
       id="path866"
       inkscape:connector-curvature="0" />
    <path
       style="opacity:1;fill:#108bde;fill-opacity:1;stroke:none;stroke-width:0.65049833;stroke-miterlimit:4;stroke-dasharray:none;stroke-opacity:1"
       d="m 98.96785,166.13963 c -0.04987,-0.15553 -0.870348,-3.53498 -1.823272,-7.50987 l -1.732585,-7.22706 2.479041,-11.34298 c 1.36347,-6.23864 2.485076,-11.33458 2.492466,-11.32432 0.008,0.009 -0.2717,8.01045 -0.620153,17.77822 -0.348462,9.76776 -0.649596,18.24315 -0.669189,18.83419 -0.02349,0.70861 -0.0665,0.9783 -0.126308,0.79182 z"
       id="path882"
       inkscape:connector-curvature="0" />
    <path
       style="opacity:1;fill:#108bde;fill-opacity:1;stroke:none;stroke-width:0.70716423;stroke-miterlimit:4;stroke-dasharray:none;stroke-opacity:1"
       d="m 83.722424,143.75763 -1.105405,-2.38451 0.557168,-2.69248 c 0.306438,-1.48088 0.812209,-3.86901 1.123928,-5.30698 l 0.566766,-2.61451 0.01496,7.69149 c 0.0082,4.23032 -1.02e-4,7.69149 -0.01851,7.69149 -0.01845,0 -0.530936,-1.07303 -1.138907,-2.3845 z"
       id="path878"
       inkscape:connector-curvature="0" />
    <path
       style="opacity:1;fill:#108bde;fill-opacity:1;stroke:none;stroke-width:0.63627011;stroke-miterlimit:4;stroke-dasharray:none;stroke-opacity:1"
       d="m 85.035581,163.36819 c -2.099559,-8.52213 -3.851692,-15.5733 -3.893625,-15.66924 -0.06383,-0.14603 0.88206,-5.62828 1.063069,-6.16138 0.03224,-0.0949 0.57637,1.08247 1.209198,2.61646 0.632827,1.53398 1.204565,2.88064 1.270529,2.99255 0.177048,0.30042 0.742352,0.26519 0.932963,-0.0581 0.08483,-0.14388 0.572839,-1.83151 1.084452,-3.75025 0.892729,-3.34807 0.931391,-3.46051 0.959638,-2.7909 0.141786,3.3611 1.249737,37.74034 1.224318,37.99007 -0.01823,0.17912 -1.750978,-6.647 -3.850542,-15.16916 z"
       id="path880"
       inkscape:connector-curvature="0" />
    <path
       style="opacity:1;fill:#108bde;fill-opacity:1;stroke:none;stroke-width:0.602633;stroke-miterlimit:4;stroke-dasharray:none;stroke-opacity:1"
       d="m 73.162844,156.76392 -2.958475,-10.7031 2.107615,-9.93792 c 1.177586,-5.5526 2.11974,-9.77007 2.135098,-9.55752 0.08146,1.12733 2.103334,41.12048 2.077439,41.31825 -0.01693,0.12931 -1.734514,-5.233 -3.361677,-11.11971 z"
       id="path876"
       inkscape:connector-curvature="0"
       sodipodi:nodetypes="scsccs" />
    <path
       style="fill:none;stroke:#141414;stroke-width:0.70000005;stroke-linecap:butt;stroke-linejoin:round;stroke-miterlimit:4;stroke-dasharray:none;stroke-opacity:1"
       d="m 129.42292,76.2742 -26.61435,96.84087 2.30504,-31.5279 -5.85767,27.53103 1.46442,-43.6396 -11.42245,55.06204 -1.46441,-41.8823 -2.63596,9.37225 v -20.79471 l -8.49361,43.63961 -2.05018,-46.86131 -5.85767,26.94525 -24.60219,-74.68523 14.0584,-10.25091 12.30109,4.97901 1.7573,-9.37226 14.35128,9.07938 -2.34307,-15.8157 12.3011,13.47263 -1.7573,-9.37226 9.37227,6.15055 -0.29289,-18.74453 15.8157,24.60219 -3.22172,-9.37226 12.88687,14.64416"
       id="path899"
       inkscape:connector-curvature="0"
       sodipodi:nodetypes="ccccccccccccccccccccccccc" />
    <path
       style="fill:none;stroke:#141414;stroke-width:0.80000001;stroke-linecap:round;stroke-linejoin:miter;stroke-miterlimit:4;stroke-dasharray:none;stroke-opacity:1"
       d="m 72.31068,61.63004 -7.645722,6.755678"
       id="path901"
       inkscape:connector-curvature="0"
       sodipodi:nodetypes="cc" />
    <path
       style="fill:none;stroke:#141414;stroke-width:0.80000001;stroke-linecap:round;stroke-linejoin:miter;stroke-miterlimit:4;stroke-dasharray:none;stroke-opacity:1"
       d="m 84.31889,54.89372 -8.854752,8.420271"
       id="path903"
       inkscape:connector-curvature="0"
       sodipodi:nodetypes="cc" />
    <path
       style="fill:none;stroke:#141414;stroke-width:0.80000001;stroke-linecap:round;stroke-linejoin:miter;stroke-miterlimit:4;stroke-dasharray:none;stroke-opacity:1"
       d="m 94.86269,58.99409 -4.185394,2.253572"
       id="path905"
       inkscape:connector-curvature="0"
       sodipodi:nodetypes="cc" />
    <path
       style="fill:none;stroke:#141414;stroke-width:0.80000001;stroke-linecap:round;stroke-linejoin:miter;stroke-miterlimit:4;stroke-dasharray:none;stroke-opacity:1"
       d="M 103.94207,46.40011 97.368086,60.051568"
       id="path907"
       inkscape:connector-curvature="0"
       sodipodi:nodetypes="cc" />
    <path
       style="fill:none;stroke:#141414;stroke-width:1;stroke-linecap:butt;stroke-linejoin:miter;stroke-miterlimit:4;stroke-dasharray:none;stroke-opacity:1"
       d="m 116.53605,61.63004 -2.02813,1.54028"
       id="path911"
       inkscape:connector-curvature="0"
       sodipodi:nodetypes="cc" />
    <path
       style="fill:none;stroke:#141414;stroke-width:0.80000001;stroke-linecap:round;stroke-linejoin:miter;stroke-miterlimit:4;stroke-dasharray:none;stroke-opacity:1"
       d="m 70.204369,146.06082 6.407391,24.26165"
       id="path913"
       inkscape:connector-curvature="0"
       sodipodi:nodetypes="cc" />
    <path
       style="fill:none;stroke:#141414;stroke-width:0.80000001;stroke-linecap:round;stroke-linejoin:miter;stroke-miterlimit:4;stroke-dasharray:none;stroke-opacity:1"
       d="m 85.19754,148.03059 -2.580521,-6.65747"
       id="path915"
       inkscape:connector-curvature="0"
       sodipodi:nodetypes="cc" />
    <path
       style="fill:none;stroke:#141414;stroke-width:0.80000001;stroke-linecap:round;stroke-linejoin:miter;stroke-miterlimit:4;stroke-dasharray:none;stroke-opacity:1"
       d="M 89.29791,180.54064 81.290575,148.4026"
       id="path917"
       inkscape:connector-curvature="0"
       sodipodi:nodetypes="cc" />
    <path
       style="fill:none;stroke:#141414;stroke-width:0.80000001;stroke-linecap:round;stroke-linejoin:miter;stroke-miterlimit:4;stroke-dasharray:none;stroke-opacity:1"
       d="M 99.25594,169.1182 95.411993,151.4027"
       id="path919"
       inkscape:connector-curvature="0"
       sodipodi:nodetypes="cc" />
    <path
       style="fill:none;stroke:#108bde;stroke-width:0.70000005;stroke-linecap:round;stroke-linejoin:miter;stroke-miterlimit:4;stroke-dasharray:none;stroke-opacity:1"
       d="m 44.19389,76.2742 119.99846,0.027"
       id="path937"
       inkscape:connector-curvature="0"
       sodipodi:nodetypes="cc" />
    <g
       aria-label="BlueBanquise"
       style="font-style:normal;font-weight:normal;font-size:79.48336029px;line-height:1.25;font-family:sans-serif;letter-spacing:0px;word-spacing:0px;fill:#108bde;fill-opacity:1;stroke:none;stroke-width:1.98708403"
       id="text847">
      <path
         d="m 137.32039,104.44191 h 11.93156 q 8.06348,0 11.8423,2.73742 3.77882,2.73741 3.77882,8.27175 0,3.77882 -2.32085,6.30796 -2.2911,2.49938 -6.72452,3.21349 v 0.17852 q 5.20704,0.77362 7.64691,3.30275 2.46962,2.49938 2.46962,6.99231 0,6.01041 -3.9871,9.25366 -3.98711,3.24324 -11.30672,3.24324 h -13.33002 z m 3.03496,19.37019 h 9.58096 q 6.12943,0 8.8966,-2.02331 2.79692,-2.05306 2.79692,-6.39722 0,-4.34416 -3.15398,-6.30795 -3.12422,-1.9638 -9.34292,-1.9638 h -8.77758 z m 0,2.67791 v 18.77509 h 10.23556 q 12.08033,0 12.08033,-9.81899 0,-8.9561 -12.73493,-8.9561 z"
         style="font-style:normal;font-variant:normal;font-weight:normal;font-stretch:normal;font-size:60.9372406px;font-family:'Open Sans Light';-inkscape-font-specification:'Open Sans Light, ';fill:#108bde;fill-opacity:1;stroke-width:1.98708403"
         id="path835" />
      <path
         d="m 177.72702,147.94301 h -2.9457 v -46.29802 h 2.9457 z"
         style="font-style:normal;font-variant:normal;font-weight:normal;font-stretch:normal;font-size:60.9372406px;font-family:'Open Sans Light';-inkscape-font-specification:'Open Sans Light, ';fill:#108bde;fill-opacity:1;stroke-width:1.98708403"
         id="path837" />
      <path
         d="m 191.14631,115.59985 v 20.94718 q 0,4.87974 2.05306,7.11133 2.05306,2.20183 6.36746,2.20183 5.77238,0 8.48004,-2.91594 2.73741,-2.91594 2.73741,-9.49169 v -17.85271 h 2.91595 v 32.34316 h -2.49938 l -0.53558,-4.46318 h -0.17853 q -3.15398,5.05827 -11.21745,5.05827 -11.03893,0 -11.03893,-11.81254 v -21.12571 z"
         style="font-style:normal;font-variant:normal;font-weight:normal;font-stretch:normal;font-size:60.9372406px;font-family:'Open Sans Light';-inkscape-font-specification:'Open Sans Light, ';fill:#108bde;fill-opacity:1;stroke-width:1.98708403"
         id="path839" />
      <path
         d="m 237.5931,148.5381 q -7.05182,0 -11.00917,-4.34416 -3.9276,-4.34416 -3.9276,-12.1696 0,-7.73617 3.80858,-12.37787 3.80858,-4.67146 10.26531,-4.67146 5.71286,0 9.01562,3.9871 3.30275,3.98711 3.30275,10.83065 v 2.38036 H 225.7508 q 0.0595,6.66501 3.09447,10.17604 3.06472,3.51103 8.74783,3.51103 2.76717,0 4.84998,-0.38681 2.11257,-0.3868 5.32606,-1.66625 v 2.67791 q -2.73741,1.19018 -5.05826,1.60674 -2.32086,0.44632 -5.11778,0.44632 z m -0.86288,-30.94469 q -4.67146,0 -7.49814,3.09447 -2.82668,3.06471 -3.30275,8.86684 h 19.99503 q 0,-5.6236 -2.43987,-8.77758 -2.43987,-3.18373 -6.75427,-3.18373 z"
         style="font-style:normal;font-variant:normal;font-weight:normal;font-stretch:normal;font-size:60.9372406px;font-family:'Open Sans Light';-inkscape-font-specification:'Open Sans Light, ';fill:#108bde;fill-opacity:1;stroke-width:1.98708403"
         id="path841" />
      <path
         d="m 258.7188,104.44191 h 11.93156 q 8.06347,0 11.8423,2.73742 3.77882,2.73741 3.77882,8.27175 0,3.77882 -2.32085,6.30796 -2.2911,2.49938 -6.72452,3.21349 v 0.17852 q 5.20704,0.77362 7.64691,3.30275 2.46962,2.49938 2.46962,6.99231 0,6.01041 -3.9871,9.25366 -3.98711,3.24324 -11.30672,3.24324 H 258.7188 Z m 3.03496,19.37019 h 9.58095 q 6.12943,0 8.8966,-2.02331 2.79693,-2.05306 2.79693,-6.39722 0,-4.34416 -3.15398,-6.30795 -3.12423,-1.9638 -9.34292,-1.9638 h -8.77758 z m 0,2.67791 v 18.77509 h 10.23555 q 12.08033,0 12.08033,-9.81899 0,-8.9561 -12.73493,-8.9561 z"
         style="font-size:60.9372406px;fill:#565656;fill-opacity:1;stroke-width:1.98708403"
         id="path843" />
      <path
         d="m 315.8177,147.94301 -0.74386,-5.11778 h -0.23804 q -2.43987,3.12423 -5.02851,4.43342 -2.55889,1.27945 -6.06992,1.27945 -4.76072,0 -7.40887,-2.43987 -2.64815,-2.43987 -2.64815,-6.75428 0,-4.73096 3.92759,-7.34936 3.95735,-2.6184 11.42573,-2.76717 l 6.15919,-0.17853 v -2.14232 q 0,-4.61195 -1.87454,-6.96256 -1.87453,-2.3506 -6.04016,-2.3506 -4.49293,0 -9.31316,2.49938 l -1.10092,-2.55889 q 5.32606,-2.49938 10.5331,-2.49938 5.32605,0 7.94445,2.76717 2.64815,2.76717 2.64815,8.62881 v 21.51251 z m -11.9018,-2.08282 q 5.17728,0 8.15273,-2.94569 3.00521,-2.97546 3.00521,-8.242 v -3.18374 l -5.65336,0.23804 q -6.81378,0.3273 -9.72972,2.14232 -2.88619,1.78527 -2.88619,5.59385 0,3.03496 1.84478,4.73097 1.87453,1.66625 5.26655,1.66625 z"
         style="font-size:60.9372406px;fill:#565656;fill-opacity:1;stroke-width:1.98708403"
         id="path845" />
      <path
         d="m 350.98754,147.94301 v -20.97693 q 0,-4.87974 -2.05306,-7.08158 -2.05307,-2.23158 -6.36747,-2.23158 -5.80213,0 -8.50979,2.94569 -2.67791,2.91594 -2.67791,9.49169 v 17.85271 h -2.94569 v -32.34316 h 2.49938 l 0.56533,4.43343 h 0.17853 q 3.15398,-5.05827 11.21745,-5.05827 11.00917,0 11.00917,11.81254 v 21.15546 z"
         style="font-size:60.9372406px;fill:#565656;fill-opacity:1;stroke-width:1.98708403"
         id="path847" />
      <path
         d="m 375.89206,148.5381 q -6.36746,0 -9.87849,-4.22514 -3.51104,-4.22514 -3.51104,-12.19935 0,-8.18249 3.51104,-12.64567 3.51103,-4.49293 10.05702,-4.49293 7.02207,0 10.50334,5.17728 h 0.17853 l 0.53558,-4.55244 h 2.49938 v 46.98238 h -2.91594 v -12.31837 q 0,-3.63005 0.17853,-7.37912 h -0.17853 q -3.51103,5.65336 -10.97942,5.65336 z m 0.0595,-2.6184 q 5.8914,0 8.39077,-3.24324 2.52914,-3.24324 2.52914,-10.89015 v -0.35706 q 0,-7.28985 -2.52914,-10.53309 -2.52913,-3.24324 -8.06347,-3.24324 -5.23679,0 -7.97421,3.68955 -2.70766,3.68956 -2.70766,10.83065 0,6.81378 2.64815,10.29506 2.67791,3.45152 7.70642,3.45152 z"
         style="font-size:60.9372406px;fill:#565656;fill-opacity:1;stroke-width:1.98708403"
         id="path849" />
      <path
         d="m 403.23646,115.59985 v 20.94718 q 0,4.87974 2.05306,7.11133 2.05306,2.20183 6.36747,2.20183 5.77237,0 8.48003,-2.91594 2.73742,-2.91594 2.73742,-9.49169 v -17.85271 h 2.91594 v 32.34316 H 423.291 l -0.53558,-4.46318 h -0.17853 q -3.15397,5.05827 -11.21745,5.05827 -11.03892,0 -11.03892,-11.81254 v -21.12571 z"
         style="font-size:60.9372406px;fill:#565656;fill-opacity:1;stroke-width:1.98708403"
         id="path851" />
      <path
         d="m 439.56672,147.94301 h -2.9457 v -32.34316 h 2.9457 z m -3.36226,-41.32902 q 0,-2.85643 1.87454,-2.85643 0.92239,0 1.42821,0.74386 0.53558,0.74386 0.53558,2.11257 0,1.33895 -0.53558,2.11257 -0.50582,0.77362 -1.42821,0.77362 -1.87454,0 -1.87454,-2.88619 z"
         style="font-size:60.9372406px;fill:#565656;fill-opacity:1;stroke-width:1.98708403"
         id="path853" />
      <path
         d="m 470.48166,139.52248 q 0,4.34416 -3.30275,6.69477 -3.30275,2.32085 -9.37267,2.32085 -6.48649,0 -10.29507,-1.99355 v -3.18374 q 4.87974,2.43987 10.29507,2.43987 4.79047,0 7.2601,-1.57699 2.49938,-1.60674 2.49938,-4.25489 0,-2.43987 -1.99356,-4.10612 -1.96379,-1.66626 -6.48648,-3.273 -4.84999,-1.75552 -6.81378,-3.00521 -1.9638,-1.27944 -2.97546,-2.85643 -0.98189,-1.60674 -0.98189,-3.89784 0,-3.63005 3.03496,-5.74262 3.06471,-2.11257 8.53954,-2.11257 5.2368,0 9.93801,1.9638 l -1.10092,2.6779 q -4.76072,-1.96379 -8.83709,-1.96379 -3.95735,0 -6.2782,1.30919 -2.32085,1.3092 -2.32085,3.63005 0,2.52914 1.78527,4.04662 1.81502,1.51748 7.05182,3.39201 4.37391,1.57699 6.36746,2.85644 1.99356,1.24968 2.97545,2.85643 1.01166,1.60674 1.01166,3.77882 z"
         style="font-size:60.9372406px;fill:#565656;fill-opacity:1;stroke-width:1.98708403"
         id="path855" />
      <path
         d="m 491.93466,148.5381 q -7.05182,0 -11.00917,-4.34416 -3.9276,-4.34416 -3.9276,-12.1696 0,-7.73617 3.80858,-12.37787 3.80858,-4.67146 10.26531,-4.67146 5.71286,0 9.01562,3.9871 3.30275,3.98711 3.30275,10.83065 v 2.38036 h -23.29779 q 0.0595,6.66501 3.09447,10.17604 3.06472,3.51103 8.74783,3.51103 2.76717,0 4.84998,-0.38681 2.11258,-0.3868 5.32606,-1.66625 v 2.67791 q -2.73741,1.19018 -5.05826,1.60674 -2.32086,0.44632 -5.11778,0.44632 z m -0.86288,-30.94469 q -4.67146,0 -7.49814,3.09447 -2.82668,3.06471 -3.30275,8.86684 h 19.99503 q 0,-5.6236 -2.43987,-8.77758 -2.43987,-3.18373 -6.75427,-3.18373 z"
         style="font-size:60.9372406px;fill:#565656;fill-opacity:1;stroke-width:1.98708403"
         id="path857" />
    </g>
  </g>
</svg>
