<?xml version="1.0" encoding="UTF-8" standalone="no"?>
<!-- Created with Inkscape (http://www.inkscape.org/) -->

<svg
   width="446.90765mm"
   height="95.86467mm"
   viewBox="0 0 893.81537 191.72934"
   version="1.1"
   id="svg8"
   inkscape:version="1.2.2 (b0a8486541, 2022-12-01)"
   sodipodi:docname="BlueBanquise_logo_large_2.svg"
   inkscape:export-filename="BlueBanquise_logo_large_2.png"
   inkscape:export-xdpi="16.959999"
   inkscape:export-ydpi="16.959999"
   xmlns:inkscape="http://www.inkscape.org/namespaces/inkscape"
   xmlns:sodipodi="http://sodipodi.sourceforge.net/DTD/sodipodi-0.dtd"
   xmlns="http://www.w3.org/2000/svg"
   xmlns:svg="http://www.w3.org/2000/svg"
   xmlns:rdf="http://www.w3.org/1999/02/22-rdf-syntax-ns#"
   xmlns:cc="http://creativecommons.org/ns#"
   xmlns:dc="http://purl.org/dc/elements/1.1/">
  <defs
     id="defs2" />
  <sodipodi:namedview
     id="base"
     pagecolor="#ffffff"
     bordercolor="#666666"
     borderopacity="1.0"
     inkscape:pageopacity="0.0"
     inkscape:pageshadow="2"
     inkscape:zoom="0.35523093"
     inkscape:cx="1085.2096"
     inkscape:cy="256.17139"
     inkscape:document-units="mm"
     inkscape:current-layer="layer1"
     showgrid="false"
     inkscape:window-width="1920"
     inkscape:window-height="1029"
     inkscape:window-x="0"
     inkscape:window-y="27"
     inkscape:window-maximized="1"
     fit-margin-top="0"
     fit-margin-left="0"
     fit-margin-right="0"
     fit-margin-bottom="0"
     scale-x="2"
     inkscape:showpageshadow="2"
     inkscape:pagecheckerboard="0"
     inkscape:deskcolor="#d1d1d1" />
  <metadata
     id="metadata5">
    <rdf:RDF>
      <cc:Work
         rdf:about="">
        <dc:format>image/svg+xml</dc:format>
        <dc:type
           rdf:resource="http://purl.org/dc/dcmitype/StillImage" />
      </cc:Work>
    </rdf:RDF>
  </metadata>
  <g
     inkscape:label="Layer 1"
     inkscape:groupmode="layer"
     id="layer1"
     transform="translate(-73.477214,10.788715)">
    <path
       style="opacity:0.3;fill:#108bde;fill-opacity:1;stroke:none;stroke-width:1.10722;stroke-miterlimit:4;stroke-dasharray:none;stroke-opacity:1"
       d="m 177.35484,17.666841 c -0.96785,-1.54573 -1.95805,-3.145015 -2.2004,-3.553953 l -0.44062,-0.743533 0.82166,-0.617592 c 0.45193,-0.339669 0.87825,-0.550025 0.9474,-0.467453 0.17106,0.204337 2.77538,8.065868 2.6954,8.136629 -0.0351,0.03096 -0.85558,-1.208367 -1.82344,-2.754098 z"
       id="path874"
       inkscape:connector-curvature="0" />
    <path
       style="opacity:0.3;fill:#108bde;fill-opacity:1;stroke:none;stroke-width:0.898686;stroke-miterlimit:4;stroke-dasharray:none;stroke-opacity:1"
       d="m 153.95635,13.025844 c -2.61856,-1.5777 -4.76302,-2.926248 -4.76547,-2.996775 -0.003,-0.070531 2.1023,-4.1206232 4.67719,-9.0002085 l 4.68168,-8.8719733 0.10358,3.8562286 c 0.2258,8.4032584 0.34656,19.9018492 0.20886,19.8918232 -0.0797,-0.0058 -2.28731,-1.301399 -4.90588,-2.879095 z"
       id="path872"
       inkscape:connector-curvature="0" />
    <path
       style="opacity:0.3;fill:#108bde;fill-opacity:1;stroke:none;stroke-width:1.02696;stroke-miterlimit:4;stroke-dasharray:none;stroke-opacity:1"
       d="m 143.76666,15.804439 c -3.16328,-3.480826 -3.93695,-4.43006 -3.75022,-4.60121 0.41912,-0.384128 5.49947,-3.2208548 5.59554,-3.1243838 0.14023,0.140905 2.24806,11.5409298 2.19027,11.8463368 -0.0277,0.14608 -1.83719,-1.701636 -4.03559,-4.120743 z"
       id="path870"
       inkscape:connector-curvature="0" />
    <path
       style="opacity:0.3;fill:#108bde;fill-opacity:1;stroke:none;stroke-width:0.878526;stroke-miterlimit:4;stroke-dasharray:none;stroke-opacity:1"
       d="m 125.80515,18.988917 c -4.28002,-2.594191 -7.75151,-4.780991 -7.71444,-4.859552 0.10926,-0.231466 12.51051,-11.5891761 12.65463,-11.5891761 0.0723,0 0.28883,3.4871602 0.88524,7.3450512 0.59643,3.8578899 1.3229,8.5494499 1.61442,10.4256929 0.2915,1.876236 0.4877,3.407601 0.436,3.403023 -0.0517,-0.0045 -3.59584,-2.130844 -7.87585,-4.725039 z"
       id="path868"
       inkscape:connector-curvature="0"
       sodipodi:nodetypes="scssccs" />
    <path
       style="opacity:0.3;fill:#108bde;fill-opacity:1;stroke:none;stroke-width:0.95086;stroke-miterlimit:4;stroke-dasharray:none;stroke-opacity:1"
       d="m 107.40732,23.067154 c -1.98719,-0.773643 -3.75663,-1.467045 -3.93207,-1.54089 -0.26508,-0.111579 0.53471,-0.887814 4.73141,-4.592146 2.77773,-2.451834 5.06797,-4.441956 5.08946,-4.422492 0.0308,0.02802 -2.04897,11.005391 -2.22953,11.767262 -0.0287,0.121098 -1.41432,-0.33775 -3.65927,-1.211734 z"
       id="path866"
       inkscape:connector-curvature="0" />
    <path
       style="opacity:1;fill:#108bde;fill-opacity:1;stroke:none;stroke-width:0.924256;stroke-miterlimit:4;stroke-dasharray:none;stroke-opacity:1"
       d="m 151.79961,159.91072 c -0.0709,-0.22098 -1.23662,-5.02265 -2.59057,-10.67035 l -2.46172,-10.26852 3.52231,-16.11659 c 1.93728,-8.86413 3.53089,-16.10467 3.54139,-16.09009 0.0114,0.0128 -0.38604,11.3816 -0.88113,25.26007 -0.49511,13.87845 -0.92298,25.92066 -0.95082,26.76043 -0.0334,1.00682 -0.0945,1.39001 -0.17946,1.12505 z"
       id="path882"
       inkscape:connector-curvature="0" />
    <path
       style="opacity:1;fill:#108bde;fill-opacity:1;stroke:none;stroke-width:1.00477;stroke-miterlimit:4;stroke-dasharray:none;stroke-opacity:1"
       d="m 130.13831,128.10941 -1.5706,-3.38802 0.79165,-3.82559 c 0.43539,-2.1041 1.15401,-5.49726 1.59692,-7.54039 l 0.80529,-3.71481 0.0213,10.92841 c 0.0114,6.01062 -1.6e-4,10.9284 -0.0263,10.9284 -0.0263,0 -0.75438,-1.52461 -1.61821,-3.388 z"
       id="path878"
       inkscape:connector-curvature="0" />
    <path
       style="opacity:1;fill:#108bde;fill-opacity:1;stroke:none;stroke-width:0.90404;stroke-miterlimit:4;stroke-dasharray:none;stroke-opacity:1"
       d="m 132.00411,155.97294 c -2.98315,-12.10861 -5.47265,-22.12722 -5.53223,-22.26353 -0.0906,-0.20749 1.25327,-7.99691 1.51046,-8.75436 0.0457,-0.13484 0.81893,1.53802 1.71807,3.71758 0.89915,2.17954 1.71149,4.09294 1.80522,4.25194 0.25156,0.42685 1.05476,0.3768 1.32559,-0.0825 0.12049,-0.20443 0.81392,-2.60229 1.54083,-5.32851 1.26842,-4.75709 1.32335,-4.91685 1.36349,-3.96544 0.20146,4.7756 1.77568,53.62312 1.73957,53.97794 -0.0259,0.2545 -2.48787,-9.44434 -5.471,-21.553 z"
       id="path880"
       inkscape:connector-curvature="0" />
    <path
       style="opacity:1;fill:#108bde;fill-opacity:1;stroke:none;stroke-width:0.856247;stroke-miterlimit:4;stroke-dasharray:none;stroke-opacity:1"
       d="m 115.13484,146.58931 -4.20351,-15.20743 2.99459,-14.12023 c 1.67316,-7.88937 3.0118,-13.88174 3.03363,-13.57974 0.1158,1.60176 2.9885,58.42576 2.9517,58.70676 -0.024,0.18373 -2.46447,-7.43527 -4.77641,-15.79936 z"
       id="path876"
       inkscape:connector-curvature="0"
       sodipodi:nodetypes="scsccs" />
    <path
       style="fill:none;stroke:#141414;stroke-width:0.99459;stroke-linecap:butt;stroke-linejoin:round;stroke-miterlimit:4;stroke-dasharray:none;stroke-opacity:1"
       d="m 195.07149,32.226023 -37.81482,137.595707 3.2751,-44.79621 -8.32283,39.11728 2.08071,-62.00503 -16.22947,78.23453 -2.08068,-59.50819 -3.74529,13.3165 v -29.54602 l -12.06805,62.00505 -2.91298,-66.58258 -8.32281,38.28498 -34.955861,-106.116017 19.974785,-14.564938 17.477916,7.074394 2.49685,-13.316514 20.39086,12.900377 -3.32912,-22.4716324 17.47788,19.1424974 -2.49683,-13.3165139 13.3165,8.7389679 -0.41615,-26.633041 22.47163,34.955859 -4.57756,-13.316514 18.31022,20.807058"
       id="path899"
       inkscape:connector-curvature="0"
       sodipodi:nodetypes="ccccccccccccccccccccccccc" />
    <path
       style="fill:none;stroke:#141414;stroke-width:1.13667;stroke-linecap:round;stroke-linejoin:miter;stroke-miterlimit:4;stroke-dasharray:none;stroke-opacity:1"
       d="m 113.92406,11.418965 -10.86337,9.59876"
       id="path901"
       inkscape:connector-curvature="0"
       sodipodi:nodetypes="cc" />
    <path
       style="fill:none;stroke:#141414;stroke-width:1.13667;stroke-linecap:round;stroke-linejoin:miter;stroke-miterlimit:4;stroke-dasharray:none;stroke-opacity:1"
       d="M 130.9858,1.8477096 118.40462,13.811596"
       id="path903"
       inkscape:connector-curvature="0"
       sodipodi:nodetypes="cc" />
    <path
       style="fill:none;stroke:#141414;stroke-width:1.13667;stroke-linecap:round;stroke-linejoin:miter;stroke-miterlimit:4;stroke-dasharray:none;stroke-opacity:1"
       d="m 145.96685,7.6736931 -5.94679,3.2019729"
       id="path905"
       inkscape:connector-curvature="0"
       sodipodi:nodetypes="cc" />
    <path
       style="fill:none;stroke:#141414;stroke-width:1.13667;stroke-linecap:round;stroke-linejoin:miter;stroke-miterlimit:4;stroke-dasharray:none;stroke-opacity:1"
       d="M 158.8672,-10.22038 149.52661,9.1762037"
       id="path907"
       inkscape:connector-curvature="0"
       sodipodi:nodetypes="cc" />
    <path
       style="fill:none;stroke:#141414;stroke-width:1.42084;stroke-linecap:butt;stroke-linejoin:miter;stroke-miterlimit:4;stroke-dasharray:none;stroke-opacity:1"
       d="m 176.76127,11.418965 -2.88166,2.188497"
       id="path911"
       inkscape:connector-curvature="0"
       sodipodi:nodetypes="cc" />
    <path
       style="fill:none;stroke:#141414;stroke-width:1.13667;stroke-linecap:round;stroke-linejoin:miter;stroke-miterlimit:4;stroke-dasharray:none;stroke-opacity:1"
       d="m 110.93133,131.38188 9.10387,34.472"
       id="path913"
       inkscape:connector-curvature="0"
       sodipodi:nodetypes="cc" />
    <path
       style="fill:none;stroke:#141414;stroke-width:1.13667;stroke-linecap:round;stroke-linejoin:miter;stroke-miterlimit:4;stroke-dasharray:none;stroke-opacity:1"
       d="m 132.23421,134.18061 -3.6665,-9.45922"
       id="path915"
       inkscape:connector-curvature="0"
       sodipodi:nodetypes="cc" />
    <path
       style="fill:none;stroke:#141414;stroke-width:1.13667;stroke-linecap:round;stroke-linejoin:miter;stroke-miterlimit:4;stroke-dasharray:none;stroke-opacity:1"
       d="M 138.06018,180.3723 126.68305,134.70918"
       id="path917"
       inkscape:connector-curvature="0"
       sodipodi:nodetypes="cc" />
    <path
       style="fill:none;stroke:#141414;stroke-width:1.13667;stroke-linecap:round;stroke-linejoin:miter;stroke-miterlimit:4;stroke-dasharray:none;stroke-opacity:1"
       d="m 152.20894,164.1428 -5.46162,-25.17095"
       id="path919"
       inkscape:connector-curvature="0"
       sodipodi:nodetypes="cc" />
    <path
       style="fill:none;stroke:#108bde;stroke-width:0.99459;stroke-linecap:round;stroke-linejoin:miter;stroke-miterlimit:4;stroke-dasharray:none;stroke-opacity:1"
       d="m 73.974509,32.226023 170.498901,0.03836"
       id="path937"
       inkscape:connector-curvature="0"
       sodipodi:nodetypes="cc" />
    <g
       aria-label="BlueBanquise"
       style="font-style:normal;font-weight:normal;font-size:79.4834px;line-height:1.25;font-family:sans-serif;letter-spacing:0px;word-spacing:0px;fill:#108bde;fill-opacity:1;stroke:none;stroke-width:1.98708"
       id="text847"
       transform="matrix(1.931003,0,0,1.931003,-4.755377,-168.91431)">
      <path
         d="m 137.32039,104.44191 h 11.93156 q 8.06348,0 11.8423,2.73742 3.77882,2.73741 3.77882,8.27175 0,3.77882 -2.32085,6.30796 -2.2911,2.49938 -6.72452,3.21349 v 0.17852 q 5.20704,0.77362 7.64691,3.30275 2.46962,2.49938 2.46962,6.99231 0,6.01041 -3.9871,9.25366 -3.98711,3.24324 -11.30672,3.24324 h -13.33002 z m 3.03496,19.37019 h 9.58096 q 6.12943,0 8.8966,-2.02331 2.79692,-2.05306 2.79692,-6.39722 0,-4.34416 -3.15398,-6.30795 -3.12422,-1.9638 -9.34292,-1.9638 h -8.77758 z m 0,2.67791 v 18.77509 h 10.23556 q 12.08033,0 12.08033,-9.81899 0,-8.9561 -12.73493,-8.9561 z"
         style="font-style:normal;font-variant:normal;font-weight:normal;font-stretch:normal;font-size:60.9372px;font-family:'Open Sans Light';-inkscape-font-specification:'Open Sans Light, ';fill:#108bde;fill-opacity:1;stroke-width:1.98708"
         id="path835" />
      <path
         d="m 177.72702,147.94301 h -2.9457 v -46.29802 h 2.9457 z"
         style="font-style:normal;font-variant:normal;font-weight:normal;font-stretch:normal;font-size:60.9372px;font-family:'Open Sans Light';-inkscape-font-specification:'Open Sans Light, ';fill:#108bde;fill-opacity:1;stroke-width:1.98708"
         id="path837" />
      <path
         d="m 191.14631,115.59985 v 20.94718 q 0,4.87974 2.05306,7.11133 2.05306,2.20183 6.36746,2.20183 5.77238,0 8.48004,-2.91594 2.73741,-2.91594 2.73741,-9.49169 v -17.85271 h 2.91595 v 32.34316 h -2.49938 l -0.53558,-4.46318 h -0.17853 q -3.15398,5.05827 -11.21745,5.05827 -11.03893,0 -11.03893,-11.81254 v -21.12571 z"
         style="font-style:normal;font-variant:normal;font-weight:normal;font-stretch:normal;font-size:60.9372px;font-family:'Open Sans Light';-inkscape-font-specification:'Open Sans Light, ';fill:#108bde;fill-opacity:1;stroke-width:1.98708"
         id="path839" />
      <path
         d="m 237.5931,148.5381 q -7.05182,0 -11.00917,-4.34416 -3.9276,-4.34416 -3.9276,-12.1696 0,-7.73617 3.80858,-12.37787 3.80858,-4.67146 10.26531,-4.67146 5.71286,0 9.01562,3.9871 3.30275,3.98711 3.30275,10.83065 v 2.38036 H 225.7508 q 0.0595,6.66501 3.09447,10.17604 3.06472,3.51103 8.74783,3.51103 2.76717,0 4.84998,-0.38681 2.11257,-0.3868 5.32606,-1.66625 v 2.67791 q -2.73741,1.19018 -5.05826,1.60674 -2.32086,0.44632 -5.11778,0.44632 z m -0.86288,-30.94469 q -4.67146,0 -7.49814,3.09447 -2.82668,3.06471 -3.30275,8.86684 h 19.99503 q 0,-5.6236 -2.43987,-8.77758 -2.43987,-3.18373 -6.75427,-3.18373 z"
         style="font-style:normal;font-variant:normal;font-weight:normal;font-stretch:normal;font-size:60.9372px;font-family:'Open Sans Light';-inkscape-font-specification:'Open Sans Light, ';fill:#108bde;fill-opacity:1;stroke-width:1.98708"
         id="path841" />
      <path
         d="m 258.7188,104.44191 h 11.93156 q 8.06347,0 11.8423,2.73742 3.77882,2.73741 3.77882,8.27175 0,3.77882 -2.32085,6.30796 -2.2911,2.49938 -6.72452,3.21349 v 0.17852 q 5.20704,0.77362 7.64691,3.30275 2.46962,2.49938 2.46962,6.99231 0,6.01041 -3.9871,9.25366 -3.98711,3.24324 -11.30672,3.24324 H 258.7188 Z m 3.03496,19.37019 h 9.58095 q 6.12943,0 8.8966,-2.02331 2.79693,-2.05306 2.79693,-6.39722 0,-4.34416 -3.15398,-6.30795 -3.12423,-1.9638 -9.34292,-1.9638 h -8.77758 z m 0,2.67791 v 18.77509 h 10.23555 q 12.08033,0 12.08033,-9.81899 0,-8.9561 -12.73493,-8.9561 z"
         style="font-size:60.9372px;fill:#565656;fill-opacity:1;stroke-width:1.98708"
         id="path843" />
      <path
         d="m 315.8177,147.94301 -0.74386,-5.11778 h -0.23804 q -2.43987,3.12423 -5.02851,4.43342 -2.55889,1.27945 -6.06992,1.27945 -4.76072,0 -7.40887,-2.43987 -2.64815,-2.43987 -2.64815,-6.75428 0,-4.73096 3.92759,-7.34936 3.95735,-2.6184 11.42573,-2.76717 l 6.15919,-0.17853 v -2.14232 q 0,-4.61195 -1.87454,-6.96256 -1.87453,-2.3506 -6.04016,-2.3506 -4.49293,0 -9.31316,2.49938 l -1.10092,-2.55889 q 5.32606,-2.49938 10.5331,-2.49938 5.32605,0 7.94445,2.76717 2.64815,2.76717 2.64815,8.62881 v 21.51251 z m -11.9018,-2.08282 q 5.17728,0 8.15273,-2.94569 3.00521,-2.97546 3.00521,-8.242 v -3.18374 l -5.65336,0.23804 q -6.81378,0.3273 -9.72972,2.14232 -2.88619,1.78527 -2.88619,5.59385 0,3.03496 1.84478,4.73097 1.87453,1.66625 5.26655,1.66625 z"
         style="font-size:60.9372px;fill:#565656;fill-opacity:1;stroke-width:1.98708"
         id="path845" />
      <path
         d="m 350.98754,147.94301 v -20.97693 q 0,-4.87974 -2.05306,-7.08158 -2.05307,-2.23158 -6.36747,-2.23158 -5.80213,0 -8.50979,2.94569 -2.67791,2.91594 -2.67791,9.49169 v 17.85271 h -2.94569 v -32.34316 h 2.49938 l 0.56533,4.43343 h 0.17853 q 3.15398,-5.05827 11.21745,-5.05827 11.00917,0 11.00917,11.81254 v 21.15546 z"
         style="font-size:60.9372px;fill:#565656;fill-opacity:1;stroke-width:1.98708"
         id="path847" />
      <path
         d="m 375.89206,148.5381 q -6.36746,0 -9.87849,-4.22514 -3.51104,-4.22514 -3.51104,-12.19935 0,-8.18249 3.51104,-12.64567 3.51103,-4.49293 10.05702,-4.49293 7.02207,0 10.50334,5.17728 h 0.17853 l 0.53558,-4.55244 h 2.49938 v 46.98238 h -2.91594 v -12.31837 q 0,-3.63005 0.17853,-7.37912 h -0.17853 q -3.51103,5.65336 -10.97942,5.65336 z m 0.0595,-2.6184 q 5.8914,0 8.39077,-3.24324 2.52914,-3.24324 2.52914,-10.89015 v -0.35706 q 0,-7.28985 -2.52914,-10.53309 -2.52913,-3.24324 -8.06347,-3.24324 -5.23679,0 -7.97421,3.68955 -2.70766,3.68956 -2.70766,10.83065 0,6.81378 2.64815,10.29506 2.67791,3.45152 7.70642,3.45152 z"
         style="font-size:60.9372px;fill:#565656;fill-opacity:1;stroke-width:1.98708"
         id="path849" />
      <path
         d="m 403.23646,115.59985 v 20.94718 q 0,4.87974 2.05306,7.11133 2.05306,2.20183 6.36747,2.20183 5.77237,0 8.48003,-2.91594 2.73742,-2.91594 2.73742,-9.49169 v -17.85271 h 2.91594 v 32.34316 H 423.291 l -0.53558,-4.46318 h -0.17853 q -3.15397,5.05827 -11.21745,5.05827 -11.03892,0 -11.03892,-11.81254 v -21.12571 z"
         style="font-size:60.9372px;fill:#565656;fill-opacity:1;stroke-width:1.98708"
         id="path851" />
      <path
         d="m 439.56672,147.94301 h -2.9457 v -32.34316 h 2.9457 z m -3.36226,-41.32902 q 0,-2.85643 1.87454,-2.85643 0.92239,0 1.42821,0.74386 0.53558,0.74386 0.53558,2.11257 0,1.33895 -0.53558,2.11257 -0.50582,0.77362 -1.42821,0.77362 -1.87454,0 -1.87454,-2.88619 z"
         style="font-size:60.9372px;fill:#565656;fill-opacity:1;stroke-width:1.98708"
         id="path853" />
      <path
         d="m 470.48166,139.52248 q 0,4.34416 -3.30275,6.69477 -3.30275,2.32085 -9.37267,2.32085 -6.48649,0 -10.29507,-1.99355 v -3.18374 q 4.87974,2.43987 10.29507,2.43987 4.79047,0 7.2601,-1.57699 2.49938,-1.60674 2.49938,-4.25489 0,-2.43987 -1.99356,-4.10612 -1.96379,-1.66626 -6.48648,-3.273 -4.84999,-1.75552 -6.81378,-3.00521 -1.9638,-1.27944 -2.97546,-2.85643 -0.98189,-1.60674 -0.98189,-3.89784 0,-3.63005 3.03496,-5.74262 3.06471,-2.11257 8.53954,-2.11257 5.2368,0 9.93801,1.9638 l -1.10092,2.6779 q -4.76072,-1.96379 -8.83709,-1.96379 -3.95735,0 -6.2782,1.30919 -2.32085,1.3092 -2.32085,3.63005 0,2.52914 1.78527,4.04662 1.81502,1.51748 7.05182,3.39201 4.37391,1.57699 6.36746,2.85644 1.99356,1.24968 2.97545,2.85643 1.01166,1.60674 1.01166,3.77882 z"
         style="font-size:60.9372px;fill:#565656;fill-opacity:1;stroke-width:1.98708"
         id="path855" />
      <path
         d="m 491.93466,148.5381 q -7.05182,0 -11.00917,-4.34416 -3.9276,-4.34416 -3.9276,-12.1696 0,-7.73617 3.80858,-12.37787 3.80858,-4.67146 10.26531,-4.67146 5.71286,0 9.01562,3.9871 3.30275,3.98711 3.30275,10.83065 v 2.38036 h -23.29779 q 0.0595,6.66501 3.09447,10.17604 3.06472,3.51103 8.74783,3.51103 2.76717,0 4.84998,-0.38681 2.11258,-0.3868 5.32606,-1.66625 v 2.67791 q -2.73741,1.19018 -5.05826,1.60674 -2.32086,0.44632 -5.11778,0.44632 z m -0.86288,-30.94469 q -4.67146,0 -7.49814,3.09447 -2.82668,3.06471 -3.30275,8.86684 h 19.99503 q 0,-5.6236 -2.43987,-8.77758 -2.43987,-3.18373 -6.75427,-3.18373 z"
         style="font-size:60.9372px;fill:#565656;fill-opacity:1;stroke-width:1.98708"
         id="path857" />
    </g>
  </g>
</svg>
