<?xml version="1.0" encoding="UTF-8" standalone="no"?>
<!-- Created with Inkscape (http://www.inkscape.org/) -->

<svg
   xmlns:dc="http://purl.org/dc/elements/1.1/"
   xmlns:cc="http://creativecommons.org/ns#"
   xmlns:rdf="http://www.w3.org/1999/02/22-rdf-syntax-ns#"
   xmlns:svg="http://www.w3.org/2000/svg"
   xmlns="http://www.w3.org/2000/svg"
   xmlns:sodipodi="http://sodipodi.sourceforge.net/DTD/sodipodi-0.dtd"
   xmlns:inkscape="http://www.inkscape.org/namespaces/inkscape"
   width="724.08282mm"
   height="207.84956mm"
   viewBox="0 0 724.08282 207.84958"
   version="1.1"
   id="svg8"
   inkscape:version="0.92.3 (2405546, 2018-03-11)"
   sodipodi:docname="BlueBanquise_logo_ng.svg"
   inkscape:export-filename="D:\images\BlueBanquise_logo_ng_text.png"
   inkscape:export-xdpi="38.292931"
   inkscape:export-ydpi="38.292931">
  <defs
     id="defs2" />
  <sodipodi:namedview
     id="base"
     pagecolor="#ffffff"
     bordercolor="#666666"
     borderopacity="1.0"
     inkscape:pageopacity="0.0"
     inkscape:pageshadow="2"
     inkscape:zoom="0.17111495"
     inkscape:cx="220.98986"
     inkscape:cy="1419.3384"
     inkscape:document-units="mm"
     inkscape:current-layer="layer1"
     showgrid="false"
     inkscape:window-width="1920"
     inkscape:window-height="1137"
     inkscape:window-x="-8"
     inkscape:window-y="24"
     inkscape:window-maximized="1"
     fit-margin-top="0"
     fit-margin-left="0"
     fit-margin-right="0"
     fit-margin-bottom="0" />
  <metadata
     id="metadata5">
    <rdf:RDF>
      <cc:Work
         rdf:about="">
        <dc:format>image/svg+xml</dc:format>
        <dc:type
           rdf:resource="http://purl.org/dc/dcmitype/StillImage" />
        <dc:title></dc:title>
      </cc:Work>
    </rdf:RDF>
  </metadata>
  <g
     inkscape:label="Layer 1"
     inkscape:groupmode="layer"
     id="layer1"
     transform="translate(27.268588,-305.62096)">
    <path
       style="fill:none;stroke:none;stroke-width:0.38329399;stroke-linecap:butt;stroke-linejoin:round;stroke-miterlimit:4;stroke-dasharray:none;stroke-opacity:1"
       d="m 104.79306,351.91059 -41.238738,150.05409 3.57166,-48.85223 -9.0764,42.6591 2.26911,-67.61918 -17.69898,85.31815 -2.26911,-64.89625 -4.08437,14.5222 v -32.2212 l -13.16079,67.61918 -3.17674,-72.61118 -9.0764,41.7514 -38.12089,-115.72408 21.7833703,-15.88371 19.0604397,7.71494 2.72292,-14.52224 22.23719,14.06843 -3.63056,-24.50629 19.06044,20.8757 -2.72292,-14.5222 14.52223,9.53021 -0.45381,-29.04447 24.50628,38.12086 -4.99202,-14.52224 19.968088,22.69101"
       id="path899-9"
       inkscape:connector-curvature="0"
       sodipodi:nodetypes="ccccccccccccccccccccccccc" />
    <path
       style="fill:none;stroke:none;stroke-width:0.38329399;stroke-linecap:butt;stroke-linejoin:miter;stroke-miterlimit:4;stroke-dasharray:none;stroke-opacity:1"
       d="M 16.298142,329.21958 4.0183623,340.33663"
       id="path901-9"
       inkscape:connector-curvature="0" />
    <path
       style="fill:none;stroke:none;stroke-width:0.38329399;stroke-linecap:butt;stroke-linejoin:miter;stroke-miterlimit:4;stroke-dasharray:none;stroke-opacity:1"
       d="m 34.904772,318.78172 -14.15314,13.55206"
       id="path903-5"
       inkscape:connector-curvature="0" />
    <path
       style="fill:none;stroke:none;stroke-width:0.38329399;stroke-linecap:butt;stroke-linejoin:miter;stroke-miterlimit:4;stroke-dasharray:none;stroke-opacity:1"
       d="m 51.242292,325.13522 -6.84589,3.92468"
       id="path905-4"
       inkscape:connector-curvature="0" />
    <path
       style="fill:none;stroke:none;stroke-width:0.38329399;stroke-linecap:butt;stroke-linejoin:miter;stroke-miterlimit:4;stroke-dasharray:none;stroke-opacity:1"
       d="m 65.310712,305.62096 -10.54697,21.802"
       id="path907-2"
       inkscape:connector-curvature="0" />
    <path
       style="fill:none;stroke:none;stroke-width:0.38329399;stroke-linecap:butt;stroke-linejoin:miter;stroke-miterlimit:4;stroke-dasharray:none;stroke-opacity:1"
       d="m 84.824972,329.21958 -3.14256,2.38666"
       id="path911-4"
       inkscape:connector-curvature="0"
       sodipodi:nodetypes="cc" />
    <path
       style="fill:none;stroke:none;stroke-width:0.38329399;stroke-linecap:butt;stroke-linejoin:miter;stroke-miterlimit:4;stroke-dasharray:none;stroke-opacity:1"
       d="m 12.424062,460.43188 10.53854,37.20565"
       id="path913-6"
       inkscape:connector-curvature="0"
       sodipodi:nodetypes="cc" />
    <path
       style="fill:none;stroke:none;stroke-width:0.38329399;stroke-linecap:butt;stroke-linejoin:miter;stroke-miterlimit:4;stroke-dasharray:none;stroke-opacity:1"
       d="m 36.266232,463.09647 -4.23789,-9.81057"
       id="path915-3"
       inkscape:connector-curvature="0" />
    <path
       style="fill:none;stroke:none;stroke-width:0.38329399;stroke-linecap:butt;stroke-linejoin:miter;stroke-miterlimit:4;stroke-dasharray:none;stroke-opacity:1"
       d="M 42.619712,513.47052 29.923932,464.39421"
       id="path917-8"
       inkscape:connector-curvature="0"
       sodipodi:nodetypes="cc" />
    <path
       style="fill:none;stroke:none;stroke-width:0.38329399;stroke-linecap:butt;stroke-linejoin:miter;stroke-miterlimit:4;stroke-dasharray:none;stroke-opacity:1"
       d="m 58.049582,495.77155 -6.196,-27.2209"
       id="path919-5"
       inkscape:connector-curvature="0"
       sodipodi:nodetypes="cc" />
    <path
       style="opacity:1;fill:#093d84;fill-opacity:1;stroke:none;stroke-width:1.58390462;stroke-linecap:round;stroke-miterlimit:4;stroke-dasharray:none;stroke-dashoffset:0;stroke-opacity:1"
       d="m 17.559052,476.6941 c -2.41238,-8.55525 -4.37677,-16.00074 -4.3654,-16.54555 0.0402,-1.93584 5.87194,-27.96474 6.19313,-27.64351 0.36203,0.36204 3.01328,57.44252 2.73373,58.85669 -0.0965,0.48805 -2.14913,-6.11238 -4.56146,-14.66763 z"
       id="path1222"
       inkscape:connector-curvature="0" />
    <path
       style="opacity:1;fill:#093d84;fill-opacity:1;stroke:none;stroke-width:1.58390462;stroke-linecap:round;stroke-miterlimit:4;stroke-dasharray:none;stroke-dashoffset:0;stroke-opacity:1"
       d="m 35.964832,485.67085 c -4.8359,-18.81219 -5.39046,-21.61339 -4.94098,-24.9566 0.76684,-5.70313 1.26321,-5.91253 3.09338,-1.3049 0.91191,2.29591 1.87782,4.17437 2.14637,4.17437 0.26856,0 1.12114,-2.27872 1.89462,-5.06381 1.34601,-4.84661 1.42362,-4.95896 1.80992,-2.61922 0.45727,2.76973 2.02801,50.37679 1.67378,50.73103 -0.12642,0.1264 -2.68114,-9.306 -5.67709,-20.96087 z"
       id="path1224"
       inkscape:connector-curvature="0" />
    <path
       style="opacity:1;fill:#093d84;fill-opacity:1;stroke:none;stroke-width:1.58390462;stroke-linecap:round;stroke-miterlimit:4;stroke-dasharray:none;stroke-dashoffset:0;stroke-opacity:1"
       d="m 33.805672,456.11797 c -1.21415,-3.17912 -1.2091,-3.48074 0.17273,-10.30227 l 1.42356,-7.02724 0.0815,10.30227 c 0.0447,5.66622 -0.0332,10.30224 -0.17273,10.30224 -0.13991,0 -0.81718,-1.47376 -1.50507,-3.275 z"
       id="path1226"
       inkscape:connector-curvature="0" />
    <path
       style="opacity:1;fill:#093d84;fill-opacity:1;stroke:none;stroke-width:1.58390462;stroke-linecap:round;stroke-miterlimit:4;stroke-dasharray:none;stroke-dashoffset:0;stroke-opacity:1"
       d="m 55.004642,480.18449 -2.56187,-11.42789 3.41591,-16.03175 3.41598,-16.03175 -0.41785,16.41376 c -0.22979,9.02757 -0.61417,21.3844 -0.85411,27.45964 l -0.43625,11.04589 z"
       id="path1228"
       inkscape:connector-curvature="0" />
    <path
       style="fill:none;stroke:none;stroke-width:0.33195636px;stroke-linecap:butt;stroke-linejoin:miter;stroke-opacity:1"
       d="m -21.680928,366.5782 91.74665,-17.86008 29.8381,19.25701"
       id="path908-5-7"
       inkscape:connector-curvature="0"
       sodipodi:nodetypes="ccc" />
    <path
       style="fill:none;stroke:none;stroke-width:0.39126715px;stroke-linecap:butt;stroke-linejoin:miter;stroke-opacity:1"
       d="m -2.7139377,428.38876 58.3335697,-55.34655 29.00916,48.79027"
       id="path935-7"
       inkscape:connector-curvature="0"
       sodipodi:nodetypes="ccc" />
    <path
       style="opacity:1;fill:#0659b1;fill-opacity:1;stroke:none;stroke-width:1.58390462;stroke-linecap:round;stroke-miterlimit:4;stroke-dasharray:none;stroke-dashoffset:0;stroke-opacity:1"
       d="m 42.852752,504.79273 c -0.24742,-12.90005 -2.09586,-56.07331 -2.41437,-56.39185 -0.4284,-0.42837 -0.49387,-0.26259 -2.4106,6.10289 l -1.36708,4.53996 -0.0866,-14.31837 c -0.0473,-7.87513 -0.34267,-13.84694 -0.65562,-13.27071 -0.31303,0.57623 -3.20901,14.70703 -6.43551,31.40179 -3.2265,16.69473 -5.94253,29.89558 -6.03547,29.33522 -0.15658,-0.94318 -2.98204,-63.64017 -2.98204,-66.17029 0,-3.69213 -1.67691,2.40887 -5.28492,19.22783 -2.24559,10.46813 -4.25763,19.03299 -4.47112,19.03299 -0.21349,0 -3.0929297,-8.12742 -6.3987097,-18.06092 l -6.01044,-18.06091 28.2741297,-26.81502 c 15.55075,-14.74825 28.47415,-26.88604 28.71869,-26.97285 0.24448,-0.0868 6.96694,10.82123 14.93882,24.24007 l 14.49426,24.39789 -10.11072,36.52579 c -8.5226,30.78856 -10.05042,35.70296 -9.72686,31.28732 0.21114,-2.88113 0.92023,-12.56981 1.57579,-21.53038 0.65557,-8.96057 0.98993,-16.41682 0.74301,-16.56941 -0.24689,-0.15259 -1.44271,4.35003 -2.6573,10.00585 -5.53106,25.75588 -5.54729,25.82137 -5.58837,22.5063 -0.0217,-1.72869 0.39991,-15.2408 0.93627,-30.0269 0.53635,-14.78612 0.8412,-27.01786 0.6774,-27.18166 -0.16379,-0.1638 -0.41856,-0.16684 -0.56619,-0.007 -0.14757,0.16004 -3.93502,18.0493 -8.41649,39.75387 -4.48148,21.70459 -8.26478,39.77718 -8.40724,40.16134 -0.14245,0.38415 -0.29219,-1.03021 -0.33276,-3.14307 z"
       id="path1264"
       inkscape:connector-curvature="0" />
    <path
       style="opacity:1;fill:#099bee;fill-opacity:1;stroke:none;stroke-width:1.58390462;stroke-linecap:round;stroke-miterlimit:4;stroke-dasharray:none;stroke-dashoffset:0;stroke-opacity:1"
       d="m -11.663538,397.85521 c -5.1861,-15.759 -9.42922,-29.15289 -9.42922,-29.76421 0,-0.91357 7.83459,-2.64242 44.00285,-9.70999 24.20156,-4.72918 44.78861,-8.66336 45.74901,-8.74261 1.20648,-0.0996 6.22393,2.75346 16.23391,9.23086 7.9683,5.15621 14.49011,9.67826 14.49298,10.04898 0,0.3707 -3.20715,12.36522 -7.13355,26.65449 l -7.13878,25.98051 -13.54344,-22.813 c -16.43131,-27.67749 -15.43672,-26.09083 -16.18798,-25.82481 -0.33857,0.11989 -13.22236,12.16161 -28.63059,26.75938 -15.40829,14.59777 -28.2334997,26.60704 -28.5005297,26.68726 -0.26702,0.0802 -4.72862,-12.74788 -9.9146603,-28.50686 z"
       id="path1266"
       inkscape:connector-curvature="0" />
    <path
       style="opacity:1;fill:#2edaf9;fill-opacity:1;stroke:none;stroke-width:1.58390462;stroke-linecap:round;stroke-miterlimit:4;stroke-dasharray:none;stroke-dashoffset:0;stroke-opacity:1"
       d="m 85.034382,357.75087 c -8.04247,-5.17699 -14.85021,-9.41272 -15.12829,-9.41272 -0.27808,0 -20.66555,3.92883 -45.30548,8.73074 -24.63986971,4.80188 -45.21068,8.73072 -45.71286,8.73072 -0.53316,0 -1.84224,-2.78924 -3.14659,-6.70443 -1.87954,-5.64175 -2.08237,-6.84792 -1.27988,-7.6099 0.52454,-0.49802 5.29757,-4.05588 10.60677,-7.90638 l 9.6530703,-7.0009 9.1183,3.78471 c 5.01502,2.08158 9.3640697,3.78469 9.6645697,3.78469 0.30044,0 1.08951,-3.06447 1.7535,-6.80996 0.66394,-3.74548 1.2804,-6.89976 1.36996,-7.0095 0.0896,-0.10974 4.87736,2.79759 10.63967,6.46073 5.76225,3.66314 10.78021,6.66028 11.15092,6.66028 0.39185,0 -0.006,-4.45995 -0.94444,-10.65148 -0.8902,-5.85832 -1.53369,-10.92191 -1.43001,-11.25242 0.10375,-0.33052 4.06292,3.67689 8.79814,8.90533 4.73521,5.22846 8.8942,9.50627 9.24217,9.50627 0.34796,0 0.46206,-0.70719 0.25355,-1.57152 -0.82382,-3.41478 -2.26502,-11.69917 -2.0353,-11.69917 0.1341,0 2.957,1.7503 6.27313,3.88958 3.31613,2.13926 6.4019,4.03254 6.85732,4.2073 0.62675,0.24052 0.76122,-3.03885 0.55335,-13.49337 -0.15108,-7.59611 -0.12425,-13.65396 0.0594,-13.46188 0.18386,0.19208 5.45683,8.36404 11.71774,18.15991 13.02088,20.37253 11.74994,18.49227 12.19725,18.045 0.1912,-0.19125 -0.4367,-2.65398 -1.39544,-5.47277 -0.95876,-2.81876 -1.63105,-5.23715 -1.49402,-5.37415 0.1942,-0.19423 11.18829,11.96439 16.233388,17.95286 0.72865,0.86492 0.52614,2.35265 -1.12835,8.28825 -1.109,3.97875 -2.12952,7.34723 -2.267758,7.48548 -0.13824,0.13829 -6.83157,-3.98432 -14.87404,-9.1613 z"
       id="path1268"
       inkscape:connector-curvature="0" />
    <path
       style="opacity:0.378;fill:#2edaf9;fill-opacity:1;stroke:none;stroke-width:1.11998975;stroke-linecap:round;stroke-miterlimit:4;stroke-dasharray:none;stroke-dashoffset:0;stroke-opacity:1"
       d="m 8.9449623,341.43977 c -1.90145,-0.76923 -3.40262,-1.53588 -3.33593,-1.70367 0.16283,-0.40954 9.7267797,-9.13754 9.8632397,-9.0011 0.31347,0.31345 -2.18439,11.85846 -2.58986,11.97059 -0.26415,0.073 -2.03598,-0.4966 -3.9374497,-1.26582 z"
       id="path1270"
       inkscape:connector-curvature="0" />
    <path
       style="opacity:0.378;fill:#2edaf9;fill-opacity:1;stroke:none;stroke-width:1.11998975;stroke-linecap:round;stroke-miterlimit:4;stroke-dasharray:none;stroke-dashoffset:0;stroke-opacity:1"
       d="m 29.999562,337.384 c -4.1749,-2.64873 -7.73085,-4.96154 -7.90218,-5.13959 -0.17127,-0.17805 2.57778,-3.06192 6.10907,-6.40862 l 6.42049,-6.08491 1.60006,10.70675 c 0.87998,5.88871 1.54678,10.93973 1.48162,11.22448 -0.0651,0.28477 -3.53423,-1.6494 -7.70906,-4.29811 z"
       id="path1272"
       inkscape:connector-curvature="0" />
    <path
       style="opacity:0.378;fill:#2edaf9;fill-opacity:1;stroke:none;stroke-width:1.11998975;stroke-linecap:round;stroke-miterlimit:4;stroke-dasharray:none;stroke-dashoffset:0;stroke-opacity:1"
       d="m 49.231272,333.79502 c -2.00949,-2.25095 -3.64033,-4.27558 -3.62411,-4.49916 0.016,-0.22358 1.21939,-1.10596 2.67373,-1.96086 l 2.64422,-1.55434 1.1097,5.92368 c 0.61026,3.25801 1.05125,5.98209 0.97983,6.05351 -0.0714,0.0714 -1.77395,-1.71186 -3.78337,-3.96283 z"
       id="path1274"
       inkscape:connector-curvature="0" />
    <path
       style="opacity:0.378;fill:#2edaf9;fill-opacity:1;stroke:none;stroke-width:1.11998975;stroke-linecap:round;stroke-miterlimit:4;stroke-dasharray:none;stroke-dashoffset:0;stroke-opacity:1"
       d="m 60.671122,330.80654 c -2.51715,-1.69167 -4.72122,-3.22034 -4.89791,-3.39705 -0.1767,-0.1767 1.77165,-4.69538 4.32968,-10.0415 l 4.65095,-9.72022 0.30734,13.05417 c 0.16904,7.17979 0.28013,13.08257 0.24698,13.11729 -0.0332,0.0347 -2.11988,-1.321 -4.63704,-3.01269 z"
       id="path1276"
       inkscape:connector-curvature="0" />
    <path
       style="opacity:0.378;fill:#2edaf9;fill-opacity:1;stroke:none;stroke-width:1.11998975;stroke-linecap:round;stroke-miterlimit:4;stroke-dasharray:none;stroke-dashoffset:0;stroke-opacity:1"
       d="m 84.843622,335.20191 c -1.13461,-1.77972 -2.06295,-3.43647 -2.06295,-3.68164 0,-0.24516 0.4268,-0.67417 0.9484,-0.95335 0.86114,-0.46086 1.07048,-0.14122 2.2735,3.47114 0.72878,2.18829 1.23032,4.07344 1.1145,4.18922 -0.11575,0.11579 -1.13884,-1.24564 -2.27345,-3.02537 z"
       id="path1278"
       inkscape:connector-curvature="0" />
    <text
       inkscape:export-filename="D:\images\BlueBanquise_logo_ng_text.png"
       inkscape:export-xdpi="38.292931"
       inkscape:export-ydpi="38.292931"
       xml:space="preserve"
       style="font-style:normal;font-weight:normal;font-size:14.34400272px;line-height:1.25;font-family:sans-serif;letter-spacing:0px;word-spacing:0px;fill:#000000;fill-opacity:1;stroke:none;stroke-width:0.35860008"
       x="112.68828"
       y="453.67731"
       id="text1012-3-1"><tspan
         sodipodi:role="line"
         id="tspan1010-6-1"
         x="112.68828"
         y="453.67731"
         style="font-style:normal;font-variant:normal;font-weight:normal;font-stretch:normal;font-size:95.62669373px;font-family:'Open Sans Light';-inkscape-font-specification:'Open Sans Light, ';stroke-width:0.35860008">BlueBanquise</tspan></text>
  </g>
</svg>
