<?xml version="1.0" encoding="UTF-8" standalone="no"?>
<!-- Created with Inkscape (http://www.inkscape.org/) -->

<svg
   xmlns:dc="http://purl.org/dc/elements/1.1/"
   xmlns:cc="http://creativecommons.org/ns#"
   xmlns:rdf="http://www.w3.org/1999/02/22-rdf-syntax-ns#"
   xmlns:svg="http://www.w3.org/2000/svg"
   xmlns="http://www.w3.org/2000/svg"
   xmlns:sodipodi="http://sodipodi.sourceforge.net/DTD/sodipodi-0.dtd"
   xmlns:inkscape="http://www.inkscape.org/namespaces/inkscape"
   width="40.027878mm"
   height="63.177963mm"
   viewBox="0 0 84.058541 132.67373"
   version="1.1"
   id="svg8"
   inkscape:version="0.92.3 (2405546, 2018-03-11)"
   sodipodi:docname="bluebanquise_logo_ng_no_text.svg"
   inkscape:export-filename="D:\images\BlueBanquise_logo_ng_text.png"
   inkscape:export-xdpi="38.292931"
   inkscape:export-ydpi="38.292931">
  <defs
     id="defs2" />
  <sodipodi:namedview
     id="base"
     pagecolor="#ffffff"
     bordercolor="#666666"
     borderopacity="1.0"
     inkscape:pageopacity="0.0"
     inkscape:pageshadow="2"
     inkscape:zoom="0.48398616"
     inkscape:cx="1091.9848"
     inkscape:cy="-304.15662"
     inkscape:document-units="mm"
     inkscape:current-layer="layer1"
     showgrid="false"
     inkscape:window-width="1920"
     inkscape:window-height="986"
     inkscape:window-x="-11"
     inkscape:window-y="-11"
     inkscape:window-maximized="1"
     fit-margin-top="0"
     fit-margin-left="0"
     fit-margin-right="0"
     fit-margin-bottom="0"
     scale-x="2.1" />
  <metadata
     id="metadata5">
    <rdf:RDF>
      <cc:Work
         rdf:about="">
        <dc:format>image/svg+xml</dc:format>
        <dc:type
           rdf:resource="http://purl.org/dc/dcmitype/StillImage" />
        <dc:title></dc:title>
      </cc:Work>
    </rdf:RDF>
  </metadata>
  <g
     inkscape:label="Layer 1"
     inkscape:groupmode="layer"
     id="layer1"
     transform="translate(-62.048344,-48.029744)">
    <path
       style="opacity:1;fill:#093d84;fill-opacity:0;fill-rule:nonzero;stroke:#2cd1f5;stroke-width:0.26374856;stroke-linecap:round;stroke-miterlimit:4;stroke-dasharray:0.52749712, 1.05499422;stroke-dashoffset:0;stroke-opacity:0"
       d="m 106.23761,180.24678 c -0.38798,-1.26128 -7.597913,-29.26944 -7.627373,-29.62976 -0.0281,-0.3432 14.339163,-33.74668 14.459253,-33.61744 0.0241,0.0259 -0.13534,8.10509 -0.35423,17.95378 l -0.39798,17.9067 -2.87921,13.69336 c -1.58357,7.53135 -2.91504,13.81186 -2.95884,13.9567 -0.0438,0.14483 -0.15252,0.0263 -0.24162,-0.26334 z"
       id="path940-3"
       inkscape:connector-curvature="0" />
    <path
       style="opacity:1;fill:#093d84;fill-opacity:1;fill-rule:nonzero;stroke:#2cd1f5;stroke-width:0.73214185;stroke-linecap:round;stroke-miterlimit:4;stroke-dasharray:1.46428381, 2.92856762;stroke-dashoffset:0;stroke-opacity:0"
       d="m 102.37383,164.43197 -3.556953,-14.16919 6.449703,-14.91522 c 3.54733,-8.20337 6.72119,-15.40864 7.05302,-16.01171 0.33183,-0.60307 0.43284,6.46927 0.22447,15.7163 -0.34941,15.50606 -0.57975,17.80704 -2.9637,29.60514 -1.42166,7.03577 -2.82441,13.05142 -3.11721,13.3681 -0.29281,0.31665 -2.133,-5.80039 -4.08933,-13.59342 z"
       id="path1106"
       inkscape:connector-curvature="0" />
    <path
       style="opacity:1;fill:#0659b1;fill-opacity:1;fill-rule:nonzero;stroke:#2cd1f5;stroke-width:0.73214185;stroke-linecap:round;stroke-miterlimit:4;stroke-dasharray:1.46428381, 2.92856762;stroke-dashoffset:0;stroke-opacity:0"
       d="m 116.37087,162.86331 -3.46871,-10.02016 0.50353,-19.12937 c 0.32131,-12.20678 0.24998,-18.86484 -0.19712,-18.39838 -0.38536,0.40205 -4.02362,8.46122 -8.08502,17.90928 -6.593543,15.33854 -7.597393,18.26233 -9.373323,27.30037 l -1.98895,10.12211 -4.60067,-13.3196 -4.60067,-13.31961 15.866433,-27.31203 c 8.72653,-15.02161 16.03089,-27.312902 16.23191,-27.313972 0.20103,-10e-4 3.62006,9.25549 7.59786,20.570142 l 7.23236,20.57208 -4.9379,18.17706 c -2.71584,9.99737 -5.33685,19.52822 -5.82445,21.17965 l -0.88656,3.00257 z"
       id="path1108"
       inkscape:connector-curvature="0" />
    <path
       style="opacity:1;fill:#099bee;fill-opacity:1;fill-rule:nonzero;stroke:#2cd1f5;stroke-width:0.73214185;stroke-linecap:round;stroke-miterlimit:4;stroke-dasharray:1.46428381, 2.92856762;stroke-dashoffset:0;stroke-opacity:0"
       d="m 73.215797,110.89602 c -5.98233,-17.427872 -10.84203,-31.948752 -10.79934,-32.268612 0.0427,-0.31987 12.67574,-3.10218 28.07346,-6.18291 l 27.995843,-5.60135 13.52333,5.4941 c 7.43783,3.02176 13.61469,5.57643 13.72634,5.67704 0.30489,0.27475 -13.08771,48.915502 -13.63337,49.515192 -0.25934,0.28502 -3.59357,-8.37078 -7.40941,-19.23511 -6.9503,-19.788702 -7.71261,-21.741712 -8.23627,-21.100942 -0.15477,0.18938 -7.13708,12.18637 -15.51625,26.659992 -8.379163,14.47362 -15.597673,26.85881 -16.041113,27.52266 -0.64668,0.96808 -2.95912,-5.06478 -11.68322,-30.48006 z"
       id="path1110"
       inkscape:connector-curvature="0" />
    <path
       style="opacity:1;fill:#2edaf9;fill-opacity:1;fill-rule:nonzero;stroke:#2cd1f5;stroke-width:0.73214185;stroke-linecap:round;stroke-miterlimit:4;stroke-dasharray:1.46428381, 2.92856762;stroke-dashoffset:0;stroke-opacity:0"
       d="m 66.280837,75.922758 c 0.16751,-0.15655 12.53113,-6.39405 27.4747,-13.8611 l 27.170133,-13.57647 11.67853,13.67836 c 6.4232,7.52309 11.60617,13.75776 11.51774,13.85482 -0.0884,0.0971 -5.80427,-2.1322 -12.70186,-4.95391 l -12.54108,-5.13039 -26.084403,5.13666 c -27.04125,5.32509 -27.01479,5.32026 -26.51376,4.85203 z"
       id="path1112"
       inkscape:connector-curvature="0" />
  </g>
</svg>
