<?xml version="1.0" encoding="UTF-8" standalone="no"?>
<!-- Generator: Adobe Illustrator 23.0.1, SVG Export Plug-In . SVG Version: 6.00 Build 0)  -->

<svg
   xmlns:dc="http://purl.org/dc/elements/1.1/"
   xmlns:cc="http://creativecommons.org/ns#"
   xmlns:rdf="http://www.w3.org/1999/02/22-rdf-syntax-ns#"
   xmlns:svg="http://www.w3.org/2000/svg"
   xmlns="http://www.w3.org/2000/svg"
   xmlns:sodipodi="http://sodipodi.sourceforge.net/DTD/sodipodi-0.dtd"
   xmlns:inkscape="http://www.inkscape.org/namespaces/inkscape"
   version="1.1"
   id="Calque_1"
   x="0px"
   y="0px"
   viewBox="0 0 131.19488 182.18284"
   xml:space="preserve"
   sodipodi:docname="FabriqueLoch_logo.svg"
   width="62.473751"
   height="86.753731"
   inkscape:version="0.92.3 (2405546, 2018-03-11)"><metadata
   id="metadata59"><rdf:RDF><cc:Work
       rdf:about=""><dc:format>image/svg+xml</dc:format><dc:type
         rdf:resource="http://purl.org/dc/dcmitype/StillImage" /><dc:title></dc:title></cc:Work></rdf:RDF></metadata><defs
   id="defs57">
	
	
</defs><sodipodi:namedview
   pagecolor="#ffffff"
   bordercolor="#666666"
   borderopacity="1"
   objecttolerance="10"
   gridtolerance="10"
   guidetolerance="10"
   inkscape:pageopacity="0"
   inkscape:pageshadow="2"
   inkscape:window-width="1680"
   inkscape:window-height="987"
   id="namedview55"
   showgrid="false"
   inkscape:zoom="2.1918555"
   inkscape:cx="-8.344184"
   inkscape:cy="-11.601158"
   inkscape:window-x="1912"
   inkscape:window-y="24"
   inkscape:window-maximized="1"
   inkscape:current-layer="Calque_1"
   fit-margin-top="0"
   fit-margin-left="0"
   fit-margin-right="0"
   fit-margin-bottom="0"
   scale-x="2.1" />
<style
   type="text/css"
   id="style2">
	.st0{fill:#FFFFFF;stroke:#000000;stroke-miterlimit:10;}
	.st1{font-family:'OpenSans-SemiBold';}
	.st2{font-size:36.5017px;}
	.st3{letter-spacing:8;}
	.st4{fill:#F96D5A;}
	.st5{display:none;}
	.st6{display:inline;}
	.st7{font-family:'NovaRound';}
	.st8{font-size:170px;}
	.st9{font-family:'MedulaOne-Regular';}
	.st10{font-size:200px;}
	.st11{letter-spacing:50;}
	.st12{font-family:'CinzelDecorative-Regular';}
	.st13{font-size:175.7789px;}
	.st14{letter-spacing:33;}
</style>

<g
   id="g20"
   transform="translate(-536.57574,-629.7)">
		<g
   id="g12">
			<g
   id="g10">
				<path
   inkscape:connector-curvature="0"
   id="path8"
   d="m 667.6,667.9 c -0.2,-0.5 0,-1 -0.2,-1.4 -0.3,-1 -1.1,-1.6 -1.6,-2.4 -0.3,-0.5 -0.5,-1.1 -0.8,-1.7 -0.3,-0.5 -0.6,-0.8 -0.8,-1.1 -0.5,-0.6 -1.7,-1.1 -2.1,-1.7 -0.3,-0.6 0.2,-1.4 0.3,-1.9 0.3,-1 0.6,-2.5 0.3,-3.7 -0.6,-2.4 -1.6,-4.8 -2.9,-6.5 -0.2,-0.2 -0.3,-0.3 -0.5,-0.5 -0.3,-0.5 -0.6,-0.8 -1.1,-1.1 -0.3,-0.3 -0.8,-0.5 -1.1,-1 -0.3,-0.5 -0.6,-1.1 -1.1,-1.6 -0.5,-0.6 -1.3,-1 -1.9,-1.4 -0.5,-0.3 -0.8,-0.6 -1.3,-1 -0.6,-0.3 -1.3,-0.3 -1.9,-0.6 -0.5,-0.2 -1.1,-0.3 -1.6,-0.5 -0.8,-0.2 -1.4,-0.3 -2.1,-0.5 -0.5,-0.2 -1.6,-0.6 -2.2,-0.5 -0.6,0.2 -1.1,0.3 -1.9,0.5 -0.3,0 -0.6,0 -0.8,-0.2 -0.5,-0.2 -0.8,-0.2 -1.4,-0.2 -0.8,0 -1.7,0.2 -2.4,-0.2 -0.5,-0.3 -0.6,-0.6 -1.1,-1 -0.6,-0.5 -1.1,-1 -1.6,-1.6 -0.2,-0.3 -0.3,-0.5 -0.5,-0.8 -0.5,-0.6 -1.4,-1 -2.1,-1.4 -0.5,-0.3 -1,-1 -1.4,-1.4 -0.5,-0.3 -1.3,-0.5 -1.9,-0.8 -0.5,-0.2 -0.8,-0.5 -1.1,-0.8 -0.5,-0.3 -1,-0.5 -1.4,-0.5 -0.3,0 -0.6,0 -1,-0.2 -1,-0.2 -2.5,-0.3 -3.5,0 -0.8,0.2 -1.7,-0.2 -2.5,0 -0.6,0.2 -1.1,0.5 -1.7,0.6 -0.5,0.2 -1.1,0.2 -1.6,0.3 -0.6,0.3 -1.3,0.6 -1.9,1 -0.8,0.2 -1.4,0.5 -2.2,0.6 -0.8,0.3 -1.9,1 -2.5,1.4 -0.5,0.3 -1.1,1.4 -2.2,1.1 -0.8,-0.2 -1.4,-0.8 -2.1,-1.3 -0.6,-0.5 -1.3,-1 -1.9,-1.3 -0.5,-0.3 -1.1,-0.5 -1.6,-0.8 -0.5,-0.2 -1.1,-0.5 -1.6,-0.8 -0.5,-0.2 -1.1,-0.3 -1.7,-0.5 -1.7,-0.6 -3.8,-0.8 -6.2,-0.8 -0.3,0.2 -1.7,0 -2.2,0.2 -0.8,0.2 -1.6,0.3 -2.2,0.8 -1.1,0.6 -2.1,1.6 -3.2,2.4 -0.8,0.6 -1.9,1 -2.5,1.6 -0.8,0.8 -0.5,1.7 -1.9,2.1 -0.8,0.2 -1.6,-0.3 -2.1,-0.5 -0.8,-0.3 -1.7,-0.3 -2.5,-0.6 -0.6,-0.2 -1.1,-0.5 -1.7,-0.6 -0.6,0 -1.1,0 -1.7,0 -1,-0.3 -2.1,-0.3 -3.2,-0.5 -0.5,0 -1,0 -1.6,0.2 -0.8,0 -1.6,-0.2 -2.2,0 -1,0.3 -1.7,0.8 -2.7,1.1 -0.6,0.3 -1.3,0.3 -1.9,0.6 -0.8,0.3 -1.4,0.8 -2.1,1.1 -0.5,0.3 -1.1,0.5 -1.6,0.8 -0.3,0.2 -0.8,0.5 -1.1,0.8 l -0.6,0.6 c -0.2,0.2 -0.5,0.3 -0.6,0.5 -0.8,1.1 -1.4,2.4 -2.1,3.7 -0.6,1.1 -0.6,2.9 -1.1,4.1 -0.2,0.6 -0.3,1.1 -0.8,1.4 -0.3,0.2 -0.8,0.3 -1.1,0.5 -1.3,0.5 -2.7,0.8 -3.8,1.6 -0.6,0.5 -1.1,1.1 -1.7,1.4 -1.3,0.8 -2.9,1.3 -3.8,2.5 -0.3,0.3 -0.3,0.6 -0.6,1 -0.3,0.5 -0.8,1 -1,1.4 -0.3,0.6 -0.6,1.3 -1,1.9 -0.3,0.6 -0.8,1.3 -1.1,1.9 -0.3,0.6 -0.3,1.4 -0.5,2.1 -0.3,1.1 -0.6,2.5 -0.3,3.8 1.1,3.8 2.7,7.1 5.4,9.2 0.3,0.3 0.6,0.8 1.1,1.1 1,0.6 1.9,1.4 3,1.9 0.6,0.3 1.6,0.5 1.7,1.1 0.2,0.3 -0.2,1.9 -0.3,2.4 0,0.5 0,1 0,1.4 -0.3,1.3 -0.3,2.7 -0.6,4.1 -0.2,0.5 0,2.1 0.2,2.4 0.2,0.5 0,0.6 0.2,1.1 0.3,0.8 0.8,1.6 1.1,2.2 0.5,1 1,1.9 1.4,2.7 1.1,1.4 2.5,2.5 4.1,3.5 0.6,0.5 1.4,1 2.2,1.4 0.5,0.2 1,0.3 1.6,0.5 0.6,0.2 1.3,0.5 1.9,0.6 1,0.2 2.7,0.2 3.8,0.2 0.5,0 1.1,-0.2 1.4,0.2 0.8,0.3 1.3,1.3 1.7,1.9 0.3,0.5 0.8,1 1.1,1.4 0.6,1 1.4,1.7 2.4,2.4 0.6,0.5 1.4,0.8 2.2,1.3 0.6,0.3 1.1,0.8 1.7,1.1 0.5,0.3 1.1,0.5 1.3,1 0.3,0.5 -0.3,1.1 -0.6,1.3 -1.1,1 -2.4,1.6 -3.7,2.4 -2.2,1.4 -4.6,2.7 -6.7,4.1 -1.1,0.8 -2.1,1.9 -3.2,2.7 -1.7,1.1 -4.3,1.3 -4.9,3.5 -0.2,0.6 0.2,1.4 0.3,1.9 0.2,0.6 0.3,1.4 0.5,2.2 0.2,0.6 0,1.4 -0.2,1.7 -0.2,0.8 -0.3,1.4 -0.5,2.2 -0.2,0.5 0,1.3 0.2,1.6 v 0.6 0.3 c -0.2,0.8 -0.2,1.7 -0.3,2.5 0,0.5 0,0.8 0,1.3 -0.2,0.6 0,1.4 -0.2,2.1 -0.3,1.3 -0.2,2.7 0,4 v 2.1 c 0.2,0.8 0.2,2.2 0,3.2 -0.2,0.5 0.2,1.7 0.3,2.1 0,0.2 0,0.3 0,0.5 v 0.5 c -0.2,0.5 -0.3,1.3 -0.2,1.9 0.2,0.6 -0.2,1.4 0,2.1 0.3,1.3 0.2,2.7 0.5,4 v 1 c 0,2.1 -1.1,3.5 -0.6,5.7 v 0.8 c 0.2,1 0,2.1 0,3 v 1 c 0.2,0.8 -0.2,1.9 0.2,2.7 0.2,1 0.5,1.9 0.5,3.3 0,1.3 -1.1,3 -0.3,4.3 0.6,1.1 2.7,1.9 4,2.4 0.5,0.2 0.8,0.5 1.3,0.6 0.5,0.2 0.8,0.2 1.3,0.3 0.3,0.2 0.6,0.3 1,0.5 0.5,0.2 1.1,0.3 1.6,0.6 1,0.6 1.9,1.3 2.9,1.7 0.6,0.2 1.1,0.3 1.7,0.6 0.5,0.2 1,0.5 1.3,0.8 0.3,0.2 0.5,0.6 0.8,0.8 0.5,0.3 1.1,0.6 1.6,1 0.5,0.3 1,0.6 1.6,1 0.8,0.3 1.9,0.3 2.9,0.5 1,0.2 1.9,0.3 2.7,0.8 0.8,0.3 1.6,1 2.4,1.4 1.1,0.5 2.2,1 3.2,1.6 0.5,0.3 1.1,0.5 1.7,0.8 0.8,0.5 1.6,1.3 2.5,1.6 0.8,0.3 1.7,0.6 2.5,0.8 0.5,0.2 1,0.6 1.3,0.8 0.6,0.5 1.4,0.8 2.2,1.1 0.6,0.3 1.4,0.3 2.2,0.5 0.8,0.2 1.4,0.5 2.2,0.8 0.5,0.2 1,0.5 1.4,0.8 0.3,0.2 0.6,0.3 0.8,0.5 0.5,0.3 0.8,1 1.1,1.4 0.3,0.5 0.8,0.8 1.3,1.1 0.2,0.2 0.5,0.5 0.6,0.6 0.6,0.5 1.3,1 2.1,1.1 0.8,0.2 1.9,0 2.5,-0.2 1.4,-0.3 2.2,-0.8 3.3,-1.4 0.3,-0.2 0.6,-0.3 1,-0.5 0.6,-0.5 1,-1 1.6,-1.4 1.1,-0.8 2.4,-1.6 3.7,-2.4 0.8,-0.5 1.4,-1.1 2.1,-1.6 1.6,-1 3.2,-1.9 4.6,-3 1,-0.6 1.6,-1.7 2.5,-2.5 1.7,-1.3 3.5,-2.9 4.8,-4.6 0.2,-0.3 0.6,-0.5 0.8,-0.8 1.1,-1.4 2.4,-2.5 4,-3.5 1.4,-1 3,-1.6 4.3,-2.5 0.5,-0.3 1,-1 1.4,-1.4 0.2,-0.2 0.3,-0.3 0.3,-0.5 0.8,-0.5 1.4,-1.3 2.1,-1.9 0.3,-0.5 0.8,-1 1.1,-1.4 0.3,-0.3 0.5,-0.6 0.8,-1 0.5,-0.5 1.1,-0.6 1.7,-1 0.6,-0.3 1,-0.8 1.6,-1.3 0.5,-0.3 1.1,-0.8 1.4,-1.3 0.2,-0.3 0.6,-1.7 0.5,-2.4 -0.2,-0.6 -0.2,-1.3 -0.2,-1.9 0.2,-1.7 0,-3.7 -0.3,-5.2 -0.2,-0.8 0.3,-1.7 0.2,-2.5 0,-0.2 0,-0.6 -0.2,-0.8 -0.2,-0.5 -0.3,-1.1 -0.2,-1.7 0.2,-0.6 0,-1.4 0.2,-2.1 v -0.6 c 0.5,-2.1 0.5,-4.8 0.5,-7.3 0,-1.6 0,-3.2 -0.2,-4.4 -0.2,-0.5 0,-1.1 0.2,-1.6 0.2,-0.8 0,-1.7 0.3,-2.5 0.2,-0.3 0.3,-1.1 0.2,-1.6 -0.2,-0.6 -0.2,-1.3 -0.3,-1.7 -0.2,-0.5 -0.3,-1.1 -0.5,-1.6 -0.2,-0.6 0,-1.1 -0.2,-1.7 -0.2,-1 -0.3,-1.9 -0.3,-2.9 0,-0.8 0,-1.6 0,-2.5 0,-0.3 0.2,-1.1 0.2,-1.4 -0.2,-1.1 -0.2,-3.2 0,-4.1 0.2,-1 -0.3,-2.1 -0.2,-3 0.2,-0.6 0.2,-1.3 0.2,-1.9 v -0.8 c 0.3,-1.1 0.2,-2.7 -0.3,-3.7 -0.3,-1 -1.1,-1.6 -1.9,-2.1 -0.3,-0.2 -0.5,-0.5 -0.6,-0.6 -0.8,-0.6 -1.9,-1.4 -2.9,-1.7 -1.3,-0.5 -2.5,-0.8 -4,-1.1 -1.9,-0.5 -4.9,-0.6 -6.2,-1.7 0,-0.5 0.2,-0.8 0.3,-1.1 0.2,-0.5 0.2,-0.8 0.5,-1.1 0.3,-0.5 1,-0.8 1.3,-1.1 0.8,-0.6 1.3,-2.2 2.1,-2.5 0.5,-0.2 1.1,0 1.6,0 0.6,0 1.3,-0.2 1.7,-0.2 1.6,-0.3 3.3,-0.6 4.9,-1 0.8,-0.2 1.4,-0.3 2.2,-0.6 1.1,-0.5 1.9,-1.1 3,-1.6 1.1,-0.5 2.2,-1 2.9,-1.9 1.1,-1.6 1.3,-4.1 2.2,-5.9 0.3,-0.6 0.6,-1.3 1,-1.7 0.2,-0.3 0.5,-0.5 0.6,-0.6 0.3,-0.5 0.6,-1 0.8,-1.6 0.3,-1.1 0.3,-3 -0.2,-4 -0.2,-0.5 -1.1,-1.4 -0.8,-2.2 0.3,-1 1.7,-1.6 2.2,-2.4 0.3,-0.5 0.5,-1.1 0.6,-1.7 0.2,-0.5 0,-1 0.3,-1.4 0.2,-0.3 0.3,-0.8 0.5,-1.1 0.2,-0.5 0.2,-1 0.3,-1.6 0.3,-0.8 0.5,-1.7 0.6,-2.7 0.6,-1.6 1.3,-2.9 0.8,-4.6 z m -62.1,80.3 c 0,1 0,1.9 -0.2,2.9 -0.2,0.5 0,1 -0.2,1.3 v 1.9 c 0,1 0,2.2 -0.2,3.2 v 1.9 c 0,0.3 0,0.8 -0.2,1.1 -0.2,0.6 -0.3,1.4 -0.3,2.2 0,0.6 0,1.3 0.2,1.9 -0.3,1.3 -0.2,2.5 -0.2,4 0,1.1 -0.2,2.4 0.2,3.3 0.2,0.5 0.2,1 0.3,1.3 v 2.4 c 0.2,1 0.5,2.4 0.2,3.5 0,0.8 0,1.4 0,2.2 -0.2,0.6 0,1.3 -0.2,1.9 -0.2,0.6 -0.3,1.3 -0.3,1.9 0,0.3 0,0.8 -0.2,1.1 -0.2,0.6 -0.2,1.3 -0.3,1.9 -0.2,0.5 0,1.4 0.2,1.9 0,0.3 0,0.8 0,1.1 0.2,0.8 0.3,1.7 0.5,2.5 0,1.1 0,2.4 0,3.5 0.2,0.8 0.2,2.2 0,3 -0.2,0.6 -0.2,1.4 -0.6,1.7 -0.6,0.5 -1.7,0 -2.4,-0.3 -1.3,-0.6 -2.7,-1.3 -4,-1.9 -1,-0.5 -1.9,-0.6 -2.9,-1.1 -0.8,-0.5 -1.4,-1 -2.2,-1.4 -0.5,-0.3 -1,-0.5 -1.4,-0.6 -0.3,-0.2 -0.8,-0.5 -1.1,-0.6 -1.3,-0.5 -2.5,-1 -3.7,-1.4 -1.1,-0.5 -1.9,-1.3 -3,-1.7 -1,-0.3 -2.1,-0.6 -3,-1 -0.8,-0.3 -1.6,-1 -2.4,-1.3 -1,-0.5 -2.1,-0.5 -3,-1 -0.6,-0.3 -1.3,-0.8 -1.7,-1.1 -0.8,-0.5 -1.6,-1 -2.4,-1.4 -0.6,-0.3 -1.3,-0.6 -1.9,-0.8 -0.6,-0.2 -1.3,-0.3 -1.9,-0.5 -0.6,-0.3 -1.3,-0.6 -1.9,-1 -0.5,-0.3 -1.3,-0.5 -1.6,-1.1 -0.2,-0.5 -0.2,-1.1 0,-1.6 0.2,-0.6 0,-1.7 -0.2,-2.2 0,-0.5 0,-0.8 0,-1.3 -0.2,-0.6 0,-1.4 -0.2,-2.1 -0.2,-0.8 -0.3,-1.4 -0.6,-2.4 -0.2,-0.6 0.2,-1.6 0.2,-2.2 0,-0.5 0,-1.1 0,-1.6 0,-0.3 -0.2,-1.1 0,-1.4 0.2,-0.5 0,-1.3 0.2,-1.9 0.3,-1.3 0.2,-3.2 -0.2,-4.3 -0.2,-0.6 0,-1.3 0.2,-1.6 0.2,-0.5 0,-1.4 -0.2,-1.9 -0.2,-0.6 -0.2,-1.3 -0.3,-1.9 v -0.8 c -0.3,-1.7 -0.3,-4.1 0.2,-5.9 0,-0.8 0,-1.4 -0.2,-2.2 0.3,-1.1 0.2,-2.9 0.2,-4.1 0,-0.5 0,-1 0,-1.4 0,-0.3 0,-0.6 0,-1 0.2,-1.1 0.3,-2.2 0.5,-3.2 0.3,-1.3 0,-2.9 0.3,-4.1 0.2,-0.6 0,-1.3 0.3,-1.6 0.2,-0.2 0.3,-0.2 0.5,-0.3 1.1,0 1.7,0.3 2.4,0.6 0.6,0.3 1.3,0.3 1.7,0.6 0.6,0.3 1.3,0.8 1.9,1.1 0.5,0.3 1.1,0.5 1.6,0.8 0.6,0.3 1.3,0.6 1.7,0.8 1,0.3 1.9,0.5 2.9,0.8 1,0.3 1.9,0.6 2.9,1 0.5,0.2 0.8,0.2 1.3,0.3 1.1,0.3 2.5,0.6 3.7,1.1 0.8,0.2 1.4,0.3 2.1,0.5 1.4,0.5 2.7,1.1 4.1,1.7 0.6,0.3 1.1,0.3 1.7,0.6 1.1,0.5 2.2,1.1 3.3,1.6 0.8,0.3 1.6,0.5 2.2,0.6 1,0.3 1.9,0.8 2.9,1.1 0.6,0.3 1.4,0.3 1.9,0.6 0.8,0.3 2.2,0.5 2.5,1.4 0.5,-0.9 0.3,-0.1 0.3,0.4 z m -3.8,-26.7 c 0.5,-1 1.7,-2.2 2.7,-2.7 0.2,-0.2 0.5,-0.3 0.8,-0.3 0.2,0 0.3,0 0.5,-0.2 1.3,0 1.7,0.5 2.5,1 0.6,0.3 1.3,0.6 1.9,1 0.3,0.2 0.5,0.6 0.6,1 0.3,0.3 0.8,0.6 1,1.1 0.2,0.5 -0.2,1.1 -0.3,1.4 -0.5,1.3 -0.8,2.4 -1.9,2.9 -0.3,0.2 -0.6,0 -1,0.2 -0.5,0.2 -1,0.3 -1.6,0.5 -0.6,0.2 -1.1,-0.2 -1.6,-0.3 -0.3,-0.2 -0.6,-0.2 -1,-0.3 -0.3,-0.2 -0.6,-0.3 -1,-0.5 -0.3,-0.2 -0.6,-0.2 -1,-0.5 -0.3,-0.2 -0.5,-0.6 -0.6,-1 -0.1,-0.6 -0.4,-2.2 0,-3.3 z m 5.6,18.9 c -1.4,-0.5 -2.2,-1.4 -2.5,-3 -0.2,-0.8 0,-2.1 0.5,-2.4 0.6,-0.5 1.4,-0.6 2.2,-1 0.5,-0.2 1.3,0 1.6,-0.2 0.6,0 1.1,0.2 1.4,0.3 0.2,0.2 0.3,0.3 0.5,0.5 0.8,0.5 1.6,1.3 1.3,2.7 0,0.2 -0.2,0.5 -0.2,0.8 -0.5,1.7 -2.8,3 -4.8,2.3 z m 33.2,-13.8 c 1.1,-0.6 2.1,-1.6 3,-2.2 0.6,-0.3 1.3,-0.6 1.9,-0.8 0.3,-0.2 0.8,-0.2 1.1,-0.3 0.2,0 0.5,0 0.6,0.2 0.3,0.2 0.5,1.1 0.5,1.7 -0.3,1.1 -0.2,2.7 -0.2,4 v 1.9 c 0.2,0.5 0,1 0.2,1.4 0.3,1.1 0.2,2.4 0.2,3.8 v 2.5 c 0.2,0.8 0.2,1.6 0.3,2.5 v 1.3 c 0.2,0.5 0,1.3 0,1.7 -0.2,0.5 0,0.8 -0.2,1.3 0,0.5 0,1 0,1.6 0,1.3 0.2,2.4 0.2,3.7 0,1 0,2.1 -0.2,2.9 0,0.6 0,1.1 0,1.7 -0.2,0.3 -0.3,1.6 -0.2,2.1 0.2,0.8 0.5,1.4 0.6,2.1 0.2,0.6 0.3,1.4 0.3,2.1 0.2,0.5 -0.2,2.1 -0.2,2.5 0,0.3 0,0.6 0,0.8 -0.2,0.5 0,1 0,1.4 -0.2,0.5 0,1.3 0,1.9 0,1.1 0.2,2.4 0,3.3 -0.2,0.8 0.2,1.6 -0.2,2.4 -0.6,1.4 -2.1,3 -3.2,4 -0.2,0.2 -0.3,0.3 -0.3,0.5 -0.5,0.3 -0.8,0.8 -1.1,1.1 -0.2,0.2 -0.5,0.3 -0.5,0.5 -0.3,0.3 -0.5,0.6 -0.6,1 -0.2,0.3 -0.5,0.5 -0.8,0.8 -0.2,0.2 -0.3,0.3 -0.5,0.5 -0.2,0.2 -0.3,0.3 -0.6,0.5 -0.6,0.6 -1.3,1.4 -2.1,2.1 -1,0.6 -1.9,1.3 -2.9,1.9 -0.5,0.3 -1,0.8 -1.6,1.3 -0.8,0.6 -1.6,1 -2.4,1.6 -0.8,0.6 -1.6,1.6 -2.2,2.4 -0.2,0.2 -0.5,0.5 -0.6,0.6 -0.6,0.5 -1.3,1.1 -2.1,1.6 -0.5,0.3 -0.8,1.1 -1.3,1.4 -0.6,0.5 -1.1,0.8 -1.7,1.3 -0.8,0.5 -1.3,1.3 -2.1,1.7 -0.6,0.5 -1.4,1 -2.2,1.4 -0.3,0.2 -0.8,0.3 -1.1,0.5 -0.5,0.3 -0.8,1 -1.4,1.3 -0.3,0.2 -0.5,0.3 -0.8,0.6 -1.1,0.8 -1.9,1.7 -3.2,2.4 -0.5,0.2 -0.8,0.5 -1.4,0.5 -0.8,-0.8 -0.5,-1.6 -0.8,-2.7 v -1.3 c 0,-0.3 -0.2,-1.1 -0.2,-1.4 0.2,-0.3 0.2,-1.4 0.2,-1.9 -0.2,-0.5 -0.2,-1.4 0,-1.9 0.2,-0.5 0.5,-1.1 0.3,-1.7 -0.2,-0.6 -0.3,-1.4 -0.5,-2.1 -0.2,-0.5 0,-1 -0.2,-1.4 -0.2,-0.6 -0.5,-1.7 -0.3,-2.5 0.3,-1.4 0.8,-2.7 1.1,-4.1 0.2,-0.5 0.5,-1.4 0.3,-2.1 -0.2,-0.8 -0.3,-1.6 -0.5,-2.4 V 779 c -0.2,-0.5 0,-1.1 -0.2,-1.6 -0.2,-0.8 0.2,-1.1 0,-1.7 -0.3,-1.4 -0.8,-2.5 -0.8,-4.4 v -1.4 c 0.2,-0.8 0.3,-1.4 0.5,-2.2 0,-0.8 -0.2,-1.6 -0.2,-2.5 0,-1.6 0,-3.2 -0.3,-4.6 -0.2,-0.6 0,-1.3 -0.2,-1.9 v -0.8 c -0.2,-1 0,-2.9 0.2,-3.5 v -2.7 c 0.2,-0.6 0,-1.3 0.2,-1.9 0.2,-0.8 0.3,-1.7 0.6,-2.4 0.6,-1.1 2.2,-1.3 3.3,-1.9 0.6,-0.3 1.1,-0.8 1.7,-1.1 1,-0.6 1.9,-1.1 2.9,-1.7 0.5,-0.3 0.8,-0.6 1.3,-1 0.5,-0.3 1,-0.5 1.4,-0.8 0.5,-0.3 0.8,-0.8 1.3,-1.1 1.1,-0.8 2.1,-1.4 3.2,-2.2 0.5,-0.3 0.8,-0.8 1.1,-1.1 0.5,-0.5 1.3,-0.6 1.7,-1 0.6,-0.5 1.3,-1 1.9,-1.4 0.5,-0.3 0.8,-0.8 1.1,-1.1 0.5,-0.5 1,-0.8 1.6,-1.3 0.3,-0.2 0.5,-0.5 0.8,-0.8 0.5,-0.3 1.1,-0.5 1.6,-0.8 0.6,-0.5 1.1,-1 1.7,-1.4 1.4,-1 2.2,-1.5 3.2,-2.1 z m 20.7,-55.9 c -0.2,0.5 -0.2,1.1 -0.3,1.6 -0.3,0.6 -0.5,1.4 -1,1.9 -0.2,0.3 -0.5,0.6 -0.8,1 -0.5,0.6 -0.6,1.4 -1.1,2.1 -0.3,0.5 -1.1,0.6 -1.7,1 -0.8,0.5 -1.4,1.1 -1.7,1.9 -0.2,0.3 -0.3,0.6 -0.3,1 -0.2,0.6 0,1.3 0.2,1.6 0.5,1.3 1.6,1.9 1.9,3.2 0.2,0.8 0.3,2.2 0,2.9 -0.2,0.5 -0.6,1.1 -1,1.6 -0.3,0.6 -0.5,1.3 -0.8,1.7 -0.2,0.3 -0.6,0.8 -0.8,1.1 -0.3,0.5 -0.6,1.6 -1.1,1.9 -1.4,1.1 -3.8,1.6 -5.9,2.1 -0.3,0 -0.5,0 -0.8,0 -0.6,0.2 -1.4,0.2 -2.1,0.3 -0.8,0.2 -1.6,0.5 -2.4,0.8 -0.6,0.3 -1.3,0.8 -1.9,1.1 -0.5,0.3 -0.8,1 -1.1,1.4 -0.3,0.4 -0.8,0.8 -1.3,1.1 -0.5,0.3 -0.6,0.8 -1.1,1.1 -1.4,1 -2.7,2.2 -4.3,2.9 -0.8,0.3 -1.9,0.3 -2.7,0.6 -0.5,0.2 -1,0.5 -1.4,0.6 -0.5,0.2 -2.2,0 -2.7,-0.2 -2.1,-0.5 -3.7,-1.4 -5.4,-2.2 -0.8,-0.3 -2.1,-0.8 -3.2,-0.5 -2.1,0.5 -3,2.7 -4.3,4.3 -0.3,0.3 -1.4,1 -1.9,1.1 -0.3,0.2 -0.6,0.2 -1,0.3 -0.5,0.2 -0.8,0.3 -1.3,0.6 -0.5,0.2 -1.7,0 -2.4,0 -2.9,0 -5.1,-1 -6.8,-2.2 -0.5,-0.3 -0.8,-0.8 -1.1,-1.1 -0.8,-0.6 -1.9,-1.1 -3,-1.4 -1.3,-0.3 -2.4,0.8 -3,1.1 -0.5,0.3 -1,0.3 -1.3,0.6 -0.3,0.2 -0.5,0.5 -0.8,0.6 -0.5,0.3 -1.1,0.6 -1.7,1.1 -0.6,0.5 -1.1,0.8 -1.9,1.1 -0.5,0.2 -1.3,0.2 -1.9,0.2 h -1.6 c -0.8,-0.2 -1.7,-0.2 -2.4,-0.5 -1.6,-0.5 -3,-1.4 -4.3,-2.2 -0.6,-0.5 -1.4,-1 -2.1,-1.6 -0.6,-0.8 -1.1,-1.9 -1.7,-2.7 -0.3,-0.5 -0.8,-0.8 -1.1,-1.1 -0.5,-0.6 -0.5,-1.3 -1.1,-1.7 -0.5,-0.3 -1,-0.3 -1.4,-0.5 -0.8,-0.3 -2.1,-1 -3.2,-0.6 -0.5,0.2 -0.8,0.2 -1.3,0.3 -0.5,0.2 -0.8,0 -1.3,0.2 -0.6,0.2 -1.6,0.5 -2.5,0.3 -1.9,-0.5 -4.1,-1.7 -5.1,-3 -1,-1.1 -1.3,-2.7 -1.7,-4.4 0,-0.3 0,-0.5 -0.2,-0.8 -0.2,-0.6 -0.2,-2.1 0,-2.7 v -0.8 c 0.2,-0.6 0.2,-1.3 0.5,-1.9 0.2,-0.3 0.3,-0.6 0.5,-1 0.3,-0.6 0.5,-1.4 0.8,-2.1 0.3,-0.6 0.6,-1.3 1,-1.9 0.2,-0.5 0.3,-1.3 0,-1.7 -0.2,-0.5 -0.8,-0.8 -1.1,-1.1 -0.8,-0.5 -1.7,-1 -2.7,-1.3 -0.5,-0.2 -1,-0.2 -1.4,-0.3 -0.3,0 -0.8,-0.2 -1.1,-0.2 -0.6,-0.2 -1.3,-0.2 -1.7,-0.5 -1.1,-0.5 -1.7,-1.3 -2.4,-2.1 -0.6,-1 -1.6,-1.7 -1.9,-3 -0.2,-0.5 0,-1.4 0.2,-1.9 0.2,-0.5 0,-0.8 0.2,-1.1 0.3,-1.1 0.3,-2.4 0.6,-3.5 0.5,-1.4 1.4,-2.2 2.2,-3.2 0.8,-1 1.4,-2.1 2.2,-3 0.3,-0.5 1,-0.8 1.4,-1.1 0.6,-0.5 1.3,-1.1 1.9,-1.6 0.6,-0.5 1.1,-1.1 1.9,-1.6 1.1,-0.6 3,1 3.8,-0.5 0.3,-0.5 0.2,-1.1 0.3,-1.7 0.3,-1.1 0.2,-2.2 0.5,-3 0.3,-0.6 0.8,-1.3 1.1,-1.7 0.3,-0.5 0.5,-1.1 0.6,-1.6 0.5,-0.8 1.1,-1.6 1.6,-2.2 0.2,-0.3 0.3,-0.5 0.6,-0.8 0.5,-0.3 1.3,-0.8 1.7,-1 0.3,-0.2 0.6,-0.2 1.1,-0.3 0.5,-0.2 1,-0.5 1.4,-0.6 1,-0.2 1.9,-0.5 2.7,-0.6 h 0.6 c 1,-0.2 2.1,0.2 2.7,0.5 0.5,0.2 1,0.3 1.4,0.5 1.4,0.6 2.7,1.7 4,2.7 0.8,0.6 2.4,2.2 4,1.7 1.3,-0.3 2.7,-0.8 3.3,-1.7 0.5,-0.6 0.6,-1.4 1,-2.2 0.3,-1 0.8,-1.7 1.4,-2.5 0.5,-0.6 1.4,-1.3 2.2,-1.7 0.8,-0.6 1.6,-1.4 2.7,-1.7 0.5,-0.2 1.4,0 1.9,-0.2 0.2,0 0.5,0 0.6,0 1,0 1.7,0 2.5,0.2 0.5,0.2 1.1,0 1.6,0.2 1.9,0.5 4.1,1.7 5.6,2.9 0.5,0.3 0.8,1 1.1,1.6 0.8,1.1 2.5,2.7 4,3 0.6,0.2 1.1,-0.2 1.4,-0.3 1.1,-0.6 1.6,-1.7 2.4,-2.7 0.5,-0.5 1.1,-0.8 1.4,-1.3 0.3,-0.5 0.8,-1 1.3,-1.4 0.5,-0.3 1.1,-0.5 1.7,-0.6 0.3,0 0.6,0 1,-0.2 1.1,-0.3 2.5,-0.8 4.1,-0.5 0.3,0 0.5,0 0.8,0 1,0.2 2.1,0.2 3,0.5 0.5,0.2 1,0.5 1.4,0.6 0.3,0.2 0.6,0.2 0.8,0.3 0.3,0.2 0.6,0.5 1,0.8 0.6,0.3 1.3,0.8 1.6,1.3 0.3,0.3 0.5,0.8 0.5,1.4 0.2,0.5 0,1.1 0.2,1.6 0.5,1 1.4,1.6 1.9,2.4 0.5,0.6 0.8,1.3 1.6,1.6 0.3,0.2 1,0.3 1.4,0.3 0.8,-0.2 1.6,0.2 2.2,-0.2 1,-0.3 1.7,-1 2.7,-1.4 1.9,-0.8 4.6,-0.8 6.7,-0.3 0.8,0.2 1.6,0.3 2.2,0.5 0.5,0.2 0.8,0.5 1.3,0.8 1.6,1.1 2.9,2.7 3.5,4.8 0.3,1 0.6,2.1 0.3,3 -0.2,0.5 -0.5,0.8 -0.6,1.1 -0.5,0.8 -0.8,1.6 -1.1,2.5 -0.2,0.5 -0.6,1.1 -0.5,1.7 0.2,0.6 0.5,1 0.8,1.4 1,1.4 2.2,1.4 4,2.2 1.1,0.5 2.1,1.4 2.7,2.5 0.6,1.5 -0.2,2.9 -0.6,4.3 z M 595.9,658 c 0.3,-0.3 0.5,-0.6 0.8,-1 0.3,0 0.6,0.5 0.8,0.6 0.5,0.3 1,0.6 1.6,0.8 1,0.3 1.6,-0.3 2.2,-0.5 0.3,0 1,0.2 1.3,0.2 1,0.2 2.1,-0.5 2.5,-1 0.6,0 1.3,0.5 1.9,0.6 0.3,0 0.6,0 1,0 0.6,-0.2 1,0 1.4,-0.3 0.8,-0.3 1.3,-1.7 1.3,-2.9 -0.3,0 -0.3,0.2 -0.5,0.3 -0.8,0.3 -1.4,0.6 -2.2,0.8 -0.3,0.2 -0.8,0.2 -1.1,0.2 -0.2,0 -0.3,-0.2 -0.3,-0.3 -0.2,-1 -0.2,-1.6 0.2,-2.5 0.2,-0.3 0.2,-1 -0.2,-1.1 -0.3,-0.5 -2.5,-0.2 -3,0 -1.1,0.3 -1.6,2.1 -2.2,2.9 -0.2,0.3 -1,1.1 -1.3,1.4 -0.2,0.2 -0.5,0.3 -0.6,0.5 -0.2,0 -0.2,0 -0.2,0 -0.3,-0.2 -0.5,-0.6 -0.5,-1.1 0.2,-0.6 0.5,-1.1 0.8,-1.6 1,-1.4 1.9,-3 2.4,-4.8 0.2,-0.3 0.2,-0.6 0.2,-1.1 0.2,-0.5 0.5,-1.7 0.3,-2.2 -0.2,-0.3 -0.3,-0.6 -0.5,-1 -0.8,-0.3 -1.3,-0.2 -2.1,0.2 -0.2,0.2 -0.6,0.2 -0.8,0.3 -0.3,0.3 -0.5,1 -0.6,1.4 -0.3,0.8 -0.6,1.7 -0.8,2.7 -0.2,0.6 0,1.3 -0.2,1.9 -0.2,0.6 -0.3,1.4 -0.5,2.2 0,0.5 0,1 -0.2,1.6 -0.3,1.1 -0.5,2.2 -1.3,2.9 0,-0.1 0.2,-0.1 0.4,-0.1 z m 7.9,-3.9 c 0.2,0 0.2,0 0.2,0 h 0.2 c 0.2,0.8 -0.3,1.4 -0.6,1.9 0,0.2 -0.2,0.3 -0.3,0.3 -0.2,0 -0.3,-0.2 -0.3,-0.2 -0.2,-0.3 0.5,-1.7 0.8,-2 z m -3.3,-7 c 0.2,-0.2 0.3,-0.3 0.5,-0.3 h 0.2 c 0.3,1.6 -0.3,2.2 -1,3.3 0,0.2 0,0.3 -0.2,0.5 0,0.2 -0.3,0.3 -0.3,0.6 0,0.2 0,0.3 -0.2,0.5 0,0.2 -0.2,0 -0.2,0.2 0,0 0,0 -0.2,0 v 0 c 0.1,-1.8 0.7,-3.8 1.4,-4.8 z m -32.4,23.3 c 0,-0.3 -0.2,-0.3 -0.3,-0.5 -0.2,-0.3 -0.2,-0.6 -0.5,-1 -0.2,-0.3 -0.5,-0.5 -0.6,-0.8 -0.5,0 -1,-0.2 -1.4,-0.2 -0.3,-0.2 -0.5,-0.2 -1,-0.2 0,-1 0,-2.1 0.5,-2.9 2.2,-0.5 4.4,-0.8 6.2,-1.9 0.5,-0.3 1.1,-0.6 1.4,-1.1 0.2,-0.3 -0.2,-1.4 -0.3,-1.7 -0.2,-0.2 -0.2,-0.2 -0.3,-0.2 -0.8,-0.3 -1.4,-0.2 -2.1,0.2 -1.1,0.5 -2.7,0.6 -4.1,1 -0.5,0 -1.1,0 -1.6,0.2 -0.6,0.2 -1.3,0.5 -1.9,0.6 -0.6,0.3 -1.1,0.3 -1.4,0.8 0.2,0.6 0.6,1.1 0.8,1.6 0.3,0.8 0,2.2 -0.3,2.9 -0.2,0.3 -0.3,0.5 -0.5,0.6 -0.2,0.2 -0.3,0.6 -0.5,0.8 -0.3,0.3 -1,0.3 -1.4,0.6 0,0.6 0.3,1.1 0.5,1.6 0.2,0.2 0.3,0.5 0.3,0.8 0,0.5 -0.3,1 -0.5,1.3 -0.2,0.5 -0.2,0.8 -0.2,1.1 -0.5,1.6 -0.2,3.3 1.7,3.3 0.2,-0.2 0.5,-0.3 0.6,-0.5 0.5,-0.6 0.8,-1.7 1,-2.7 0.2,-0.6 0.5,-2.4 1,-2.7 0.3,-0.3 1.1,-0.3 1.7,-0.3 h 0.8 c 0.6,-0.2 1.4,-0.2 1.9,-0.5 0.3,0 0.3,-0.2 0.5,-0.2 z m 34.4,8.3 c 0.2,0 0.3,0.2 0.5,0.2 l 0.2,-0.2 c 0.3,-0.2 1,0 1.1,-0.2 h 0.2 c 0.2,-1 -0.3,-1.6 -0.6,-2.2 -0.3,-0.5 -0.5,-1.1 -0.8,-1.6 -0.3,-0.6 -0.8,-1 -1,-1.7 1.1,-1 2.9,-1.4 3.5,-2.9 0.2,-0.6 0.5,-1.4 0.6,-2.1 0.2,-0.8 -0.3,-2.1 -0.5,-2.5 -0.2,-0.5 -0.2,-0.8 -0.5,-1.3 -0.2,-0.3 -0.5,-0.6 -0.8,-1 -1,-1 -2.1,-1.6 -4,-1.6 -0.3,0.2 -0.8,0.2 -1.1,0.3 -0.5,0.2 -1.9,1.1 -2.2,1.4 -0.5,0.6 -0.2,1.7 -0.5,2.7 -0.3,1.1 -0.3,2.2 -0.6,3.3 0,0.3 0,0.6 0,1 -0.2,0.8 -0.2,1.7 -0.5,2.4 0,0.3 0,0.5 -0.2,0.8 -0.2,0.6 -0.5,1.1 -0.6,1.6 -0.2,0.3 -0.2,0.8 -0.3,1.1 0,0.2 -0.3,0.6 -0.3,0.8 0,1 0.8,1.4 1.9,1.4 0.2,-0.2 0.2,-0.2 0.3,-0.3 0.3,-0.2 0.5,-0.5 0.8,-0.6 0.2,-0.6 0.3,-1.3 0.5,-1.9 0.2,-0.5 0,-1 0.3,-1.4 0.2,-0.3 0.5,-0.6 0.8,-1.1 0.5,0.2 1,0.8 1.3,1.3 0.5,0.6 1,1.1 1.4,1.9 0.3,0.5 0.3,1 0.6,1.4 0,0.7 0.4,0.8 0.5,1 z m -1.7,-8.9 v 0.2 c 0,0.2 -0.3,0.2 -0.3,0.2 -0.2,0 -0.2,0 -0.3,0 -0.2,-0.3 0,-1 0,-1.4 0,-0.5 0.2,-1.1 0.2,-1.6 0.2,-0.8 0,-1.4 0.3,-2.1 0.2,-0.3 0.6,-0.3 0.8,-0.5 1.4,0 1.7,1.4 1.4,2.7 -0.2,0.6 -0.8,1.1 -1.3,1.4 -0.2,0.3 -0.7,0.9 -0.8,1.1 z m -8.4,6.7 c 0.5,-0.6 1.1,-1.1 1.4,-1.9 0.5,-1.4 -0.5,-3.3 -1.1,-4.1 0.2,-0.2 0.5,-0.2 0.6,-0.3 0.6,-0.8 0.6,-1.9 0.5,-3 -0.2,-0.5 0,-1 -0.2,-1.3 -0.2,-0.3 -0.3,-0.5 -0.5,-0.6 -0.2,-0.3 -0.2,-0.8 -0.3,-1 -0.8,-1.3 -2.4,-2.2 -4.4,-2.2 -0.3,0.2 -0.6,0 -1,0.2 -0.6,0.2 -1.6,0.6 -2.1,1.1 -0.3,0.5 -0.5,1.9 -0.6,2.7 0,0.3 0,0.6 0.2,0.8 0,0.3 0,0.8 -0.2,1 -0.2,0.5 -0.3,1.1 -0.5,1.6 -0.2,0.3 -0.5,0.8 -0.6,1.1 -0.2,0.5 -0.2,1 -0.3,1.4 -0.2,0.5 -0.3,1 -0.5,1.4 0,0.3 0,0.8 -0.2,1.1 -0.2,0.5 -0.5,1.7 -0.2,2.4 0.3,0.8 1.1,1.1 1.6,1.7 0.3,0.3 0.5,0.6 0.8,1 1.1,0.8 3.8,0.3 4.8,-0.3 1.2,-0.9 2,-1.9 2.8,-2.8 z m -4,-11.5 c 0.3,-0.2 1,-0.2 1.4,-0.2 0.5,0.5 0.8,0.6 0.6,1.6 -0.8,0.8 -1.7,2.7 -3.3,2.5 0.2,-1.2 0.3,-3.4 1.3,-3.9 z m -1.1,11.6 c -0.2,0.2 -1.1,0.5 -1.6,0.3 -0.3,0 -0.3,-0.2 -0.5,-0.3 0,-0.8 0.2,-1.6 0.3,-2.2 0.2,-0.5 0,-1 0.3,-1.3 0.2,-0.2 0.3,-0.3 0.5,-0.3 h 0.8 c 0.2,0 0.5,0.2 0.8,0.2 0.3,0 1,-0.2 1.4,-0.2 0.5,0.2 0.6,0.5 1,0.8 0,0.5 -0.3,0.8 -0.5,1.1 -0.6,0.8 -1.4,1.4 -2.5,1.9 z m 40,2.1 c 0.3,0.2 0.6,0.2 1,0.3 0.5,0 0.5,-0.2 0.8,-0.3 0.2,0 0.3,0 0.3,-0.2 0,-0.2 -0.2,-0.6 -0.3,-0.8 -0.3,-0.5 -0.5,-1.1 -0.8,-1.6 -0.2,-0.2 -0.3,-0.6 -0.3,-1 0.2,-0.5 0.3,-1 0.6,-1.4 0.2,-0.3 0.2,-0.6 0.3,-1 0.2,-0.3 0.5,-0.6 0.6,-1 0.6,-1.6 0.2,-4.8 -0.6,-5.9 -0.5,-0.6 -1.4,-1.1 -2.2,-1.4 -0.5,-0.2 -1,-0.2 -1.3,-0.3 -0.8,-0.3 -1.6,-1 -2.7,-1 -0.2,0.2 -0.6,0.2 -0.8,0.3 -0.5,0.3 -1.1,0.8 -1.4,1.3 -0.2,0.2 -0.2,0.3 -0.3,0.5 -0.5,0.3 -1.1,0.6 -1.4,1.1 -0.2,0.3 -0.3,0.6 -0.5,1 -0.3,0.5 -0.8,1 -1,1.6 -0.3,0.6 -0.3,1.3 -0.5,2.1 0,0.2 -0.2,0.3 -0.2,0.5 0,0.3 0,0.8 -0.2,1.1 -0.2,1 0.6,2.1 1,2.5 1,1.4 2.4,2.2 4.3,2.9 0.5,0.2 1.7,0.5 2.4,0.3 0.5,-0.2 0.8,-0.5 1.1,-0.6 0.2,-0.2 0.5,-0.2 0.6,-0.3 0.5,0.3 1,1 1.5,1.3 z m -2.2,-6.5 c -0.8,0 -1.6,-0.8 -2.4,-0.5 -0.2,0 -0.3,0.3 -0.5,0.3 0,0.6 0.5,1.3 0.8,1.7 0.2,0.2 0.5,0.5 0.5,1 0,0.3 -0.3,0.3 -0.5,0.6 -0.5,0.6 -1.3,1.1 -2.2,0.6 -0.2,0 -0.3,-0.2 -0.5,-0.3 -0.6,-0.8 -0.5,-2.4 -0.3,-3.5 0.3,-1.3 0.6,-2.1 1.3,-3 0.2,-0.2 0.5,-0.5 0.6,-0.6 0.5,-0.6 0.8,-1.1 1.4,-1.6 0.2,-0.2 0.5,-0.3 0.6,-0.5 0.2,0 0.3,0 0.3,-0.2 1.7,0 2.4,1.7 2.1,3.2 -0.2,0.5 0,0.8 -0.2,1.1 -0.3,0.9 -0.6,1.2 -1,1.7 z m -15.3,-4.5 c -0.2,0.8 -0.2,1.7 -0.5,2.7 -0.2,0.8 -0.5,1.6 -0.6,2.4 -0.2,0.8 -0.2,2.4 0.2,3 0.3,0.8 1.9,1.9 2.9,1.1 0.2,-0.2 0.5,-0.3 0.5,-0.5 0.2,-0.2 0.2,-0.6 0.2,-1 -0.2,-0.5 -0.3,-1.3 -0.2,-1.9 0.2,-0.6 0.5,-1.1 0.6,-1.9 0.2,-1.3 0.2,-2.5 0.3,-4 0.5,-1.9 0.6,-4 -1.9,-4 -0.2,0.2 -0.5,0.2 -0.6,0.3 -0.5,0.6 -0.5,1.7 -0.6,2.7 -0.1,0.7 -0.1,0.8 -0.3,1.1 z m -39.7,6.9 c -0.3,0.5 -0.5,1 -0.8,1.4 -0.2,0.2 -0.3,0.5 -0.5,0.8 -0.2,0.3 -0.3,1 -0.5,1.3 0,0.3 0.2,0.5 0.3,0.6 0.3,0 0.5,0.2 0.8,0.2 0.6,0.2 1.3,-0.6 1.6,-1 0.3,-0.3 0.6,-0.8 0.8,-1.1 0.6,-1 1,-2.1 2.7,-1.7 0.6,0.2 1.4,-0.3 1.9,0.2 0.3,0.2 0.2,1.3 0.3,1.7 0.2,0.3 0.6,1.3 0.8,1.4 0.2,0.2 0.5,0.2 0.6,0.3 1,-0.2 1.1,-2.1 1.3,-2.9 0,-0.5 0,-1.1 0,-1.6 0,-0.3 0.2,-0.8 0.2,-1 0,-0.6 0,-1.1 0,-1.7 0.2,-0.5 0.2,-1 0.3,-1.4 0,-0.5 0,-1.1 0,-1.6 0.2,-0.5 0,-1.1 0,-1.6 0,-0.3 -0.2,-0.5 -0.2,-0.8 -0.2,-0.5 -1,-1.3 -1.4,-1.6 -0.3,-0.2 -0.8,-0.2 -1.3,-0.2 -0.2,0.2 -0.5,0.2 -0.6,0.3 -0.3,0.2 -0.5,1 -0.8,1.3 -0.2,0.3 -0.5,0.8 -0.6,1.1 -0.2,0.2 -0.3,0.3 -0.5,0.5 -0.2,0.3 -0.3,0.6 -0.5,1 -0.3,0.5 -0.6,0.8 -1,1.1 -0.8,1.3 -1.4,2.5 -2.2,3.7 0,0.5 -0.5,0.8 -0.7,1.3 z m 6.1,-4.2 c 0.2,-0.3 0.2,-0.6 0.3,-0.8 h 0.2 c 0.2,0 0.2,0 0.2,0 0.2,0.6 0.3,1.9 0,2.4 -0.3,0.2 -0.8,0.2 -1.3,0.2 -0.1,-0.7 0.3,-1.3 0.6,-1.8 z m 75.5,-5.2 c -0.3,-0.3 -1.3,-0.3 -1.7,-0.3 -1.3,-0.3 -2.7,-0.5 -4.3,-0.5 -0.3,0.2 -1.1,0 -1.4,0.3 -0.3,0.2 -0.3,0.5 -0.5,0.6 -0.2,0.5 -0.5,1.1 -0.6,1.7 0,0.2 0,0.3 0,0.6 -0.5,2.1 -1.1,3.8 -1.7,5.7 v 0.5 c 0,0.2 -0.2,0.5 -0.2,0.8 -0.3,1.1 0.3,2.4 0.8,2.9 0.5,0.3 1,0.6 1.6,0.8 0.5,0.2 1.3,0 1.7,-0.2 0.6,-0.2 1.3,0 1.9,-0.2 0.5,-0.2 1.7,-0.2 1.9,-0.3 0,0 0,-0.2 0.2,-0.3 0,-0.3 -0.2,-0.3 -0.3,-0.5 -0.2,-0.5 -0.3,-1.1 -0.8,-1.4 -0.8,-0.5 -2.5,-0.3 -3.3,-0.8 0,-1 -0.2,-1.4 0.5,-2.1 0,-0.2 0.2,-0.2 0.2,-0.3 0.3,-0.2 1,-0.2 1.4,0 h 0.6 c 0.8,0.2 1.6,0.2 2.2,-0.3 0,-1.1 -0.3,-1.6 -1.1,-1.9 -0.3,0 -0.5,-0.2 -0.8,-0.2 -0.5,-0.2 -1,-0.3 -1.4,-0.3 -0.2,-0.6 0.2,-1.9 0.5,-2.4 0,-0.2 0.2,-0.3 0.2,-0.5 0.8,-0.2 1.7,0 2.5,0.3 0.6,0 1.3,0 1.7,0 0.2,-0.2 0.5,-0.3 0.6,-0.5 0,-0.2 0.2,-0.3 0.2,-0.5 0,-0.3 -0.2,-0.3 -0.3,-0.6 -0.1,0.4 -0.1,0 -0.3,-0.1 z M 642,669 c 0.2,-0.5 -0.2,-0.8 -0.2,-1.1 0,-1.3 0.3,-1.6 -0.6,-2.2 -0.3,-0.2 -0.5,-0.3 -1.1,-0.3 -1,0.6 -1.3,1.6 -1.6,2.9 -0.2,0.5 -0.2,1 -0.3,1.4 -0.2,0.5 -0.5,1 -0.6,1.4 -0.2,0.5 -0.2,1 -0.3,1.3 -0.3,1 -1,1.6 -1.4,2.4 -0.3,0.3 -0.6,0.6 -1,1 -0.2,0 -0.2,0 -0.2,0 0,-0.5 0,-1 0,-1.4 0.2,-0.8 0.3,-1.6 0.5,-2.2 0,-0.3 0.2,-0.6 0.2,-1 0.3,-0.8 0.6,-1.7 0.8,-2.5 0.2,-0.5 0,-1.1 -0.2,-1.4 -0.5,-1 -1,-1.4 -2.2,-1.4 -0.6,1.4 -1,3.3 -1.4,4.9 -0.2,0.3 -0.2,0.8 -0.2,1.1 v 0.6 c -0.2,0.6 -0.2,2.2 0,2.7 0.5,1.9 1.4,3 3.3,3.3 1.3,0.3 2.2,-0.8 2.5,-1.4 0.3,-0.3 0.6,-0.6 0.8,-1.1 0.3,-0.5 0.3,-1 0.6,-1.4 0.2,-0.3 0.5,-0.6 0.8,-1 0.3,-0.5 0.5,-1 0.6,-1.4 0.2,-0.5 0.2,-1 0.3,-1.4 0.6,-0.5 0.8,-1.2 0.9,-1.8 z m -43.3,25.2 c -0.5,-0.3 -1.4,-0.2 -2.1,-0.2 h -0.8 c -0.3,0 -1,0.2 -1.3,0 -0.5,-0.2 -1.1,0 -1.6,-0.2 -0.3,0 -0.6,-0.2 -1.1,-0.2 v 0 0 c 0,-1 0.3,-1.6 0.5,-2.4 0,-0.3 0,-0.6 0.2,-1 0.2,-0.8 0.3,-1.7 0.6,-2.5 0.2,-0.5 0.6,-0.8 0.8,-1.1 0.2,-0.3 0.3,-0.8 0.5,-1.3 0.2,-0.3 0.3,-0.6 0.5,-1 0.5,-1.1 -0.2,-2.1 -1.1,-2.2 -0.2,0 -0.2,0 -0.3,0.2 -0.2,0.2 -0.3,0.3 -0.5,0.5 -0.2,0.3 -0.3,0.6 -0.5,1 -0.3,0.5 -0.6,1.1 -0.8,1.7 -0.3,1.1 -0.3,2.2 -0.8,3.2 -0.2,0.5 -0.5,0.8 -0.8,1.1 -0.2,0.3 -0.3,0.8 -0.5,1.3 -0.3,0.6 -0.5,1.3 -0.8,2.1 -0.2,0.2 -0.3,0.5 -0.2,1 0.2,0.6 0.5,1.4 1,1.7 0.5,0.3 1.1,0.5 1.7,0.6 h 0.6 c 0.6,0.2 1.3,0 1.9,0.2 h 1 c 0.5,0.2 1,0 1.4,0.2 1.3,0.3 2.9,0 3.7,-0.5 0,-0.2 0,-0.2 0.2,-0.2 0,-0.3 -0.3,-0.6 -0.5,-0.8 -0.4,-0.5 -0.6,-1 -0.9,-1.2 z m -14.6,-0.4 c -0.8,0.2 -1.7,0.6 -2.4,0.2 0,-0.2 -0.2,-0.5 -0.2,-0.8 0.3,-1 0.6,-1.9 1.1,-2.9 0.2,-0.3 0.2,-0.6 0.3,-1 0,-0.5 -0.2,-0.5 -0.3,-0.8 -1.6,-0.3 -1.6,0.8 -2.2,1.7 -0.3,0.5 -0.6,1 -1,1.4 -0.5,0.6 -1.1,1.1 -1.6,1.6 h -0.2 c 0,-1.6 0.6,-2.4 1,-3.5 0.2,-0.3 0,-1 -0.2,-1.1 -0.5,-0.3 -1.4,0 -1.7,0.3 -0.5,0.3 -0.6,1.4 -1,1.9 -0.3,0.5 -0.6,1.1 -1.1,1.4 -0.2,0.2 -0.5,0.3 -0.6,0.5 -0.2,0 -0.2,0 -0.3,0 -0.2,-0.2 0,-0.3 0,-0.6 0,-1 0.3,-1.4 0.6,-2.2 0.5,-1.6 1,-3.2 1.6,-4.6 0.2,-0.3 0.3,-0.6 0.5,-0.8 0.2,-0.3 0.3,-1 0.5,-1.3 0,-0.6 -0.3,-0.8 -1,-0.8 -0.3,0.2 -0.6,0.3 -0.8,0.6 -0.5,0.6 -0.5,1.4 -0.8,2.1 -0.5,1.1 -0.8,2.4 -1.6,3.3 -0.2,0.2 -0.5,0.2 -0.6,0.3 -0.5,0.2 -1.1,0.5 -1.6,0.6 -0.2,0 -0.3,0.2 -0.5,0.3 -0.5,0.2 -1,0.3 -1.3,0.6 -0.3,0.3 -0.6,0.8 -1,1.3 -0.2,0.3 -0.6,0.6 -0.8,1.1 -0.2,0.3 0,1 0.2,1.1 0.3,0.8 1.6,1.9 2.9,1.6 1,-0.3 1.3,-1.1 2.1,-1.6 0,0 0.6,0.3 0.8,0.3 0.8,0.3 1.7,0.6 2.9,0.3 0.5,0.5 1.6,1.1 2.7,0.8 0.5,-0.2 1,-0.5 1.4,-0.6 0.2,0.2 0.6,0.3 0.8,0.5 0.3,0.2 0.5,0.5 0.8,0.6 0.5,0.3 1.6,0.3 2.2,0.2 0.6,-0.3 1.1,-0.6 1.4,-1.3 0.2,-0.2 0.2,-0.8 0,-1 0,0.1 -0.8,0.3 -1,0.3 z M 570.6,692 c -0.5,0.6 -0.8,1.6 -1.7,1.7 0,0 0,0 -0.2,-0.2 -0.3,-0.3 0,-0.8 0.2,-1 0.5,-0.8 1.4,-1 2.1,-1.6 h 0.2 c -0.1,0.6 -0.4,0.8 -0.6,1.1 z m 64,-9 c -0.3,0.5 -0.5,1.1 -0.8,1.7 -0.3,0.6 -0.3,1.3 -0.5,1.9 -0.3,0.8 -0.6,1.6 -1,2.2 -0.3,0 -0.6,0.2 -1,0.2 -0.3,0 -0.6,-0.2 -1.1,-0.2 -0.2,-1.6 1.7,-4.3 -0.5,-5.1 -0.3,-0.2 -0.8,0 -1.1,0 -0.2,0.2 -0.5,0.3 -0.6,0.5 -0.2,0.2 -0.2,0.5 -0.3,0.8 -0.2,0.3 -0.3,0.8 -0.5,1.3 -0.2,0.8 -0.2,1.6 -0.3,2.2 -0.2,0.6 -0.5,1.3 -0.6,2.1 -0.3,0.8 -0.3,1.6 -0.5,2.2 -0.3,1 -1,2.5 0,3.2 0.2,0.2 0.5,0.2 0.6,0.2 0.2,0 0.6,0.3 1,0.2 0.3,-0.2 0.5,-0.5 0.6,-0.8 0.5,-1 0.5,-2.2 1,-3.2 0.2,-0.2 0.2,-0.5 0.3,-0.6 0.2,-0.3 1.1,-0.5 1.6,-0.3 0.2,0 0.5,0.2 0.6,0.3 0,0.8 0,1.6 -0.2,2.2 -0.2,0.5 -0.3,0.8 -0.5,1.1 -0.2,0.6 0.2,1.4 0.3,1.7 0.2,0.3 1,0.6 1.4,0.8 0.3,0.2 0.6,0.2 0.8,0.3 h 0.5 c 0.2,0 0.2,-0.5 0.3,-0.6 0.5,-0.8 0.3,-2.2 0.6,-3.2 0.3,-1.3 0.6,-2.7 1,-4 0.5,-1.6 1.1,-2.9 1.6,-4.6 0.5,-1.7 -1.3,-2.9 -2.7,-2.5 z m -15.4,5.5 c 0.6,-1 1.7,-1.3 2.7,-1.9 0.5,-0.3 0.8,-0.8 1.3,-1.3 -0.2,-1.3 -1.3,-1.6 -2.7,-1.6 -0.2,0.2 -0.3,0 -0.5,0.2 -0.2,0.2 -0.3,0.3 -0.5,0.3 -0.3,0.2 -0.6,0.3 -1,0.5 -0.3,0.2 -0.5,0.5 -0.8,0.8 -1.3,1 -2.1,2.2 -2.4,4 v 0.8 c -0.2,0.5 -0.2,1.1 -0.3,1.7 v 0.3 c 0,0.2 -0.2,0.5 -0.2,0.6 0.5,1.7 1.6,3 3.2,3.7 1,0.3 2.5,1 3.8,0.5 0.3,-0.2 0.6,-0.5 1,-0.8 0.2,-0.6 -0.2,-1 -0.3,-1.4 -0.2,-0.2 0,-0.3 -0.2,-0.5 -0.2,0 -0.2,0.2 -0.3,0.2 -0.3,0.2 -0.6,0 -0.8,0.2 -0.8,0.2 -1.9,-0.2 -2.4,-0.5 -1,-0.6 -0.5,-2.2 -0.3,-3.3 0.2,-1.1 0.2,-1.7 0.7,-2.5 z m -5.9,-0.6 c -0.2,-0.5 0,-0.8 -0.2,-1.3 -0.2,-0.6 -0.8,-1 -1,-1.6 -0.8,-0.2 -1.6,-0.5 -2.7,-0.5 -0.6,0.3 -2.7,-0.3 -3.3,0.2 -0.6,0.3 -1.1,1 -1.6,1.6 -0.2,0.2 -0.5,0.3 -0.8,0.6 -0.2,0.2 -0.2,0.3 -0.3,0.5 -0.2,0.2 -0.3,0.2 -0.5,0.3 -0.5,0.6 -0.6,1.6 -1,2.4 -0.2,0.2 -0.3,0.5 -0.3,0.8 -0.2,0.6 0,1.6 0.2,2.1 0.5,1.4 1.1,2.5 2.2,3.3 0.6,0.3 2.2,1 3,0.6 0.8,-0.3 1.6,-0.8 2.2,-1.3 0.5,-0.3 1.1,-0.5 1.6,-0.8 0.5,-0.5 0.8,-1.1 1.1,-1.6 0.3,-0.5 0.8,-0.8 1,-1.3 0.2,-0.5 0.6,-2.2 0.5,-3 0.2,-0.2 0.1,-0.7 -0.1,-1 z m -3.3,1.7 c -0.5,1.4 -1.6,3.2 -2.5,4 -0.6,0.5 -1.1,1 -2.1,1 -0.5,-0.6 -1.1,-1.6 -0.8,-2.9 0.2,-0.3 0.3,-0.8 0.5,-1.1 0.2,-0.3 0.2,-0.6 0.3,-1 0.3,-0.3 1,-0.8 1.1,-1.1 0.3,-0.5 0.6,-1 1.1,-1.3 0.5,-0.3 1,-0.5 1.4,-0.8 1,0.2 1.3,2.1 1,3.2 z m -7.5,-1.9 v 0 0 0 c 0,-0.1 0,0 0,0 z" />
			</g>
		</g>
		<g
   id="g18">
			<g
   id="g16">
				<path
   style="fill:#f96d5a"
   inkscape:connector-curvature="0"
   id="path14"
   d="m 605.5,748.2 c 0,1 0,1.9 -0.2,2.9 -0.2,0.5 0,1 -0.2,1.3 v 1.9 c 0,1 0,2.2 -0.2,3.2 v 1.9 c 0,0.3 0,0.8 -0.2,1.1 -0.2,0.6 -0.3,1.4 -0.3,2.2 0,0.6 0,1.3 0.2,1.9 -0.3,1.3 -0.2,2.5 -0.2,4 0,1.1 -0.2,2.4 0.2,3.3 0.2,0.5 0.2,1 0.3,1.3 v 2.4 c 0.2,1 0.5,2.4 0.2,3.5 0,0.8 0,1.4 0,2.2 -0.2,0.6 0,1.3 -0.2,1.9 -0.2,0.6 -0.3,1.3 -0.3,1.9 0,0.3 0,0.8 -0.2,1.1 -0.2,0.6 -0.2,1.3 -0.3,1.9 -0.2,0.5 0,1.4 0.2,1.9 0,0.3 0,0.8 0,1.1 0.2,0.8 0.3,1.7 0.5,2.5 0,1.1 0,2.4 0,3.5 0.2,0.8 0.2,2.2 0,3 -0.2,0.6 -0.2,1.4 -0.6,1.7 -0.6,0.5 -1.7,0 -2.4,-0.3 -1.3,-0.6 -2.7,-1.3 -4,-1.9 -1,-0.5 -1.9,-0.6 -2.9,-1.1 -0.8,-0.5 -1.4,-1 -2.2,-1.4 -0.5,-0.3 -1,-0.5 -1.4,-0.6 -0.3,-0.2 -0.8,-0.5 -1.1,-0.6 -1.3,-0.5 -2.5,-1 -3.7,-1.4 -1.1,-0.5 -1.9,-1.3 -3,-1.7 -1,-0.3 -2.1,-0.6 -3,-1 -0.8,-0.3 -1.6,-1 -2.4,-1.3 -1,-0.5 -2.1,-0.5 -3,-1 -0.6,-0.3 -1.3,-0.8 -1.7,-1.1 -0.8,-0.5 -1.6,-1 -2.4,-1.4 -0.6,-0.3 -1.3,-0.6 -1.9,-0.8 -0.6,-0.2 -1.3,-0.3 -1.9,-0.5 -0.6,-0.3 -1.3,-0.6 -1.9,-1 -0.5,-0.3 -1.3,-0.5 -1.6,-1.1 -0.2,-0.5 -0.2,-1.1 0,-1.6 0.2,-0.6 0,-1.7 -0.2,-2.2 0,-0.5 0,-0.8 0,-1.3 -0.2,-0.6 0,-1.4 -0.2,-2.1 -0.2,-0.8 -0.3,-1.4 -0.6,-2.4 -0.2,-0.6 0.2,-1.6 0.2,-2.2 0,-0.5 0,-1.1 0,-1.6 0,-0.3 -0.2,-1.1 0,-1.4 0.2,-0.5 0,-1.3 0.2,-1.9 0.3,-1.3 0.2,-3.2 -0.2,-4.3 -0.2,-0.6 0,-1.3 0.2,-1.6 0.2,-0.5 0,-1.4 -0.2,-1.9 -0.2,-0.6 -0.2,-1.3 -0.3,-1.9 v -0.8 c -0.3,-1.7 -0.3,-4.1 0.2,-5.9 0,-0.8 0,-1.4 -0.2,-2.2 0.3,-1.1 0.2,-2.9 0.2,-4.1 0,-0.5 0,-1 0,-1.4 0,-0.3 0,-0.6 0,-1 0.2,-1.1 0.3,-2.2 0.5,-3.2 0.3,-1.3 0,-2.9 0.3,-4.1 0.2,-0.6 0,-1.3 0.3,-1.6 0.2,-0.2 0.3,-0.2 0.5,-0.3 1.1,0 1.7,0.3 2.4,0.6 0.6,0.3 1.3,0.3 1.7,0.6 0.6,0.3 1.3,0.8 1.9,1.1 0.5,0.3 1.1,0.5 1.6,0.8 0.6,0.3 1.3,0.6 1.7,0.8 1,0.3 1.9,0.5 2.9,0.8 1,0.3 1.9,0.6 2.9,1 0.5,0.2 0.8,0.2 1.3,0.3 1.1,0.3 2.5,0.6 3.7,1.1 0.8,0.2 1.4,0.3 2.1,0.5 1.4,0.5 2.7,1.1 4.1,1.7 0.6,0.3 1.1,0.3 1.7,0.6 1.1,0.5 2.2,1.1 3.3,1.6 0.8,0.3 1.6,0.5 2.2,0.6 1,0.3 1.9,0.8 2.9,1.1 0.6,0.3 1.4,0.3 1.9,0.6 0.8,0.3 2.2,0.5 2.5,1.4 0.5,-0.9 0.3,-0.1 0.3,0.4 z m 35,-21.6 c 1.1,-0.6 2.1,-1.6 3,-2.2 0.6,-0.3 1.3,-0.6 1.9,-0.8 0.3,-0.2 0.8,-0.2 1.1,-0.3 0.2,0 0.5,0 0.6,0.2 0.3,0.2 0.5,1.1 0.5,1.7 -0.3,1.1 -0.2,2.7 -0.2,4 v 1.9 c 0.2,0.5 0,1 0.2,1.4 0.3,1.1 0.2,2.4 0.2,3.8 v 2.5 c 0.2,0.8 0.2,1.6 0.3,2.5 v 1.3 c 0.2,0.5 0,1.3 0,1.7 -0.2,0.5 0,0.8 -0.2,1.3 0,0.5 0,1 0,1.6 0,1.3 0.2,2.4 0.2,3.7 0,1 0,2.1 -0.2,2.9 0,0.6 0,1.1 0,1.7 -0.2,0.3 -0.3,1.6 -0.2,2.1 0.2,0.8 0.5,1.4 0.6,2.1 0.2,0.6 0.3,1.4 0.3,2.1 0.2,0.5 -0.2,2.1 -0.2,2.5 0,0.3 0,0.6 0,0.8 -0.2,0.5 0,1 0,1.4 -0.2,0.5 0,1.3 0,1.9 0,1.1 0.2,2.4 0,3.3 -0.2,0.8 0.2,1.6 -0.2,2.4 -0.6,1.4 -2.1,3 -3.2,4 -0.2,0.2 -0.3,0.3 -0.3,0.5 -0.5,0.3 -0.8,0.8 -1.1,1.1 -0.2,0.2 -0.5,0.3 -0.5,0.5 -0.3,0.3 -0.5,0.6 -0.6,1 -0.2,0.3 -0.5,0.5 -0.8,0.8 -0.2,0.2 -0.3,0.3 -0.5,0.5 -0.2,0.2 -0.3,0.3 -0.6,0.5 -0.6,0.6 -1.3,1.4 -2.1,2.1 -1,0.6 -1.9,1.3 -2.9,1.9 -0.5,0.3 -1,0.8 -1.6,1.3 -0.8,0.6 -1.6,1 -2.4,1.6 -0.8,0.6 -1.6,1.6 -2.2,2.4 -0.2,0.2 -0.5,0.5 -0.6,0.6 -0.6,0.5 -1.3,1.1 -2.1,1.6 -0.5,0.3 -0.8,1.1 -1.3,1.4 -0.6,0.5 -1.1,0.8 -1.7,1.3 -0.8,0.5 -1.3,1.3 -2.1,1.7 -0.6,0.5 -1.4,1 -2.2,1.4 -0.3,0.2 -0.8,0.3 -1.1,0.5 -0.5,0.3 -0.8,1 -1.4,1.3 -0.3,0.2 -0.5,0.3 -0.8,0.6 -1.1,0.8 -1.9,1.7 -3.2,2.4 -0.5,0.2 -0.8,0.5 -1.4,0.5 -0.8,-0.8 -0.5,-1.6 -0.8,-2.7 v -1.3 c 0,-0.3 -0.2,-1.1 -0.2,-1.4 0.2,-0.3 0.2,-1.4 0.2,-1.9 -0.2,-0.5 -0.2,-1.4 0,-1.9 0.2,-0.5 0.5,-1.1 0.3,-1.7 -0.2,-0.6 -0.3,-1.4 -0.5,-2.1 -0.2,-0.5 0,-1 -0.2,-1.4 -0.2,-0.6 -0.5,-1.7 -0.3,-2.5 0.3,-1.4 0.8,-2.7 1.1,-4.1 0.2,-0.5 0.5,-1.4 0.3,-2.1 -0.2,-0.8 -0.3,-1.6 -0.5,-2.4 V 779 c -0.2,-0.5 0,-1.1 -0.2,-1.6 -0.2,-0.8 0.2,-1.1 0,-1.7 -0.3,-1.4 -0.8,-2.5 -0.8,-4.4 v -1.4 c 0.2,-0.8 0.3,-1.4 0.5,-2.2 0,-0.8 -0.2,-1.6 -0.2,-2.5 0,-1.6 0,-3.2 -0.3,-4.6 -0.2,-0.6 0,-1.3 -0.2,-1.9 v -0.8 c -0.2,-1 0,-2.9 0.2,-3.5 v -2.7 c 0.2,-0.6 0,-1.3 0.2,-1.9 0.2,-0.8 0.3,-1.7 0.6,-2.4 0.6,-1.1 2.2,-1.3 3.3,-1.9 0.6,-0.3 1.1,-0.8 1.7,-1.1 1,-0.6 1.9,-1.1 2.9,-1.7 0.5,-0.3 0.8,-0.6 1.3,-1 0.5,-0.3 1,-0.5 1.4,-0.8 0.5,-0.3 0.8,-0.8 1.3,-1.1 1.1,-0.8 2.1,-1.4 3.2,-2.2 0.5,-0.3 0.8,-0.8 1.1,-1.1 0.5,-0.5 1.3,-0.6 1.7,-1 0.6,-0.5 1.3,-1 1.9,-1.4 0.5,-0.3 0.8,-0.8 1.1,-1.1 0.5,-0.5 1,-0.8 1.6,-1.3 0.3,-0.2 0.5,-0.5 0.8,-0.8 0.5,-0.3 1.1,-0.5 1.6,-0.8 0.6,-0.5 1.1,-1 1.7,-1.4 1.4,-1 2.2,-1.5 3.2,-2.1 z"
   class="st4" />
			</g>
		</g>
	</g>
<g
   id="Calque_2"
   class="st5"
   style="display:none"
   transform="translate(-474.63529,-620.66702)">
	<text
   transform="translate(234.4399,429.9689)"
   class="st6 st7 st8"
   id="text23"
   style="font-size:170px;font-family:NovaRound;display:inline">ALGORIC</text>


</g>
<g
   id="Calque_3"
   class="st5"
   style="display:none"
   transform="translate(-474.63529,-620.66702)">
	<text
   transform="translate(243.479,429.9689)"
   class="st6 st9 st10 st11"
   id="text26"
   style="font-size:200px;font-family:MedulaOne-Regular;letter-spacing:50;display:inline">ALGORIC</text>


</g>

</svg>