<?xml version="1.0" encoding="UTF-8" standalone="no"?>
<!-- Created with Inkscape (http://www.inkscape.org/) -->

<svg
   xmlns:dc="http://purl.org/dc/elements/1.1/"
   xmlns:cc="http://creativecommons.org/ns#"
   xmlns:rdf="http://www.w3.org/1999/02/22-rdf-syntax-ns#"
   xmlns:svg="http://www.w3.org/2000/svg"
   xmlns="http://www.w3.org/2000/svg"
   xmlns:sodipodi="http://sodipodi.sourceforge.net/DTD/sodipodi-0.dtd"
   xmlns:inkscape="http://www.inkscape.org/namespaces/inkscape"
   version="1.1"
   id="svg2"
   xml:space="preserve"
   width="188.67834"
   height="27.297413"
   viewBox="0 0 188.67834 27.297413"
   sodipodi:docname="BMDLogo.svg"
   inkscape:version="0.92.3 (2405546, 2018-03-11)"><metadata
     id="metadata8"><rdf:RDF><cc:Work
         rdf:about=""><dc:format>image/svg+xml</dc:format><dc:type
           rdf:resource="http://purl.org/dc/dcmitype/StillImage" /><dc:title></dc:title></cc:Work></rdf:RDF></metadata><defs
     id="defs6"><clipPath
       clipPathUnits="userSpaceOnUse"
       id="clipPath20"><path
         d="M 0,0 H 175 V 172 H 0 Z"
         id="path18"
         inkscape:connector-curvature="0" /></clipPath><clipPath
       clipPathUnits="userSpaceOnUse"
       id="clipPath26"><path
         d="M 28,46 H 168 V 69 H 28 Z"
         id="path24"
         inkscape:connector-curvature="0" /></clipPath><clipPath
       clipPathUnits="userSpaceOnUse"
       id="clipPath30"><path
         d="M 28,46 H 168 V 69 H 28 Z"
         id="path28"
         inkscape:connector-curvature="0" /></clipPath></defs><sodipodi:namedview
     pagecolor="#ffffff"
     bordercolor="#666666"
     borderopacity="1"
     objecttolerance="10"
     gridtolerance="10"
     guidetolerance="10"
     inkscape:pageopacity="0"
     inkscape:pageshadow="2"
     inkscape:window-width="1920"
     inkscape:window-height="986"
     id="namedview4"
     showgrid="false"
     inkscape:zoom="2.0776099"
     inkscape:cx="94.339172"
     inkscape:cy="13.648706"
     inkscape:window-x="-11"
     inkscape:window-y="-11"
     inkscape:window-maximized="1"
     inkscape:current-layer="g10" /><g
     id="g10"
     inkscape:groupmode="layer"
     inkscape:label="BMDLogo"
     transform="matrix(1.3333333,0,0,-1.3333333,-37.58712,92.77724)"><g
       id="g12" /><g
       id="g14"><g
         id="g16"
         clip-path="url(#clipPath20)"><g
           id="g22" /><g
           id="g78"><g
             clip-path="url(#clipPath26)"
             id="g76"><g
               id="g32" /><g
               id="g74"><g
                 clip-path="url(#clipPath30)"
                 id="g72"><path
                   d="m 143.102,55.023 c -34.633,-0.011 -67.29,-7.066 -114.977,-1.046 46.715,-7.532 83.93,0.558 122.477,-3.102 0,0 0.484,-0.043 0.75,-0.051 0.14,-0.004 0.281,-0.004 0.472,0 5.141,0.196 11.047,1.141 15.051,2.574 0.055,0.024 0.32,0.11 0.324,0.204 0,0.117 -0.183,0.132 -0.301,0.148 -8.156,0.934 -16.031,1.277 -23.796,1.273 z"
                   style="fill:#747577;fill-opacity:1;fill-rule:nonzero;stroke:none"
                   id="path34"
                   inkscape:connector-curvature="0" /><path
                   d="m 32.086,59.773 h 1.793 c 1.348,0 2.41,0.532 2.41,1.739 0,1.203 -0.805,1.789 -2.293,1.789 h -1.91 z m 0,4.305 h 1.883 c 0.894,0 1.867,0.426 1.867,1.61 0,0.374 -0.195,1.554 -1.957,1.554 h -1.793 z m -0.934,4.02 h 2.739 c 1.515,0 2.957,-0.571 2.957,-2.309 0,-0.996 -0.598,-1.777 -1.621,-2.008 v -0.027 c 1.285,-0.106 2.074,-0.961 2.074,-2.297 0,-0.598 -0.387,-2.539 -3.344,-2.539 h -2.805 z"
                   style="fill:#747577;fill-opacity:1;fill-rule:nonzero;stroke:none"
                   id="path36"
                   inkscape:connector-curvature="0" /><path
                   d="m 43.73,62.418 c 0,1.152 -0.738,1.945 -1.972,1.945 -1.113,0 -2.125,-0.945 -2.125,-1.945 z m -4.125,-0.699 c 0.106,-1.219 1.024,-2.18 2.231,-2.18 0.91,0 1.609,0.504 1.945,1.051 l 0.664,-0.547 c -0.715,-0.906 -1.609,-1.281 -2.609,-1.281 -1.801,0 -3.137,1.359 -3.137,3.187 0,1.832 1.336,3.192 3.059,3.192 1.844,-0.012 2.906,-1.375 2.906,-3.036 v -0.386 z"
                   style="fill:#747577;fill-opacity:1;fill-rule:nonzero;stroke:none"
                   id="path38"
                   inkscape:connector-curvature="0" /><path
                   d="m 47.035,64.984 c 0.039,-0.324 0.039,-0.648 0.039,-0.972 h 0.024 c 0.379,0.664 1.234,1.129 2.039,1.129 1.543,0 2.281,-0.868 2.281,-2.371 v -3.852 h -0.856 v 3.355 c 0,1.352 -0.374,2.09 -1.648,2.09 -0.18,0 -1.84,-0.117 -1.84,-2.336 v -3.109 h -0.855 v 4.73 c 0,0.325 -0.039,0.899 -0.067,1.336 z"
                   style="fill:#747577;fill-opacity:1;fill-rule:nonzero;stroke:none"
                   id="path40"
                   inkscape:connector-curvature="0" /><path
                   d="m 54.047,66.699 c -0.313,0 -0.621,0.258 -0.621,0.621 0,0.364 0.308,0.621 0.621,0.621 0.312,0 0.621,-0.257 0.621,-0.621 0,-0.363 -0.309,-0.621 -0.621,-0.621 m -1.84,-10.027 0.039,-0.012 c 0.141,-0.039 0.309,-0.078 0.453,-0.078 0.844,0 0.922,0.699 0.922,1.27 v 7.132 h 0.856 v -7.273 c 0,-0.352 0.101,-1.906 -1.715,-1.906 -0.231,0 -0.453,0.039 -0.672,0.129 z"
                   style="fill:#747577;fill-opacity:1;fill-rule:nonzero;stroke:none"
                   id="path42"
                   inkscape:connector-curvature="0" /><path
                   d="m 59.984,61.938 c -0.867,0 -2.824,-0.063 -2.824,-1.286 0,-0.8 0.738,-1.113 1.426,-1.113 1.242,0 1.84,0.883 1.84,1.957 v 0.442 z m 0.442,0.699 v 0.156 c 0,1.051 -0.504,1.57 -1.555,1.57 -0.715,0 -1.336,-0.246 -1.855,-0.715 l -0.52,0.61 c 0.559,0.574 1.43,0.883 2.57,0.883 1.192,0 2.215,-0.672 2.215,-2.153 v -2.711 c 0,-0.465 0.055,-1.035 0.106,-1.359 h -0.828 c -0.055,0.297 -0.079,0.66 -0.079,0.984 h -0.027 c -0.492,-0.804 -1.168,-1.14 -2.141,-1.14 -1.078,0 -2.085,0.593 -2.085,1.777 0,1.969 2.32,2.098 3.773,2.098 z"
                   style="fill:#747577;fill-opacity:1;fill-rule:nonzero;stroke:none"
                   id="path44"
                   inkscape:connector-curvature="0" /><path
                   d="m 63.266,63.637 c 0,0.453 -0.039,0.894 -0.067,1.347 h 0.922 v -0.918 h 0.024 c 0.417,0.7 1.234,1.075 1.96,1.075 0.661,0 1.532,-0.219 1.93,-1.258 0.352,0.777 1.184,1.258 2,1.258 1.543,0 2.281,-0.868 2.281,-2.371 v -3.856 h -0.855 v 3.543 c 0,1.231 -0.352,1.906 -1.531,1.906 -1.27,0 -1.711,-1.09 -1.711,-2.218 v -3.231 h -0.856 v 3.543 c 0,1.231 -0.351,1.906 -1.531,1.906 -0.207,0 -1.711,-0.117 -1.711,-2.336 v -3.113 h -0.855 z"
                   style="fill:#747577;fill-opacity:1;fill-rule:nonzero;stroke:none"
                   id="path46"
                   inkscape:connector-curvature="0" /><path
                   d="m 75.359,58.914 h -0.855 v 6.07 h 0.855 z m -0.429,7.785 c -0.309,0 -0.621,0.258 -0.621,0.621 0,0.364 0.312,0.621 0.621,0.621 0.312,0 0.625,-0.257 0.625,-0.621 0,-0.363 -0.313,-0.621 -0.625,-0.621"
                   style="fill:#747577;fill-opacity:1;fill-rule:nonzero;stroke:none"
                   id="path48"
                   inkscape:connector-curvature="0" /><path
                   d="m 78.238,64.984 c 0.039,-0.324 0.039,-0.648 0.039,-0.972 h 0.024 c 0.379,0.664 1.234,1.129 2.039,1.129 1.543,0 2.281,-0.868 2.281,-2.371 v -3.852 h -0.855 v 3.355 c 0,1.352 -0.375,2.09 -1.649,2.09 -0.179,0 -1.84,-0.117 -1.84,-2.336 v -3.109 h -0.855 v 4.73 c 0,0.325 -0.039,0.899 -0.067,1.336 z"
                   style="fill:#747577;fill-opacity:1;fill-rule:nonzero;stroke:none"
                   id="path50"
                   inkscape:connector-curvature="0" /><path
                   d="m 89.465,60.629 3.101,7.469 h 1.426 v -9.184 h -0.933 v 7.941 h -0.028 l -3.32,-7.941 h -0.492 l -3.321,7.941 h -0.027 v -7.941 h -0.93 v 9.184 h 1.426 z"
                   style="fill:#747577;fill-opacity:1;fill-rule:nonzero;stroke:none"
                   id="path52"
                   inkscape:connector-curvature="0" /><path
                   d="m 100.551,58.914 c -0.039,0.324 -0.039,0.648 -0.039,0.977 h -0.028 c -0.375,-0.664 -1.23,-1.129 -2.035,-1.129 -1.543,0 -2.285,0.867 -2.285,2.371 v 3.851 h 0.856 v -3.359 c 0,-1.348 0.378,-2.086 1.648,-2.086 0.184,0 1.844,0.117 1.844,2.332 v 3.113 h 0.855 V 60.25 c 0,-0.32 0.039,-0.895 0.063,-1.336 z"
                   style="fill:#747577;fill-opacity:1;fill-rule:nonzero;stroke:none"
                   id="path54"
                   inkscape:connector-curvature="0" /><path
                   d="m 105.629,59.965 1.855,5.019 h 1.039 l -3.035,-7.652 c -0.363,-0.934 -0.859,-1.527 -1.906,-1.527 -0.262,0 -0.535,0.011 -0.793,0.09 l 0.09,0.828 c 0.195,-0.102 0.418,-0.141 0.648,-0.141 0.598,0 0.911,0.402 1.168,1.09 l 0.442,1.168 -2.492,6.144 h 1.078 z"
                   style="fill:#747577;fill-opacity:1;fill-rule:nonzero;stroke:none"
                   id="path56"
                   inkscape:connector-curvature="0" /><path
                   d="m 109.816,68.723 h 0.855 v -9.809 h -0.855 z"
                   style="fill:#747577;fill-opacity:1;fill-rule:nonzero;stroke:none"
                   id="path58"
                   inkscape:connector-curvature="0" /><path
                   d="m 113.848,59.773 h 1.816 c 2.801,0 4.109,1.84 4.109,3.735 0,1.894 -1.308,3.734 -4.109,3.734 h -1.816 z m -0.934,8.325 h 3.047 c 2.297,0 4.828,-1.532 4.828,-4.59 0,-3.063 -2.531,-4.59 -4.828,-4.59 h -3.047 z"
                   style="fill:#0073ad;fill-opacity:1;fill-rule:nonzero;stroke:none"
                   id="path60"
                   inkscape:connector-curvature="0" /><path
                   d="m 127.059,62.418 c 0,1.152 -0.739,1.945 -1.969,1.945 -1.117,0 -2.129,-0.945 -2.129,-1.945 z m -4.125,-0.699 c 0.105,-1.219 1.027,-2.18 2.23,-2.18 0.91,0 1.609,0.504 1.949,1.051 l 0.66,-0.547 c -0.714,-0.906 -1.609,-1.281 -2.609,-1.281 -1.801,0 -3.137,1.359 -3.137,3.187 0,1.832 1.336,3.192 3.063,3.192 1.84,-0.012 2.902,-1.375 2.902,-3.036 v -0.386 z"
                   style="fill:#0073ad;fill-opacity:1;fill-rule:nonzero;stroke:none"
                   id="path62"
                   inkscape:connector-curvature="0" /><path
                   d="m 132.762,63.547 c -0.258,0.492 -0.688,0.816 -1.309,0.816 -0.598,0 -1.258,-0.258 -1.258,-0.906 0,-0.574 0.403,-0.781 1.192,-0.961 l 0.871,-0.207 c 0.844,-0.195 1.476,-0.805 1.476,-1.66 0,-1.324 -1.179,-1.867 -2.359,-1.867 -0.922,0 -1.766,0.324 -2.336,1.179 l 0.742,0.504 c 0.348,-0.543 0.879,-0.906 1.594,-0.906 0.699,0 1.426,0.313 1.426,1.012 0,0.609 -0.52,0.816 -1.153,0.972 l -0.832,0.196 c -0.414,0.101 -1.554,0.441 -1.554,1.593 0,1.258 1.101,1.829 2.242,1.829 0.844,0 1.637,-0.297 2.023,-1.09 z"
                   style="fill:#0073ad;fill-opacity:1;fill-rule:nonzero;stroke:none"
                   id="path64"
                   inkscape:connector-curvature="0" /><path
                   d="m 136.121,58.914 h -0.859 v 6.07 h 0.859 z m -0.43,7.785 c -0.312,0 -0.621,0.258 -0.621,0.621 0,0.364 0.309,0.621 0.621,0.621 0.313,0 0.621,-0.257 0.621,-0.621 0,-0.363 -0.308,-0.621 -0.621,-0.621"
                   style="fill:#0073ad;fill-opacity:1;fill-rule:nonzero;stroke:none"
                   id="path66"
                   inkscape:connector-curvature="0" /><path
                   d="m 141.059,59.695 c 1.246,0 2.347,0.934 2.296,2.332 0,1.274 -0.871,2.336 -2.296,2.336 -1.27,0 -2.258,-1.062 -2.258,-2.336 0,-1.269 0.988,-2.332 2.258,-2.332 m -2.411,-2 c 0.504,-0.672 1.348,-1.113 2.321,-1.113 1.738,0 2.359,1.074 2.359,2.387 v 1.09 h -0.023 c -0.547,-0.821 -1.391,-1.141 -2.274,-1.141 -1.75,0 -3.16,1.309 -3.16,3.086 0,1.762 1.293,3.137 3.086,3.137 0.727,0 1.645,-0.219 2.348,-1.168 h 0.023 v 1.011 h 0.856 v -6.015 c 0,-1.324 -0.532,-3.164 -3.254,-3.164 -1.207,0 -2.141,0.386 -2.918,1.218 z"
                   style="fill:#0073ad;fill-opacity:1;fill-rule:nonzero;stroke:none"
                   id="path68"
                   inkscape:connector-curvature="0" /><path
                   d="m 146.918,64.984 c 0.039,-0.324 0.039,-0.648 0.039,-0.972 h 0.027 c 0.375,0.664 1.231,1.129 2.036,1.129 1.542,0 2.281,-0.868 2.281,-2.371 v -3.852 h -0.856 v 3.355 c 0,1.352 -0.375,2.09 -1.648,2.09 -0.18,0 -1.84,-0.117 -1.84,-2.336 v -3.109 h -0.855 v 4.73 c 0,0.325 -0.04,0.899 -0.067,1.336 z"
                   style="fill:#0073ad;fill-opacity:1;fill-rule:nonzero;stroke:none"
                   id="path70"
                   inkscape:connector-curvature="0" /></g></g></g></g></g></g></g></svg>