<?xml version="1.0" encoding="UTF-8" standalone="no"?>
<!-- Created with Inkscape (http://www.inkscape.org/) -->

<svg
   xmlns:dc="http://purl.org/dc/elements/1.1/"
   xmlns:cc="http://creativecommons.org/ns#"
   xmlns:rdf="http://www.w3.org/1999/02/22-rdf-syntax-ns#"
   xmlns:svg="http://www.w3.org/2000/svg"
   xmlns="http://www.w3.org/2000/svg"
   xmlns:sodipodi="http://sodipodi.sourceforge.net/DTD/sodipodi-0.dtd"
   xmlns:inkscape="http://www.inkscape.org/namespaces/inkscape"
   width="27.672922mm"
   height="21.288887mm"
   viewBox="0 0 27.672922 21.288887"
   version="1.1"
   id="svg853"
   inkscape:version="0.92.3 (2405546, 2018-03-11)"
   sodipodi:docname="sphenisc_logo.svg">
  <defs
     id="defs847" />
  <sodipodi:namedview
     id="base"
     pagecolor="#ffffff"
     bordercolor="#666666"
     borderopacity="1.0"
     inkscape:pageopacity="0.0"
     inkscape:pageshadow="2"
     inkscape:zoom="3.8702899"
     inkscape:cx="104.28571"
     inkscape:cy="7.1428571"
     inkscape:document-units="mm"
     inkscape:current-layer="layer1"
     showgrid="false"
     fit-margin-top="0"
     fit-margin-left="0"
     fit-margin-right="0"
     fit-margin-bottom="0"
     inkscape:window-width="1920"
     inkscape:window-height="986"
     inkscape:window-x="-11"
     inkscape:window-y="-11"
     inkscape:window-maximized="1" />
  <metadata
     id="metadata850">
    <rdf:RDF>
      <cc:Work
         rdf:about="">
        <dc:format>image/svg+xml</dc:format>
        <dc:type
           rdf:resource="http://purl.org/dc/dcmitype/StillImage" />
        <dc:title></dc:title>
      </cc:Work>
    </rdf:RDF>
  </metadata>
  <g
     inkscape:label="Layer 1"
     inkscape:groupmode="layer"
     id="layer1"
     transform="translate(-12.621873,-98.123414)">
    <g
       id="g1057"
       transform="translate(-10.388855,-1.4071505)"
       inkscape:export-xdpi="357.93323"
       inkscape:export-ydpi="357.93323">
      <path
         sodipodi:nodetypes="ccccccccsccccccccccscccscccccccccccsccccccccccccccscsccccscsccccccccsccccccccccccsccccssscsscssscsssscscscccccsscccsccccccscccccccccccccscccccscc"
         inkscape:connector-curvature="0"
         id="path941"
         d="m 38.358591,120.62665 c -0.07664,-0.0974 -0.124625,-0.23952 -0.124008,-0.36723 0.0013,-0.29173 0.154206,-0.98191 0.240379,-1.08575 0.03949,-0.0476 0.07664,-0.16782 0.08254,-0.26718 0.0062,-0.0993 0.06264,-0.41401 0.126074,-0.69924 0.153942,-0.6921 0.209685,-1.29788 0.196185,-2.13196 -0.01211,-0.74705 -0.06462,-1.12377 -0.212278,-1.52233 -0.193769,-0.52304 -0.376253,-1.23531 -0.375593,-1.46598 4.16e-4,-0.13114 0.03833,-0.37985 0.08431,-0.55268 0.04598,-0.17283 0.07336,-0.3245 0.06084,-0.33705 -0.01253,-0.0125 -0.523701,0.14716 -1.135888,0.35491 -1.890967,0.64172 -4.486457,1.20169 -5.785446,1.32633 -2.167039,0.20287 0.437026,-0.18419 1.27264,-0.3687 0.945126,-0.20868 1.493362,-0.30574 1.694115,-0.47466 0.101059,-0.085 0.28366,-0.16027 0.448289,-0.18468 0.300114,-0.0445 1.452338,-0.42568 1.746239,-0.57767 0.09924,-0.0514 0.371894,-0.14229 0.605888,-0.20212 0.471242,-0.12053 0.74109,-0.2416 0.936334,-0.42014 0.165277,-0.15112 0.173789,-0.29837 0.01443,-0.24922 -0.553069,0.17051 -0.417218,0.0538 0.259294,-0.22274 0.285219,-0.11659 0.543219,-0.23583 0.573324,-0.26497 0.114684,-0.11098 -0.392412,-0.0483 -0.742532,0.0917 -0.198949,0.0796 -0.501557,0.18617 -0.672465,0.23684 -0.575856,0.17073 -0.915754,0.31771 -0.915754,0.39601 0,0.0428 -0.08868,0.10708 -0.197065,0.14285 -0.108386,0.0358 -0.227239,0.10136 -0.26412,0.14584 -0.03687,0.0445 -0.213977,0.1219 -0.393549,0.17215 -0.509976,0.14272 -1.182032,0.41317 -1.997488,0.80387 -0.91294,0.4374 -0.951974,0.45164 -1.670998,0.60963 -0.316914,0.0696 -0.808095,0.21668 -1.09151,0.32675 -0.417762,0.16226 -0.970249,0.30347 -1.194798,0.30539 -0.02152,1.7e-4 -0.07463,0.0359 -0.118058,0.0793 -0.132334,0.13234 -0.405558,0.2528 -0.796136,0.351 -0.543114,0.13655 -1.229678,0.38816 -1.279344,0.46884 -0.09675,0.15717 -1.72713,1.14999 -2.316896,1.41086 -0.292544,0.1294 -1.009308,0.34089 -1.155348,0.34089 -0.07371,0 -0.06779,-0.0403 0.03581,-0.24332 0.06827,-0.13384 0.126764,-0.34361 0.129978,-0.46616 0.0049,-0.18673 -0.02842,-0.25424 -0.205583,-0.4166 -0.221779,-0.20324 -0.765043,-0.40214 -0.927805,-0.33968 -0.16149,0.062 -0.220192,-0.0247 -0.13145,-0.1941 0.138193,-0.26378 0.455333,-0.52468 1.229143,-1.01121 0.134689,-0.0847 0.24422,-0.17305 0.243401,-0.19637 -8.55e-4,-0.0234 -0.111016,-0.0928 -0.244887,-0.15436 -0.13387,-0.0615 -0.274912,-0.13935 -0.313428,-0.17285 -0.03852,-0.0335 -0.107875,-0.0926 -0.154135,-0.13117 -0.05743,-0.048 -0.201735,-0.0592 -0.454881,-0.0357 -0.203924,0.019 -0.385314,0.011 -0.403088,-0.0176 -0.01778,-0.0288 0.08235,-0.19037 0.222498,-0.35914 0.263565,-0.31738 0.826327,-0.72071 1.173136,-0.84079 0.293093,-0.10146 0.292395,-0.20345 -0.0014,-0.20345 -0.358672,0 -0.251531,-0.0488 0.327985,-0.14962 0.649717,-0.11294 0.866264,-0.21017 1.561575,-0.70116 1.278537,-0.90283 2.475333,-1.73804 3.057308,-2.13362 1.372505,-0.93293 3.852767,-2.26967 5.907201,-3.1837 0.765065,-0.34038 1.397591,-0.64108 1.405614,-0.66822 0.008,-0.0272 -0.142442,-0.13934 -0.334365,-0.24931 -0.401609,-0.23016 -0.435463,-0.28447 -0.748953,-1.20156 -0.385638,-1.12815 -0.866522,-1.71318 -1.827826,-2.22369 -0.558296,-0.29649 -0.988745,-0.62581 -0.988745,-0.75644 0,-0.17334 0.376058,-0.49674 0.851733,-0.73247 0.483757,-0.239742 0.507089,-0.245002 1.175495,-0.265082 1.550402,-0.0466 2.401192,0.462982 3.737459,2.238482 l 0.66001,0.87696 0.503904,0.25361 c 0.277149,0.13948 0.77939,0.34677 1.116096,0.46062 1.108416,0.37483 1.664701,0.24749 2.825148,-0.64673 0.816063,-0.62885 1.119227,-0.8266 1.86431,-1.21611 0.671041,-0.35079 2.143921,-0.93798 2.352799,-0.93798 0.116957,0 0.545914,-0.22811 1.104436,-0.5873 0.732568,-0.471118 1.356578,-0.702298 1.548556,-0.573678 0.129859,0.087 0.09039,0.336956 -0.08643,0.547528 -0.09111,0.10851 -0.442029,0.52596 -0.779805,0.92768 -0.544343,0.64739 -0.675131,0.84952 -1.15061,1.77825 -0.650968,1.27151 -1.035652,1.85626 -1.693865,2.57479 -0.557892,0.60902 -0.801541,0.95374 -0.790041,1.11774 0.01094,0.15572 -0.101918,0.35177 -0.467714,0.81255 -0.376931,0.47482 -0.702045,0.8021 -0.899367,0.90536 -0.357274,0.18695 -1.996191,1.94134 -2.238819,2.39656 -0.449048,0.8425 -0.49831,1.20636 -0.407204,3.00754 0.101664,2.00982 -0.0037,3.04458 -0.445415,4.37917 -0.404157,1.2208 -0.994387,1.98041 -1.879638,2.41907 -0.372578,0.18462 -0.581755,0.25089 -0.863208,0.27349 -0.353061,0.0283 -0.377665,0.022 -0.496482,-0.12911 z m -12.369393,-4.58017 c 0.01959,-0.0316 0.0082,-0.0576 -0.02541,-0.0576 -0.03356,0 -0.06102,0.0259 -0.06102,0.0576 0,0.0316 0.01143,0.0576 0.02541,0.0576 0.01398,0 0.04143,-0.0259 0.06102,-0.0576 z m 1.354086,-0.80669 c 0,-0.0316 -0.01143,-0.0576 -0.02544,-0.0576 -0.014,0 -0.04145,0.0259 -0.06102,0.0576 -0.01956,0.0316 -0.0082,0.0576 0.02544,0.0576 0.03357,0 0.06102,-0.0259 0.06102,-0.0576 z m 0.576204,-0.46802 c 0,-0.10221 -0.01424,-0.1105 -0.08643,-0.0505 -0.0475,0.0395 -0.08643,0.0945 -0.08643,0.1223 0,0.0278 0.03889,0.0505 0.08643,0.0505 0.04965,0 0.08643,-0.052 0.08643,-0.12229 z m 0.777879,-0.33867 c 0.01957,-0.0316 0.0097,-0.0576 -0.02201,-0.0576 -0.03167,0 -0.07364,0.0259 -0.09323,0.0576 -0.01956,0.0316 -0.0097,0.0576 0.02201,0.0576 0.03167,0 0.07365,-0.0259 0.09324,-0.0576 z m -3.053893,-2.33015 c 0.310182,-0.0884 0.299624,-0.10706 -0.05129,-0.0905 -0.183366,0.008 -0.217773,-0.006 -0.189075,-0.0809 0.01929,-0.0503 0.01347,-0.0914 -0.01296,-0.0914 -0.09416,0 -0.351686,0.24041 -0.351686,0.32831 0,0.0968 0.05748,0.0905 0.605016,-0.0655 z m 19.850303,-5.44863 c 0.03393,-0.0634 0.09565,-0.11524 0.137152,-0.11524 0.04152,0 0.122779,-0.0523 0.180595,-0.11616 0.101759,-0.11244 0.101738,-0.11864 -4.34e-4,-0.19334 -0.13678,-0.1 -0.08216,-0.24193 0.142288,-0.36965 0.09542,-0.0543 0.17366,-0.14093 0.173862,-0.19251 1.71e-4,-0.0516 0.04011,-0.12678 0.08872,-0.16711 0.04861,-0.0403 0.07916,-0.10093 0.06793,-0.13455 -0.01125,-0.0337 0.125951,-0.16899 0.304838,-0.30068 0.449587,-0.33097 0.513119,-0.42722 0.798375,-1.20959 0.200801,-0.55075 0.291241,-0.72307 0.455437,-0.86777 0.157464,-0.13878 0.227214,-0.26546 0.301397,-0.5474 0.05307,-0.20176 0.117515,-0.43147 0.143193,-0.51044 0.04183,-0.12871 0.03687,-0.13544 -0.04806,-0.0649 -0.09664,0.0802 -0.115937,0.0559 -0.09776,-0.12275 0.02635,-0.259 -0.298891,-0.0185 -0.487078,0.36012 -0.05515,0.11093 -0.248577,0.37022 -0.429898,0.57621 -0.335667,0.38135 -0.714794,1.02091 -0.89532,1.51033 -0.123273,0.33423 -0.397309,0.66189 -0.728795,0.87142 -0.288202,0.18216 -0.664309,0.72441 -0.691021,0.99626 -0.0098,0.099 0.017,0.22187 0.05943,0.27297 0.04243,0.0512 0.06204,0.13212 0.04365,0.18006 -0.02403,0.0626 0.0049,0.0871 0.10263,0.0871 0.07484,0 0.151007,0.0388 0.169245,0.0864 0.04617,0.12027 0.136517,0.10785 0.209649,-0.0288 z m 3.130195,-5.03617 c 0.03601,-0.0938 -0.01235,-0.16039 -0.08433,-0.11592 -0.06546,0.0404 -0.06396,0.19671 0.0018,0.19671 0.0283,0 0.06541,-0.0364 0.08246,-0.0808 z"
         style="fill:#000000;stroke:#ffe9ff;stroke-width:0.1;stroke-miterlimit:4;stroke-dasharray:none;stroke-opacity:1" />
      <path
         transform="matrix(0.26458333,0,0,0.26458333,16.285045,76.894113)"
         inkscape:connector-curvature="0"
         id="path975"
         d="m 109.78843,112.83706 c -0.038,-0.0266 -0.10316,-0.11576 -0.14493,-0.19819 -0.0418,-0.0824 -0.12117,-0.18402 -0.17644,-0.22577 -0.12607,-0.0952 -0.38981,-0.17418 -0.58178,-0.17418 -0.16117,0 -0.29123,-0.0462 -0.31669,-0.1126 -0.009,-0.0235 -9.6e-4,-0.10953 0.0179,-0.19122 0.0491,-0.21274 0.0108,-0.39743 -0.13126,-0.63298 -0.36584,-0.60657 -0.35207,-1.15834 0.0502,-2.0116 0.40155,-0.85175 1.20229,-1.92198 1.85492,-2.47919 0.13275,-0.11334 0.38554,-0.30388 0.56175,-0.42341 0.81641,-0.55382 1.48173,-1.21486 1.99628,-1.98342 0.27798,-0.41521 0.4789,-0.81618 0.7404,-1.47761 0.26236,-0.66359 0.87159,-1.89952 1.28222,-2.60121 0.64924,-1.109407 1.3466,-2.095971 2.12156,-3.001397 0.74395,-0.869197 1.25768,-1.580344 1.63993,-2.270127 0.55007,-0.992612 1.37753,-1.741835 1.62321,-1.46973 0.056,0.06206 0.0605,0.103619 0.0514,0.475673 -0.0141,0.574247 0.0402,0.612978 0.43069,0.30707 0.0959,-0.07515 0.18797,-0.136635 0.20454,-0.136635 0.0382,0 0.0236,0.06064 -0.18853,0.784981 -0.0942,0.321688 -0.24871,0.872093 -0.34333,1.223121 -0.38094,1.413324 -0.53523,1.711423 -1.24249,2.400588 -0.65589,0.639109 -0.939,1.187359 -1.74517,3.379556 -1.02466,2.78634 -1.26799,3.15568 -2.89329,4.39157 -0.89691,0.68201 -1.27232,1.05929 -1.22689,1.233 0.0239,0.0915 -0.0955,0.30318 -0.26909,0.47676 -0.17353,0.17353 -0.29388,0.39076 -0.32348,0.58385 -0.0112,0.0734 -0.0386,0.16954 -0.0609,0.21373 -0.0739,0.14684 -0.31307,0.36225 -0.62899,0.5666 -0.49856,0.3225 -0.73501,0.57835 -0.78441,0.84877 -0.0328,0.17964 0.0489,0.32483 0.32932,0.585 l 0.25187,0.23371 -0.0428,0.10491 c -0.0236,0.0577 -0.1612,0.22276 -0.30589,0.36679 -0.26218,0.26099 -0.40776,0.3505 -0.69404,0.42674 -0.15094,0.0402 -0.32287,0.20259 -0.48318,0.45635 -0.21541,0.34099 -0.403,0.44927 -0.57257,0.3305 z"
         style="fill:#ffffff;fill-opacity:1;stroke-width:0.03078357" />
      <path
         transform="matrix(0.26458333,0,0,0.26458333,16.285045,76.894113)"
         inkscape:connector-curvature="0"
         id="path977"
         d="m 121.7972,93.656313 c -0.0679,-0.103676 -0.0672,-0.361785 10e-4,-0.494438 0.0995,-0.192385 0.31005,-0.257726 0.40298,-0.125051 0.10462,0.14937 0.0208,0.498025 -0.15246,0.634329 -0.11275,0.08869 -0.18694,0.08432 -0.25191,-0.01484 z"
         style="fill:#ffffff;fill-opacity:1;stroke-width:0.03078357" />
      <path
         transform="matrix(0.26458333,0,0,0.26458333,16.285045,76.894113)"
         inkscape:connector-curvature="0"
         id="path979"
         d="m 56.722756,139.4229 c 0,-0.0187 0.888417,-0.30651 1.569962,-0.50867 0.656127,-0.19461 1.393691,-0.38257 2.308767,-0.58836 1.621691,-0.3647 2.328004,-0.57951 3.324626,-1.01115 0.559724,-0.24241 0.912168,-0.4062 2.693562,-1.25171 3.064625,-1.45459 5.205247,-2.32251 7.205923,-2.92168 1.013438,-0.3035 1.486024,-0.50224 1.741248,-0.73227 0.195362,-0.17607 0.505265,-0.35301 0.857587,-0.48964 0.568666,-0.22052 0.836851,-0.39843 0.87714,-0.58186 0.07296,-0.33219 1.061713,-0.76158 3.509327,-1.52401 0.627921,-0.19559 1.432992,-0.47483 2.062499,-0.71538 0.287827,-0.10998 0.703835,-0.25925 0.924464,-0.33171 1.109303,-0.36432 2.436324,-0.51138 2.339577,-0.25926 -0.042,0.10944 -0.62066,0.38797 -2.140441,1.03026 -1.742074,0.73624 -2.339551,1.02877 -2.339551,1.14545 0,0.0867 0.440807,0.0109 1.105938,-0.19038 0.343938,-0.10406 0.507219,-0.10435 0.57492,-10e-4 0.153471,0.23423 -0.259273,0.77693 -0.951428,1.25099 -0.66827,0.45771 -1.508727,0.78812 -3.079866,1.2108 -0.353072,0.095 -0.879471,0.2499 -1.169776,0.34426 -0.492934,0.16022 -0.734561,0.25667 -1.512901,0.60387 -0.470897,0.21005 -1.55468,0.608 -2.662779,0.97772 -1.628555,0.54338 -2.781591,0.87461 -3.524719,1.01254 -0.631052,0.11713 -1.169724,0.33416 -1.599224,0.64434 -0.339306,0.24504 -0.472904,0.31865 -0.848069,0.46728 -0.654702,0.25936 -1.34925,0.43761 -3.832555,0.98358 -2.471476,0.54336 -2.893351,0.62708 -5.741135,1.13923 -0.855014,0.15376 -1.585739,0.28736 -1.623833,0.29689 -0.0381,0.01 -0.06926,0.009 -0.06926,-1e-4 z"
         style="fill:#ffffff;fill-opacity:1;stroke-width:0.03078357" />
      <path
         transform="matrix(0.26458333,0,0,0.26458333,16.285045,76.894113)"
         inkscape:connector-curvature="0"
         id="path981"
         d="m 33.215947,133.53261 c -0.07191,-0.0257 -0.123163,-0.10594 -0.122846,-0.19231 0.0011,-0.30694 0.892963,-1.17527 1.257277,-1.22413 l 0.127695,-0.0171 v 0.12259 c 0,0.0674 -0.01529,0.16647 -0.03398,0.22008 -0.01869,0.0536 -0.02548,0.13138 -0.01508,0.1728 0.03205,0.12769 0.187716,0.14725 0.973649,0.12234 0.789392,-0.025 0.911776,-0.005 0.640684,0.10445 -0.31756,0.12828 -1.728558,0.52442 -2.273288,0.63822 -0.352376,0.0736 -0.466151,0.0845 -0.554104,0.0531 z"
         style="fill:#ffffff;fill-opacity:1;stroke-width:0.03078357" />
      <path
         transform="matrix(0.26458333,0,0,0.26458333,16.285045,76.894113)"
         inkscape:connector-curvature="0"
         id="path983"
         d="m 46.481705,142.04697 c -0.104479,-0.12589 0.246596,-0.4349 0.400515,-0.35252 0.03476,0.0186 0.0632,0.0531 0.0632,0.0765 0,0.0695 -0.158508,0.23722 -0.26693,0.28252 -0.127714,0.0534 -0.147612,0.0527 -0.196783,-0.007 z"
         style="fill:#ffffff;fill-opacity:1;stroke-width:0.03078357" />
      <path
         transform="matrix(0.26458333,0,0,0.26458333,16.285045,76.894113)"
         inkscape:connector-curvature="0"
         id="path985"
         d="m 43.428396,143.55551 c -0.113076,-0.0613 -0.110059,-0.16525 0.0099,-0.33955 0.08983,-0.13056 0.373047,-0.38165 0.430489,-0.38165 0.05218,0 0.09066,0.12089 0.08999,0.28273 -7.72e-4,0.18693 -0.08659,0.40393 -0.179385,0.45359 -0.08676,0.0464 -0.250492,0.0394 -0.350955,-0.0151 z"
         style="fill:#ffffff;fill-opacity:1;stroke-width:0.03078357" />
      <path
         transform="matrix(0.26458333,0,0,0.26458333,16.285045,76.894113)"
         inkscape:connector-curvature="0"
         id="path987"
         d="m 41.486274,145.09745 c -0.06228,-0.0623 -0.03266,-0.1524 0.09438,-0.2871 0.102224,-0.10839 0.10805,-0.11047 0.149743,-0.0534 0.07227,0.0988 0.05461,0.24975 -0.03773,0.32238 -0.09613,0.0756 -0.144673,0.0799 -0.206394,0.0182 z"
         style="fill:#ffffff;fill-opacity:1;stroke-width:0.03078357" />
      <path
         transform="matrix(0.26458333,0,0,0.26458333,16.285045,76.894113)"
         inkscape:connector-curvature="0"
         id="path989"
         d="m 36.385892,148.11169 c -0.0598,-0.15727 -0.01871,-0.2669 0.117884,-0.31451 0.105946,-0.0369 0.190714,0.002 0.190714,0.0871 0,0.0615 -0.200342,0.30639 -0.250613,0.30639 -0.01538,0 -0.04147,-0.0355 -0.05799,-0.079 z"
         style="fill:#ffffff;fill-opacity:1;stroke-width:0.03078357" />
    </g>
  </g>
</svg>
