<?xml version="1.0" encoding="UTF-8" standalone="no"?>
<svg
   width="858"
   height="274"
   overflow="hidden"
   version="1.1"
   id="svg193"
   sodipodi:docname="K8S_o_SysAdmin_o_BM.svg"
   inkscape:version="1.2.2 (b0a8486541, 2022-12-01)"
   xmlns:inkscape="http://www.inkscape.org/namespaces/inkscape"
   xmlns:sodipodi="http://sodipodi.sourceforge.net/DTD/sodipodi-0.dtd"
   xmlns="http://www.w3.org/2000/svg"
   xmlns:svg="http://www.w3.org/2000/svg">
  <sodipodi:namedview
     id="namedview195"
     pagecolor="#ffffff"
     bordercolor="#666666"
     borderopacity="1.0"
     inkscape:pageshadow="2"
     inkscape:pageopacity="0.0"
     inkscape:pagecheckerboard="0"
     showgrid="false"
     inkscape:zoom="0.97764765"
     inkscape:cx="679.1813"
     inkscape:cy="112.51497"
     inkscape:window-width="1920"
     inkscape:window-height="1176"
     inkscape:window-x="1920"
     inkscape:window-y="0"
     inkscape:window-maximized="1"
     inkscape:current-layer="svg193"
     inkscape:showpageshadow="2"
     inkscape:deskcolor="#d1d1d1" />
  <defs
     id="defs23">
    <clipPath
       id="clip1">
      <rect
         x="541"
         y="377"
         width="60"
         height="67"
         id="rect5" />
    </clipPath>
    <clipPath
       id="clip2">
      <rect
         x="541"
         y="377"
         width="60"
         height="67"
         id="rect8" />
    </clipPath>
    <clipPath
       id="clip3">
      <rect
         x="541"
         y="377"
         width="60"
         height="67"
         id="rect11" />
    </clipPath>
    <clipPath
       id="clip4">
      <rect
         x="522"
         y="266"
         width="311"
         height="55"
         id="rect14" />
    </clipPath>
    <clipPath
       id="clip5">
      <rect
         x="522"
         y="266"
         width="311"
         height="55"
         id="rect17" />
    </clipPath>
    <clipPath
       id="clip6">
      <rect
         x="522"
         y="266"
         width="311"
         height="55"
         id="rect20" />
    </clipPath>
    <clipPath
       clipPathUnits="userSpaceOnUse"
       id="clipPath461">
      <g
         id="g465">
        <rect
           x="0"
           y="0"
           width="858"
           height="274"
           id="rect463" />
      </g>
    </clipPath>
    <clipPath
       clipPathUnits="userSpaceOnUse"
       id="clipPath467">
      <g
         id="g471">
        <rect
           x="0"
           y="0"
           width="858"
           height="274"
           id="rect469" />
      </g>
    </clipPath>
    <clipPath
       clipPathUnits="userSpaceOnUse"
       id="clipPath473">
      <g
         id="g477"
         transform="translate(248,251)">
        <rect
           x="0"
           y="0"
           width="858"
           height="274"
           id="rect475" />
      </g>
    </clipPath>
    <clipPath
       clipPathUnits="userSpaceOnUse"
       id="clipPath479">
      <g
         id="g483"
         transform="translate(248,251)">
        <rect
           x="0"
           y="0"
           width="858"
           height="274"
           id="rect481" />
      </g>
    </clipPath>
    <clipPath
       clipPathUnits="userSpaceOnUse"
       id="clipPath485">
      <g
         id="g489">
        <rect
           x="0"
           y="0"
           width="858"
           height="274"
           id="rect487" />
      </g>
    </clipPath>
    <clipPath
       clipPathUnits="userSpaceOnUse"
       id="clipPath491">
      <g
         id="g495"
         transform="translate(-361.51,-165)">
        <rect
           x="0"
           y="0"
           width="858"
           height="274"
           id="rect493" />
      </g>
    </clipPath>
    <clipPath
       clipPathUnits="userSpaceOnUse"
       id="clipPath497">
      <g
         id="g501">
        <rect
           x="0"
           y="0"
           width="858"
           height="274"
           id="rect499" />
      </g>
    </clipPath>
    <clipPath
       clipPathUnits="userSpaceOnUse"
       id="clipPath503">
      <g
         id="g507">
        <rect
           x="0"
           y="0"
           width="858"
           height="274"
           id="rect505" />
      </g>
    </clipPath>
    <clipPath
       clipPathUnits="userSpaceOnUse"
       id="clipPath509">
      <g
         id="g513">
        <rect
           x="0"
           y="0"
           width="858"
           height="274"
           id="rect511" />
      </g>
    </clipPath>
    <clipPath
       clipPathUnits="userSpaceOnUse"
       id="clipPath515">
      <g
         id="g519"
         transform="translate(248,251)">
        <rect
           x="0"
           y="0"
           width="858"
           height="274"
           id="rect517" />
      </g>
    </clipPath>
    <clipPath
       clipPathUnits="userSpaceOnUse"
       id="clipPath521">
      <g
         id="g525"
         transform="translate(248,251)">
        <rect
           x="0"
           y="0"
           width="858"
           height="274"
           id="rect523" />
      </g>
    </clipPath>
    <clipPath
       clipPathUnits="userSpaceOnUse"
       id="clipPath527">
      <g
         id="g531"
         transform="translate(248,251)">
        <rect
           x="0"
           y="0"
           width="858"
           height="274"
           id="rect529" />
      </g>
    </clipPath>
    <clipPath
       clipPathUnits="userSpaceOnUse"
       id="clipPath533">
      <g
         id="g537">
        <rect
           x="0"
           y="0"
           width="858"
           height="274"
           id="rect535" />
      </g>
    </clipPath>
    <clipPath
       clipPathUnits="userSpaceOnUse"
       id="clipPath539">
      <g
         id="g543">
        <rect
           x="0"
           y="0"
           width="858"
           height="274"
           id="rect541" />
      </g>
    </clipPath>
    <clipPath
       clipPathUnits="userSpaceOnUse"
       id="clipPath545">
      <g
         id="g549">
        <rect
           x="0"
           y="0"
           width="858"
           height="274"
           id="rect547" />
      </g>
    </clipPath>
    <clipPath
       clipPathUnits="userSpaceOnUse"
       id="clipPath551">
      <g
         id="g555">
        <rect
           x="0"
           y="0"
           width="858"
           height="274"
           id="rect553" />
      </g>
    </clipPath>
    <clipPath
       clipPathUnits="userSpaceOnUse"
       id="clipPath557">
      <g
         id="g561">
        <rect
           x="0"
           y="0"
           width="858"
           height="274"
           id="rect559" />
      </g>
    </clipPath>
    <clipPath
       clipPathUnits="userSpaceOnUse"
       id="clipPath563">
      <g
         id="g567">
        <rect
           x="0"
           y="0"
           width="858"
           height="274"
           id="rect565" />
      </g>
    </clipPath>
    <clipPath
       clipPathUnits="userSpaceOnUse"
       id="clipPath569">
      <g
         id="g573">
        <rect
           x="0"
           y="0"
           width="858"
           height="274"
           id="rect571" />
      </g>
    </clipPath>
    <clipPath
       clipPathUnits="userSpaceOnUse"
       id="clipPath575">
      <g
         id="g579">
        <rect
           x="0"
           y="0"
           width="858"
           height="274"
           id="rect577" />
      </g>
    </clipPath>
    <clipPath
       clipPathUnits="userSpaceOnUse"
       id="clipPath581">
      <g
         id="g585">
        <rect
           x="0"
           y="0"
           width="858"
           height="274"
           id="rect583" />
      </g>
    </clipPath>
    <clipPath
       clipPathUnits="userSpaceOnUse"
       id="clipPath587">
      <g
         id="g591"
         transform="translate(248,251)">
        <rect
           x="0"
           y="0"
           width="858"
           height="274"
           id="rect589" />
      </g>
    </clipPath>
    <clipPath
       clipPathUnits="userSpaceOnUse"
       id="clipPath593">
      <g
         id="g597"
         transform="translate(248,251)">
        <rect
           x="0"
           y="0"
           width="858"
           height="274"
           id="rect595" />
      </g>
    </clipPath>
    <clipPath
       clipPathUnits="userSpaceOnUse"
       id="clipPath599">
      <g
         id="g603"
         transform="translate(248,251)">
        <rect
           x="0"
           y="0"
           width="858"
           height="274"
           id="rect601" />
      </g>
    </clipPath>
    <clipPath
       clipPathUnits="userSpaceOnUse"
       id="clipPath605">
      <g
         id="g609">
        <rect
           x="0"
           y="0"
           width="858"
           height="274"
           id="rect607" />
      </g>
    </clipPath>
    <clipPath
       clipPathUnits="userSpaceOnUse"
       id="clipPath611">
      <g
         id="g615">
        <rect
           x="0"
           y="0"
           width="858"
           height="274"
           id="rect613" />
      </g>
    </clipPath>
    <clipPath
       clipPathUnits="userSpaceOnUse"
       id="clipPath617">
      <g
         id="g621">
        <rect
           x="0"
           y="0"
           width="858"
           height="274"
           id="rect619" />
      </g>
    </clipPath>
    <clipPath
       clipPathUnits="userSpaceOnUse"
       id="clipPath623">
      <g
         id="g627">
        <rect
           x="0"
           y="0"
           width="858"
           height="274"
           id="rect625" />
      </g>
    </clipPath>
    <clipPath
       clipPathUnits="userSpaceOnUse"
       id="clipPath629">
      <g
         id="g633">
        <rect
           x="0"
           y="0"
           width="858"
           height="274"
           id="rect631" />
      </g>
    </clipPath>
    <clipPath
       clipPathUnits="userSpaceOnUse"
       id="clipPath635">
      <g
         id="g639">
        <rect
           x="0"
           y="0"
           width="858"
           height="274"
           id="rect637" />
      </g>
    </clipPath>
    <clipPath
       clipPathUnits="userSpaceOnUse"
       id="clipPath641">
      <g
         id="g645">
        <rect
           x="0"
           y="0"
           width="858"
           height="274"
           id="rect643" />
      </g>
    </clipPath>
    <clipPath
       clipPathUnits="userSpaceOnUse"
       id="clipPath647">
      <g
         id="g651">
        <rect
           x="0"
           y="0"
           width="858"
           height="274"
           id="rect649" />
      </g>
    </clipPath>
    <clipPath
       clipPathUnits="userSpaceOnUse"
       id="clipPath653">
      <g
         id="g657">
        <rect
           x="0"
           y="0"
           width="858"
           height="274"
           id="rect655" />
      </g>
    </clipPath>
    <clipPath
       clipPathUnits="userSpaceOnUse"
       id="clipPath659">
      <g
         id="g663"
         transform="translate(248,251)">
        <rect
           x="0"
           y="0"
           width="858"
           height="274"
           id="rect661" />
      </g>
    </clipPath>
    <clipPath
       clipPathUnits="userSpaceOnUse"
       id="clipPath665">
      <g
         id="g669"
         transform="translate(248,251)">
        <rect
           x="0"
           y="0"
           width="858"
           height="274"
           id="rect667" />
      </g>
    </clipPath>
    <clipPath
       clipPathUnits="userSpaceOnUse"
       id="clipPath671">
      <g
         id="g675"
         transform="translate(248,251)">
        <rect
           x="0"
           y="0"
           width="858"
           height="274"
           id="rect673" />
      </g>
    </clipPath>
    <clipPath
       clipPathUnits="userSpaceOnUse"
       id="clipPath677">
      <g
         id="g681">
        <rect
           x="0"
           y="0"
           width="858"
           height="274"
           id="rect679" />
      </g>
    </clipPath>
    <clipPath
       clipPathUnits="userSpaceOnUse"
       id="clipPath683">
      <g
         id="g687">
        <rect
           x="0"
           y="0"
           width="858"
           height="274"
           id="rect685" />
      </g>
    </clipPath>
    <clipPath
       clipPathUnits="userSpaceOnUse"
       id="clipPath689">
      <g
         id="g693">
        <rect
           x="0"
           y="0"
           width="858"
           height="274"
           id="rect691" />
      </g>
    </clipPath>
    <clipPath
       clipPathUnits="userSpaceOnUse"
       id="clipPath695">
      <g
         id="g699">
        <rect
           x="0"
           y="0"
           width="858"
           height="274"
           id="rect697" />
      </g>
    </clipPath>
    <clipPath
       clipPathUnits="userSpaceOnUse"
       id="clipPath701">
      <g
         id="g705">
        <rect
           x="0"
           y="0"
           width="858"
           height="274"
           id="rect703" />
      </g>
    </clipPath>
    <clipPath
       clipPathUnits="userSpaceOnUse"
       id="clipPath707">
      <g
         id="g711">
        <rect
           x="0"
           y="0"
           width="858"
           height="274"
           id="rect709" />
      </g>
    </clipPath>
    <clipPath
       clipPathUnits="userSpaceOnUse"
       id="clipPath713">
      <g
         id="g717">
        <rect
           x="0"
           y="0"
           width="858"
           height="274"
           id="rect715" />
      </g>
    </clipPath>
  </defs>
  <g
     id="g1117">
    <path
       id="rect25"
       style="fill:#404040"
       d="m 2,234 h 235 v 40 H 2 Z"
       clip-path="url(#clipPath713)" />
    <path
       id="rect27"
       style="fill:#7f7f7f"
       d="m 10,239 h 35 v 8 H 10 Z"
       clip-path="url(#clipPath707)" />
    <path
       id="rect29"
       style="fill:#7f7f7f"
       d="m 10,250 h 35 v 8 H 10 Z"
       clip-path="url(#clipPath701)" />
    <path
       id="rect31"
       style="fill:#7f7f7f"
       d="m 10,260 h 35 v 8 H 10 Z"
       clip-path="url(#clipPath695)" />
    <path
       d="m 41,241 c 0,-0.552 0.672,-1 1.5,-1 0.828,0 1.5,0.448 1.5,1 0,0.552 -0.672,1 -1.5,1 -0.828,0 -1.5,-0.448 -1.5,-1 z"
       fill="#00a1da"
       fill-rule="evenodd"
       id="path33"
       clip-path="url(#clipPath689)" />
    <path
       d="m 226,241 c 0,-1.657 1.343,-3 3,-3 1.657,0 3,1.343 3,3 0,1.657 -1.343,3 -3,3 -1.657,0 -3,-1.343 -3,-3 z"
       fill="#ffc000"
       fill-rule="evenodd"
       id="path35"
       clip-path="url(#clipPath683)" />
    <path
       d="m 214,241 c 0,-1.657 1.343,-3 3,-3 1.657,0 3,1.343 3,3 0,1.657 -1.343,3 -3,3 -1.657,0 -3,-1.343 -3,-3 z"
       fill="#92d050"
       fill-rule="evenodd"
       id="path37"
       clip-path="url(#clipPath677)" />
    <g
       id="rect39"
       transform="translate(-248,-251)"
       clip-path="url(#clipPath671)">
      <path
         style="color:#000000;fill:#9966ff;stroke-width:1.33333;stroke-miterlimit:8;-inkscape-stroke:none"
         d="m 258.5,490.5 h 6 v 8 h -6 z"
         id="path287" />
      <path
         style="color:#000000;fill:#404040;stroke-miterlimit:8;-inkscape-stroke:none"
         d="m 257.83398,489.83398 v 0.66602 8.66602 h 7.33204 v -9.33204 z m 1.33204,1.33204 h 4.66796 v 6.66796 h -4.66796 z"
         id="path289" />
    </g>
    <g
       id="rect41"
       transform="translate(-248,-251)"
       clip-path="url(#clipPath665)">
      <path
         style="color:#000000;fill:#9966ff;stroke-width:1.33333;stroke-miterlimit:8;-inkscape-stroke:none"
         d="m 258.5,500.5 h 6 v 9 h -6 z"
         id="path293" />
      <path
         style="color:#000000;fill:#404040;stroke-miterlimit:8;-inkscape-stroke:none"
         d="m 257.83398,499.83398 v 0.66602 9.66602 h 7.33204 v -10.33204 z m 1.33204,1.33204 h 4.66796 v 7.66796 h -4.66796 z"
         id="path295" />
    </g>
    <g
       id="rect43"
       transform="translate(-248,-251)"
       clip-path="url(#clipPath659)">
      <path
         style="color:#000000;fill:#9966ff;stroke-width:1.33333;stroke-miterlimit:8;-inkscape-stroke:none"
         d="m 258.5,511.5 h 6 v 8 h -6 z"
         id="path299" />
      <path
         style="color:#000000;fill:#404040;stroke-miterlimit:8;-inkscape-stroke:none"
         d="m 257.83398,510.83398 v 0.66602 8.66602 h 7.33204 v -9.33204 z m 1.33204,1.33204 h 4.66796 v 6.66796 h -4.66796 z"
         id="path301" />
    </g>
    <path
       d="m 41,252 c 0,-0.552 0.672,-1 1.5,-1 0.828,0 1.5,0.448 1.5,1 0,0.552 -0.672,1 -1.5,1 -0.828,0 -1.5,-0.448 -1.5,-1 z"
       fill="#00a1da"
       fill-rule="evenodd"
       id="path45"
       clip-path="url(#clipPath653)" />
    <path
       d="m 42,262.5 c 0,-0.828 0.448,-1.5 1,-1.5 0.552,0 1,0.672 1,1.5 0,0.828 -0.448,1.5 -1,1.5 -0.552,0 -1,-0.672 -1,-1.5 z"
       fill="#00a1da"
       fill-rule="evenodd"
       id="path47"
       clip-path="url(#clipPath647)" />
    <path
       id="rect49"
       style="fill:#404040"
       d="m 312,234 h 235 v 40 H 312 Z"
       clip-path="url(#clipPath641)" />
    <path
       id="rect51"
       style="fill:#7f7f7f"
       d="m 319,239 h 36 v 8 h -36 z"
       clip-path="url(#clipPath635)" />
    <path
       id="rect53"
       style="fill:#7f7f7f"
       d="m 319,250 h 36 v 8 h -36 z"
       clip-path="url(#clipPath629)" />
    <path
       id="rect55"
       style="fill:#7f7f7f"
       d="m 319,260 h 36 v 8 h -36 z"
       clip-path="url(#clipPath623)" />
    <path
       d="m 351,241 c 0,-0.552 0.448,-1 1,-1 0.552,0 1,0.448 1,1 0,0.552 -0.448,1 -1,1 -0.552,0 -1,-0.448 -1,-1 z"
       fill="#00a1da"
       fill-rule="evenodd"
       id="path57"
       clip-path="url(#clipPath617)" />
    <path
       d="m 535,241 c 0,-1.657 1.343,-3 3,-3 1.657,0 3,1.343 3,3 0,1.657 -1.343,3 -3,3 -1.657,0 -3,-1.343 -3,-3 z"
       fill="#ffc000"
       fill-rule="evenodd"
       id="path59"
       clip-path="url(#clipPath611)" />
    <path
       d="m 524,241 c 0,-1.657 1.343,-3 3,-3 1.657,0 3,1.343 3,3 0,1.657 -1.343,3 -3,3 -1.657,0 -3,-1.343 -3,-3 z"
       fill="#92d050"
       fill-rule="evenodd"
       id="path61"
       clip-path="url(#clipPath605)" />
    <g
       id="rect63"
       transform="translate(-248,-251)"
       clip-path="url(#clipPath599)">
      <path
         style="color:#000000;fill:#9966ff;stroke-width:1.33333;stroke-miterlimit:8;-inkscape-stroke:none"
         d="m 567.5,490.5 h 6 v 8 h -6 z"
         id="path323" />
      <path
         style="color:#000000;fill:#404040;stroke-miterlimit:8;-inkscape-stroke:none"
         d="m 566.83398,489.83398 v 0.66602 8.66602 h 7.33204 v -9.33204 z m 1.33204,1.33204 h 4.66796 v 6.66796 h -4.66796 z"
         id="path325" />
    </g>
    <g
       id="rect65"
       transform="translate(-248,-251)"
       clip-path="url(#clipPath593)">
      <path
         style="color:#000000;fill:#9966ff;stroke-width:1.33333;stroke-miterlimit:8;-inkscape-stroke:none"
         d="m 567.5,500.5 h 6 v 9 h -6 z"
         id="path329" />
      <path
         style="color:#000000;fill:#404040;stroke-miterlimit:8;-inkscape-stroke:none"
         d="m 566.83398,499.83398 v 0.66602 9.66602 h 7.33204 v -10.33204 z m 1.33204,1.33204 h 4.66796 v 7.66796 h -4.66796 z"
         id="path331" />
    </g>
    <g
       id="rect67"
       transform="translate(-248,-251)"
       clip-path="url(#clipPath587)">
      <path
         style="color:#000000;fill:#9966ff;stroke-width:1.33333;stroke-miterlimit:8;-inkscape-stroke:none"
         d="m 567.5,511.5 h 6 v 8 h -6 z"
         id="path335" />
      <path
         style="color:#000000;fill:#404040;stroke-miterlimit:8;-inkscape-stroke:none"
         d="m 566.83398,510.83398 v 0.66602 8.66602 h 7.33204 v -9.33204 z m 1.33204,1.33204 h 4.66796 v 6.66796 h -4.66796 z"
         id="path337" />
    </g>
    <path
       d="m 351,252 c 0,-0.552 0.448,-1 1,-1 0.552,0 1,0.448 1,1 0,0.552 -0.448,1 -1,1 -0.552,0 -1,-0.448 -1,-1 z"
       fill="#00a1da"
       fill-rule="evenodd"
       id="path69"
       clip-path="url(#clipPath581)" />
    <path
       d="m 351,262.5 c 0,-0.828 0.448,-1.5 1,-1.5 0.552,0 1,0.672 1,1.5 0,0.828 -0.448,1.5 -1,1.5 -0.552,0 -1,-0.672 -1,-1.5 z"
       fill="#00a1da"
       fill-rule="evenodd"
       id="path71"
       clip-path="url(#clipPath575)" />
    <path
       id="rect73"
       style="fill:#404040"
       d="m 621,233 h 235 v 40 H 621 Z"
       clip-path="url(#clipPath569)" />
    <path
       id="rect75"
       style="fill:#7f7f7f"
       d="m 629,238 h 36 v 9 h -36 z"
       clip-path="url(#clipPath563)" />
    <path
       id="rect77"
       style="fill:#7f7f7f"
       d="m 629,249 h 36 v 8 h -36 z"
       clip-path="url(#clipPath557)" />
    <path
       id="rect79"
       style="fill:#7f7f7f"
       d="m 629,260 h 36 v 8 h -36 z"
       clip-path="url(#clipPath551)" />
    <path
       d="m 661,241 c 0,-0.552 0.448,-1 1,-1 0.552,0 1,0.448 1,1 0,0.552 -0.448,1 -1,1 -0.552,0 -1,-0.448 -1,-1 z"
       fill="#00a1da"
       fill-rule="evenodd"
       id="path81"
       clip-path="url(#clipPath545)" />
    <path
       d="m 845,241 c 0,-1.657 1.34,-3 3,-3 1.66,0 3,1.343 3,3 0,1.657 -1.34,3 -3,3 -1.66,0 -3,-1.343 -3,-3 z"
       fill="#ffc000"
       fill-rule="evenodd"
       id="path83"
       clip-path="url(#clipPath539)" />
    <path
       d="m 834,241 c 0,-1.657 1.12,-3 2.5,-3 1.38,0 2.5,1.343 2.5,3 0,1.657 -1.12,3 -2.5,3 -1.38,0 -2.5,-1.343 -2.5,-3 z"
       fill="#92d050"
       fill-rule="evenodd"
       id="path85"
       clip-path="url(#clipPath533)" />
    <g
       id="rect87"
       transform="translate(-248,-251)"
       clip-path="url(#clipPath527)">
      <path
         style="color:#000000;fill:#9966ff;stroke-width:1.33333;stroke-miterlimit:8;-inkscape-stroke:none"
         d="m 877.5,489.5 h 6 v 8 h -6 z"
         id="path359" />
      <path
         style="color:#000000;fill:#404040;stroke-miterlimit:8;-inkscape-stroke:none"
         d="m 876.83398,488.83398 v 0.66602 8.66602 h 7.33204 v -9.33204 z m 1.33204,1.33204 h 4.66796 v 6.66796 h -4.66796 z"
         id="path361" />
    </g>
    <g
       id="rect89"
       transform="translate(-248,-251)"
       clip-path="url(#clipPath521)">
      <path
         style="color:#000000;fill:#9966ff;stroke-width:1.33333;stroke-miterlimit:8;-inkscape-stroke:none"
         d="m 877.5,500.5 h 6 v 8 h -6 z"
         id="path365" />
      <path
         style="color:#000000;fill:#404040;stroke-miterlimit:8;-inkscape-stroke:none"
         d="m 876.83398,499.83398 v 0.66602 8.66602 h 7.33204 v -9.33204 z m 1.33204,1.33204 h 4.66796 v 6.66796 h -4.66796 z"
         id="path367" />
    </g>
    <g
       id="rect91"
       transform="translate(-248,-251)"
       clip-path="url(#clipPath515)">
      <path
         style="color:#000000;fill:#9966ff;stroke-width:1.33333;stroke-miterlimit:8;-inkscape-stroke:none"
         d="m 877.5,511.5 h 6 v 8 h -6 z"
         id="path371" />
      <path
         style="color:#000000;fill:#404040;stroke-miterlimit:8;-inkscape-stroke:none"
         d="m 876.83398,510.83398 v 0.66602 8.66602 h 7.33204 v -9.33204 z m 1.33204,1.33204 h 4.66796 v 6.66796 h -4.66796 z"
         id="path373" />
    </g>
    <path
       d="m 661,251.5 c 0,-0.828 0.448,-1.5 1,-1.5 0.552,0 1,0.672 1,1.5 0,0.828 -0.448,1.5 -1,1.5 -0.552,0 -1,-0.672 -1,-1.5 z"
       fill="#00a1da"
       fill-rule="evenodd"
       id="path93"
       clip-path="url(#clipPath509)" />
    <path
       d="m 661,262 c 0,-0.552 0.448,-1 1,-1 0.552,0 1,0.448 1,1 0,0.552 -0.448,1 -1,1 -0.552,0 -1,-0.448 -1,-1 z"
       fill="#00a1da"
       fill-rule="evenodd"
       id="path95"
       clip-path="url(#clipPath503)" />
    <path
       style="color:#000000;fill:#262626;stroke-miterlimit:8;-inkscape-stroke:none"
       d="m 1,117 v 1 83 h 856 v -84 z m 2,2 h 852 v 80 H 3 Z"
       id="rect97"
       clip-path="url(#clipPath497)" />
    <path
       style="color:#000000;fill:#262626;stroke-miterlimit:8;-inkscape-stroke:none"
       d="M 1,0 V 1 85 H 857 V 0 Z M 3,2 H 855 V 83 H 3 Z"
       id="rect103"
       clip-path="url(#clipPath485)" />
    <g
       clip-path="url(#clipPath473)"
       id="g185"
       transform="translate(-248,-251)">
      <g
         clip-path="url(#clip5)"
         id="g183">
        <g
           clip-path="url(#clip6)"
           id="g181">
          <path
             d="M 48.9564,11.534 C 48.6497,10.5524 47.9134,9.75479 46.9932,9.26398 L 28.2812,0.306754 C 27.7904,0.0613509 27.2382,0 26.7474,0 26.2566,0 25.7044,0 25.2136,0.122702 L 6.5016,9.14128 C 5.58136,9.57074 4.9065,10.3683 4.6611,11.4113 L 0.0597777,31.5957 C -0.124275,32.6387 0.121129,33.6816 0.73464,34.5405 L 13.6797,50.5531 c 0.7362,0.7362 1.7791,1.227 2.8221,1.2884 h 20.6139 c 1.1043,0.1227 2.1473,-0.3681 2.8221,-1.2884 L 52.8829,34.5405 c 0.6135,-0.8589 0.8589,-1.9018 0.7362,-2.9448 z"
             fill="#326de6"
             transform="matrix(1,0,0,1.00052,523.934,267.557)"
             id="path175" />
          <path
             d="m 46.0729,30.7981 v 0 c -0.0613,0 -0.1227,0 -0.1227,-0.0613 0,-0.0614 -0.1227,-0.0614 -0.2454,-0.0614 -0.2454,-0.0613 -0.4908,-0.0613 -0.7362,-0.0613 -0.1227,0 -0.2454,0 -0.3681,-0.0614 h -0.0614 c -0.6748,-0.0613 -1.411,-0.184 -2.0859,-0.3681 -0.184,-0.0613 -0.3681,-0.2454 -0.4294,-0.4294 0.0613,0 0,0 0,0 v 0 L 41.533,29.6325 c 0.2454,-1.7792 0.1227,-3.6197 -0.2455,-5.3989 -0.4294,-1.7792 -1.1656,-3.497 -2.1472,-5.0308 l 0.3681,-0.3681 v 0 -0.0613 c 0,-0.1841 0.0613,-0.4295 0.184,-0.5522 0.5522,-0.4908 1.1043,-0.8589 1.7178,-1.227 v 0 c 0.1228,-0.0614 0.2455,-0.1227 0.3682,-0.1841 0.2454,-0.1227 0.4294,-0.2454 0.6748,-0.3681 0.0614,-0.0613 0.1227,-0.0613 0.1841,-0.1227 0.0613,-0.0613 0,-0.0613 0,-0.1227 v 0 c 0.5521,-0.4294 0.6748,-1.1656 0.2454,-1.7178 -0.1841,-0.2454 -0.5522,-0.4294 -0.8589,-0.4294 -0.3068,0 -0.6136,0.1227 -0.859,0.3067 v 0 l -0.0613,0.0614 c -0.0614,0.0613 -0.1227,0.1227 -0.1841,0.1227 -0.184,0.184 -0.3681,0.3681 -0.4908,0.5521 -0.0613,0.1227 -0.184,0.1841 -0.2454,0.2454 v 0 c -0.4294,0.4908 -0.9816,0.9816 -1.5337,1.3497 -0.1227,0.0614 -0.2454,0.1227 -0.3681,0.1227 -0.0614,0 -0.1841,0 -0.2455,-0.0613 h -0.0613 l -0.4908,0.3067 C 36.993,16.5647 36.4408,16.0739 35.95,15.5831 33.68,13.8039 30.8579,12.6996 27.9744,12.3929 l -0.0613,-0.4908 v 0 0.0613 c -0.1841,-0.1227 -0.2454,-0.3067 -0.3068,-0.4908 0,-0.6748 0,-1.3497 0.1227,-2.08591 V 9.32533 c 0,-0.1227 0.0614,-0.2454 0.0614,-0.3681 0.0613,-0.2454 0.0613,-0.49081 0.1227,-0.73621 v -0.36811 0 C 27.9744,7.2394 27.4836,6.6259 26.8701,6.56454 26.502,6.50319 26.1339,6.68725 25.8271,6.994 25.5817,7.2394 25.459,7.54616 25.459,7.85291 v 0 0.30676 c 0,0.2454 0.0614,0.4908 0.1227,0.73621 0.0614,0.1227 0.0614,0.2454 0.0614,0.3681 v 0.06135 c 0.1227,0.67487 0.1227,1.34977 0.1227,2.08597 -0.0614,0.184 -0.1227,0.3681 -0.3068,0.4908 v 0.1227 0 l -0.0613,0.4908 c -0.6749,0.0613 -1.3497,0.184 -2.086,0.3067 -2.8835,0.6135 -5.5215,2.1473 -7.5461,4.2946 l -0.3681,-0.2454 h -0.0614 c -0.0613,0 -0.1227,0.0613 -0.2454,0.0613 -0.1227,0 -0.2454,-0.0613 -0.3681,-0.1227 -0.5521,-0.4294 -1.1043,-0.9202 -1.5338,-1.411 v 0 c -0.0613,-0.1227 -0.184,-0.1841 -0.2454,-0.2454 -0.184,-0.1841 -0.3067,-0.3681 -0.4908,-0.5522 -0.0613,-0.0613 -0.1227,-0.0613 -0.184,-0.1227 -0.0614,-0.0613 -0.0614,-0.0613 -0.0614,-0.0613 v 0 c -0.2454,-0.1841 -0.5521,-0.3068 -0.8589,-0.3068 -0.3681,0 -0.6748,0.1227 -0.8589,0.4295 -0.3681,0.5521 -0.2454,1.2883 0.2454,1.7178 v 0 c 0.0614,0 0.0614,0.0613 0.0614,0.0613 0,0 0.1227,0.1227 0.184,0.1227 0.1841,0.1227 0.4295,0.2454 0.6749,0.3681 0.1227,0.0614 0.2454,0.1227 0.3681,0.1841 v 0 c 0.6135,0.3681 1.227,0.7362 1.7178,1.227 0.1227,0.1227 0.2454,0.3681 0.1841,0.5522 v -0.0614 0 l 0.3681,0.3681 c -0.0614,0.1227 -0.1227,0.1841 -0.1841,0.3068 -1.9019,3.0062 -2.6994,6.5645 -2.1473,10.0615 l -0.4908,0.1227 v 0 c 0,0.0614 -0.0613,0.0614 -0.0613,0.0614 -0.0614,0.184 -0.2454,0.3067 -0.4295,0.4294 -0.6748,0.1841 -1.34971,0.3068 -2.08592,0.3681 v 0 c -0.1227,0 -0.2454,0 -0.3681,0.0614 -0.24541,0 -0.49081,0.0613 -0.73621,0.0613 -0.06135,0 -0.1227,0.0614 -0.24541,0.0614 -0.06135,0 -0.06135,0 -0.1227,0.0613 v 0 c -0.67486,0.1227 -1.10431,0.7363 -0.98161,1.4111 0,0 0,0 0,0 0.1227,0.5522 0.67486,0.9203 1.22702,0.8589 0.1227,0 0.18405,0 0.30675,-0.0613 v 0 c 0.06135,0 0.06135,0 0.06135,-0.0614 0,-0.0613 0.18405,0 0.2454,0 0.24541,-0.0613 0.49081,-0.184 0.67486,-0.2454 0.12271,-0.0613 0.24541,-0.1227 0.36811,-0.1227 h 0.06135 c 0.67481,-0.2454 1.28841,-0.4294 2.02461,-0.5521 h 0.0613 c 0.1841,0 0.3681,0.0613 0.4908,0.184 0.0614,0 0.0614,0.0614 0.0614,0.0614 v 0 l 0.5521,-0.0614 c 0.9203,2.8222 2.6381,5.3375 5.0308,7.1781 0.5522,0.4294 1.043,0.7975 1.6565,1.1043 l -0.3068,0.4294 v 0 c 0,0.0614 0.0614,0.0614 0.0614,0.0614 0.1227,0.184 0.1227,0.4294 0.0613,0.6135 -0.2454,0.6135 -0.6135,1.227 -0.9816,1.7792 v 0.0613 c -0.0613,0.1227 -0.1227,0.1841 -0.2454,0.3068 -0.1227,0.1227 -0.2454,0.3681 -0.4294,0.6135 -0.0614,0.0613 -0.0614,0.1227 -0.1227,0.184 0,0 0,0.0614 -0.0614,0.0614 v 0 c -0.3068,0.6135 -0.0613,1.3497 0.4908,1.6565 0.1227,0.0613 0.3068,0.1227 0.4295,0.1227 0.4908,0 0.9202,-0.3068 1.1656,-0.7362 v 0 c 0,0 0,-0.0614 0.0614,-0.0614 0,-0.0613 0.0613,-0.1227 0.1227,-0.184 0.0613,-0.2455 0.184,-0.4295 0.2454,-0.6749 l 0.1227,-0.3681 v 0 c 0.184,-0.6749 0.4908,-1.2884 0.7976,-1.9019 0.1227,-0.184 0.3067,-0.3067 0.4908,-0.3681 0.0613,0 0.0613,0 0.0613,-0.0613 v 0 l 0.2454,-0.4909 c 1.7178,0.6749 3.497,0.9817 5.3375,0.9817 1.1044,0 2.2087,-0.1227 3.313,-0.4295 0.6748,-0.1227 1.3497,-0.3681 1.9632,-0.5522 l 0.2454,0.4295 v 0 c 0.0614,0 0.0614,0 0.0614,0.0614 0.184,0.0613 0.3681,0.184 0.4908,0.3681 0.3067,0.6135 0.6135,1.227 0.7975,1.9018 v 0.0614 l 0.1227,0.3681 c 0.0614,0.2454 0.1227,0.4908 0.2454,0.6749 0.0614,0.0613 0.0614,0.1227 0.1227,0.184 0,0 0,0.0614 0.0614,0.0614 v 0 c 0.2454,0.4294 0.6749,0.7362 1.1657,0.7362 0.184,0 0.3067,-0.0614 0.4908,-0.1227 0.2454,-0.1227 0.4908,-0.3681 0.5521,-0.6749 0.0614,-0.3068 0.0614,-0.6135 -0.0613,-0.9203 v 0 c 0,-0.0613 -0.0614,-0.0613 -0.0614,-0.0613 0,-0.0614 -0.0613,-0.1227 -0.1227,-0.1841 -0.1227,-0.2454 -0.2454,-0.4294 -0.4294,-0.6135 -0.0614,-0.1227 -0.1227,-0.184 -0.2454,-0.3067 v -0.1227 c -0.4295,-0.5522 -0.7362,-1.1657 -0.9816,-1.7792 -0.0614,-0.1841 -0.0614,-0.4295 0.0613,-0.6135 0,-0.0614 0.0614,-0.0614 0.0614,-0.0614 v 0 l -0.1841,-0.4908 c 3.1289,-1.9018 5.5216,-4.8467 6.6259,-8.3437 l 0.4908,0.0614 v 0 c 0.0614,0 0.0614,-0.0614 0.0614,-0.0614 0.1227,-0.1227 0.3067,-0.184 0.4908,-0.184 h 0.0613 c 0.6749,0.1227 1.3497,0.3067 1.9632,0.5521 h 0.0614 c 0.1227,0.0614 0.2454,0.1227 0.3681,0.1227 0.2454,0.1227 0.4295,0.2454 0.6749,0.3068 0.0613,0 0.1227,0.0613 0.2454,0.0613 0.0613,0 0.0613,0 0.1227,0.0614 v 0 c 0.1227,0.0613 0.184,0.0613 0.3067,0.0613 0.5522,0 1.043,-0.3681 1.227,-0.8589 -0.0613,-0.6748 -0.5521,-1.1657 -1.1043,-1.2884 z m -17.7304,-1.9018 -1.6565,0.7975 -1.6564,-0.7975 -0.4295,-1.7792 1.1657,-1.4724 h 1.8405 l 1.1657,1.4724 z m 10.0002,-3.9878 c 0.3068,1.2883 0.3681,2.5767 0.2454,3.8651 l -5.8283,-1.6565 v 0 c -0.5522,-0.1227 -0.8589,-0.6749 -0.7362,-1.227 0.0613,-0.1841 0.1227,-0.3068 0.2454,-0.4295 l 4.6013,-4.1718 c 0.6748,1.1043 1.1656,2.3313 1.4724,3.6197 z m -3.3129,-5.8897 -5.0308,3.5583 c -0.4295,0.2454 -1.043,0.1841 -1.3497,-0.2454 -0.1227,-0.1227 -0.1841,-0.2454 -0.1841,-0.4294 l -0.3681,-6.1965 c 2.6994,0.3068 5.0921,1.4724 6.9327,3.313 z m -11.1046,-3.1289 1.2271,-0.2454 -0.3068,6.1351 v 0 c 0,0.5521 -0.4908,0.9816 -1.043,0.9816 -0.184,0 -0.3067,-0.0614 -0.4908,-0.1227 l -5.0921,-3.6197 c 1.5951,-1.5338 3.5584,-2.6381 5.7056,-3.1289 z m -7.4848,5.3989 4.54,4.0491 v 0 c 0.4295,0.3681 0.4908,0.9816 0.1227,1.4111 -0.1227,0.184 -0.2454,0.2454 -0.4908,0.3067 l -5.951,1.7179 c -0.1841,-2.5768 0.4294,-5.2149 1.7791,-7.4848 z m -1.0429,10.3683 6.0737,-1.043 c 0.4908,0 0.9816,0.3067 1.043,0.7976 0.0613,0.184 0.0613,0.4294 -0.0614,0.6135 v 0 l -2.3313,5.6442 c -2.1473,-1.411 -3.8651,-3.5583 -4.724,-6.0123 z m 13.9266,7.6075 c -0.8589,0.184 -1.7178,0.3067 -2.6381,0.3067 -1.2883,0 -2.638,-0.2454 -3.8651,-0.6135 l 3.0062,-5.4602 c 0.3068,-0.3681 0.7976,-0.4908 1.227,-0.2454 0.1841,0.1227 0.3068,0.2454 0.4909,0.4294 v 0 l 2.9448,5.3376 c -0.3681,0.0613 -0.7362,0.1227 -1.1657,0.2454 z m 7.4848,-5.3376 c -0.9202,1.4725 -2.2086,2.7608 -3.681,3.6811 l -2.3927,-5.767 c -0.1227,-0.4908 0.1227,-0.9816 0.5522,-1.1657 0.184,-0.0613 0.3681,-0.1227 0.5521,-0.1227 l 6.1351,1.043 c -0.3068,0.8589 -0.6749,1.6565 -1.1657,2.3313 z"
             fill="#ffffff"
             transform="matrix(1,0,0,1.00052,523.934,267.557)"
             id="path177" />
          <path
             d="m 297.243,38.3443 c 0.859,0.0614 1.779,-0.0613 2.577,-0.3681 0.491,-0.2454 0.797,-0.7976 0.736,-1.3497 -0.061,-0.6135 -0.429,-1.1657 -0.981,-1.3497 -0.921,-0.5522 -1.964,-1.043 -3.007,-1.3498 -1.043,-0.3681 -1.963,-0.7975 -2.822,-1.227 -0.797,-0.3681 -1.472,-0.8589 -2.147,-1.4724 -0.614,-0.6135 -1.043,-1.2884 -1.35,-2.0859 -0.368,-0.9203 -0.491,-1.9019 -0.491,-2.8835 -0.061,-2.0246 0.859,-3.9878 2.454,-5.2148 1.657,-1.2884 3.866,-1.9019 6.688,-1.9019 1.349,0 2.76,0.1227 4.11,0.4294 1.043,0.1841 2.086,0.4295 3.129,0.7976 l -1.166,5.2148 c -0.859,-0.3067 -1.656,-0.4908 -2.515,-0.7362 -0.982,-0.2454 -2.025,-0.3067 -3.006,-0.3067 -2.086,0 -3.129,0.5521 -3.129,1.7178 0,0.2454 0.061,0.4908 0.123,0.7362 0.122,0.2454 0.306,0.4294 0.552,0.6135 0.245,0.184 0.613,0.3681 1.043,0.6135 0.429,0.2454 1.043,0.4908 1.779,0.7362 1.227,0.4295 2.454,0.9816 3.558,1.5951 0.859,0.4295 1.595,0.9817 2.209,1.7179 0.552,0.5521 0.92,1.227 1.166,2.0245 0.245,0.859 0.368,1.7179 0.368,2.5768 0.122,2.0859 -0.859,4.1105 -2.638,5.2762 -1.718,1.1656 -4.172,1.7791 -7.363,1.7791 -1.779,0.0614 -3.497,-0.1227 -5.214,-0.5521 -0.982,-0.2454 -1.902,-0.5522 -2.823,-0.8589 l 1.105,-5.3989 c 1.104,0.4294 2.27,0.7975 3.435,1.0429 1.227,0.0614 2.393,0.1841 3.62,0.1841 m -33.804,-6.7486 c -0.061,-1.8405 0.307,-3.681 0.92,-5.3989 0.552,-1.4724 1.411,-2.7608 2.516,-3.9264 1.042,-1.043 2.208,-1.8406 3.558,-2.3314 1.35,-0.5521 2.761,-0.7975 4.172,-0.7975 3.313,0 5.951,1.0429 7.853,3.0675 1.901,2.0246 2.883,5.0308 2.883,8.9572 0,0.3682 0,0.7976 -0.061,1.2884 0,0.4908 -0.062,0.8589 -0.062,1.227 h -14.969 c 0.122,1.2884 0.797,2.5154 1.902,3.2516 1.349,0.8589 2.945,1.2884 4.54,1.227 1.165,0 2.392,-0.1227 3.558,-0.3067 0.982,-0.1841 1.963,-0.4908 2.883,-0.9203 l 0.921,5.3989 c -0.43,0.2454 -0.921,0.3681 -1.411,0.5522 -0.675,0.184 -1.35,0.3681 -2.025,0.4294 -0.736,0.1227 -1.472,0.2454 -2.331,0.3681 -0.798,0.0614 -1.657,0.1227 -2.516,0.1227 -1.902,0.0614 -3.742,-0.2454 -5.521,-0.9202 -1.473,-0.5522 -2.761,-1.4111 -3.865,-2.5154 -1.043,-1.1043 -1.779,-2.4541 -2.27,-3.8651 -0.43,-1.6565 -0.675,-3.313 -0.675,-4.9081 m 15.522,-2.5154 c 0,-0.5521 -0.123,-1.1043 -0.307,-1.6565 -0.123,-0.5521 -0.43,-0.9816 -0.736,-1.411 -0.368,-0.4295 -0.798,-0.7976 -1.289,-1.043 -0.613,-0.3067 -1.227,-0.4294 -1.902,-0.4294 -0.674,0 -1.288,0.1227 -1.901,0.4294 -0.491,0.2454 -0.982,0.5522 -1.35,0.9816 -0.368,0.4295 -0.675,0.9203 -0.859,1.4724 -0.184,0.5522 -0.307,1.1044 -0.368,1.6565 h 8.712 m -33.498,-15.215 6.626,-1.043 v 6.8713 h 7.976 v 5.5216 h -7.976 v 8.221 c -0.061,1.1657 0.184,2.3314 0.736,3.313 0.491,0.7975 1.473,1.227 3.006,1.227 0.737,0 1.473,-0.0614 2.148,-0.1841 0.736,-0.1227 1.411,-0.3067 2.086,-0.5521 l 0.92,5.1535 c -0.859,0.3681 -1.779,0.6135 -2.7,0.8589 -1.165,0.2454 -2.392,0.3681 -3.619,0.3681 -1.534,0.0613 -3.068,-0.1841 -4.479,-0.7362 -1.104,-0.4295 -2.086,-1.1657 -2.822,-2.0246 -0.736,-0.9203 -1.227,-2.0246 -1.534,-3.1903 -0.307,-1.3497 -0.429,-2.7607 -0.368,-4.1105 V 13.8653 m -26.81,17.7304 c -0.062,-1.8405 0.306,-3.681 0.92,-5.3989 0.552,-1.4724 1.411,-2.7608 2.515,-3.9264 1.043,-1.043 2.209,-1.8406 3.559,-2.3314 1.349,-0.5521 2.76,-0.7975 4.172,-0.7975 3.313,0 5.951,1.0429 7.852,3.0675 1.902,2.0246 2.884,5.0308 2.884,8.9572 0,0.3682 0,0.7976 -0.061,1.2884 -0.062,0.4908 -0.062,0.8589 -0.062,1.227 h -15.031 c 0.123,1.2884 0.798,2.5154 1.902,3.2516 1.35,0.8589 2.945,1.2884 4.54,1.227 1.166,0 2.393,-0.1227 3.558,-0.3067 0.982,-0.1841 1.964,-0.4908 2.945,-0.9203 l 0.921,5.3989 c -0.43,0.2454 -0.921,0.3681 -1.411,0.5522 -0.675,0.184 -1.35,0.3681 -2.025,0.4294 -0.736,0.1227 -1.472,0.2454 -2.331,0.3681 -0.798,0.0614 -1.657,0.1227 -2.516,0.1227 -1.902,0.0614 -3.742,-0.2454 -5.521,-0.9202 -1.473,-0.5522 -2.761,-1.4111 -3.865,-2.5154 -1.043,-1.1043 -1.78,-2.4541 -2.27,-3.8651 -0.491,-1.6565 -0.737,-3.313 -0.675,-4.9081 m 15.521,-2.5154 c 0,-0.5521 -0.122,-1.1043 -0.306,-1.6565 -0.123,-0.5521 -0.43,-0.9816 -0.736,-1.411 -0.369,-0.4295 -0.798,-0.7976 -1.289,-1.043 -0.613,-0.3067 -1.227,-0.4294 -1.902,-0.4294 -0.675,0 -1.288,0.1227 -1.902,0.4294 -0.49,0.2454 -0.92,0.5522 -1.288,0.9816 -0.368,0.4295 -0.675,0.9203 -0.859,1.4724 -0.184,0.5522 -0.307,1.1044 -0.368,1.6565 h 8.65 m -40.675,-8.5891 c 1.411,-0.3681 2.883,-0.6749 4.356,-0.9203 1.84,-0.3067 3.742,-0.4294 5.583,-0.4294 1.656,-0.0614 3.313,0.2454 4.908,0.7975 1.227,0.4295 2.331,1.1657 3.129,2.1473 0.797,0.9816 1.349,2.1473 1.656,3.3743 0.368,1.4111 0.491,2.8835 0.491,4.3559 V 43.007 h -6.565 V 30.6754 c 0,-2.1472 -0.306,-3.6197 -0.859,-4.5399 -0.552,-0.8589 -1.595,-1.3497 -3.128,-1.3497 -0.491,0 -0.982,0 -1.534,0.0613 -0.552,0 -0.982,0.0614 -1.411,0.1227 V 43.007 h -6.626 V 20.4912 m -4.663,5.0921 c -0.613,-0.1227 -1.288,-0.3067 -2.086,-0.4294 -0.859,-0.1841 -1.718,-0.2454 -2.576,-0.2454 -0.491,0 -0.982,0.0613 -1.534,0.1227 -0.43,0.0613 -0.859,0.1227 -1.289,0.2454 v 17.8531 h -6.626 v -22.209 c 1.35,-0.4909 2.761,-0.859 4.172,-1.1657 1.78,-0.4295 3.62,-0.6135 5.399,-0.5522 0.43,0 0.859,0.0614 1.289,0.0614 0.49,0 0.981,0.0613 1.533,0.184 0.491,0.0614 0.982,0.1227 1.534,0.2454 0.43,0.0614 0.859,0.1841 1.288,0.3681 l -1.104,5.5216 m -41.166,6.0124 c -0.062,-1.8405 0.306,-3.681 0.92,-5.3989 0.552,-1.4724 1.411,-2.7608 2.515,-3.9264 1.043,-1.043 2.209,-1.8406 3.559,-2.3314 1.349,-0.5521 2.761,-0.7975 4.172,-0.7975 3.313,0 5.951,1.0429 7.853,3.0675 1.901,2.0246 2.883,5.0308 2.883,8.8959 0,0.3681 0,0.7976 -0.061,1.2884 -0.062,0.4908 -0.062,0.8589 -0.062,1.227 h -15.031 c 0.123,1.2884 0.798,2.5154 1.902,3.2516 1.35,0.8589 2.945,1.2883 4.54,1.227 1.166,0 2.393,-0.1227 3.559,-0.3068 0.981,-0.184 1.963,-0.4908 2.883,-0.8589 l 0.92,5.3989 c -0.429,0.2454 -0.92,0.3681 -1.411,0.5522 -0.675,0.184 -1.35,0.3681 -2.024,0.4294 -0.737,0.1227 -1.473,0.2454 -2.332,0.3681 -0.797,0.0614 -1.656,0.1227 -2.515,0.1227 -1.902,0.0614 -3.742,-0.2454 -5.522,-0.9202 -1.472,-0.5522 -2.76,-1.4111 -3.865,-2.5154 -1.043,-1.1043 -1.779,-2.4541 -2.27,-3.8651 -0.368,-1.6565 -0.613,-3.2516 -0.613,-4.9081 m 15.583,-2.5154 c 0,-0.5521 -0.123,-1.1043 -0.307,-1.6565 -0.123,-0.5521 -0.429,-0.9816 -0.736,-1.411 -0.368,-0.4295 -0.798,-0.7976 -1.288,-1.043 -0.614,-0.3067 -1.227,-0.4294 -1.902,-0.4294 -0.675,0 -1.289,0.1227 -1.902,0.4294 -0.491,0.2454 -0.982,0.5522 -1.35,0.9816 -0.368,0.4295 -0.675,0.9203 -0.859,1.4724 -0.184,0.5522 -0.307,1.1044 -0.368,1.6565 h 8.712 m -26.32,2.1473 c 0,-4.2946 -1.595,-6.3805 -4.724,-6.3805 -0.675,0 -1.349,0.0614 -2.024,0.2454 -0.552,0.1227 -1.105,0.3681 -1.595,0.6749 v 12.0247 c 0.306,0.0614 0.736,0.1227 1.227,0.1841 0.49,0.0613 1.043,0.0613 1.656,0.0613 1.595,0.1227 3.129,-0.5521 4.111,-1.8405 0.92,-1.4724 1.411,-3.1902 1.349,-4.9694 m 6.749,0.2454 c 0,1.7178 -0.245,3.4357 -0.859,5.0921 -0.491,1.4724 -1.288,2.7608 -2.331,3.8651 -1.105,1.1043 -2.393,1.9633 -3.804,2.5154 -1.657,0.6135 -3.374,0.8589 -5.154,0.8589 -0.797,0 -1.656,-0.0613 -2.515,-0.1227 -0.859,-0.0613 -1.718,-0.184 -2.577,-0.2454 -0.797,-0.1227 -1.595,-0.2454 -2.392,-0.4294 -0.798,-0.1227 -1.473,-0.3068 -2.025,-0.5522 V 9.63209 l 6.626,-1.04297 V 20.2458 c 0.736,-0.3068 1.534,-0.5522 2.331,-0.7362 0.859,-0.1841 1.718,-0.2454 2.577,-0.2454 1.534,0 3.006,0.2454 4.417,0.9202 1.227,0.5522 2.332,1.4111 3.191,2.4541 0.92,1.1656 1.595,2.454 1.963,3.8651 0.368,1.5338 0.552,3.2516 0.552,4.9694 m -27.976,10.7978 c -1.411,0.3681 -2.884,0.6748 -4.356,0.8589 -1.841,0.3067 -3.742,0.4294 -5.583,0.4294 -1.718,0.0614 -3.374,-0.2454 -4.969,-0.7975 -1.2274,-0.4908 -2.2703,-1.2271 -3.1292,-2.2087 -0.7976,-1.0429 -1.3498,-2.2086 -1.6565,-3.497 -0.3681,-1.411 -0.4908,-2.9448 -0.4908,-4.4172 V 19.6936 h 6.6255 v 12.2089 c 0,2.1472 0.307,3.681 0.859,4.6013 0.552,0.9202 1.595,1.411 3.129,1.411 0.491,0 0.982,0 1.534,-0.0613 0.552,-0.0614 0.982,-0.0614 1.411,-0.1841 V 19.6936 h 6.626 V 42.2708 M 77.0549,28.1601 c 0.6748,-0.7363 1.2883,-1.4725 2.0245,-2.2087 0.6749,-0.7975 1.3498,-1.5337 2.0246,-2.27 0.6749,-0.7975 1.2884,-1.4724 1.8406,-2.1472 0.5521,-0.6749 1.1043,-1.2884 1.5337,-1.7792 h 7.8529 c -1.5951,1.7792 -3.1289,3.5583 -4.6013,5.2148 -1.5338,1.6565 -3.1289,3.3743 -4.9081,5.0921 0.9817,0.9203 1.9019,1.8406 2.7608,2.8835 0.9203,1.1043 1.8406,2.2087 2.7608,3.4357 0.8589,1.1656 1.7178,2.3927 2.4541,3.5583 0.7362,1.1657 1.3497,2.27 1.8405,3.2516 H 85.0305 C 84.5397,42.3935 83.9875,41.5959 83.374,40.6756 82.7605,39.7554 82.0856,38.8351 81.4721,37.8535 80.7973,36.9332 80.0611,36.013 79.2635,35.1541 78.5886,34.3565 77.8524,33.6203 77.0549,33.0068 V 43.2524 H 70.429 V 9.63209 L 77.0549,8.58912 V 28.1601"
             transform="matrix(1,0,0,1.00052,523.934,267.557)"
             id="path179" />
        </g>
      </g>
    </g>
    <path
       d="m 382,100 h 23.5 V 88 h 47 v 12 H 476 l -47,12 z"
       fill="#00b0f0"
       fill-rule="evenodd"
       id="path187"
       clip-path="url(#clipPath467)" />
    <path
       d="m 382,217 h 23.5 v -12 h 47 v 12 H 476 l -47,12 z"
       fill="#00b0f0"
       fill-rule="evenodd"
       id="path189"
       clip-path="url(#clipPath461)" />
    <text
       xml:space="preserve"
       style="font-size:29.3333px;fill:#000000;stroke-width:2"
       x="153.89099"
       y="166.46516"
       id="text773"><tspan
         sodipodi:role="line"
         id="tspan771"
         x="153.89099"
         y="166.46516"
         style="font-size:29.3333px">Bare metal sys admin and provisioning</tspan></text>
  </g>
</svg>
