<?xml version="1.0" encoding="UTF-8" standalone="no"?>
<!-- Created with Bouml (http://bouml.free.fr/) -->
<!DOCTYPE svg PUBLIC "-//W3C//DTD SVG 1.1//EN" "http://www.w3.org/Graphics/SVG/1.1/DTD/svg11.dtd">
<svg width="1067" height="574" version="1.1" xmlns="http://www.w3.org/2000/svg">
<g>
	<rect fill="#cbcbcb" stroke="none" stroke-opacity="1" x="459" y="413" width="5" height="53" />
	<rect fill="#cbcbcb" stroke="none" stroke-opacity="1" x="337" y="461" width="127" height="5" />
	<rect fill="#ffffc0" stroke="black" stroke-width="1" stroke-opacity="1" x="331" y="407" width="128" height="54" />
	<text font-family="Helvetica" font-size="14" fill="#000000" xml:space="preserve" font-weight="bold" text-anchor="middle" x="395" y="424">GoldenImage</text>
	<line stroke="black" stroke-opacity="1" x1="331" y1="434" x2="459" y2="434" />
	<line stroke="black" stroke-opacity="1" x1="331" y1="447" x2="459" y2="447" />
</g>
<g>
	<polygon fill="#ffffff" stroke="black" stroke-opacity="1" points="82,150 254,150 254,165 239,180 82,180 82,150" />
	<rect fill="none" stroke="black" stroke-width="1" stroke-opacity="1" x="82" y="150" width="973" height="412" />
	<text font-family="Helvetica" font-size="14" fill="#000000" xml:space="preserve" text-anchor="middle" x="161" y="172">modules_directory</text>
	<line stroke="black" stroke-opacity="1" x1="82" y1="180" x2="239" y2="180" />
	<line stroke="black" stroke-opacity="1" x1="239" y1="180" x2="254" y2="165" />
	<line stroke="black" stroke-opacity="1" x1="254" y1="165" x2="254" y2="150" />
</g>
<g>
	<rect fill="#cbcbcb" stroke="none" stroke-opacity="1" x="278" y="413" width="5" height="53" />
	<rect fill="#cbcbcb" stroke="none" stroke-opacity="1" x="152" y="461" width="131" height="5" />
	<rect fill="#ffffc0" stroke="black" stroke-width="1" stroke-opacity="1" x="146" y="407" width="132" height="54" />
	<text font-family="Helvetica" font-size="14" fill="#000000" xml:space="preserve" font-weight="bold" text-anchor="middle" x="212" y="424">StagingImage</text>
	<line stroke="black" stroke-opacity="1" x1="146" y1="434" x2="278" y2="434" />
	<line stroke="black" stroke-opacity="1" x1="146" y1="447" x2="278" y2="447" />
</g>
<g>
	<polygon fill="#ffffff" stroke="black" stroke-opacity="1" points="105,215 161,215 161,230 146,245 105,245 105,215" />
	<rect fill="none" stroke="black" stroke-width="1" stroke-opacity="1" x="105" y="215" width="928" height="327" />
	<text font-family="Helvetica" font-size="14" fill="#000000" xml:space="preserve" text-anchor="middle" x="126" y="237">files</text>
	<line stroke="black" stroke-opacity="1" x1="105" y1="245" x2="146" y2="245" />
	<line stroke="black" stroke-opacity="1" x1="146" y1="245" x2="161" y2="230" />
	<line stroke="black" stroke-opacity="1" x1="161" y1="230" x2="161" y2="215" />
</g>
<g>
	<polygon fill="#ffffff" stroke="black" stroke-opacity="1" points="129,345 213,345 213,360 198,375 129,375 129,345" />
	<rect fill="none" stroke="black" stroke-width="1" stroke-opacity="1" x="129" y="345" width="874" height="170" />
	<text font-family="Helvetica" font-size="14" fill="#000000" xml:space="preserve" text-anchor="middle" x="164" y="367">classes</text>
	<line stroke="black" stroke-opacity="1" x1="129" y1="375" x2="198" y2="375" />
	<line stroke="black" stroke-opacity="1" x1="198" y1="375" x2="213" y2="360" />
	<line stroke="black" stroke-opacity="1" x1="213" y1="360" x2="213" y2="345" />
</g>
<g>
	<rect fill="#cbcbcb" stroke="none" stroke-opacity="1" x="951" y="419" width="5" height="53" />
	<rect fill="#cbcbcb" stroke="none" stroke-opacity="1" x="889" y="467" width="67" height="5" />
	<rect fill="#ffffc0" stroke="black" stroke-width="1" stroke-opacity="1" x="883" y="413" width="68" height="54" />
	<text font-family="Helvetica" font-size="14" fill="#000000" xml:space="preserve" font-weight="bold" text-anchor="middle" x="917" y="430">Image</text>
	<line stroke="black" stroke-opacity="1" x1="883" y1="440" x2="951" y2="440" />
	<line stroke="black" stroke-opacity="1" x1="883" y1="453" x2="951" y2="453" />
</g>
<g>
	<rect fill="#cbcbcb" stroke="none" stroke-opacity="1" x="689" y="415" width="5" height="53" />
	<rect fill="#cbcbcb" stroke="none" stroke-opacity="1" x="567" y="463" width="127" height="5" />
	<rect fill="#ffffc0" stroke="black" stroke-width="1" stroke-opacity="1" x="561" y="409" width="128" height="54" />
	<text font-family="Helvetica" font-size="14" fill="#000000" xml:space="preserve" font-weight="bold" text-anchor="middle" x="625" y="426">LivenetImage</text>
	<line stroke="black" stroke-opacity="1" x1="561" y1="436" x2="689" y2="436" />
	<line stroke="black" stroke-opacity="1" x1="561" y1="449" x2="689" y2="449" />
</g>
<g>
	<rect fill="#cbcbcb" stroke="none" stroke-opacity="1" x="982" y="258" width="5" height="53" />
	<rect fill="#cbcbcb" stroke="none" stroke-opacity="1" x="834" y="306" width="153" height="5" />
	<rect fill="#ffffc0" stroke="black" stroke-width="1" stroke-opacity="1" x="828" y="252" width="154" height="54" />
	<text font-family="Helvetica" font-size="14" fill="#000000" xml:space="preserve" font-weight="bold" text-anchor="middle" x="905" y="269">base_module.py</text>
	<line stroke="black" stroke-opacity="1" x1="828" y1="279" x2="982" y2="279" />
	<line stroke="black" stroke-opacity="1" x1="828" y1="292" x2="982" y2="292" />
</g>
<g>
	<rect fill="#cbcbcb" stroke="none" stroke-opacity="1" x="423" y="258" width="5" height="53" />
	<rect fill="#cbcbcb" stroke="none" stroke-opacity="1" x="289" y="306" width="139" height="5" />
	<rect fill="#ffffc0" stroke="black" stroke-width="1" stroke-opacity="1" x="283" y="252" width="140" height="54" />
	<text font-family="Helvetica" font-size="14" fill="#000000" xml:space="preserve" font-weight="bold" text-anchor="middle" x="353" y="269">nfs_module.py</text>
	<line stroke="black" stroke-opacity="1" x1="283" y1="279" x2="423" y2="279" />
	<line stroke="black" stroke-opacity="1" x1="283" y1="292" x2="423" y2="292" />
</g>
<g>
	<line stroke="black" stroke-opacity="1" x1="389" y1="406" x2="393" y2="398" />
	<line stroke="black" stroke-opacity="1" x1="389" y1="406" x2="381" y2="401" />
	<line stroke="black" stroke-opacity="1" x1="363" y1="312" x2="389" y2="406" />
	<polygon fill="#000000" stroke="black" stroke-opacity="1" points="363,312 370,316 366,323 358,319" />
</g>
<g>
	<line stroke="black" stroke-opacity="1" x1="240" y1="406" x2="248" y2="405" />
	<line stroke="black" stroke-opacity="1" x1="240" y1="406" x2="239" y2="397" />
	<line stroke="black" stroke-opacity="1" x1="325" y1="312" x2="240" y2="406" />
	<polygon fill="#000000" stroke="black" stroke-opacity="1" points="325,312 325,320 316,320 316,312" />
</g>
<g>
	<line stroke="black" stroke-opacity="1" x1="917" y1="412" x2="922" y2="405" />
	<line stroke="black" stroke-opacity="1" x1="917" y1="412" x2="910" y2="406" />
	<line stroke="black" stroke-opacity="1" x1="910" y1="312" x2="917" y2="412" />
	<polygon fill="#000000" stroke="black" stroke-opacity="1" points="910,312 916,317 910,323 904,318" />
</g>
<g>
	<rect fill="#cbcbcb" stroke="none" stroke-opacity="1" x="705" y="261" width="5" height="53" />
	<rect fill="#cbcbcb" stroke="none" stroke-opacity="1" x="541" y="309" width="169" height="5" />
	<rect fill="#ffffc0" stroke="black" stroke-width="1" stroke-opacity="1" x="535" y="255" width="170" height="54" />
	<text font-family="Helvetica" font-size="14" fill="#000000" xml:space="preserve" font-weight="bold" text-anchor="middle" x="620" y="272">livenet_module.py</text>
	<line stroke="black" stroke-opacity="1" x1="535" y1="282" x2="705" y2="282" />
	<line stroke="black" stroke-opacity="1" x1="535" y1="295" x2="705" y2="295" />
</g>
<g>
	<line stroke="black" stroke-opacity="1" x1="626" y1="408" x2="631" y2="401" />
	<line stroke="black" stroke-opacity="1" x1="626" y1="408" x2="619" y2="402" />
	<line stroke="black" stroke-opacity="1" x1="623" y1="315" x2="626" y2="408" />
	<polygon fill="#000000" stroke="black" stroke-opacity="1" points="623,315 629,320 623,326 617,321" />
</g>
<g>
	<rect fill="#cbcbcb" stroke="none" stroke-opacity="1" x="703" y="52" width="5" height="53" />
	<rect fill="#cbcbcb" stroke="none" stroke-opacity="1" x="535" y="100" width="173" height="5" />
	<rect fill="#ffffc0" stroke="black" stroke-width="1" stroke-opacity="1" x="529" y="46" width="174" height="54" />
	<text font-family="Helvetica" font-size="14" fill="#000000" xml:space="preserve" font-weight="bold" text-anchor="middle" x="616" y="63">Modules_directory</text>
	<line stroke="black" stroke-opacity="1" x1="529" y1="73" x2="703" y2="73" />
	<line stroke="black" stroke-opacity="1" x1="529" y1="86" x2="703" y2="86" />
</g>
<g>
	<line stroke="black" stroke-opacity="1" x1="866" y1="251" x2="864" y2="242" />
	<line stroke="black" stroke-opacity="1" x1="866" y1="251" x2="857" y2="252" />
	<line stroke="black" stroke-opacity="1" x1="663" y1="106" x2="866" y2="251" />
	<polygon fill="#000000" stroke="black" stroke-opacity="1" points="663,106 671,104 672,112 664,114" />
</g>
<g>
	<line stroke="black" stroke-opacity="1" x1="622" y1="254" x2="627" y2="247" />
	<line stroke="black" stroke-opacity="1" x1="622" y1="254" x2="615" y2="248" />
	<line stroke="black" stroke-opacity="1" x1="619" y1="106" x2="622" y2="254" />
	<polygon fill="#000000" stroke="black" stroke-opacity="1" points="619,106 625,111 619,117 613,112" />
</g>
<g>
	<line stroke="black" stroke-opacity="1" x1="391" y1="251" x2="399" y2="252" />
	<line stroke="black" stroke-opacity="1" x1="391" y1="251" x2="392" y2="242" />
	<line stroke="black" stroke-opacity="1" x1="577" y1="106" x2="391" y2="251" />
	<polygon fill="#000000" stroke="black" stroke-opacity="1" points="577,106 575,114 567,113 568,104" />
</g>
</svg>
