<svg width="622" height="567" xmlns="http://www.w3.org/2000/svg" xmlns:xlink="http://www.w3.org/1999/xlink" overflow="hidden"><defs><clipPath id="clip0"><rect x="124" y="33" width="622" height="567"/></clipPath><clipPath id="clip1"><rect x="608" y="77" width="78" height="20"/></clipPath><clipPath id="clip2"><rect x="608" y="77" width="78" height="20"/></clipPath><clipPath id="clip3"><rect x="599" y="68" width="96" height="96"/></clipPath><clipPath id="clip4"><rect x="242" y="324" width="79" height="20"/></clipPath><clipPath id="clip5"><rect x="242" y="324" width="79" height="20"/></clipPath><clipPath id="clip6"><rect x="233" y="315" width="97" height="96"/></clipPath><clipPath id="clip7"><rect x="129" y="402" width="96" height="96"/></clipPath><clipPath id="clip8"><rect x="129" y="402" width="96" height="96"/></clipPath><clipPath id="clip9"><rect x="129" y="402" width="96" height="96"/></clipPath><clipPath id="clip10"><rect x="233" y="402" width="96" height="96"/></clipPath><clipPath id="clip11"><rect x="233" y="402" width="96" height="96"/></clipPath><clipPath id="clip12"><rect x="233" y="402" width="96" height="96"/></clipPath><clipPath id="clip13"><rect x="338" y="402" width="96" height="96"/></clipPath><clipPath id="clip14"><rect x="338" y="402" width="96" height="96"/></clipPath><clipPath id="clip15"><rect x="338" y="402" width="96" height="96"/></clipPath><clipPath id="clip16"><rect x="129" y="498" width="96" height="96"/></clipPath><clipPath id="clip17"><rect x="129" y="498" width="96" height="96"/></clipPath><clipPath id="clip18"><rect x="129" y="498" width="96" height="96"/></clipPath><clipPath id="clip19"><rect x="233" y="498" width="96" height="96"/></clipPath><clipPath id="clip20"><rect x="233" y="498" width="96" height="96"/></clipPath><clipPath id="clip21"><rect x="233" y="498" width="96" height="96"/></clipPath><clipPath id="clip22"><rect x="338" y="498" width="96" height="96"/></clipPath><clipPath id="clip23"><rect x="338" y="498" width="96" height="96"/></clipPath><clipPath id="clip24"><rect x="338" y="498" width="96" height="96"/></clipPath><clipPath id="clip25"><rect x="331" y="368" width="36" height="35"/></clipPath><clipPath id="clip26"><rect x="331" y="368" width="36" height="35"/></clipPath><clipPath id="clip27"><rect x="331" y="368" width="36" height="35"/></clipPath><clipPath id="clip28"><rect x="464" y="49" width="33" height="32"/></clipPath><clipPath id="clip29"><rect x="464" y="49" width="33" height="32"/></clipPath><clipPath id="clip30"><rect x="464" y="49" width="33" height="32"/></clipPath><clipPath id="clip31"><rect x="464" y="74" width="33" height="33"/></clipPath><clipPath id="clip32"><rect x="464" y="74" width="33" height="33"/></clipPath><clipPath id="clip33"><rect x="464" y="74" width="33" height="33"/></clipPath><clipPath id="clip34"><rect x="133" y="309" width="33" height="32"/></clipPath><clipPath id="clip35"><rect x="133" y="309" width="33" height="32"/></clipPath><clipPath id="clip36"><rect x="133" y="309" width="33" height="32"/></clipPath><clipPath id="clip37"><rect x="133" y="334" width="33" height="33"/></clipPath><clipPath id="clip38"><rect x="133" y="334" width="33" height="33"/></clipPath><clipPath id="clip39"><rect x="133" y="334" width="33" height="33"/></clipPath><clipPath id="clip40"><rect x="209" y="348" width="42" height="42"/></clipPath><clipPath id="clip41"><rect x="209" y="348" width="42" height="42"/></clipPath><clipPath id="clip42"><rect x="209" y="348" width="42" height="42"/></clipPath><clipPath id="clip43"><rect x="198" y="355" width="42" height="42"/></clipPath><clipPath id="clip44"><rect x="198" y="355" width="42" height="42"/></clipPath><clipPath id="clip45"><rect x="198" y="355" width="42" height="42"/></clipPath><clipPath id="clip46"><rect x="187" y="361" width="42" height="42"/></clipPath><clipPath id="clip47"><rect x="187" y="361" width="42" height="42"/></clipPath><clipPath id="clip48"><rect x="187" y="361" width="42" height="42"/></clipPath></defs><g clip-path="url(#clip0)" transform="translate(-124 -33)"><g clip-path="url(#clip1)"><g clip-path="url(#clip2)"><g clip-path="url(#clip3)"><path d="M44.4439 66.1721 50.3698 66.1721 50.3698 74.0732 44.4439 74.0732Z" fill="#262626" transform="matrix(1.00286 0 -0 1 599.137 68.2364)"/><path d="M44.4439 78.0238 50.3698 78.0238 50.3698 83.9496 44.4439 83.9496Z" fill="#262626" transform="matrix(1.00286 0 -0 1 599.137 68.2364)"/><path d="M54.3203 78.0238 82.962 78.0238 82.962 83.9496 54.3203 83.9496Z" fill="#262626" transform="matrix(1.00286 0 -0 1 599.137 68.2364)"/><path d="M11.8517 78.0238 40.4933 78.0238 40.4933 83.9496 11.8517 83.9496Z" fill="#262626" transform="matrix(1.00286 0 -0 1 599.137 68.2364)"/><path d="M75.4756 50.3698 19.338 50.3698C17.3853 50.3698 15.8023 51.9528 15.8023 53.9055L15.8023 62.6363C15.8023 64.5891 17.3853 66.1721 19.338 66.1721L75.4756 66.1721C77.4284 66.1721 79.0114 64.5891 79.0114 62.6363L79.0114 53.9055C79.0114 51.9528 77.4284 50.3698 75.4756 50.3698ZM25.6787 60.2462C24.5878 60.2462 23.7034 59.3619 23.7034 58.2709 23.7034 57.18 24.5878 56.2956 25.6787 56.2956 26.7697 56.2956 27.654 57.18 27.654 58.2709 27.654 59.3619 26.7697 60.2462 25.6787 60.2462ZM35.5551 60.2462C34.4642 60.2462 33.5798 59.3619 33.5798 58.2709 33.5798 57.18 34.4642 56.2956 35.5551 56.2956 36.6461 56.2956 37.5304 57.18 37.5304 58.2709 37.5304 59.3619 36.6461 60.2462 35.5551 60.2462ZM45.4316 60.2462C44.3406 60.2462 43.4563 59.3619 43.4563 58.2709 43.4563 57.18 44.3406 56.2956 45.4316 56.2956 46.5225 56.2956 47.4068 57.18 47.4068 58.2709 47.4068 59.3619 46.5225 60.2462 45.4316 60.2462Z" fill="#262626" transform="matrix(1.00286 0 -0 1 599.137 68.2364)"/><path d="M75.4756 30.6169 19.338 30.6169C17.3853 30.6169 15.8023 32.1999 15.8023 34.1527L15.8023 42.8834C15.8023 44.8362 17.3853 46.4192 19.338 46.4192L75.4756 46.4192C77.4284 46.4192 79.0114 44.8362 79.0114 42.8834L79.0114 34.1527C79.0114 32.1999 77.4284 30.6169 75.4756 30.6169ZM25.6787 40.4933C24.5878 40.4933 23.7034 39.609 23.7034 38.5181 23.7034 37.4271 24.5878 36.5428 25.6787 36.5428 26.7697 36.5428 27.654 37.4271 27.654 38.5181 27.654 39.609 26.7697 40.4933 25.6787 40.4933ZM35.5551 40.4933C34.4642 40.4933 33.5798 39.609 33.5798 38.5181 33.5798 37.4271 34.4642 36.5428 35.5551 36.5428 36.6461 36.5428 37.5304 37.4271 37.5304 38.5181 37.5304 39.609 36.6461 40.4933 35.5551 40.4933ZM45.4316 40.4933C44.3406 40.4933 43.4563 39.609 43.4563 38.5181 43.4563 37.4271 44.3406 36.5428 45.4316 36.5428 46.5225 36.5428 47.4068 37.4271 47.4068 38.5181 47.4068 39.609 46.5225 40.4933 45.4316 40.4933Z" fill="#262626" transform="matrix(1.00286 0 -0 1 599.137 68.2364)"/><path d="M75.4756 10.8641 19.338 10.8641C17.3853 10.8641 15.8023 12.4471 15.8023 14.3998L15.8023 23.1306C15.8023 25.0834 17.3853 26.6663 19.338 26.6663L75.4756 26.6663C77.4284 26.6663 79.0114 25.0834 79.0114 23.1306L79.0114 14.3998C79.0114 12.4471 77.4284 10.8641 75.4756 10.8641ZM25.6787 20.7405C24.5878 20.7405 23.7034 19.8562 23.7034 18.7652 23.7034 17.6743 24.5878 16.7899 25.6787 16.7899 26.7697 16.7899 27.654 17.6743 27.654 18.7652 27.654 19.8562 26.7697 20.7405 25.6787 20.7405ZM35.5551 20.7405C34.4642 20.7405 33.5798 19.8562 33.5798 18.7652 33.5798 17.6743 34.4642 16.7899 35.5551 16.7899 36.6461 16.7899 37.5304 17.6743 37.5304 18.7652 37.5304 19.8562 36.6461 20.7405 35.5551 20.7405ZM45.4316 20.7405C44.3406 20.7405 43.4563 19.8562 43.4563 18.7652 43.4563 17.6743 44.3406 16.7899 45.4316 16.7899 46.5225 16.7899 47.4068 17.6743 47.4068 18.7652 47.4068 19.8562 46.5225 20.7405 45.4316 20.7405Z" fill="#262626" transform="matrix(1.00286 0 -0 1 599.137 68.2364)"/></g></g></g><g clip-path="url(#clip4)"><g clip-path="url(#clip5)"><g clip-path="url(#clip6)"><path d="M44.4439 66.1721 50.3698 66.1721 50.3698 74.0732 44.4439 74.0732Z" fill="#262626" transform="matrix(1.01572 0 -0 1 233.024 315.236)"/><path d="M44.4439 78.0238 50.3698 78.0238 50.3698 83.9496 44.4439 83.9496Z" fill="#262626" transform="matrix(1.01572 0 -0 1 233.024 315.236)"/><path d="M54.3203 78.0238 82.962 78.0238 82.962 83.9496 54.3203 83.9496Z" fill="#262626" transform="matrix(1.01572 0 -0 1 233.024 315.236)"/><path d="M11.8517 78.0238 40.4933 78.0238 40.4933 83.9496 11.8517 83.9496Z" fill="#262626" transform="matrix(1.01572 0 -0 1 233.024 315.236)"/><path d="M75.4756 50.3698 19.338 50.3698C17.3853 50.3698 15.8023 51.9528 15.8023 53.9055L15.8023 62.6363C15.8023 64.5891 17.3853 66.1721 19.338 66.1721L75.4756 66.1721C77.4284 66.1721 79.0114 64.5891 79.0114 62.6363L79.0114 53.9055C79.0114 51.9528 77.4284 50.3698 75.4756 50.3698ZM25.6787 60.2462C24.5878 60.2462 23.7034 59.3619 23.7034 58.2709 23.7034 57.18 24.5878 56.2956 25.6787 56.2956 26.7697 56.2956 27.654 57.18 27.654 58.2709 27.654 59.3619 26.7697 60.2462 25.6787 60.2462ZM35.5551 60.2462C34.4642 60.2462 33.5798 59.3619 33.5798 58.2709 33.5798 57.18 34.4642 56.2956 35.5551 56.2956 36.6461 56.2956 37.5304 57.18 37.5304 58.2709 37.5304 59.3619 36.6461 60.2462 35.5551 60.2462ZM45.4316 60.2462C44.3406 60.2462 43.4563 59.3619 43.4563 58.2709 43.4563 57.18 44.3406 56.2956 45.4316 56.2956 46.5225 56.2956 47.4068 57.18 47.4068 58.2709 47.4068 59.3619 46.5225 60.2462 45.4316 60.2462Z" fill="#262626" transform="matrix(1.01572 0 -0 1 233.024 315.236)"/><path d="M75.4756 30.6169 19.338 30.6169C17.3853 30.6169 15.8023 32.1999 15.8023 34.1527L15.8023 42.8834C15.8023 44.8362 17.3853 46.4192 19.338 46.4192L75.4756 46.4192C77.4284 46.4192 79.0114 44.8362 79.0114 42.8834L79.0114 34.1527C79.0114 32.1999 77.4284 30.6169 75.4756 30.6169ZM25.6787 40.4933C24.5878 40.4933 23.7034 39.609 23.7034 38.5181 23.7034 37.4271 24.5878 36.5428 25.6787 36.5428 26.7697 36.5428 27.654 37.4271 27.654 38.5181 27.654 39.609 26.7697 40.4933 25.6787 40.4933ZM35.5551 40.4933C34.4642 40.4933 33.5798 39.609 33.5798 38.5181 33.5798 37.4271 34.4642 36.5428 35.5551 36.5428 36.6461 36.5428 37.5304 37.4271 37.5304 38.5181 37.5304 39.609 36.6461 40.4933 35.5551 40.4933ZM45.4316 40.4933C44.3406 40.4933 43.4563 39.609 43.4563 38.5181 43.4563 37.4271 44.3406 36.5428 45.4316 36.5428 46.5225 36.5428 47.4068 37.4271 47.4068 38.5181 47.4068 39.609 46.5225 40.4933 45.4316 40.4933Z" fill="#262626" transform="matrix(1.01572 0 -0 1 233.024 315.236)"/><path d="M75.4756 10.8641 19.338 10.8641C17.3853 10.8641 15.8023 12.4471 15.8023 14.3998L15.8023 23.1306C15.8023 25.0834 17.3853 26.6663 19.338 26.6663L75.4756 26.6663C77.4284 26.6663 79.0114 25.0834 79.0114 23.1306L79.0114 14.3998C79.0114 12.4471 77.4284 10.8641 75.4756 10.8641ZM25.6787 20.7405C24.5878 20.7405 23.7034 19.8562 23.7034 18.7652 23.7034 17.6743 24.5878 16.7899 25.6787 16.7899 26.7697 16.7899 27.654 17.6743 27.654 18.7652 27.654 19.8562 26.7697 20.7405 25.6787 20.7405ZM35.5551 20.7405C34.4642 20.7405 33.5798 19.8562 33.5798 18.7652 33.5798 17.6743 34.4642 16.7899 35.5551 16.7899 36.6461 16.7899 37.5304 17.6743 37.5304 18.7652 37.5304 19.8562 36.6461 20.7405 35.5551 20.7405ZM45.4316 20.7405C44.3406 20.7405 43.4563 19.8562 43.4563 18.7652 43.4563 17.6743 44.3406 16.7899 45.4316 16.7899 46.5225 16.7899 47.4068 17.6743 47.4068 18.7652 47.4068 19.8562 46.5225 20.7405 45.4316 20.7405Z" fill="#262626" transform="matrix(1.01572 0 -0 1 233.024 315.236)"/></g></g></g><g clip-path="url(#clip7)"><g clip-path="url(#clip8)"><g clip-path="url(#clip9)"><path d="M174 469 180 469 180 477 174 477Z" fill="#262626"/><path d="M174 481 180 481 180 487 174 487Z" fill="#262626"/><path d="M184 481 213 481 213 487 184 487Z" fill="#262626"/><path d="M141 481 170 481 170 487 141 487Z" fill="#262626"/><path d="M205.42 453 148.58 453C146.603 453 145 454.603 145 456.58L145 465.42C145 467.397 146.603 469 148.58 469L205.42 469C207.397 469 209 467.397 209 465.42L209 456.58C209 454.603 207.397 453 205.42 453ZM155 463C153.895 463 153 462.105 153 461 153 459.895 153.895 459 155 459 156.105 459 157 459.895 157 461 157 462.105 156.105 463 155 463ZM165 463C163.895 463 163 462.105 163 461 163 459.895 163.895 459 165 459 166.105 459 167 459.895 167 461 167 462.105 166.105 463 165 463ZM175 463C173.895 463 173 462.105 173 461 173 459.895 173.895 459 175 459 176.105 459 177 459.895 177 461 177 462.105 176.105 463 175 463Z" fill="#262626"/><path d="M205.42 433 148.58 433C146.603 433 145 434.603 145 436.58L145 445.42C145 447.397 146.603 449 148.58 449L205.42 449C207.397 449 209 447.397 209 445.42L209 436.58C209 434.603 207.397 433 205.42 433ZM155 443C153.895 443 153 442.105 153 441 153 439.895 153.895 439 155 439 156.105 439 157 439.895 157 441 157 442.105 156.105 443 155 443ZM165 443C163.895 443 163 442.105 163 441 163 439.895 163.895 439 165 439 166.105 439 167 439.895 167 441 167 442.105 166.105 443 165 443ZM175 443C173.895 443 173 442.105 173 441 173 439.895 173.895 439 175 439 176.105 439 177 439.895 177 441 177 442.105 176.105 443 175 443Z" fill="#262626"/><path d="M205.42 413 148.58 413C146.603 413 145 414.603 145 416.58L145 425.42C145 427.397 146.603 429 148.58 429L205.42 429C207.397 429 209 427.397 209 425.42L209 416.58C209 414.603 207.397 413 205.42 413ZM155 423C153.895 423 153 422.105 153 421 153 419.895 153.895 419 155 419 156.105 419 157 419.895 157 421 157 422.105 156.105 423 155 423ZM165 423C163.895 423 163 422.105 163 421 163 419.895 163.895 419 165 419 166.105 419 167 419.895 167 421 167 422.105 166.105 423 165 423ZM175 423C173.895 423 173 422.105 173 421 173 419.895 173.895 419 175 419 176.105 419 177 419.895 177 421 177 422.105 176.105 423 175 423Z" fill="#262626"/></g></g></g><g clip-path="url(#clip10)"><g clip-path="url(#clip11)"><g clip-path="url(#clip12)"><path d="M278 469 284 469 284 477 278 477Z" fill="#262626"/><path d="M278 481 284 481 284 487 278 487Z" fill="#262626"/><path d="M288 481 317 481 317 487 288 487Z" fill="#262626"/><path d="M245 481 274 481 274 487 245 487Z" fill="#262626"/><path d="M309.42 453 252.58 453C250.603 453 249 454.603 249 456.58L249 465.42C249 467.397 250.603 469 252.58 469L309.42 469C311.397 469 313 467.397 313 465.42L313 456.58C313 454.603 311.397 453 309.42 453ZM259 463C257.895 463 257 462.105 257 461 257 459.895 257.895 459 259 459 260.105 459 261 459.895 261 461 261 462.105 260.105 463 259 463ZM269 463C267.895 463 267 462.105 267 461 267 459.895 267.895 459 269 459 270.105 459 271 459.895 271 461 271 462.105 270.105 463 269 463ZM279 463C277.895 463 277 462.105 277 461 277 459.895 277.895 459 279 459 280.105 459 281 459.895 281 461 281 462.105 280.105 463 279 463Z" fill="#262626"/><path d="M309.42 433 252.58 433C250.603 433 249 434.603 249 436.58L249 445.42C249 447.397 250.603 449 252.58 449L309.42 449C311.397 449 313 447.397 313 445.42L313 436.58C313 434.603 311.397 433 309.42 433ZM259 443C257.895 443 257 442.105 257 441 257 439.895 257.895 439 259 439 260.105 439 261 439.895 261 441 261 442.105 260.105 443 259 443ZM269 443C267.895 443 267 442.105 267 441 267 439.895 267.895 439 269 439 270.105 439 271 439.895 271 441 271 442.105 270.105 443 269 443ZM279 443C277.895 443 277 442.105 277 441 277 439.895 277.895 439 279 439 280.105 439 281 439.895 281 441 281 442.105 280.105 443 279 443Z" fill="#262626"/><path d="M309.42 413 252.58 413C250.603 413 249 414.603 249 416.58L249 425.42C249 427.397 250.603 429 252.58 429L309.42 429C311.397 429 313 427.397 313 425.42L313 416.58C313 414.603 311.397 413 309.42 413ZM259 423C257.895 423 257 422.105 257 421 257 419.895 257.895 419 259 419 260.105 419 261 419.895 261 421 261 422.105 260.105 423 259 423ZM269 423C267.895 423 267 422.105 267 421 267 419.895 267.895 419 269 419 270.105 419 271 419.895 271 421 271 422.105 270.105 423 269 423ZM279 423C277.895 423 277 422.105 277 421 277 419.895 277.895 419 279 419 280.105 419 281 419.895 281 421 281 422.105 280.105 423 279 423Z" fill="#262626"/></g></g></g><g clip-path="url(#clip13)"><g clip-path="url(#clip14)"><g clip-path="url(#clip15)"><path d="M383 469 389 469 389 477 383 477Z" fill="#262626"/><path d="M383 481 389 481 389 487 383 487Z" fill="#262626"/><path d="M393 481 422 481 422 487 393 487Z" fill="#262626"/><path d="M350 481 379 481 379 487 350 487Z" fill="#262626"/><path d="M414.42 453 357.58 453C355.603 453 354 454.603 354 456.58L354 465.42C354 467.397 355.603 469 357.58 469L414.42 469C416.397 469 418 467.397 418 465.42L418 456.58C418 454.603 416.397 453 414.42 453ZM364 463C362.895 463 362 462.105 362 461 362 459.895 362.895 459 364 459 365.105 459 366 459.895 366 461 366 462.105 365.105 463 364 463ZM374 463C372.895 463 372 462.105 372 461 372 459.895 372.895 459 374 459 375.105 459 376 459.895 376 461 376 462.105 375.105 463 374 463ZM384 463C382.895 463 382 462.105 382 461 382 459.895 382.895 459 384 459 385.105 459 386 459.895 386 461 386 462.105 385.105 463 384 463Z" fill="#262626"/><path d="M414.42 433 357.58 433C355.603 433 354 434.603 354 436.58L354 445.42C354 447.397 355.603 449 357.58 449L414.42 449C416.397 449 418 447.397 418 445.42L418 436.58C418 434.603 416.397 433 414.42 433ZM364 443C362.895 443 362 442.105 362 441 362 439.895 362.895 439 364 439 365.105 439 366 439.895 366 441 366 442.105 365.105 443 364 443ZM374 443C372.895 443 372 442.105 372 441 372 439.895 372.895 439 374 439 375.105 439 376 439.895 376 441 376 442.105 375.105 443 374 443ZM384 443C382.895 443 382 442.105 382 441 382 439.895 382.895 439 384 439 385.105 439 386 439.895 386 441 386 442.105 385.105 443 384 443Z" fill="#262626"/><path d="M414.42 413 357.58 413C355.603 413 354 414.603 354 416.58L354 425.42C354 427.397 355.603 429 357.58 429L414.42 429C416.397 429 418 427.397 418 425.42L418 416.58C418 414.603 416.397 413 414.42 413ZM364 423C362.895 423 362 422.105 362 421 362 419.895 362.895 419 364 419 365.105 419 366 419.895 366 421 366 422.105 365.105 423 364 423ZM374 423C372.895 423 372 422.105 372 421 372 419.895 372.895 419 374 419 375.105 419 376 419.895 376 421 376 422.105 375.105 423 374 423ZM384 423C382.895 423 382 422.105 382 421 382 419.895 382.895 419 384 419 385.105 419 386 419.895 386 421 386 422.105 385.105 423 384 423Z" fill="#262626"/></g></g></g><g clip-path="url(#clip16)"><g clip-path="url(#clip17)"><g clip-path="url(#clip18)"><path d="M174 565 180 565 180 573 174 573Z" fill="#262626"/><path d="M174 577 180 577 180 583 174 583Z" fill="#262626"/><path d="M184 577 213 577 213 583 184 583Z" fill="#262626"/><path d="M141 577 170 577 170 583 141 583Z" fill="#262626"/><path d="M205.42 549 148.58 549C146.603 549 145 550.603 145 552.58L145 561.42C145 563.397 146.603 565 148.58 565L205.42 565C207.397 565 209 563.397 209 561.42L209 552.58C209 550.603 207.397 549 205.42 549ZM155 559C153.895 559 153 558.105 153 557 153 555.895 153.895 555 155 555 156.105 555 157 555.895 157 557 157 558.105 156.105 559 155 559ZM165 559C163.895 559 163 558.105 163 557 163 555.895 163.895 555 165 555 166.105 555 167 555.895 167 557 167 558.105 166.105 559 165 559ZM175 559C173.895 559 173 558.105 173 557 173 555.895 173.895 555 175 555 176.105 555 177 555.895 177 557 177 558.105 176.105 559 175 559Z" fill="#262626"/><path d="M205.42 529 148.58 529C146.603 529 145 530.603 145 532.58L145 541.42C145 543.397 146.603 545 148.58 545L205.42 545C207.397 545 209 543.397 209 541.42L209 532.58C209 530.603 207.397 529 205.42 529ZM155 539C153.895 539 153 538.105 153 537 153 535.895 153.895 535 155 535 156.105 535 157 535.895 157 537 157 538.105 156.105 539 155 539ZM165 539C163.895 539 163 538.105 163 537 163 535.895 163.895 535 165 535 166.105 535 167 535.895 167 537 167 538.105 166.105 539 165 539ZM175 539C173.895 539 173 538.105 173 537 173 535.895 173.895 535 175 535 176.105 535 177 535.895 177 537 177 538.105 176.105 539 175 539Z" fill="#262626"/><path d="M205.42 509 148.58 509C146.603 509 145 510.603 145 512.58L145 521.42C145 523.397 146.603 525 148.58 525L205.42 525C207.397 525 209 523.397 209 521.42L209 512.58C209 510.603 207.397 509 205.42 509ZM155 519C153.895 519 153 518.105 153 517 153 515.895 153.895 515 155 515 156.105 515 157 515.895 157 517 157 518.105 156.105 519 155 519ZM165 519C163.895 519 163 518.105 163 517 163 515.895 163.895 515 165 515 166.105 515 167 515.895 167 517 167 518.105 166.105 519 165 519ZM175 519C173.895 519 173 518.105 173 517 173 515.895 173.895 515 175 515 176.105 515 177 515.895 177 517 177 518.105 176.105 519 175 519Z" fill="#262626"/></g></g></g><g clip-path="url(#clip19)"><g clip-path="url(#clip20)"><g clip-path="url(#clip21)"><path d="M278 565 284 565 284 573 278 573Z" fill="#262626"/><path d="M278 577 284 577 284 583 278 583Z" fill="#262626"/><path d="M288 577 317 577 317 583 288 583Z" fill="#262626"/><path d="M245 577 274 577 274 583 245 583Z" fill="#262626"/><path d="M309.42 549 252.58 549C250.603 549 249 550.603 249 552.58L249 561.42C249 563.397 250.603 565 252.58 565L309.42 565C311.397 565 313 563.397 313 561.42L313 552.58C313 550.603 311.397 549 309.42 549ZM259 559C257.895 559 257 558.105 257 557 257 555.895 257.895 555 259 555 260.105 555 261 555.895 261 557 261 558.105 260.105 559 259 559ZM269 559C267.895 559 267 558.105 267 557 267 555.895 267.895 555 269 555 270.105 555 271 555.895 271 557 271 558.105 270.105 559 269 559ZM279 559C277.895 559 277 558.105 277 557 277 555.895 277.895 555 279 555 280.105 555 281 555.895 281 557 281 558.105 280.105 559 279 559Z" fill="#262626"/><path d="M309.42 529 252.58 529C250.603 529 249 530.603 249 532.58L249 541.42C249 543.397 250.603 545 252.58 545L309.42 545C311.397 545 313 543.397 313 541.42L313 532.58C313 530.603 311.397 529 309.42 529ZM259 539C257.895 539 257 538.105 257 537 257 535.895 257.895 535 259 535 260.105 535 261 535.895 261 537 261 538.105 260.105 539 259 539ZM269 539C267.895 539 267 538.105 267 537 267 535.895 267.895 535 269 535 270.105 535 271 535.895 271 537 271 538.105 270.105 539 269 539ZM279 539C277.895 539 277 538.105 277 537 277 535.895 277.895 535 279 535 280.105 535 281 535.895 281 537 281 538.105 280.105 539 279 539Z" fill="#262626"/><path d="M309.42 509 252.58 509C250.603 509 249 510.603 249 512.58L249 521.42C249 523.397 250.603 525 252.58 525L309.42 525C311.397 525 313 523.397 313 521.42L313 512.58C313 510.603 311.397 509 309.42 509ZM259 519C257.895 519 257 518.105 257 517 257 515.895 257.895 515 259 515 260.105 515 261 515.895 261 517 261 518.105 260.105 519 259 519ZM269 519C267.895 519 267 518.105 267 517 267 515.895 267.895 515 269 515 270.105 515 271 515.895 271 517 271 518.105 270.105 519 269 519ZM279 519C277.895 519 277 518.105 277 517 277 515.895 277.895 515 279 515 280.105 515 281 515.895 281 517 281 518.105 280.105 519 279 519Z" fill="#262626"/></g></g></g><g clip-path="url(#clip22)"><g clip-path="url(#clip23)"><g clip-path="url(#clip24)"><path d="M383 565 389 565 389 573 383 573Z" fill="#262626"/><path d="M383 577 389 577 389 583 383 583Z" fill="#262626"/><path d="M393 577 422 577 422 583 393 583Z" fill="#262626"/><path d="M350 577 379 577 379 583 350 583Z" fill="#262626"/><path d="M414.42 549 357.58 549C355.603 549 354 550.603 354 552.58L354 561.42C354 563.397 355.603 565 357.58 565L414.42 565C416.397 565 418 563.397 418 561.42L418 552.58C418 550.603 416.397 549 414.42 549ZM364 559C362.895 559 362 558.105 362 557 362 555.895 362.895 555 364 555 365.105 555 366 555.895 366 557 366 558.105 365.105 559 364 559ZM374 559C372.895 559 372 558.105 372 557 372 555.895 372.895 555 374 555 375.105 555 376 555.895 376 557 376 558.105 375.105 559 374 559ZM384 559C382.895 559 382 558.105 382 557 382 555.895 382.895 555 384 555 385.105 555 386 555.895 386 557 386 558.105 385.105 559 384 559Z" fill="#262626"/><path d="M414.42 529 357.58 529C355.603 529 354 530.603 354 532.58L354 541.42C354 543.397 355.603 545 357.58 545L414.42 545C416.397 545 418 543.397 418 541.42L418 532.58C418 530.603 416.397 529 414.42 529ZM364 539C362.895 539 362 538.105 362 537 362 535.895 362.895 535 364 535 365.105 535 366 535.895 366 537 366 538.105 365.105 539 364 539ZM374 539C372.895 539 372 538.105 372 537 372 535.895 372.895 535 374 535 375.105 535 376 535.895 376 537 376 538.105 375.105 539 374 539ZM384 539C382.895 539 382 538.105 382 537 382 535.895 382.895 535 384 535 385.105 535 386 535.895 386 537 386 538.105 385.105 539 384 539Z" fill="#262626"/><path d="M414.42 509 357.58 509C355.603 509 354 510.603 354 512.58L354 521.42C354 523.397 355.603 525 357.58 525L414.42 525C416.397 525 418 523.397 418 521.42L418 512.58C418 510.603 416.397 509 414.42 509ZM364 519C362.895 519 362 518.105 362 517 362 515.895 362.895 515 364 515 365.105 515 366 515.895 366 517 366 518.105 365.105 519 364 519ZM374 519C372.895 519 372 518.105 372 517 372 515.895 372.895 515 374 515 375.105 515 376 515.895 376 517 376 518.105 375.105 519 374 519ZM384 519C382.895 519 382 518.105 382 517 382 515.895 382.895 515 384 515 385.105 515 386 515.895 386 517 386 518.105 385.105 519 384 519Z" fill="#262626"/></g></g></g><path d="M0 0 365.425 226.737" stroke="#4472C4" stroke-width="0.666667" stroke-miterlimit="8" fill="none" fill-rule="evenodd" transform="matrix(-1 -8.74228e-08 -8.74228e-08 1 646.925 97.5001)"/><path d="M0 0 104.015 57.798" stroke="#ED7D31" stroke-width="0.666667" stroke-miterlimit="8" fill="none" fill-rule="evenodd" transform="matrix(1 0 0 -1 177.5 402.298)"/><path d="M0 0 0.000104987 57.798" stroke="#ED7D31" stroke-width="0.666667" stroke-miterlimit="8" fill="none" fill-rule="evenodd" transform="matrix(1 0 0 -1 281.5 402.298)"/><path d="M385.515 402.298 281.5 344.5" stroke="#ED7D31" stroke-width="0.666667" stroke-miterlimit="8" fill="none" fill-rule="evenodd"/><text font-family="Arial,Arial_MSFontService,sans-serif" font-weight="400" font-size="16" transform="translate(689.62 93)">mngt1<tspan x="-365.452" y="246">mngt2</tspan></text><rect x="0" y="0" width="311" height="310" stroke="#ED7D31" stroke-width="4" stroke-miterlimit="8" fill="none" transform="matrix(1 0 0 -1 126 597)"/><text fill="#ED7D31" font-family="Arial,Arial_MSFontService,sans-serif" font-weight="700" font-size="16" transform="translate(137.511 308)">iceberg2<tspan x="152.611" y="82">Ice2</tspan>-<tspan x="188.944" y="82">1</tspan><tspan fill="#4472C4" font-weight="400" x="444.74" y="-145">Ice1</tspan><tspan fill="#4472C4" font-weight="400" x="474.907" y="-145">-</tspan><tspan fill="#4472C4" font-weight="400" x="480.24" y="-145">1</tspan></text><rect x="281.5" y="35.5001" width="463" height="236" stroke="#4472C4" stroke-width="1.33333" stroke-miterlimit="8" fill="none"/><text fill="#4472C4" font-family="Arial,Arial_MSFontService,sans-serif" font-weight="400" font-size="16" transform="translate(291.099 55)">iceberg1</text><g clip-path="url(#clip25)"><g clip-path="url(#clip26)"><g clip-path="url(#clip27)"><path d="M21.6198 13.599C20.0885 13.599 18.8854 12.3594 18.8854 10.8646 18.8854 9.36979 20.125 8.13021 21.6198 8.13021 23.151 8.13021 24.3542 9.36979 24.3542 10.8646 24.3542 12.3594 23.1146 13.599 21.6198 13.599ZM27.7812 9.15104C27.6354 8.64063 27.4531 8.16667 27.1979 7.72917L27.7812 6.01562 26.4688 4.70312 24.7552 5.28646C24.3177 5.03125 23.8438 4.84896 23.3333 4.70312L22.5312 3.09896 20.7083 3.09896 19.9062 4.70312C19.3958 4.84896 18.9219 5.03125 18.4844 5.28646L16.7708 4.70312 15.4583 6.01562 16.0417 7.72917C15.7865 8.16667 15.6042 8.64063 15.4583 9.15104L13.8542 9.95312 13.8542 11.776 15.4583 12.5781C15.6042 13.0885 15.7865 13.5625 16.0417 14L15.4583 15.7135 16.7344 16.9896 18.4479 16.4062C18.8854 16.6615 19.3594 16.8438 19.8698 16.9896L20.6719 18.5938 22.4948 18.5938 23.2969 16.9896C23.8073 16.8438 24.2812 16.6615 24.7188 16.4062L26.4323 16.9896 27.7448 15.7135 27.1615 14C27.4167 13.5625 27.6354 13.0521 27.7812 12.5781L29.3854 11.776 29.3854 9.95312 27.7812 9.15104Z" fill="#ED7D31" transform="matrix(1.02857 0 -0 1 331 368)"/><path d="M13.3802 26.8698C11.849 26.8698 10.6458 25.6302 10.6458 24.1354 10.6458 22.6042 11.8854 21.401 13.3802 21.401 14.9115 21.401 16.1146 22.6406 16.1146 24.1354 16.1146 25.6302 14.9115 26.8698 13.3802 26.8698L13.3802 26.8698ZM18.9583 21 19.5417 19.2865 18.2292 17.974 16.5156 18.5573C16.0781 18.3021 15.5677 18.1198 15.0938 17.974L14.2917 16.3698 12.4688 16.3698 11.6667 17.974C11.1562 18.1198 10.6823 18.3021 10.2448 18.5573L8.53125 17.974 7.25521 19.25 7.80208 20.9635C7.54688 21.401 7.36458 21.9115 7.21875 22.3854L5.61458 23.1875 5.61458 25.0104 7.21875 25.8125C7.36458 26.3229 7.54688 26.7969 7.80208 27.2344L7.25521 28.9479 8.53125 30.224 10.2448 29.6771C10.6823 29.9323 11.1562 30.1146 11.6667 30.2604L12.4688 31.8646 14.2917 31.8646 15.0938 30.2604C15.6042 30.1146 16.0781 29.9323 16.5156 29.6771L18.2292 30.2604 19.5052 28.9479 18.9583 27.2708C19.2135 26.8333 19.3958 26.3594 19.5417 25.849L21.1458 25.0469 21.1458 23.224 19.5417 22.4219C19.3958 21.9115 19.2135 21.4375 18.9583 21Z" fill="#ED7D31" transform="matrix(1.02857 0 -0 1 331 368)"/></g></g></g><g clip-path="url(#clip28)"><g clip-path="url(#clip29)"><g clip-path="url(#clip30)"><path d="M9.63333 12.3333 26.3333 12.3333 26.3333 10.6667C26.3333 9.93333 25.7333 9.33333 25 9.33333L15 9.33333 11.3333 6.9C11.1 6.76667 10.8667 6.66667 10.6 6.66667L4.33333 6.66667C3.6 6.66667 3 7.26667 3 8L3 24.3333C3 24.4 7.3 13.9 7.3 13.9 7.7 12.9667 8.6 12.3333 9.63333 12.3333Z" fill="#00B050" transform="matrix(1.03125 0 -0 1 464 49)"/><path d="M29 15C29 14.3 28.5 13.7333 27.8 13.6667L9.63333 13.6667C9.13333 13.6667 8.7 13.9667 8.5 14.4L4 25.3333 24.3333 25.3333 28.8667 15.6C28.9667 15.4 29 15.2 29 15L29 15Z" fill="#00B050" transform="matrix(1.03125 0 -0 1 464 49)"/></g></g></g><g clip-path="url(#clip31)"><g clip-path="url(#clip32)"><g clip-path="url(#clip33)"><path d="M473.934 86.7188 491.156 86.7188 491.156 85C491.156 84.2438 490.538 83.625 489.781 83.625L479.469 83.625 475.688 81.1156C475.447 80.9781 475.206 80.875 474.931 80.875L468.469 80.875C467.712 80.875 467.094 81.4938 467.094 82.25L467.094 99.0938C467.094 99.1625 471.528 88.3344 471.528 88.3344 471.941 87.3719 472.869 86.7188 473.934 86.7188Z" fill="#00B050"/><path d="M493.906 89.4688C493.906 88.7469 493.391 88.1625 492.669 88.0938L473.934 88.0938C473.419 88.0938 472.972 88.4031 472.766 88.85L468.125 100.125 489.094 100.125 493.769 90.0875C493.872 89.8812 493.906 89.675 493.906 89.4688L493.906 89.4688Z" fill="#00B050"/></g></g></g><text fill="#00B050" font-family="Arial,Arial_MSFontService,sans-serif" font-weight="400" font-size="13" transform="translate(498.54 68)">repositories<tspan x="0" y="28">bluebanquise</tspan></text><g clip-path="url(#clip34)"><g clip-path="url(#clip35)"><g clip-path="url(#clip36)"><path d="M9.63333 12.3333 26.3333 12.3333 26.3333 10.6667C26.3333 9.93333 25.7333 9.33333 25 9.33333L15 9.33333 11.3333 6.9C11.1 6.76667 10.8667 6.66667 10.6 6.66667L4.33333 6.66667C3.6 6.66667 3 7.26667 3 8L3 24.3333C3 24.4 7.3 13.9 7.3 13.9 7.7 12.9667 8.6 12.3333 9.63333 12.3333Z" fill="#00B050" transform="matrix(1.03125 0 -0 1 133 309)"/><path d="M29 15C29 14.3 28.5 13.7333 27.8 13.6667L9.63333 13.6667C9.13333 13.6667 8.7 13.9667 8.5 14.4L4 25.3333 24.3333 25.3333 28.8667 15.6C28.9667 15.4 29 15.2 29 15L29 15Z" fill="#00B050" transform="matrix(1.03125 0 -0 1 133 309)"/></g></g></g><g clip-path="url(#clip37)"><g clip-path="url(#clip38)"><g clip-path="url(#clip39)"><path d="M142.934 346.719 160.156 346.719 160.156 345C160.156 344.244 159.538 343.625 158.781 343.625L148.469 343.625 144.688 341.116C144.447 340.978 144.206 340.875 143.931 340.875L137.469 340.875C136.712 340.875 136.094 341.494 136.094 342.25L136.094 359.094C136.094 359.163 140.528 348.334 140.528 348.334 140.941 347.372 141.869 346.719 142.934 346.719Z" fill="#00B050"/><path d="M162.906 349.469C162.906 348.747 162.391 348.163 161.669 348.094L142.934 348.094C142.419 348.094 141.972 348.403 141.766 348.85L137.125 360.125 158.094 360.125 162.769 350.087C162.872 349.881 162.906 349.675 162.906 349.469L162.906 349.469Z" fill="#00B050"/></g></g></g><text fill="#00B050" font-family="Arial,Arial_MSFontService,sans-serif" font-weight="400" font-size="13" transform="translate(168.06 328)">repositories<tspan x="0" y="28">bluebanquise</tspan></text><path d="M485.408 107.5C514.4 119.511 543.391 131.521 508.601 166.752 473.812 201.983 331.854 290.06 276.67 318.886 221.487 347.711 199.493 343.707 177.5 339.704" stroke="#00B050" stroke-width="1.33333" stroke-miterlimit="8" fill="none" fill-rule="evenodd"/><g clip-path="url(#clip40)"><g clip-path="url(#clip41)"><g clip-path="url(#clip42)"><path d="M222.125 356.531 215.562 360.513 230 369.263 236.562 365.281Z" fill="#D9D9D9" fill-opacity="0.4"/><path d="M244.438 360.513 230 351.763 223.788 355.525 238.225 364.275Z" fill="#D9D9D9" fill-opacity="0.4"/><path d="M215.562 364.013 215.562 378.013 229.125 386.237 229.125 370.794 215.562 362.569Z" fill="#D9D9D9" fill-opacity="0.4"/><path d="M235.688 373.2 232.625 374.95 232.625 371.888 235.688 370.138 235.688 373.2ZM230.875 370.794 230.875 386.237 244.438 378.013 244.438 362.569 230.875 370.794Z" fill="#D9D9D9" fill-opacity="0.4"/></g></g></g><g clip-path="url(#clip43)"><g clip-path="url(#clip44)"><g clip-path="url(#clip45)"><path d="M211.125 363.531 204.562 367.513 219 376.263 225.562 372.281Z" fill="#A6A6A6" fill-opacity="0.4"/><path d="M233.438 367.513 219 358.763 212.788 362.525 227.225 371.275Z" fill="#A6A6A6" fill-opacity="0.4"/><path d="M204.562 371.013 204.562 385.013 218.125 393.237 218.125 377.794 204.562 369.569Z" fill="#A6A6A6" fill-opacity="0.4"/><path d="M224.688 380.2 221.625 381.95 221.625 378.888 224.688 377.138 224.688 380.2ZM219.875 377.794 219.875 393.237 233.438 385.013 233.438 369.569 219.875 377.794Z" fill="#A6A6A6" fill-opacity="0.4"/></g></g></g><g clip-path="url(#clip46)"><g clip-path="url(#clip47)"><g clip-path="url(#clip48)"><path d="M200.125 369.531 193.562 373.513 208 382.263 214.562 378.281Z" fill="#262626"/><path d="M222.438 373.513 208 364.763 201.788 368.525 216.225 377.275Z" fill="#262626"/><path d="M193.562 377.013 193.562 391.013 207.125 399.237 207.125 383.794 193.562 375.569Z" fill="#262626"/><path d="M213.688 386.2 210.625 387.95 210.625 384.888 213.688 383.138 213.688 386.2ZM208.875 383.794 208.875 399.237 222.438 391.013 222.438 375.569 208.875 383.794Z" fill="#262626"/></g></g></g></g></svg>