<?xml version="1.0" encoding="UTF-8" standalone="no"?>
<!-- Created with Inkscape (http://www.inkscape.org/) -->

<svg
   width="358.58615mm"
   height="140.13411mm"
   viewBox="0 0 358.58615 140.13411"
   version="1.1"
   id="svg8"
   inkscape:version="1.2 (dc2aedaf03, 2022-05-15)"
   sodipodi:docname="BlueBanquise_logo_large.svg"
   xmlns:inkscape="http://www.inkscape.org/namespaces/inkscape"
   xmlns:sodipodi="http://sodipodi.sourceforge.net/DTD/sodipodi-0.dtd"
   xmlns="http://www.w3.org/2000/svg"
   xmlns:svg="http://www.w3.org/2000/svg"
   xmlns:rdf="http://www.w3.org/1999/02/22-rdf-syntax-ns#"
   xmlns:cc="http://creativecommons.org/ns#"
   xmlns:dc="http://purl.org/dc/elements/1.1/">
  <defs
     id="defs2" />
  <sodipodi:namedview
     id="base"
     pagecolor="#ffffff"
     bordercolor="#666666"
     borderopacity="1.0"
     inkscape:pageopacity="0.0"
     inkscape:pageshadow="2"
     inkscape:zoom="0.6511905"
     inkscape:cx="594.29614"
     inkscape:cy="387.75136"
     inkscape:document-units="mm"
     inkscape:current-layer="layer1"
     showgrid="false"
     inkscape:window-width="1920"
     inkscape:window-height="998"
     inkscape:window-x="-11"
     inkscape:window-y="-11"
     inkscape:window-maximized="1"
     fit-margin-top="0"
     fit-margin-left="0"
     fit-margin-right="0"
     fit-margin-bottom="0"
     inkscape:showpageshadow="2"
     inkscape:pagecheckerboard="0"
     inkscape:deskcolor="#d1d1d1" />
  <metadata
     id="metadata5">
    <rdf:RDF>
      <cc:Work
         rdf:about="">
        <dc:format>image/svg+xml</dc:format>
        <dc:type
           rdf:resource="http://purl.org/dc/dcmitype/StillImage" />
        <dc:title />
      </cc:Work>
    </rdf:RDF>
  </metadata>
  <g
     inkscape:label="Layer 1"
     inkscape:groupmode="layer"
     id="layer1"
     transform="translate(90.153831,-43.525497)">
    <g
       id="g1179"
       transform="matrix(1.5936778,0,0,1.5936778,-29.52072,-108.85137)">
      <path
         inkscape:connector-curvature="0"
         id="path874-1"
         d="m 84.389915,109.40314 c -0.434663,-0.69419 -0.879363,-1.41243 -0.988204,-1.59608 l -0.197883,-0.33392 0.369009,-0.27737 c 0.202962,-0.15254 0.394424,-0.24701 0.425481,-0.20993 0.07682,0.0918 1.246426,3.6224 1.210507,3.65417 -0.01576,0.0139 -0.38424,-0.54268 -0.81891,-1.23687 z"
         style="opacity:0.3;fill:#108bde;fill-opacity:1;stroke:none;stroke-width:0.497256;stroke-miterlimit:4;stroke-dasharray:none;stroke-opacity:1" />
      <path
         inkscape:connector-curvature="0"
         id="path872-1"
         d="m 73.881613,107.31886 c -1.176004,-0.70854 -2.139089,-1.31418 -2.140188,-1.34585 -0.001,-0.0317 0.944147,-1.85058 2.100542,-4.04201 l 2.10255,-3.98442 0.04652,1.731839 c 0.101407,3.773921 0.15564,8.937951 0.0938,8.933451 -0.0358,-0.003 -1.027237,-0.58446 -2.203242,-1.29301 z"
         style="opacity:0.3;fill:#108bde;fill-opacity:1;stroke:none;stroke-width:0.403602;stroke-miterlimit:4;stroke-dasharray:none;stroke-opacity:1" />
      <path
         inkscape:connector-curvature="0"
         id="path870-8"
         d="m 69.30539,108.56674 c -1.420637,-1.56325 -1.768094,-1.98955 -1.684231,-2.06642 0.188227,-0.17251 2.469827,-1.44649 2.512968,-1.40316 0.06301,0.0633 1.009613,5.18305 0.983659,5.32021 -0.01242,0.0656 -0.825083,-0.76421 -1.812396,-1.85063 z"
         style="opacity:0.3;fill:#108bde;fill-opacity:1;stroke:none;stroke-width:0.461208;stroke-miterlimit:4;stroke-dasharray:none;stroke-opacity:1" />
      <path
         sodipodi:nodetypes="scssccs"
         inkscape:connector-curvature="0"
         id="path868-9"
         d="m 61.238821,109.99689 c -1.922167,-1.16505 -3.481223,-2.14715 -3.464572,-2.18243 0.04906,-0.10395 5.618505,-5.20472 5.683229,-5.20472 0.0325,0 0.129713,1.56609 0.397567,3.29867 0.267853,1.73259 0.59412,3.83958 0.725037,4.6822 0.130917,0.84262 0.219032,1.53036 0.195811,1.5283 -0.02322,-0.002 -1.614904,-0.95696 -3.537072,-2.12202 z"
         style="opacity:0.3;fill:#108bde;fill-opacity:1;stroke:none;stroke-width:0.394548;stroke-miterlimit:4;stroke-dasharray:none;stroke-opacity:1" />
      <path
         inkscape:connector-curvature="0"
         id="path866-6"
         d="m 52.976312,111.82843 c -0.892453,-0.34744 -1.68711,-0.65885 -1.765903,-0.69201 -0.119046,-0.0501 0.240141,-0.39872 2.124885,-2.06234 1.247483,-1.10113 2.27604,-1.99489 2.285685,-1.98615 0.01388,0.0126 -0.920198,4.94254 -1.001285,5.2847 -0.01288,0.0544 -0.635175,-0.15169 -1.643382,-0.5442 z"
         style="opacity:0.3;fill:#108bde;fill-opacity:1;stroke:none;stroke-width:0.427033;stroke-miterlimit:4;stroke-dasharray:none;stroke-opacity:1" />
      <path
         inkscape:connector-curvature="0"
         id="path882-1"
         d="m 72.913017,173.28512 c -0.03182,-0.0993 -0.555372,-2.25568 -1.163436,-4.79207 l -1.105568,-4.61162 1.581884,-7.23799 c 0.870035,-3.98089 1.585735,-7.23263 1.59045,-7.22608 0.0051,0.006 -0.173372,5.11149 -0.395721,11.34434 -0.222355,6.23284 -0.414509,11.64101 -0.427012,12.01815 -0.01499,0.45217 -0.04243,0.62426 -0.0806,0.50527 z"
         style="fill:#108bde;fill-opacity:1;stroke:none;stroke-width:0.415085;stroke-miterlimit:4;stroke-dasharray:none;stroke-opacity:1" />
      <path
         inkscape:connector-curvature="0"
         id="path878-8"
         d="m 63.184861,159.00309 -0.705362,-1.52156 0.355531,-1.71808 c 0.195539,-0.94496 0.518273,-2.46883 0.717182,-3.3864 l 0.361655,-1.66833 0.0095,4.90796 c 0.0052,2.69938 -6.5e-5,4.90797 -0.01181,4.90797 -0.01177,0 -0.338792,-0.68471 -0.726741,-1.52156 z"
         style="fill:#108bde;fill-opacity:1;stroke:none;stroke-width:0.451244;stroke-miterlimit:4;stroke-dasharray:none;stroke-opacity:1" />
      <path
         inkscape:connector-curvature="0"
         id="path880-8"
         d="m 64.022791,171.51665 c -1.339735,-5.438 -2.457777,-9.93737 -2.484535,-9.99859 -0.04073,-0.0932 0.562846,-3.59142 0.678348,-3.9316 0.02057,-0.0605 0.367784,0.69073 0.771593,1.66958 0.403809,0.97883 0.768637,1.83814 0.810729,1.90955 0.112975,0.1917 0.473697,0.16922 0.595327,-0.0371 0.05413,-0.0918 0.36553,-1.1687 0.691992,-2.39305 0.569653,-2.13641 0.594324,-2.20816 0.612348,-1.78088 0.09047,2.14473 0.797461,24.08223 0.781241,24.24158 -0.01163,0.1143 -1.117304,-4.24147 -2.457043,-9.67949 z"
         style="fill:#108bde;fill-opacity:1;stroke:none;stroke-width:0.406006;stroke-miterlimit:4;stroke-dasharray:none;stroke-opacity:1" />
      <path
         sodipodi:nodetypes="scsccs"
         inkscape:connector-curvature="0"
         id="path876-0"
         d="m 56.44676,167.30245 -1.887813,-6.82969 1.344876,-6.34141 c 0.751421,-3.54314 1.352613,-6.23432 1.362413,-6.09869 0.05198,0.71935 1.342144,26.23911 1.32562,26.36531 -0.0108,0.0825 -1.106799,-3.33919 -2.145096,-7.09552 z"
         style="fill:#108bde;fill-opacity:1;stroke:none;stroke-width:0.384542;stroke-miterlimit:4;stroke-dasharray:none;stroke-opacity:1" />
      <path
         sodipodi:nodetypes="ccccccccccccccccccccccccc"
         inkscape:connector-curvature="0"
         id="path899-0"
         d="m 89.59417,127.46186 -14.230378,50.27431 1.470854,-20.11806 -3.737798,17.56764 0.934451,-27.84657 -7.288702,35.13527 -0.934445,-26.72523 -1.682014,5.98046 v -13.26917 l -5.4198,27.84657 -1.308227,-29.90235 -3.737798,17.19385 -15.698736,-47.65688 8.97071,-6.54114 7.849365,3.17712 1.121339,-5.98047 9.157598,5.79358 -1.495121,-10.09205 7.849372,8.59693 -1.121339,-5.98047 5.980475,3.92469 -0.186894,-11.960945 10.092049,15.698735 -2.05579,-5.98047 8.223154,9.34449"
         style="fill:none;stroke:#969696;stroke-width:0.446672;stroke-linecap:butt;stroke-linejoin:round;stroke-miterlimit:4;stroke-dasharray:none;stroke-opacity:1" />
      <path
         sodipodi:nodetypes="cc"
         inkscape:connector-curvature="0"
         id="path901-8"
         d="m 55.902991,106.59721 -4.87876,4.31082"
         style="fill:none;stroke:#8c8c8c;stroke-width:0.510483;stroke-linecap:round;stroke-linejoin:miter;stroke-miterlimit:4;stroke-dasharray:none;stroke-opacity:1" />
      <path
         sodipodi:nodetypes="cc"
         inkscape:connector-curvature="0"
         id="path903-5"
         d="m 63.565468,102.29874 -5.650245,5.37301"
         style="fill:none;stroke:#8c8c8c;stroke-width:0.510483;stroke-linecap:round;stroke-linejoin:miter;stroke-miterlimit:4;stroke-dasharray:none;stroke-opacity:1" />
      <path
         sodipodi:nodetypes="cc"
         inkscape:connector-curvature="0"
         id="path905-0"
         d="m 70.293501,104.9152 -2.670713,1.43802"
         style="fill:none;stroke:#8c8c8c;stroke-width:0.510483;stroke-linecap:round;stroke-linejoin:miter;stroke-miterlimit:4;stroke-dasharray:none;stroke-opacity:1" />
      <path
         sodipodi:nodetypes="cc"
         inkscape:connector-curvature="0"
         id="path907-5"
         d="m 76.087082,96.878945 -4.19488,8.711035"
         style="fill:none;stroke:#8c8c8c;stroke-width:0.510483;stroke-linecap:round;stroke-linejoin:miter;stroke-miterlimit:4;stroke-dasharray:none;stroke-opacity:1" />
      <path
         sodipodi:nodetypes="cc"
         inkscape:connector-curvature="0"
         id="path911-2"
         d="m 84.123341,106.59721 -1.294156,0.98286"
         style="fill:none;stroke:#8c8c8c;stroke-width:0.638103;stroke-linecap:butt;stroke-linejoin:miter;stroke-miterlimit:4;stroke-dasharray:none;stroke-opacity:1" />
      <path
         sodipodi:nodetypes="cc"
         inkscape:connector-curvature="0"
         id="path913-0"
         d="m 54.558947,160.47276 4.088577,15.48144"
         style="fill:none;stroke:#8c8c8c;stroke-width:0.510483;stroke-linecap:round;stroke-linejoin:miter;stroke-miterlimit:4;stroke-dasharray:none;stroke-opacity:1" />
      <path
         sodipodi:nodetypes="cc"
         inkscape:connector-curvature="0"
         id="path915-8"
         d="m 64.126138,161.72968 -1.646639,-4.24815"
         style="fill:none;stroke:#8c8c8c;stroke-width:0.510483;stroke-linecap:round;stroke-linejoin:miter;stroke-miterlimit:4;stroke-dasharray:none;stroke-opacity:1" />
      <path
         sodipodi:nodetypes="cc"
         inkscape:connector-curvature="0"
         id="path917-0"
         d="M 66.742597,182.47445 61.633091,161.96706"
         style="fill:none;stroke:#8c8c8c;stroke-width:0.510483;stroke-linecap:round;stroke-linejoin:miter;stroke-miterlimit:4;stroke-dasharray:none;stroke-opacity:1" />
      <path
         sodipodi:nodetypes="cc"
         inkscape:connector-curvature="0"
         id="path919-4"
         d="M 73.096848,175.18575 70.644013,163.88143"
         style="fill:none;stroke:#8c8c8c;stroke-width:0.510483;stroke-linecap:round;stroke-linejoin:miter;stroke-miterlimit:4;stroke-dasharray:none;stroke-opacity:1" />
      <path
         sodipodi:nodetypes="cc"
         inkscape:connector-curvature="0"
         id="path937-1"
         d="m 37.961577,115.9417 76.571403,0.0172"
         style="fill:none;stroke:#108bde;stroke-width:0.446672;stroke-linecap:round;stroke-linejoin:miter;stroke-miterlimit:4;stroke-dasharray:none;stroke-opacity:1" />
      <path
         d="m 51.284475,117.41034 h 2.027516 q 1.370217,0 2.012348,0.46517 0.642131,0.46516 0.642131,1.40561 0,0.64213 -0.39438,1.0719 -0.389324,0.42472 -1.14269,0.54607 v 0.0303 q 0.884826,0.13146 1.299431,0.56123 0.419661,0.42472 0.419661,1.1882 0,1.02134 -0.677525,1.57246 -0.677524,0.55112 -1.921337,0.55112 h -2.265155 z m 0.515727,3.29156 h 1.62808 q 1.041567,0 1.511789,-0.34382 0.475278,-0.34888 0.475278,-1.08707 0,-0.7382 -0.535952,-1.07191 -0.530895,-0.3337 -1.587631,-0.3337 h -1.491564 z m 0,0.45505 v 3.19043 h 1.739315 q 2.052798,0 2.052798,-1.66853 0,-1.5219 -2.164033,-1.5219 z"
         style="font-style:normal;font-variant:normal;font-weight:normal;font-stretch:normal;font-size:16.2278px;line-height:1.25;font-family:'Open Sans Light';-inkscape-font-specification:'Open Sans Light, ';letter-spacing:0px;word-spacing:0px;fill:#249ff2;fill-opacity:1;stroke:none;stroke-width:0.337663"
         id="path851-7"
         inkscape:connector-curvature="0" />
      <path
         d="m 58.150727,124.80243 h -0.500558 v -7.86737 h 0.500558 z"
         style="font-style:normal;font-variant:normal;font-weight:normal;font-stretch:normal;font-size:16.2278px;line-height:1.25;font-family:'Open Sans Light';-inkscape-font-specification:'Open Sans Light, ';letter-spacing:0px;word-spacing:0px;fill:#249ff2;fill-opacity:1;stroke:none;stroke-width:0.337663"
         id="path853-0"
         inkscape:connector-curvature="0" />
      <path
         d="m 60.431052,119.3064 v 3.55953 q 0,0.82921 0.348874,1.20842 0.348874,0.37415 1.082016,0.37415 0.980894,0 1.441003,-0.4955 0.465166,-0.4955 0.465166,-1.61291 v -3.03369 h 0.495503 v 5.49603 h -0.424717 l -0.09101,-0.75842 h -0.03034 q -0.535952,0.85955 -1.906168,0.85955 -1.875832,0 -1.875832,-2.00729 v -3.58987 z"
         style="font-style:normal;font-variant:normal;font-weight:normal;font-stretch:normal;font-size:16.2278px;line-height:1.25;font-family:'Open Sans Light';-inkscape-font-specification:'Open Sans Light, ';letter-spacing:0px;word-spacing:0px;fill:#249ff2;fill-opacity:1;stroke:none;stroke-width:0.337663"
         id="path855-3"
         inkscape:connector-curvature="0" />
      <path
         d="m 68.323702,124.90356 q -1.198308,0 -1.870776,-0.7382 -0.667412,-0.7382 -0.667412,-2.06797 0,-1.3146 0.647187,-2.10336 0.647188,-0.79381 1.744373,-0.79381 0.970781,0 1.532014,0.67752 0.561232,0.67753 0.561232,1.84044 v 0.40449 h -3.958966 q 0.01011,1.13258 0.52584,1.72921 0.520783,0.59662 1.486508,0.59662 0.470222,0 0.824153,-0.0657 0.358987,-0.0657 0.90505,-0.28314 v 0.45505 q -0.465165,0.20225 -0.859545,0.27304 -0.39438,0.0758 -0.869658,0.0758 z m -0.146628,-5.2584 q -0.793816,0 -1.27415,0.52584 -0.480335,0.52078 -0.561233,1.50673 h 3.397733 q 0,-0.95561 -0.414604,-1.49156 -0.414604,-0.54101 -1.147746,-0.54101 z"
         style="font-style:normal;font-variant:normal;font-weight:normal;font-stretch:normal;font-size:16.2278px;line-height:1.25;font-family:'Open Sans Light';-inkscape-font-specification:'Open Sans Light, ';letter-spacing:0px;word-spacing:0px;fill:#249ff2;fill-opacity:1;stroke:none;stroke-width:0.337663"
         id="path857-0"
         inkscape:connector-curvature="0" />
      <path
         d="m 71.913568,117.41034 h 2.027516 q 1.370218,0 2.012348,0.46517 0.642129,0.46516 0.642129,1.40561 0,0.64213 -0.394379,1.0719 -0.38932,0.42472 -1.14269,0.54607 v 0.0303 q 0.884826,0.13146 1.299433,0.56123 0.419662,0.42472 0.419662,1.1882 0,1.02134 -0.677526,1.57246 -0.677525,0.55112 -1.921335,0.55112 h -2.265158 z m 0.515728,3.29156 h 1.628082 q 1.041563,0 1.511788,-0.34382 0.475278,-0.34888 0.475278,-1.08707 0,-0.7382 -0.535955,-1.07191 -0.530896,-0.3337 -1.587627,-0.3337 h -1.491566 z m 0,0.45505 v 3.19043 h 1.739316 q 2.052798,0 2.052798,-1.66853 0,-1.5219 -2.164032,-1.5219 z"
         style="font-style:normal;font-weight:normal;font-size:16.2278px;line-height:1.25;font-family:sans-serif;letter-spacing:0px;word-spacing:0px;fill:#969696;fill-opacity:1;stroke:none;stroke-width:0.337663"
         id="path859-3"
         inkscape:connector-curvature="0" />
      <path
         d="m 81.616323,124.80243 -0.126402,-0.86965 h -0.04045 q -0.414608,0.53089 -0.854491,0.75336 -0.434829,0.21742 -1.031455,0.21742 -0.808987,0 -1.258984,-0.41461 -0.449997,-0.4146 -0.449997,-1.14774 0,-0.80393 0.667411,-1.24887 0.672472,-0.44494 1.941563,-0.47022 l 1.046624,-0.0303 v -0.36404 q 0,-0.78371 -0.318535,-1.18314 -0.318541,-0.39944 -1.026402,-0.39944 -0.763478,0 -1.582572,0.42472 l -0.18708,-0.43483 q 0.905054,-0.42472 1.78988,-0.42472 0.905047,0 1.34999,0.47023 0.449997,0.47022 0.449997,1.46628 v 3.6556 z m -2.022461,-0.35393 q 0.879772,0 1.385385,-0.50055 0.510674,-0.50562 0.510674,-1.40056 v -0.54101 l -0.96067,0.0405 q -1.157858,0.0556 -1.653364,0.36405 -0.490446,0.30336 -0.490446,0.95055 0,0.51573 0.313481,0.80393 0.318541,0.28314 0.89494,0.28314 z"
         style="font-style:normal;font-weight:normal;font-size:16.2278px;line-height:1.25;font-family:sans-serif;letter-spacing:0px;word-spacing:0px;fill:#969696;fill-opacity:1;stroke:none;stroke-width:0.337663"
         id="path861-4"
         inkscape:connector-curvature="0" />
      <path
         d="m 87.592696,124.80243 v -3.56458 q 0,-0.82921 -0.348877,-1.20337 -0.348876,-0.37921 -1.082019,-0.37921 -0.985946,0 -1.446056,0.50056 -0.455051,0.4955 -0.455051,1.61291 v 3.03369 h -0.50056 v -5.49603 h 0.424715 l 0.09607,0.75337 h 0.03031 q 0.535955,-0.85955 1.906173,-0.85955 1.870772,0 1.870772,2.00729 v 3.59492 z"
         style="font-style:normal;font-weight:normal;font-size:16.2278px;line-height:1.25;font-family:sans-serif;letter-spacing:0px;word-spacing:0px;fill:#969696;fill-opacity:1;stroke:none;stroke-width:0.337663"
         id="path863-9"
         inkscape:connector-curvature="0" />
      <path
         d="m 91.824692,124.90356 q -1.082019,0 -1.678645,-0.71798 -0.596627,-0.71797 -0.596627,-2.07302 0,-1.39044 0.596627,-2.14886 0.596626,-0.76348 1.708981,-0.76348 1.193253,0 1.784819,0.87977 h 0.03031 l 0.09101,-0.77359 h 0.424716 v 7.98366 h -0.4955 v -2.09325 q 0,-0.61685 0.03031,-1.25392 h -0.03031 q -0.596627,0.96067 -1.865718,0.96067 z m 0.01008,-0.44494 q 1.00112,0 1.425835,-0.55112 0.429776,-0.55112 0.429776,-1.85056 v -0.0607 q 0,-1.23875 -0.429776,-1.78987 -0.429769,-0.55112 -1.370211,-0.55112 -0.889886,0 -1.355051,0.62696 -0.460111,0.62696 -0.460111,1.84044 0,1.15786 0.449997,1.74943 0.455057,0.58651 1.309541,0.58651 z"
         style="font-style:normal;font-weight:normal;font-size:16.2278px;line-height:1.25;font-family:sans-serif;letter-spacing:0px;word-spacing:0px;fill:#969696;fill-opacity:1;stroke:none;stroke-width:0.337663"
         id="path865-2"
         inkscape:connector-curvature="0" />
      <path
         d="m 96.471296,119.3064 v 3.55953 q 0,0.82921 0.34887,1.20842 0.348877,0.37415 1.082019,0.37415 0.980892,0 1.441003,-0.4955 0.465164,-0.4955 0.465164,-1.61291 v -3.03369 h 0.495508 v 5.49603 h -0.424723 l -0.09101,-0.75842 h -0.03037 q -0.535949,0.85955 -1.906167,0.85955 -1.875832,0 -1.875832,-2.00729 v -3.58987 z"
         style="font-style:normal;font-weight:normal;font-size:16.2278px;line-height:1.25;font-family:sans-serif;letter-spacing:0px;word-spacing:0px;fill:#969696;fill-opacity:1;stroke:none;stroke-width:0.337663"
         id="path867-7"
         inkscape:connector-curvature="0" />
      <path
         d="m 102.64486,124.80243 h -0.50056 v -5.49603 h 0.50056 z m -0.57135,-7.02299 q 0,-0.48539 0.31853,-0.48539 0.15675,0 0.2427,0.1264 0.091,0.12641 0.091,0.35899 0,0.22753 -0.091,0.35899 -0.0859,0.13146 -0.2427,0.13146 -0.31853,0 -0.31853,-0.49045 z"
         style="font-style:normal;font-weight:normal;font-size:16.2278px;line-height:1.25;font-family:sans-serif;letter-spacing:0px;word-spacing:0px;fill:#969696;fill-opacity:1;stroke:none;stroke-width:0.337663"
         id="path869-5"
         inkscape:connector-curvature="0" />
      <path
         d="m 107.89819,123.37154 q 0,0.7382 -0.56123,1.13764 -0.56123,0.39438 -1.59268,0.39438 -1.10224,0 -1.74943,-0.33876 v -0.54101 q 0.8292,0.4146 1.74943,0.4146 0.81404,0 1.2337,-0.26797 0.42471,-0.27304 0.42471,-0.72303 0,-0.41461 -0.33876,-0.69775 -0.33371,-0.28315 -1.10224,-0.55618 -0.82415,-0.29831 -1.15786,-0.51067 -0.33371,-0.21741 -0.50562,-0.48539 -0.16685,-0.27303 -0.16685,-0.66236 0,-0.61685 0.51573,-0.97583 0.52078,-0.35899 1.45112,-0.35899 0.88988,0 1.68875,0.33371 l -0.18708,0.45505 q -0.80898,-0.33371 -1.50167,-0.33371 -0.67248,0 -1.06686,0.22247 -0.39437,0.22247 -0.39437,0.61685 0,0.42978 0.30337,0.68764 0.30842,0.25786 1.19831,0.5764 0.74325,0.26798 1.08201,0.48539 0.33876,0.21236 0.50562,0.48539 0.1719,0.27303 0.1719,0.64213 z"
         style="font-style:normal;font-weight:normal;font-size:16.2278px;line-height:1.25;font-family:sans-serif;letter-spacing:0px;word-spacing:0px;fill:#969696;fill-opacity:1;stroke:none;stroke-width:0.337663"
         id="path871-5"
         inkscape:connector-curvature="0" />
      <path
         d="m 111.54368,124.90356 q -1.19831,0 -1.87078,-0.7382 -0.66741,-0.7382 -0.66741,-2.06797 0,-1.3146 0.64719,-2.10336 0.64719,-0.79381 1.74437,-0.79381 0.97078,0 1.53201,0.67752 0.56123,0.67753 0.56123,1.84044 v 0.40449 h -3.95896 q 0.0101,1.13258 0.52584,1.72921 0.52078,0.59662 1.48651,0.59662 0.47022,0 0.82415,-0.0657 0.35899,-0.0657 0.90505,-0.28314 v 0.45505 q -0.46517,0.20225 -0.85955,0.27304 -0.39438,0.0758 -0.86965,0.0758 z m -0.14663,-5.2584 q -0.79382,0 -1.27415,0.52584 -0.48034,0.52078 -0.56124,1.50673 h 3.39774 q 0,-0.95561 -0.4146,-1.49156 -0.41461,-0.54101 -1.14775,-0.54101 z"
         style="font-style:normal;font-weight:normal;font-size:16.2278px;line-height:1.25;font-family:sans-serif;letter-spacing:0px;word-spacing:0px;fill:#969696;fill-opacity:1;stroke:none;stroke-width:0.337663"
         id="path873-7"
         inkscape:connector-curvature="0" />
    </g>
  </g>
</svg>
