<svg width="733" height="503" xmlns="http://www.w3.org/2000/svg" xmlns:xlink="http://www.w3.org/1999/xlink" overflow="hidden"><defs><clipPath id="clip0"><rect x="208" y="113" width="733" height="503"/></clipPath></defs><g clip-path="url(#clip0)" transform="translate(-208 -113)"><rect x="209.5" y="360.5" width="155" height="39" stroke="#262626" stroke-linejoin="round" stroke-miterlimit="10" fill="none"/><text font-family="Calibri,Calibri_MSFontService,sans-serif" font-weight="400" font-size="24" transform="translate(247.152 387)">host001</text><rect x="532" y="115" width="361" height="190" fill="#FFC000"/><text font-family="Consolas,Consolas_MSFontService,sans-serif" font-style="italic" font-weight="400" font-size="19" transform="translate(541.794 137)">network_interfaces:<tspan font-size="19" x="20.6667" y="22">-</tspan><tspan font-size="19" x="41.3334" y="22">name: eth0</tspan><tspan font-size="19" x="41.3334" y="44">ip4: 10.10.3.1</tspan><tspan font-size="19" x="41.3334" y="67">mac:</tspan><tspan font-size="19" x="93" y="67">AA:BB:CC:DD:EE:FF</tspan><tspan font-size="19" x="41.3334" y="89">network: </tspan><tspan font-weight="700" font-size="19" x="134.333" y="89">ice1</tspan><tspan font-weight="700" font-size="19" x="175.667" y="89">-</tspan><tspan font-weight="700" font-size="19" x="186" y="89">1</tspan><tspan font-size="19" x="0" y="134">Member of groups </tspan><tspan font-size="19" x="175.667" y="134">mg_computes</tspan><tspan font-size="19" x="299.667" y="134">and </tspan><tspan font-weight="700" font-size="19" x="0" y="156">equipment_server_A_1</tspan></text><rect x="532" y="323" width="361" height="123" fill="#92D050"/><text font-family="Consolas,Consolas_MSFontService,sans-serif" font-style="italic" font-weight="400" font-size="19" transform="translate(541.794 346)">group_vars<tspan font-size="19" x="103.333" y="0">/equipment_server_A_1/</tspan><tspan font-size="19" x="20.6666" y="22">ep_operating_system</tspan><tspan font-size="19" x="217" y="22">:</tspan><tspan font-size="19" x="41.3333" y="44">distribution:</tspan><tspan font-size="19" x="186" y="44">ubuntu</tspan><tspan font-size="19" x="41.3333" y="67">distribution_version</tspan><tspan font-size="19" x="248" y="67">:</tspan><tspan font-size="19" x="268.667" y="67">20.04</tspan><tspan font-size="19" x="20.6666" y="89">ep_equipment_type</tspan><tspan font-size="19" x="196.333" y="89">: server</tspan></text><rect x="532" y="464" width="361" height="146" fill="#00B0F0"/><text font-family="Consolas,Consolas_MSFontService,sans-serif" font-style="italic" font-weight="400" font-size="19" transform="translate(541.794 487)">group_vars<tspan font-size="19" x="103.333" y="0">/all</tspan><tspan font-size="19" x="144.667" y="0">/</tspan><tspan font-size="19" x="155" y="0">general_settings</tspan><tspan font-size="19" x="320.333" y="0">/</tspan><tspan font-size="19" x="0" y="44">n</tspan><tspan font-size="19" x="10.3333" y="44">etworks:</tspan><tspan font-size="19" x="20.6666" y="67">ice1</tspan><tspan font-size="19" x="62" y="67">-</tspan><tspan font-size="19" x="72.3333" y="67">1:</tspan><tspan font-size="19" x="51.6666" y="89">subnet: 10.10.0.0</tspan><tspan font-size="19" x="51.6666" y="112">prefix:</tspan><tspan font-size="19" x="134.333" y="112">1</tspan><tspan font-size="19" x="144.667" y="112">6</tspan></text><path d="M0.236869-0.23453 168.004 169.205 167.53 169.675-0.236869 0.23453ZM-2.84243 2.81435C-4.39675 1.24452-4.38419-1.2881-2.81435-2.84243-1.24452-4.39675 1.2881-4.38419 2.84243-2.81435 4.39675-1.24452 4.38419 1.2881 2.81435 2.84243 1.24452 4.39675-1.2881 4.38419-2.84243 2.81435ZM170.609 166.626C172.163 168.195 172.151 170.728 170.581 172.282 169.011 173.837 166.479 173.824 164.924 172.254 163.37 170.685 163.383 168.152 164.952 166.598 166.522 165.043 169.055 165.056 170.609 166.626Z" fill="#262626" transform="matrix(-1 0 0 1 532.267 210.5)"/><path d="M532.256 385.313 364.489 379.833 364.511 379.167 532.277 384.646ZM532.397 380.982C534.605 381.054 536.337 382.902 536.264 385.11 536.192 387.318 534.344 389.049 532.136 388.977 529.928 388.905 528.197 387.057 528.269 384.849 528.341 382.641 530.189 380.909 532.397 380.982ZM364.369 383.498C362.161 383.426 360.43 381.577 360.502 379.369 360.574 377.162 362.423 375.43 364.631 375.502 366.839 375.574 368.57 377.423 368.498 379.631 368.426 381.839 366.577 383.57 364.369 383.498Z" fill="#262626"/><path d="M532.038 537.523 364.272 379.743 364.728 379.257 532.495 537.037ZM535.007 534.366C536.616 535.88 536.694 538.411 535.18 540.02 533.667 541.63 531.135 541.707 529.526 540.194 527.917 538.68 527.839 536.149 529.353 534.54 530.866 532.93 533.398 532.853 535.007 534.366ZM361.76 382.414C360.15 380.9 360.073 378.369 361.586 376.76 363.1 375.15 365.631 375.073 367.24 376.586 368.85 378.1 368.927 380.631 367.414 382.24 365.9 383.85 363.369 383.927 361.76 382.414Z" fill="#262626"/><path d="M750.115 218.82 755.321 217.658 755.611 218.959 750.406 220.121ZM759.224 216.786 764.43 215.624 764.72 216.925 759.515 218.087ZM768.333 214.752 773.539 213.59 773.829 214.892 768.624 216.054ZM777.457 212.716 782.685 211.666 782.948 212.973 777.719 214.024ZM786.607 210.878 791.836 209.827 792.099 211.134 786.87 212.185ZM795.758 209.039 800.986 207.988 801.249 209.296 796.02 210.346ZM804.936 207.222 810.199 206.358 810.415 207.673 805.152 208.538ZM814.146 205.709 817.152 205.216 819.439 204.91 819.615 206.232 817.338 206.536 817.358 206.533 814.362 207.025ZM823.403 204.38 828.69 203.673 828.866 204.995 823.58 205.702ZM832.69 203.245 837.999 202.73 838.127 204.057 832.819 204.572ZM841.98 202.344 842.08 202.335 847.349 202.138 847.399 203.471 842.15 203.666 842.189 203.664 842.109 203.671ZM851.346 201.99 853.87 201.896 856.717 201.959 856.687 203.292 853.86 203.229 853.9 203.229 851.396 203.322ZM860.716 202.049 865.105 202.147 866.098 202.252 865.958 203.578 864.992 203.476 865.048 203.479 860.686 203.382ZM870.076 202.673 875.379 203.235 875.239 204.56 869.935 203.999ZM879.367 204.003 884.595 205.061 884.33 206.368 879.103 205.309ZM888.501 206.239 893.546 207.967 893.114 209.228 888.069 207.501ZM897.279 209.621 902.042 212.021 901.442 213.212 896.679 210.812ZM905.491 214.227 909.813 217.351 909.032 218.432 904.71 215.308ZM912.824 220.142 916.523 223.984 915.563 224.909 911.863 221.067ZM918.999 227.257 921.965 231.689 920.857 232.431 917.891 227.998ZM923.985 235.23 925.358 237.974 926.234 240.117 925 240.622 924.133 238.502 924.154 238.548 922.793 235.826ZM927.743 243.864 929.461 248.913 928.199 249.343 926.481 244.294ZM930.589 252.788 931.583 256.331 931.979 257.96 930.684 258.276 930.29 256.658 930.296 256.68 929.305 253.148ZM932.925 261.847 933.338 263.543 934.053 267.086 932.746 267.349 932.034 263.819 932.04 263.845 931.63 262.162ZM934.843 271.007 934.905 271.314 935.783 276.273 934.47 276.505 933.594 271.554 933.597 271.569 933.536 271.27ZM936.459 280.235 937.23 285.513 935.911 285.705 935.14 280.428ZM937.754 289.504 938.317 294.807 936.991 294.948 936.428 289.644ZM938.74 298.785 939.303 304.088 937.977 304.229 937.414 298.926ZM939.649 308.102 939.976 313.425 938.646 313.507 938.318 308.184ZM940.222 317.418 940.549 322.741 939.219 322.823 938.891 317.5ZM940.753 326.762 940.869 332.094 939.536 332.123 939.42 326.791ZM940.956 336.093 941.073 341.425 939.74 341.454 939.623 336.122ZM941.16 345.424 941.167 345.747 941.105 350.779 939.772 350.763 939.833 345.742 939.834 345.765 939.827 345.453ZM941.057 354.779 940.992 360.112 939.658 360.096 939.723 354.763ZM940.943 364.112 940.917 366.272 940.742 369.469 939.41 369.396 939.584 366.214 939.583 366.242 939.61 364.096ZM940.523 373.463 940.232 378.788 938.9 378.715 939.192 373.39ZM940.013 382.782 939.79 386.862 939.673 388.129 938.345 388.006 938.461 386.751 938.459 386.776 938.682 382.709ZM939.304 392.112 938.812 397.422 937.484 397.299 937.976 391.989ZM938.443 401.405 937.952 406.716 936.624 406.593 937.116 401.282ZM937.412 410.711 936.672 415.992 935.352 415.807 936.092 410.526ZM936.117 419.954 935.377 425.235 934.056 425.05 934.796 419.769ZM934.698 429.209 933.699 434.448 932.389 434.199 933.388 428.96ZM932.95 438.378 931.951 443.617 930.642 443.367 931.64 438.128ZM931.097 447.556 929.847 452.741 928.551 452.428 929.801 447.244ZM928.817 456.631 927.372 461.765 926.089 461.404 927.534 456.27ZM926.189 465.609 924.573 470.692 923.303 470.288 924.918 465.205ZM923.206 474.479 921.745 478.497 921.307 479.505 920.084 478.975 920.513 477.985 920.499 478.022 921.952 474.024ZM919.716 483.175 918.667 485.594 917.445 488.038 916.252 487.442 917.466 485.014 917.451 485.047 918.493 482.644ZM915.656 491.616 915.399 492.13 912.974 496.275 911.823 495.602 914.237 491.476 914.216 491.514 914.464 491.02ZM910.782 499.684 908.152 503.41 907.609 504.044 906.596 503.178 907.118 502.567 907.08 502.616 909.692 498.915ZM905.009 507.084 904.049 508.207 901.241 510.938 900.311 509.982 903.098 507.272 903.056 507.317 903.996 506.218ZM898.241 513.666 894.34 516.845 894.054 517.045 893.288 515.954 893.555 515.767 893.516 515.796 897.399 512.633ZM890.778 519.342 888.865 520.684 886.265 522.26 885.574 521.12 888.154 519.555 888.117 519.579 890.013 518.25ZM882.802 524.347 878.07 526.808 877.455 525.625 882.187 523.164ZM874.384 528.491 869.462 530.546 868.948 529.315 873.87 527.261ZM865.771 532.087 862.979 533.252 860.72 533.964 860.319 532.692 862.55 531.989 862.493 532.01 865.257 530.856ZM856.905 535.166 851.818 536.769 851.418 535.497 856.504 533.894ZM847.955 537.979 842.765 539.206 842.458 537.908 847.648 536.681ZM838.872 540.126 833.682 541.353 833.375 540.056 838.565 538.829ZM829.723 542.152 824.467 543.06 824.24 541.746 829.495 540.838ZM820.525 543.741 815.27 544.649 815.043 543.335 820.298 542.427ZM811.274 545.172 805.982 545.838 805.816 544.515 811.107 543.849ZM802.014 546.338 796.945 546.976 796.694 546.997 796.582 545.668 796.819 545.648 796.792 545.651 801.847 545.015ZM792.708 547.333 787.394 547.782 787.281 546.454 792.596 546.005ZM783.408 548.119 778.421 548.54 778.072 548.559 778.001 547.227 778.34 547.209 778.319 547.211 783.296 546.79ZM774.077 548.77 768.751 549.051 768.681 547.719 774.007 547.438ZM764.757 549.262 759.465 549.541 759.415 549.543 759.377 548.21 759.418 548.209 759.402 548.209 764.687 547.93ZM755.417 549.659 750.086 549.815 750.047 548.482 755.378 548.327ZM746.088 549.932 740.757 550.088 740.718 548.755 746.049 548.599ZM736.74 550.115 731.406 550.133 731.402 548.799 736.735 548.782ZM727.406 550.145 722.073 550.163 722.069 548.829 727.402 548.812ZM718.064 550.14 712.731 550.088 712.744 548.755 718.077 548.807ZM708.732 550.049 703.398 549.998 703.411 548.664 708.745 548.716ZM699.39 549.931 694.058 549.809 694.089 548.476 699.421 548.598ZM690.059 549.718 684.728 549.596 684.758 548.263 690.09 548.385ZM680.724 549.492 675.393 549.333 675.433 548 680.764 548.16ZM671.395 549.213 666.064 549.053 666.104 547.72 671.435 547.88ZM662.062 548.922 656.732 548.727 656.781 547.395 662.111 547.59ZM652.735 548.581 652.138 548.559 652.187 547.227 652.784 547.248ZM653.348 551.939 645.5 547.649 653.641 543.944Z" fill="#0D0D0D"/><path d="M762.506 288.836 767.84 288.887 767.827 290.22 762.494 290.169ZM771.839 288.925 775.323 288.958 777.179 288.996 777.152 290.329 775.299 290.292 775.306 290.292 771.827 290.258ZM781.179 289.078 786.511 289.187 786.484 290.52 781.151 290.411ZM790.517 289.304 795.848 289.477 795.804 290.809 790.474 290.637ZM799.857 289.62 805.184 289.891 805.116 291.222 799.789 290.951ZM809.178 290.094 810.229 290.147 814.513 290.457 814.417 291.787 810.139 291.477 810.154 291.478 809.111 291.425ZM818.503 290.745 820.616 290.898 823.829 291.185 823.711 292.513 820.503 292.227 820.515 292.227 818.407 292.075ZM827.813 291.54 830.441 291.774 833.133 292.067 832.989 293.393 830.303 293.1 830.316 293.102 827.695 292.868ZM837.11 292.5 839.642 292.776 842.419 293.138 842.247 294.46 839.476 294.099 839.49 294.1 836.966 293.826ZM846.385 293.655 848.285 293.903 851.679 294.46 851.463 295.776 848.08 295.22 848.101 295.224 846.213 294.977ZM855.626 295.107 856.302 295.218 860.887 296.066 860.644 297.377 856.066 296.531 856.08 296.533 855.411 296.423ZM864.831 296.823 870.049 297.924 869.774 299.229 864.556 298.128ZM873.957 298.914 876.864 299.67 879.119 300.321 878.749 301.602 876.503 300.953 876.52 300.958 873.621 300.204ZM882.987 301.465 887.61 303.063 888.053 303.244 887.549 304.479 887.123 304.305 887.157 304.318 882.551 302.725ZM891.756 304.757 892.084 304.891 896.008 306.79 896.629 307.172 895.93 308.307 895.338 307.943 895.397 307.975 891.522 306.1 891.56 306.117 891.252 305.991ZM900.041 309.348 902.058 310.803 904.147 312.891 903.204 313.834 901.154 311.784 901.235 311.853 899.261 310.43ZM906.434 316.432 906.833 317.309 907.173 319.551 906.902 321.848 906.788 322.147 905.543 321.671 905.627 321.449 905.588 321.61 905.838 319.485 905.841 319.662 905.528 317.6 905.581 317.776 905.22 316.983ZM904.904 325.815 904.583 326.295 902.513 328.431 900.966 329.676 900.13 328.637 901.645 327.418 901.584 327.473 903.584 325.411 903.508 325.505 903.794 325.075ZM897.624 331.992 896.71 332.577 892.979 334.537 892.859 334.591 892.312 333.375 892.414 333.329 892.377 333.347 896.065 331.41 896.016 331.439 896.905 330.869ZM889.21 336.231 888.627 336.493 884.65 337.951 884.191 336.699 888.146 335.249 888.102 335.267 888.664 335.015ZM886.986 340.671 878.119 339.5 884.376 333.109Z" fill="#0D0D0D"/></g></svg>