<?xml version="1.0" encoding="UTF-8" standalone="no"?>
<!-- Created with Inkscape (http://www.inkscape.org/) -->

<svg
   xmlns:dc="http://purl.org/dc/elements/1.1/"
   xmlns:cc="http://creativecommons.org/ns#"
   xmlns:rdf="http://www.w3.org/1999/02/22-rdf-syntax-ns#"
   xmlns:svg="http://www.w3.org/2000/svg"
   xmlns="http://www.w3.org/2000/svg"
   xmlns:sodipodi="http://sodipodi.sourceforge.net/DTD/sodipodi-0.dtd"
   xmlns:inkscape="http://www.inkscape.org/namespaces/inkscape"
   width="120.98934mm"
   height="135.14005mm"
   viewBox="0 0 120.98934 135.14005"
   version="1.1"
   id="svg8"
   inkscape:version="0.92.3 (2405546, 2018-03-11)"
   sodipodi:docname="BlueBanquise_logo_editable.svg">
  <defs
     id="defs2" />
  <sodipodi:namedview
     id="base"
     pagecolor="#ffffff"
     bordercolor="#666666"
     borderopacity="1.0"
     inkscape:pageopacity="0.0"
     inkscape:pageshadow="2"
     inkscape:zoom="1.0047448"
     inkscape:cx="366.46784"
     inkscape:cy="243.82649"
     inkscape:document-units="mm"
     inkscape:current-layer="layer1"
     showgrid="false"
     inkscape:window-width="1920"
     inkscape:window-height="986"
     inkscape:window-x="-11"
     inkscape:window-y="-11"
     inkscape:window-maximized="1"
     fit-margin-top="0"
     fit-margin-left="0"
     fit-margin-right="0"
     fit-margin-bottom="0" />
  <metadata
     id="metadata5">
    <rdf:RDF>
      <cc:Work
         rdf:about="">
        <dc:format>image/svg+xml</dc:format>
        <dc:type
           rdf:resource="http://purl.org/dc/dcmitype/StillImage" />
        <dc:title></dc:title>
      </cc:Work>
    </rdf:RDF>
  </metadata>
  <g
     inkscape:label="Layer 1"
     inkscape:groupmode="layer"
     id="layer1"
     transform="translate(-43.693897,-45.900234)">
    <path
       style="opacity:0.3;fill:#141414;fill-opacity:1;stroke:none;stroke-width:0.77927208;stroke-miterlimit:4;stroke-dasharray:none;stroke-opacity:1"
       d="m 116.95381,66.027341 c -0.68118,-1.087896 -1.37809,-2.213485 -1.54866,-2.501298 l -0.31011,-0.523304 0.57829,-0.434666 c 0.31807,-0.239062 0.61812,-0.387112 0.66679,-0.328997 0.12039,0.143814 1.95333,5.676817 1.89704,5.726619 -0.0247,0.02179 -0.60216,-0.850457 -1.28335,-1.938354 z"
       id="path874"
       inkscape:connector-curvature="0" />
    <path
       style="opacity:0.3;fill:#141414;fill-opacity:1;stroke:none;stroke-width:0.6325019;stroke-miterlimit:4;stroke-dasharray:none;stroke-opacity:1"
       d="m 100.48578,62.760973 c -1.842968,-1.110397 -3.352262,-2.059515 -3.353984,-2.109152 -0.0016,-0.04964 1.479615,-2.900125 3.291854,-6.334413 l 3.295,-6.24416 0.0729,2.714042 c 0.15892,5.914275 0.24391,14.007068 0.147,14.000011 -0.0561,-0.0041 -1.60983,-0.915934 -3.4528,-2.026328 z"
       id="path872"
       inkscape:connector-curvature="0" />
    <path
       style="opacity:0.3;fill:#141414;fill-opacity:1;stroke:none;stroke-width:0.7227788;stroke-miterlimit:4;stroke-dasharray:none;stroke-opacity:1"
       d="m 93.314177,64.716569 c -2.226343,-2.449831 -2.770858,-3.117909 -2.639433,-3.238366 0.294978,-0.270352 3.870576,-2.266861 3.938184,-2.198964 0.09875,0.09917 1.58221,8.122591 1.541536,8.337539 -0.01946,0.102812 -1.293025,-1.197624 -2.840287,-2.900209 z"
       id="path870"
       inkscape:connector-curvature="0" />
    <path
       style="opacity:0.3;fill:#141414;fill-opacity:1;stroke:none;stroke-width:0.61831313;stroke-miterlimit:4;stroke-dasharray:none;stroke-opacity:1"
       d="m 80.672698,66.957828 c -3.012314,-1.825811 -5.455581,-3.364897 -5.429486,-3.420189 0.07689,-0.162907 8.572253,-7.923791 8.673685,-7.923791 0.05093,0 0.436035,2.221533 0.855801,4.936745 0.419765,2.715211 0.931073,6.017166 1.136238,7.337679 0.205166,1.320509 0.343255,2.398295 0.306864,2.395073 -0.03639,-0.0032 -2.530788,-1.499704 -5.543102,-3.325517 z"
       id="path868"
       inkscape:connector-curvature="0" />
    <path
       style="opacity:0.3;fill:#141414;fill-opacity:1;stroke:none;stroke-width:0.66922212;stroke-miterlimit:4;stroke-dasharray:none;stroke-opacity:1"
       d="m 67.724151,69.828121 c -1.398603,-0.544496 -2.643945,-1.032517 -2.767425,-1.08449 -0.186562,-0.07853 0.376336,-0.62485 3.330001,-3.231986 1.954987,-1.725619 3.566884,-3.126281 3.582,-3.112582 0.02175,0.01972 -1.442084,7.745675 -1.569159,8.281885 -0.02019,0.08523 -0.995411,-0.237711 -2.575417,-0.852827 z"
       id="path866"
       inkscape:connector-curvature="0" />
    <path
       style="opacity:1;fill:#108bde;fill-opacity:1;stroke:none;stroke-width:0.63875329;stroke-miterlimit:4;stroke-dasharray:none;stroke-opacity:1"
       d="m 98.920764,166.14094 c -0.04921,-0.15198 -0.858823,-3.45422 -1.799128,-7.3383 l -1.709643,-7.06196 2.446214,-11.08384 c 1.345416,-6.09611 2.452173,-11.07563 2.459463,-11.06561 0.008,0.009 -0.2681,7.82745 -0.611942,17.37207 -0.343848,9.54461 -0.640995,17.82637 -0.660328,18.40391 -0.02318,0.69242 -0.06562,0.95595 -0.124636,0.77373 z"
       id="path882"
       inkscape:connector-curvature="0" />
    <path
       style="opacity:1;fill:#108bde;fill-opacity:1;stroke:none;stroke-width:0.6949532;stroke-miterlimit:4;stroke-dasharray:none;stroke-opacity:1"
       d="m 83.722424,143.83927 -1.105405,-2.30287 0.557168,-2.6003 c 0.306438,-1.43018 0.812209,-3.73655 1.123928,-5.12529 l 0.566766,-2.52499 0.01496,7.42815 c 0.0082,4.08549 -1.02e-4,7.42816 -0.01851,7.42816 -0.01845,0 -0.530936,-1.03629 -1.138907,-2.30286 z"
       id="path878"
       inkscape:connector-curvature="0" />
    <path
       style="opacity:1;fill:#108bde;fill-opacity:1;stroke:none;stroke-width:0.61779708;stroke-miterlimit:4;stroke-dasharray:none;stroke-opacity:1"
       d="m 85.166471,163.73313 c -2.028198,-8.31715 -3.720778,-15.19872 -3.761286,-15.29235 -0.06166,-0.14252 0.85208,-5.49291 1.026937,-6.01319 0.03114,-0.0926 0.55678,1.05644 1.168099,2.55353 0.611318,1.49708 1.163623,2.81135 1.227345,2.92057 0.17103,0.2932 0.71712,0.25881 0.901253,-0.0567 0.08195,-0.14042 0.553369,-1.78746 1.047593,-3.66005 0.862386,-3.26754 0.899734,-3.37727 0.927021,-2.72377 0.136967,3.28026 1.20726,36.83259 1.182705,37.07631 -0.01761,0.17481 -1.691465,-6.48712 -3.719667,-14.8043 z"
       id="path880"
       inkscape:connector-curvature="0" />
    <path
       style="opacity:1;fill:#108bde;fill-opacity:1;stroke:none;stroke-width:0.59625965;stroke-miterlimit:4;stroke-dasharray:none;stroke-opacity:1"
       d="m 73.162844,156.98422 -2.958475,-10.47791 2.107615,-9.72883 c 1.177586,-5.43577 2.11974,-9.5645 2.135098,-9.35643 0.08146,1.10361 1.730924,39.61731 1.705029,39.81091 -0.01693,0.12659 -1.362104,-4.48489 -2.989267,-10.24774 z"
       id="path876"
       inkscape:connector-curvature="0" />
    <path
       style="fill:none;stroke:#141414;stroke-width:1;stroke-linecap:butt;stroke-linejoin:round;stroke-miterlimit:4;stroke-dasharray:none;stroke-opacity:1"
       d="m 125.10963,94.32796 -22.30106,78.78711 2.30504,-31.5279 -5.85767,27.53103 1.46442,-43.6396 -11.42245,55.06204 -1.46441,-41.8823 -2.63596,9.37225 v -20.79471 l -8.49361,43.63961 -2.05018,-46.86131 -5.85767,26.94525 -24.60219,-74.68523 14.0584,-10.25091 12.30109,4.97901 1.7573,-9.37226 14.35128,9.07938 -2.34307,-15.8157 12.3011,13.47263 -1.7573,-9.37226 9.37227,6.15055 -0.29289,-18.74453 15.8157,24.60219 -3.22172,-9.37226 12.88687,14.64416"
       id="path899"
       inkscape:connector-curvature="0"
       sodipodi:nodetypes="ccccccccccccccccccccccccc" />
    <path
       style="fill:none;stroke:#141414;stroke-width:1;stroke-linecap:butt;stroke-linejoin:miter;stroke-miterlimit:4;stroke-dasharray:none;stroke-opacity:1"
       d="m 72.31068,61.63004 -7.92503,7.17464"
       id="path901"
       inkscape:connector-curvature="0" />
    <path
       style="fill:none;stroke:#141414;stroke-width:1;stroke-linecap:butt;stroke-linejoin:miter;stroke-miterlimit:4;stroke-dasharray:none;stroke-opacity:1"
       d="m 84.31889,54.89372 -9.13406,8.74613"
       id="path903"
       inkscape:connector-curvature="0" />
    <path
       style="fill:none;stroke:#141414;stroke-width:1;stroke-linecap:butt;stroke-linejoin:miter;stroke-miterlimit:4;stroke-dasharray:none;stroke-opacity:1"
       d="m 94.86269,58.99409 -4.41815,2.53288"
       id="path905"
       inkscape:connector-curvature="0" />
    <path
       style="fill:none;stroke:#141414;stroke-width:1;stroke-linecap:butt;stroke-linejoin:miter;stroke-miterlimit:4;stroke-dasharray:none;stroke-opacity:1"
       d="M 103.94207,46.40011 97.13533,60.47053"
       id="path907"
       inkscape:connector-curvature="0" />
    <path
       style="fill:none;stroke:#141414;stroke-width:1;stroke-linecap:butt;stroke-linejoin:miter;stroke-miterlimit:4;stroke-dasharray:none;stroke-opacity:1"
       d="m 116.53605,61.63004 -2.02813,1.54028"
       id="path911"
       inkscape:connector-curvature="0"
       sodipodi:nodetypes="cc" />
    <path
       style="fill:none;stroke:#141414;stroke-width:1;stroke-linecap:butt;stroke-linejoin:miter;stroke-miterlimit:4;stroke-dasharray:none;stroke-opacity:1"
       d="m 69.81045,146.31092 6.80131,24.01155"
       id="path913"
       inkscape:connector-curvature="0"
       sodipodi:nodetypes="cc" />
    <path
       style="fill:none;stroke:#141414;stroke-width:1;stroke-linecap:butt;stroke-linejoin:miter;stroke-miterlimit:4;stroke-dasharray:none;stroke-opacity:1"
       d="m 85.19754,148.03059 -2.735,-6.33148"
       id="path915"
       inkscape:connector-curvature="0" />
    <path
       style="fill:none;stroke:#141414;stroke-width:1;stroke-linecap:butt;stroke-linejoin:miter;stroke-miterlimit:4;stroke-dasharray:none;stroke-opacity:1"
       d="M 89.29791,180.54064 81.10437,148.86811"
       id="path917"
       inkscape:connector-curvature="0"
       sodipodi:nodetypes="cc" />
    <path
       style="fill:none;stroke:#141414;stroke-width:1;stroke-linecap:butt;stroke-linejoin:miter;stroke-miterlimit:4;stroke-dasharray:none;stroke-opacity:1"
       d="M 99.25594,169.1182 95.25721,151.55056"
       id="path919"
       inkscape:connector-curvature="0"
       sodipodi:nodetypes="cc" />
    <text
       xml:space="preserve"
       style="font-style:normal;font-variant:normal;font-weight:normal;font-stretch:normal;font-size:10.58333302px;line-height:1.25;font-family:Uroob;-inkscape-font-specification:Uroob;letter-spacing:0px;word-spacing:0px;fill:#000000;fill-opacity:1;stroke:none;stroke-width:0.26458332"
       x="58.287643"
       y="91.440544"
       id="text935"><tspan
         sodipodi:role="line"
         id="tspan933"
         x="58.287643"
         y="91.440544"
         style="font-style:normal;font-variant:normal;font-weight:normal;font-stretch:normal;font-size:16.93333244px;font-family:Lato;-inkscape-font-specification:Lato;fill:#565656;fill-opacity:1;stroke-width:0.26458332"><tspan
   style="fill:#108bde;fill-opacity:1"
   id="tspan1112">Blue</tspan>Banquise</tspan></text>
    <path
       style="fill:none;stroke:#108bde;stroke-width:0.96799999;stroke-linecap:round;stroke-linejoin:miter;stroke-miterlimit:4;stroke-dasharray:none;stroke-opacity:1"
       d="m 44.19389,76.2742 119.99846,0.027"
       id="path937"
       inkscape:connector-curvature="0"
       sodipodi:nodetypes="cc" />
  </g>
</svg>
