<?xml version="1.0" encoding="UTF-8" standalone="no"?>
<!-- Created with Inkscape (http://www.inkscape.org/) -->

<svg
   xmlns:dc="http://purl.org/dc/elements/1.1/"
   xmlns:cc="http://creativecommons.org/ns#"
   xmlns:rdf="http://www.w3.org/1999/02/22-rdf-syntax-ns#"
   xmlns:svg="http://www.w3.org/2000/svg"
   xmlns="http://www.w3.org/2000/svg"
   xmlns:sodipodi="http://sodipodi.sourceforge.net/DTD/sodipodi-0.dtd"
   xmlns:inkscape="http://www.inkscape.org/namespaces/inkscape"
   width="358.58615mm"
   height="140.13411mm"
   viewBox="0 0 358.58615 140.13411"
   version="1.1"
   id="svg8"
   inkscape:version="0.92.3 (2405546, 2018-03-11)"
   sodipodi:docname="BlueBanquise_logo_large.svg">
  <defs
     id="defs2" />
  <sodipodi:namedview
     id="base"
     pagecolor="#ffffff"
     bordercolor="#666666"
     borderopacity="1.0"
     inkscape:pageopacity="0.0"
     inkscape:pageshadow="2"
     inkscape:zoom="1.0101187"
     inkscape:cx="680.79538"
     inkscape:cy="283.31844"
     inkscape:document-units="mm"
     inkscape:current-layer="layer1"
     showgrid="false"
     inkscape:window-width="1920"
     inkscape:window-height="986"
     inkscape:window-x="-11"
     inkscape:window-y="-11"
     inkscape:window-maximized="1"
     fit-margin-top="0"
     fit-margin-left="0"
     fit-margin-right="0"
     fit-margin-bottom="0" />
  <metadata
     id="metadata5">
    <rdf:RDF>
      <cc:Work
         rdf:about="">
        <dc:format>image/svg+xml</dc:format>
        <dc:type
           rdf:resource="http://purl.org/dc/dcmitype/StillImage" />
        <dc:title />
      </cc:Work>
    </rdf:RDF>
  </metadata>
  <g
     inkscape:label="Layer 1"
     inkscape:groupmode="layer"
     id="layer1"
     transform="translate(90.153831,-43.525497)">
    <path
       style="opacity:0.3;fill:#141414;fill-opacity:1;stroke:none;stroke-width:0.77927208;stroke-miterlimit:4;stroke-dasharray:none;stroke-opacity:1"
       d="m 116.99215,66.075748 c -0.68118,-1.087896 -1.37809,-2.213485 -1.54866,-2.501298 l -0.31011,-0.523304 0.57829,-0.434666 c 0.31807,-0.239062 0.61812,-0.387112 0.66679,-0.328997 0.12039,0.143814 1.95333,5.676817 1.89704,5.726619 -0.0247,0.02179 -0.60216,-0.850457 -1.28335,-1.938354 z"
       id="path874-1"
       inkscape:connector-curvature="0" />
    <path
       style="opacity:0.3;fill:#141414;fill-opacity:1;stroke:none;stroke-width:0.63250196;stroke-miterlimit:4;stroke-dasharray:none;stroke-opacity:1"
       d="m 100.5241,62.80938 c -1.842963,-1.110397 -3.352255,-2.059515 -3.353978,-2.109152 -0.0016,-0.04964 1.479614,-2.900125 3.291858,-6.334413 l 3.29501,-6.24416 0.0729,2.714042 c 0.15892,5.914275 0.24391,14.007068 0.147,14.000011 -0.0561,-0.0041 -1.60983,-0.915934 -3.45281,-2.026328 z"
       id="path872-4"
       inkscape:connector-curvature="0" />
    <path
       style="opacity:0.3;fill:#141414;fill-opacity:1;stroke:none;stroke-width:0.7227788;stroke-miterlimit:4;stroke-dasharray:none;stroke-opacity:1"
       d="m 93.352502,64.764976 c -2.226341,-2.449831 -2.770856,-3.117909 -2.639433,-3.238366 0.294979,-0.270352 3.870577,-2.266861 3.938186,-2.198964 0.09875,0.09917 1.582208,8.122591 1.541534,8.337539 -0.01947,0.102812 -1.293024,-1.197624 -2.840287,-2.900209 z"
       id="path870-6"
       inkscape:connector-curvature="0" />
    <path
       style="opacity:0.3;fill:#141414;fill-opacity:1;stroke:none;stroke-width:0.61831313;stroke-miterlimit:4;stroke-dasharray:none;stroke-opacity:1"
       d="m 80.711023,67.006235 c -3.012313,-1.825811 -5.455581,-3.364897 -5.429485,-3.420189 0.07689,-0.162907 8.572253,-7.923791 8.673684,-7.923791 0.05093,0 0.436036,2.221533 0.855803,4.936745 0.419764,2.715211 0.931071,6.017166 1.136237,7.337679 0.205166,1.320509 0.343255,2.398295 0.306864,2.395073 -0.03639,-0.0032 -2.530787,-1.499704 -5.543103,-3.325517 z"
       id="path868-2"
       inkscape:connector-curvature="0" />
    <path
       style="opacity:0.3;fill:#141414;fill-opacity:1;stroke:none;stroke-width:0.66922212;stroke-miterlimit:4;stroke-dasharray:none;stroke-opacity:1"
       d="m 67.762476,69.876528 c -1.398603,-0.544496 -2.643945,-1.032517 -2.767425,-1.08449 -0.186562,-0.07853 0.376336,-0.62485 3.330001,-3.231986 1.954987,-1.725619 3.566885,-3.126281 3.582,-3.112582 0.02175,0.01972 -1.442085,7.745675 -1.569159,8.281886 -0.02019,0.08523 -0.995411,-0.237711 -2.575417,-0.852828 z"
       id="path866-4"
       inkscape:connector-curvature="0" />
    <path
       style="opacity:1;fill:#108bde;fill-opacity:1;stroke:none;stroke-width:0.63875329;stroke-miterlimit:4;stroke-dasharray:none;stroke-opacity:1"
       d="m 98.959089,166.18974 c -0.04921,-0.15199 -0.858821,-3.45424 -1.799127,-7.33835 l -1.709644,-7.062 2.446215,-11.08391 c 1.345415,-6.09614 2.452167,-11.07569 2.459467,-11.06567 0.008,0.009 -0.26811,7.8275 -0.611947,17.37217 -0.343848,9.54466 -0.640993,17.82647 -0.660326,18.40402 -0.02318,0.69242 -0.06562,0.95595 -0.124638,0.77374 z"
       id="path882-5"
       inkscape:connector-curvature="0" />
    <path
       style="opacity:1;fill:#108bde;fill-opacity:1;stroke:none;stroke-width:0.6949532;stroke-miterlimit:4;stroke-dasharray:none;stroke-opacity:1"
       d="m 83.760751,143.88793 -1.105406,-2.30288 0.557168,-2.60031 c 0.306438,-1.43019 0.812207,-3.73658 1.123929,-5.12532 l 0.566764,-2.52501 0.01495,7.4282 c 0.0082,4.08551 -1.01e-4,7.4282 -0.01852,7.4282 -0.01844,0 -0.530937,-1.0363 -1.138907,-2.30288 z"
       id="path878-5"
       inkscape:connector-curvature="0" />
    <path
       style="opacity:1;fill:#108bde;fill-opacity:1;stroke:none;stroke-width:0.61779714;stroke-miterlimit:4;stroke-dasharray:none;stroke-opacity:1"
       d="m 85.204796,163.78191 c -2.028198,-8.3172 -3.720777,-15.19881 -3.761285,-15.29244 -0.06166,-0.14252 0.85208,-5.49294 1.026936,-6.01322 0.03114,-0.0926 0.556781,1.05644 1.168101,2.55354 0.611317,1.49709 1.163621,2.81137 1.227344,2.92059 0.171029,0.2932 0.717118,0.25881 0.901252,-0.0567 0.08195,-0.14042 0.553368,-1.78747 1.047594,-3.66007 0.862386,-3.26756 0.899734,-3.37729 0.927021,-2.72379 0.136967,3.28028 1.207259,36.8328 1.182706,37.07652 -0.01762,0.17481 -1.691465,-6.48715 -3.719669,-14.80438 z"
       id="path880-4"
       inkscape:connector-curvature="0" />
    <path
       style="opacity:1;fill:#108bde;fill-opacity:1;stroke:none;stroke-width:0.59625965;stroke-miterlimit:4;stroke-dasharray:none;stroke-opacity:1"
       d="m 73.201169,157.03296 -2.958476,-10.47797 2.107616,-9.72889 c 1.177586,-5.4358 2.119741,-9.56455 2.135097,-9.35648 0.08146,1.10362 1.730926,39.61754 1.705031,39.81115 -0.01693,0.12658 -1.362104,-4.48493 -2.989268,-10.24781 z"
       id="path876-5"
       inkscape:connector-curvature="0" />
    <path
       style="fill:none;stroke:#141414;stroke-width:1;stroke-linecap:butt;stroke-linejoin:round;stroke-miterlimit:4;stroke-dasharray:none;stroke-opacity:1"
       d="m 125.14797,94.37638 -22.30106,78.78752 2.30504,-31.52808 -5.857684,27.53119 1.464424,-43.63985 -11.422454,55.06235 -1.464411,-41.88253 -2.635959,9.3723 v -20.79483 l -8.493612,43.63986 -2.050179,-46.86158 -5.85767,26.9454 -24.60219,-74.68552 14.0584,-10.250913 12.30109,4.979011 1.757299,-9.372261 14.351281,9.079381 -2.343068,-15.815701 12.301098,13.47263 -1.757299,-9.37226 9.372284,6.15055 -0.29289,-18.74453 15.8157,24.602191 -3.22172,-9.372261 12.88687,14.644163"
       id="path899-9"
       inkscape:connector-curvature="0"
       sodipodi:nodetypes="ccccccccccccccccccccccccc" />
    <path
       style="fill:none;stroke:#141414;stroke-width:1;stroke-linecap:butt;stroke-linejoin:miter;stroke-miterlimit:4;stroke-dasharray:none;stroke-opacity:1"
       d="m 72.349004,61.678447 -7.925029,7.17464"
       id="path901-1"
       inkscape:connector-curvature="0" />
    <path
       style="fill:none;stroke:#141414;stroke-width:1;stroke-linecap:butt;stroke-linejoin:miter;stroke-miterlimit:4;stroke-dasharray:none;stroke-opacity:1"
       d="m 84.357217,54.942127 -9.134062,8.74613"
       id="path903-0"
       inkscape:connector-curvature="0" />
    <path
       style="fill:none;stroke:#141414;stroke-width:1;stroke-linecap:butt;stroke-linejoin:miter;stroke-miterlimit:4;stroke-dasharray:none;stroke-opacity:1"
       d="m 94.901016,59.042497 -4.41815,2.53288"
       id="path905-7"
       inkscape:connector-curvature="0" />
    <path
       style="fill:none;stroke:#141414;stroke-width:1;stroke-linecap:butt;stroke-linejoin:miter;stroke-miterlimit:4;stroke-dasharray:none;stroke-opacity:1"
       d="m 103.98041,46.448517 -6.806755,14.07042"
       id="path907-2"
       inkscape:connector-curvature="0" />
    <path
       style="fill:none;stroke:#141414;stroke-width:1;stroke-linecap:butt;stroke-linejoin:miter;stroke-miterlimit:4;stroke-dasharray:none;stroke-opacity:1"
       d="m 116.57439,61.678447 -2.02813,1.54028"
       id="path911-0"
       inkscape:connector-curvature="0"
       sodipodi:nodetypes="cc" />
    <path
       style="fill:none;stroke:#141414;stroke-width:1;stroke-linecap:butt;stroke-linejoin:miter;stroke-miterlimit:4;stroke-dasharray:none;stroke-opacity:1"
       d="m 69.848775,146.3596 6.801309,24.01168"
       id="path913-5"
       inkscape:connector-curvature="0"
       sodipodi:nodetypes="cc" />
    <path
       style="fill:none;stroke:#141414;stroke-width:1;stroke-linecap:butt;stroke-linejoin:miter;stroke-miterlimit:4;stroke-dasharray:none;stroke-opacity:1"
       d="m 85.235866,148.07928 -2.735,-6.33152"
       id="path915-9"
       inkscape:connector-curvature="0" />
    <path
       style="fill:none;stroke:#141414;stroke-width:1;stroke-linecap:butt;stroke-linejoin:miter;stroke-miterlimit:4;stroke-dasharray:none;stroke-opacity:1"
       d="M 89.336236,180.58951 81.142696,148.9168"
       id="path917-9"
       inkscape:connector-curvature="0"
       sodipodi:nodetypes="cc" />
    <path
       style="fill:none;stroke:#141414;stroke-width:1;stroke-linecap:butt;stroke-linejoin:miter;stroke-miterlimit:4;stroke-dasharray:none;stroke-opacity:1"
       d="m 99.294266,169.16701 -3.99873,-17.56774"
       id="path919-2"
       inkscape:connector-curvature="0"
       sodipodi:nodetypes="cc" />
    <g
       transform="translate(0.03832294,0.04840324)"
       aria-label="BlueBanquise"
       style="font-style:normal;font-variant:normal;font-weight:normal;font-stretch:normal;font-size:10.58333302px;line-height:1.25;font-family:Uroob;-inkscape-font-specification:Uroob;letter-spacing:0px;word-spacing:0px;fill:#000000;fill-opacity:1;stroke:none;stroke-width:0.26458332"
       id="text935-1">
      <path
         inkscape:connector-curvature="0"
         d="M 59.760843,91.440544 V 79.307811 h 3.869267 q 1.1176,0 1.921933,0.220134 0.8128,0.220133 1.329267,0.626533 0.524933,0.4064 0.770466,0.999067 0.254,0.5842 0.254,1.3208 0,0.448733 -0.143933,0.8636 -0.135467,0.414866 -0.423333,0.770466 -0.2794,0.3556 -0.7112,0.635 -0.423334,0.2794 -0.999067,0.4572 1.329267,0.262467 2.0066,0.956733 0.677333,0.694267 0.677333,1.8288 0,0.770467 -0.287866,1.405467 -0.2794,0.635 -0.829734,1.0922 -0.541866,0.4572 -1.337733,0.7112 -0.7874,0.245533 -1.8034,0.245533 z m 1.642534,-5.528733 v 4.224867 h 2.624666 q 0.702733,0 1.202267,-0.160867 0.508,-0.160867 0.829733,-0.448733 0.3302,-0.296334 0.4826,-0.694267 0.1524,-0.4064 0.1524,-0.889 0,-0.9398 -0.668867,-1.481667 -0.6604,-0.550333 -2.0066,-0.550333 z m 0,-1.1684 h 2.167466 q 0.694267,0 1.202267,-0.1524 0.508,-0.1524 0.8382,-0.423333 0.338666,-0.270933 0.499533,-0.651933 0.160867,-0.389467 0.160867,-0.846667 0,-1.0668 -0.643467,-1.566333 -0.643467,-0.499534 -1.998133,-0.499534 h -2.226733 z"
         style="fill:#108bde;fill-opacity:1"
         id="path4546" />
      <path
         inkscape:connector-curvature="0"
         d="M 72.147312,78.969145 V 91.440544 H 70.640245 V 78.969145 Z"
         style="fill:#108bde;fill-opacity:1"
         id="path4548" />
      <path
         inkscape:connector-curvature="0"
         d="m 76.10733,82.863811 v 5.469467 q 0,0.973666 0.448734,1.507066 0.448733,0.5334 1.354666,0.5334 0.6604,0 1.2446,-0.313266 0.5842,-0.313267 1.075267,-0.872067 v -6.3246 h 1.507066 v 8.576733 h -0.897466 q -0.321734,0 -0.4064,-0.313267 l -0.118534,-0.922866 q -0.5588,0.618066 -1.253066,0.999066 -0.694267,0.372534 -1.591734,0.372534 -0.702733,0 -1.244599,-0.2286 -0.5334,-0.237067 -0.897467,-0.6604 -0.364067,-0.423333 -0.550333,-1.024467 -0.1778,-0.601133 -0.1778,-1.329266 v -5.469467 z"
         style="fill:#108bde;fill-opacity:1"
         id="path4550" />
      <path
         inkscape:connector-curvature="0"
         d="m 87.624377,82.728345 q 0.770467,0 1.4224,0.262466 0.651933,0.254 1.126067,0.745067 0.474133,0.4826 0.7366,1.202266 0.270933,0.7112 0.270933,1.6256 0,0.3556 -0.0762,0.474134 -0.0762,0.118533 -0.287867,0.118533 h -5.706533 q 0.01693,0.8128 0.220134,1.413933 0.2032,0.601134 0.5588,1.007534 0.355599,0.397933 0.846666,0.601133 0.491067,0.194733 1.100667,0.194733 0.567266,0 0.973666,-0.127 0.414867,-0.135466 0.7112,-0.287866 0.296334,-0.1524 0.491067,-0.2794 0.2032,-0.135467 0.347133,-0.135467 0.186267,0 0.287867,0.143933 l 0.423333,0.550334 q -0.2794,0.338666 -0.668866,0.592666 -0.389467,0.245533 -0.8382,0.4064 -0.440267,0.160867 -0.9144,0.237067 -0.474134,0.08467 -0.9398,0.08467 -0.889,0 -1.642534,-0.296333 -0.745066,-0.3048 -1.295399,-0.880533 -0.541867,-0.5842 -0.846667,-1.439333 -0.3048,-0.855134 -0.3048,-1.964267 0,-0.897467 0.270933,-1.6764 0.2794,-0.778933 0.795867,-1.3462 0.516467,-0.575733 1.261533,-0.897466 0.745067,-0.3302 1.6764,-0.3302 z m 0.03387,1.109133 q -1.0922,0 -1.718733,0.635 -0.626534,0.626533 -0.778934,1.744133 h 4.665133 q 0,-0.524933 -0.143933,-0.956733 -0.143933,-0.440267 -0.423333,-0.753534 -0.2794,-0.321733 -0.6858,-0.491066 -0.397934,-0.1778 -0.9144,-0.1778 z"
         style="fill:#108bde;fill-opacity:1"
         id="path4552" />
      <path
         inkscape:connector-curvature="0"
         d="M 93.329851,91.440544 V 79.307811 h 3.869267 q 1.1176,0 1.921933,0.220134 0.8128,0.220133 1.329269,0.626533 0.52493,0.4064 0.77046,0.999067 0.254,0.5842 0.254,1.3208 0,0.448733 -0.14393,0.8636 -0.13547,0.414866 -0.42333,0.770466 -0.2794,0.3556 -0.7112,0.635 -0.423336,0.2794 -0.999069,0.4572 1.329269,0.262467 2.006599,0.956733 0.67733,0.694267 0.67733,1.8288 0,0.770467 -0.28786,1.405467 -0.2794,0.635 -0.82974,1.0922 -0.54186,0.4572 -1.337729,0.7112 -0.7874,0.245533 -1.8034,0.245533 z m 1.642533,-5.528733 v 4.224867 h 2.624667 q 0.702733,0 1.202267,-0.160867 0.508,-0.160867 0.829733,-0.448733 0.3302,-0.296334 0.482599,-0.694267 0.1524,-0.4064 0.1524,-0.889 0,-0.9398 -0.668866,-1.481667 -0.6604,-0.550333 -2.0066,-0.550333 z m 0,-1.1684 h 2.167467 q 0.694267,0 1.202267,-0.1524 0.508,-0.1524 0.8382,-0.423333 0.338666,-0.270933 0.499533,-0.651933 0.160867,-0.389467 0.160867,-0.846667 0,-1.0668 -0.643467,-1.566333 -0.643467,-0.499534 -1.998133,-0.499534 h -2.226734 z"
         style="font-style:normal;font-variant:normal;font-weight:normal;font-stretch:normal;font-size:16.93333244px;font-family:Lato;-inkscape-font-specification:Lato;fill:#565656;fill-opacity:1;stroke-width:0.26458332"
         id="path4554" />
      <path
         inkscape:connector-curvature="0"
         d="m 110.33912,91.440544 h -0.66887 q -0.22013,0 -0.3556,-0.06773 -0.13546,-0.06773 -0.1778,-0.287867 l -0.16933,-0.795866 q -0.33867,0.3048 -0.6604,0.550333 -0.32173,0.237066 -0.67733,0.4064 -0.3556,0.160866 -0.762,0.245533 -0.39794,0.08467 -0.889,0.08467 -0.49954,0 -0.9398,-0.135467 -0.4318,-0.143933 -0.75354,-0.423333 -0.32173,-0.2794 -0.51646,-0.702733 -0.18627,-0.4318 -0.18627,-1.016 0,-0.508 0.2794,-0.973667 0.2794,-0.474133 0.89747,-0.8382 0.62653,-0.364067 1.63406,-0.592667 1.00754,-0.237066 2.4638,-0.270933 V 85.95415 q 0,-0.999066 -0.4318,-1.507066 -0.42333,-0.516467 -1.26153,-0.516467 -0.55033,0 -0.93133,0.143934 -0.37254,0.135466 -0.65194,0.313266 -0.27093,0.169333 -0.47413,0.313267 -0.19473,0.135466 -0.38947,0.135466 -0.1524,0 -0.27093,-0.0762 -0.11007,-0.08467 -0.1778,-0.2032 l -0.27093,-0.482599 q 0.7112,-0.6858 1.53246,-1.024467 0.82127,-0.338667 1.82034,-0.338667 0.71966,0 1.27846,0.237067 0.5588,0.237067 0.9398,0.6604 0.381,0.423333 0.57574,1.024466 0.19473,0.601134 0.19473,1.3208 z m -3.9116,-0.922866 q 0.39793,0 0.72813,-0.0762 0.3302,-0.08467 0.61807,-0.2286 0.29633,-0.1524 0.5588,-0.364067 0.27093,-0.211667 0.52493,-0.4826 v -1.786467 q -1.0414,0.03387 -1.76953,0.169334 -0.72813,0.127 -1.18533,0.338666 -0.4572,0.211667 -0.66887,0.499534 -0.2032,0.287866 -0.2032,0.643466 0,0.338667 0.11007,0.5842 0.11006,0.245534 0.29633,0.4064 0.18627,0.1524 0.44027,0.2286 0.254,0.06773 0.55033,0.06773 z"
         style="font-style:normal;font-variant:normal;font-weight:normal;font-stretch:normal;font-size:16.93333244px;font-family:Lato;-inkscape-font-specification:Lato;fill:#565656;fill-opacity:1;stroke-width:0.26458332"
         id="path4556" />
      <path
         inkscape:connector-curvature="0"
         d="m 112.63888,91.440544 v -8.576733 h 0.89746 q 0.32174,0 0.4064,0.313267 l 0.11854,0.931333 q 0.5588,-0.618066 1.2446,-0.999066 0.69426,-0.381 1.6002,-0.381 0.70273,0 1.23613,0.237066 0.54187,0.2286 0.89747,0.6604 0.36406,0.423334 0.55033,1.024467 0.18627,0.601133 0.18627,1.329266 v 5.461 h -1.50707 v -5.461 q 0,-0.973666 -0.44873,-1.507066 -0.44027,-0.541867 -1.35467,-0.541867 -0.66887,0 -1.25307,0.321734 -0.57573,0.321733 -1.0668,0.872066 v 6.316133 z"
         style="font-style:normal;font-variant:normal;font-weight:normal;font-stretch:normal;font-size:16.93333244px;font-family:Lato;-inkscape-font-specification:Lato;fill:#565656;fill-opacity:1;stroke-width:0.26458332"
         id="path4558" />
      <path
         inkscape:connector-curvature="0"
         d="m 128.99886,82.863811 v 11.4808 h -1.50707 v -4.174067 q -0.54186,0.626533 -1.23613,1.007533 -0.6858,0.381 -1.5748,0.381 -0.7366,0 -1.33773,-0.2794 -0.60114,-0.287866 -1.02447,-0.838199 -0.42333,-0.550334 -0.65193,-1.3716 -0.2286,-0.821267 -0.2286,-1.888067 0,-0.948267 0.254,-1.761067 0.254,-0.821266 0.72813,-1.422399 0.4826,-0.601134 1.1684,-0.9398 0.6858,-0.347134 1.55787,-0.347134 0.82973,0 1.40546,0.296334 0.5842,0.296333 1.0414,0.8382 l 0.1016,-0.668867 q 0.0847,-0.313267 0.4064,-0.313267 z m -3.81847,7.476067 q 0.7366,0 1.28694,-0.338667 0.5588,-0.338667 1.02446,-0.956733 v -4.148667 q -0.4064,-0.541866 -0.90593,-0.770466 -0.49953,-0.237067 -1.10067,-0.237067 -1.20226,0 -1.84573,0.855133 -0.64347,0.855133 -0.64347,2.4384 0,0.8382 0.14394,1.439333 0.14393,0.592667 0.42333,0.982134 0.2794,0.381 0.6858,0.5588 0.4064,0.1778 0.93133,0.1778 z"
         style="font-style:normal;font-variant:normal;font-weight:normal;font-stretch:normal;font-size:16.93333244px;font-family:Lato;-inkscape-font-specification:Lato;fill:#565656;fill-opacity:1;stroke-width:0.26458332"
         id="path4560" />
      <path
         inkscape:connector-curvature="0"
         d="m 132.82738,82.863811 v 5.469467 q 0,0.973666 0.44873,1.507066 0.44873,0.5334 1.35467,0.5334 0.6604,0 1.2446,-0.313266 0.5842,-0.313267 1.07526,-0.872067 v -6.3246 h 1.50707 v 8.576733 h -0.89747 q -0.32173,0 -0.4064,-0.313267 l -0.11853,-0.922866 q -0.5588,0.618066 -1.25307,0.999066 -0.69426,0.372534 -1.59173,0.372534 -0.70273,0 -1.2446,-0.2286 -0.5334,-0.237067 -0.89747,-0.6604 -0.36406,-0.423333 -0.55033,-1.024467 -0.1778,-0.601133 -0.1778,-1.329266 v -5.469467 z"
         style="font-style:normal;font-variant:normal;font-weight:normal;font-stretch:normal;font-size:16.93333244px;font-family:Lato;-inkscape-font-specification:Lato;fill:#565656;fill-opacity:1;stroke-width:0.26458332"
         id="path4562" />
      <path
         inkscape:connector-curvature="0"
         d="m 142.62569,82.863811 v 8.576733 h -1.50707 v -8.576733 z m 0.33867,-2.6924 q 0,0.220134 -0.0931,0.414867 -0.0847,0.186267 -0.23706,0.338667 -0.14394,0.143933 -0.33867,0.2286 -0.19473,0.08467 -0.41487,0.08467 -0.22013,0 -0.41486,-0.08467 -0.18627,-0.08467 -0.33867,-0.2286 -0.14393,-0.1524 -0.2286,-0.338667 -0.0847,-0.194733 -0.0847,-0.414867 0,-0.220133 0.0847,-0.414866 0.0847,-0.2032 0.2286,-0.347134 0.1524,-0.1524 0.33867,-0.237066 0.19473,-0.08467 0.41486,-0.08467 0.22014,0 0.41487,0.08467 0.19473,0.08467 0.33867,0.237066 0.1524,0.143934 0.23706,0.347134 0.0931,0.194733 0.0931,0.414866 z"
         style="font-style:normal;font-variant:normal;font-weight:normal;font-stretch:normal;font-size:16.93333244px;font-family:Lato;-inkscape-font-specification:Lato;fill:#565656;fill-opacity:1;stroke-width:0.26458332"
         id="path4564" />
      <path
         inkscape:connector-curvature="0"
         d="m 150.19252,84.277745 q -0.1016,0.186266 -0.31327,0.186266 -0.127,0 -0.28787,-0.09313 -0.16086,-0.09313 -0.39793,-0.2032 -0.2286,-0.118533 -0.55033,-0.211667 -0.32174,-0.1016 -0.762,-0.1016 -0.381,0 -0.6858,0.1016 -0.3048,0.09313 -0.52494,0.262467 -0.21166,0.169333 -0.3302,0.397933 -0.11006,0.220133 -0.11006,0.4826 0,0.3302 0.18626,0.550333 0.19474,0.220134 0.508,0.381 0.31327,0.160867 0.7112,0.287867 0.39794,0.118533 0.8128,0.262467 0.42334,0.135466 0.82127,0.3048 0.39793,0.169333 0.7112,0.423333 0.31327,0.254 0.49953,0.626533 0.19473,0.364067 0.19473,0.880534 0,0.592666 -0.21166,1.100666 -0.21167,0.499534 -0.62653,0.872067 -0.41487,0.364066 -1.016,0.575733 -0.60114,0.211667 -1.38854,0.211667 -0.89746,0 -1.6256,-0.287867 -0.72813,-0.296333 -1.23613,-0.753533 l 0.3556,-0.575733 q 0.0677,-0.110067 0.16087,-0.169334 0.0931,-0.05927 0.24553,-0.05927 0.1524,0 0.32173,0.118533 0.16934,0.118533 0.4064,0.262467 0.24554,0.143933 0.5842,0.262466 0.34714,0.118534 0.8636,0.118534 0.44027,0 0.77047,-0.110067 0.3302,-0.118533 0.55033,-0.313267 0.22014,-0.194733 0.32174,-0.448733 0.11006,-0.254 0.11006,-0.541867 0,-0.3556 -0.19473,-0.5842 -0.18627,-0.237066 -0.49953,-0.397933 -0.31327,-0.169333 -0.71967,-0.287867 -0.39793,-0.127 -0.82127,-0.262466 -0.41486,-0.135467 -0.82126,-0.3048 -0.39794,-0.1778 -0.7112,-0.440267 -0.31327,-0.262467 -0.508,-0.643467 -0.18627,-0.389466 -0.18627,-0.9398 0,-0.491066 0.2032,-0.939799 0.2032,-0.4572 0.59267,-0.795867 0.38946,-0.347133 0.95673,-0.550333 0.56727,-0.2032 1.2954,-0.2032 0.84667,0 1.51553,0.270933 0.67734,0.262467 1.1684,0.728133 z"
         style="font-style:normal;font-variant:normal;font-weight:normal;font-stretch:normal;font-size:16.93333244px;font-family:Lato;-inkscape-font-specification:Lato;fill:#565656;fill-opacity:1;stroke-width:0.26458332"
         id="path4566" />
      <path
         inkscape:connector-curvature="0"
         d="m 156.01917,82.728345 q 0.77046,0 1.4224,0.262466 0.65193,0.254 1.12606,0.745067 0.47414,0.4826 0.7366,1.202266 0.27094,0.7112 0.27094,1.6256 0,0.3556 -0.0762,0.474134 -0.0762,0.118533 -0.28787,0.118533 h -5.70653 q 0.0169,0.8128 0.22013,1.413933 0.2032,0.601134 0.5588,1.007534 0.3556,0.397933 0.84667,0.601133 0.49106,0.194733 1.10066,0.194733 0.56727,0 0.97367,-0.127 0.41487,-0.135466 0.7112,-0.287866 0.29633,-0.1524 0.49107,-0.2794 0.2032,-0.135467 0.34713,-0.135467 0.18627,0 0.28787,0.143933 l 0.42333,0.550334 q -0.2794,0.338666 -0.66887,0.592666 -0.38946,0.245533 -0.8382,0.4064 -0.44026,0.160867 -0.9144,0.237067 -0.47413,0.08467 -0.9398,0.08467 -0.889,0 -1.64253,-0.296333 -0.74507,-0.3048 -1.2954,-0.880533 -0.54187,-0.5842 -0.84667,-1.439333 -0.3048,-0.855134 -0.3048,-1.964267 0,-0.897467 0.27094,-1.6764 0.2794,-0.778933 0.79586,-1.3462 0.51647,-0.575733 1.26154,-0.897466 0.74506,-0.3302 1.6764,-0.3302 z m 0.0339,1.109133 q -1.0922,0 -1.71873,0.635 -0.62653,0.626533 -0.77893,1.744133 h 4.66513 q 0,-0.524933 -0.14393,-0.956733 -0.14394,-0.440267 -0.42334,-0.753534 -0.2794,-0.321733 -0.6858,-0.491066 -0.39793,-0.1778 -0.9144,-0.1778 z"
         style="font-style:normal;font-variant:normal;font-weight:normal;font-stretch:normal;font-size:16.93333244px;font-family:Lato;-inkscape-font-specification:Lato;fill:#565656;fill-opacity:1;stroke-width:0.26458332"
         id="path4568" />
    </g>
    <path
       style="fill:none;stroke:#108bde;stroke-width:0.96799999;stroke-linecap:round;stroke-linejoin:miter;stroke-miterlimit:4;stroke-dasharray:none;stroke-opacity:1"
       d="m 44.232215,76.32261 119.998475,0.027"
       id="path937-2"
       inkscape:connector-curvature="0"
       sodipodi:nodetypes="cc" />
  </g>
</svg>
