<?xml version="1.0" encoding="UTF-8" standalone="no"?>
<svg
   xmlns:dc="http://purl.org/dc/elements/1.1/"
   xmlns:cc="http://creativecommons.org/ns#"
   xmlns:rdf="http://www.w3.org/1999/02/22-rdf-syntax-ns#"
   xmlns:svg="http://www.w3.org/2000/svg"
   xmlns="http://www.w3.org/2000/svg"
   xmlns:sodipodi="http://sodipodi.sourceforge.net/DTD/sodipodi-0.dtd"
   xmlns:inkscape="http://www.inkscape.org/namespaces/inkscape"
   width="277.95142"
   height="247.75002"
   id="svg1136"
   overflow="hidden"
   version="1.1"
   sodipodi:docname="earth.svg"
   inkscape:version="1.0.2-2 (e86c870879, 2021-01-15)">
  <metadata
     id="metadata11">
    <rdf:RDF>
      <cc:Work
         rdf:about="">
        <dc:format>image/svg+xml</dc:format>
        <dc:type
           rdf:resource="http://purl.org/dc/dcmitype/StillImage" />
        <dc:title></dc:title>
      </cc:Work>
    </rdf:RDF>
  </metadata>
  <sodipodi:namedview
     pagecolor="#ffffff"
     bordercolor="#666666"
     borderopacity="1"
     objecttolerance="10"
     gridtolerance="10"
     guidetolerance="10"
     inkscape:pageopacity="0"
     inkscape:pageshadow="2"
     inkscape:window-width="1920"
     inkscape:window-height="1017"
     id="namedview9"
     showgrid="false"
     fit-margin-top="0"
     fit-margin-left="0"
     fit-margin-right="0"
     fit-margin-bottom="0"
     inkscape:zoom="2.0600758"
     inkscape:cx="77.813324"
     inkscape:cy="69.362938"
     inkscape:window-x="1912"
     inkscape:window-y="110"
     inkscape:window-maximized="1"
     inkscape:current-layer="svg1136" />
  <defs
     id="defs1140" />
  <g
     id="g1144"
     transform="matrix(0.64129011,0,0,0.64129011,269.48074,714.96257)">
    <path
       d="m -213.073,-729.634 c 0,-0.596 0.516,-1.083 1.146,-1.083 0.631,0 0.846,0.487 0.478,1.083 -0.368,0.595 -0.884,1.083 -1.147,1.083 -0.263,0 -0.477,-0.488 -0.477,-1.083 z m 4.399,-0.271 c -0.046,-1.281 -0.945,-1.895 -2.775,-1.895 -1.489,0 -2.707,0.487 -2.707,1.083 0,0.595 -1.34,1.075 -2.978,1.066 -2.2,-0.012 -2.573,-0.273 -1.428,-0.997 1.528,-0.967 -0.867,-1.673 -8.588,-2.53 -1.489,-0.166 -3.282,-0.662 -3.986,-1.103 -0.703,-0.442 -1.556,-0.353 -1.896,0.196 -1.043,1.688 -4.868,0.092 -4.166,-1.737 0.523,-1.362 0.244,-1.437 -1.628,-0.435 -2.89,1.547 -3.812,1.534 -2.839,-0.042 0.495,-0.799 0.296,-0.955 -0.551,-0.431 -0.728,0.45 -1.047,1.54 -0.708,2.423 0.377,0.982 0.09,1.433 -0.738,1.16 -0.745,-0.244 -1.506,-1.72 -1.691,-3.279 -0.249,-2.093 -0.792,-2.661 -2.073,-2.169 -1.154,0.443 -1.473,0.241 -0.953,-0.601 0.463,-0.749 0.129,-1.266 -0.816,-1.266 -0.88,0 -2.376,-0.298 -3.325,-0.662 -1.322,-0.508 -1.556,-0.191 -1.002,1.353 0.443,1.236 -0.228,0.841 -1.735,-1.019 -2.627,-3.243 -2.29,-5.232 0.495,-2.921 0.922,0.765 1.824,1.2 2.005,0.966 0.18,-0.233 -1.616,-2.13 -3.991,-4.214 -3.192,-2.801 -3.991,-3.173 -3.061,-1.425 0.691,1.301 1.257,2.884 1.257,3.519 0,1.972 -1.984,1.266 -2.689,-0.956 -0.368,-1.161 -1.254,-1.892 -1.968,-1.625 -0.714,0.267 -3.704,-2.437 -6.644,-6.011 -2.941,-3.573 -5.743,-6.496 -6.227,-6.496 -0.484,0 -0.879,-0.69 -0.879,-1.534 0,-0.844 -0.549,-1.717 -1.219,-1.94 -0.67,-0.223 -1.218,-1.746 -1.218,-3.384 0,-1.669 -0.519,-2.805 -1.181,-2.584 -1.407,0.469 -5.822,-5.746 -6.773,-9.535 -0.37,-1.474 -1.03,-2.679 -1.466,-2.679 -1.096,0 -4.16,-11.264 -4.9,-18.014 -0.483,-4.404 -0.263,-5.694 1.061,-6.202 1.153,-0.442 1.469,-1.453 1.016,-3.254 -0.758,-3.021 1.387,-4.976 2.981,-2.717 0.728,1.032 0.858,0.365 0.421,-2.159 -0.555,-3.204 -0.427,-3.481 1.041,-2.263 0.92,0.764 1.422,2.042 1.116,2.84 -0.307,0.798 0.816,3.035 2.494,4.97 1.679,1.935 3.396,4.928 3.816,6.651 0.42,1.723 2.274,6.352 4.119,10.287 1.845,3.934 3.248,7.812 3.117,8.616 -0.132,0.804 0.275,1.144 0.904,0.756 0.685,-0.424 0.894,-0.059 0.523,0.908 -0.365,0.95 0.309,2.195 1.637,3.024 1.241,0.775 2.256,1.964 2.256,2.643 0,0.679 4.263,5.524 9.475,10.767 5.211,5.242 9.352,9.929 9.203,10.416 -0.148,0.486 0.611,0.884 1.688,0.884 1.078,0 2.905,0.715 4.061,1.59 2.521,1.907 5.256,2.175 4.164,0.408 -0.482,-0.781 -0.297,-0.956 0.495,-0.466 0.698,0.43 1.037,1.156 0.755,1.613 -0.282,0.456 1.154,1.624 3.19,2.595 2.234,1.065 3.959,1.351 4.349,0.72 0.355,-0.576 1.133,-1.046 1.729,-1.046 0.596,0 0.74,0.555 0.321,1.233 -0.547,0.885 0.428,1.026 3.455,0.501 2.611,-0.453 3.667,-0.361 2.772,0.241 -0.907,0.611 0.548,0.782 3.903,0.459 2.941,-0.283 6.319,0.005 7.505,0.641 1.545,0.826 2.5,0.813 3.361,-0.048 0.882,-0.882 1.648,-0.833 2.873,0.183 1.247,1.036 1.67,1.058 1.67,0.089 0,-0.75 1.254,-1.197 2.977,-1.06 1.638,0.131 3.829,-0.128 4.869,-0.574 1.04,-0.446 3.111,-0.881 4.601,-0.967 1.491,-0.087 2.711,-0.465 2.711,-0.843 10e-4,-0.377 1.024,-0.953 2.274,-1.28 1.837,-0.48 2.168,-0.193 1.725,1.5 -0.301,1.151 -0.106,1.82 0.434,1.487 0.54,-0.334 0.982,-1.461 0.982,-2.504 0,-1.367 1.497,-2.281 5.352,-3.269 2.944,-0.754 5.502,-1.724 5.685,-2.155 0.183,-0.43 4.058,-3.091 8.611,-5.912 4.553,-2.822 9.48,-6.243 10.948,-7.604 1.973,-1.829 3.275,-2.251 4.987,-1.618 1.273,0.471 2.316,0.569 2.316,0.217 0,-0.351 0.701,-0.056 1.559,0.656 1.337,1.109 1.377,0.907 0.284,-1.41 -0.817,-1.732 -1.551,-2.258 -2.042,-1.463 -0.422,0.681 -1.139,0.866 -1.595,0.41 -0.456,-0.455 2.197,-3.762 5.896,-7.349 3.699,-3.586 6.726,-6.975 6.726,-7.531 0,-0.556 0.487,-1.011 1.083,-1.011 0.595,0 1.082,-0.731 1.082,-1.625 0,-0.893 0.488,-1.624 1.083,-1.624 0.596,0 1.083,-0.746 1.083,-1.658 0,-0.912 0.731,-1.939 1.624,-2.282 0.894,-0.342 1.624,-1.267 1.624,-2.054 0,-0.787 0.637,-2.075 1.415,-2.862 0.778,-0.787 2.361,-3.136 3.519,-5.221 1.158,-2.084 2.375,-4.033 2.705,-4.331 1.894,-1.71 5.028,-9.606 4.287,-10.805 -0.631,-1.021 -1.052,-0.79 -1.577,0.866 -0.819,2.58 -7.089,6.256 -7.117,4.171 -0.01,-0.808 -0.36,-0.727 -0.961,0.222 -0.52,0.821 -1.496,1.152 -2.169,0.736 -0.673,-0.416 -2.878,0.266 -4.901,1.516 -3.554,2.197 -3.658,2.203 -3.126,0.168 0.303,-1.157 1.669,-2.385 3.036,-2.728 1.367,-0.343 2.794,-1.429 3.171,-2.412 1.068,-2.784 -0.069,-2.999 -2.732,-0.518 -3.246,3.024 -6.142,3.831 -8.054,2.244 -1.402,-1.163 -1.988,-0.743 -1.748,1.253 0.044,0.368 -1.117,1.793 -2.579,3.167 -1.463,1.374 -2.659,1.926 -2.659,1.226 0,-2.275 0.453,-2.901 1.863,-2.577 0.891,0.204 1.385,-0.857 1.385,-2.978 0,-1.99 0.561,-3.296 1.414,-3.296 0.778,0 3.065,-1.218 5.083,-2.707 2.018,-1.489 4.184,-2.692 4.812,-2.674 0.629,0.018 0.169,0.595 -1.022,1.283 -3.764,2.174 -5.119,4.066 -4.31,6.021 0.528,1.275 0.932,1.438 1.278,0.513 0.278,-0.744 1.277,-1.353 2.22,-1.353 0.943,0 1.397,-0.318 1.009,-0.705 -0.387,-0.388 0.14,-1.326 1.173,-2.086 1.033,-0.759 1.878,-2.512 1.878,-3.896 0,-1.851 0.531,-2.426 2.004,-2.174 1.203,0.206 1.718,-0.119 1.29,-0.812 -0.393,-0.636 -0.17,-1.155 0.496,-1.155 0.666,0 0.863,-0.563 0.438,-1.251 -0.463,-0.75 -0.298,-0.957 0.413,-0.517 1.542,0.953 8.782,-5.188 16.204,-13.742 1.935,-2.231 3.519,-3.73 3.519,-3.331 0,0.399 0.974,-0.514 2.165,-2.028 1.191,-1.515 2.166,-3.191 2.166,-3.727 0,-0.535 2.1927,-3.328 4.8727,-6.205 2.6799,-2.878 4.888,-6.018 4.9068,-6.977 0.04,-2.039 4.7538,-7.701 6.4108,-7.701 1.5717,0 1.4248,3.589 -0.2188,5.345 -1.1095,1.186 -0.9143,1.341 1.0828,0.86 2.211,-0.533 2.4364,-0.197 2.4364,3.642 0,2.327 -0.4725,4.23 -1.0499,4.23 -0.5774,0 -0.985,1.726 -0.9057,3.835 0.1031,2.741 -0.4854,4.275 -2.0636,5.38 -2.5339,1.775 -4.131,6.095 -1.9428,5.256 1.4274,-0.548 4.138,5.4 2.986,6.552 -1.069,1.069 -3.5209,0.702 -3.5209,-0.527 0,-1.801 -3.1044,-4.471 -4.323,-3.718 -1.7009,1.052 -1.2812,3.017 0.4984,2.334 0.8743,-0.335 1.846,-0.195 2.1595,0.312 0.3134,0.508 -0.1123,1.184 -0.9461,1.504 -0.8337,0.32 -1.8442,2.077 -2.2454,3.904 -0.5053,2.3 -1.3688,3.321 -2.8092,3.321 -2.2187,0 -2.9665,3.655 -0.9967,4.873 0.5955,0.368 1.0443,1.493 0.9973,2.5 -0.0526,1.127 -0.2954,1.311 -0.6316,0.478 -0.7469,-1.851 -2.5314,-1.712 -2.5314,0.197 0,0.853 0.9746,1.861 2.1657,2.239 1.191,0.378 2.1656,1.445 2.1656,2.371 0,1.379 -0.2959,1.438 -1.6358,0.326 -1.4222,-1.18 -1.5669,-0.819 -1.108,2.765 0.2903,2.267 0.028,4.724 -0.5825,5.46 -0.7601,0.916 -0.7522,1.559 0.0252,2.039 0.6245,0.386 1.1355,-0.058 1.1355,-0.986 0,-0.929 0.7596,-1.688 1.6881,-1.688 0.9285,0 1.3869,-0.488 1.0189,-1.083 -0.3681,-0.596 0.1473,-1.083 1.1452,-1.083 1.281,0 1.648,0.636 1.2484,2.164 -0.4116,1.574 0.2928,2.672 2.5807,4.024 3.1475,1.859 4.0291,3.967 2.1459,5.131 -0.5504,0.34 -1.1595,-0.194 -1.3535,-1.188 -0.2979,-1.525 -0.5434,-1.569 -1.5815,-0.284 -1.7638,2.185 0.0915,6.395 2.8182,6.395 1.2103,0 2.2005,0.649 2.2005,1.441 0,1.925 -4.8574,4.445 -6.5506,3.399 -0.9822,-0.607 -1.1958,-0.06 -0.7948,2.038 0.3015,1.577 0.1838,2.868 -0.2615,2.868 -0.4454,0 -1.0352,1.535 -1.3106,3.411 -0.3486,2.375 0.1078,4.021 1.5013,5.415 2.4012,2.401 2.5842,4.167 0.4317,4.167 -0.8637,0 -2.073,0.853 -2.6872,1.895 -0.9066,1.538 -1.2989,1.619 -2.0841,0.426 -1.135,-1.724 -2.8734,0.24 -1.7794,2.011 0.3735,0.604 -0.4533,1.082 -1.8713,1.082 -1.7647,0 -2.5907,-0.661 -2.7037,-2.165 -0.09,-1.191 0.247,-2.166 0.749,-2.166 0.5009,0 0.9303,-2.475 0.9537,-5.5 0.0234,-3.025 0.6171,-6.192 1.3194,-7.038 0.7022,-0.846 0.8516,-1.546 0.332,-1.555 -0.5196,-0.009 -0.233,-0.467 0.6367,-1.017 1.1502,-0.727 0.647,-0.974 -1.8455,-0.903 -3.0093,0.086 -3.2943,0.346 -2.3363,2.136 0.757,1.414 0.683,3.165 -0.241,5.72 -1.071,2.962 -1.056,4.015 0.075,5.379 0.774,0.932 1.036,1.695 0.582,1.695 -0.454,0 -1.473,-0.852 -2.264,-1.895 -1.349,-1.777 -1.441,-1.76 -1.489,0.271 -0.028,1.191 -0.577,2.897 -1.22,3.79 -1.01,1.404 -1.092,1.385 -0.609,-0.139 0.307,-0.969 -0.012,-2.381 -0.71,-3.136 -0.979,-1.06 -0.955,-1.197 0.104,-0.598 1.029,0.582 1.256,-0.175 0.903,-3.021 -0.388,-3.123 -0.167,-3.68 1.24,-3.14 1.233,0.473 1.461,0.251 0.815,-0.795 -1.086,-1.758 -0.802,-10.675 0.69,-21.656 1.584,-11.647 1.597,-13.573 0.088,-13.264 -0.725,0.149 -1.319,-0.245 -1.319,-0.876 0,-0.631 -0.511,-0.831 -1.135,-0.445 -0.764,0.472 -0.675,1.269 0.27,2.432 1.195,1.47 1.137,1.63 -0.382,1.062 -1.243,-0.466 -1.977,0.051 -2.409,1.692 -0.341,1.299 -0.231,2.495 0.244,2.658 1.03,0.355 0.248,6.741 -0.826,6.741 -0.408,0 -1.328,-0.584 -2.042,-1.299 -1.011,-1.011 -1.3,-0.91 -1.3,0.451 0,0.963 0.535,1.929 1.188,2.147 0.756,0.252 0.322,2.06 -1.192,4.963 -1.309,2.512 -2.544,4.567 -2.744,4.567 -0.2,0 -0.087,-1.706 0.251,-3.79 0.773,-4.764 -0.742,-4.845 -3.067,-0.164 -1.174,2.365 -1.444,4.161 -0.798,5.315 1.241,2.218 -0.429,3.332 -3.663,2.442 -2.238,-0.615 -2.279,-0.548 -0.532,0.862 3.272,2.64 1.601,11.144 -1.924,9.792 -1.15,-0.441 -1.427,-0.12 -0.956,1.108 0.46,1.198 -0.202,2.059 -2.153,2.801 -1.55,0.589 -2.818,1.472 -2.818,1.962 0,0.49 -1.949,2.92 -4.331,5.399 -2.382,2.479 -4.331,4.936 -4.331,5.459 0,0.523 -1.266,1.527 -2.813,2.232 -1.799,0.82 -2.592,1.859 -2.2,2.881 0.338,0.88 0.264,1.636 -0.164,1.682 -3.156,0.336 -4.735,1.239 -8.168,4.671 -2.149,2.15 -4.58,3.909 -5.4,3.909 -0.821,0 -2.375,0.974 -3.453,2.165 -1.078,1.191 -2.905,2.166 -4.061,2.166 -1.156,0 -3.395,0.914 -4.976,2.031 -2.532,1.789 -9.382,4.001 -10.165,3.282 -0.159,-0.146 -1.367,0.312 -2.684,1.017 -1.318,0.705 -3.965,1.465 -5.883,1.688 -1.918,0.224 -4.129,1.284 -4.913,2.357 -0.785,1.072 -1.426,1.36 -1.426,0.64 0,-0.878 -1.816,-1.245 -5.514,-1.114 -4.474,0.158 -5.686,0.621 -6.428,2.456 -0.748,1.848 -0.927,1.915 -0.984,0.366 z m 14.748,-14.009 c -0.346,-0.864 -0.602,-0.607 -0.654,0.654 -0.047,1.142 0.209,1.781 0.569,1.421 0.359,-0.359 0.398,-1.293 0.085,-2.075 z m -49.882,-2.504 c 1.139,-0.881 1.124,-1.449 -0.08,-3.053 -1.362,-1.816 -1.557,-1.829 -2.487,-0.168 -0.555,0.992 -0.761,3.097 -0.458,4.678 0.353,1.844 0.743,2.292 1.088,1.25 0.296,-0.893 1.167,-2.111 1.937,-2.707 z m 55.098,1.624 c 0.368,-0.595 0.153,-1.082 -0.478,-1.082 -0.63,0 -1.146,0.487 -1.146,1.082 0,0.596 0.215,1.083 0.477,1.083 0.263,0 0.779,-0.487 1.147,-1.083 z m 17.866,-3.657 c 0,-0.225 -0.852,-1.078 -1.895,-1.895 -1.717,-1.347 -1.755,-1.308 -0.408,0.409 1.414,1.804 2.303,2.377 2.303,1.486 z m -86.625,-7.171 c 0,-0.595 -0.215,-1.083 -0.477,-1.083 -0.263,0 -0.779,0.488 -1.147,1.083 -0.368,0.596 -0.153,1.083 0.477,1.083 0.631,0 1.147,-0.487 1.147,-1.083 z m 99.078,-1.083 c 0.368,-0.595 0.153,-1.082 -0.478,-1.082 -0.631,0 -1.147,0.487 -1.147,1.082 0,0.596 0.215,1.083 0.478,1.083 0.263,0 0.779,-0.487 1.147,-1.083 z m -97.995,-3.248 c 0,-0.596 -0.215,-1.083 -0.477,-1.083 -0.263,0 -0.779,0.487 -1.147,1.083 -0.368,0.596 -0.153,1.083 0.477,1.083 0.631,0 1.147,-0.487 1.147,-1.083 z m -11.498,-1.681 c 0.37,-0.963 0.188,-1.398 -0.425,-1.018 -0.589,0.363 -1.071,1.12 -1.071,1.68 0,1.558 0.776,1.214 1.496,-0.662 z m 119.501,-1.825 c 0.138,-1.826 -0.054,-2.039 -0.781,-0.863 -0.53,0.857 -0.723,1.947 -0.429,2.422 0.816,1.322 1.012,1.07 1.21,-1.559 z m -115.819,-5.737 c -2.81,-3.231 -3.484,-3.407 -1.929,-0.502 0.637,1.191 0.776,2.173 0.308,2.182 -0.467,0.009 -0.142,0.464 0.723,1.011 2.749,1.739 3.304,0.077 0.898,-2.691 z m -4.095,0.517 c 0,-0.561 -0.406,-1.019 -0.902,-1.019 -0.497,0 -0.903,0.709 -0.903,1.576 0,0.867 0.406,1.326 0.903,1.019 0.496,-0.307 0.902,-1.016 0.902,-1.576 z m -8.042,-1.745 c -0.382,-0.995 -0.239,-2.091 0.317,-2.436 1.423,-0.884 1.973,-4.207 0.765,-4.618 -1.257,-0.427 -2.854,5.259 -2.059,7.33 0.324,0.843 0.832,1.532 1.13,1.532 0.297,0 0.229,-0.813 -0.153,-1.808 z m 139.525,-2.689 c 0.937,-1.878 1.703,-3.584 1.703,-3.79 0,-0.907 -4.024,3.759 -4.651,5.392 -1.242,3.237 1.194,1.912 2.948,-1.602 z m -134.449,-1.88 c 0.294,-1.125 0.115,-2.708 -0.399,-3.519 -1.037,-1.638 -1.053,-1.608 -1.361,2.587 -0.248,3.385 0.952,4.021 1.76,0.932 z m -7.321,-0.119 c 0.368,-0.596 0.154,-1.083 -0.477,-1.083 -0.631,0 -1.147,0.487 -1.147,1.083 0,0.595 0.215,1.082 0.478,1.082 0.262,0 0.778,-0.487 1.146,-1.082 z m 151.053,-6.561 c 0,-0.561 -0.487,-1.019 -1.083,-1.019 -0.596,0 -1.083,0.76 -1.083,1.688 0,0.928 0.487,1.387 1.083,1.019 0.596,-0.368 1.083,-1.128 1.083,-1.688 z m 30.8138,-10.69 c 0.3426,-0.554 0.1277,-1.314 -0.4775,-1.688 -0.6053,-0.374 -1.1005,0.08 -1.1005,1.008 0,1.902 0.6498,2.182 1.578,0.68 z m 1.648,-8.209 c 0.4814,0.297 0.8052,-0.623 0.7196,-2.045 -0.1152,-1.912 -0.6869,-2.483 -2.1972,-2.192 -2.4758,0.476 -3.7292,1.543 -1.813,1.543 0.7585,0 1.1169,0.684 0.7965,1.519 -0.3205,0.835 -0.261,1.84 0.1323,2.233 0.3932,0.393 0.8885,0.194 1.1007,-0.442 0.2121,-0.637 0.7796,-0.914 1.2611,-0.616 z m -20.1598,-3.235 c 0.343,-0.893 0.152,-1.624 -0.425,-1.624 -0.577,0 -1.049,0.731 -1.049,1.624 0,0.893 0.191,1.624 0.426,1.624 0.234,0 0.706,-0.731 1.048,-1.624 z m 3.296,-6.239 c 1.53,-1.531 1.856,-5.131 0.464,-5.131 -0.497,0 -0.903,0.571 -0.903,1.269 0,0.697 -0.806,2.159 -1.792,3.248 -2.064,2.281 -0.003,2.848 2.231,0.614 z m 14.3775,-5.334 c -0.3457,-0.863 -0.6022,-0.607 -0.6542,0.655 -0.047,1.141 0.2089,1.781 0.5687,1.421 0.3598,-0.36 0.3983,-1.294 0.0854,-2.076 z m -1.0828,-4.331 c -0.3457,-0.864 -0.6023,-0.607 -0.6542,0.654 -0.047,1.142 0.2089,1.781 0.5687,1.422 0.3598,-0.36 0.3983,-1.294 0.0854,-2.076 z m -2.5547,-1.314 c 0.512,-1.334 -0.275,-1.503 -3.392,-0.731 -0.184,0.045 -0.034,0.57 0.334,1.165 0.953,1.542 2.377,1.339 3.058,-0.434 z m 0.447,-5.141 c 0.123,-1.642 -0.164,-1.989 -0.975,-1.177 -0.632,0.632 -0.822,1.679 -0.422,2.327 1.018,1.647 1.197,1.499 1.397,-1.15 z m -17.514,-2.84 c -0.363,-0.363 -1.501,0.221 -2.529,1.297 -1.787,1.871 -1.758,1.9 0.66,0.66 1.391,-0.713 2.232,-1.594 1.869,-1.957 z m 4.114,-2.954 c -0.343,-0.893 -0.762,-1.624 -0.933,-1.624 -0.17,0 -0.59,0.731 -0.933,1.624 -0.376,0.979 -0.005,1.624 0.933,1.624 0.939,0 1.309,-0.645 0.933,-1.624 z m 20.1821,-4.395 c 0,-0.929 -0.4873,-1.387 -1.0828,-1.019 -0.5956,0.368 -1.0829,1.127 -1.0829,1.688 0,0.56 0.4873,1.019 1.0829,1.019 0.5955,0 1.0828,-0.76 1.0828,-1.688 z m 9.1708,-26.031 c -0.8566,-0.654 -1.2402,-1.507 -0.8524,-1.895 0.3877,-0.388 0.1365,-0.705 -0.5583,-0.705 -0.6948,0 -1.2633,0.731 -1.2633,1.624 0,0.894 0.4417,1.624 0.9815,1.624 0.5398,0 0.7225,1.097 0.4061,2.437 -0.5673,2.402 -0.5513,2.406 1.1342,0.27 1.4789,-1.873 1.4994,-2.326 0.1522,-3.355 z m -28.8589,118.165 c 0.937,-2.068 1.854,-3.608 2.038,-3.424 0.612,0.612 -2.038,7.183 -2.897,7.183 -0.465,0 -0.078,-1.692 0.859,-3.759 z m -3.051,-3.605 c 0,-0.476 0.44,-1.329 0.978,-1.894 0.537,-0.566 1.147,-1.876 1.353,-2.91 0.305,-1.524 0.614,-1.369 1.628,0.813 0.689,1.482 0.862,2.453 0.384,2.158 -0.477,-0.295 -1.147,0.192 -1.489,1.082 -0.646,1.684 -2.854,2.265 -2.854,0.751 z m 10.819,-4.519 c 1.286,-0.813 1.342,-1.295 0.271,-2.366 -1.739,-1.739 -1.734,-3.458 0.009,-2.788 0.951,0.366 1.318,-0.729 1.234,-3.678 -0.066,-2.31 0.124,-5.476 0.422,-7.037 0.494,-2.584 0.643,-2.658 1.663,-0.835 2.051,3.664 2.7283,10.062 1.2,11.33 -0.777,0.645 -1.115,1.948 -0.752,2.895 0.436,1.135 0.233,1.458 -0.593,0.948 -0.82,-0.507 -1.031,-0.193 -0.61,0.905 0.472,1.228 -0.042,1.676 -1.907,1.664 -2.021,-0.013 -2.216,-0.229 -0.937,-1.038 z m -3.553,-3.277 c -0.312,-1.191 -0.125,-2.165 0.415,-2.165 0.54,0 0.981,0.974 0.981,2.165 0,1.191 -0.186,2.166 -0.415,2.166 -0.228,0 -0.67,-0.975 -0.981,-2.166 z m 10.059,-0.541 c 0,-0.993 0.5238,-1.63 1.164,-1.417 0.6402,0.213 1.164,0.851 1.164,1.417 0,0.566 -0.5238,1.203 -1.164,1.416 -0.6402,0.214 -1.164,-0.424 -1.164,-1.416 z m -10.331,-4.945 c -0.393,-0.635 -0.482,-1.387 -0.198,-1.671 0.284,-0.284 0.805,0.236 1.157,1.155 0.733,1.908 0.109,2.244 -0.959,0.516 z m 11.4993,-1.193 c -0.047,-0.993 -0.403,-2.634 -0.7911,-3.645 -0.6141,-1.6 -0.3945,-1.672 1.6935,-0.555 1.8518,0.991 2.7537,0.99 3.954,-0.007 0.8552,-0.71 1.555,-0.952 1.555,-0.539 0,1.128 -2.9417,3.845 -4.1637,3.845 -0.5884,0 -1.3157,0.609 -1.6161,1.353 -0.3403,0.844 -0.5783,0.673 -0.6316,-0.452 z m 6.4114,-8.544 c 0,-0.631 0.4873,-0.846 1.0828,-0.478 0.5956,0.368 1.0828,0.884 1.0828,1.147 0,0.263 -0.4872,0.478 -1.0828,0.478 -0.5955,0 -1.0828,-0.516 -1.0828,-1.147 z m 1.0828,-12.889 c 0,-0.655 0.7717,-1.488 1.7148,-1.85 0.9432,-0.362 2.1516,-1.686 2.6853,-2.944 0.7925,-1.866 0.9249,-1.59 0.7216,1.505 -0.198,3.013 -0.7484,3.86 -2.6854,4.135 -1.3399,0.191 -2.4363,-0.19 -2.4363,-0.846 z m -79.9855,-8.615 c -1.021,-0.631 -0.726,-1.049 1.072,-1.52 3.018,-0.789 3.644,-0.355 1.753,1.215 -0.781,0.648 -2.048,0.785 -2.825,0.305 z m 52.524,-2.796 c 0.342,-0.893 0.814,-1.624 1.048,-1.624 0.234,0 0.426,0.731 0.426,1.624 0,0.894 -0.472,1.625 -1.049,1.625 -0.577,0 -0.768,-0.731 -0.425,-1.625 z m -65.591,-1.166 c 0.645,-0.777 1.867,-1.145 2.717,-0.819 2.149,0.825 1.951,1.114 -1.172,1.711 -2.14,0.409 -2.468,0.22 -1.545,-0.892 z m 5.623,-1.798 c -0.143,-1.904 0.035,-2.078 0.836,-0.812 1.252,1.98 1.329,3.235 0.199,3.235 -0.469,0 -0.935,-1.09 -1.035,-2.423 z m 17.716,-4.559 c 0.355,-0.924 1.649,-1.68 2.875,-1.68 1.932,0 1.82,1.596 -0.115,1.64 -0.397,0.009 -1.326,0.4 -2.063,0.869 -0.922,0.585 -1.14,0.326 -0.697,-0.829 z m -6.625,-0.598 c 0.368,-0.595 1.157,-1.082 1.752,-1.082 0.596,0 0.782,0.487 0.414,1.082 -0.368,0.596 -1.157,1.083 -1.752,1.083 -0.596,0 -0.782,-0.487 -0.414,-1.083 z m 13.098,-1.996 c -0.374,-0.606 -0.153,-1.429 0.492,-1.827 1.665,-1.029 2.739,0.38 1.349,1.77 -0.778,0.778 -1.383,0.796 -1.841,0.057 z m 10.183,-1.252 c 0,-0.596 0.652,-1.083 1.45,-1.083 0.798,0 2.005,-1.218 2.684,-2.707 1.487,-3.264 2.99,-3.481 3.759,-0.541 0.312,1.191 0.125,2.165 -0.415,2.165 -0.54,0 -1.025,-0.852 -1.079,-1.895 -0.054,-1.042 -0.555,-0.311 -1.114,1.625 -0.703,2.436 -1.673,3.519 -3.151,3.519 -1.174,0 -2.134,-0.488 -2.134,-1.083 z m -5.414,-1.985 c 0,-0.496 0.709,-0.903 1.576,-0.903 0.867,0 1.326,0.407 1.019,0.903 -0.307,0.496 -1.016,0.902 -1.577,0.902 -0.56,0 -1.018,-0.406 -1.018,-0.902 z m 66.683,-12.788 c -0.3755,-0.979 -0.4277,-2.034 -0.1159,-2.346 0.3118,-0.312 0.5669,0.001 0.5669,0.696 0,0.695 0.7309,1.264 1.6242,1.264 0.8934,0 1.6243,0.487 1.6243,1.082 0,1.782 -2.9628,1.224 -3.6995,-0.696 z m -5.7329,-3.329 c -1.4876,-0.52 -0.7153,-6.658 1.0603,-8.427 0.7267,-0.724 0.8923,-0.275 0.4996,1.353 -0.323,1.341 -0.1456,2.437 0.3941,2.437 0.5398,0 0.9815,-0.444 0.9815,-0.987 0,-0.543 0.8527,-0.824 1.8949,-0.624 1.0422,0.199 2.2604,0.4 2.707,0.445 0.4467,0.046 0.8122,1.09 0.8122,2.322 0,1.745 -0.4768,2.087 -2.1657,1.551 -1.1911,-0.378 -2.1656,-0.22 -2.1656,0.352 0,1.296 -2.2715,2.188 -4.0183,1.578 z m -36.0461,-7.949 c 0,-0.631 0.488,-0.846 1.083,-0.478 0.596,0.368 1.083,0.884 1.083,1.147 0,0.262 -0.487,0.477 -1.083,0.477 -0.595,0 -1.083,-0.516 -1.083,-1.146 z m 40.2195,-1.983 c -1.0241,-0.649 -1.1061,-1.156 -0.2707,-1.672 1.3734,-0.849 3.364,0.108 3.364,1.617 0,1.259 -1.1604,1.279 -3.0933,0.055 z"
       id="path1807-0-5"
       stroke-width="1.08281"
       fill="#83b351" />
    <path
       d="m -380.283,-1045.96 c 0.516,0.3 0.68,0.99 0.364,1.54 -0.315,0.54 -0.844,0.49 -1.176,-0.13 -0.332,-0.62 -0.496,-1.31 -0.365,-1.54 0.132,-0.22 0.661,-0.17 1.177,0.13 z m -1.966,3.95 c 1.133,0.6 2.114,0.13 3.029,-1.46 0.745,-1.29 0.932,-2.59 0.416,-2.88 -0.516,-0.3 -0.261,-1.7 0.566,-3.12 1.11,-1.9 1.522,-2.09 1.577,-0.73 0.074,1.8 1.883,0.08 6.486,-6.18 0.887,-1.2 2.214,-2.51 2.948,-2.9 0.733,-0.38 1.083,-1.17 0.777,-1.74 -0.94,-1.74 2.355,-4.26 3.588,-2.74 0.918,1.14 1.122,0.93 1.191,-1.19 0.105,-3.28 0.578,-4.07 1.455,-2.44 0.445,0.83 0.679,0.74 0.65,-0.26 -0.026,-0.85 -0.811,-1.67 -1.745,-1.82 -1.039,-0.17 -1.286,-0.64 -0.636,-1.22 0.584,-0.52 2.243,-0.45 3.686,0.17 1.936,0.83 2.699,0.65 2.914,-0.71 0.194,-1.22 0.528,-1.39 0.997,-0.52 0.417,0.77 1.033,0.74 1.505,-0.08 0.44,-0.76 1.446,-1.9 2.236,-2.54 1.1,-0.9 0.943,-1.26 -0.671,-1.55 -1.292,-0.23 -0.615,-0.62 1.75,-0.99 4.122,-0.66 5.676,0.63 2.282,1.89 -1.124,0.41 -1.952,0.98 -1.839,1.25 0.112,0.27 2.653,-0.33 5.645,-1.35 4.021,-1.36 4.743,-1.87 2.765,-1.94 -1.473,-0.05 -3.127,-0.35 -3.677,-0.67 -1.707,-0.98 -0.104,-2.35 2.173,-1.85 1.189,0.26 2.265,-0.14 2.391,-0.89 0.126,-0.75 3.963,-1.99 8.528,-2.75 4.564,-0.76 8.497,-1.72 8.739,-2.14 0.242,-0.42 1.038,-0.42 1.768,0.01 0.731,0.42 1.761,0.38 2.29,-0.09 0.528,-0.47 2.121,-0.18 3.539,0.64 1.445,0.83 2.689,0.95 2.828,0.27 0.298,-1.46 7.888,-2.17 11.645,-1.1 1.461,0.42 2.835,0.45 3.053,0.07 0.548,-0.95 11.834,2.03 18.05,4.76 4.056,1.79 5.063,2.62 4.841,4.02 -0.194,1.22 0.524,2 2.31,2.51 2.996,0.85 3.616,3.69 0.863,3.94 -1.258,0.11 -0.746,0.56 1.659,1.44 3.051,1.13 3.228,1.37 1.439,2.04 -1.121,0.41 -2.479,0.21 -3.017,-0.46 -0.538,-0.66 -3.036,-0.81 -5.552,-0.32 -2.515,0.48 -5.965,0.48 -7.668,-0.02 -1.702,-0.5 -6.638,-1.21 -10.968,-1.58 -4.33,-0.37 -8.389,-1.09 -9.02,-1.61 -0.631,-0.51 -1.128,-0.33 -1.106,0.41 0.024,0.8 -0.396,0.8 -1.049,0 -0.64,-0.79 -2.055,-0.83 -3.437,-0.1 -1.291,0.69 -2.829,0.97 -3.417,0.63 -0.588,-0.33 -6.916,0.94 -14.061,2.83 -7.146,1.89 -13.276,3.13 -13.623,2.76 -0.346,-0.37 -1.071,0.09 -1.61,1.02 -0.538,0.93 -2.071,2.16 -3.407,2.72 -2.912,1.23 -4.512,3.47 -2.435,3.4 0.917,-0.02 0.976,0.22 0.156,0.67 -0.722,0.38 -1.52,0.32 -1.774,-0.16 -0.255,-0.47 -1.984,0.19 -3.843,1.47 -2.04,1.4 -3.149,2.75 -2.798,3.4 0.321,0.6 0.339,1.51 0.041,2.02 -0.297,0.52 -0.85,0.37 -1.227,-0.34 -0.493,-0.91 -1.103,-0.14 -2.162,2.75 -0.913,2.48 -1.521,3.35 -1.595,2.28 -0.075,-1.09 -0.95,0.08 -2.349,3.15 -1.226,2.69 -3.164,5.47 -4.308,6.18 -1.488,0.92 -1.953,1.75 -1.638,2.93 0.323,1.21 -0.103,1.84 -1.595,2.4 -1.521,0.56 -1.752,0.91 -0.912,1.4 0.649,0.37 0.409,1.68 -0.571,3.11 -0.932,1.35 -1.804,3.38 -1.937,4.5 -0.134,1.12 -0.792,3.14 -1.463,4.47 -0.671,1.33 -0.953,2.58 -0.626,2.77 0.326,0.19 0.313,1.36 -0.028,2.61 -0.503,1.83 -0.917,1.97 -2.162,0.74 -0.846,-0.83 -1.523,-1 -1.504,-0.37 0.019,0.64 0.773,1.59 1.677,2.11 1.184,0.68 1.227,2.43 0.155,6.27 -0.819,2.922 -1.258,5.622 -0.977,5.996 0.282,0.374 0.649,5.061 0.815,10.414 0.167,5.354 0.667,11.332 1.112,13.284 0.597,2.623 0.311,3.962 -1.092,5.127 -1.045,0.868 -1.651,1.721 -1.347,1.897 0.304,0.176 -0.302,0.636 -1.347,1.023 -1.629,0.603 -1.475,0.739 1.078,0.95 1.909,0.158 2.731,-0.214 2.289,-1.036 -0.38,-0.706 -0.181,-1.42 0.442,-1.587 0.623,-0.167 2.16,3.784 3.416,8.781 1.256,4.996 2.678,9.312 3.16,9.59 0.481,0.278 0.632,0.928 0.334,1.444 -0.298,0.515 0.092,1.303 0.865,1.749 0.774,0.447 1.163,1.235 0.866,1.75 -0.298,0.516 0.104,1.311 0.894,1.767 0.79,0.456 1.314,1.602 1.164,2.547 -0.15,0.946 0.285,2.041 0.967,2.434 0.681,0.394 1.479,1.589 1.771,2.656 0.293,1.067 1.536,3.613 2.762,5.658 1.226,2.045 2.306,4.073 2.398,4.508 0.534,2.496 5.806,9.157 7.214,9.115 1.2,-0.036 1.211,-0.515 0.039,-1.798 -1.825,-2 -1.873,-9.268 -0.054,-8.249 0.705,0.395 0.81,0.052 0.289,-0.944 -0.451,-0.86 -0.25,-1.871 0.447,-2.246 0.696,-0.375 1.208,-2.626 1.137,-5.002 -0.126,-4.177 -0.078,-4.269 1.418,-2.791 0.851,0.841 1.231,2.637 0.845,3.993 -0.387,1.355 -0.16,3.134 0.503,3.953 1.876,2.316 2.631,1.439 1.814,-2.108 -0.996,-4.323 -0.247,-7.234 2.083,-8.097 1.709,-0.632 1.638,-1.35 -0.21,-2.14 -0.341,-0.146 -0.995,-1.863 -1.453,-3.817 -0.459,-1.954 -0.339,-3.266 0.267,-2.916 1.97,1.137 2.286,1.843 1.301,2.902 -0.623,0.67 0.049,1.628 1.886,2.689 1.723,0.995 2.574,2.133 2.147,2.872 -0.388,0.674 -0.477,3.264 -0.197,5.756 0.281,2.492 0.24,4.969 -0.09,5.504 -0.33,0.536 -0.6,-0.151 -0.6,-1.527 0,-4.346 -0.962,-6.466 -3.059,-6.743 -1.369,-0.181 -1.712,0.089 -1.084,0.85 0.506,0.613 0.534,1.783 0.062,2.599 -0.471,0.817 -0.423,1.369 0.106,1.227 0.53,-0.142 1.079,0.785 1.22,2.059 0.141,1.274 1.237,2.883 2.435,3.575 1.603,0.925 1.836,1.672 0.881,2.822 -0.78,0.938 -0.756,1.547 0.058,1.523 0.747,-0.023 1.086,0.431 0.753,1.007 -0.333,0.577 0.055,1.029 0.863,1.005 0.882,-0.027 0.978,0.22 0.242,0.616 -1.596,0.858 0.102,10.2 3.799,20.904 0.965,2.791 1.471,4.912 1.126,4.713 -0.346,-0.2 -0.043,1.101 0.673,2.889 0.716,1.789 1.681,3.471 2.145,3.739 0.463,0.268 1.785,3.563 2.938,7.323 1.152,3.76 2.767,7.242 3.588,7.738 1.745,1.053 4.292,7.967 3.463,9.402 -0.786,1.361 -3.819,-0.56 -4.519,-2.862 -0.472,-1.554 -0.704,-1.462 -1.286,0.508 -0.643,2.181 -1.048,2.208 -4.372,0.289 -2.015,-1.164 -3.427,-2.525 -3.139,-3.025 0.289,-0.5 -1.001,-1.715 -2.868,-2.701 -2.425,-1.282 -3.46,-2.558 -3.628,-4.478 -0.27,-3.082 -3.213,-6.625 -3.579,-4.31 -0.24,1.51 -6.746,0.884 -7.168,-0.69 -0.391,-1.46 1.152,-3.4 2.217,-2.786 1.56,0.901 5.424,-0.453 5.381,-1.885 -0.06,-1.999 -1.972,-2.618 -2.271,-0.735 -0.146,0.925 -0.754,1.696 -1.35,1.714 -0.595,0.018 -0.969,-0.689 -0.829,-1.571 0.14,-0.882 -0.876,-2.636 -2.258,-3.897 -1.739,-1.588 -2.192,-2.846 -1.472,-4.093 1.11,-1.922 -1.682,-4.397 -3.721,-3.3 -0.616,0.332 -1.815,0.158 -2.664,-0.386 -0.95,-0.609 -0.988,-0.911 -0.098,-0.786 1.977,0.279 2.748,-1.336 1.095,-2.291 -0.739,-0.427 -2.099,-0.086 -3.022,0.756 -0.923,0.843 -2.334,1.153 -3.136,0.69 -1.195,-0.69 -1.098,-0.975 0.535,-1.58 1.734,-0.641 1.493,-0.947 -1.84,-2.341 -2.108,-0.883 -4.105,-2.338 -4.437,-3.235 -0.413,-1.116 -0.974,-1.431 -1.779,-0.998 -0.646,0.348 -0.517,1.013 0.287,1.477 0.804,0.464 1.082,1.502 0.618,2.306 -0.464,0.804 -0.272,1.445 0.428,1.424 0.7,-0.021 0.864,0.669 0.365,1.533 -0.64,1.109 -1.375,1.109 -2.499,-10e-4 -1.157,-1.143 -2.46,-1.082 -4.774,0.223 -3.184,1.796 -5.451,1.506 -5.517,-0.707 -0.019,-0.647 0.748,-0.907 1.705,-0.578 1.471,0.504 1.632,0.314 1.037,-1.228 -1.01,-2.62 -5.584,-3.118 -6.947,-0.757 -0.605,1.048 -1.662,1.582 -2.349,1.185 -1.666,-0.962 -1.42,-6.429 0.333,-7.372 1.017,-0.547 0.65,-1.005 -1.368,-1.707 -1.516,-0.528 -2.575,-1.275 -2.353,-1.661 0.223,-0.385 -0.812,-1.664 -2.299,-2.841 -1.883,-1.489 -3.536,-1.917 -5.44,-1.406 -3.28,0.878 -4.901,0.154 -3.825,-1.71 0.432,-0.748 0.298,-2.222 -0.297,-3.275 -0.879,-1.554 -0.752,-1.934 0.673,-2.018 2.06,-0.121 1.229,-2.608 -0.851,-2.546 -0.711,0.021 -0.712,-0.934 -0.002,-2.162 0.882,-1.528 1.868,-1.913 3.227,-1.259 1.076,0.518 1.752,1.297 1.501,1.731 -0.251,0.434 1.678,2.044 4.286,3.577 2.608,1.532 5.054,3.63 5.436,4.661 0.381,1.031 0.913,1.511 1.18,1.065 0.269,-0.445 0.521,0.032 0.563,1.06 0.055,1.36 0.519,1.047 1.704,-1.147 1.431,-2.648 1.348,-3.025 -0.681,-3.091 -1.603,-0.051 -3.082,-0.991 -4.834,-3.069 -2.029,-2.408 -2.948,-2.922 -4.695,-2.624 -1.195,0.204 -1.986,0.049 -1.759,-0.344 0.227,-0.393 1.474,-0.849 2.773,-1.013 2.213,-0.279 2.245,-0.368 0.51,-1.425 -1.018,-0.62 -2.22,-1.948 -2.672,-2.951 -0.711,-1.577 -0.654,-1.639 0.424,-0.458 0.686,0.751 2.068,1.18 3.072,0.953 1.407,-0.318 1.513,-0.229 0.465,0.389 -1.018,0.6 -0.476,1.175 2.165,2.292 2.898,1.226 3.271,1.696 2.099,2.645 -1.026,0.831 -0.947,1.139 0.281,1.103 2.066,-0.062 9.646,4.643 18.409,11.425 9.296,7.195 10.958,8.17 11.444,6.708 0.234,-0.702 0.872,-1.019 1.418,-0.704 0.546,0.315 0.975,-0.027 0.953,-0.761 -0.027,-0.897 -0.761,-1.218 -2.242,-0.981 -1.87,0.299 -1.98,0.169 -0.728,-0.862 1.025,-0.844 0.945,-1.738 -0.261,-2.932 -0.954,-0.945 -2.045,-1.448 -2.424,-1.119 -0.822,0.715 -5.962,-3.156 -5.425,-4.085 0.204,-0.354 1.17,-0.858 2.147,-1.119 1.38,-0.37 1.438,-0.671 0.258,-1.351 -0.833,-0.482 -1.937,-0.502 -2.453,-0.045 -0.595,0.529 -1.944,-0.751 -3.702,-3.513 -1.52,-2.39 -2.683,-4.487 -2.582,-4.661 0.1,-0.173 1.52,0.778 3.156,2.113 3.739,3.051 4.567,1.779 1.675,-2.574 -1.461,-2.2 -2.881,-3.332 -4.203,-3.349 -2.542,-0.034 -2.671,-2.038 -0.284,-4.394 1.652,-1.63 1.615,-1.699 -0.48,-0.891 -3.922,1.513 -10.452,-4.186 -7.518,-6.562 0.957,-0.775 0.817,-1.176 -0.482,-1.382 -1.268,-0.201 -1.682,-1.204 -1.349,-3.265 0.265,-1.637 0.134,-3.176 -0.291,-3.421 -0.424,-0.246 -1.554,-3.148 -2.51,-6.451 -0.956,-3.303 -2.108,-6.219 -2.561,-6.48 -0.453,-0.262 -0.69,-1.86 -0.527,-3.553 0.19,-1.967 -0.314,-3.174 -1.395,-3.345 -0.931,-0.148 -1.549,-0.59 -1.374,-0.984 1.287,-2.901 1.294,-4.72 0.038,-9.408 -0.787,-2.936 -1.095,-5.921 -0.685,-6.631 0.411,-0.711 0.344,-2.544 -0.149,-4.073 -0.493,-1.529 -0.423,-3.599 0.155,-4.6 0.578,-1.001 0.906,-3.4 0.729,-5.32 -0.284,-3.09 1.226,-10.13 2.24,-10.45 0.206,-0.06 0.414,-1.34 0.462,-2.83 0.048,-1.5 0.713,-4.17 1.479,-5.94 0.766,-1.77 0.953,-4.22 0.416,-5.43 -0.537,-1.22 -0.465,-1.92 0.158,-1.56 0.761,0.44 1.987,-0.95 3.722,-4.22 2.1,-3.95 2.305,-5.23 1.087,-6.79 -1.226,-1.57 -1.195,-1.76 0.175,-1.04 z m 4.759,19.77 c 0.921,0.14 0.827,-0.21 -0.24,-0.89 -0.965,-0.61 -1.647,-0.71 -1.515,-0.22 0.132,0.49 0.921,0.99 1.755,1.11 z m 27.109,-41.94 c 0.194,1.42 0.693,1.7 2.684,1.45 2.254,-0.27 2.363,-0.43 1.389,-2.07 -0.581,-0.97 -2.301,-2.2 -3.822,-2.73 -1.773,-0.62 -2.357,-0.5 -1.627,0.32 0.626,0.7 1.245,2.06 1.376,3.03 z m -28.955,46.9 c 0.331,0.62 0.861,0.68 1.176,0.13 0.316,-0.55 0.152,-1.24 -0.364,-1.54 -0.516,-0.29 -1.045,-0.35 -1.177,-0.12 -0.131,0.22 0.033,0.91 0.365,1.53 z m -5.766,17.303 c 0.194,0.112 1.359,-0.203 2.588,-0.693 2.025,-0.81 2.011,-0.87 -0.149,-0.56 -2.27,0.32 -3.211,0.81 -2.439,1.253 z m 49.523,-71.433 c 0.515,0.3 1.045,0.35 1.176,0.13 0.131,-0.23 -0.033,-0.92 -0.364,-1.54 -0.332,-0.61 -0.862,-0.67 -1.177,-0.13 -0.315,0.55 -0.151,1.24 0.365,1.54 z m -48.601,86.344 c 0.331,0.616 0.861,0.674 1.176,0.127 0.315,-0.546 0.151,-1.236 -0.364,-1.534 -0.516,-0.298 -1.046,-0.355 -1.177,-0.128 -0.131,0.228 0.033,0.918 0.365,1.535 z m 51.81,-83.244 c 0.516,0.3 1.045,0.36 1.177,0.13 0.131,-0.23 -0.033,-0.92 -0.365,-1.53 -0.332,-0.62 -0.861,-0.68 -1.176,-0.13 -0.316,0.54 -0.152,1.23 0.364,1.53 z m 7.204,-9.12 c 0.65,0.81 1.117,0.87 1.095,0.15 -0.02,-0.7 -0.434,-1.49 -0.92,-1.77 -1.349,-0.78 -1.439,0.06 -0.175,1.62 z m -58.17,104.408 c 1.514,1.033 1.793,0.973 1.139,-0.244 -0.478,-0.888 -1.325,-1.6 -1.883,-1.584 -1.553,0.047 -1.433,0.342 0.744,1.828 z m 62.878,-97.438 c 4.204,-0.81 4.693,-1.31 1.401,-1.42 -1.351,-0.04 -2.271,-0.41 -2.045,-0.82 0.225,-0.41 -0.331,-0.35 -1.237,0.12 -2.881,1.51 -1.719,2.82 1.881,2.12 z m 1.601,-3.8 c 0.485,0.28 1.085,0.16 1.333,-0.27 0.249,-0.43 -0.163,-1.14 -0.914,-1.57 -0.751,-0.44 -1.351,-0.31 -1.333,0.27 0.017,0.58 0.429,1.29 0.914,1.57 z m 5.532,-6.09 c 1.052,0.16 1.93,0.84 1.951,1.49 0.054,1.67 2.657,3.81 3.617,2.97 0.998,-0.87 -3.128,-5.1 -5.319,-5.45 -0.891,-0.14 -1.743,-0.04 -1.892,0.22 -0.149,0.25 0.59,0.6 1.643,0.77 z m -67.434,122.174 c 1.158,1.751 2.252,3.267 2.431,3.37 0.785,0.454 -1.244,-5.364 -2.345,-6.723 -2.182,-2.694 -2.253,0.077 -0.086,3.353 z m 68.852,-115.494 c 0.827,0.82 2.289,1.45 3.247,1.41 1.937,-0.08 1.92,-0.11 -1.56,-2.47 -2.807,-1.91 -3.958,-1.19 -1.687,1.06 z m 3.764,-6.28 c 0.332,0.61 0.861,0.67 1.177,0.13 0.315,-0.55 0.151,-1.24 -0.365,-1.54 -0.515,-0.3 -1.045,-0.35 -1.176,-0.13 -0.131,0.23 0.033,0.92 0.364,1.54 z m -69.844,134.094 c 0.485,0.28 1.126,0.087 1.424,-0.429 0.297,-0.515 -0.117,-1.317 -0.921,-1.781 -0.804,-0.465 -1.445,-0.272 -1.424,0.428 0.021,0.7 0.436,1.501 0.921,1.782 z m -6.15,32.03 c 0.309,0.574 1.074,0.768 1.701,0.431 0.626,-0.338 0.481,-0.993 -0.323,-1.457 -1.647,-0.951 -2.214,-0.529 -1.378,1.026 z m 6.286,5.532 c -0.498,0.268 0.136,1.009 1.411,1.645 1.714,0.857 2.493,0.647 2.997,-0.806 0.825,-2.382 0.528,-4.002 -0.43,-2.342 -0.38,0.657 -1.15,0.626 -1.713,-0.069 -0.563,-0.696 -1.464,-1.146 -2.001,-1.003 -0.537,0.144 -0.612,0.673 -0.167,1.175 0.445,0.502 0.402,1.132 -0.097,1.4 z m 12.881,-15.841 c 0.602,0.743 1.331,0.943 1.619,0.443 0.289,-0.499 -0.108,-1.274 -0.882,-1.72 -0.773,-0.447 -1.502,-0.647 -1.619,-0.444 -0.117,0.203 0.28,0.977 0.882,1.721 z m 3.756,5.973 c 0.56,2.091 3.514,4.173 4.211,2.967 0.248,-0.43 -0.043,-1.067 -0.647,-1.415 -0.605,-0.349 -1.467,-1.778 -1.918,-3.177 -0.943,-2.927 -2.464,-1.426 -1.646,1.625 z m -2.57,15.119 c 0.92,0.132 0.827,-0.218 -0.24,-0.894 -0.965,-0.612 -1.647,-0.71 -1.515,-0.218 0.132,0.491 0.921,0.992 1.755,1.111 z m 4.292,1.227 c 0.921,0.133 0.827,-0.218 -0.24,-0.893 -0.965,-0.612 -1.646,-0.71 -1.515,-0.218 0.132,0.491 0.922,0.992 1.755,1.111 z m 2.416,-1.555 c 0.899,1.11 1.439,0.514 2.329,-2.572 0.052,-0.182 -0.477,-0.314 -1.177,-0.293 -1.811,0.054 -2.348,1.389 -1.152,2.865 z m 4.228,2.957 c 1.361,0.928 1.804,0.853 1.507,-0.255 -0.231,-0.864 -1.043,-1.552 -1.804,-1.529 -1.935,0.058 -1.897,0.287 0.297,1.784 z m 11.217,-13.747 c 0.495,-0.133 0.559,-1.411 0.141,-2.839 -0.727,-2.483 -0.767,-2.472 -0.902,0.242 -0.077,1.561 0.265,2.73 0.761,2.597 z m 0.501,5.04 c 0.945,0.15 1.788,0.152 1.873,0.004 0.085,-0.147 -0.338,-0.876 -0.94,-1.62 -0.66,-0.815 -1.404,-0.816 -1.873,-0.004 -0.469,0.813 -0.096,1.456 0.94,1.62 z m -6.285,19.676 c 0.804,0.464 1.445,0.271 1.424,-0.428 -0.021,-0.7 -0.435,-1.502 -0.92,-1.782 -0.486,-0.28 -1.126,-0.088 -1.424,0.428 -0.298,0.516 0.116,1.318 0.92,1.782 z m 17.958,20.957 c 0.995,-0.414 1.925,-0.32 2.067,0.21 0.142,0.529 0.543,0.47 0.89,-0.131 0.348,-0.602 -10e-4,-1.46 -0.775,-1.907 -0.774,-0.446 -1.627,-0.429 -1.897,0.038 -0.27,0.468 -1.311,0.078 -2.313,-0.866 -1.797,-1.692 -1.808,-1.681 -0.802,0.847 0.883,2.217 1.265,2.461 2.83,1.809 z m -87.904,-84.075 c 1.322,1.845 2.198,3.41 1.946,3.477 -0.836,0.224 -5.201,-5.356 -4.772,-6.1 0.233,-0.403 1.504,0.778 2.826,2.623 z m 4.647,-0.84 c 0.412,0.239 0.931,1.046 1.152,1.794 0.221,0.749 1.05,1.931 1.843,2.627 1.167,1.026 0.879,1.216 -1.518,1.004 -1.628,-0.145 -2.556,-0.481 -2.061,-0.747 0.494,-0.265 0.408,-1.089 -0.192,-1.83 -1.136,-1.401 -0.535,-3.605 0.776,-2.848 z m -1.496,11.63 c 0.061,1.52 0.451,1.809 1.913,1.417 2.376,-0.637 3.862,0.228 2.411,1.402 -0.792,0.64 -0.028,1.506 2.568,2.907 2.033,1.098 4.68,2.846 5.883,3.885 1.991,1.72 1.981,1.886 -0.108,1.858 -4.199,-0.056 -10.078,-2.669 -10.412,-4.627 -0.17,-0.995 -1.13,-1.939 -2.132,-2.098 -1.2,-0.19 -1.379,-0.528 -0.524,-0.988 0.849,-0.456 0.683,-0.796 -0.479,-0.98 -1.299,-0.206 -1.43,-0.875 -0.487,-2.484 1.022,-1.744 1.306,-1.805 1.367,-0.292 z m 4.615,-1.439 c 1.187,0.325 1.937,0.975 1.668,1.442 -0.27,0.468 -1.335,0.363 -2.367,-0.233 -1.031,-0.595 -1.782,-1.244 -1.668,-1.442 0.115,-0.198 1.179,-0.093 2.367,0.233 z m -4.561,8.982 c 0.86,0.496 1.15,1.269 0.645,1.716 -0.505,0.448 -1.319,0.583 -1.809,0.3 -0.49,-0.283 -0.78,-1.055 -0.645,-1.716 0.135,-0.661 0.949,-0.796 1.809,-0.3 z m 9.448,-6.475 c 0.746,-0.022 1.442,0.277 1.546,0.664 0.104,0.388 -0.607,0.579 -1.579,0.425 -2.019,-0.32 -1.997,-1.028 0.033,-1.089 z m -4.717,10.556 c 0.884,0.456 2.483,0.967 3.552,1.137 1.693,0.268 1.646,0.494 -0.366,1.744 -1.784,1.108 -2.234,1.89 -1.968,3.429 0.187,1.096 0.047,1.823 -0.311,1.617 -0.977,-0.565 -1.859,-4.47 -1.248,-5.529 0.295,-0.509 0.131,-1.444 -0.364,-2.076 -0.56,-0.716 -0.293,-0.837 0.708,-0.321 z m 4.194,9.824 c 0.546,0.316 0.489,0.845 -0.128,1.177 -0.616,0.331 -1.307,0.495 -1.534,0.364 -0.228,-0.131 -0.17,-0.661 0.128,-1.176 0.297,-0.516 0.988,-0.68 1.534,-0.365 z m 10.62,7.382 c 0.568,0.328 0.903,1.413 0.745,2.41 -0.158,0.998 0.385,2.707 1.207,3.798 1.22,1.619 0.915,1.596 -1.663,-0.127 -2.511,-1.678 -2.97,-2.579 -2.239,-4.394 0.505,-1.256 1.383,-2.015 1.95,-1.687 z m 47.454,-64.961 c 1.057,-0.569 1.272,-0.104 0.78,1.688 -0.825,3.008 -1.515,3.333 -1.928,0.91 -0.171,-1 0.344,-2.166 1.148,-2.598 z m -23.841,46.884 c 0.603,0.743 1,1.518 0.883,1.72 -0.117,0.203 -0.846,0.003 -1.62,-0.443 -0.773,-0.447 -1.17,-1.221 -0.882,-1.72 0.288,-0.5 1.017,-0.3 1.619,0.443 z m 33.806,-56.22 c 0.35,0.946 0.058,2.189 -0.649,2.762 -1.789,1.449 -1.941,1.134 -0.896,-1.87 0.716,-2.058 1.043,-2.247 1.545,-0.892 z m -1.255,5.768 c 1.721,0.828 1.782,1.07 0.286,1.13 -2.341,0.095 -3.466,-0.466 -2.901,-1.445 0.234,-0.406 1.411,-0.264 2.615,0.315 z m -4.909,17.623 c 0.623,0.769 0.631,2.268 0.017,3.33 -0.966,1.673 -2.292,0.777 -1.363,-0.921 0.19,-0.349 0.317,-1.347 0.28,-2.22 -0.046,-1.092 0.287,-1.151 1.066,-0.189 z m 3.83,-5.439 c 0.332,0.617 0.359,1.543 0.061,2.059 -0.297,0.516 -0.812,0.433 -1.144,-0.183 -0.332,-0.617 -0.36,-1.543 -0.062,-2.059 0.298,-0.516 0.813,-0.433 1.145,0.183 z m -4.82,12.342 c 0.712,-0.021 1.313,0.581 1.336,1.339 0.059,1.956 -1.699,2.182 -2.207,0.283 -0.285,-1.062 10e-4,-1.596 0.87,-1.622 z m -4.007,9.444 c 0.516,0.298 0.611,1.107 0.212,1.797 -0.399,0.691 0.053,2.346 1.003,3.678 2.083,2.921 1.519,4.331 -1.411,3.526 -1.187,-0.325 -1.938,-0.974 -1.668,-1.442 0.27,-0.467 1.251,-0.461 2.181,0.013 0.929,0.475 0.547,-0.325 -0.85,-1.777 -1.758,-1.827 -2.211,-3.208 -1.472,-4.488 0.587,-1.017 1.489,-1.605 2.005,-1.307 z m 4.426,-3.696 c 0.43,0.248 0.427,1.065 -0.007,1.816 -0.434,0.751 -1.015,0.945 -1.291,0.431 -0.276,-0.513 -0.273,-1.331 0.007,-1.816 0.28,-0.485 0.861,-0.679 1.291,-0.431 z m -22.267,64.143 c 1.035,0.164 1.975,0.647 2.09,1.073 0.114,0.426 -0.284,0.491 -0.887,0.143 -0.602,-0.348 -1.46,0.001 -1.906,0.775 -0.447,0.773 -1.234,1.163 -1.75,0.865 -1.543,-0.891 0.422,-3.178 2.453,-2.856 z m 5.749,-3.3 c 1.194,-1.029 6.124,2.709 6.768,5.132 0.264,0.991 -0.208,0.91 -1.422,-0.244 -0.999,-0.95 -2.037,-1.345 -2.307,-0.877 -0.27,0.467 -0.106,1.072 0.364,1.343 0.47,0.272 0.287,1.151 -0.407,1.953 -0.694,0.803 -1.476,1.758 -1.739,2.122 -0.263,0.364 -1.35,0.158 -2.417,-0.458 -1.512,-0.872 -1.569,-1.456 -0.26,-2.651 0.923,-0.842 1.273,-1.765 0.777,-2.051 -1.122,-0.648 -0.758,-3.061 0.643,-4.269 z m 24.908,-27.242 c 0.546,0.315 0.488,0.845 -0.128,1.177 -0.617,0.331 -1.307,0.495 -1.535,0.364 -0.227,-0.131 -0.17,-0.661 0.128,-1.177 0.298,-0.515 0.988,-0.679 1.535,-0.364 z m -18.393,35.822 c 1.074,-0.562 1.554,-0.38 1.583,0.602 0.049,1.614 -1.775,2.859 -3.082,2.105 -1.09,-0.63 -0.528,-1.645 1.499,-2.707 z"
       id="path1807-0-2"
       stroke-width="1.08281"
       fill="#83b351" />
    <path
       d="m 0.937093,-1027.52 c -0.515791,0.3 -1.195715,0.1 -1.511062,-0.45 -0.315377,-0.55 -8.77e-4,-0.98 0.698976,-0.95 0.699762,0.02 1.379773,0.22 1.511093,0.45 0.13134,0.22 -0.18328,0.65 -0.699007,0.95 z m -2.434383,-3.67 c -1.08646,0.68 -1.16823,1.76 -0.25317,3.35 0.74444,1.29 1.7754655,2.1 2.291284,1.8 0.515726,-0.3 1.601176,0.62 2.412206,2.05 1.08965,1.91 1.05046,2.36 -0.14924,1.73 -1.60228,-0.84 -1.01579,1.59 2.10225,8.7 0.60129,1.38 1.06837,3.18 1.03784,4.01 -0.03058,0.83 0.47258,1.52 1.11809,1.54 1.98309,0.06 2.51367,4.17 0.57809,4.48 -1.44043,0.23 -1.36548,0.51 0.43763,1.63 2.78521,1.73 3.23431,2.53 1.38399,2.475 -0.93943,-0.028 -0.97487,0.222 -0.09839,0.693 0.75381,0.406 1.85751,0.136 2.45271,-0.598 0.6621,-0.82 1.1957,-0.79 1.3742,0.059 0.1606,0.767 -0.737,2.164 -1.9947,3.104 -1.68794,1.262 -1.9084,2.015 -0.8419,2.879 0.9604,0.778 0.9456,1.155 -0.044,1.126 -0.87984,-0.027 -1.16149,0.521 -0.68874,1.34 0.43994,0.762 0.92994,2.207 1.08914,3.211 0.2216,1.398 0.6128,1.442 1.6732,0.191 0.8485,-1.002 0.8427,-0.223 -0.015,2.012 -1.495,3.897 -3.38647,4.599 -2.77724,1.031 0.20172,-1.181 0.12736,-2.18 -0.16528,-2.219 -0.29257,-0.039 -1.03712,2.465 -1.65475,5.564 -0.82965,4.164 -0.75223,5.042 0.29667,3.363 0.78076,-1.249 1.86925,-2.531 2.4189,-2.849 1.7075,-0.985 2.0885,1.086 0.5165,2.808 -0.8211,0.899 -1.01139,2.032 -0.423,2.516 0.5884,0.485 -0.2591,4.427 -1.88321,8.76 -1.62415,4.333 -2.75498,8.221 -2.51303,8.64 0.24194,0.419 -0.15792,1.107 -0.88859,1.529 -0.73066,0.422 -1.21261,1.333 -1.07099,2.025 0.14148,0.692 -0.90311,1.928 -2.3214,2.747 -1.445227,0.834 -2.169482,1.852 -1.647451,2.315 1.109901,0.984 -2.065289,7.915 -4.871249,10.633 -1.09107,1.057 -1.80523,2.232 -1.58688,2.61 0.5479,0.949 -7.6745,9.234 -13.15,13.25 -3.5727,2.62 -4.8003,3.074 -5.9022,2.182 -0.9595,-0.778 -1.9921,-0.546 -3.3262,0.747 -2.2373,2.167 -5.0027,1.287 -3.8432,-1.223 0.5296,-1.146 -0.1123,-0.926 -2.0802,0.715 -2.497,2.082 -2.8012,2.11 -2.4801,0.23 0.2012,-1.179 1.0569,-2.252 1.9013,-2.386 0.8446,-0.134 2.2201,-2.225 3.0567,-4.646 0.8366,-2.421 2.5702,-5.405 3.8523,-6.63 1.2822,-1.225 4.3643,-5.145 6.8492,-8.71 2.4848,-3.566 5.1414,-6.719 5.9034,-7.007 0.7621,-0.289 0.8532,-0.811 0.2024,-1.161 -0.7088,-0.382 -0.4983,-0.746 0.5251,-0.908 1.0051,-0.159 1.7461,-1.365 1.8003,-2.929 0.0507,-1.462 0.5733,-2.936 1.1614,-3.276 0.5879,-0.339 2.65192,-6.454 4.5865,-13.588 1.93464,-7.134 3.92298,-13.065 4.41857,-13.179 0.49561,-0.114 0.46039,-0.971 -0.07826,-1.904 -0.5386,-0.933 -0.83269,-2.873 -0.65344,-4.311 0.39081,-3.137 -0.74418,-5.64 -1.72828,-3.811 -0.43494,0.808 -0.67952,0.735 -0.65168,-0.195 0.02452,-0.82 0.48326,-1.477 1.01943,-1.461 0.53608,0.016 0.82981,-1.811 0.65252,-4.064 -0.19435,-2.46 -0.80943,-4.1 -1.55095,-4.12 -0.67583,-0.02 -1.47244,-0.46 -1.77024,-0.98 -0.29774,-0.51 0.11039,-0.91 0.90705,-0.89 1.03988,0.03 0.67504,-0.88 -1.2936,-3.24 -1.69749,-2.04 -2.14572,-3 -1.17689,-2.53 0.98197,0.49 0.40296,-0.86 -1.55383,-3.6 -1.7154,-2.41 -3.1507,-5.48 -3.1977,-6.82 -0.0564,-1.76 -0.5459,-2.58 -1.7218,-2.89 -1.2046,-0.32 -1.5456,-1.01 -1.2777,-2.58 0.2729,-1.6 0.0812,-1.98 -0.758,-1.49 -0.6499,0.37 -1.6641,-0.49 -2.4069,-2.05 -0.706,-1.48 -2.0251,-3.25 -2.9314,-3.93 -0.9064,-0.68 -2.3187,-2.25 -3.1385,-3.5 -0.8199,-1.25 -1.7581,-2.12 -2.085,-1.93 -0.3269,0.19 -1.3373,-0.41 -2.2453,-1.33 -1.3346,-1.35 -1.251,-1.78 0.4359,-2.24 1.1471,-0.32 1.6296,-0.82 1.0703,-1.12 -0.5589,-0.3 -1.7556,-0.12 -2.6592,0.4 -1.1835,0.69 -2.7232,-0.15 -5.5067,-3 -2.125,-2.17 -4.2438,-3.9 -4.7083,-3.84 -0.4644,0.05 -4.7062,-1.97 -9.4261,-4.51 -4.7198,-2.53 -10.1467,-5.08 -12.0597,-5.67 -2.5698,-0.8 -3.5867,-1.72 -3.8942,-3.51 -0.2288,-1.34 -0.6651,-2.29 -0.9695,-2.12 -0.3044,0.18 -0.4003,-0.58 -0.2123,-1.68 0.2923,-1.71 0.0974,-1.64 -1.3622,0.46 -1.0912,1.58 -1.18,2.47 -0.2466,2.5 0.8012,0.03 1.3202,0.56 1.1534,1.18 -0.1669,0.62 -4.3577,-0.02 -9.3128,-1.43 -4.9552,-1.41 -9.4036,-2.34 -9.8853,-2.06 -0.4817,0.28 -1.1195,0.08 -1.4172,-0.43 -0.2978,-0.52 -1.1744,-0.58 -1.9481,-0.13 -0.7736,0.45 -1.6501,0.39 -1.948,-0.13 -0.2978,-0.51 -1.1876,-0.56 -1.9774,-0.1 -0.7899,0.45 -2.0445,0.33 -2.788,-0.27 -0.7435,-0.6 -1.9095,-0.77 -2.591,-0.38 -0.682,0.39 -2.115,0.49 -3.186,0.21 -1.07,-0.28 -3.897,-0.48 -6.281,-0.44 -2.384,0.04 -4.68,-0.04 -5.103,-0.18 -2.428,-0.78 -10.833,0.45 -11.501,1.69 -0.569,1.06 -0.159,1.31 1.538,0.94 2.645,-0.59 8.963,3.01 7.171,4.07 -0.694,0.42 -0.45,0.68 0.673,0.72 0.971,0.04 1.746,0.72 1.722,1.51 -0.024,0.8 1.67,2.36 3.763,3.49 3.68,1.98 3.737,2.07 1.709,2.62 -1.153,0.32 -2.9,-0.25 -3.881,-1.26 -0.981,-1.01 -2.634,-1.71 -3.675,-1.54 -2.944,0.47 -2.562,1.56 0.918,2.62 4.242,1.3 6.389,3.41 5.97,5.86 -0.306,1.79 0.351,2.09 1.96,0.88 0.296,-0.22 2.11,0.08 4.031,0.65 1.922,0.58 2.998,1.34 2.392,1.69 -1.97,1.14 -2.739,1.06 -3.164,-0.32 -0.268,-0.88 -1.434,-0.77 -3.271,0.29 -1.723,0.99 -3.135,1.16 -3.561,0.42 -0.389,-0.67 -2.588,-2.04 -4.886,-3.05 -2.299,-1 -4.424,-2.27 -4.722,-2.83 -0.299,-0.55 0.43,-0.44 1.622,0.25 3.765,2.17 6.081,2.4 7.369,0.72 0.841,-1.1 0.78,-1.53 -0.194,-1.36 -0.784,0.13 -1.811,-0.43 -2.282,-1.25 -0.471,-0.82 -0.973,-1.05 -1.115,-0.52 -0.142,0.53 -1.219,0.54 -2.393,0.02 -1.174,-0.51 -3.115,-0.36 -4.314,0.33 -1.602,0.92 -2.366,0.75 -2.884,-0.65 -0.423,-1.15 -0.962,-1.43 -1.348,-0.71 -0.354,0.66 -0.916,0.72 -1.249,0.15 -0.333,-0.58 -0.918,-0.47 -1.301,0.24 -0.418,0.78 -0.68,0.74 -0.655,-0.1 0.054,-1.81 -8.884,-5.01 -20.003,-7.16 -2.9,-0.56 -4.99,-1.18 -4.644,-1.38 0.345,-0.2 -0.932,-0.59 -2.839,-0.86 -1.907,-0.28 -3.847,-0.28 -4.31,-0.02 -0.464,0.27 -3.979,-0.23 -7.811,-1.11 -3.832,-0.88 -7.655,-1.23 -8.496,-0.76 -1.785,0.98 -9.045,-0.27 -9.874,-1.71 -0.785,-1.36 2.395,-3.02 4.739,-2.48 1.581,0.37 1.618,0.12 0.202,-1.37 -1.567,-1.64 -1.388,-2.01 1.937,-3.93 2.014,-1.16 3.899,-1.7 4.188,-1.2 0.288,0.5 1.987,-0.01 3.773,-1.14 2.323,-1.46 3.946,-1.71 5.692,-0.9 2.804,1.31 7.344,0.53 5.523,-0.94 -1.188,-0.97 2.608,-6.29 4.181,-5.87 1.46,0.39 2.369,2.7 1.305,3.32 -1.56,0.9 -2.32,4.92 -1.059,5.6 1.761,0.95 3.254,-0.4 1.772,-1.6 -0.727,-0.59 -1.091,-1.5 -0.809,-2.03 0.282,-0.52 1.081,-0.49 1.775,0.07 0.694,0.56 2.721,0.56 4.503,-0.01 2.245,-0.71 3.561,-0.47 4.282,0.77 1.109,1.92 4.648,0.74 4.718,-1.57 0.021,-0.7 0.771,-1.65 1.666,-2.11 1.003,-0.52 1.283,-0.4 0.73,0.3 -1.23,1.58 -0.217,3.05 1.437,2.1 0.739,-0.43 1.124,-1.78 0.855,-3 -0.268,-1.22 0.169,-2.6 0.971,-3.06 1.195,-0.69 1.394,-0.46 1.101,1.26 -0.312,1.82 0.073,1.76 2.948,-0.43 1.818,-1.38 4.077,-2.38 5.019,-2.22 1.174,0.2 1.727,-0.13 1.754,-1.04 0.022,-0.74 -0.618,-0.96 -1.422,-0.49 -0.804,0.46 -1.842,0.18 -2.306,-0.62 -0.464,-0.81 -1.115,-0.96 -1.447,-0.34 -0.332,0.61 -1.011,0.41 -1.51,-0.45 -0.641,-1.11 -0.273,-1.75 1.25,-2.17 1.568,-0.43 2.167,-1.59 2.194,-4.24 0.036,-3.66 1.421,-5.48 3.371,-4.43 0.569,0.31 0.411,1.1 -0.352,1.77 -1.173,1.02 -1.088,1.25 0.545,1.51 2.774,0.43 5.492,-3.28 4.129,-5.64 -0.606,-1.05 -0.539,-2.23 0.148,-2.62 1.667,-0.97 6.277,1.98 6.218,3.97 -0.035,1.15 0.546,1.06 2.162,-0.33 1.215,-1.05 2.392,-1.59 2.615,-1.21 0.222,0.39 1.847,0.13 3.61,-0.57 2.231,-0.89 3.428,-2.1 3.938,-4.01 0.879,-3.28 2.317,-4.32 3.3932,-2.45 0.4318,0.74 1.7749,1.36 2.9846,1.38 1.7854,0.01 2.0509,0.31 1.4108,1.59 -0.9254,1.84 1.6449,2.37 2.6309,0.53 0.3366,-0.62 1.1644,-0.15 1.8733,1.08 0.8821,1.53 0.7221,2.58 -0.5236,3.43 -0.9865,0.67 -1.999,0.87 -2.2497,0.43 -0.2507,-0.43 -2.6088,0.43 -5.2401,1.92 -2.6314,1.5 -5.6714,2.57 -6.7554,2.38 -1.084,-0.18 -1.764,0.04 -1.512,0.49 0.252,0.46 -0.288,0.44 -1.199,-0.04 -1.205,-0.63 -1.167,-0.07 0.141,2.05 1.578,2.56 1.946,2.68 3.017,0.95 0.846,-1.36 2.4,-2.17 5.075,-2.65 3.1004,-0.55 4.005,-1.09 4.6204,-2.75 0.4205,-1.14 0.9504,-1.75 1.1773,-1.35 0.227,0.39 -0.0021,1.7 -0.5092,2.9 -0.8644,2.06 -0.8033,2.13 0.9792,1.16 1.0455,-0.57 2.7969,-0.95 3.8918,-0.84 1.721,0.17 1.7461,0.25 0.1845,0.6 -0.9934,0.22 -2.056,1.2 -2.3612,2.18 -0.4283,1.38 -0.5585,1.43 -0.5694,0.21 -0.0107,-1.18 -0.7798,-1 -3.0675,0.73 -2.5111,1.89 -3.1041,1.98 -3.3402,0.49 -0.2067,-1.3 -0.5131,-1.39 -1.0954,-0.31 -0.9793,1.82 -8.8443,6.04 -19.0993,10.23 -10.879,4.46 -12.554,5.41 -11.532,6.56 0.492,0.55 0.447,1.27 -0.099,1.58 -0.546,0.32 -0.464,0.86 0.183,1.21 0.79,0.42 1.436,-0.05 1.971,-1.45 0.676,-1.77 0.843,-1.8 1.11,-0.2 0.218,1.31 1.033,1.68 2.67,1.24 1.294,-0.36 2.276,-1.05 2.18,-1.54 -0.208,-1.07 5.714,-3.59 6.251,-2.66 0.204,0.35 0.158,1.44 -0.104,2.42 -0.37,1.38 -0.139,1.58 1.04,0.9 0.834,-0.48 1.404,-1.43 1.265,-2.1 -0.159,-0.78 1.624,-1.31 4.894,-1.45 2.83,-0.12 5.228,-0.08 5.328,0.09 0.1,0.17 -1.434,0.93 -3.408,1.68 -4.512,1.71 -3.824,3.06 1.391,2.74 2.636,-0.17 4.326,-0.83 5.003,-1.97 1.3,-2.18 3.0997,-1.29 3.9464,1.95 0.5859,2.25 0.6647,2.25 1.012,0.03 0.6504,-4.15 8.851,-6.96 9.4418,-3.23 0.1928,1.22 0.6102,1.3 1.4378,0.28 0.808,-1 1.8837,-0.86 3.5023,0.46 1.2848,1.05 2.6835,1.7 3.1082,1.46 0.4246,-0.25 3.5031,0.23 6.8413,1.05 3.338,0.82 6.4398,1.28 6.8927,1.02 0.4529,-0.26 1.9559,0.33 3.3401,1.32 1.6092,1.15 2.9054,1.32 3.5946,0.47 0.5932,-0.74 1.2855,-1.05 1.5389,-0.7 1.8691,2.56 3.4405,3.48 8.1291,4.73 2.9363,0.79 5.6747,2.02 6.0851,2.73 0.4104,0.71 2.0312,1.57 3.6017,1.91 1.5704,0.33 3.3282,1.43 3.9061,2.43 0.5779,1 2.4888,2.48 4.2466,3.29 2.8158,1.3 8.1561,6.13 7.925,7.16 -0.0468,0.22 0.9536,1.03 2.2233,1.82 1.2695,0.79 3.2511,2.7 4.4035,4.25 1.1523,1.55 3.176,2.94 4.4971,3.08 1.32102,0.14 1.89144,0.55 1.26766,0.91 -0.76086,0.44 -0.17081,2.2 1.7917,5.34 2.37414,3.79 3.38133,4.61 5.34129,4.33 1.974407,-0.27 2.121959,-0.15 0.80854,0.67 z m -19.50581,-5.77 c -0.5753,0.73 -0.2248,0.82 0.8936,0.24 1.012,-0.53 1.438,-1.07 0.9464,-1.2 -0.4914,-0.14 -1.3196,0.3 -1.8398,0.96 z m 22.77243,44.451 c -1.332839,-0.546 -1.8167845,-0.249 -2.604239,1.596 -0.891431,2.087 -0.805261,2.263 1.098544,2.237 1.136335,-0.015 3.062325,-0.889 4.279985,-1.941 1.42047,-1.229 1.61352,-1.791 0.53849,-1.568 -0.92152,0.19 -2.41221,0.044 -3.31258,-0.324 z M -24.373,-1041.04 c -0.6997,-0.02 -1.0143,0.41 -0.699,0.96 0.3154,0.54 0.9954,0.75 1.5111,0.45 0.5158,-0.3 0.8304,-0.73 0.699,-0.96 -0.1313,-0.22 -0.8112,-0.43 -1.5111,-0.45 z m -12.1004,-13.64 c -0.1947,0.11 -0.5069,1.28 -0.6937,2.59 -0.3077,2.16 -0.2554,2.17 0.5585,0.15 0.8548,-2.13 0.907,-3.19 0.1352,-2.74 z m 37.102367,78.603 c -0.515805,0.298 -0.830303,0.728 -0.6989825,0.955 0.1313485,0.228 0.8112805,0.431 1.5111355,0.452 0.69971,0.021 1.01433,-0.409 0.69898,-0.955 -0.31535,-0.546 -0.99542,-0.749 -1.511133,-0.452 z M -49.8475,-1061.34 c -0.6998,-0.02 -1.0143,0.41 -0.699,0.96 0.3154,0.54 0.9953,0.75 1.5111,0.45 0.5157,-0.3 0.8306,-0.73 0.699,-0.96 -0.1313,-0.22 -0.8114,-0.43 -1.5111,-0.45 z m 46.18405,86.491 c -0.51572,0.298 -0.83029,0.728 -0.69898,0.955 0.13135,0.228 0.81136,0.431 1.51113,0.452 0.69981,0.021 1.01428,-0.409 0.69893,-0.955 -0.3153,-0.546 -0.99528,-0.75 -1.51108,-0.452 z m 4.293633,10.798 c -1.019402,0.161 -1.30507,0.536 -0.6695925,0.878 0.6094095,0.328 1.5051495,0.367 1.9904695,0.087 1.34892,-0.779 0.66365,-1.28 -1.320877,-0.965 z M -60.7008,-1066.63 c -1.6508,0.8 -1.7385,1.07 -0.3576,1.11 1.0075,0.03 2.0482,-0.35 2.3129,-0.84 0.7362,-1.37 0.4202,-1.41 -1.9553,-0.27 z m 52.94093,103.171 c -1.39383,4.05 -1.20885,4.721 0.52944,1.923 0.71277,-1.148 1.49371,-1.759 1.73544,-1.359 0.24246,0.4 0.47326,-0.109 0.5147,-1.131 0.13158,-3.251 -1.58562,-2.901 -2.77959,0.567 z m 2.49464,3.289 c -0.48532,0.28 -0.6794,0.861 -0.43125,1.291 0.24815,0.429 1.06565,0.426 1.81658,-0.007 0.75093,-0.434 0.94493,-1.015 0.43119,-1.291 -0.51376,-0.277 -1.3312,-0.274 -1.81652,0.007 z m 2.51025,7.836 c -0.67049,0.828 -1.69141,1.253 -2.26863,0.944 -1.4764,-0.791 -4.62932,0.395 -4.38097,1.647 0.25818,1.301 5.98076,-0.159 7.37686,-1.882 0.5683,-0.702 0.91143,-1.487 0.76252,-1.745 -0.14889,-0.258 -0.81928,0.209 -1.48978,1.036 z M -74.8462,-1071.82 c -2.095,0.13 -3.9553,0.32 -4.1338,0.42 -0.7855,0.45 5.2668,1.6 6.9952,1.33 3.4239,-0.54 1.059,-1.99 -2.8614,-1.75 z m 65.59666,117.375 c -1.12156,0.308 -2.40336,1.255 -2.84836,2.105 -0.8996,1.717 -0.8662,1.716 2.92108,-0.115 3.05521,-1.477 3.00563,-2.835 -0.07271,-1.99 z m 3.55652,6.4 c -0.69977,-0.021 -1.01433,0.408 -0.69898,0.955 0.31535,0.546 0.99536,0.749 1.51108,0.451 0.5158,-0.297 0.83042,-0.727 0.69906,-0.955 -0.13129,-0.227 -0.81131,-0.43 -1.51116,-0.451 z M -86.9011,-1075.58 c -0.4852,0.28 -0.6387,0.93 -0.341,1.45 0.2978,0.51 1.1993,0.55 2.0034,0.09 0.8041,-0.46 0.9575,-1.11 0.341,-1.45 -0.6165,-0.33 -1.5181,-0.37 -2.0034,-0.09 z m -24.6639,-21.34 c -0.652,-0.02 -1.202,0.55 -1.224,1.26 -0.021,0.71 0.619,0.91 1.423,0.45 1.648,-0.96 1.565,-1.66 -0.2,-1.71 z m -7.934,2.68 c 0.017,-0.57 -0.942,-0.39 -2.13,0.4 -1.599,1.05 -1.807,1.83 -0.8,2.99 1.65,1.91 3.201,2.46 2.243,0.8 -0.38,-0.65 0.033,-1.31 0.916,-1.45 0.884,-0.14 1.724,-0.69 1.868,-1.23 0.144,-0.53 -0.276,-0.86 -0.933,-0.73 -0.657,0.14 -1.181,-0.22 -1.164,-0.78 z m 7.278,19.07 c -0.945,0.15 -1.482,0.68 -1.194,1.18 0.288,0.5 1.157,0.55 1.931,0.1 0.774,-0.45 1.311,-0.98 1.194,-1.18 -0.117,-0.2 -0.986,-0.25 -1.931,-0.1 z m -7.05,0.27 c -2.092,-0.56 -5.372,0.96 -4.676,2.16 0.248,0.43 0.946,0.5 1.55,0.15 0.604,-0.35 2.273,-0.38 3.709,-0.07 3.007,0.64 2.466,-1.43 -0.583,-2.24 z m -11.808,-9.79 c -0.576,0.73 -0.225,0.83 0.893,0.24 1.012,-0.53 1.438,-1.07 0.947,-1.2 -0.492,-0.13 -1.32,0.3 -1.84,0.96 z m -3.21,3.11 c -0.575,0.73 -0.225,0.82 0.894,0.24 1.012,-0.53 1.438,-1.08 0.946,-1.21 -0.491,-0.13 -1.319,0.31 -1.84,0.97 z m 0.139,2.87 c -1.41,0.22 -1.164,0.99 1.063,3.3 0.132,0.14 0.511,-0.26 0.843,-0.87 0.858,-1.6 -0.029,-2.73 -1.905,-2.43 z m -4.675,2.18 c -1.484,0.71 -1.641,1.14 -0.532,1.43 0.864,0.23 1.865,-0.12 2.226,-0.8 0.917,-1.7 0.7,-1.78 -1.694,-0.63 z m 6.297,16.59 c -0.132,0.49 0.942,1.19 2.388,1.54 2.514,0.61 2.525,0.57 0.242,-0.9 -1.313,-0.85 -2.497,-1.14 -2.63,-0.64 z m -4.615,-2.09 c -0.602,0.74 -1.026,1.47 -0.94,1.62 0.085,0.15 0.928,0.15 1.873,0 1.036,-0.16 1.406,-0.81 0.94,-1.62 -0.469,-0.81 -1.213,-0.81 -1.873,0 z m -13.898,-15.28 c -0.804,0.47 -0.957,1.12 -0.341,1.45 0.617,0.33 1.518,0.37 2.004,0.09 0.485,-0.28 0.638,-0.93 0.341,-1.45 -0.298,-0.51 -1.2,-0.55 -2.004,-0.09 z m -27.128,5.07 c -0.139,1.07 -0.685,1.83 -1.215,1.69 -0.53,-0.14 -0.679,0.23 -0.332,0.84 0.348,0.6 1.265,0.72 2.039,0.28 0.773,-0.45 1.183,-1.2 0.916,-1.66 -0.27,-0.47 0.588,-1.18 1.906,-1.57 2.364,-0.71 2.36,-0.73 -0.332,-1.12 -2.362,-0.35 -2.764,-0.14 -2.982,1.54 z m 116.7631,-34.09 c -2.2588,0.23 -4.052,0.2 -3.9845,-0.05 0.2241,-0.83 7.2396,-1.82 7.6692,-1.08 0.2323,0.4 -1.4259,0.91 -3.6847,1.14 z m -1.5962,4.45 c -0.4126,0.24 -1.371,0.28 -2.1298,0.1 -0.759,-0.18 -2.1973,-0.06 -3.1965,0.28 -1.4717,0.5 -1.4925,0.16 -0.1096,-1.81 0.939,-1.34 1.6935,-1.98 1.6766,-1.42 -0.0168,0.56 0.7397,0.9 1.6811,0.75 1.7814,-0.28 3.3892,1.34 2.0782,2.1 z m -9.3234,-7.11 c -1.3474,-0.71 -1.792,-0.52 -2.184,0.95 -0.6365,2.37 -2.1281,3.23 -2.4197,1.38 -0.1588,-1 -1.2902,-0.77 -3.8025,0.77 -1.9669,1.22 -4.8044,2.63 -6.3051,3.16 -2.4848,0.86 -2.624,0.77 -1.555,-1.03 2.1481,-3.61 7.3497,-7.39 9.2127,-6.7 0.9469,0.35 2.2442,-0.01 2.8831,-0.8 0.7648,-0.94 1.1462,-0.93 1.1171,0.04 -0.029,0.97 0.3485,0.99 1.0887,0.08 0.8277,-1.02 1.4725,-0.8 2.3945,0.82 0.9993,1.75 0.9098,2.03 -0.4301,1.33 z m -1.0612,4.71 c -0.8777,0.87 -1.8133,1.2 -2.0832,0.73 -0.2698,-0.47 0.3534,-1.34 1.3849,-1.94 1.0315,-0.59 1.9688,-0.92 2.083,-0.72 0.1141,0.2 -0.509,1.07 -1.3847,1.93 z m -5.4984,-8.44 c -0.8597,0.5 -1.6736,0.37 -1.8089,-0.3 -0.1353,-0.66 0.1548,-1.43 0.6448,-1.71 0.4899,-0.29 1.304,-0.15 1.8089,0.3 0.5049,0.44 0.2147,1.22 -0.6448,1.71 z m 0.8833,11.42 c -0.3538,0.66 -0.9604,1.11 -1.3483,1.01 -0.3876,-0.1 -0.198,-0.82 0.4216,-1.58 1.2863,-1.59 1.889,-1.22 0.9267,0.57 z m -6.7829,-9.36 c -0.8369,0.54 -2.0795,1.67 -2.7612,2.51 -1.0789,1.33 -1.2511,1.18 -1.3272,-1.19 -0.0676,-2.1 -0.5199,-2.88 -1.9857,-3.42 -1.0424,-0.39 -1.6025,-0.87 -1.2445,-1.08 0.9773,-0.56 4.8008,0.63 5.4118,1.69 0.2942,0.51 1.1853,0.83 1.9802,0.72 0.9006,-0.13 0.8717,0.16 -0.0765,0.77 z m -10.6052,-1.28 c -0.5462,0.32 -0.976,0 -0.9549,-0.7 0.0209,-0.7 0.2242,-1.38 0.4516,-1.51 0.2275,-0.13 0.6572,0.18 0.955,0.7 0.2977,0.51 0.0945,1.19 -0.4517,1.51 z m -11.7031,5.51 c -0.568,0.32 -1.675,0.07 -2.46,-0.56 -0.785,-0.64 -2.536,-1.02 -3.892,-0.86 -2.012,0.25 -1.84,-0.01 0.942,-1.37 2.708,-1.34 3.718,-1.29 4.924,0.25 0.835,1.07 1.054,2.21 0.486,2.54 z m 32.5312,73.57 c -0.0359,1.2 -0.5456,1.16 -1.8516,-0.16 -2.1925,-2.22 -2.1296,-2.98 0.1755,-2.13 0.9514,0.35 1.7036,1.38 1.6761,2.29 z m -28.6822,-44.08 c -0.945,0.14 -1.814,0.1 -1.931,-0.1 -0.117,-0.2 0.42,-0.74 1.194,-1.18 0.774,-0.45 1.643,-0.4 1.931,0.09 0.289,0.5 -0.249,1.04 -1.194,1.19 z m 31.7844,57.38 c -0.9945,-0.17 -1.9247,-1.04 -2.0671,-1.94 -0.3605,-2.28 -0.0113,-2.25 2.0673,0.16 1.4246,1.65 1.4246,2.02 -2e-4,1.78 z m -4.3679,-3.97 c -1.5772,1.08 -1.8175,1.01 -1.1211,-0.32 1.0886,-2.07 2.1369,-2.77 2.7018,-1.79 0.2344,0.41 -0.4769,1.36 -1.5807,2.11 z m -12.8066,-13.06 c -0.9778,0.15 -2.2796,-0.59 -2.8929,-1.65 -0.9659,-1.68 0.4729,-2.38 1.479,-0.72 0.2063,0.34 1.0089,0.95 1.7834,1.35 0.9682,0.51 0.8526,0.82 -0.3695,1.02 z m 2.795,6.03 c -0.6998,-0.02 -1.516,-0.46 -1.8138,-0.97 -0.2978,-0.52 0.0312,-0.92 0.731,-0.9 0.6998,0.02 1.5159,0.46 1.8137,0.97 0.2978,0.52 -0.0311,0.92 -0.7309,0.9 z m -8.2781,-10.34 c -0.3378,0.63 -1.1603,0.85 -1.8275,0.49 -1.7234,-0.93 -1.04,-2.56 0.8585,-2.06 1.0624,0.29 1.3813,0.8 0.9693,1.57 z m -6.1758,-8.19 c -0.515,0.29 -1.264,-0.03 -1.663,-0.72 -0.398,-0.69 -2.057,-1.13 -3.686,-0.97 -3.571,0.35 -4.51,-0.85 -2.348,-2.98 0.877,-0.87 1.813,-1.19 2.083,-0.73 0.27,0.47 -0.226,1.32 -1.102,1.88 -0.875,0.57 0.008,0.64 1.964,0.16 2.462,-0.61 3.884,-0.31 4.623,0.97 0.5869,1.01 0.6451,2.09 0.129,2.39 z m 0.9882,5.68 c -0.4297,0.25 -1.1362,-0.17 -1.5702,-0.92 -0.433,-0.75 -0.311,-1.35 0.272,-1.33 0.584,0.02 1.2901,0.43 1.5703,0.91 0.2801,0.49 0.1578,1.09 -0.2721,1.34 z m -44.4162,-51.36 c -0.66,0.82 -1.548,1.39 -1.974,1.28 -0.426,-0.12 -0.282,-0.5 0.32,-0.84 0.601,-0.35 0.728,-1.27 0.282,-2.04 -0.447,-0.78 -0.39,-1.65 0.125,-1.95 1.543,-0.89 2.541,1.95 1.247,3.55 z m -0.017,6.63 c 0.294,1.55 -5.408,3.95 -7.828,3.3 -0.99,-0.27 -0.684,-0.64 0.923,-1.11 1.321,-0.39 2.182,-1.09 1.913,-1.56 -0.27,-0.47 -0.876,-0.63 -1.346,-0.36 -0.47,0.27 -1.14,-0.33 -1.488,-1.33 -0.349,-1 -0.784,-2.15 -0.968,-2.56 -0.183,-0.41 0.538,-1.25 1.605,-1.87 1.512,-0.87 2.046,-0.63 2.426,1.1 0.268,1.22 0.893,1.99 1.388,1.7 1.122,-0.65 3.03,0.87 3.375,2.69 z m 11.139,35.19 c -0.546,0.32 -0.976,0 -0.955,-0.7 0.021,-0.7 0.224,-1.38 0.452,-1.51 0.227,-0.13 0.657,0.19 0.955,0.7 0.297,0.52 0.094,1.2 -0.452,1.51 z m -21.827,-33.84 c -0.05,1.21 -0.447,1.54 -1.312,1.07 -1.422,-0.76 -1.589,-2.96 -0.282,-3.72 1.09,-0.63 1.688,0.37 1.594,2.65 z"
       id="path1807-0-7"
       stroke-width="1.08281"
       fill="#83b351" />
    <path
       d="m -208.8,-836.549 c -33.153,-3.462 -63.028,-24.305 -78.168,-54.536 -16.729,-33.405 -13.4,-73.209 8.634,-103.243 14.337,-19.542 35.223,-33.272 58.527,-38.472 45.387,-10.12 91.408,12.19 111.564,54.093 5.652,11.751 8.4564,22.119 9.5741,35.402 0.7607,9.039 0.1398,18.759 -1.7991,28.173 -4.295,20.849 -16.713,41.754 -32.79,55.199 -21.666,18.121 -47.97,26.264 -75.542,23.384 z m 24.372,-8.604 c 14.668,-2.178 30.01,-8.668 42.077,-17.799 1.995,-1.51 6.267,-5.407 9.493,-8.659 5.572,-5.618 5.788,-5.923 4.329,-6.09 -1.473,-0.17 -1.537,-0.308 -1.552,-3.352 -0.013,-2.643 -0.293,-3.543 -1.675,-5.369 -1.455,-1.923 -1.661,-2.654 -1.661,-5.908 0,-3.239 -0.178,-3.881 -1.396,-5.026 -1.842,-1.73 -1.786,-3.729 0.215,-7.696 l 1.611,-3.197 -3.18,-5.605 -3.179,-5.605 0.367,-3.612 c 0.202,-1.987 0.265,-3.801 0.139,-4.031 -0.126,-0.23 -1.311,-0.419 -2.634,-0.419 -1.56,0 -2.905,-0.393 -3.826,-1.117 -1.652,-1.299 -4.383,-1.451 -6.152,-0.342 -0.684,0.429 -3.615,0.94 -6.554,1.142 l -5.318,0.365 -4.318,-4.997 -4.319,-4.997 v -3.905 c 0,-2.788 0.218,-3.989 0.764,-4.198 0.42,-0.162 0.885,-0.93 1.034,-1.708 0.214,-1.118 0.025,-1.45 -0.904,-1.582 -0.797,-0.114 -1.228,-0.64 -1.344,-1.637 -0.148,-1.275 0.494,-1.956 4.857,-5.159 5,-3.669 5.028,-3.704 5.198,-6.337 0.156,-2.419 0.355,-2.751 2.311,-3.845 1.611,-0.901 2.75,-1.129 4.602,-0.92 1.717,0.194 3.265,-0.061 5.121,-0.843 1.576,-0.664 4.527,-1.24 7.241,-1.413 l 4.58,-0.294 0.168,2.582 0.168,2.582 4.469,1.301 c 2.458,0.715 4.909,1.443 5.446,1.618 0.756,0.245 0.978,-10e-4 0.978,-1.086 0,-1.239 0.277,-1.432 2.374,-1.652 1.954,-0.205 2.765,0.032 4.579,1.338 1.906,1.372 2.72,1.587 6.005,1.587 4.347,0 4.38,-0.057 2.735,-4.748 -0.958,-2.731 -1.035,-2.797 -3.448,-2.97 -3.151,-0.226 -4.983,-1.84 -4.983,-4.39 0,-3.419 -2.661,-1.74 -3.594,2.268 l -0.376,1.613 -1.608,-1.541 c -0.952,-0.912 -1.752,-2.39 -1.96,-3.618 -0.452,-2.675 -4.388,-6.166 -6.953,-6.166 -0.94,0 -1.709,0.088 -1.709,0.196 0,0.108 0.265,0.955 0.588,1.883 0.406,1.164 1.452,2.156 3.379,3.205 1.964,1.069 2.633,1.711 2.259,2.168 -0.293,0.356 -0.62,1.277 -0.726,2.045 -0.156,1.132 -0.552,1.431 -2.09,1.577 -2.388,0.228 -3.569,-1.156 -1.346,-1.577 2.444,-0.463 2.062,-1.414 -1.484,-3.695 -1.855,-1.194 -3.522,-2.632 -3.705,-3.196 -0.312,-0.963 -0.412,-0.95 -1.652,0.214 -0.969,0.911 -1.739,1.156 -2.902,0.923 -1.401,-0.28 -1.847,0.025 -3.873,2.643 -1.259,1.627 -2.46,3.496 -2.668,4.152 -0.338,1.065 -0.789,1.193 -4.19,1.193 -4.641,0 -5.925,-0.877 -6.338,-4.332 -0.409,-3.424 0.787,-4.722 4.387,-4.762 1.52,-0.017 3.31,0.147 3.977,0.365 0.946,0.31 1.296,0.129 1.599,-0.826 0.268,-0.844 0.109,-1.378 -0.513,-1.727 -0.93,-0.52 -1.157,-1.927 -0.561,-3.479 0.191,-0.5 1.296,-1.039 2.532,-1.237 1.762,-0.282 2.536,-0.83 3.944,-2.79 1.844,-2.567 2.274,-2.716 7.091,-2.457 2.101,0.113 2.403,-0.005 2.095,-0.809 -0.199,-0.517 -0.361,-1.552 -0.361,-2.299 0,-1.34 -0.027,-1.347 -1.99,-0.527 -1.987,0.83 -1.989,0.83 -2.568,-0.83 -0.359,-1.029 -0.97,-1.662 -1.604,-1.662 -1.317,0 -1.973,-2.021 -1.026,-3.162 0.398,-0.48 1.865,-1.417 3.258,-2.077 3.509,-1.67 3.324,-2.73 -1.098,-6.3 -11.274,-9.11 -27.728,-16.12 -43.145,-18.39 -8.301,-1.23 -23.453,-0.83 -31.031,0.8 -11.013,2.38 -21.121,6.42 -30.286,12.13 l -5.306,3.31 2.513,0.39 c 4.217,0.65 7.821,1.79 7.821,2.46 0,0.66 2.458,1.34 4.859,1.34 1.001,0 1.318,-0.26 1.182,-0.98 -0.138,-0.72 -0.899,-1.04 -2.973,-1.25 -1.628,-0.17 -2.508,-0.46 -2.115,-0.72 1.279,-0.83 0.091,-2.01 -2.19,-2.18 l -2.257,-0.17 2.537,-1.82 c 1.972,-1.41 3.103,-1.82 5.082,-1.82 2.18,0 2.723,0.24 3.784,1.68 1.525,2.06 4.467,2.31 6.353,0.54 0.748,-0.7 1.57,-0.99 2.165,-0.76 1.566,0.6 -1.476,3.36 -4.18,3.79 -1.931,0.31 -2.192,0.54 -2.192,1.88 -10e-4,1.5 0.069,1.53 2.832,1.34 1.765,-0.13 2.946,-0.49 3.133,-0.98 0.172,-0.45 1.078,-0.78 2.135,-0.78 1.225,0 1.959,-0.32 2.207,-0.97 0.204,-0.53 0.168,-1.04 -0.08,-1.13 -1.659,-0.58 -2.045,-1.18 -1.324,-2.05 0.535,-0.64 1.723,-0.87 4.433,-0.86 l 3.702,0.03 -1.794,1.53 c -1.346,1.15 -1.713,1.85 -1.471,2.77 0.178,0.68 0.65,1.24 1.05,1.24 0.4,0 1.125,0.15 1.611,0.34 0.717,0.27 0.883,-0.1 0.883,-1.94 0,-1.93 0.24,-2.41 1.537,-3.07 0.844,-0.43 2.868,-0.97 4.496,-1.19 2.596,-0.35 3.506,-0.17 7.402,1.43 4.288,1.77 4.441,1.9 4.441,3.69 0,1.48 0.225,1.85 1.117,1.85 1.169,0 1.345,0.44 0.779,1.91 -0.218,0.57 -1.023,0.89 -2.247,0.89 -1.492,0 -2.046,0.3 -2.544,1.39 -0.752,1.66 -1.066,1.68 -5.873,0.47 l -3.69,-0.92 3.46,-1.75 3.459,-1.75 -1.303,-1.22 c -1.119,-1.05 -1.712,-1.18 -4.186,-0.88 -2.009,0.23 -3.259,0.74 -4.125,1.66 -0.737,0.78 -1.882,1.32 -2.82,1.32 -1.031,0 -1.578,0.29 -1.578,0.84 0,0.46 0.251,0.84 0.558,0.84 0.307,0 0.559,0.25 0.559,0.56 0,0.3 -0.395,0.55 -0.878,0.55 -0.483,0 -1.255,0.38 -1.716,0.84 -1.02,1.02 -1.872,1.09 -1.884,0.14 -0.032,-2.64 -2.057,-2.3 -8.486,1.402 -3.759,2.167 -4.286,2.953 -3.448,5.139 0.475,1.237 3.147,2.539 5.212,2.539 1.672,0 1.703,0.052 1.703,2.793 0,1.536 0.142,2.793 0.316,2.793 0.995,0 2.414,-1.292 3.016,-2.744 0.501,-1.211 1.328,-1.881 3.009,-2.439 2.306,-0.766 2.319,-0.786 2.473,-3.799 0.127,-2.466 0.422,-3.248 1.59,-4.209 1.368,-1.125 1.582,-1.145 4.604,-0.385 l 3.17,0.8 -0.21,2.199 c -0.243,2.547 0.137,2.673 3.26,1.08 1.204,-0.614 2.451,-1.117 2.771,-1.117 0.319,0 0.58,1.117 0.58,2.482 0,2.166 0.214,2.609 1.676,3.472 1.308,0.773 1.676,1.384 1.676,2.781 0,1.535 -0.239,1.843 -1.676,2.158 -2.203,0.484 -2.117,1.204 0.28,2.347 1.439,0.687 1.955,1.289 1.955,2.285 0,0.947 -0.241,1.261 -0.803,1.045 -0.442,-0.169 -1.824,-0.583 -3.073,-0.919 -2.451,-0.66 -2.77,-1.323 -1.376,-2.863 0.491,-0.543 0.727,-1.254 0.525,-1.58 -0.456,-0.739 -1.977,-0.785 -1.977,-0.061 0,0.293 -0.892,0.701 -1.984,0.906 -1.524,0.286 -2.145,0.151 -2.68,-0.582 -0.919,-1.255 -3.911,-0.965 -4.171,0.405 -0.136,0.715 0.285,1.078 1.54,1.329 1.357,0.271 1.595,0.504 1.111,1.088 -0.369,0.444 -1.217,0.622 -2.112,0.443 -1.24,-0.248 -1.906,0.139 -3.9,2.267 -1.323,1.411 -3.33,3.044 -4.461,3.63 -2.648,1.371 -7.69,6.606 -8.11,8.421 -0.18,0.776 -1.141,1.885 -2.153,2.482 -1.006,0.595 -2.919,2.085 -4.251,3.313 -2.375,2.189 -2.414,2.284 -2.05,4.936 l 0.372,2.704 -2.01,-0.958 c -1.604,-0.765 -2.009,-1.276 -2.009,-2.531 v -1.572 h -5.605 c -7.215,0 -10.136,1.279 -12.271,5.375 -1.554,2.981 -1.844,6.762 -0.63,8.225 1.407,1.695 4.786,1.177 8.421,-1.291 3.118,-2.117 3.275,-2.163 3.571,-1.032 0.17,0.651 -0.055,1.886 -0.499,2.746 -1.196,2.312 -1.047,2.572 1.706,2.985 l 2.513,0.377 v 3.89 c 0,4.378 0.092,4.472 5.109,5.208 2.572,0.378 2.615,0.358 4.723,-2.215 l 2.127,-2.596 2.819,0.362 c 2.084,0.267 3.086,0.719 3.843,1.732 0.839,1.124 1.509,1.371 3.711,1.371 1.868,0 2.784,-0.254 3.007,-0.834 0.549,-1.431 2.817,0.1 4.603,3.109 1.604,2.704 1.649,2.731 4.508,2.742 2.67,0.01 2.974,0.152 4.05,1.892 0.669,1.084 1.162,2.828 1.162,4.112 0,2.194 0.053,2.251 3.122,3.426 1.845,0.706 4.417,1.198 6.285,1.202 4.421,0.011 5.48,0.407 6.722,2.511 0.711,1.206 1.68,1.97 2.812,2.218 1.503,0.33 1.693,0.574 1.461,1.872 -0.147,0.82 0.075,0.486 0.494,-0.743 1.74,-5.114 -1.714,-10.962 -6.973,-11.803 -2.18,-0.348 -3.079,-1.327 -1.214,-1.321 3.786,0.011 7.674,2.855 9.328,6.822 2.033,4.874 0.448,8.986 -5.177,13.43 -0.912,0.721 -1.231,1.541 -1.195,3.073 0.027,1.149 -0.126,3.471 -0.34,5.161 -0.316,2.492 -0.719,3.353 -2.131,4.559 -1.506,1.285 -2.094,1.446 -4.344,1.185 -2.485,-0.288 -2.644,-0.221 -3.528,1.49 -0.773,1.495 -0.827,2.255 -0.325,4.594 l 0.601,2.803 -2.699,3.438 c -1.484,1.891 -3.248,4.35 -3.92,5.466 -1.17,1.942 -5.387,4.396 -7.555,4.396 -1.255,0 -2.596,0.615 -2.596,1.191 0,0.282 0.639,0.755 1.419,1.052 1.159,0.441 1.318,0.728 0.868,1.568 -0.302,0.566 -0.93,1.344 -1.394,1.729 -1.162,0.965 0.024,2.839 1.795,2.839 1.25,0 1.287,0.122 0.926,3.014 -0.363,2.906 -0.315,3.059 1.357,4.295 0.953,0.704 1.732,1.736 1.732,2.293 0,0.844 -0.47,1.012 -2.826,1.012 -2.444,0 -3.168,-0.283 -5.353,-2.095 -1.389,-1.152 -3.544,-3.829 -4.788,-5.948 -2.182,-3.718 -2.249,-3.981 -1.923,-7.479 0.319,-3.415 0.243,-3.745 -1.309,-5.705 -1.622,-2.048 -1.638,-2.135 -1.03,-5.586 0.541,-3.071 0.504,-3.569 -0.294,-4.015 -0.774,-0.434 -0.911,-1.678 -0.911,-8.298 v -7.787 l -2.653,-1.938 c -1.46,-1.066 -3.329,-2.091 -4.154,-2.276 -1.043,-0.236 -1.6,-0.797 -1.83,-1.844 -0.182,-0.828 -1.845,-3.389 -3.695,-5.69 -3.013,-3.747 -3.332,-4.387 -3.063,-6.139 0.165,-1.075 0.303,-3.011 0.306,-4.302 0.005,-2.141 0.221,-2.495 2.454,-4.031 2.417,-1.663 2.443,-1.717 2.16,-4.356 -0.158,-1.47 -0.337,-2.735 -0.398,-2.811 -0.061,-0.076 -1.658,-0.3 -3.55,-0.498 -3.314,-0.346 -3.549,-0.478 -6.464,-3.632 -1.663,-1.8 -3.363,-3.274 -3.777,-3.276 -2.189,-0.009 -4.943,-1.231 -4.943,-2.193 0,-1.187 -2.124,-1.943 -3.125,-1.112 -0.452,0.375 -1.862,0.257 -4.323,-0.361 -3.186,-0.8 -3.837,-1.195 -5.086,-3.082 -1.576,-2.382 -1.751,-3.319 -0.797,-4.273 0.472,-0.473 -0.019,-1.547 -1.93,-4.226 -1.749,-2.451 -2.708,-4.457 -3.02,-6.316 -0.335,-1.998 -0.734,-2.777 -1.499,-2.924 -1.74,-0.335 -0.941,4.687 1.255,7.879 2.447,3.556 2.314,5.211 -0.362,4.511 -0.662,-0.173 -1.963,-1.547 -2.89,-3.054 -1.455,-2.365 -1.685,-3.275 -1.685,-6.669 v -3.93 l -1.955,-0.817 c -1.793,-0.75 -1.955,-1.011 -1.955,-3.156 0,-3.192 -0.657,-2.256 -2.687,3.829 -3.61,10.818 -4.296,15.443 -4.296,28.969 0,10.855 0.153,12.973 1.31,18.141 2.859,12.774 8.104,24.857 15.041,34.649 4.817,6.799 15.115,17.098 21.915,21.914 11.585,8.208 27.022,14.229 41.617,16.233 4.456,0.612 19.304,0.33 24.681,-0.468 z m -27.655,-133.511 c 0.252,-1.213 1.244,-1.288 1.471,-0.11 0.117,0.611 -0.157,0.977 -0.732,0.977 -0.537,0 -0.845,-0.361 -0.739,-0.867 z m 3.88,0.153 c -0.993,-0.992 -0.738,-1.52 0.736,-1.52 0.75,0 1.519,-0.251 1.709,-0.559 0.19,-0.307 0.87,-0.558 1.511,-0.558 1.111,0 1.099,0.062 -0.251,1.313 -1.845,1.71 -2.932,2.098 -3.705,1.324 z m 53.559,-8.762 c 0,-0.604 0.503,-1.367 1.117,-1.696 1.589,-0.851 1.384,-2.014 -0.559,-3.161 -0.921,-0.545 -1.675,-1.292 -1.675,-1.662 0,-1.62 0.762,-2.439 2.268,-2.439 1.388,0 1.64,0.26 1.972,2.032 0.238,1.268 1.175,2.825 2.494,4.144 1.989,1.989 2.056,2.164 1.136,2.996 -0.625,0.565 -2.015,0.883 -3.864,0.883 -2.5,0 -2.889,-0.148 -2.889,-1.097 z m -6.145,-1.056 c 0,-1.265 2.431,-3.992 3.559,-3.992 2.999,0 3.321,1.617 0.718,3.603 -2.238,1.706 -4.277,1.892 -4.277,0.389 z m 45.643,13.783 c -1.043,-2.556 -2.071,-2.667 -2.071,-0.225 0,1.764 0.167,2.002 1.398,2.002 1.351,0 1.374,-0.06 0.673,-1.777 z m -113.814,-0.421 c 0.807,-1.508 0.738,-1.712 -0.576,-1.712 -1.625,0 -3.315,1.006 -3.315,1.974 0,1.272 3.185,1.057 3.891,-0.262 z m -5.899,-2.83 2.006,-2.793 h -1.634 c -2.605,0 -5.333,4.377 -3.252,5.217 0.384,0.154 0.738,0.301 0.786,0.325 0.048,0.025 0.99,-1.212 2.094,-2.749 z m 11.225,1.164 c 0,-0.797 -2.887,-2.093 -3.437,-1.543 -0.163,0.162 -0.125,0.832 0.083,1.487 0.283,0.892 0.752,1.149 1.866,1.02 0.831,-0.096 1.488,-0.522 1.488,-0.964 z m -4.86,-1.834 c 1.193,-1.192 0.752,-2.123 -1.005,-2.123 -1.415,0 -1.676,0.218 -1.676,1.397 0,1.529 1.479,1.929 2.681,0.726 z m 4.023,-1.597 c 0,-0.289 -0.378,-0.526 -0.838,-0.526 -0.864,0 -1.11,0.659 -0.481,1.289 0.446,0.446 1.319,-0.059 1.319,-0.763 z m -50.863,-3.319 c 0.01,-0.745 -0.052,-0.745 -0.559,0 -0.314,0.461 -0.959,1.592 -1.434,2.514 l -0.863,1.676 1.422,-1.676 c 0.782,-0.922 1.427,-2.053 1.434,-2.514 z m 44.718,1.229 c 0,-2.327 -2.643,-3.03 -5.614,-1.494 -2.949,1.525 -2.01,2.385 2.681,2.456 2.468,0.037 2.933,-0.116 2.933,-0.962 z m 2.793,0.176 c 0,-0.083 -0.377,-0.464 -0.838,-0.846 -0.7,-0.581 -0.838,-0.502 -0.838,0.472 0,0.809 0.258,1.07 0.838,0.847 0.461,-0.177 0.838,-0.389 0.838,-0.473 z m -11.843,-5.985 c 0.895,-0.895 0.853,-2.647 -0.071,-3.001 -0.408,-0.157 -1.411,-0.031 -2.23,0.281 -1.349,0.513 -1.428,0.697 -0.844,1.978 0.688,1.511 2.054,1.833 3.145,0.742 z m 111.921,-4.044 c 0.54,-1.184 0.386,-1.66 -1.176,-3.631 -0.988,-1.248 -2.027,-2.269 -2.308,-2.269 -0.282,0 -0.512,0.975 -0.512,2.167 0,1.881 -0.221,2.258 -1.676,2.861 -2.895,1.199 -2.113,2.234 1.688,2.234 3.023,0 3.427,-0.138 3.984,-1.362 z m -119.396,-6.798 c 1.248,-0.478 1.1,-1.895 -0.197,-1.895 -1.721,0 -4.047,1.062 -3.668,1.675 0.384,0.622 2.503,0.743 3.865,0.22 z m 0.527,-5.355 c 0.875,-1.4 0.162,-1.75 -2.69,-1.32 -2.039,0.3 -2.54,0.6 -2.54,1.49 0,0.97 0.317,1.1 2.317,0.95 1.432,-0.11 2.545,-0.54 2.913,-1.12 z"
       id="path1067"
       stroke-width="0.558616"
       fill="#f2f2f2" />
  </g>
</svg>
