<svg width="515" height="229" xmlns="http://www.w3.org/2000/svg" xmlns:xlink="http://www.w3.org/1999/xlink" overflow="hidden"><defs><clipPath id="clip0"><rect x="176" y="132" width="515" height="229"/></clipPath><clipPath id="clip1"><rect x="177" y="133" width="135" height="227"/></clipPath><clipPath id="clip2"><rect x="177" y="133" width="135" height="227"/></clipPath><clipPath id="clip3"><rect x="177" y="133" width="135" height="227"/></clipPath><clipPath id="clip4"><rect x="540" y="133" width="150" height="227"/></clipPath><clipPath id="clip5"><rect x="540" y="133" width="150" height="227"/></clipPath><clipPath id="clip6"><rect x="540" y="133" width="150" height="227"/></clipPath><clipPath id="clip7"><path d="M460.807 309.643 350.392 243.083 398.985 162.473 509.4 229.033Z" fill-rule="evenodd" clip-rule="evenodd"/></clipPath><clipPath id="clip8"><path d="M460.807 309.643 350.392 243.083 398.985 162.473 509.4 229.033Z" fill-rule="evenodd" clip-rule="evenodd"/></clipPath><clipPath id="clip9"><path d="M460.807 309.643 350.392 243.083 398.985 162.473 509.4 229.033Z" fill-rule="evenodd" clip-rule="evenodd"/></clipPath></defs><g clip-path="url(#clip0)" transform="translate(-176 -132)"><g clip-path="url(#clip1)"><g clip-path="url(#clip2)"><g clip-path="url(#clip3)"><path d="M0.873772 34.5803 67.5388 67.9128 132.999 34.1787 67.1372 0.444593Z" stroke="#E6E6E6" stroke-width="0.790941" fill="none" transform="matrix(1.00402 0 0 1 177 133)"/><path d="M0.873772 34.5803 0.873772 193.211 66.334 226.142 67.5388 67.9128Z" stroke="#E6E6E6" stroke-width="0.790941" fill="none" transform="matrix(1.00402 0 0 1 177 133)"/><path d="M67.5388 67.9128 66.334 226.142 134.204 193.211 132.999 34.1787Z" stroke="#E6E6E6" stroke-width="0.790941" fill="none" transform="matrix(1.00402 0 0 1 177 133)"/><path d="M10.1105 49.4394 9.30729 185.179 57.4989 209.275 58.3021 72.732Z" stroke="#E6E6E6" stroke-width="0.790941" fill="none" transform="matrix(1.00402 0 0 1 177 133)"/><path d="M11.6932 53.1548 11.6932 64.3716 56.4494 87.5826 56.4494 75.3663Z" stroke="#E6E6E6" stroke-width="0.790941" fill="none" transform="matrix(1.00402 0 0 1 177 133)"/><path d="M15.5802 60.2625 15.4691 63.15 17.9124 64.2605 17.9124 61.4841Z" fill="#FFCC00" transform="matrix(1.00402 0 0 1 177 133)"/><path d="M37.1303 69.4936 37.0192 72.3811 39.4625 73.4916 39.4625 70.7152Z" fill="#FFCC00" transform="matrix(1.00402 0 0 1 177 133)"/><path d="M44.7933 73.8248 44.6822 76.7123 47.1255 77.8229 47.1255 75.0464Z" fill="#FFCC00" transform="matrix(1.00402 0 0 1 177 133)"/><path d="M48.8184 79.2937 48.7074 82.1812 51.1506 83.2918 51.1506 80.5153Z" fill="#FFCC00" transform="matrix(1.00402 0 0 1 177 133)"/><path d="M51.2617 76.046 51.1506 78.9335 53.5939 80.044 53.5939 77.2676Z" fill="#FFCC00" transform="matrix(1.00402 0 0 1 177 133)"/><path d="M11.7512 68.2809 11.7512 79.4977 56.5073 102.709 56.5073 90.4924Z" stroke="#E6E6E6" stroke-width="0.790941" fill="none" transform="matrix(1.00402 0 0 1 177 133)"/><path d="M15.6382 75.3885 15.5271 78.276 17.9704 79.3866 17.9704 76.6102Z" fill="#333333" transform="matrix(1.00402 0 0 1 177 133)"/><path d="M37.1883 84.6197 37.0772 87.5071 39.5205 88.6177 39.5205 85.8413Z" fill="#333333" transform="matrix(1.00402 0 0 1 177 133)"/><path d="M44.8512 88.9509 44.7402 91.8384 47.1834 92.949 47.1834 90.1725Z" fill="#333333" transform="matrix(1.00402 0 0 1 177 133)"/><path d="M48.8764 94.4198 48.7653 97.3073 51.2086 98.4179 51.2086 95.6414Z" fill="#333333" transform="matrix(1.00402 0 0 1 177 133)"/><path d="M51.3196 91.172 51.2086 94.0595 53.6519 95.1701 53.6519 92.3937Z" fill="#333333" transform="matrix(1.00402 0 0 1 177 133)"/><path d="M11.6377 83.0228 11.6377 94.2396 56.3938 117.451 56.3938 105.234Z" stroke="#E6E6E6" stroke-width="0.790941" fill="none" transform="matrix(1.00402 0 0 1 177 133)"/><path d="M15.5247 90.1305 15.4136 93.018 17.8569 94.1286 17.8569 91.3521Z" fill="#333333" transform="matrix(1.00402 0 0 1 177 133)"/><path d="M37.0748 99.3616 36.9637 102.249 39.407 103.36 39.407 100.583Z" fill="#333333" transform="matrix(1.00402 0 0 1 177 133)"/><path d="M44.7377 103.693 44.6267 106.58 47.0699 107.691 47.0699 104.914Z" fill="#333333" transform="matrix(1.00402 0 0 1 177 133)"/><path d="M48.7629 109.162 48.6518 112.049 51.0951 113.16 51.0951 110.383Z" fill="#333333" transform="matrix(1.00402 0 0 1 177 133)"/><path d="M51.2062 105.914 51.0951 108.801 53.5384 109.912 53.5384 107.136Z" fill="#333333" transform="matrix(1.00402 0 0 1 177 133)"/><path d="M11.7487 98.1266 11.7487 109.343 56.5049 132.554 56.5049 120.338Z" stroke="#E6E6E6" stroke-width="0.790941" fill="none" transform="matrix(1.00402 0 0 1 177 133)"/><path d="M15.6357 105.234 15.5247 108.122 17.9679 109.232 17.9679 106.456Z" fill="#FFCC00" transform="matrix(1.00402 0 0 1 177 133)"/><path d="M37.1858 114.465 37.0748 117.353 39.518 118.464 39.518 115.687Z" fill="#FFCC00" transform="matrix(1.00402 0 0 1 177 133)"/><path d="M44.8488 118.797 44.7377 121.684 47.181 122.795 47.181 120.018Z" fill="#FFCC00" transform="matrix(1.00402 0 0 1 177 133)"/><path d="M48.8739 124.266 48.7629 127.153 51.2062 128.264 51.2062 125.487Z" fill="#FFCC00" transform="matrix(1.00402 0 0 1 177 133)"/><path d="M51.3172 121.018 51.2062 123.905 53.6494 125.016 53.6494 122.239Z" fill="#FFCC00" transform="matrix(1.00402 0 0 1 177 133)"/><path d="M11.7487 112.897 11.7487 124.114 56.5049 147.325 56.5049 135.109Z" stroke="#E6E6E6" stroke-width="0.790941" fill="none" transform="matrix(1.00402 0 0 1 177 133)"/><path d="M15.6357 120.005 15.5247 122.892 17.9679 124.003 17.9679 121.227Z" fill="#FFCC00" transform="matrix(1.00402 0 0 1 177 133)"/><path d="M37.1858 129.236 37.0748 132.124 39.518 133.234 39.518 130.458Z" fill="#FFCC00" transform="matrix(1.00402 0 0 1 177 133)"/><path d="M44.8488 133.567 44.7377 136.455 47.181 137.565 47.181 134.789Z" fill="#FFCC00" transform="matrix(1.00402 0 0 1 177 133)"/><path d="M48.8739 139.036 48.7629 141.924 51.2062 143.034 51.2062 140.258Z" fill="#FFCC00" transform="matrix(1.00402 0 0 1 177 133)"/><path d="M51.3172 135.788 51.2062 138.676 53.6494 139.787 53.6494 137.01Z" fill="#FFCC00" transform="matrix(1.00402 0 0 1 177 133)"/><path d="M11.4155 127.668 11.4155 138.885 56.1717 162.096 56.1717 149.879Z" stroke="#E6E6E6" stroke-width="0.790941" fill="none" transform="matrix(1.00402 0 0 1 177 133)"/><path d="M15.3026 134.776 15.1915 137.663 17.6348 138.774 17.6348 135.997Z" fill="#333333" transform="matrix(1.00402 0 0 1 177 133)"/><path d="M36.8527 144.007 36.7416 146.894 39.1849 148.005 39.1849 145.228Z" fill="#333333" transform="matrix(1.00402 0 0 1 177 133)"/><path d="M44.5156 148.338 44.4046 151.225 46.8478 152.336 46.8478 149.56Z" fill="#333333" transform="matrix(1.00402 0 0 1 177 133)"/><path d="M48.5408 153.807 48.4297 156.694 50.873 157.805 50.873 155.028Z" fill="#333333" transform="matrix(1.00402 0 0 1 177 133)"/><path d="M50.984 150.559 50.873 153.447 53.3162 154.557 53.3162 151.781Z" fill="#333333" transform="matrix(1.00402 0 0 1 177 133)"/><path d="M11.9153 141.668 56.0051 164.434 55.6719 203.749 11.36 181.87Z" stroke="#E6E6E6" stroke-width="0.790941" fill="none" transform="matrix(1.00402 0 0 1 177 133)"/><path d="M19.4672 145.444 19.134 185.646" stroke="#E6E6E6" stroke-width="0.790941" fill="none" transform="matrix(1.00402 0 0 1 177 133)"/><path d="M19.3561 159.215 56.1162 178.094" stroke="#E6E6E6" stroke-width="0.790941" fill="none" transform="matrix(1.00402 0 0 1 177 133)"/><path d="M19.023 172.431 55.5609 191.421" stroke="#E6E6E6" stroke-width="0.790941" fill="none" transform="matrix(1.00402 0 0 1 177 133)"/><path d="M14.387 150.749 14.276 153.636 16.7192 154.747 16.7192 151.97Z" fill="#FF0000" transform="matrix(1.00402 0 0 1 177 133)"/><path d="M14.308 163.171 14.1969 166.058 16.6402 167.169 16.6402 164.392Z" fill="#00FF00" transform="matrix(1.00402 0 0 1 177 133)"/><path d="M14.1414 173.832 14.0304 176.72 16.4736 177.83 16.4736 175.054Z" fill="#00FF00" transform="matrix(1.00402 0 0 1 177 133)"/><path d="M68.2857 24.9939 69.0939 28.1902 68.3532 29.1188C67.9458 29.6296 67.6124 30.0844 67.6124 30.1294 67.6124 30.1745 68.2276 30.0798 68.9796 29.9191L70.3468 29.6268 73.3165 30.2291C74.9499 30.5604 76.6124 30.9029 77.0112 30.9903 77.715 31.1446 77.8826 31.0479 82.7605 27.6741 87.36 24.4929 88.7223 23.6215 87.648 24.5476 87.4256 24.7394 85.473 26.5346 83.3089 28.537 81.1448 30.5394 79.2219 32.2708 79.0358 32.3847 78.7564 32.5556 77.959 32.4416 74.4523 31.7295L70.2071 30.8673 64.7105 32.0394C61.6874 32.684 59.1235 33.2597 59.013 33.3189 58.9024 33.378 61.2567 34.2722 64.2448 35.306L69.6776 37.1857 73.5324 37.6768C75.6525 37.9469 77.4305 38.1922 77.4833 38.222 77.5362 38.2517 75.9564 38.2354 73.9727 38.1858 71.989 38.1361 70.3583 38.1235 70.3489 38.1577 70.3395 38.1919 69.8472 39.7536 69.2549 41.6282L68.1781 45.0365 68.3118 42.7126C68.3854 41.4345 68.5193 39.8654 68.6094 39.2257L68.7733 38.0626 62.8113 36.0835C59.5322 34.995 56.7515 34.1384 56.6319 34.18 56.5123 34.2215 54.8856 36.0959 53.0169 38.3453L49.6193 42.4351 47.5326 43.1827C46.385 43.5939 43.8991 44.4849 42.0084 45.1627 40.1177 45.8405 38.7225 46.2922 38.9078 46.1665 39.0932 46.0409 41.2297 45.0032 43.6557 43.8606L48.0666 41.7831 50.1566 39.0226C51.306 37.5043 52.1866 36.2284 52.1134 36.1872 52.0402 36.1461 50.8742 36.0338 49.5222 35.9378 46.4715 35.7211 42.5598 35.94 41.5759 36.3822 41.2231 36.5408 40.4031 36.9146 39.7538 37.2128L38.5731 37.755 39.4628 37.0579C41.4464 35.5034 41.3592 35.5363 44.5232 35.1474 47.246 34.8128 47.6493 34.8003 50.1681 34.972 51.66 35.0737 52.962 35.114 53.0614 35.0616 53.1607 35.0093 53.548 34.5539 53.922 34.0498L54.6018 33.1332 53.916 31.9855C53.1192 30.6521 53.1649 30.6687 49.301 30.3178 47.7865 30.1803 46.4792 30.0197 46.396 29.9608 45.9321 29.6332 44.0646 28.2708 43.8134 28.0769 43.6512 27.9517 44.3086 28.1957 45.2744 28.6192L47.0304 29.3891 49.9163 29.3891 52.8023 29.3891 53.5561 28.3209 54.3099 27.2528 52.5379 25.0675C50.4906 22.5427 50.1273 22.0458 50.4878 22.2625 51.0606 22.607 56.4143 27.2238 56.4118 27.3712 56.4096 27.4585 56.0077 28.0429 55.517 28.6698L54.6247 29.8096 55.6736 31.0922 56.7226 32.3749 60.4465 31.6441 64.1704 30.9132 65.6342 29.3288 67.098 27.7444 67.2878 24.7711 67.4775 21.7977ZM68.1414 45.3593C68.1282 45.5397 68.0629 45.5764 67.975 45.4529 67.8955 45.341 67.9053 45.2074 67.9966 45.1559 68.0881 45.1044 68.1532 45.1959 68.1413 45.3593Z" fill="#FFFFFF" transform="matrix(1.00402 0 0 1 177 133)"/><path d="M100.471 143.957C101 144.937 100.985 144.959 100.31 144.19 99.9007 143.724 99.5658 143.237 99.5658 143.109 99.5658 142.6 99.915 142.927 100.471 143.957ZM101.409 145.76C101.992 146.608 101.658 150.057 100.791 152.123 100.251 153.41 100.074 154.35 100.346 154.481 100.595 154.602 101.299 155.273 101.911 155.972 102.932 157.14 103.014 157.574 102.921 161.315L102.82 165.387 104.914 165.249C106.065 165.174 108.587 164.943 110.516 164.736 114.725 164.286 114.803 164.51 112.536 170.503 111.718 172.668 111.048 174.64 111.048 174.886 111.048 175.325 117.625 183.667 117.972 183.667 118.07 183.667 118.683 181.79 119.335 179.495 120.579 175.115 125.127 162.513 125.348 162.834 125.418 162.936 124.723 165.677 123.803 168.925 122.883 172.173 121.642 177.305 121.046 180.33L119.961 185.83 122.443 189.617C123.808 191.699 125.237 194.341 125.62 195.488 126.268 197.432 126.266 197.601 125.592 197.993 124.304 198.741 123.903 198.529 123.631 196.956 123.338 195.261 119.513 189.475 112.988 180.858 110.04 176.966 108.849 175.003 109.052 174.373 109.211 173.876 110.013 172.118 110.833 170.466 111.653 168.814 112.324 167.214 112.324 166.91 112.324 166.592 109.988 166.528 106.838 166.76L101.351 167.164 101.96 163.333C102.921 157.289 102.613 156.773 95.9469 153.269 90.2559 150.277 89.0462 149.166 94.2819 151.739 99.4537 154.281 99.3775 154.28 100.427 151.813 101.061 150.321 101.302 148.948 101.184 147.487 100.997 145.155 100.996 145.16 101.409 145.76Z" fill="#FFFFF2" transform="matrix(1.00402 0 0 1 177 133)"/></g></g></g><g clip-path="url(#clip4)"><g clip-path="url(#clip5)"><g clip-path="url(#clip6)"><path d="M0.872151 34.5162 67.4135 67.7868 132.752 34.1153 67.0126 0.443769Z" stroke="#E6E6E6" stroke-width="0.789474" fill="none" transform="matrix(1 0 0 1.00186 540 133)"/><path d="M0.872151 34.5162 0.872151 192.853 66.211 225.722 67.4135 67.7868Z" stroke="#E6E6E6" stroke-width="0.789474" fill="none" transform="matrix(1 0 0 1.00186 540 133)"/><path d="M67.4135 67.7868 66.211 225.722 133.955 192.853 132.752 34.1153Z" stroke="#E6E6E6" stroke-width="0.789474" fill="none" transform="matrix(1 0 0 1.00186 540 133)"/><path d="M10.0917 49.3477 9.29002 184.835 57.3922 208.887 58.1939 72.5971Z" stroke="#E6E6E6" stroke-width="0.789474" fill="none" transform="matrix(1 0 0 1.00186 540 133)"/><path d="M11.6715 53.0562 11.6715 64.2522 56.3447 87.4202 56.3447 75.2265Z" stroke="#E6E6E6" stroke-width="0.789474" fill="none" transform="matrix(1 0 0 1.00186 540 133)"/><path d="M15.5513 60.1507 15.4404 63.0328 17.8792 64.1413 17.8792 61.3701Z" fill="#FFCC00" transform="matrix(1 0 0 1.00186 540 133)"/><path d="M37.0614 69.3647 36.9506 72.2468 39.3893 73.3553 39.3893 70.584Z" fill="#FFCC00" transform="matrix(1 0 0 1.00186 540 133)"/><path d="M44.7102 73.6879 44.5993 76.57 47.0381 77.6785 47.0381 74.9072Z" fill="#FFCC00" transform="matrix(1 0 0 1.00186 540 133)"/><path d="M48.7279 79.1466 48.617 82.0288 51.0558 83.1373 51.0558 80.366Z" fill="#FFCC00" transform="matrix(1 0 0 1.00186 540 133)"/><path d="M51.1666 75.9049 51.0558 78.787 53.4945 79.8956 53.4945 77.1243Z" fill="#FFCC00" transform="matrix(1 0 0 1.00186 540 133)"/><path d="M11.7294 68.1542 11.7294 79.3502 56.4025 102.518 56.4025 90.3245Z" stroke="#E6E6E6" stroke-width="0.789474" fill="none" transform="matrix(1 0 0 1.00186 540 133)"/><path d="M15.6092 75.2487 15.4983 78.1309 17.937 79.2394 17.937 76.4681Z" fill="#FFCC00" transform="matrix(1 0 0 1.00186 540 133)"/><path d="M37.1193 84.4627 37.0084 87.3448 39.4472 88.4534 39.4472 85.6821Z" fill="#FFCC00" transform="matrix(1 0 0 1.00186 540 133)"/><path d="M44.768 88.7859 44.6572 91.6681 47.0959 92.7766 47.0959 90.0053Z" fill="#FFCC00" transform="matrix(1 0 0 1.00186 540 133)"/><path d="M48.7857 94.2447 48.6749 97.1268 51.1136 98.2353 51.1136 95.464Z" fill="#FFCC00" transform="matrix(1 0 0 1.00186 540 133)"/><path d="M51.2245 91.0029 51.1136 93.8851 53.5523 94.9936 53.5523 92.2223Z" fill="#FFCC00" transform="matrix(1 0 0 1.00186 540 133)"/><path d="M11.6161 82.8688 11.6161 94.0648 56.2892 117.233 56.2892 105.039Z" stroke="#E6E6E6" stroke-width="0.789474" fill="none" transform="matrix(1 0 0 1.00186 540 133)"/><path d="M15.4959 89.9633 15.385 92.8455 17.8237 93.954 17.8237 91.1827Z" fill="#FFCC00" transform="matrix(1 0 0 1.00186 540 133)"/><path d="M37.006 99.1773 36.8952 102.059 39.3339 103.168 39.3339 100.397Z" fill="#FFCC00" transform="matrix(1 0 0 1.00186 540 133)"/><path d="M44.6548 103.501 44.5439 106.383 46.9826 107.491 46.9826 104.72Z" fill="#FFCC00" transform="matrix(1 0 0 1.00186 540 133)"/><path d="M48.6724 108.959 48.5616 111.841 51.0003 112.95 51.0003 110.179Z" fill="#FFCC00" transform="matrix(1 0 0 1.00186 540 133)"/><path d="M51.1112 105.718 51.0003 108.6 53.4391 109.708 53.4391 106.937Z" fill="#FFCC00" transform="matrix(1 0 0 1.00186 540 133)"/><path d="M11.7269 97.9446 11.7269 109.141 56.4001 132.309 56.4001 120.115Z" stroke="#E6E6E6" stroke-width="0.789474" fill="none" transform="matrix(1 0 0 1.00186 540 133)"/><path d="M15.6067 105.039 15.4959 107.921 17.9346 109.03 17.9346 106.259Z" fill="#FFCC00" transform="matrix(1 0 0 1.00186 540 133)"/><path d="M37.1169 114.253 37.006 117.135 39.4447 118.244 39.4447 115.472Z" fill="#FFCC00" transform="matrix(1 0 0 1.00186 540 133)"/><path d="M44.7656 118.576 44.6548 121.458 47.0935 122.567 47.0935 119.796Z" fill="#FFCC00" transform="matrix(1 0 0 1.00186 540 133)"/><path d="M48.7833 124.035 48.6724 126.917 51.1112 128.026 51.1112 125.254Z" fill="#FFCC00" transform="matrix(1 0 0 1.00186 540 133)"/><path d="M51.222 120.793 51.1112 123.675 53.5499 124.784 53.5499 122.013Z" fill="#FFCC00" transform="matrix(1 0 0 1.00186 540 133)"/><path d="M11.7269 112.688 11.7269 123.884 56.4001 147.052 56.4001 134.858Z" stroke="#E6E6E6" stroke-width="0.789474" fill="none" transform="matrix(1 0 0 1.00186 540 133)"/><path d="M15.6067 119.782 15.4959 122.665 17.9346 123.773 17.9346 121.002Z" fill="#FFCC00" transform="matrix(1 0 0 1.00186 540 133)"/><path d="M37.1169 128.996 37.006 131.879 39.4447 132.987 39.4447 130.216Z" fill="#FFCC00" transform="matrix(1 0 0 1.00186 540 133)"/><path d="M44.7656 133.32 44.6548 136.202 47.0935 137.31 47.0935 134.539Z" fill="#FFCC00" transform="matrix(1 0 0 1.00186 540 133)"/><path d="M48.7833 138.778 48.6724 141.66 51.1112 142.769 51.1112 139.998Z" fill="#FFCC00" transform="matrix(1 0 0 1.00186 540 133)"/><path d="M51.222 135.537 51.1112 138.419 53.5499 139.527 53.5499 136.756Z" fill="#FFCC00" transform="matrix(1 0 0 1.00186 540 133)"/><path d="M11.3944 127.431 11.3944 138.627 56.0675 161.795 56.0675 149.601Z" stroke="#E6E6E6" stroke-width="0.789474" fill="none" transform="matrix(1 0 0 1.00186 540 133)"/><path d="M15.2742 134.526 15.1633 137.408 17.602 138.516 17.602 135.745Z" fill="#FFCC00" transform="matrix(1 0 0 1.00186 540 133)"/><path d="M36.7843 143.74 36.6735 146.622 39.1122 147.73 39.1122 144.959Z" fill="#FFCC00" transform="matrix(1 0 0 1.00186 540 133)"/><path d="M44.4331 148.063 44.3222 150.945 46.7609 152.053 46.7609 149.282Z" fill="#FFCC00" transform="matrix(1 0 0 1.00186 540 133)"/><path d="M48.4507 153.522 48.3399 156.404 50.7786 157.512 50.7786 154.741Z" fill="#FFCC00" transform="matrix(1 0 0 1.00186 540 133)"/><path d="M50.8895 150.28 50.7786 153.162 53.2174 154.271 53.2174 151.499Z" fill="#FFCC00" transform="matrix(1 0 0 1.00186 540 133)"/><path d="M11.8932 141.405 55.9012 164.129 55.5687 203.371 11.3389 181.533Z" stroke="#E6E6E6" stroke-width="0.789474" fill="none" transform="matrix(1 0 0 1.00186 540 133)"/><path d="M19.4311 145.174 19.0986 185.302" stroke="#E6E6E6" stroke-width="0.789474" fill="none" transform="matrix(1 0 0 1.00186 540 133)"/><path d="M19.3202 158.919 56.0121 177.764" stroke="#E6E6E6" stroke-width="0.789474" fill="none" transform="matrix(1 0 0 1.00186 540 133)"/><path d="M18.9877 172.111 55.4578 191.066" stroke="#E6E6E6" stroke-width="0.789474" fill="none" transform="matrix(1 0 0 1.00186 540 133)"/><path d="M14.3603 150.469 14.2495 153.351 16.6882 154.46 16.6882 151.688Z" fill="#00FF00" transform="matrix(1 0 0 1.00186 540 133)"/><path d="M14.2815 162.868 14.1706 165.75 16.6093 166.859 16.6093 164.087Z" fill="#00FF00" transform="matrix(1 0 0 1.00186 540 133)"/><path d="M14.1152 173.51 14.0043 176.392 16.4431 177.5 16.4431 174.729Z" fill="#00FF00" transform="matrix(1 0 0 1.00186 540 133)"/><path d="M127.656 49.8585C127.569 49.7661 127.494 49.6178 127.49 49.529 127.476 49.2477 128.357 45.864 128.485 45.7056 128.575 45.5941 128.683 45.5549 128.899 45.5549 129.242 45.5549 129.454 45.756 129.454 46.0808 129.454 46.4807 128.609 49.707 128.461 49.8704 128.264 50.0893 127.867 50.0834 127.656 49.8585ZM135.91 49.9048C135.791 49.8086 135.666 49.4119 135.315 48.0143 135.07 47.0415 134.869 46.1729 134.868 46.0841 134.865 45.8691 135.224 45.5171 135.446 45.5171 135.542 45.5171 135.703 45.5873 135.802 45.6732 135.959 45.8079 136.044 46.071 136.429 47.5984 136.674 48.5713 136.875 49.4391 136.876 49.5267 136.881 49.9308 136.248 50.1784 135.91 49.9048ZM120.519 46.1382C120.326 46.0606 120.16 45.6936 120.219 45.4749 120.243 45.3869 120.704 44.8218 121.243 44.2192 122.829 42.4485 122.813 42.4645 123.05 42.4645 123.461 42.4645 123.775 42.883 123.632 43.2402 123.551 43.4444 121.244 46.0073 121.039 46.121 120.859 46.2211 120.736 46.2252 120.519 46.1383ZM143.311 46.1353C143.243 46.0959 142.627 45.4416 141.941 44.6812 140.817 43.4357 140.693 43.2743 140.693 43.052 140.693 42.6331 141.095 42.357 141.486 42.5071 141.616 42.5569 143.964 45.1347 144.082 45.3567 144.212 45.6012 144.176 45.792 143.959 46.0083 143.751 46.2169 143.526 46.2609 143.311 46.1353ZM132.203 41.7509C132.068 41.6159 132.038 41.4938 132.001 40.9358 131.853 38.6951 130.827 36.683 129.138 35.3246 127.838 34.2787 126.429 33.7288 124.704 33.5941 123.844 33.5271 123.668 33.4243 123.668 32.9875 123.668 32.6392 123.94 32.4053 124.344 32.4053 124.872 32.4053 125.765 32.2656 126.384 32.0864 128.953 31.3419 130.959 29.334 131.704 26.761 131.882 26.1484 132.021 25.2537 132.021 24.7276 132.021 24.3236 132.255 24.0524 132.604 24.0524 133.04 24.0524 133.143 24.2278 133.21 25.0876 133.525 29.1177 136.546 32.1208 140.552 32.3849 141.317 32.4353 141.526 32.5639 141.526 32.9841 141.526 33.4272 141.365 33.5284 140.564 33.5905 139.434 33.678 138.664 33.8674 137.72 34.2898 136.726 34.7352 135.528 35.6754 134.873 36.5243 133.863 37.8323 133.343 39.2121 133.208 40.9333 133.159 41.562 133.131 41.673 132.995 41.7831 132.774 41.9621 132.399 41.9468 132.203 41.7509ZM133.616 36.2556C133.825 35.9504 134.294 35.4036 134.657 35.0406 135.411 34.2865 136.145 33.758 137.07 33.303L137.713 32.9866 136.99 32.6273C135.249 31.7619 133.904 30.4258 133 28.6633L132.593 27.8699 132.346 28.4024C131.494 30.2478 129.864 31.8778 128.019 32.7303L127.487 32.9762 128.248 33.3671C129.197 33.8542 129.788 34.2747 130.486 34.9592 131.202 35.6602 131.801 36.4838 132.243 37.3741L132.603 38.0969 132.919 37.4537C133.093 37.0999 133.407 36.5608 133.616 36.2556ZM115.743 39.2478C115.506 39.044 115.478 38.6493 115.687 38.4423 115.831 38.2986 119.174 36.9841 119.394 36.9841 119.594 36.9841 119.875 37.2688 119.923 37.519 119.999 37.9133 119.761 38.0603 117.89 38.7729 116.967 39.1246 116.149 39.4123 116.073 39.4123 115.996 39.4123 115.848 39.3383 115.743 39.2478ZM146.382 38.7477C145.344 38.3474 144.635 38.0358 144.561 37.9468 144.397 37.75 144.405 37.3658 144.577 37.194 144.849 36.9218 144.973 36.9458 146.684 37.6003 148.46 38.2794 148.595 38.3391 148.721 38.5044 148.981 38.8421 148.644 39.425 148.2 39.4077 148.135 39.4055 147.317 39.1082 146.382 38.7477ZM116.481 31.3596C115.661 31.2513 114.965 31.1612 114.934 31.1594 114.904 31.1572 114.803 31.0796 114.709 30.9859 114.484 30.7606 114.484 30.4418 114.709 30.2165 114.93 29.9955 115.063 29.9975 117.134 30.2538 118.585 30.4333 118.813 30.4782 118.955 30.6116 119.176 30.8193 119.177 31.2148 118.957 31.4216 118.745 31.6212 118.396 31.6124 116.482 31.3596ZM145.373 31.4022C145.111 31.1401 145.167 30.6997 145.483 30.5302 145.64 30.4462 148.676 30.0473 149.162 30.0466 149.56 30.046 149.782 30.2477 149.782 30.6109 149.782 31.0867 149.667 31.1299 147.784 31.364 145.711 31.6217 145.594 31.6235 145.373 31.4022ZM119.145 24.34C118.312 23.7581 117.586 23.2018 117.531 23.1038 117.335 22.7539 117.628 22.2753 118.038 22.2768 118.322 22.2775 121.314 24.3574 121.416 24.6248 121.559 25.0012 121.292 25.398 120.894 25.398 120.704 25.398 120.373 25.1978 119.145 24.34ZM143.064 25.2374C142.844 25.0033 142.862 24.6391 143.104 24.4147 143.269 24.2621 144.523 23.3684 145.748 22.5305 146.19 22.228 146.456 22.2045 146.698 22.4463 146.904 22.6527 146.928 23.048 146.746 23.23 146.679 23.2968 145.965 23.8119 145.158 24.3747 143.557 25.4923 143.374 25.5675 143.064 25.2374ZM125.483 20.8898C125.233 20.6933 123.627 17.6346 123.627 17.3554 123.627 16.9157 124.145 16.6457 124.506 16.898 124.686 17.0246 126.402 20.2536 126.402 20.4672 126.402 20.674 126.039 21.0273 125.827 21.0273 125.734 21.0273 125.579 20.9654 125.483 20.8898ZM138.166 20.8652C137.893 20.5918 137.93 20.3265 138.355 19.5305 138.557 19.1518 138.949 18.4168 139.226 17.8972 139.732 16.9495 139.871 16.7953 140.216 16.7953 140.404 16.7953 140.763 17.1618 140.763 17.3531 140.763 17.5041 139.1 20.7025 138.932 20.8735 138.884 20.9225 138.733 20.9808 138.595 21.0031 138.388 21.0368 138.314 21.0131 138.166 20.8652ZM131.775 19.2613 131.605 19.091 131.605 17.1228C131.605 15.1695 131.607 15.1534 131.761 15.014 131.992 14.8058 132.142 14.7741 132.395 14.8796 132.771 15.037 132.793 15.175 132.77 17.24L132.75 19.0969 132.555 19.2643C132.301 19.483 131.996 19.4818 131.775 19.2614Z" fill="#FFFFFF" transform="matrix(1 0 0 1.00186 540 133)"/><path d="M86.0281 125.685C85.9412 125.592 85.8666 125.444 85.8623 125.355 85.8485 125.074 86.7291 121.69 86.8574 121.532 86.9477 121.42 87.0554 121.381 87.2718 121.381 87.6145 121.381 87.8268 121.582 87.8268 121.907 87.8268 122.307 86.9812 125.533 86.8336 125.697 86.6359 125.916 86.2393 125.91 86.0281 125.685ZM94.2825 125.731C94.1638 125.635 94.0388 125.238 93.687 123.841 93.4421 122.868 93.241 121.999 93.2399 121.91 93.2376 121.695 93.5967 121.343 93.8186 121.343 93.9148 121.343 94.075 121.414 94.1747 121.499 94.3312 121.634 94.4168 121.897 94.8011 123.425 95.046 124.398 95.2471 125.265 95.2482 125.353 95.2529 125.757 94.6205 126.005 94.2825 125.731ZM78.8917 121.965C78.6984 121.887 78.5321 121.52 78.5912 121.301 78.615 121.213 79.076 120.648 79.6157 120.046 81.2016 118.275 81.1851 118.291 81.4223 118.291 81.8331 118.291 82.1472 118.709 82.0045 119.067 81.9229 119.271 79.6161 121.834 79.4115 121.947 79.2315 122.047 79.1083 122.051 78.8917 121.965ZM101.683 121.961C101.615 121.922 100.999 121.268 100.313 120.507 99.1893 119.262 99.0657 119.1 99.0657 118.878 99.0657 118.459 99.4672 118.183 99.8584 118.333 99.988 118.383 102.336 120.961 102.454 121.183 102.584 121.427 102.548 121.618 102.332 121.834 102.123 122.043 101.899 122.087 101.683 121.961ZM90.5754 117.577C90.4403 117.442 90.41 117.32 90.3733 116.762 90.2256 114.521 89.1989 112.509 87.5103 111.151 86.2102 110.105 84.8009 109.555 83.076 109.42 82.2162 109.353 82.0408 109.25 82.0408 108.814 82.0408 108.465 82.312 108.231 82.716 108.231 83.2439 108.231 84.1376 108.092 84.756 107.912 87.3249 107.168 89.331 105.16 90.0767 102.587 90.2542 101.974 90.3937 101.08 90.3937 100.554 90.3937 100.15 90.6276 99.8785 90.9759 99.8785 91.4126 99.8785 91.5154 100.054 91.5825 100.914 91.8971 104.944 94.9184 107.947 98.9241 108.211 99.6891 108.261 99.8982 108.39 99.8982 108.81 99.8982 109.253 99.7377 109.354 98.9362 109.417 97.8061 109.504 97.036 109.693 96.0926 110.116 95.0981 110.561 93.8998 111.501 93.2449 112.35 92.2358 113.658 91.7149 115.038 91.5802 116.759 91.5311 117.388 91.5033 117.499 91.3672 117.609 91.1463 117.788 90.7712 117.773 90.5754 117.577ZM91.9884 112.082C92.1977 111.776 92.666 111.23 93.029 110.867 93.7831 110.113 94.517 109.584 95.4421 109.129L96.0853 108.813 95.3624 108.453C93.6214 107.588 92.2764 106.252 91.372 104.489L90.9649 103.696 90.7188 104.229C89.8662 106.074 88.2363 107.704 86.3912 108.556L85.859 108.802 86.6206 109.193C87.5693 109.68 88.1605 110.101 88.8588 110.785 89.5739 111.486 90.1732 112.31 90.6157 113.2L90.975 113.923 91.2914 113.28C91.4654 112.926 91.779 112.387 91.9884 112.082ZM74.115 115.074C73.878 114.87 73.8506 114.475 74.0591 114.268 74.2037 114.125 77.5459 112.81 77.7666 112.81 77.9661 112.81 78.2477 113.095 78.2957 113.345 78.3714 113.739 78.1329 113.886 76.2621 114.599 75.3388 114.951 74.5211 115.238 74.4448 115.238 74.3685 115.238 74.2201 115.164 74.115 115.074ZM104.755 114.574C103.716 114.173 103.008 113.862 102.933 113.773 102.769 113.576 102.777 113.192 102.949 113.02 103.221 112.748 103.345 112.772 105.057 113.426 106.832 114.105 106.967 114.165 107.094 114.33 107.353 114.668 107.017 115.251 106.572 115.234 106.507 115.231 105.689 114.934 104.755 114.574ZM74.8534 107.186C74.0331 107.077 73.337 106.987 73.3066 106.985 73.2763 106.983 73.1748 106.906 73.0812 106.812 72.8559 106.587 72.8559 106.268 73.0812 106.043 73.3022 105.822 73.4352 105.824 75.5062 106.08 76.957 106.259 77.1853 106.304 77.3273 106.438 77.5484 106.645 77.5493 107.041 77.3296 107.248 77.1171 107.447 76.7683 107.439 74.8538 107.186ZM103.745 107.228C103.483 106.966 103.539 106.526 103.856 106.356 104.013 106.272 107.048 105.873 107.535 105.873 107.933 105.872 108.154 106.074 108.154 106.437 108.154 106.913 108.039 106.956 106.156 107.19 104.084 107.448 103.967 107.45 103.745 107.228ZM77.5174 100.166C76.6844 99.5841 75.9579 99.0278 75.9031 98.9298 75.7073 98.5799 76.0007 98.1014 76.4101 98.1029 76.6947 98.1036 79.6868 100.183 79.7885 100.451 79.9316 100.827 79.6639 101.224 79.2668 101.224 79.0763 101.224 78.7453 101.024 77.5174 100.166ZM101.437 101.063C101.217 100.829 101.234 100.465 101.477 100.241 101.641 100.088 102.895 99.1945 104.121 98.3565 104.563 98.0541 104.828 98.0306 105.07 98.2724 105.276 98.4787 105.301 98.874 105.119 99.056 105.052 99.1228 104.337 99.6379 103.531 100.201 101.929 101.318 101.747 101.394 101.437 101.063ZM83.855 96.7158C83.6052 96.5194 81.9992 93.4606 81.9992 93.1814 81.9992 92.7417 82.5178 92.4718 82.8779 92.724 83.0587 92.8506 84.7742 96.0796 84.7742 96.2933 84.7742 96.5001 84.4115 96.8533 84.1992 96.8533 84.106 96.8533 83.9511 96.7914 83.855 96.7158ZM96.5386 96.6913C96.2651 96.4179 96.3027 96.1525 96.7274 95.3565 96.9294 94.9778 97.3216 94.2428 97.5988 93.7233 98.1045 92.7755 98.243 92.6214 98.5887 92.6214 98.7761 92.6214 99.135 92.9878 99.135 93.1792 99.135 93.3301 97.4721 96.5286 97.3048 96.6995 97.2568 96.7486 97.105 96.8069 96.9673 96.8292 96.76 96.8629 96.6865 96.8392 96.5386 96.6913ZM90.1477 95.0874 89.9774 94.9171 89.9774 92.9488C89.9774 90.9955 89.979 90.9794 90.1335 90.84 90.3648 90.6319 90.5145 90.6001 90.7672 90.7057 91.1438 90.863 91.1657 91.0011 91.1428 93.0661L91.1222 94.923 90.9275 95.0903C90.6731 95.309 90.3682 95.3079 90.1477 95.0872Z" fill="#FFFFFF" transform="matrix(1 0 0 1.00186 540 133)"/><path d="M115.229 203.963C115.142 203.871 115.067 203.723 115.063 203.634 115.049 203.352 115.93 199.969 116.058 199.81 116.148 199.699 116.256 199.66 116.472 199.66 116.815 199.66 117.027 199.861 117.027 200.186 117.027 200.585 116.182 203.812 116.034 203.975 115.837 204.194 115.44 204.188 115.229 203.963ZM123.483 204.01C123.364 203.913 123.239 203.517 122.888 202.119 122.643 201.146 122.442 200.278 122.441 200.189 122.441 199.974 122.797 199.622 123.019 199.622 123.115 199.622 123.276 199.692 123.375 199.778 123.532 199.913 123.617 200.176 124.002 201.703 124.247 202.676 124.448 203.544 124.449 203.631 124.456 204.036 123.821 204.283 123.483 204.01ZM108.092 200.243C107.899 200.165 107.733 199.798 107.792 199.58 107.816 199.492 108.277 198.927 108.816 198.324 110.402 196.553 110.386 196.569 110.623 196.569 111.034 196.569 111.348 196.988 111.205 197.345 111.124 197.549 108.817 200.112 108.612 200.226 108.432 200.326 108.309 200.33 108.092 200.243ZM130.884 200.24C130.816 200.2 130.199 199.546 129.514 198.786 128.39 197.54 128.266 197.379 128.266 197.157 128.266 196.738 128.668 196.462 129.059 196.612 129.189 196.661 131.537 199.239 131.655 199.461 131.785 199.706 131.749 199.896 131.532 200.113 131.324 200.321 131.099 200.365 130.884 200.24ZM119.776 195.855C119.641 195.72 119.611 195.598 119.574 195.04 119.426 192.8 118.4 190.788 116.711 189.429 115.411 188.383 114.002 187.833 112.277 187.699 111.417 187.632 111.241 187.529 111.241 187.092 111.241 186.744 111.513 186.51 111.917 186.51 112.445 186.51 113.338 186.37 113.957 186.191 116.525 185.446 118.532 183.439 119.277 180.866 119.455 180.253 119.594 179.358 119.594 178.832 119.594 178.428 119.828 178.157 120.177 178.157 120.613 178.157 120.716 178.332 120.783 179.192 121.098 183.222 124.119 186.225 128.125 186.489 128.89 186.54 129.099 186.668 129.099 187.089 129.099 187.532 128.938 187.633 128.137 187.695 127.007 187.783 126.237 187.972 125.293 188.394 124.299 188.84 123.1 189.78 122.446 190.629 121.436 191.937 120.915 193.317 120.781 195.038 120.732 195.667 120.704 195.778 120.568 195.888 120.347 196.067 119.972 196.051 119.776 195.855ZM121.189 190.36C121.398 190.055 121.867 189.508 122.23 189.145 122.984 188.391 123.718 187.863 124.643 187.407L125.286 187.091 124.563 186.732C122.822 185.866 121.477 184.53 120.573 182.768L120.166 181.974 119.919 182.507C119.067 184.352 117.437 185.982 115.592 186.835L115.06 187.081 115.821 187.472C116.77 187.959 117.361 188.379 118.059 189.064 118.775 189.765 119.374 190.588 119.816 191.479L120.176 192.201 120.492 191.558C120.666 191.204 120.98 190.665 121.189 190.36ZM103.316 193.352C103.079 193.149 103.051 192.754 103.259 192.547 103.404 192.403 106.746 191.089 106.967 191.089 107.166 191.089 107.448 191.373 107.496 191.624 107.572 192.018 107.333 192.165 105.462 192.877 104.539 193.229 103.722 193.517 103.645 193.517 103.569 193.517 103.421 193.443 103.315 193.352ZM133.955 192.852C132.917 192.452 132.208 192.14 132.134 192.051 131.97 191.855 131.978 191.47 132.149 191.299 132.422 191.026 132.546 191.05 134.257 191.705 136.033 192.384 136.167 192.444 136.294 192.609 136.553 192.947 136.217 193.529 135.773 193.512 135.708 193.51 134.89 193.213 133.955 192.852ZM104.054 185.464C103.234 185.356 102.538 185.266 102.507 185.264 102.477 185.262 102.375 185.184 102.282 185.09 102.057 184.865 102.057 184.546 102.282 184.321 102.503 184.1 102.636 184.102 104.707 184.358 106.158 184.538 106.386 184.583 106.528 184.716 106.749 184.924 106.75 185.319 106.528 185.526 106.316 185.726 105.967 185.717 104.052 185.464ZM132.946 185.507C132.684 185.245 132.74 184.804 133.056 184.635 133.213 184.551 136.248 184.152 136.735 184.151 137.133 184.15 137.355 184.352 137.355 184.715 137.355 185.191 137.24 185.234 135.357 185.468 133.284 185.726 133.167 185.728 132.946 185.507ZM106.718 178.444C105.885 177.863 105.159 177.306 105.104 177.208 104.908 176.858 105.201 176.38 105.611 176.381 105.895 176.382 108.887 178.462 108.989 178.729 109.132 179.106 108.865 179.502 108.467 179.502 108.277 179.502 107.946 179.302 106.718 178.444ZM130.637 179.342C130.417 179.108 130.435 178.744 130.677 178.519 130.842 178.367 132.096 177.473 133.321 176.635 133.764 176.333 134.029 176.309 134.271 176.551 134.477 176.757 134.502 177.152 134.32 177.334 134.252 177.401 133.538 177.916 132.732 178.479 131.13 179.597 130.948 179.672 130.637 179.342ZM113.056 174.994C112.806 174.798 111.2 171.739 111.2 171.46 111.2 171.02 111.718 170.75 112.079 171.002 112.259 171.129 113.975 174.358 113.975 174.572 113.975 174.779 113.612 175.132 113.4 175.132 113.307 175.132 113.152 175.07 113.056 174.994ZM125.739 174.97C125.466 174.696 125.503 174.431 125.928 173.635 126.13 173.256 126.522 172.521 126.799 172.002 127.305 171.054 127.444 170.9 127.789 170.9 127.977 170.9 128.336 171.266 128.336 171.458 128.336 171.609 126.673 174.807 126.505 174.978 126.457 175.027 126.306 175.085 126.168 175.108 125.961 175.141 125.887 175.118 125.739 174.97ZM119.348 173.366 119.178 173.196 119.178 171.227C119.178 169.274 119.178 169.258 119.334 169.118 119.565 168.91 119.715 168.879 119.968 168.984 120.344 169.141 120.366 169.279 120.343 171.344L120.323 173.201 120.128 173.369C119.874 173.587 119.569 173.586 119.349 173.366Z" fill="#FFFFFF" transform="matrix(1 0 0 1.00186 540 133)"/></g></g></g><g clip-path="url(#clip7)"><g clip-path="url(#clip8)"><g clip-path="url(#clip9)"><path d="M449.636 194.24C449.831 195.822 449.793 195.831 449.226 194.341 448.631 192.776 448.608 192.004 449.165 192.34 449.306 192.425 449.518 193.279 449.636 194.24ZM450.275 198.218C450.071 199.363 449.947 199.345 449.515 198.11 448.928 196.425 449.042 195.96 449.913 196.485 450.246 196.685 450.409 197.465 450.275 198.218ZM454.268 201.681C454.092 201.973 454.52 203.273 455.219 204.569 456.183 206.355 456.689 206.765 457.311 206.26 457.97 205.727 458.316 205.935 459.061 207.318 459.614 208.342 460.158 208.763 460.403 208.357 460.629 207.981 461.071 207.828 461.383 208.016 462.142 208.474 461.642 212.566 460.829 212.549 460.479 212.542 460.683 212.683 461.284 212.862 461.884 213.041 462.63 214.032 462.941 215.064 463.372 216.493 464.292 217.278 466.803 218.358 470.67 220.022 471.923 221.373 471.068 222.958 470.678 223.681 470.765 223.867 471.303 223.462 471.772 223.11 472.66 223.133 473.278 223.512 474.232 224.099 474.194 224.208 473.024 224.233 470.893 224.279 471.784 225.814 474.031 225.968 476.738 226.152 483.291 231.498 483.486 233.68 483.636 235.369 485.188 236.27 492.929 239.162 495.802 240.235 496.523 240.763 496.361 241.676 496.248 242.311 496.58 243.087 497.099 243.4 497.618 243.713 497.848 244.292 497.61 244.686 497.372 245.081 496.957 244.974 496.687 244.449 496.377 243.846 496.201 243.903 496.209 244.605 496.215 245.216 496.921 245.884 497.776 246.089 499.185 246.426 499.158 246.58 497.487 247.725 496.474 248.419 495.309 248.786 494.9 248.539 494.49 248.292 493.423 248.462 492.528 248.917 491.632 249.372 488.672 249.809 485.948 249.888 480.715 250.04 467.465 251.887 463.213 253.058 460.038 253.933 457.073 253.056 455.514 250.781 454.324 249.045 454.339 249.006 456.633 247.888 459.907 246.294 472.3 243.426 473.898 243.893 474.629 244.107 473.978 243.481 472.451 242.502 470.925 241.523 467.886 240.474 465.699 240.171 460.912 239.509 460.993 239.55 461.812 238.192 462.222 237.513 462.756 237.473 463.233 238.084 463.653 238.624 464.311 238.904 464.694 238.707 465.077 238.51 464.937 237.883 464.382 237.314 463.232 236.133 460.533 236.619 460.549 238.004 460.558 238.826 457.38 238.742 454.859 237.853 453.724 237.453 454.211 236.367 455.533 236.352 456.044 236.347 456.738 235.805 457.075 235.149 457.626 234.074 457.586 234.055 456.662 234.955 456.099 235.504 455.355 235.783 455.01 235.575 454.665 235.367 454.135 235.607 453.833 236.108 453.1 237.324 449.73 237.934 448.349 237.101 447.741 236.735 446.217 236.728 444.962 237.086 443.266 237.571 442.603 237.423 442.377 236.511 442.043 235.164 439.514 235.349 438.649 236.784 438.395 237.205 438.012 237.209 437.798 236.793 437.584 236.376 436.04 236.252 434.368 236.517 430.78 237.085 429.78 236.655 430.332 234.783 430.718 233.477 430.699 233.465 429.944 234.549 429.508 235.175 428.881 235.525 428.552 235.327 428.223 235.128 427.427 235.479 426.783 236.107 426.139 236.735 425.261 237.036 424.831 236.778 424.402 236.519 424.422 236.116 424.877 235.882 426.376 235.112 424.426 234.647 421.507 235.079 418.249 235.561 415.606 235.287 414.5 234.353 414.054 233.976 413.652 234.24 413.517 235 413.386 235.733 412.926 236.066 412.444 235.775 411.979 235.495 410.872 235.555 409.985 235.909 408.468 236.513 408.412 236.465 409.059 235.12 411.799 229.43 413.42 228.052 415.733 229.446 416.382 229.837 416.86 229.602 416.998 228.823 417.139 228.031 417.62 227.813 418.31 228.229 418.908 228.589 419.674 228.428 420.011 227.869 420.744 226.653 421.59 227.033 422.02 228.771 422.259 229.734 421.98 230.068 420.854 230.168 419.806 230.261 419.271 230.839 419.022 232.148 418.671 233.99 418.676 233.994 420.651 233.339 422.525 232.717 422.569 232.642 421.466 231.95 420.37 231.264 420.398 231.221 421.92 231.244 422.812 231.258 423.537 230.852 423.531 230.343 423.525 229.834 425.258 229.013 427.381 228.52 430.824 227.72 431.16 227.778 430.49 229.062 429.188 231.553 429.077 231.949 429.599 232.263L430.763 232.965C431.124 233.182 431.522 232.779 431.649 232.069 431.78 231.332 432.623 230.712 433.614 230.623 434.713 230.525 435.344 230.018 435.336 229.24 435.326 228.337 435.563 228.321 436.231 229.178 436.731 229.82 437.268 230.421 437.424 230.515 437.579 230.609 437.462 231.092 437.162 231.589 436.863 232.086 437.148 232.812 437.795 233.202 439.151 234.02 441.487 233.607 442.2 232.424 442.549 231.845 442.854 232.076 443.274 233.236 443.678 234.356 443.86 234.498 443.861 233.696 443.862 233.04 444.605 232.352 445.57 232.112 446.51 231.88 447.274 231.302 447.269 230.828 447.263 230.354 447.932 230.1 448.755 230.263 449.578 230.426 451.44 230.484 452.892 230.391 454.55 230.286 455.352 230.524 455.047 231.03 454.676 231.645 454.899 231.785 455.986 231.621 457.081 231.455 457.365 231.654 457.211 232.477 457.066 233.252 457.552 233.363 458.964 232.879 460.392 232.389 460.872 232.503 460.751 233.302 460.633 234.086 461.215 234.191 462.809 233.673 464.762 233.04 464.949 232.804 464.341 231.738 463.96 231.07 463.226 230.529 462.71 230.535 462.193 230.54 461.1 229.24 460.28 227.645 459.46 226.049 458.236 224.646 457.559 224.525 456.883 224.405 456.502 224.021 456.712 223.672 456.923 223.323 456.532 222.937 455.844 222.814 455.155 222.692 454.778 222.284 455.005 221.908 455.454 221.162 452.514 216.97 450.411 215.357 449.861 214.935 450.051 214.738 451.033 214.707 452.171 214.672 452.144 214.479 450.897 213.715 450.045 213.194 449.045 211.546 448.675 210.053 448.306 208.56 447.843 207.242 447.647 207.124 447.038 206.757 446.449 203.633 447.052 203.967 447.365 204.14 447.25 203.607 446.798 202.782 446.165 201.63 446.254 201.279 447.179 201.269 447.955 201.26 448.605 202.295 449.004 204.172 449.344 205.776 450.143 207.204 450.777 207.345 451.59 207.526 451.585 206.629 450.761 204.308 449.616 201.081 449.632 201.008 451.569 200.797 453.768 200.556 454.752 200.878 454.268 201.681ZM464.896 234.608C464.559 235.167 464.778 235.923 465.383 236.287 466.283 236.83 466.44 236.674 466.251 235.425 466.124 234.587 465.905 233.831 465.764 233.746 465.624 233.662 465.233 234.05 464.896 234.608ZM459.681 249.935C457.913 250.373 457.994 250.611 460.035 250.974 460.76 251.103 461.518 250.936 461.719 250.604 462.254 249.716 461.526 249.478 459.681 249.935ZM424.748 233.033C424.293 233.267 424.243 233.653 424.638 233.891 425.032 234.128 425.539 234.018 425.764 233.646 425.988 233.273 426.038 232.887 425.873 232.788 425.709 232.689 425.202 232.799 424.748 233.033ZM463.992 212.361C463.998 212.872 463.527 213.004 462.947 212.654 462.366 212.304 462.074 211.712 462.299 211.34 462.523 210.967 462.994 210.835 463.345 211.046 463.695 211.258 463.987 211.849 463.992 212.361ZM440.508 231.432C439.551 232.784 437.793 233.608 438.552 232.349 438.795 231.944 439.1 231.02 439.23 230.294 439.377 229.468 439.829 229.194 440.44 229.563 440.993 229.897 441.023 230.705 440.508 231.432ZM455.124 252.352C454.893 252.734 455.094 253.043 455.57 253.038 456.046 253.033 456.441 253.51 456.447 254.098 456.455 254.848 455.878 254.69 454.519 253.573 453.213 252.498 452.409 252.258 452.06 252.838 451.452 253.847 447.518 254.265 447.058 253.369 446.486 252.257 448.9 250.611 450.827 250.799 454.136 251.122 455.555 251.635 455.124 252.352ZM453.582 256.002C452.366 256.513 450.873 257.359 450.263 257.881 449.654 258.403 448.887 258.667 448.558 258.469 448.229 258.271 447.772 258.419 447.543 258.799 447.314 259.179 445.528 260.285 443.575 261.256 441.622 262.227 438.469 263.954 436.567 265.094 431.972 267.848 431.011 268.059 430.961 266.325 430.928 265.164 430.693 265.141 429.591 266.189 428.78 266.962 428.079 267.079 427.794 266.491 427.536 265.96 426.716 265.159 425.971 264.71 424.863 264.042 424.889 263.41 426.113 261.251 427.162 259.402 428.006 258.692 428.926 258.884 431.341 259.388 434.933 258.269 435.865 256.723 436.423 255.796 437.932 255.106 439.691 254.971 442.358 254.767 442.536 254.849 441.865 255.962 441.218 257.034 441.417 257.104 443.579 256.566 445.689 256.04 445.943 255.775 445.438 254.631 444.971 253.573 445.12 253.558 446.175 254.557 446.902 255.246 447.63 255.59 447.793 255.321 447.955 255.052 449.821 254.885 451.94 254.951L455.793 255.071ZM407.835 233.69C406.893 235.145 405.849 236.004 405.326 235.756 404.833 235.522 404.112 235.191 403.722 235.02 403.333 234.849 402.92 235.244 402.804 235.897 402.683 236.576 401.797 237.043 400.731 236.988 399.438 236.922 399.003 236.673 399.306 236.171 399.545 235.774 400.302 235.548 400.988 235.67 401.673 235.792 402.229 235.473 402.224 234.96 402.217 234.385 401.793 234.245 401.115 234.593 400.511 234.904 399.938 234.838 399.841 234.447 399.744 234.056 400.158 233.487 400.761 233.181 401.364 232.876 402.08 232.07 402.352 231.39 402.962 229.859 404.86 229.744 405.225 231.215 405.404 231.939 405.156 232.304 404.483 232.312 403.927 232.318 403.185 232.8 402.834 233.382 402.315 234.244 402.478 234.399 403.709 234.212 404.54 234.086 405.218 233.612 405.213 233.159 405.207 232.705 405.526 232.529 405.921 232.767 406.315 233.005 406.833 232.877 407.071 232.482 407.309 232.087 406.984 231.764 406.35 231.763 405.566 231.762 405.715 231.573 406.817 231.175 409.314 230.273 409.596 230.969 407.835 233.69ZM398.208 233.274C397.7 234.044 397.443 234.107 397.552 233.436 397.652 232.83 398.028 232.26 398.388 232.17 398.749 232.081 398.668 232.578 398.208 233.274ZM433.112 255.161C432.775 255.72 432.204 255.999 431.843 255.782 431.482 255.564 431.638 255.035 432.19 254.605 432.741 254.176 433.312 253.896 433.458 253.985 433.605 254.073 433.449 254.602 433.112 255.161ZM388.815 233.436C389.15 234.106 389.011 234.577 388.479 234.583 387.981 234.588 387.283 235.384 386.926 236.351 386.16 238.424 382.501 238.474 381.52 236.424 381.049 235.438 381.36 235.156 383.242 234.86 384.504 234.661 385.921 233.861 386.391 233.083 387.31 231.558 387.921 231.647 388.815 233.436ZM378.628 232.938C378.633 233.449 378.333 233.684 377.961 233.459 377.588 233.235 377.278 232.632 377.273 232.121 377.267 231.61 377.568 231.375 377.94 231.6 378.313 231.824 378.622 232.427 378.628 232.938ZM374.709 235.003C374.128 235.311 373.758 236.246 373.885 237.085 374.059 238.239 373.81 238.684 372.858 238.919 372.167 239.091 371.107 240.052 370.502 241.055 369.897 242.059 368.858 242.782 368.193 242.664 367.349 242.514 367.306 242.199 368.05 241.619 368.683 241.126 368.83 240.111 368.413 239.115 368.026 238.193 368.012 237.622 368.382 237.844 368.751 238.067 369.211 238.863 369.403 239.615 369.686 240.716 369.878 240.582 370.391 238.925 370.781 237.667 371.456 236.865 372.132 236.858 372.961 236.849 373.114 236.607 372.746 235.891 372.401 235.22 372.775 234.864 374.01 234.691 375.254 234.516 375.458 234.607 374.709 235.003ZM376.716 240.56C373.992 241.126 373.22 241.142 373.531 240.628 373.927 239.97 378.068 239.065 378.762 239.484 379.204 239.75 378.283 240.234 376.716 240.56ZM366.547 240.01C366.703 241.038 366.416 241.668 365.715 241.842 365.013 242.016 364.733 241.357 364.898 239.925 365.177 237.511 366.176 237.562 366.547 240.01ZM362.216 237.715C362.877 239.037 361.285 241.095 359.852 240.773 359.197 240.626 359.335 239.879 360.263 238.559 361.033 237.464 361.66 236.572 361.657 236.577 361.654 236.582 361.905 237.094 362.216 237.715ZM354.489 241.032C354.335 241.894 353.327 242.598 351.781 242.921 350.426 243.205 349.984 243.165 350.799 242.831 351.614 242.498 352.383 241.653 352.507 240.953 352.632 240.253 353.183 239.676 353.733 239.669 354.283 239.663 354.623 240.276 354.489 241.032Z" fill="#F2F2F2"/></g></g></g></g></svg>