<svg width="212.018" height="247.184" xmlns="http://www.w3.org/2000/svg" xmlns:xlink="http://www.w3.org/1999/xlink" id="svg1785" overflow="hidden"><defs id="defs1789"></defs><path d="M6.57739 246.977C3.93374 246.77 3.28416 246.584 2.1296 245.703-0.182947 243.939-0.658892 241.615 0.931889 239.854 1.59181 239.123 1.59792 239.018 1.04291 237.945-0.402893 235.149 0.0657291 231 2.85789 221.874 3.76071 218.923 4.88776 214.322 5.36244 211.65 6.54039 205.017 7.56144 200.16 8.04442 198.892 8.26616 198.31 9.15059 196.69 10.0099 195.293 12.2989 191.569 12.3597 191.298 14.1655 176.733 15.6827 164.495 16.3758 160.919 18.6454 153.618 22.4971 141.227 22.5337 139.813 19.2204 131.377 16.7485 125.084 15.3575 120.336 15.0542 117.157 14.9409 115.97 15.0076 109.086 15.2024 101.86 15.5829 87.7407 15.7216 86.6546 17.962 80.2615 19.2834 76.4908 19.545 71.4415 19.1742 56.8636 19.0117 50.4728 19.3049 48.969 21.2314 46.3156 22.7533 44.2194 25.7206 42.2423 29.7233 40.6575 31.3666 40.0069 34.079 38.6596 35.7509 37.6635 37.4229 36.6674 39.3667 35.6555 40.0706 35.4148 41.7059 34.8556 41.813 34.1331 40.6896 31.2416 40.2034 29.9901 39.6984 28.4963 39.5675 27.9219 39.4366 27.3476 38.9393 26.5708 38.4625 26.1957 37.4881 25.4293 36.8571 23.5553 36.85 21.4068 36.8472 20.6149 36.5426 18.972 36.1728 17.756 35.8029 16.5399 35.6256 15.3423 35.7788 15.0945 35.9319 14.8467 35.8908 14.1664 35.6874 13.5828 35.2952 12.4579 35.7106 10.3928 36.6841 8.62799 36.9571 8.13303 37.4672 7.1236 37.8176 6.38479 38.4787 4.99094 39.693 4.30838 41.5117 4.30838 42.2876 4.30838 42.5563 4.05645 42.9517 2.9585 43.4931 1.45527 44.4333 0.0173801 44.8862 7.33012e-05 45.049-0.00639134 44.8465 0.415574 44.4362 0.937234 43.4537 2.18624 43.4271 3.03463 44.3864 2.5212 45.2862 2.03961 45.5943 2.04848 45.2861 2.54715 45.1144 2.82502 45.2984 2.85495 45.8948 2.64592 47.0565 2.23874 53.1084 2.41255 54.3703 2.88933 55.8689 3.45559 57.2729 4.93135 58.6312 7.36808 60.0248 9.86833 60.7779 13.2049 60.1267 13.994 59.8521 14.3267 59.736 15.9081 59.7882 18.6025 59.8766 23.1642 59.3658 25.1771 57.957 25.819 57.3127 26.1125 57.0083 26.7846 56.4881 29.0623 55.3769 33.9274 55.3114 33.8254 62.3244 38.1509 69.1711 42.3737 71.6634 44.1896 73.8118 46.5207 77.6517 50.6869 78.5819 55.3977 77.3471 64.4229 76.3796 71.4942 76.5772 74.3318 78.5978 82.385 82.017 94.415 80.4763 102.518 79.5057 114.278 78.9065 121.573 78.0059 126.646 75.6718 135.877 76.7659 155.972 74.9315 151.424 76.989 164.72 77.5086 168.055 78.0854 173.572 78.2707 176.981 78.5245 181.648 78.9343 184.807 79.9291 189.765 81.2408 196.303 81.2522 196.437 81.4911 208.23 81.7283 219.936 81.7462 220.151 82.7185 222.989 83.9096 226.465 84.3591 232.546 83.6692 235.85 83.2041 238.078 82.0735 239.367 80.5857 239.367 79.9215 239.367 79.7486 239.615 79.5908 240.79 79.2144 243.597 77.2249 245.234 73.4623 245.834 71.3702 246.167 67.8886 245.733 66.3735 244.949 65.0951 244.288 63.1987 242.112 62.9146 240.98 62.7123 240.174 62.5094 240.087 60.8396 240.086 57.2958 240.083 55.495 237.999 54.8608 233.168 54.3256 229.091 54.2605 211.439 54.7548 204.45 54.9999 200.986 55.2414 191.266 55.2914 182.852 55.3936 165.683 55.2486 164.287 52.8349 159.185 51.8515 157.107 51.6441 156.302 51.815 155.226 51.9859 154.149 51.8054 153.45 50.9281 151.785 49.7035 149.461 48.8484 145.37 48.4894 140.118 48.3646 138.293 48.1352 136.879 47.9795 136.975 47.2915 137.4 46.1957 141.387 45.6794 145.342 45.3706 147.709 44.8862 150.435 44.603 151.4 44.3198 152.365 43.8289 155.099 43.5121 157.475 42.7385 163.276 42.2283 164.901 40.1509 168.184 37.9533 171.656 37.345 173.818 36.8331 179.973 36.5453 183.433 36.0141 186.439 34.9885 190.412 33.8101 194.976 33.4934 196.941 33.2474 201.211 32.899 207.259 32.3616 210.095 30.1774 217.416 28.0783 224.453 27.9685 224.996 27.3069 231.618 26.9865 234.825 26.5069 237.755 26.2076 238.334 25.5045 239.693 24.1052 240.57 22.5878 240.602 21.4514 240.625 21.3372 240.731 21.1413 241.95 20.4265 246.397 16.4942 247.754 6.57737 246.977ZM73.3002 121.183C73.9965 119.877 74.099 119.154 74.076 115.718 74.0544 112.508 73.804 110.703 72.7523 106.179 72.0388 103.11 71.1141 98.0079 70.6974 94.8402 69.499 85.7318 68.3184 80.6215 67.4125 80.6215 67.1143 80.6215 67.0515 81.7988 67.187 84.8511 67.3333 88.1471 67.7004 90.3918 68.8501 95.0202 69.6615 98.2869 70.4844 102.175 70.6788 103.659 70.8732 105.144 71.2751 108.141 71.5719 110.319 72.0156 113.574 72.0375 114.955 71.6949 118.08 71.1148 123.374 71.616 124.343 73.3001 121.183ZM26.1747 114.368C26.3027 112.141 26.8241 106.917 27.3333 102.76 29.2955 86.7389 29.6297 83.5979 29.6403 81.0715 29.6468 79.6361 29.5091 78.4617 29.3352 78.4617 28.9425 78.4617 28.3215 80.917 26.2318 90.7322 25.3293 94.9714 24.0295 100.384 23.3434 102.76 20.8686 111.329 21.0499 114.621 24.155 117.501 24.6992 118.005 25.3239 118.418 25.5432 118.418 25.7975 118.418 26.0263 116.951 26.1747 114.368ZM189.811 245.493C186.928 245.114 186.312 244.467 186.312 241.822 186.312 239.883 186.235 239.68 185.384 239.357 184.188 238.902 181.491 237.043 179.766 235.485 177.993 233.883 177.798 232.664 178.558 227.914 179.101 224.515 179.154 221.688 179.007 203.55 178.829 181.402 178.937 182.783 176.618 172.953 175.485 168.146 174.934 163.434 174.569 155.405 174.454 152.88 174.227 150.815 174.064 150.815 173.354 150.815 171.386 152.9 170.76 154.316 170.384 155.165 169.843 157.681 169.558 159.907 168.853 165.408 168.893 165.269 166.782 169.491 165.065 172.926 164.895 173.494 164.686 176.511 164.561 178.316 164.046 181.331 163.542 183.212 162.39 187.515 161.837 191.997 161.832 197.071 161.828 199.53 161.489 203.145 160.934 206.61 160.137 211.582 160.04 213.285 160.037 222.245 160.033 231.644 159.986 232.4 159.296 233.825 158.472 235.528 157.309 236.128 154.831 236.128 153.788 236.128 152.821 236.454 151.633 237.207 150.696 237.801 149.708 238.287 149.436 238.287 149.165 238.287 148.38 239.07 147.692 240.027 145.316 243.335 141.031 244.87 136.417 244.066 133.464 243.552 131.951 242.588 131.969 241.233 131.984 240.098 132.308 239.51 134.475 236.68 135.365 235.518 135.932 234.512 135.735 234.446 134.768 234.12 133.016 232.832 132.53 232.09 132.231 231.633 131.746 230.37 131.455 229.283L130.924 227.308 130.9 229.302C130.867 232.097 129.985 235.184 128.677 237.085 127.435 238.889 122.504 242.955 120.203 244.072 118.031 245.125 113.047 245.427 110.962 244.63 109.98 244.255 109.229 243.686 108.972 243.121 108.345 241.745 108.475 238.973 109.285 236.43 110.273 233.328 110.562 230.096 110.003 228.402 109.714 227.527 108.562 226.065 106.767 224.296 103.378 220.955 101.699 217.732 99.7106 210.75 98.0877 205.052 97.3306 203.012 94.4697 196.631 93.2469 193.903 91.5429 189.728 90.6831 187.352 89.5513 184.225 88.5322 182.18 86.9912 179.946 85.8205 178.249 84.6679 176.143 84.4298 175.267 83.878 173.235 84.1516 169.931 85.3515 164.134 85.9761 161.117 86.3927 157.559 86.6161 153.335 87.8274 130.434 87.8187 130.496 91.9669 114.977 94.4925 105.528 96.4749 89.4663 95.6961 84.7611 95.3612 82.7377 95.4717 82.7733 91.8199 83.5104 89.0403 84.0714 86.9362 83.5491 85.2722 81.8851 83.6925 80.3054 83.6777 78.6001 85.2135 75.1023 87.0991 70.8078 88.0063 67.8696 88.5893 64.1688 89.6012 57.7463 91.5496 55.5167 96.5828 55.0218 98.1208 54.8705 99.8999 54.6386 100.536 54.5064 101.209 54.3666 102.829 54.5185 104.405 54.8693 105.897 55.2011 107.443 55.3692 107.842 55.2427 109.418 54.7424 110.343 50.5732 109.307 48.6371 108.488 47.1077 106.804 45.7048 105.781 45.6992 104.103 45.6897 101.596 44.6721 101.51 43.9648 101.396 43.0385 100.866 41.745 100.6 41.745 100.424 41.745 100.279 41.2475 100.279 40.6394 100.279 40.0313 100.027 39.2815 99.7185 38.9731 99.4101 38.6648 99.243 38.1904 99.3472 37.9189 99.452 37.646 99.3119 37.4254 99.0337 37.4254 98.4157 37.4254 97.3953 36.4473 97.4108 35.8698 97.4182 35.6365 97.6375 35.729 97.9005 36.0755 98.3847 36.7133 99.242 36.9026 99.6769 36.4678 99.8076 36.337 99.5916 36.0039 99.1969 35.7274 98.2982 35.0979 98.2961 34.5301 99.1859 32.6891 99.8219 31.3729 99.837 31.172 99.338 30.673 98.9849 30.3199 98.874 29.8442 99.0324 29.3624 99.1691 28.9465 99.2795 28.2358 99.2776 27.7831 99.2739 27.1668 99.3868 27.0535 99.7226 27.3322 100.073 27.6226 100.136 27.3526 100.011 26.1032 99.8759 24.7474 99.9919 24.3613 100.769 23.5843 101.274 23.0796 102.022 22.6667 102.432 22.6667 102.897 22.6667 103.307 22.326 103.522 21.7604 103.711 21.2618 104.274 20.6989 104.773 20.5094 105.271 20.3198 105.679 19.9988 105.679 19.7959 105.679 19.593 105.928 19.427 106.232 19.427 106.536 19.427 107.143 19.1931 107.581 18.9072 109.688 17.534 116.413 17.0732 118.496 18.1594 119.069 18.4582 119.943 18.7054 120.438 18.7087 121.622 18.717 124.41 21.3568 124.361 22.4238 124.328 23.1548 124.309 23.1488 124.082 22.3335 123.777 21.2436 122.957 20.9121 122.957 21.8788 122.957 22.2703 123.454 23.1227 124.062 23.773 124.869 24.6365 125.222 25.4279 125.374 26.7078 125.562 28.2919 125.702 28.5105 126.836 28.9844 128.003 29.472 128.077 29.5966 127.887 30.7673 127.734 31.7066 127.811 32.0259 128.189 32.0259 128.562 32.0259 128.664 32.4103 128.574 33.4737 128.507 34.2699 128.592 35.0084 128.764 35.1148 129.488 35.5623 129.058 36.6957 128.087 36.9001 126.574 37.2184 126.009 37.6394 126.105 38.3752 126.641 42.4599 126.568 43.3256 125.656 43.6756 125.256 43.8292 125.189 43.637 125.354 42.809 125.563 41.7682 124.879 41.2007 124.615 42.195 123.971 44.6181 123.835 44.8058 122.59 44.9848L121.338 45.1647 121.461 48.4045C121.599 52.0404 122.131 53.5277 123.793 54.9257 124.734 55.7174 125.123 55.8241 126.36 55.628 127.161 55.501 128.837 55.2992 130.083 55.1798 132.093 54.9872 132.43 55.0497 133.067 55.7332 133.461 56.157 134.108 56.5037 134.502 56.5037 135.659 56.5037 138.672 58.1987 139.444 59.2835 140.523 60.8015 141.08 63.0632 140.811 64.8371 140.68 65.7058 139.863 67.5893 138.976 69.0679 138.097 70.5336 137.027 72.8014 136.598 74.1074 135.437 77.6427 133.193 81.3242 131.932 81.7638 130.985 82.0941 130.751 82.5649 129.214 87.2229 127.738 91.6952 127.515 92.7841 127.39 96.1002 127.234 100.252 127.229 100.235 130.867 109.599 132.663 114.224 134.116 122.06 134.116 127.123 134.116 131.212 132.882 139.516 130.307 152.738 127.406 167.635 126.918 174.705 127.912 187.4 128.335 192.807 128.079 203.13 127.444 206.25 127.293 206.989 127.457 207.237 128.359 207.635 129.009 207.922 129.784 208.73 130.257 209.615 130.992 210.988 131.055 211.578 131.03 216.869 131.006 221.801 131.044 222.215 131.29 219.749 131.939 213.261 134.234 203.351 137.792 191.672 141.552 179.33 141.422 179.939 141.461 174.442L141.496 169.451 139.966 168.133C138.743 167.079 138.436 166.576 138.436 165.63 138.436 164.098 138.734 163.569 141.988 159.336L144.707 155.798 144.945 151.777C145.148 148.366 145.445 146.936 146.904 142.356 147.85 139.386 148.698 136.515 148.789 135.977 148.898 135.327 148.49 134.009 147.581 132.071 146.724 130.245 146.219 128.651 146.237 127.831 146.477 116.975 146.531 117.297 142.559 105.819 137.996 92.6317 137.843 90.8217 140.731 84.1526 142.998 78.9164 143.452 75.755 142.416 72.4082 141.755 70.2691 141.714 69.6737 142.045 67.0355 142.791 61.0885 145.79 53.1957 148.562 49.8813 150.212 47.9074 153.622 45.8098 156.599 44.9361 157.993 44.5271 161.377 43.4478 164.119 42.5378 168.4 41.1171 169.155 40.7534 169.457 39.9643 169.861 38.909 169.337 36.7005 168.479 35.8425 168.184 35.5482 167.839 34.7716 167.711 34.1166 167.582 33.4617 167.233 32.5469 166.933 32.0838 166.309 31.1184 165.385 26.6367 165.704 26.1208 165.82 25.9315 165.877 24.9554 165.83 23.9517 165.783 22.948 165.701 21.2359 165.649 20.147 165.576 18.6323 165.75 17.8077 166.386 16.6373 166.844 15.7959 167.045 15.1074 166.831 15.1074 166.618 15.1074 167.229 14.3667 168.188 13.4613 169.148 12.5559 169.731 11.9176 169.483 12.0427 169.236 12.1678 169.033 12.1872 169.033 12.0858 169.033 11.8525 172.272 10.3928 173.173 10.22 173.371 10.182 173.614 10.1122 173.713 10.0648 173.812 10.0174 174.46 9.93511 175.153 9.88195 175.846 9.82876 176.872 9.60471 177.433 9.38404 177.994 9.16336 178.58 9.06168 178.736 9.15809 178.892 9.25454 179.729 9.40284 180.596 9.48777 182.921 9.71552 184.512 10.1157 184.512 10.4728 184.512 10.6461 184.764 10.7878 185.073 10.7878 185.382 10.7878 185.543 10.9354 185.431 11.1158 185.32 11.2963 185.981 12.1062 186.901 12.9157 187.82 13.7252 188.368 14.3875 188.118 14.3875 187.755 14.3875 187.753 14.4959 188.111 14.9274 188.357 15.2244 188.447 15.4674 188.309 15.4674 188.171 15.4674 188.397 15.8978 188.811 16.4239 189.225 16.9499 189.485 17.6384 189.389 17.9537 189.235 18.4591 189.088 24.1112 189.192 25.5465 189.231 26.0969 187.619 32.127 186.956 33.9069 186.669 34.6791 186.462 34.8188 185.983 34.5626 185.464 34.2848 185.259 34.6158 184.584 36.8212 183.364 40.812 183.319 41.2209 183.952 42.5244 184.785 44.2402 187.109 45.8465 191.622 47.8254 199.831 51.4256 202.144 54.1932 204.193 62.8665 206.027 70.6327 208.358 79.1175 210.157 84.5812 211.684 89.217 211.999 90.6178 212.017 92.8633 212.053 97.2287 210.488 99.3119 205.208 101.93 203.823 102.617 201.758 103.549 200.62 104.001 199.267 104.538 198.553 105.027 198.56 105.411 198.566 105.735 199.059 107.133 199.657 108.519 201.241 112.192 201.469 113.792 200.863 116.978 200.175 120.598 200.216 122.01 201.07 124.178 201.893 126.266 201.959 127.675 201.381 130.811 201.042 132.653 201.072 133.427 201.561 135.376 202.298 138.311 202.303 141 201.585 146.797 201.275 149.304 201.122 152.084 201.247 152.975 201.546 155.119 204.558 164.043 205.373 165.202 206.437 166.714 206.56 167.615 205.892 169.021 205.551 169.739 204.514 170.893 203.587 171.585L201.901 172.844 201.668 180.278C201.415 188.317 201.439 188.647 202.699 194.551 204.436 202.688 205.375 214.557 205.378 228.388 205.378 235.934 205.237 236.428 202.861 237.171 199.327 238.274 199.2 238.348 199.445 239.152 200.787 243.544 199.43 245.112 193.87 245.594 192.782 245.689 190.955 245.643 189.811 245.493ZM112.514 178.893C112.254 175.49 112.137 168.117 112.213 159.994 112.282 152.669 112.199 144.327 112.031 141.456 111.835 138.131 111.854 135.681 112.083 134.707 112.28 133.865 112.327 133.177 112.187 133.177 111.605 133.177 109.977 135.292 109.123 137.159 108.225 139.124 107.889 140.337 104.957 152.196 103.263 159.05 101.379 165.078 99.8201 168.634 99.2126 170.019 98.7337 171.442 98.7559 171.795 98.7782 172.147 99.7963 173.524 101.019 174.854 105.327 179.543 108.637 185.098 111.453 192.367L112.698 195.583 112.819 190.027C112.885 186.972 112.748 181.961 112.514 178.893ZM152.042 127.546C152.493 125.826 152.536 125.175 152.22 124.859 150.62 123.259 148.846 128.374 149.999 131.264L150.403 132.277 150.925 131.046C151.212 130.369 151.714 128.794 152.042 127.546ZM152.389 113.109C152.546 102.65 152.431 86.6798 152.183 84.2212L151.91 81.5214 150.946 83.3718C148.885 87.3312 148.707 89.0192 149.192 100.034 149.64 110.192 150.073 113.307 151.399 115.906 151.8 116.694 152.174 117.338 152.228 117.338 152.282 117.338 152.355 115.435 152.389 113.109ZM200.481 93.5958C202.477 91.4623 202.616 90.3916 201.098 88.8731 200.519 88.2944 199.892 87.8209 199.705 87.8209 199.376 87.8209 198.843 90.115 198.347 93.6703 198.203 94.7059 198.247 95.3802 198.46 95.3802 198.654 95.3802 199.563 94.5772 200.481 93.5958Z" id="path828" stroke-width="0.359968" fill="#F2F2F2"/></svg>