<svg width="676" height="307" xmlns="http://www.w3.org/2000/svg" xmlns:xlink="http://www.w3.org/1999/xlink" overflow="hidden"><defs><clipPath id="clip0"><rect x="212" y="236" width="676" height="307"/></clipPath><clipPath id="clip1"><rect x="576" y="278" width="96" height="46"/></clipPath><clipPath id="clip2"><rect x="576" y="278" width="96" height="46"/></clipPath><clipPath id="clip3"><rect x="576" y="227" width="96" height="97"/></clipPath><clipPath id="clip4"><rect x="406" y="377" width="96" height="46"/></clipPath><clipPath id="clip5"><rect x="406" y="377" width="96" height="46"/></clipPath><clipPath id="clip6"><rect x="406" y="326" width="96" height="97"/></clipPath><clipPath id="clip7"><rect x="744" y="278" width="96" height="46"/></clipPath><clipPath id="clip8"><rect x="744" y="278" width="96" height="46"/></clipPath><clipPath id="clip9"><rect x="744" y="227" width="96" height="97"/></clipPath><clipPath id="clip10"><rect x="576" y="497" width="96" height="45"/></clipPath><clipPath id="clip11"><rect x="576" y="497" width="96" height="45"/></clipPath><clipPath id="clip12"><rect x="576" y="447" width="96" height="95"/></clipPath><clipPath id="clip13"><rect x="744" y="497" width="96" height="45"/></clipPath><clipPath id="clip14"><rect x="744" y="497" width="96" height="45"/></clipPath><clipPath id="clip15"><rect x="744" y="447" width="96" height="95"/></clipPath><clipPath id="clip16"><rect x="212" y="343" width="96" height="96"/></clipPath><clipPath id="clip17"><rect x="212" y="343" width="96" height="96"/></clipPath><clipPath id="clip18"><rect x="212" y="343" width="96" height="96"/></clipPath></defs><g clip-path="url(#clip0)" transform="translate(-212 -236)"><text fill="#7F7F7F" font-family="Consolas,Consolas_MSFontService,sans-serif" font-weight="400" font-size="24" transform="translate(597.261 267)">odin</text><g clip-path="url(#clip1)"><g clip-path="url(#clip2)"><g clip-path="url(#clip3)"><path d="M45 67 51 67 51 75 45 75Z" fill="#595959" transform="matrix(1 0 0 1.00722 576 227.307)"/><path d="M45 79 51 79 51 85 45 85Z" fill="#595959" transform="matrix(1 0 0 1.00722 576 227.307)"/><path d="M55 79 84 79 84 85 55 85Z" fill="#595959" transform="matrix(1 0 0 1.00722 576 227.307)"/><path d="M12 79 41 79 41 85 12 85Z" fill="#595959" transform="matrix(1 0 0 1.00722 576 227.307)"/><path d="M76.42 51 19.58 51C17.6028 51 16 52.6028 16 54.58L16 63.42C16 65.3972 17.6028 67 19.58 67L76.42 67C78.3972 67 80 65.3972 80 63.42L80 54.58C80 52.6028 78.3972 51 76.42 51ZM26 61C24.8954 61 24 60.1046 24 59 24 57.8954 24.8954 57 26 57 27.1046 57 28 57.8954 28 59 28 60.1046 27.1046 61 26 61ZM36 61C34.8954 61 34 60.1046 34 59 34 57.8954 34.8954 57 36 57 37.1046 57 38 57.8954 38 59 38 60.1046 37.1046 61 36 61ZM46 61C44.8954 61 44 60.1046 44 59 44 57.8954 44.8954 57 46 57 47.1046 57 48 57.8954 48 59 48 60.1046 47.1046 61 46 61Z" fill="#595959" transform="matrix(1 0 0 1.00722 576 227.307)"/><path d="M76.42 31 19.58 31C17.6028 31 16 32.6028 16 34.58L16 43.42C16 45.3972 17.6028 47 19.58 47L76.42 47C78.3972 47 80 45.3972 80 43.42L80 34.58C80 32.6028 78.3972 31 76.42 31ZM26 41C24.8954 41 24 40.1046 24 39 24 37.8954 24.8954 37 26 37 27.1046 37 28 37.8954 28 39 28 40.1046 27.1046 41 26 41ZM36 41C34.8954 41 34 40.1046 34 39 34 37.8954 34.8954 37 36 37 37.1046 37 38 37.8954 38 39 38 40.1046 37.1046 41 36 41ZM46 41C44.8954 41 44 40.1046 44 39 44 37.8954 44.8954 37 46 37 47.1046 37 48 37.8954 48 39 48 40.1046 47.1046 41 46 41Z" fill="#595959" transform="matrix(1 0 0 1.00722 576 227.307)"/><path d="M76.42 11 19.58 11C17.6028 11 16 12.6028 16 14.58L16 23.42C16 25.3972 17.6028 27 19.58 27L76.42 27C78.3972 27 80 25.3972 80 23.42L80 14.58C80 12.6028 78.3972 11 76.42 11ZM26 21C24.8954 21 24 20.1046 24 19 24 17.8954 24.8954 17 26 17 27.1046 17 28 17.8954 28 19 28 20.1046 27.1046 21 26 21ZM36 21C34.8954 21 34 20.1046 34 19 34 17.8954 34.8954 17 36 17 37.1046 17 38 17.8954 38 19 38 20.1046 37.1046 21 36 21ZM46 21C44.8954 21 44 20.1046 44 19 44 17.8954 44.8954 17 46 17 47.1046 17 48 17.8954 48 19 48 20.1046 47.1046 21 46 21Z" fill="#595959" transform="matrix(1 0 0 1.00722 576 227.307)"/></g></g></g><text fill="#7F7F7F" font-family="Consolas,Consolas_MSFontService,sans-serif" font-weight="400" font-size="24" transform="translate(401.452 366)">heimdall</text><g clip-path="url(#clip4)"><g clip-path="url(#clip5)"><g clip-path="url(#clip6)"><path d="M45 67 51 67 51 75 45 75Z" fill="#595959" transform="matrix(1 0 0 1.00722 406 326.306)"/><path d="M45 79 51 79 51 85 45 85Z" fill="#595959" transform="matrix(1 0 0 1.00722 406 326.306)"/><path d="M55 79 84 79 84 85 55 85Z" fill="#595959" transform="matrix(1 0 0 1.00722 406 326.306)"/><path d="M12 79 41 79 41 85 12 85Z" fill="#595959" transform="matrix(1 0 0 1.00722 406 326.306)"/><path d="M76.42 51 19.58 51C17.6028 51 16 52.6028 16 54.58L16 63.42C16 65.3972 17.6028 67 19.58 67L76.42 67C78.3972 67 80 65.3972 80 63.42L80 54.58C80 52.6028 78.3972 51 76.42 51ZM26 61C24.8954 61 24 60.1046 24 59 24 57.8954 24.8954 57 26 57 27.1046 57 28 57.8954 28 59 28 60.1046 27.1046 61 26 61ZM36 61C34.8954 61 34 60.1046 34 59 34 57.8954 34.8954 57 36 57 37.1046 57 38 57.8954 38 59 38 60.1046 37.1046 61 36 61ZM46 61C44.8954 61 44 60.1046 44 59 44 57.8954 44.8954 57 46 57 47.1046 57 48 57.8954 48 59 48 60.1046 47.1046 61 46 61Z" fill="#595959" transform="matrix(1 0 0 1.00722 406 326.306)"/><path d="M76.42 31 19.58 31C17.6028 31 16 32.6028 16 34.58L16 43.42C16 45.3972 17.6028 47 19.58 47L76.42 47C78.3972 47 80 45.3972 80 43.42L80 34.58C80 32.6028 78.3972 31 76.42 31ZM26 41C24.8954 41 24 40.1046 24 39 24 37.8954 24.8954 37 26 37 27.1046 37 28 37.8954 28 39 28 40.1046 27.1046 41 26 41ZM36 41C34.8954 41 34 40.1046 34 39 34 37.8954 34.8954 37 36 37 37.1046 37 38 37.8954 38 39 38 40.1046 37.1046 41 36 41ZM46 41C44.8954 41 44 40.1046 44 39 44 37.8954 44.8954 37 46 37 47.1046 37 48 37.8954 48 39 48 40.1046 47.1046 41 46 41Z" fill="#595959" transform="matrix(1 0 0 1.00722 406 326.306)"/><path d="M76.42 11 19.58 11C17.6028 11 16 12.6028 16 14.58L16 23.42C16 25.3972 17.6028 27 19.58 27L76.42 27C78.3972 27 80 25.3972 80 23.42L80 14.58C80 12.6028 78.3972 11 76.42 11ZM26 21C24.8954 21 24 20.1046 24 19 24 17.8954 24.8954 17 26 17 27.1046 17 28 17.8954 28 19 28 20.1046 27.1046 21 26 21ZM36 21C34.8954 21 34 20.1046 34 19 34 17.8954 34.8954 17 36 17 37.1046 17 38 17.8954 38 19 38 20.1046 37.1046 21 36 21ZM46 21C44.8954 21 44 20.1046 44 19 44 17.8954 44.8954 17 46 17 47.1046 17 48 17.8954 48 19 48 20.1046 47.1046 21 46 21Z" fill="#595959" transform="matrix(1 0 0 1.00722 406 326.306)"/></g></g></g><text fill="#7F7F7F" font-family="Consolas,Consolas_MSFontService,sans-serif" font-weight="400" font-size="24" transform="translate(765.313 267)">thor</text><g clip-path="url(#clip7)"><g clip-path="url(#clip8)"><g clip-path="url(#clip9)"><path d="M45 67 51 67 51 75 45 75Z" fill="#595959" transform="matrix(1 0 0 1.00722 744 227.307)"/><path d="M45 79 51 79 51 85 45 85Z" fill="#595959" transform="matrix(1 0 0 1.00722 744 227.307)"/><path d="M55 79 84 79 84 85 55 85Z" fill="#595959" transform="matrix(1 0 0 1.00722 744 227.307)"/><path d="M12 79 41 79 41 85 12 85Z" fill="#595959" transform="matrix(1 0 0 1.00722 744 227.307)"/><path d="M76.42 51 19.58 51C17.6028 51 16 52.6028 16 54.58L16 63.42C16 65.3972 17.6028 67 19.58 67L76.42 67C78.3972 67 80 65.3972 80 63.42L80 54.58C80 52.6028 78.3972 51 76.42 51ZM26 61C24.8954 61 24 60.1046 24 59 24 57.8954 24.8954 57 26 57 27.1046 57 28 57.8954 28 59 28 60.1046 27.1046 61 26 61ZM36 61C34.8954 61 34 60.1046 34 59 34 57.8954 34.8954 57 36 57 37.1046 57 38 57.8954 38 59 38 60.1046 37.1046 61 36 61ZM46 61C44.8954 61 44 60.1046 44 59 44 57.8954 44.8954 57 46 57 47.1046 57 48 57.8954 48 59 48 60.1046 47.1046 61 46 61Z" fill="#595959" transform="matrix(1 0 0 1.00722 744 227.307)"/><path d="M76.42 31 19.58 31C17.6028 31 16 32.6028 16 34.58L16 43.42C16 45.3972 17.6028 47 19.58 47L76.42 47C78.3972 47 80 45.3972 80 43.42L80 34.58C80 32.6028 78.3972 31 76.42 31ZM26 41C24.8954 41 24 40.1046 24 39 24 37.8954 24.8954 37 26 37 27.1046 37 28 37.8954 28 39 28 40.1046 27.1046 41 26 41ZM36 41C34.8954 41 34 40.1046 34 39 34 37.8954 34.8954 37 36 37 37.1046 37 38 37.8954 38 39 38 40.1046 37.1046 41 36 41ZM46 41C44.8954 41 44 40.1046 44 39 44 37.8954 44.8954 37 46 37 47.1046 37 48 37.8954 48 39 48 40.1046 47.1046 41 46 41Z" fill="#595959" transform="matrix(1 0 0 1.00722 744 227.307)"/><path d="M76.42 11 19.58 11C17.6028 11 16 12.6028 16 14.58L16 23.42C16 25.3972 17.6028 27 19.58 27L76.42 27C78.3972 27 80 25.3972 80 23.42L80 14.58C80 12.6028 78.3972 11 76.42 11ZM26 21C24.8954 21 24 20.1046 24 19 24 17.8954 24.8954 17 26 17 27.1046 17 28 17.8954 28 19 28 20.1046 27.1046 21 26 21ZM36 21C34.8954 21 34 20.1046 34 19 34 17.8954 34.8954 17 36 17 37.1046 17 38 17.8954 38 19 38 20.1046 37.1046 21 36 21ZM46 21C44.8954 21 44 20.1046 44 19 44 17.8954 44.8954 17 46 17 47.1046 17 48 17.8954 48 19 48 20.1046 47.1046 21 46 21Z" fill="#595959" transform="matrix(1 0 0 1.00722 744 227.307)"/></g></g></g><text fill="#7F7F7F" font-family="Consolas,Consolas_MSFontService,sans-serif" font-weight="400" font-size="24" transform="translate(557.761 486)">valkyrie01</text><g clip-path="url(#clip10)"><g clip-path="url(#clip11)"><g clip-path="url(#clip12)"><path d="M44.3398 66.017 50.2517 66.017 50.2517 73.8996 44.3398 73.8996Z" fill="#595959" transform="matrix(1.01489 0 0 1 576 447.409)"/><path d="M44.3398 77.8409 50.2517 77.8409 50.2517 83.7529 44.3398 83.7529Z" fill="#595959" transform="matrix(1.01489 0 0 1 576 447.409)"/><path d="M54.193 77.8409 82.7675 77.8409 82.7675 83.7529 54.193 83.7529Z" fill="#595959" transform="matrix(1.01489 0 0 1 576 447.409)"/><path d="M11.8239 77.8409 40.3984 77.8409 40.3984 83.7529 11.8239 83.7529Z" fill="#595959" transform="matrix(1.01489 0 0 1 576 447.409)"/><path d="M75.2988 50.2517 19.2927 50.2517C17.3445 50.2517 15.7652 51.831 15.7652 53.7792L15.7652 62.4895C15.7652 64.4377 17.3445 66.017 19.2927 66.017L75.2988 66.017C77.2469 66.017 78.8262 64.4377 78.8262 62.4895L78.8262 53.7792C78.8262 51.831 77.2469 50.2517 75.2988 50.2517ZM25.6185 60.105C24.5301 60.105 23.6479 59.2227 23.6479 58.1343 23.6479 57.046 24.5301 56.1637 25.6185 56.1637 26.7069 56.1637 27.5892 57.046 27.5892 58.1343 27.5892 59.2227 26.7069 60.105 25.6185 60.105ZM35.4718 60.105C34.3834 60.105 33.5011 59.2227 33.5011 58.1343 33.5011 57.046 34.3834 56.1637 35.4718 56.1637 36.5602 56.1637 37.4425 57.046 37.4425 58.1343 37.4425 59.2227 36.5602 60.105 35.4718 60.105ZM45.3251 60.105C44.2367 60.105 43.3544 59.2227 43.3544 58.1343 43.3544 57.046 44.2367 56.1637 45.3251 56.1637 46.4135 56.1637 47.2957 57.046 47.2957 58.1343 47.2957 59.2227 46.4135 60.105 45.3251 60.105Z" fill="#595959" transform="matrix(1.01489 0 0 1 576 447.409)"/><path d="M75.2988 30.5452 19.2927 30.5452C17.3445 30.5452 15.7652 32.1244 15.7652 34.0726L15.7652 42.7829C15.7652 44.7311 17.3445 46.3104 19.2927 46.3104L75.2988 46.3104C77.2469 46.3104 78.8262 44.7311 78.8262 42.7829L78.8262 34.0726C78.8262 32.1244 77.2469 30.5452 75.2988 30.5452ZM25.6185 40.3984C24.5301 40.3984 23.6479 39.5162 23.6479 38.4278 23.6479 37.3394 24.5301 36.4571 25.6185 36.4571 26.7069 36.4571 27.5892 37.3394 27.5892 38.4278 27.5892 39.5162 26.7069 40.3984 25.6185 40.3984ZM35.4718 40.3984C34.3834 40.3984 33.5011 39.5162 33.5011 38.4278 33.5011 37.3394 34.3834 36.4571 35.4718 36.4571 36.5602 36.4571 37.4425 37.3394 37.4425 38.4278 37.4425 39.5162 36.5602 40.3984 35.4718 40.3984ZM45.3251 40.3984C44.2367 40.3984 43.3544 39.5162 43.3544 38.4278 43.3544 37.3394 44.2367 36.4571 45.3251 36.4571 46.4135 36.4571 47.2957 37.3394 47.2957 38.4278 47.2957 39.5162 46.4135 40.3984 45.3251 40.3984Z" fill="#595959" transform="matrix(1.01489 0 0 1 576 447.409)"/><path d="M75.2988 10.8386 19.2927 10.8386C17.3445 10.8386 15.7652 12.4179 15.7652 14.3661L15.7652 23.0764C15.7652 25.0246 17.3445 26.6039 19.2927 26.6039L75.2988 26.6039C77.2469 26.6039 78.8262 25.0246 78.8262 23.0764L78.8262 14.3661C78.8262 12.4179 77.2469 10.8386 75.2988 10.8386ZM25.6185 20.6919C24.5301 20.6919 23.6479 19.8096 23.6479 18.7212 23.6479 17.6328 24.5301 16.7506 25.6185 16.7506 26.7069 16.7506 27.5892 17.6328 27.5892 18.7212 27.5892 19.8096 26.7069 20.6919 25.6185 20.6919ZM35.4718 20.6919C34.3834 20.6919 33.5011 19.8096 33.5011 18.7212 33.5011 17.6328 34.3834 16.7506 35.4718 16.7506 36.5602 16.7506 37.4425 17.6328 37.4425 18.7212 37.4425 19.8096 36.5602 20.6919 35.4718 20.6919ZM45.3251 20.6919C44.2367 20.6919 43.3544 19.8096 43.3544 18.7212 43.3544 17.6328 44.2367 16.7506 45.3251 16.7506 46.4135 16.7506 47.2957 17.6328 47.2957 18.7212 47.2957 19.8096 46.4135 20.6919 45.3251 20.6919Z" fill="#595959" transform="matrix(1.01489 0 0 1 576 447.409)"/></g></g></g><text fill="#7F7F7F" font-family="Consolas,Consolas_MSFontService,sans-serif" font-weight="400" font-size="24" transform="translate(725.813 486)">valkyrie02</text><g clip-path="url(#clip13)"><g clip-path="url(#clip14)"><g clip-path="url(#clip15)"><path d="M44.3398 66.017 50.2517 66.017 50.2517 73.8996 44.3398 73.8996Z" fill="#595959" transform="matrix(1.01489 0 0 1 744 447.409)"/><path d="M44.3398 77.8409 50.2517 77.8409 50.2517 83.7529 44.3398 83.7529Z" fill="#595959" transform="matrix(1.01489 0 0 1 744 447.409)"/><path d="M54.193 77.8409 82.7675 77.8409 82.7675 83.7529 54.193 83.7529Z" fill="#595959" transform="matrix(1.01489 0 0 1 744 447.409)"/><path d="M11.8239 77.8409 40.3984 77.8409 40.3984 83.7529 11.8239 83.7529Z" fill="#595959" transform="matrix(1.01489 0 0 1 744 447.409)"/><path d="M75.2988 50.2517 19.2927 50.2517C17.3445 50.2517 15.7652 51.831 15.7652 53.7792L15.7652 62.4895C15.7652 64.4377 17.3445 66.017 19.2927 66.017L75.2988 66.017C77.2469 66.017 78.8262 64.4377 78.8262 62.4895L78.8262 53.7792C78.8262 51.831 77.2469 50.2517 75.2988 50.2517ZM25.6185 60.105C24.5301 60.105 23.6479 59.2227 23.6479 58.1343 23.6479 57.046 24.5301 56.1637 25.6185 56.1637 26.7069 56.1637 27.5892 57.046 27.5892 58.1343 27.5892 59.2227 26.7069 60.105 25.6185 60.105ZM35.4718 60.105C34.3834 60.105 33.5011 59.2227 33.5011 58.1343 33.5011 57.046 34.3834 56.1637 35.4718 56.1637 36.5602 56.1637 37.4425 57.046 37.4425 58.1343 37.4425 59.2227 36.5602 60.105 35.4718 60.105ZM45.3251 60.105C44.2367 60.105 43.3544 59.2227 43.3544 58.1343 43.3544 57.046 44.2367 56.1637 45.3251 56.1637 46.4135 56.1637 47.2957 57.046 47.2957 58.1343 47.2957 59.2227 46.4135 60.105 45.3251 60.105Z" fill="#595959" transform="matrix(1.01489 0 0 1 744 447.409)"/><path d="M75.2988 30.5452 19.2927 30.5452C17.3445 30.5452 15.7652 32.1244 15.7652 34.0726L15.7652 42.7829C15.7652 44.7311 17.3445 46.3104 19.2927 46.3104L75.2988 46.3104C77.2469 46.3104 78.8262 44.7311 78.8262 42.7829L78.8262 34.0726C78.8262 32.1244 77.2469 30.5452 75.2988 30.5452ZM25.6185 40.3984C24.5301 40.3984 23.6479 39.5162 23.6479 38.4278 23.6479 37.3394 24.5301 36.4571 25.6185 36.4571 26.7069 36.4571 27.5892 37.3394 27.5892 38.4278 27.5892 39.5162 26.7069 40.3984 25.6185 40.3984ZM35.4718 40.3984C34.3834 40.3984 33.5011 39.5162 33.5011 38.4278 33.5011 37.3394 34.3834 36.4571 35.4718 36.4571 36.5602 36.4571 37.4425 37.3394 37.4425 38.4278 37.4425 39.5162 36.5602 40.3984 35.4718 40.3984ZM45.3251 40.3984C44.2367 40.3984 43.3544 39.5162 43.3544 38.4278 43.3544 37.3394 44.2367 36.4571 45.3251 36.4571 46.4135 36.4571 47.2957 37.3394 47.2957 38.4278 47.2957 39.5162 46.4135 40.3984 45.3251 40.3984Z" fill="#595959" transform="matrix(1.01489 0 0 1 744 447.409)"/><path d="M75.2988 10.8386 19.2927 10.8386C17.3445 10.8386 15.7652 12.4179 15.7652 14.3661L15.7652 23.0764C15.7652 25.0246 17.3445 26.6039 19.2927 26.6039L75.2988 26.6039C77.2469 26.6039 78.8262 25.0246 78.8262 23.0764L78.8262 14.3661C78.8262 12.4179 77.2469 10.8386 75.2988 10.8386ZM25.6185 20.6919C24.5301 20.6919 23.6479 19.8096 23.6479 18.7212 23.6479 17.6328 24.5301 16.7506 25.6185 16.7506 26.7069 16.7506 27.5892 17.6328 27.5892 18.7212 27.5892 19.8096 26.7069 20.6919 25.6185 20.6919ZM35.4718 20.6919C34.3834 20.6919 33.5011 19.8096 33.5011 18.7212 33.5011 17.6328 34.3834 16.7506 35.4718 16.7506 36.5602 16.7506 37.4425 17.6328 37.4425 18.7212 37.4425 19.8096 36.5602 20.6919 35.4718 20.6919ZM45.3251 20.6919C44.2367 20.6919 43.3544 19.8096 43.3544 18.7212 43.3544 17.6328 44.2367 16.7506 45.3251 16.7506 46.4135 16.7506 47.2957 17.6328 47.2957 18.7212 47.2957 19.8096 46.4135 20.6919 45.3251 20.6919Z" fill="#595959" transform="matrix(1.01489 0 0 1 744 447.409)"/></g></g></g><g clip-path="url(#clip16)"><g clip-path="url(#clip17)"><g clip-path="url(#clip18)"><path d="M290.2 390.9C289.9 390.9 289.5 390.9 289.2 390.9 289.2 390.9 289.2 390.9 289.2 390.9 289.2 386 286.8 381.5 282.9 378.7 278.9 375.9 273.8 375.2 269.2 376.8 265.4 369.4 257 365.6 249 367.5 241 369.4 235.2 376.6 235.2 384.9 235.2 384.9 235.2 385 235.2 385.1 229.7 384.2 224.2 386.5 220.8 390.9 217.5 395.4 216.9 401.3 219.2 406.3 221.6 411.3 226.6 414.6 232.1 414.9L232.1 415 290.1 415C296.7 415 302.1 409.6 302.1 403 302.1 396.4 296.8 390.9 290.2 390.9Z" fill="#595959"/></g></g></g><path d="M0 0 289.527 0.000104987" stroke="#7F7F7F" stroke-width="3" stroke-miterlimit="8" fill="none" fill-rule="evenodd" transform="matrix(1 0 0 -1 502.5 400.5)"/><path d="M624.5 324.5 624.5 401.022" stroke="#7F7F7F" stroke-width="3" stroke-miterlimit="8" fill="none" fill-rule="evenodd"/><path d="M0 0 0.000104987 76.5224" stroke="#7F7F7F" stroke-width="3" stroke-miterlimit="8" fill="none" fill-rule="evenodd" transform="matrix(-1 0 0 1 792.5 324.5)"/><path d="M0 0 0.000104987 57.8465" stroke="#7F7F7F" stroke-width="3" stroke-miterlimit="8" fill="none" fill-rule="evenodd" transform="matrix(1 0 0 -1 792.5 458.347)"/><path d="M624.5 458.347 624.5 400.5" stroke="#7F7F7F" stroke-width="3" stroke-miterlimit="8" fill="none" fill-rule="evenodd"/><path d="M0 0 88.2936 0.000104987" stroke="#7F7F7F" stroke-width="3" stroke-miterlimit="8" fill="none" fill-rule="evenodd" transform="matrix(-1 0 0 1 406.794 400.5)"/><text fill="#7F7F7F" font-family="Consolas,Consolas_MSFontService,sans-serif" font-style="italic" font-weight="400" font-size="15" transform="translate(502.144 418)">10.10.2.1<tspan font-size="15" x="133.45" y="-85">10.10.0.1</tspan><tspan font-size="15" x="301.502" y="-85">10.10.1.1</tspan><tspan font-size="15" x="301.502" y="31">10.10.3.2</tspan><tspan font-size="15" x="133.45" y="31">10.10.3.1</tspan><tspan font-size="15" x="-215.084" y="14">External </tspan><tspan font-size="15" x="-211.084" y="31">network</tspan></text></g></svg>