<?xml version="1.0" encoding="UTF-8" standalone="no"?>
<!-- Created with Inkscape (http://www.inkscape.org/) -->

<svg
   xmlns:dc="http://purl.org/dc/elements/1.1/"
   xmlns:cc="http://creativecommons.org/ns#"
   xmlns:rdf="http://www.w3.org/1999/02/22-rdf-syntax-ns#"
   xmlns:svg="http://www.w3.org/2000/svg"
   xmlns="http://www.w3.org/2000/svg"
   xmlns:sodipodi="http://sodipodi.sourceforge.net/DTD/sodipodi-0.dtd"
   xmlns:inkscape="http://www.inkscape.org/namespaces/inkscape"
   width="120.98934mm"
   height="135.14005mm"
   viewBox="0 0 120.98934 135.14005"
   version="1.1"
   id="svg8"
   inkscape:version="0.92.3 (2405546, 2018-03-11)"
   sodipodi:docname="BlueBanquise_logo.svg">
  <defs
     id="defs2" />
  <sodipodi:namedview
     id="base"
     pagecolor="#ffffff"
     bordercolor="#666666"
     borderopacity="1.0"
     inkscape:pageopacity="0.0"
     inkscape:pageshadow="2"
     inkscape:zoom="1.0698111"
     inkscape:cx="246.70051"
     inkscape:cy="265.40766"
     inkscape:document-units="mm"
     inkscape:current-layer="layer1"
     showgrid="false"
     inkscape:window-width="1920"
     inkscape:window-height="986"
     inkscape:window-x="-11"
     inkscape:window-y="-11"
     inkscape:window-maximized="1"
     fit-margin-top="0"
     fit-margin-left="0"
     fit-margin-right="0"
     fit-margin-bottom="0" />
  <metadata
     id="metadata5">
    <rdf:RDF>
      <cc:Work
         rdf:about="">
        <dc:format>image/svg+xml</dc:format>
        <dc:type
           rdf:resource="http://purl.org/dc/dcmitype/StillImage" />
        <dc:title></dc:title>
      </cc:Work>
    </rdf:RDF>
  </metadata>
  <g
     inkscape:label="Layer 1"
     inkscape:groupmode="layer"
     id="layer1"
     transform="translate(-43.693897,-45.900234)">
    <path
       style="opacity:0.48200001;fill:#ffffff;fill-opacity:1;stroke:none;stroke-width:2.08961797;stroke-miterlimit:4;stroke-dasharray:none;stroke-opacity:1"
       d="m 257.2439,262.33503 c -4.30887,-1.72313 -8.14557,-3.26754 -8.52599,-3.43202 -0.57477,-0.24849 1.15943,-1.97742 10.2592,-10.22806 6.023,-5.46096 10.989,-9.89355 11.03557,-9.8502 0.067,0.0624 -4.44283,24.51226 -4.83433,26.20917 -0.0622,0.26971 -3.0667,-0.75227 -7.93445,-2.69889 z"
       id="path866"
       inkscape:connector-curvature="0"
       transform="scale(0.26458333)" />
    <path
       style="opacity:0.48200001;fill:#ffffff;fill-opacity:1;stroke:none;stroke-width:2.08961797;stroke-miterlimit:4;stroke-dasharray:none;stroke-opacity:1"
       d="m 306.30157,251.40367 c -9.95143,-6.3123 -18.02297,-11.63331 -17.93676,-11.82447 0.25401,-0.56321 28.31915,-27.39457 28.65424,-27.39457 0.16824,0 1.44048,7.68041 2.82721,17.06759 1.38673,9.38718 3.07588,20.80288 3.75366,25.36823 0.67778,4.56534 1.13397,8.29152 1.01375,8.28038 -0.12022,-0.0111 -8.36067,-5.18486 -18.3121,-11.49716 z"
       id="path868"
       inkscape:connector-curvature="0"
       transform="scale(0.26458333)" />
    <path
       style="opacity:0.48200001;fill:#ffffff;fill-opacity:1;stroke:none;stroke-width:2.08961797;stroke-miterlimit:4;stroke-dasharray:none;stroke-opacity:1"
       d="m 353.19983,242.22102 c -6.45009,-7.06782 -8.02764,-8.99524 -7.64688,-9.34276 0.8546,-0.77997 11.21371,-6.53994 11.40958,-6.34406 0.2861,0.2861 4.58393,23.43386 4.46609,24.05399 -0.0564,0.29662 -3.74611,-3.45517 -8.22879,-8.36717 z"
       id="path870"
       inkscape:connector-curvature="0"
       transform="scale(0.26458333)" />
    <path
       style="opacity:0.48200001;fill:#ffffff;fill-opacity:1;stroke:none;stroke-width:2.08961797;stroke-miterlimit:4;stroke-dasharray:none;stroke-opacity:1"
       d="m 380.57842,235.00905 c -5.82713,-3.83311 -10.59925,-7.10948 -10.60469,-7.28083 -0.005,-0.17136 4.67827,-10.01128 10.40826,-21.8665 l 10.41816,-21.55495 0.23059,9.36892 c 0.5025,20.41618 0.77119,48.35264 0.46483,48.32828 -0.1773,-0.0141 -5.09001,-3.16182 -10.91715,-6.99492 z"
       id="path872"
       inkscape:connector-curvature="0"
       transform="scale(0.26458333)" />
    <path
       style="opacity:0.48200001;fill:#ffffff;fill-opacity:1;stroke:none;stroke-width:2.08961797;stroke-miterlimit:4;stroke-dasharray:none;stroke-opacity:1"
       d="m 441.16354,246.76099 c -1.84665,-2.88554 -3.73588,-5.87105 -4.19827,-6.63445 l -0.84071,-1.38801 1.56771,-1.15291 c 0.86224,-0.63409 1.67566,-1.02678 1.80759,-0.87263 0.32648,0.38145 5.29534,15.0572 5.14273,15.18929 -0.0668,0.0578 -1.63239,-2.25575 -3.47905,-5.14129 z"
       id="path874"
       inkscape:connector-curvature="0"
       transform="scale(0.26458333)" />
    <path
       style="opacity:0.48200001;fill:#ffffff;fill-opacity:1;stroke:none;stroke-width:2.08961797;stroke-miterlimit:4;stroke-dasharray:none;stroke-opacity:1"
       d="m 276.3386,589.58264 -10.3772,-36.68812 7.39271,-34.0652 c 4.13052,-19.03322 7.43524,-33.48981 7.48911,-32.76128 0.28571,3.86427 6.07142,138.7189 5.98059,139.39675 -0.0594,0.44328 -4.77774,-15.70369 -10.48521,-35.88215 z"
       id="path876"
       inkscape:connector-curvature="0"
       transform="scale(0.26458333)" />
    <path
       style="opacity:0.48200001;fill:#ffffff;fill-opacity:1;stroke:none;stroke-width:2.08961797;stroke-miterlimit:4;stroke-dasharray:none;stroke-opacity:1"
       d="m 316.76799,542.17156 -3.14618,-7.31525 1.5858,-8.2601 c 0.87218,-4.54305 2.31169,-11.86947 3.1989,-16.28094 l 1.61312,-8.02083 0.0426,23.59618 c 0.0234,12.9779 -2.9e-4,23.59618 -0.0527,23.59618 -0.0525,0 -1.51114,-3.29186 -3.24153,-7.31524 z"
       id="path878"
       inkscape:connector-curvature="0"
       transform="scale(0.26458333)" />
    <path
       style="opacity:0.48200001;fill:#ffffff;fill-opacity:1;stroke:none;stroke-width:2.08961797;stroke-miterlimit:4;stroke-dasharray:none;stroke-opacity:1"
       d="m 321.6336,612.81265 c -7.05878,-27.33999 -12.9495,-49.9609 -13.09048,-50.26867 -0.2146,-0.46851 2.96551,-18.05615 3.57407,-19.76642 0.10836,-0.30454 1.93777,3.47271 4.06536,8.3939 2.12758,4.92119 4.04978,9.2414 4.27155,9.60047 0.59524,0.96377 2.49581,0.85074 3.13665,-0.18653 0.28522,-0.46166 1.9259,-5.87573 3.64596,-12.03125 3.00138,-10.74097 3.13136,-11.10169 3.22633,-8.9535 0.47669,10.78278 4.20165,121.07518 4.11619,121.87631 -0.0613,0.57462 -5.88684,-21.32431 -12.94563,-48.66431 z"
       id="path880"
       inkscape:connector-curvature="0"
       transform="scale(0.26458333)" />
    <path
       style="opacity:0.48200001;fill:#ffffff;fill-opacity:1;stroke:none;stroke-width:2.08961797;stroke-miterlimit:4;stroke-dasharray:none;stroke-opacity:1"
       d="m 373.35554,621.86086 c -0.15606,-0.51296 -2.72324,-11.6583 -5.70485,-24.76742 l -5.4211,-23.83477 7.75669,-37.40894 c 4.26618,-20.57492 7.77559,-37.38126 7.79869,-37.34743 0.0231,0.0338 -0.85008,26.41836 -1.94039,58.63228 -1.09031,32.21391 -2.03253,60.1656 -2.09383,62.11485 -0.0735,2.33699 -0.2081,3.22643 -0.39521,2.61143 z"
       id="path882"
       inkscape:connector-curvature="0"
       transform="scale(0.26458333)" />
    <path
       style="fill:none;stroke:#fffff9;stroke-width:1;stroke-linecap:butt;stroke-linejoin:round;stroke-miterlimit:4;stroke-dasharray:none;stroke-opacity:1"
       d="m 125.10963,94.32796 -22.30106,78.78711 2.30504,-31.5279 -5.85767,27.53103 1.46442,-43.6396 -11.42245,55.06204 -1.46441,-41.8823 -2.63596,9.37225 v -20.79471 l -8.49361,43.63961 -2.05018,-46.86131 -5.85767,26.94525 -24.60219,-74.68523 14.0584,-10.25091 12.30109,4.97901 1.7573,-9.37226 14.35128,9.07938 -2.34307,-15.8157 12.3011,13.47263 -1.7573,-9.37226 9.37227,6.15055 -0.29289,-18.74453 15.8157,24.60219 -3.22172,-9.37226 12.88687,14.64416"
       id="path899"
       inkscape:connector-curvature="0"
       sodipodi:nodetypes="ccccccccccccccccccccccccc" />
    <path
       style="fill:none;stroke:#ffffff;stroke-width:1;stroke-linecap:butt;stroke-linejoin:miter;stroke-miterlimit:4;stroke-dasharray:none;stroke-opacity:1"
       d="m 72.31068,61.63004 -7.92503,7.17464"
       id="path901"
       inkscape:connector-curvature="0" />
    <path
       style="fill:none;stroke:#ffffff;stroke-width:1;stroke-linecap:butt;stroke-linejoin:miter;stroke-miterlimit:4;stroke-dasharray:none;stroke-opacity:1"
       d="m 84.31889,54.89372 -9.13406,8.74613"
       id="path903"
       inkscape:connector-curvature="0" />
    <path
       style="fill:none;stroke:#ffffff;stroke-width:1;stroke-linecap:butt;stroke-linejoin:miter;stroke-miterlimit:4;stroke-dasharray:none;stroke-opacity:1"
       d="m 94.86269,58.99409 -4.41815,2.53288"
       id="path905"
       inkscape:connector-curvature="0" />
    <path
       style="fill:none;stroke:#ffffff;stroke-width:1;stroke-linecap:butt;stroke-linejoin:miter;stroke-miterlimit:4;stroke-dasharray:none;stroke-opacity:1"
       d="M 103.94207,46.40011 97.13533,60.47053"
       id="path907"
       inkscape:connector-curvature="0" />
    <path
       style="fill:none;stroke:#ffffff;stroke-width:1;stroke-linecap:butt;stroke-linejoin:miter;stroke-miterlimit:4;stroke-dasharray:none;stroke-opacity:1"
       d="m 116.53605,61.63004 -2.02813,1.54028"
       id="path911"
       inkscape:connector-curvature="0"
       sodipodi:nodetypes="cc" />
    <path
       style="fill:none;stroke:#ffffff;stroke-width:1;stroke-linecap:butt;stroke-linejoin:miter;stroke-miterlimit:4;stroke-dasharray:none;stroke-opacity:1"
       d="m 69.81045,146.31092 6.80131,24.01155"
       id="path913"
       inkscape:connector-curvature="0"
       sodipodi:nodetypes="cc" />
    <path
       style="fill:none;stroke:#ffffff;stroke-width:1;stroke-linecap:butt;stroke-linejoin:miter;stroke-miterlimit:4;stroke-dasharray:none;stroke-opacity:1"
       d="m 85.19754,148.03059 -2.735,-6.33148"
       id="path915"
       inkscape:connector-curvature="0" />
    <path
       style="fill:none;stroke:#ffffff;stroke-width:1;stroke-linecap:butt;stroke-linejoin:miter;stroke-miterlimit:4;stroke-dasharray:none;stroke-opacity:1"
       d="M 89.29791,180.54064 81.10437,148.86811"
       id="path917"
       inkscape:connector-curvature="0"
       sodipodi:nodetypes="cc" />
    <path
       style="fill:none;stroke:#ffffff;stroke-width:1;stroke-linecap:butt;stroke-linejoin:miter;stroke-miterlimit:4;stroke-dasharray:none;stroke-opacity:1"
       d="M 99.25594,169.1182 95.25721,151.55056"
       id="path919"
       inkscape:connector-curvature="0"
       sodipodi:nodetypes="cc" />
    <text
       xml:space="preserve"
       style="font-style:normal;font-variant:normal;font-weight:normal;font-stretch:normal;font-size:10.58333302px;line-height:1.25;font-family:Uroob;-inkscape-font-specification:Uroob;letter-spacing:0px;word-spacing:0px;fill:#000000;fill-opacity:1;stroke:none;stroke-width:0.26458332"
       x="58.287643"
       y="91.440544"
       id="text935"><tspan
         sodipodi:role="line"
         id="tspan933"
         x="58.287643"
         y="91.440544"
         style="font-style:normal;font-variant:normal;font-weight:normal;font-stretch:normal;font-size:16.93333244px;font-family:Lato;-inkscape-font-specification:Lato;fill:#565656;fill-opacity:1;stroke-width:0.26458332"><tspan
           style="fill:#108bde;fill-opacity:1"
           id="tspan1112">Blue</tspan><tspan
           style="fill:#ffffff;fill-opacity:1"
           id="tspan873">Banquise</tspan></tspan></text>
    <path
       style="fill:none;stroke:#fffffd;stroke-width:0.96799999;stroke-linecap:round;stroke-linejoin:miter;stroke-miterlimit:4;stroke-dasharray:none;stroke-opacity:1"
       d="m 44.19389,76.2742 119.99846,0.027"
       id="path937"
       inkscape:connector-curvature="0"
       sodipodi:nodetypes="cc" />
  </g>
</svg>
