<svg width="1280" height="720" xmlns="http://www.w3.org/2000/svg" xmlns:xlink="http://www.w3.org/1999/xlink" overflow="hidden"><defs><clipPath id="clip0"><path d="M0 0 1280 0 1280 720 0 720Z" fill-rule="evenodd" clip-rule="evenodd"/></clipPath></defs><g clip-path="url(#clip0)"><rect x="0" y="0" width="1280" height="720" fill="#FFFFFF"/><rect x="19.5001" y="110.5" width="170" height="58" stroke="#000000" stroke-miterlimit="8" fill="#FFFFFF"/><text font-family="Calibri,Calibri_MSFontService,sans-serif" font-weight="400" font-size="24" transform="translate(30.3857 146)">ImageManager</text><path d="M104 168 104 538.02" stroke="#000000" stroke-width="2" stroke-miterlimit="8" fill="none" fill-rule="evenodd"/><path d="M121.5 197.75 126.25 192.637 126.25 195.012C133.23 193.927 138.589 190.558 140.086 186.313 142.198 192.302 136.099 198.231 126.25 199.762L126.25 202.137Z" fill="#4472C4" fill-rule="evenodd"/><path d="M140.5 188.688C140.5 182.371 131.993 177.25 121.5 177.25L121.5 172.5C131.993 172.5 140.5 177.621 140.5 183.938Z" fill="#375C9E" fill-rule="evenodd"/><path d="M140.5 188.688C140.5 182.371 131.993 177.25 121.5 177.25L121.5 172.5C131.993 172.5 140.5 177.621 140.5 183.938L140.5 188.688C140.5 193.903 134.639 198.458 126.25 199.762L126.25 202.137 121.5 197.75 126.25 192.637 126.25 195.012C133.23 193.927 138.589 190.558 140.086 186.313" stroke="#2F528F" stroke-miterlimit="8" fill="none" fill-rule="evenodd"/><rect x="92.5001" y="193.5" width="25" height="333" stroke="#000000" stroke-miterlimit="8" fill="#FFFFFF"/><text font-family="Calibri,Calibri_MSFontService,sans-serif" font-weight="400" font-size="19" transform="translate(153.644 194)">c<tspan x="7.83333" y="0">lean_installation</tspan><tspan x="133.893" y="0">(</tspan><tspan x="139.56" y="0">)</tspan></text><path d="M121.5 512.75 126.25 507.637 126.25 510.012C133.23 508.927 138.589 505.558 140.086 501.313 142.198 507.302 136.099 513.231 126.25 514.762L126.25 517.137Z" fill="#4472C4" fill-rule="evenodd"/><path d="M140.5 503.688C140.5 497.371 131.993 492.25 121.5 492.25L121.5 487.5C131.993 487.5 140.5 492.621 140.5 498.938Z" fill="#375C9E" fill-rule="evenodd"/><path d="M140.5 503.688C140.5 497.371 131.993 492.25 121.5 492.25L121.5 487.5C131.993 487.5 140.5 492.621 140.5 498.938L140.5 503.688C140.5 508.903 134.639 513.458 126.25 514.762L126.25 517.137 121.5 512.75 126.25 507.637 126.25 510.012C133.23 508.927 138.589 505.558 140.086 501.313" stroke="#2F528F" stroke-miterlimit="8" fill="none" fill-rule="evenodd"/><path d="M523.188 287.5C525.776 287.5 527.875 285.401 527.875 282.813L523.188 282.813C524.482 282.813 525.531 281.763 525.531 280.469 525.531 279.174 524.482 278.125 523.188 278.125L527.875 278.125 527.875 205.188C527.875 202.599 529.974 200.5 532.563 200.5L588.813 200.5C591.401 200.5 593.5 202.599 593.5 205.188 593.5 207.776 591.401 209.875 588.813 209.875L584.125 209.875 584.125 282.813C584.125 285.401 582.026 287.5 579.438 287.5ZM537.25 205.188C537.25 207.776 535.151 209.875 532.563 209.875 531.268 209.875 530.219 208.826 530.219 207.531 530.219 206.237 531.268 205.187 532.563 205.187Z" fill="#FFFFFF" fill-rule="evenodd"/><path d="M537.25 205.188C537.25 207.776 535.151 209.875 532.563 209.875 531.268 209.875 530.219 208.826 530.219 207.531 530.219 206.237 531.268 205.187 532.563 205.187ZM527.875 282.813C527.875 285.401 525.776 287.5 523.188 287.5 520.599 287.5 518.5 285.401 518.5 282.813 518.5 280.224 520.599 278.125 523.188 278.125 524.482 278.125 525.531 279.174 525.531 280.469 525.531 281.763 524.482 282.813 523.188 282.813Z" fill="#CDCDCD" fill-rule="evenodd"/><path d="M527.875 278.125 527.875 205.188C527.875 202.599 529.974 200.5 532.563 200.5L588.813 200.5C591.401 200.5 593.5 202.599 593.5 205.188 593.5 207.776 591.401 209.875 588.813 209.875L584.125 209.875 584.125 282.813C584.125 285.401 582.026 287.5 579.438 287.5L523.188 287.5C520.599 287.5 518.5 285.401 518.5 282.813 518.5 280.224 520.599 278.125 523.188 278.125ZM532.563 200.5C535.151 200.5 537.25 202.599 537.25 205.188 537.25 207.776 535.151 209.875 532.563 209.875 531.268 209.875 530.219 208.826 530.219 207.531 530.219 206.237 531.268 205.187 532.563 205.187L537.25 205.188M584.125 209.875 532.563 209.875M523.188 278.125C524.482 278.125 525.531 279.174 525.531 280.469 525.531 281.763 524.482 282.813 523.188 282.813L527.875 282.813M523.188 287.5C525.776 287.5 527.875 285.401 527.875 282.813L527.875 278.125" stroke="#0D0D0D" stroke-miterlimit="8" fill="none" fill-rule="evenodd"/><text font-family="Calibri,Calibri_MSFontService,sans-serif" font-weight="400" font-size="19" transform="translate(493.859 183)">i<tspan x="4.33331" y="0">nstallations.yml</tspan><tspan x="-233.379" y="50">o</tspan><tspan x="-223.546" y="50">ngoing_installations</tspan></text><path d="M1.28002e-07-0.5 403.432-0.499897 403.432 0.500103-1.28002e-07 0.5ZM402.097-3.9999 410.097 0.000104987 402.097 4.0001Z" transform="matrix(-1 -8.74228e-08 -8.74228e-08 1 527.597 244.5)"/><text font-family="Calibri,Calibri_MSFontService,sans-serif" font-weight="400" font-size="19" transform="translate(125.561 321)">i<tspan x="4.33334" y="0">f </tspan><tspan x="14.1667" y="0">get_image_status</tspan>(<tspan x="154.487" y="0">image_name</tspan>) = cls.ImageStatus.<tspan x="398.267" y="0">CORRUPTED</tspan></text><path d="M333.467 470.994 454.273 470.994 454.273 499.994 333.467 499.994Z" fill="#00FF00" fill-rule="evenodd"/><path d="M333.467 499.994 344.467 499.994 344.467 528.994 333.467 528.994Z" fill="#FFFF00" fill-rule="evenodd"/><path d="M344.467 499.994 461.6 499.994 461.6 528.994 344.467 528.994Z" fill="#FFFF00" fill-rule="evenodd"/><path d="M461.6 499.994 473.6 499.994 473.6 528.994 461.6 528.994Z" fill="#FFFF00" fill-rule="evenodd"/><path d="M473.6 499.994 604.207 499.994 604.207 528.994 473.6 528.994Z" fill="#FFFF00" fill-rule="evenodd"/><path d="M344.467 528.994 375.3 528.994 375.3 557.994 344.467 557.994Z" fill="#FFFF00" fill-rule="evenodd"/><path d="M375.3 528.994 448.133 528.994 448.133 557.994 375.3 557.994Z" fill="#FFFF00" fill-rule="evenodd"/><path d="M333.467 557.994 491.207 557.994 491.207 586.994 333.467 586.994Z" fill="#00FF00" fill-rule="evenodd"/><path d="M491.207 557.994 497.707 557.994 497.707 586.994 491.207 586.994Z" fill="#00FF00" fill-rule="evenodd"/><path d="M333.467 586.994 344.467 586.994 344.467 615.994 333.467 615.994Z" fill="#FFFF00" fill-rule="evenodd"/><path d="M344.467 586.994 461.6 586.994 461.6 615.994 344.467 615.994Z" fill="#FFFF00" fill-rule="evenodd"/><path d="M461.6 586.994 473.6 586.994 473.6 615.994 461.6 615.994Z" fill="#FFFF00" fill-rule="evenodd"/><path d="M473.6 586.994 604.44 586.994 604.44 615.994 473.6 615.994Z" fill="#FFFF00" fill-rule="evenodd"/><path d="M333.467 614.994 344.467 614.994 344.467 643.994 333.467 643.994Z" fill="#FFFF00" fill-rule="evenodd"/><path d="M344.467 614.994 375.3 614.994 375.3 643.994 344.467 643.994Z" fill="#FFFF00" fill-rule="evenodd"/><path d="M375.3 614.994 448.133 614.994 448.133 643.994 375.3 643.994Z" fill="#FFFF00" fill-rule="evenodd"/><text font-family="Calibri,Calibri_MSFontService,sans-serif" font-weight="400" font-size="24" transform="translate(333.467 494)">livenetimg1:<tspan x="0" y="29">  </tspan>image_class: LivenetImage<tspan x="11" y="58">pid</tspan><tspan x="41.8333" y="58">: 31251</tspan><tspan x="0" y="87">mystagingimage</tspan><tspan x="157.74" y="87">:</tspan><tspan x="0" y="116">  </tspan>image_class: StagingImage<tspan x="0" y="144">  </tspan>pid<tspan x="41.8333" y="144">: 31391</tspan><tspan font-size="19" x="-172.525" y="-140">image_class.clean</tspan><tspan font-size="19" x="-36.1782" y="-140">(</tspan><tspan font-size="19" x="-30.5115" y="-140">image_name</tspan><tspan font-size="19" x="68.0019" y="-140">)</tspan></text><rect x="104.5" y="358.5" width="26" height="107" stroke="#000000" stroke-miterlimit="8" fill="#FFFFFF"/><path d="M134.5 362.5 139.5 357.143 139.5 359.643C146.743 358.591 152.338 355.353 154 351.25 156.405 357.186 149.979 363.121 139.5 364.643L139.5 367.143Z" fill="#4472C4" fill-rule="evenodd"/><path d="M154.5 353.75C154.5 347.537 145.546 342.5 134.5 342.5L134.5 337.5C145.546 337.5 154.5 342.537 154.5 348.75Z" fill="#375C9E" fill-rule="evenodd"/><path d="M154.5 353.75C154.5 347.537 145.546 342.5 134.5 342.5L134.5 337.5C145.546 337.5 154.5 342.537 154.5 348.75L154.5 353.75C154.5 358.88 148.33 363.36 139.5 364.643L139.5 367.143 134.5 362.5 139.5 357.143 139.5 359.643C146.743 358.591 152.338 355.353 154 351.25" stroke="#2F528F" stroke-miterlimit="8" fill="none" fill-rule="evenodd"/><rect x="324" y="467" width="141" height="33" stroke="#FF0000" stroke-width="2" stroke-miterlimit="8" fill="none"/><rect x="465" y="498" width="149" height="32" stroke="#FF0000" stroke-width="2" stroke-miterlimit="8" fill="none"/><path d="M394.82 467.853 332.913 337.735 333.816 337.305 395.723 467.424ZM330.325 340.443 330.5 331.5 337.549 337.006Z" fill="#C00000"/><path d="M540.106 498.85 210.515 368.418 210.883 367.488 540.474 497.92ZM210.467 372.163 204.5 365.5 213.411 364.724Z" fill="#FF0000"/><rect x="280" y="299" width="99" height="32" stroke="#FF0000" stroke-width="2" stroke-miterlimit="8" fill="none"/><rect x="156" y="333" width="95" height="32" stroke="#FF0000" stroke-width="2" stroke-miterlimit="8" fill="none"/><rect x="255" y="214" width="173" height="32" stroke="#00B0F0" stroke-width="2" stroke-miterlimit="8" fill="none"/><rect x="306" y="451" width="354" height="208" stroke="#00B0F0" stroke-width="2" stroke-miterlimit="8" fill="none"/><path d="M481.753 451.926 343.961 252.056 345.607 250.921 483.4 450.791ZM342.248 254.857 341 246 348.834 250.316Z" fill="#00B0F0"/></g></svg>