<svg width="1280" height="720" xmlns="http://www.w3.org/2000/svg" xmlns:xlink="http://www.w3.org/1999/xlink" overflow="hidden"><defs><clipPath id="clip0"><path d="M0 0 1280 0 1280 720 0 720Z" fill-rule="evenodd" clip-rule="evenodd"/></clipPath></defs><g clip-path="url(#clip0)"><rect x="0" y="0" width="1280" height="720" fill="#FFFFFF"/><path d="M203 112 203 357.527" stroke="#000000" stroke-width="2" stroke-miterlimit="8" fill="none" fill-rule="evenodd"/><path d="M776.455 301.104 897.262 301.104 897.262 330.104 776.455 330.104Z" fill="#00FF00" fill-rule="evenodd"/><path d="M776.455 330.104 787.455 330.104 787.455 359.104 776.455 359.104Z" fill="#FFFF00" fill-rule="evenodd"/><path d="M787.455 330.104 904.589 330.104 904.589 359.104 787.455 359.104Z" fill="#FFFF00" fill-rule="evenodd"/><path d="M904.589 330.104 916.589 330.104 916.589 359.104 904.589 359.104Z" fill="#FFFF00" fill-rule="evenodd"/><path d="M916.589 330.104 1047.2 330.104 1047.2 359.104 916.589 359.104Z" fill="#FFFF00" fill-rule="evenodd"/><path d="M787.455 359.104 818.289 359.104 818.289 388.104 787.455 388.104Z" fill="#FFFF00" fill-rule="evenodd"/><path d="M818.289 359.104 891.122 359.104 891.122 388.104 818.289 388.104Z" fill="#FFFF00" fill-rule="evenodd"/><path d="M776.455 388.104 934.195 388.104 934.195 417.104 776.455 417.104Z" fill="#00FF00" fill-rule="evenodd"/><path d="M934.195 388.104 940.695 388.104 940.695 417.104 934.195 417.104Z" fill="#00FF00" fill-rule="evenodd"/><path d="M776.455 417.104 787.455 417.104 787.455 446.104 776.455 446.104Z" fill="#FFFF00" fill-rule="evenodd"/><path d="M787.455 417.104 904.589 417.104 904.589 446.104 787.455 446.104Z" fill="#FFFF00" fill-rule="evenodd"/><path d="M904.589 417.104 916.589 417.104 916.589 446.104 904.589 446.104Z" fill="#FFFF00" fill-rule="evenodd"/><path d="M916.589 417.104 1047.43 417.104 1047.43 446.104 916.589 446.104Z" fill="#FFFF00" fill-rule="evenodd"/><path d="M776.455 445.104 787.455 445.104 787.455 474.104 776.455 474.104Z" fill="#FFFF00" fill-rule="evenodd"/><path d="M787.455 445.104 818.289 445.104 818.289 474.104 787.455 474.104Z" fill="#FFFF00" fill-rule="evenodd"/><path d="M818.289 445.104 891.122 445.104 891.122 474.104 818.289 474.104Z" fill="#FFFF00" fill-rule="evenodd"/><text font-family="Calibri,Calibri_MSFontService,sans-serif" font-weight="400" font-size="24" transform="translate(776.455 324)">livenetimg1:<tspan x="0" y="29">  </tspan>image_class<tspan x="128.133" y="29">: </tspan>LivenetImage<tspan x="11" y="58">pid</tspan><tspan x="41.8333" y="58">: 31251</tspan><tspan x="0" y="87">mystagingimage</tspan><tspan x="157.74" y="87">:</tspan><tspan x="0" y="116">  </tspan>image_class<tspan x="128.133" y="116">: </tspan>StagingImage<tspan x="0" y="144">  </tspan>pid<tspan x="41.8333" y="144">: 31391</tspan></text><rect x="118.5" y="54.5001" width="170" height="58" stroke="#000000" stroke-miterlimit="8" fill="#FFFFFF"/><text font-family="Calibri,Calibri_MSFontService,sans-serif" font-weight="400" font-size="24" transform="translate(129.355 91)">ImageManager</text><path d="M220.5 142.75 225.25 137.621 225.25 139.996C232.289 138.854 237.674 135.289 239.12 130.813 241.131 137.036 235.036 143.159 225.25 144.746L225.25 147.121Z" fill="#4472C4" fill-rule="evenodd"/><path d="M239.5 133.188C239.5 126.595 230.993 121.25 220.5 121.25L220.5 116.5C230.993 116.5 239.5 121.845 239.5 128.438Z" fill="#375C9E" fill-rule="evenodd"/><path d="M239.5 133.188C239.5 126.595 230.993 121.25 220.5 121.25L220.5 116.5C230.993 116.5 239.5 121.845 239.5 128.438L239.5 133.188C239.5 138.631 233.639 143.385 225.25 144.746L225.25 147.121 220.5 142.75 225.25 137.621 225.25 139.996C232.289 138.854 237.674 135.289 239.12 130.813" stroke="#2F528F" stroke-miterlimit="8" fill="none" fill-rule="evenodd"/><rect x="191.5" y="138.5" width="27" height="436" stroke="#000000" stroke-miterlimit="8" fill="#FFFFFF"/><text font-family="Calibri,Calibri_MSFontService,sans-serif" font-weight="400" font-size="19" transform="translate(252.613 138)">get_image_status<tspan x="134.653" y="0">(</tspan><tspan x="140.32" y="0">image_name</tspan>)</text><path d="M621.25 232.5C623.873 232.5 626 230.373 626 227.75L621.25 227.75C622.562 227.75 623.625 226.687 623.625 225.375 623.625 224.063 622.562 223 621.25 223L626 223 626 150.25C626 147.627 628.127 145.5 630.75 145.5L687.75 145.5C690.373 145.5 692.5 147.627 692.5 150.25 692.5 152.873 690.373 155 687.75 155L683 155 683 227.75C683 230.373 680.873 232.5 678.25 232.5ZM635.5 150.25C635.5 152.873 633.373 155 630.75 155 629.438 155 628.375 153.937 628.375 152.625 628.375 151.313 629.438 150.25 630.75 150.25Z" fill="#FFFFFF" fill-rule="evenodd"/><path d="M635.5 150.25C635.5 152.873 633.373 155 630.75 155 629.438 155 628.375 153.937 628.375 152.625 628.375 151.313 629.438 150.25 630.75 150.25ZM626 227.75C626 230.373 623.873 232.5 621.25 232.5 618.627 232.5 616.5 230.373 616.5 227.75 616.5 225.127 618.627 223 621.25 223 622.562 223 623.625 224.063 623.625 225.375 623.625 226.687 622.562 227.75 621.25 227.75Z" fill="#CDCDCD" fill-rule="evenodd"/><path d="M626 223 626 150.25C626 147.627 628.127 145.5 630.75 145.5L687.75 145.5C690.373 145.5 692.5 147.627 692.5 150.25 692.5 152.873 690.373 155 687.75 155L683 155 683 227.75C683 230.373 680.873 232.5 678.25 232.5L621.25 232.5C618.627 232.5 616.5 230.373 616.5 227.75 616.5 225.127 618.627 223 621.25 223ZM630.75 145.5C633.373 145.5 635.5 147.627 635.5 150.25 635.5 152.873 633.373 155 630.75 155 629.438 155 628.375 153.937 628.375 152.625 628.375 151.313 629.438 150.25 630.75 150.25L635.5 150.25M683 155 630.75 155M621.25 223C622.562 223 623.625 224.063 623.625 225.375 623.625 226.687 622.562 227.75 621.25 227.75L626 227.75M621.25 232.5C623.873 232.5 626 230.373 626 227.75L626 223" stroke="#0D0D0D" stroke-miterlimit="8" fill="none" fill-rule="evenodd"/><text font-family="Calibri,Calibri_MSFontService,sans-serif" font-weight="400" font-size="19" transform="translate(592.828 127)">i<tspan x="4.33337" y="0">nstallations.yml</tspan><tspan x="-233.379" y="51">o</tspan><tspan x="-223.546" y="51">ngoing_installations</tspan></text><path d="M1.28002e-07-0.5 403.432-0.499897 403.432 0.500103-1.28002e-07 0.5ZM402.097-3.9999 410.097 0.000104987 402.097 4.0001Z" transform="matrix(-1 -8.74228e-08 -8.74228e-08 1 626.597 189.5)"/><rect x="354" y="158" width="173" height="32" stroke="#00B0F0" stroke-width="2" stroke-miterlimit="8" fill="none"/><rect x="767" y="297" width="141" height="33" stroke="#FF0000" stroke-width="2" stroke-miterlimit="8" fill="none"/><rect x="772" y="356" width="136" height="32" stroke="#FF0000" stroke-width="2" stroke-miterlimit="8" fill="none"/><rect x="749" y="281" width="354" height="208" stroke="#00B0F0" stroke-width="2" stroke-miterlimit="8" fill="none"/><path d="M926.073 282.154 533.193 178.666 533.703 176.732 926.582 280.22ZM533.717 181.906 527 176 535.755 174.17Z" fill="#00B0F0"/><text font-family="Calibri,Calibri_MSFontService,sans-serif" font-weight="400" font-size="19" transform="translate(224.531 265)">i<tspan x="4.33333" y="0">f </tspan><tspan x="14.1667" y="0">image_name</tspan><tspan x="116.847" y="0">in </tspan>ongoing_installations</text><rect x="203.5" y="303.5" width="30" height="199" stroke="#000000" stroke-miterlimit="8" fill="#FFFFFF"/><path d="M233.5 307.5 238.5 302.127 238.5 304.627C245.811 303.518 251.436 300.085 253.042 295.75 255.329 301.92 248.907 308.048 238.5 309.627L238.5 312.127Z" fill="#4472C4" fill-rule="evenodd"/><path d="M253.5 298.25C253.5 291.761 244.546 286.5 233.5 286.5L233.5 281.5C244.546 281.5 253.5 286.761 253.5 293.25Z" fill="#375C9E" fill-rule="evenodd"/><path d="M253.5 298.25C253.5 291.761 244.546 286.5 233.5 286.5L233.5 281.5C244.546 281.5 253.5 286.761 253.5 293.25L253.5 298.25C253.5 303.608 247.33 308.287 238.5 309.627L238.5 312.127 233.5 307.5 238.5 302.127 238.5 304.627C245.811 303.518 251.436 300.085 253.042 295.75" stroke="#2F528F" stroke-miterlimit="8" fill="none" fill-rule="evenodd"/><text font-family="Calibri,Calibri_MSFontService,sans-serif" font-weight="400" font-size="19" transform="translate(238.572 350)">i<tspan x="4.33333" y="0">f </tspan><tspan x="14.1667" y="0">pid</tspan><tspan x="42.3333" y="0">process </tspan>is<tspan x="120.033" y="0">running:</tspan></text><rect x="239" y="242" width="100" height="32" stroke="#FF0000" stroke-width="2" stroke-miterlimit="8" fill="none"/><text font-family="Calibri,Calibri_MSFontService,sans-serif" font-weight="400" font-size="19" transform="translate(243.045 440)">i<tspan x="4.33334" y="0">f </tspan><tspan x="14.1667" y="0">pid</tspan><tspan x="42.3333" y="0">process </tspan>is<tspan x="120.033" y="0">not running:</tspan><tspan x="5.56808" y="-42">=&gt; return </tspan><tspan x="80.5547" y="-42">ImageStatus.IN_CREATION</tspan><tspan x="9.56746" y="49">=&gt; return </tspan><tspan x="84.5541" y="49">ImageStatus</tspan><tspan x="178.001" y="49">.CORRUPTED</tspan><tspan x="-13.3468" y="115">=&gt; return </tspan><tspan x="61.6399" y="115">ImageStatus</tspan>.CREATED</text><rect x="250" y="332" width="31" height="32" stroke="#FF0000" stroke-width="2" stroke-miterlimit="8" fill="none"/><rect x="255" y="423" width="31" height="32" stroke="#FF0000" stroke-width="2" stroke-miterlimit="8" fill="none"/><path d="M767.278 314.157 346.053 260.834 346.178 259.841 767.404 313.165ZM346.934 264.473 339.5 259.5 347.939 256.536Z" fill="#FF0000"/><path d="M0.0648611-0.495775 474.44 61.5656 474.311 62.5572-0.0648611 0.495775ZM473.574 57.9224 480.987 62.9264 472.536 65.8548Z" fill="#FF0000" transform="matrix(-1 -8.74228e-08 -8.74228e-08 1 767.487 376.5)"/><path d="M767.469 376.916 288.127 348.395 288.186 347.397 767.529 375.918ZM289.248 351.968 281.5 347.5 289.724 343.982Z" fill="#FF0000"/></g></svg>