<svg width="1626" height="633" xmlns="http://www.w3.org/2000/svg" xmlns:xlink="http://www.w3.org/1999/xlink" overflow="hidden"><defs><clipPath id="clip0"><path d="M-100-12 1526-12 1526 621-100 621Z" fill-rule="evenodd" clip-rule="evenodd"/></clipPath></defs><g clip-path="url(#clip0)" transform="translate(100 12)"><rect x="131.5" y="101.5" width="149" height="39" stroke="#262626" stroke-linejoin="round" stroke-miterlimit="10" fill="none"/><text font-family="Open Sans,Open Sans_MSFontService,sans-serif" font-weight="400" font-size="24" transform="translate(159.166 129)">mngt1<tspan x="72.3333" y="0">-</tspan><tspan x="80" y="0">1</tspan></text><rect x="618.5" y="314.5" width="149" height="39" stroke="#262626" stroke-linejoin="round" stroke-miterlimit="10" fill="none"/><text font-family="Open Sans,Open Sans_MSFontService,sans-serif" font-weight="400" font-size="24" transform="translate(645.167 342)">mngt2<tspan x="72.3333" y="0">-</tspan><tspan x="80" y="0">1</tspan></text><rect x="1064.5" y="310.5" width="149" height="39" stroke="#262626" stroke-linejoin="round" stroke-miterlimit="10" fill="none"/><text font-family="Open Sans,Open Sans_MSFontService,sans-serif" font-weight="400" font-size="24" transform="translate(1091.2 338)">mngt3<tspan x="72.3333" y="0">-</tspan><tspan x="80" y="0">2</tspan></text><rect x="385.5" y="310.5" width="149" height="36" stroke="#262626" stroke-linejoin="round" stroke-miterlimit="10" fill="none"/><text font-family="Open Sans,Open Sans_MSFontService,sans-serif" font-weight="400" font-size="21" transform="translate(436.167 335)">c002</text><rect x="385.5" y="372.5" width="149" height="35" stroke="#262626" stroke-linejoin="round" stroke-miterlimit="10" fill="none"/><text font-family="Open Sans,Open Sans_MSFontService,sans-serif" font-weight="400" font-size="21" transform="translate(436.167 396)">c003</text><path d="M206.5 140.5 385.5 267.059" stroke="#4472C4" stroke-miterlimit="8" fill="none" fill-rule="evenodd"/><path d="M206.5 140.5 385.5 328.659" stroke="#4472C4" stroke-miterlimit="8" fill="none" fill-rule="evenodd"/><path d="M206.5 140.5 385.5 390.259" stroke="#4472C4" stroke-miterlimit="8" fill="none" fill-rule="evenodd"/><text fill="#5B9BD5" font-family="Open Sans,Open Sans_MSFontService,sans-serif" font-weight="400" font-size="24" transform="translate(356.658 199)">ice1<tspan x="44.6667" y="0">-</tspan><tspan x="52.3333" y="0">1</tspan></text><rect x="385.5" y="440.5" width="149" height="36" stroke="#262626" stroke-linejoin="round" stroke-miterlimit="10" fill="none"/><text font-family="Open Sans,Open Sans_MSFontService,sans-serif" font-weight="400" font-size="21" transform="translate(436.167 465)">c004</text><rect x="385.5" y="502.5" width="149" height="35" stroke="#262626" stroke-linejoin="round" stroke-miterlimit="10" fill="none"/><text font-family="Open Sans,Open Sans_MSFontService,sans-serif" font-weight="400" font-size="21" transform="translate(436.167 526)">c005</text><rect x="385.5" y="563.5" width="149" height="36" stroke="#262626" stroke-linejoin="round" stroke-miterlimit="10" fill="none"/><text font-family="Open Sans,Open Sans_MSFontService,sans-serif" font-weight="400" font-size="21" transform="translate(436.167 588)">c006</text><path d="M206.5 140.5 385.5 458.697" stroke="#ED7D31" stroke-miterlimit="8" fill="none" fill-rule="evenodd"/><path d="M206.5 140.5 385.5 520.296" stroke="#ED7D31" stroke-miterlimit="8" fill="none" fill-rule="evenodd"/><path d="M206.5 140.5 385.5 581.896" stroke="#ED7D31" stroke-miterlimit="8" fill="none" fill-rule="evenodd"/><text fill="#ED7D31" font-family="Open Sans,Open Sans_MSFontService,sans-serif" font-weight="400" font-size="24" transform="translate(256.1 476)">ice1<tspan x="44.6667" y="0">-</tspan><tspan x="52.3333" y="0">2</tspan><tspan fill="#92D050" x="116.733" y="-383">ice1</tspan><tspan fill="#92D050" x="161.4" y="-383">-</tspan><tspan fill="#92D050" x="169.067" y="-383">3</tspan></text><path d="M206.5 140.5 618 334.674" stroke="#4472C4" stroke-miterlimit="8" fill="none" fill-rule="evenodd"/><path d="M280.5 120.5 1063.53 329.662" stroke="#92D050" stroke-miterlimit="8" fill="none" fill-rule="evenodd"/><rect x="828.5" y="438.5" width="149" height="35" stroke="#262626" stroke-linejoin="round" stroke-miterlimit="10" fill="none"/><text font-family="Open Sans,Open Sans_MSFontService,sans-serif" font-weight="400" font-size="21" transform="translate(879.667 463)">c007</text><rect x="828.5" y="499.5" width="149" height="36" stroke="#262626" stroke-linejoin="round" stroke-miterlimit="10" fill="none"/><text font-family="Open Sans,Open Sans_MSFontService,sans-serif" font-weight="400" font-size="21" transform="translate(879.667 524)">c008</text><rect x="828.5" y="561.5" width="149" height="36" stroke="#262626" stroke-linejoin="round" stroke-miterlimit="10" fill="none"/><text font-family="Open Sans,Open Sans_MSFontService,sans-serif" font-weight="400" font-size="21" transform="translate(879.666 586)">c009</text><path d="M689.5 355.5 829 456.31" stroke="#7030A0" stroke-miterlimit="8" fill="none" fill-rule="evenodd"/><path d="M689.5 355.5 829 517.909" stroke="#7030A0" stroke-miterlimit="8" fill="none" fill-rule="evenodd"/><path d="M689.5 355.5 829 579.509" stroke="#7030A0" stroke-miterlimit="8" fill="none" fill-rule="evenodd"/><rect x="1350.5" y="432.5" width="149" height="35" stroke="#262626" stroke-linejoin="round" stroke-miterlimit="10" fill="none"/><text font-family="Open Sans,Open Sans_MSFontService,sans-serif" font-weight="400" font-size="21" transform="translate(1400.93 456)">c010</text><rect x="1350.5" y="493.5" width="149" height="36" stroke="#262626" stroke-linejoin="round" stroke-miterlimit="10" fill="none"/><text font-family="Open Sans,Open Sans_MSFontService,sans-serif" font-weight="400" font-size="21" transform="translate(1400.93 518)">c011</text><rect x="1350.5" y="555.5" width="149" height="35" stroke="#262626" stroke-linejoin="round" stroke-miterlimit="10" fill="none"/><text font-family="Open Sans,Open Sans_MSFontService,sans-serif" font-weight="400" font-size="21" transform="translate(1400.93 580)">c012</text><path d="M1138.5 349.5 1350.23 450.009" stroke="#FFC000" stroke-miterlimit="8" fill="none" fill-rule="evenodd"/><path d="M1138.5 349.5 1350.23 511.609" stroke="#FFC000" stroke-miterlimit="8" fill="none" fill-rule="evenodd"/><path d="M1138.5 349.5 1350.23 573.208" stroke="#FFC000" stroke-miterlimit="8" fill="none" fill-rule="evenodd"/><text fill="#7030A0" font-family="Open Sans,Open Sans_MSFontService,sans-serif" font-weight="400" font-size="24" transform="translate(658.35 443)">ice2<tspan x="44.6667" y="0">-</tspan><tspan x="52.3334" y="0">1</tspan><tspan fill="#FFC000" x="486.649" y="2">ice3</tspan><tspan fill="#FFC000" x="531.316" y="2">-</tspan><tspan fill="#FFC000" x="538.983" y="2">1</tspan></text><rect x="106.5" y="58.5001" width="454" height="561" stroke="#404040" stroke-miterlimit="8" stroke-dasharray="4 3" fill="none"/><rect x="592.5" y="295.5" width="413" height="324" stroke="#404040" stroke-miterlimit="8" stroke-dasharray="4 3" fill="none"/><rect x="1038.5" y="295.5" width="487" height="324" stroke="#404040" stroke-miterlimit="8" stroke-dasharray="4 3" fill="none"/><rect x="385.5" y="248.5" width="149" height="36" stroke="#262626" stroke-linejoin="round" stroke-miterlimit="10" fill="#FFFFFF"/><text font-family="Open Sans,Open Sans_MSFontService,sans-serif" font-weight="400" font-size="21" transform="translate(436.167 273)">c001<tspan font-size="24" x="158.35" y="12">Iceberg2 </tspan><tspan font-size="16" x="260.783" y="12">(standard, master: iceberg1)</tspan><tspan font-size="24" x="604.383" y="12">Iceberg3  </tspan><tspan font-size="16" x="712.983" y="12">(standard, master: iceberg1)</tspan><tspan font-size="24" x="-327.234" y="-227">Iceberg1 </tspan><tspan font-size="16" x="-224.8" y="-227">(top)</tspan></text><path d="M3.50005 18.5001 131.65 120.775" stroke="#262626" stroke-miterlimit="8" fill="none" fill-rule="evenodd"/><text font-family="Open Sans,Open Sans_MSFontService,sans-serif" font-weight="400" font-size="16" transform="translate(-89.3005 9)">External (dns, time, etc.)</text></g></svg>