<?xml version="1.0" encoding="UTF-8" standalone="no"?>
<!-- Created with Inkscape (http://www.inkscape.org/) -->

<svg
   xmlns:dc="http://purl.org/dc/elements/1.1/"
   xmlns:cc="http://creativecommons.org/ns#"
   xmlns:rdf="http://www.w3.org/1999/02/22-rdf-syntax-ns#"
   xmlns:svg="http://www.w3.org/2000/svg"
   xmlns="http://www.w3.org/2000/svg"
   xmlns:sodipodi="http://sodipodi.sourceforge.net/DTD/sodipodi-0.dtd"
   xmlns:inkscape="http://www.inkscape.org/namespaces/inkscape"
   width="359.37198mm"
   height="82.770805mm"
   viewBox="0 0 359.37198 82.770806"
   version="1.1"
   id="svg8"
   inkscape:version="0.92.3 (2405546, 2018-03-11)"
   sodipodi:docname="FabriqueDuLochAlgoric_logo_large.svg">
  <defs
     id="defs2" />
  <sodipodi:namedview
     id="base"
     pagecolor="#ffffff"
     bordercolor="#666666"
     borderopacity="1.0"
     inkscape:pageopacity="0.0"
     inkscape:pageshadow="2"
     inkscape:zoom="0.50505934"
     inkscape:cx="1023.7316"
     inkscape:cy="246.11589"
     inkscape:document-units="mm"
     inkscape:current-layer="layer1"
     showgrid="false"
     inkscape:window-width="1920"
     inkscape:window-height="986"
     inkscape:window-x="-11"
     inkscape:window-y="-11"
     inkscape:window-maximized="1"
     fit-margin-top="0"
     fit-margin-left="0"
     fit-margin-right="0"
     fit-margin-bottom="0" />
  <metadata
     id="metadata5">
    <rdf:RDF>
      <cc:Work
         rdf:about="">
        <dc:format>image/svg+xml</dc:format>
        <dc:type
           rdf:resource="http://purl.org/dc/dcmitype/StillImage" />
        <dc:title></dc:title>
      </cc:Work>
    </rdf:RDF>
  </metadata>
  <g
     inkscape:label="Layer 1"
     inkscape:groupmode="layer"
     id="layer1"
     transform="translate(91.201561,-76.267113)">
    <g
       id="g20"
       transform="matrix(0.42430476,0,0,0.42430476,-291.96252,-188.82558)">
      <g
         id="g12">
        <g
           id="g10">
          <path
             inkscape:connector-curvature="0"
             id="path8"
             d="m 667.6,667.9 c -0.2,-0.5 0,-1 -0.2,-1.4 -0.3,-1 -1.1,-1.6 -1.6,-2.4 -0.3,-0.5 -0.5,-1.1 -0.8,-1.7 -0.3,-0.5 -0.6,-0.8 -0.8,-1.1 -0.5,-0.6 -1.7,-1.1 -2.1,-1.7 -0.3,-0.6 0.2,-1.4 0.3,-1.9 0.3,-1 0.6,-2.5 0.3,-3.7 -0.6,-2.4 -1.6,-4.8 -2.9,-6.5 -0.2,-0.2 -0.3,-0.3 -0.5,-0.5 -0.3,-0.5 -0.6,-0.8 -1.1,-1.1 -0.3,-0.3 -0.8,-0.5 -1.1,-1 -0.3,-0.5 -0.6,-1.1 -1.1,-1.6 -0.5,-0.6 -1.3,-1 -1.9,-1.4 -0.5,-0.3 -0.8,-0.6 -1.3,-1 -0.6,-0.3 -1.3,-0.3 -1.9,-0.6 -0.5,-0.2 -1.1,-0.3 -1.6,-0.5 -0.8,-0.2 -1.4,-0.3 -2.1,-0.5 -0.5,-0.2 -1.6,-0.6 -2.2,-0.5 -0.6,0.2 -1.1,0.3 -1.9,0.5 -0.3,0 -0.6,0 -0.8,-0.2 -0.5,-0.2 -0.8,-0.2 -1.4,-0.2 -0.8,0 -1.7,0.2 -2.4,-0.2 -0.5,-0.3 -0.6,-0.6 -1.1,-1 -0.6,-0.5 -1.1,-1 -1.6,-1.6 -0.2,-0.3 -0.3,-0.5 -0.5,-0.8 -0.5,-0.6 -1.4,-1 -2.1,-1.4 -0.5,-0.3 -1,-1 -1.4,-1.4 -0.5,-0.3 -1.3,-0.5 -1.9,-0.8 -0.5,-0.2 -0.8,-0.5 -1.1,-0.8 -0.5,-0.3 -1,-0.5 -1.4,-0.5 -0.3,0 -0.6,0 -1,-0.2 -1,-0.2 -2.5,-0.3 -3.5,0 -0.8,0.2 -1.7,-0.2 -2.5,0 -0.6,0.2 -1.1,0.5 -1.7,0.6 -0.5,0.2 -1.1,0.2 -1.6,0.3 -0.6,0.3 -1.3,0.6 -1.9,1 -0.8,0.2 -1.4,0.5 -2.2,0.6 -0.8,0.3 -1.9,1 -2.5,1.4 -0.5,0.3 -1.1,1.4 -2.2,1.1 -0.8,-0.2 -1.4,-0.8 -2.1,-1.3 -0.6,-0.5 -1.3,-1 -1.9,-1.3 -0.5,-0.3 -1.1,-0.5 -1.6,-0.8 -0.5,-0.2 -1.1,-0.5 -1.6,-0.8 -0.5,-0.2 -1.1,-0.3 -1.7,-0.5 -1.7,-0.6 -3.8,-0.8 -6.2,-0.8 -0.3,0.2 -1.7,0 -2.2,0.2 -0.8,0.2 -1.6,0.3 -2.2,0.8 -1.1,0.6 -2.1,1.6 -3.2,2.4 -0.8,0.6 -1.9,1 -2.5,1.6 -0.8,0.8 -0.5,1.7 -1.9,2.1 -0.8,0.2 -1.6,-0.3 -2.1,-0.5 -0.8,-0.3 -1.7,-0.3 -2.5,-0.6 -0.6,-0.2 -1.1,-0.5 -1.7,-0.6 -0.6,0 -1.1,0 -1.7,0 -1,-0.3 -2.1,-0.3 -3.2,-0.5 -0.5,0 -1,0 -1.6,0.2 -0.8,0 -1.6,-0.2 -2.2,0 -1,0.3 -1.7,0.8 -2.7,1.1 -0.6,0.3 -1.3,0.3 -1.9,0.6 -0.8,0.3 -1.4,0.8 -2.1,1.1 -0.5,0.3 -1.1,0.5 -1.6,0.8 -0.3,0.2 -0.8,0.5 -1.1,0.8 l -0.6,0.6 c -0.2,0.2 -0.5,0.3 -0.6,0.5 -0.8,1.1 -1.4,2.4 -2.1,3.7 -0.6,1.1 -0.6,2.9 -1.1,4.1 -0.2,0.6 -0.3,1.1 -0.8,1.4 -0.3,0.2 -0.8,0.3 -1.1,0.5 -1.3,0.5 -2.7,0.8 -3.8,1.6 -0.6,0.5 -1.1,1.1 -1.7,1.4 -1.3,0.8 -2.9,1.3 -3.8,2.5 -0.3,0.3 -0.3,0.6 -0.6,1 -0.3,0.5 -0.8,1 -1,1.4 -0.3,0.6 -0.6,1.3 -1,1.9 -0.3,0.6 -0.8,1.3 -1.1,1.9 -0.3,0.6 -0.3,1.4 -0.5,2.1 -0.3,1.1 -0.6,2.5 -0.3,3.8 1.1,3.8 2.7,7.1 5.4,9.2 0.3,0.3 0.6,0.8 1.1,1.1 1,0.6 1.9,1.4 3,1.9 0.6,0.3 1.6,0.5 1.7,1.1 0.2,0.3 -0.2,1.9 -0.3,2.4 0,0.5 0,1 0,1.4 -0.3,1.3 -0.3,2.7 -0.6,4.1 -0.2,0.5 0,2.1 0.2,2.4 0.2,0.5 0,0.6 0.2,1.1 0.3,0.8 0.8,1.6 1.1,2.2 0.5,1 1,1.9 1.4,2.7 1.1,1.4 2.5,2.5 4.1,3.5 0.6,0.5 1.4,1 2.2,1.4 0.5,0.2 1,0.3 1.6,0.5 0.6,0.2 1.3,0.5 1.9,0.6 1,0.2 2.7,0.2 3.8,0.2 0.5,0 1.1,-0.2 1.4,0.2 0.8,0.3 1.3,1.3 1.7,1.9 0.3,0.5 0.8,1 1.1,1.4 0.6,1 1.4,1.7 2.4,2.4 0.6,0.5 1.4,0.8 2.2,1.3 0.6,0.3 1.1,0.8 1.7,1.1 0.5,0.3 1.1,0.5 1.3,1 0.3,0.5 -0.3,1.1 -0.6,1.3 -1.1,1 -2.4,1.6 -3.7,2.4 -2.2,1.4 -4.6,2.7 -6.7,4.1 -1.1,0.8 -2.1,1.9 -3.2,2.7 -1.7,1.1 -4.3,1.3 -4.9,3.5 -0.2,0.6 0.2,1.4 0.3,1.9 0.2,0.6 0.3,1.4 0.5,2.2 0.2,0.6 0,1.4 -0.2,1.7 -0.2,0.8 -0.3,1.4 -0.5,2.2 -0.2,0.5 0,1.3 0.2,1.6 v 0.6 0.3 c -0.2,0.8 -0.2,1.7 -0.3,2.5 0,0.5 0,0.8 0,1.3 -0.2,0.6 0,1.4 -0.2,2.1 -0.3,1.3 -0.2,2.7 0,4 v 2.1 c 0.2,0.8 0.2,2.2 0,3.2 -0.2,0.5 0.2,1.7 0.3,2.1 0,0.2 0,0.3 0,0.5 v 0.5 c -0.2,0.5 -0.3,1.3 -0.2,1.9 0.2,0.6 -0.2,1.4 0,2.1 0.3,1.3 0.2,2.7 0.5,4 v 1 c 0,2.1 -1.1,3.5 -0.6,5.7 v 0.8 c 0.2,1 0,2.1 0,3 v 1 c 0.2,0.8 -0.2,1.9 0.2,2.7 0.2,1 0.5,1.9 0.5,3.3 0,1.3 -1.1,3 -0.3,4.3 0.6,1.1 2.7,1.9 4,2.4 0.5,0.2 0.8,0.5 1.3,0.6 0.5,0.2 0.8,0.2 1.3,0.3 0.3,0.2 0.6,0.3 1,0.5 0.5,0.2 1.1,0.3 1.6,0.6 1,0.6 1.9,1.3 2.9,1.7 0.6,0.2 1.1,0.3 1.7,0.6 0.5,0.2 1,0.5 1.3,0.8 0.3,0.2 0.5,0.6 0.8,0.8 0.5,0.3 1.1,0.6 1.6,1 0.5,0.3 1,0.6 1.6,1 0.8,0.3 1.9,0.3 2.9,0.5 1,0.2 1.9,0.3 2.7,0.8 0.8,0.3 1.6,1 2.4,1.4 1.1,0.5 2.2,1 3.2,1.6 0.5,0.3 1.1,0.5 1.7,0.8 0.8,0.5 1.6,1.3 2.5,1.6 0.8,0.3 1.7,0.6 2.5,0.8 0.5,0.2 1,0.6 1.3,0.8 0.6,0.5 1.4,0.8 2.2,1.1 0.6,0.3 1.4,0.3 2.2,0.5 0.8,0.2 1.4,0.5 2.2,0.8 0.5,0.2 1,0.5 1.4,0.8 0.3,0.2 0.6,0.3 0.8,0.5 0.5,0.3 0.8,1 1.1,1.4 0.3,0.5 0.8,0.8 1.3,1.1 0.2,0.2 0.5,0.5 0.6,0.6 0.6,0.5 1.3,1 2.1,1.1 0.8,0.2 1.9,0 2.5,-0.2 1.4,-0.3 2.2,-0.8 3.3,-1.4 0.3,-0.2 0.6,-0.3 1,-0.5 0.6,-0.5 1,-1 1.6,-1.4 1.1,-0.8 2.4,-1.6 3.7,-2.4 0.8,-0.5 1.4,-1.1 2.1,-1.6 1.6,-1 3.2,-1.9 4.6,-3 1,-0.6 1.6,-1.7 2.5,-2.5 1.7,-1.3 3.5,-2.9 4.8,-4.6 0.2,-0.3 0.6,-0.5 0.8,-0.8 1.1,-1.4 2.4,-2.5 4,-3.5 1.4,-1 3,-1.6 4.3,-2.5 0.5,-0.3 1,-1 1.4,-1.4 0.2,-0.2 0.3,-0.3 0.3,-0.5 0.8,-0.5 1.4,-1.3 2.1,-1.9 0.3,-0.5 0.8,-1 1.1,-1.4 0.3,-0.3 0.5,-0.6 0.8,-1 0.5,-0.5 1.1,-0.6 1.7,-1 0.6,-0.3 1,-0.8 1.6,-1.3 0.5,-0.3 1.1,-0.8 1.4,-1.3 0.2,-0.3 0.6,-1.7 0.5,-2.4 -0.2,-0.6 -0.2,-1.3 -0.2,-1.9 0.2,-1.7 0,-3.7 -0.3,-5.2 -0.2,-0.8 0.3,-1.7 0.2,-2.5 0,-0.2 0,-0.6 -0.2,-0.8 -0.2,-0.5 -0.3,-1.1 -0.2,-1.7 0.2,-0.6 0,-1.4 0.2,-2.1 v -0.6 c 0.5,-2.1 0.5,-4.8 0.5,-7.3 0,-1.6 0,-3.2 -0.2,-4.4 -0.2,-0.5 0,-1.1 0.2,-1.6 0.2,-0.8 0,-1.7 0.3,-2.5 0.2,-0.3 0.3,-1.1 0.2,-1.6 -0.2,-0.6 -0.2,-1.3 -0.3,-1.7 -0.2,-0.5 -0.3,-1.1 -0.5,-1.6 -0.2,-0.6 0,-1.1 -0.2,-1.7 -0.2,-1 -0.3,-1.9 -0.3,-2.9 0,-0.8 0,-1.6 0,-2.5 0,-0.3 0.2,-1.1 0.2,-1.4 -0.2,-1.1 -0.2,-3.2 0,-4.1 0.2,-1 -0.3,-2.1 -0.2,-3 0.2,-0.6 0.2,-1.3 0.2,-1.9 v -0.8 c 0.3,-1.1 0.2,-2.7 -0.3,-3.7 -0.3,-1 -1.1,-1.6 -1.9,-2.1 -0.3,-0.2 -0.5,-0.5 -0.6,-0.6 -0.8,-0.6 -1.9,-1.4 -2.9,-1.7 -1.3,-0.5 -2.5,-0.8 -4,-1.1 -1.9,-0.5 -4.9,-0.6 -6.2,-1.7 0,-0.5 0.2,-0.8 0.3,-1.1 0.2,-0.5 0.2,-0.8 0.5,-1.1 0.3,-0.5 1,-0.8 1.3,-1.1 0.8,-0.6 1.3,-2.2 2.1,-2.5 0.5,-0.2 1.1,0 1.6,0 0.6,0 1.3,-0.2 1.7,-0.2 1.6,-0.3 3.3,-0.6 4.9,-1 0.8,-0.2 1.4,-0.3 2.2,-0.6 1.1,-0.5 1.9,-1.1 3,-1.6 1.1,-0.5 2.2,-1 2.9,-1.9 1.1,-1.6 1.3,-4.1 2.2,-5.9 0.3,-0.6 0.6,-1.3 1,-1.7 0.2,-0.3 0.5,-0.5 0.6,-0.6 0.3,-0.5 0.6,-1 0.8,-1.6 0.3,-1.1 0.3,-3 -0.2,-4 -0.2,-0.5 -1.1,-1.4 -0.8,-2.2 0.3,-1 1.7,-1.6 2.2,-2.4 0.3,-0.5 0.5,-1.1 0.6,-1.7 0.2,-0.5 0,-1 0.3,-1.4 0.2,-0.3 0.3,-0.8 0.5,-1.1 0.2,-0.5 0.2,-1 0.3,-1.6 0.3,-0.8 0.5,-1.7 0.6,-2.7 0.6,-1.6 1.3,-2.9 0.8,-4.6 z m -62.1,80.3 c 0,1 0,1.9 -0.2,2.9 -0.2,0.5 0,1 -0.2,1.3 v 1.9 c 0,1 0,2.2 -0.2,3.2 v 1.9 c 0,0.3 0,0.8 -0.2,1.1 -0.2,0.6 -0.3,1.4 -0.3,2.2 0,0.6 0,1.3 0.2,1.9 -0.3,1.3 -0.2,2.5 -0.2,4 0,1.1 -0.2,2.4 0.2,3.3 0.2,0.5 0.2,1 0.3,1.3 v 2.4 c 0.2,1 0.5,2.4 0.2,3.5 0,0.8 0,1.4 0,2.2 -0.2,0.6 0,1.3 -0.2,1.9 -0.2,0.6 -0.3,1.3 -0.3,1.9 0,0.3 0,0.8 -0.2,1.1 -0.2,0.6 -0.2,1.3 -0.3,1.9 -0.2,0.5 0,1.4 0.2,1.9 0,0.3 0,0.8 0,1.1 0.2,0.8 0.3,1.7 0.5,2.5 0,1.1 0,2.4 0,3.5 0.2,0.8 0.2,2.2 0,3 -0.2,0.6 -0.2,1.4 -0.6,1.7 -0.6,0.5 -1.7,0 -2.4,-0.3 -1.3,-0.6 -2.7,-1.3 -4,-1.9 -1,-0.5 -1.9,-0.6 -2.9,-1.1 -0.8,-0.5 -1.4,-1 -2.2,-1.4 -0.5,-0.3 -1,-0.5 -1.4,-0.6 -0.3,-0.2 -0.8,-0.5 -1.1,-0.6 -1.3,-0.5 -2.5,-1 -3.7,-1.4 -1.1,-0.5 -1.9,-1.3 -3,-1.7 -1,-0.3 -2.1,-0.6 -3,-1 -0.8,-0.3 -1.6,-1 -2.4,-1.3 -1,-0.5 -2.1,-0.5 -3,-1 -0.6,-0.3 -1.3,-0.8 -1.7,-1.1 -0.8,-0.5 -1.6,-1 -2.4,-1.4 -0.6,-0.3 -1.3,-0.6 -1.9,-0.8 -0.6,-0.2 -1.3,-0.3 -1.9,-0.5 -0.6,-0.3 -1.3,-0.6 -1.9,-1 -0.5,-0.3 -1.3,-0.5 -1.6,-1.1 -0.2,-0.5 -0.2,-1.1 0,-1.6 0.2,-0.6 0,-1.7 -0.2,-2.2 0,-0.5 0,-0.8 0,-1.3 -0.2,-0.6 0,-1.4 -0.2,-2.1 -0.2,-0.8 -0.3,-1.4 -0.6,-2.4 -0.2,-0.6 0.2,-1.6 0.2,-2.2 0,-0.5 0,-1.1 0,-1.6 0,-0.3 -0.2,-1.1 0,-1.4 0.2,-0.5 0,-1.3 0.2,-1.9 0.3,-1.3 0.2,-3.2 -0.2,-4.3 -0.2,-0.6 0,-1.3 0.2,-1.6 0.2,-0.5 0,-1.4 -0.2,-1.9 -0.2,-0.6 -0.2,-1.3 -0.3,-1.9 v -0.8 c -0.3,-1.7 -0.3,-4.1 0.2,-5.9 0,-0.8 0,-1.4 -0.2,-2.2 0.3,-1.1 0.2,-2.9 0.2,-4.1 0,-0.5 0,-1 0,-1.4 0,-0.3 0,-0.6 0,-1 0.2,-1.1 0.3,-2.2 0.5,-3.2 0.3,-1.3 0,-2.9 0.3,-4.1 0.2,-0.6 0,-1.3 0.3,-1.6 0.2,-0.2 0.3,-0.2 0.5,-0.3 1.1,0 1.7,0.3 2.4,0.6 0.6,0.3 1.3,0.3 1.7,0.6 0.6,0.3 1.3,0.8 1.9,1.1 0.5,0.3 1.1,0.5 1.6,0.8 0.6,0.3 1.3,0.6 1.7,0.8 1,0.3 1.9,0.5 2.9,0.8 1,0.3 1.9,0.6 2.9,1 0.5,0.2 0.8,0.2 1.3,0.3 1.1,0.3 2.5,0.6 3.7,1.1 0.8,0.2 1.4,0.3 2.1,0.5 1.4,0.5 2.7,1.1 4.1,1.7 0.6,0.3 1.1,0.3 1.7,0.6 1.1,0.5 2.2,1.1 3.3,1.6 0.8,0.3 1.6,0.5 2.2,0.6 1,0.3 1.9,0.8 2.9,1.1 0.6,0.3 1.4,0.3 1.9,0.6 0.8,0.3 2.2,0.5 2.5,1.4 0.5,-0.9 0.3,-0.1 0.3,0.4 z m -3.8,-26.7 c 0.5,-1 1.7,-2.2 2.7,-2.7 0.2,-0.2 0.5,-0.3 0.8,-0.3 0.2,0 0.3,0 0.5,-0.2 1.3,0 1.7,0.5 2.5,1 0.6,0.3 1.3,0.6 1.9,1 0.3,0.2 0.5,0.6 0.6,1 0.3,0.3 0.8,0.6 1,1.1 0.2,0.5 -0.2,1.1 -0.3,1.4 -0.5,1.3 -0.8,2.4 -1.9,2.9 -0.3,0.2 -0.6,0 -1,0.2 -0.5,0.2 -1,0.3 -1.6,0.5 -0.6,0.2 -1.1,-0.2 -1.6,-0.3 -0.3,-0.2 -0.6,-0.2 -1,-0.3 -0.3,-0.2 -0.6,-0.3 -1,-0.5 -0.3,-0.2 -0.6,-0.2 -1,-0.5 -0.3,-0.2 -0.5,-0.6 -0.6,-1 -0.1,-0.6 -0.4,-2.2 0,-3.3 z m 5.6,18.9 c -1.4,-0.5 -2.2,-1.4 -2.5,-3 -0.2,-0.8 0,-2.1 0.5,-2.4 0.6,-0.5 1.4,-0.6 2.2,-1 0.5,-0.2 1.3,0 1.6,-0.2 0.6,0 1.1,0.2 1.4,0.3 0.2,0.2 0.3,0.3 0.5,0.5 0.8,0.5 1.6,1.3 1.3,2.7 0,0.2 -0.2,0.5 -0.2,0.8 -0.5,1.7 -2.8,3 -4.8,2.3 z m 33.2,-13.8 c 1.1,-0.6 2.1,-1.6 3,-2.2 0.6,-0.3 1.3,-0.6 1.9,-0.8 0.3,-0.2 0.8,-0.2 1.1,-0.3 0.2,0 0.5,0 0.6,0.2 0.3,0.2 0.5,1.1 0.5,1.7 -0.3,1.1 -0.2,2.7 -0.2,4 v 1.9 c 0.2,0.5 0,1 0.2,1.4 0.3,1.1 0.2,2.4 0.2,3.8 v 2.5 c 0.2,0.8 0.2,1.6 0.3,2.5 v 1.3 c 0.2,0.5 0,1.3 0,1.7 -0.2,0.5 0,0.8 -0.2,1.3 0,0.5 0,1 0,1.6 0,1.3 0.2,2.4 0.2,3.7 0,1 0,2.1 -0.2,2.9 0,0.6 0,1.1 0,1.7 -0.2,0.3 -0.3,1.6 -0.2,2.1 0.2,0.8 0.5,1.4 0.6,2.1 0.2,0.6 0.3,1.4 0.3,2.1 0.2,0.5 -0.2,2.1 -0.2,2.5 0,0.3 0,0.6 0,0.8 -0.2,0.5 0,1 0,1.4 -0.2,0.5 0,1.3 0,1.9 0,1.1 0.2,2.4 0,3.3 -0.2,0.8 0.2,1.6 -0.2,2.4 -0.6,1.4 -2.1,3 -3.2,4 -0.2,0.2 -0.3,0.3 -0.3,0.5 -0.5,0.3 -0.8,0.8 -1.1,1.1 -0.2,0.2 -0.5,0.3 -0.5,0.5 -0.3,0.3 -0.5,0.6 -0.6,1 -0.2,0.3 -0.5,0.5 -0.8,0.8 -0.2,0.2 -0.3,0.3 -0.5,0.5 -0.2,0.2 -0.3,0.3 -0.6,0.5 -0.6,0.6 -1.3,1.4 -2.1,2.1 -1,0.6 -1.9,1.3 -2.9,1.9 -0.5,0.3 -1,0.8 -1.6,1.3 -0.8,0.6 -1.6,1 -2.4,1.6 -0.8,0.6 -1.6,1.6 -2.2,2.4 -0.2,0.2 -0.5,0.5 -0.6,0.6 -0.6,0.5 -1.3,1.1 -2.1,1.6 -0.5,0.3 -0.8,1.1 -1.3,1.4 -0.6,0.5 -1.1,0.8 -1.7,1.3 -0.8,0.5 -1.3,1.3 -2.1,1.7 -0.6,0.5 -1.4,1 -2.2,1.4 -0.3,0.2 -0.8,0.3 -1.1,0.5 -0.5,0.3 -0.8,1 -1.4,1.3 -0.3,0.2 -0.5,0.3 -0.8,0.6 -1.1,0.8 -1.9,1.7 -3.2,2.4 -0.5,0.2 -0.8,0.5 -1.4,0.5 -0.8,-0.8 -0.5,-1.6 -0.8,-2.7 v -1.3 c 0,-0.3 -0.2,-1.1 -0.2,-1.4 0.2,-0.3 0.2,-1.4 0.2,-1.9 -0.2,-0.5 -0.2,-1.4 0,-1.9 0.2,-0.5 0.5,-1.1 0.3,-1.7 -0.2,-0.6 -0.3,-1.4 -0.5,-2.1 -0.2,-0.5 0,-1 -0.2,-1.4 -0.2,-0.6 -0.5,-1.7 -0.3,-2.5 0.3,-1.4 0.8,-2.7 1.1,-4.1 0.2,-0.5 0.5,-1.4 0.3,-2.1 -0.2,-0.8 -0.3,-1.6 -0.5,-2.4 V 779 c -0.2,-0.5 0,-1.1 -0.2,-1.6 -0.2,-0.8 0.2,-1.1 0,-1.7 -0.3,-1.4 -0.8,-2.5 -0.8,-4.4 v -1.4 c 0.2,-0.8 0.3,-1.4 0.5,-2.2 0,-0.8 -0.2,-1.6 -0.2,-2.5 0,-1.6 0,-3.2 -0.3,-4.6 -0.2,-0.6 0,-1.3 -0.2,-1.9 v -0.8 c -0.2,-1 0,-2.9 0.2,-3.5 v -2.7 c 0.2,-0.6 0,-1.3 0.2,-1.9 0.2,-0.8 0.3,-1.7 0.6,-2.4 0.6,-1.1 2.2,-1.3 3.3,-1.9 0.6,-0.3 1.1,-0.8 1.7,-1.1 1,-0.6 1.9,-1.1 2.9,-1.7 0.5,-0.3 0.8,-0.6 1.3,-1 0.5,-0.3 1,-0.5 1.4,-0.8 0.5,-0.3 0.8,-0.8 1.3,-1.1 1.1,-0.8 2.1,-1.4 3.2,-2.2 0.5,-0.3 0.8,-0.8 1.1,-1.1 0.5,-0.5 1.3,-0.6 1.7,-1 0.6,-0.5 1.3,-1 1.9,-1.4 0.5,-0.3 0.8,-0.8 1.1,-1.1 0.5,-0.5 1,-0.8 1.6,-1.3 0.3,-0.2 0.5,-0.5 0.8,-0.8 0.5,-0.3 1.1,-0.5 1.6,-0.8 0.6,-0.5 1.1,-1 1.7,-1.4 1.4,-1 2.2,-1.5 3.2,-2.1 z m 20.7,-55.9 c -0.2,0.5 -0.2,1.1 -0.3,1.6 -0.3,0.6 -0.5,1.4 -1,1.9 -0.2,0.3 -0.5,0.6 -0.8,1 -0.5,0.6 -0.6,1.4 -1.1,2.1 -0.3,0.5 -1.1,0.6 -1.7,1 -0.8,0.5 -1.4,1.1 -1.7,1.9 -0.2,0.3 -0.3,0.6 -0.3,1 -0.2,0.6 0,1.3 0.2,1.6 0.5,1.3 1.6,1.9 1.9,3.2 0.2,0.8 0.3,2.2 0,2.9 -0.2,0.5 -0.6,1.1 -1,1.6 -0.3,0.6 -0.5,1.3 -0.8,1.7 -0.2,0.3 -0.6,0.8 -0.8,1.1 -0.3,0.5 -0.6,1.6 -1.1,1.9 -1.4,1.1 -3.8,1.6 -5.9,2.1 -0.3,0 -0.5,0 -0.8,0 -0.6,0.2 -1.4,0.2 -2.1,0.3 -0.8,0.2 -1.6,0.5 -2.4,0.8 -0.6,0.3 -1.3,0.8 -1.9,1.1 -0.5,0.3 -0.8,1 -1.1,1.4 -0.3,0.4 -0.8,0.8 -1.3,1.1 -0.5,0.3 -0.6,0.8 -1.1,1.1 -1.4,1 -2.7,2.2 -4.3,2.9 -0.8,0.3 -1.9,0.3 -2.7,0.6 -0.5,0.2 -1,0.5 -1.4,0.6 -0.5,0.2 -2.2,0 -2.7,-0.2 -2.1,-0.5 -3.7,-1.4 -5.4,-2.2 -0.8,-0.3 -2.1,-0.8 -3.2,-0.5 -2.1,0.5 -3,2.7 -4.3,4.3 -0.3,0.3 -1.4,1 -1.9,1.1 -0.3,0.2 -0.6,0.2 -1,0.3 -0.5,0.2 -0.8,0.3 -1.3,0.6 -0.5,0.2 -1.7,0 -2.4,0 -2.9,0 -5.1,-1 -6.8,-2.2 -0.5,-0.3 -0.8,-0.8 -1.1,-1.1 -0.8,-0.6 -1.9,-1.1 -3,-1.4 -1.3,-0.3 -2.4,0.8 -3,1.1 -0.5,0.3 -1,0.3 -1.3,0.6 -0.3,0.2 -0.5,0.5 -0.8,0.6 -0.5,0.3 -1.1,0.6 -1.7,1.1 -0.6,0.5 -1.1,0.8 -1.9,1.1 -0.5,0.2 -1.3,0.2 -1.9,0.2 h -1.6 c -0.8,-0.2 -1.7,-0.2 -2.4,-0.5 -1.6,-0.5 -3,-1.4 -4.3,-2.2 -0.6,-0.5 -1.4,-1 -2.1,-1.6 -0.6,-0.8 -1.1,-1.9 -1.7,-2.7 -0.3,-0.5 -0.8,-0.8 -1.1,-1.1 -0.5,-0.6 -0.5,-1.3 -1.1,-1.7 -0.5,-0.3 -1,-0.3 -1.4,-0.5 -0.8,-0.3 -2.1,-1 -3.2,-0.6 -0.5,0.2 -0.8,0.2 -1.3,0.3 -0.5,0.2 -0.8,0 -1.3,0.2 -0.6,0.2 -1.6,0.5 -2.5,0.3 -1.9,-0.5 -4.1,-1.7 -5.1,-3 -1,-1.1 -1.3,-2.7 -1.7,-4.4 0,-0.3 0,-0.5 -0.2,-0.8 -0.2,-0.6 -0.2,-2.1 0,-2.7 v -0.8 c 0.2,-0.6 0.2,-1.3 0.5,-1.9 0.2,-0.3 0.3,-0.6 0.5,-1 0.3,-0.6 0.5,-1.4 0.8,-2.1 0.3,-0.6 0.6,-1.3 1,-1.9 0.2,-0.5 0.3,-1.3 0,-1.7 -0.2,-0.5 -0.8,-0.8 -1.1,-1.1 -0.8,-0.5 -1.7,-1 -2.7,-1.3 -0.5,-0.2 -1,-0.2 -1.4,-0.3 -0.3,0 -0.8,-0.2 -1.1,-0.2 -0.6,-0.2 -1.3,-0.2 -1.7,-0.5 -1.1,-0.5 -1.7,-1.3 -2.4,-2.1 -0.6,-1 -1.6,-1.7 -1.9,-3 -0.2,-0.5 0,-1.4 0.2,-1.9 0.2,-0.5 0,-0.8 0.2,-1.1 0.3,-1.1 0.3,-2.4 0.6,-3.5 0.5,-1.4 1.4,-2.2 2.2,-3.2 0.8,-1 1.4,-2.1 2.2,-3 0.3,-0.5 1,-0.8 1.4,-1.1 0.6,-0.5 1.3,-1.1 1.9,-1.6 0.6,-0.5 1.1,-1.1 1.9,-1.6 1.1,-0.6 3,1 3.8,-0.5 0.3,-0.5 0.2,-1.1 0.3,-1.7 0.3,-1.1 0.2,-2.2 0.5,-3 0.3,-0.6 0.8,-1.3 1.1,-1.7 0.3,-0.5 0.5,-1.1 0.6,-1.6 0.5,-0.8 1.1,-1.6 1.6,-2.2 0.2,-0.3 0.3,-0.5 0.6,-0.8 0.5,-0.3 1.3,-0.8 1.7,-1 0.3,-0.2 0.6,-0.2 1.1,-0.3 0.5,-0.2 1,-0.5 1.4,-0.6 1,-0.2 1.9,-0.5 2.7,-0.6 h 0.6 c 1,-0.2 2.1,0.2 2.7,0.5 0.5,0.2 1,0.3 1.4,0.5 1.4,0.6 2.7,1.7 4,2.7 0.8,0.6 2.4,2.2 4,1.7 1.3,-0.3 2.7,-0.8 3.3,-1.7 0.5,-0.6 0.6,-1.4 1,-2.2 0.3,-1 0.8,-1.7 1.4,-2.5 0.5,-0.6 1.4,-1.3 2.2,-1.7 0.8,-0.6 1.6,-1.4 2.7,-1.7 0.5,-0.2 1.4,0 1.9,-0.2 0.2,0 0.5,0 0.6,0 1,0 1.7,0 2.5,0.2 0.5,0.2 1.1,0 1.6,0.2 1.9,0.5 4.1,1.7 5.6,2.9 0.5,0.3 0.8,1 1.1,1.6 0.8,1.1 2.5,2.7 4,3 0.6,0.2 1.1,-0.2 1.4,-0.3 1.1,-0.6 1.6,-1.7 2.4,-2.7 0.5,-0.5 1.1,-0.8 1.4,-1.3 0.3,-0.5 0.8,-1 1.3,-1.4 0.5,-0.3 1.1,-0.5 1.7,-0.6 0.3,0 0.6,0 1,-0.2 1.1,-0.3 2.5,-0.8 4.1,-0.5 0.3,0 0.5,0 0.8,0 1,0.2 2.1,0.2 3,0.5 0.5,0.2 1,0.5 1.4,0.6 0.3,0.2 0.6,0.2 0.8,0.3 0.3,0.2 0.6,0.5 1,0.8 0.6,0.3 1.3,0.8 1.6,1.3 0.3,0.3 0.5,0.8 0.5,1.4 0.2,0.5 0,1.1 0.2,1.6 0.5,1 1.4,1.6 1.9,2.4 0.5,0.6 0.8,1.3 1.6,1.6 0.3,0.2 1,0.3 1.4,0.3 0.8,-0.2 1.6,0.2 2.2,-0.2 1,-0.3 1.7,-1 2.7,-1.4 1.9,-0.8 4.6,-0.8 6.7,-0.3 0.8,0.2 1.6,0.3 2.2,0.5 0.5,0.2 0.8,0.5 1.3,0.8 1.6,1.1 2.9,2.7 3.5,4.8 0.3,1 0.6,2.1 0.3,3 -0.2,0.5 -0.5,0.8 -0.6,1.1 -0.5,0.8 -0.8,1.6 -1.1,2.5 -0.2,0.5 -0.6,1.1 -0.5,1.7 0.2,0.6 0.5,1 0.8,1.4 1,1.4 2.2,1.4 4,2.2 1.1,0.5 2.1,1.4 2.7,2.5 0.6,1.5 -0.2,2.9 -0.6,4.3 z M 595.9,658 c 0.3,-0.3 0.5,-0.6 0.8,-1 0.3,0 0.6,0.5 0.8,0.6 0.5,0.3 1,0.6 1.6,0.8 1,0.3 1.6,-0.3 2.2,-0.5 0.3,0 1,0.2 1.3,0.2 1,0.2 2.1,-0.5 2.5,-1 0.6,0 1.3,0.5 1.9,0.6 0.3,0 0.6,0 1,0 0.6,-0.2 1,0 1.4,-0.3 0.8,-0.3 1.3,-1.7 1.3,-2.9 -0.3,0 -0.3,0.2 -0.5,0.3 -0.8,0.3 -1.4,0.6 -2.2,0.8 -0.3,0.2 -0.8,0.2 -1.1,0.2 -0.2,0 -0.3,-0.2 -0.3,-0.3 -0.2,-1 -0.2,-1.6 0.2,-2.5 0.2,-0.3 0.2,-1 -0.2,-1.1 -0.3,-0.5 -2.5,-0.2 -3,0 -1.1,0.3 -1.6,2.1 -2.2,2.9 -0.2,0.3 -1,1.1 -1.3,1.4 -0.2,0.2 -0.5,0.3 -0.6,0.5 -0.2,0 -0.2,0 -0.2,0 -0.3,-0.2 -0.5,-0.6 -0.5,-1.1 0.2,-0.6 0.5,-1.1 0.8,-1.6 1,-1.4 1.9,-3 2.4,-4.8 0.2,-0.3 0.2,-0.6 0.2,-1.1 0.2,-0.5 0.5,-1.7 0.3,-2.2 -0.2,-0.3 -0.3,-0.6 -0.5,-1 -0.8,-0.3 -1.3,-0.2 -2.1,0.2 -0.2,0.2 -0.6,0.2 -0.8,0.3 -0.3,0.3 -0.5,1 -0.6,1.4 -0.3,0.8 -0.6,1.7 -0.8,2.7 -0.2,0.6 0,1.3 -0.2,1.9 -0.2,0.6 -0.3,1.4 -0.5,2.2 0,0.5 0,1 -0.2,1.6 -0.3,1.1 -0.5,2.2 -1.3,2.9 0,-0.1 0.2,-0.1 0.4,-0.1 z m 7.9,-3.9 c 0.2,0 0.2,0 0.2,0 h 0.2 c 0.2,0.8 -0.3,1.4 -0.6,1.9 0,0.2 -0.2,0.3 -0.3,0.3 -0.2,0 -0.3,-0.2 -0.3,-0.2 -0.2,-0.3 0.5,-1.7 0.8,-2 z m -3.3,-7 c 0.2,-0.2 0.3,-0.3 0.5,-0.3 h 0.2 c 0.3,1.6 -0.3,2.2 -1,3.3 0,0.2 0,0.3 -0.2,0.5 0,0.2 -0.3,0.3 -0.3,0.6 0,0.2 0,0.3 -0.2,0.5 0,0.2 -0.2,0 -0.2,0.2 0,0 0,0 -0.2,0 v 0 c 0.1,-1.8 0.7,-3.8 1.4,-4.8 z m -32.4,23.3 c 0,-0.3 -0.2,-0.3 -0.3,-0.5 -0.2,-0.3 -0.2,-0.6 -0.5,-1 -0.2,-0.3 -0.5,-0.5 -0.6,-0.8 -0.5,0 -1,-0.2 -1.4,-0.2 -0.3,-0.2 -0.5,-0.2 -1,-0.2 0,-1 0,-2.1 0.5,-2.9 2.2,-0.5 4.4,-0.8 6.2,-1.9 0.5,-0.3 1.1,-0.6 1.4,-1.1 0.2,-0.3 -0.2,-1.4 -0.3,-1.7 -0.2,-0.2 -0.2,-0.2 -0.3,-0.2 -0.8,-0.3 -1.4,-0.2 -2.1,0.2 -1.1,0.5 -2.7,0.6 -4.1,1 -0.5,0 -1.1,0 -1.6,0.2 -0.6,0.2 -1.3,0.5 -1.9,0.6 -0.6,0.3 -1.1,0.3 -1.4,0.8 0.2,0.6 0.6,1.1 0.8,1.6 0.3,0.8 0,2.2 -0.3,2.9 -0.2,0.3 -0.3,0.5 -0.5,0.6 -0.2,0.2 -0.3,0.6 -0.5,0.8 -0.3,0.3 -1,0.3 -1.4,0.6 0,0.6 0.3,1.1 0.5,1.6 0.2,0.2 0.3,0.5 0.3,0.8 0,0.5 -0.3,1 -0.5,1.3 -0.2,0.5 -0.2,0.8 -0.2,1.1 -0.5,1.6 -0.2,3.3 1.7,3.3 0.2,-0.2 0.5,-0.3 0.6,-0.5 0.5,-0.6 0.8,-1.7 1,-2.7 0.2,-0.6 0.5,-2.4 1,-2.7 0.3,-0.3 1.1,-0.3 1.7,-0.3 h 0.8 c 0.6,-0.2 1.4,-0.2 1.9,-0.5 0.3,0 0.3,-0.2 0.5,-0.2 z m 34.4,8.3 c 0.2,0 0.3,0.2 0.5,0.2 l 0.2,-0.2 c 0.3,-0.2 1,0 1.1,-0.2 h 0.2 c 0.2,-1 -0.3,-1.6 -0.6,-2.2 -0.3,-0.5 -0.5,-1.1 -0.8,-1.6 -0.3,-0.6 -0.8,-1 -1,-1.7 1.1,-1 2.9,-1.4 3.5,-2.9 0.2,-0.6 0.5,-1.4 0.6,-2.1 0.2,-0.8 -0.3,-2.1 -0.5,-2.5 -0.2,-0.5 -0.2,-0.8 -0.5,-1.3 -0.2,-0.3 -0.5,-0.6 -0.8,-1 -1,-1 -2.1,-1.6 -4,-1.6 -0.3,0.2 -0.8,0.2 -1.1,0.3 -0.5,0.2 -1.9,1.1 -2.2,1.4 -0.5,0.6 -0.2,1.7 -0.5,2.7 -0.3,1.1 -0.3,2.2 -0.6,3.3 0,0.3 0,0.6 0,1 -0.2,0.8 -0.2,1.7 -0.5,2.4 0,0.3 0,0.5 -0.2,0.8 -0.2,0.6 -0.5,1.1 -0.6,1.6 -0.2,0.3 -0.2,0.8 -0.3,1.1 0,0.2 -0.3,0.6 -0.3,0.8 0,1 0.8,1.4 1.9,1.4 0.2,-0.2 0.2,-0.2 0.3,-0.3 0.3,-0.2 0.5,-0.5 0.8,-0.6 0.2,-0.6 0.3,-1.3 0.5,-1.9 0.2,-0.5 0,-1 0.3,-1.4 0.2,-0.3 0.5,-0.6 0.8,-1.1 0.5,0.2 1,0.8 1.3,1.3 0.5,0.6 1,1.1 1.4,1.9 0.3,0.5 0.3,1 0.6,1.4 0,0.7 0.4,0.8 0.5,1 z m -1.7,-8.9 v 0.2 c 0,0.2 -0.3,0.2 -0.3,0.2 -0.2,0 -0.2,0 -0.3,0 -0.2,-0.3 0,-1 0,-1.4 0,-0.5 0.2,-1.1 0.2,-1.6 0.2,-0.8 0,-1.4 0.3,-2.1 0.2,-0.3 0.6,-0.3 0.8,-0.5 1.4,0 1.7,1.4 1.4,2.7 -0.2,0.6 -0.8,1.1 -1.3,1.4 -0.2,0.3 -0.7,0.9 -0.8,1.1 z m -8.4,6.7 c 0.5,-0.6 1.1,-1.1 1.4,-1.9 0.5,-1.4 -0.5,-3.3 -1.1,-4.1 0.2,-0.2 0.5,-0.2 0.6,-0.3 0.6,-0.8 0.6,-1.9 0.5,-3 -0.2,-0.5 0,-1 -0.2,-1.3 -0.2,-0.3 -0.3,-0.5 -0.5,-0.6 -0.2,-0.3 -0.2,-0.8 -0.3,-1 -0.8,-1.3 -2.4,-2.2 -4.4,-2.2 -0.3,0.2 -0.6,0 -1,0.2 -0.6,0.2 -1.6,0.6 -2.1,1.1 -0.3,0.5 -0.5,1.9 -0.6,2.7 0,0.3 0,0.6 0.2,0.8 0,0.3 0,0.8 -0.2,1 -0.2,0.5 -0.3,1.1 -0.5,1.6 -0.2,0.3 -0.5,0.8 -0.6,1.1 -0.2,0.5 -0.2,1 -0.3,1.4 -0.2,0.5 -0.3,1 -0.5,1.4 0,0.3 0,0.8 -0.2,1.1 -0.2,0.5 -0.5,1.7 -0.2,2.4 0.3,0.8 1.1,1.1 1.6,1.7 0.3,0.3 0.5,0.6 0.8,1 1.1,0.8 3.8,0.3 4.8,-0.3 1.2,-0.9 2,-1.9 2.8,-2.8 z m -4,-11.5 c 0.3,-0.2 1,-0.2 1.4,-0.2 0.5,0.5 0.8,0.6 0.6,1.6 -0.8,0.8 -1.7,2.7 -3.3,2.5 0.2,-1.2 0.3,-3.4 1.3,-3.9 z m -1.1,11.6 c -0.2,0.2 -1.1,0.5 -1.6,0.3 -0.3,0 -0.3,-0.2 -0.5,-0.3 0,-0.8 0.2,-1.6 0.3,-2.2 0.2,-0.5 0,-1 0.3,-1.3 0.2,-0.2 0.3,-0.3 0.5,-0.3 h 0.8 c 0.2,0 0.5,0.2 0.8,0.2 0.3,0 1,-0.2 1.4,-0.2 0.5,0.2 0.6,0.5 1,0.8 0,0.5 -0.3,0.8 -0.5,1.1 -0.6,0.8 -1.4,1.4 -2.5,1.9 z m 40,2.1 c 0.3,0.2 0.6,0.2 1,0.3 0.5,0 0.5,-0.2 0.8,-0.3 0.2,0 0.3,0 0.3,-0.2 0,-0.2 -0.2,-0.6 -0.3,-0.8 -0.3,-0.5 -0.5,-1.1 -0.8,-1.6 -0.2,-0.2 -0.3,-0.6 -0.3,-1 0.2,-0.5 0.3,-1 0.6,-1.4 0.2,-0.3 0.2,-0.6 0.3,-1 0.2,-0.3 0.5,-0.6 0.6,-1 0.6,-1.6 0.2,-4.8 -0.6,-5.9 -0.5,-0.6 -1.4,-1.1 -2.2,-1.4 -0.5,-0.2 -1,-0.2 -1.3,-0.3 -0.8,-0.3 -1.6,-1 -2.7,-1 -0.2,0.2 -0.6,0.2 -0.8,0.3 -0.5,0.3 -1.1,0.8 -1.4,1.3 -0.2,0.2 -0.2,0.3 -0.3,0.5 -0.5,0.3 -1.1,0.6 -1.4,1.1 -0.2,0.3 -0.3,0.6 -0.5,1 -0.3,0.5 -0.8,1 -1,1.6 -0.3,0.6 -0.3,1.3 -0.5,2.1 0,0.2 -0.2,0.3 -0.2,0.5 0,0.3 0,0.8 -0.2,1.1 -0.2,1 0.6,2.1 1,2.5 1,1.4 2.4,2.2 4.3,2.9 0.5,0.2 1.7,0.5 2.4,0.3 0.5,-0.2 0.8,-0.5 1.1,-0.6 0.2,-0.2 0.5,-0.2 0.6,-0.3 0.5,0.3 1,1 1.5,1.3 z m -2.2,-6.5 c -0.8,0 -1.6,-0.8 -2.4,-0.5 -0.2,0 -0.3,0.3 -0.5,0.3 0,0.6 0.5,1.3 0.8,1.7 0.2,0.2 0.5,0.5 0.5,1 0,0.3 -0.3,0.3 -0.5,0.6 -0.5,0.6 -1.3,1.1 -2.2,0.6 -0.2,0 -0.3,-0.2 -0.5,-0.3 -0.6,-0.8 -0.5,-2.4 -0.3,-3.5 0.3,-1.3 0.6,-2.1 1.3,-3 0.2,-0.2 0.5,-0.5 0.6,-0.6 0.5,-0.6 0.8,-1.1 1.4,-1.6 0.2,-0.2 0.5,-0.3 0.6,-0.5 0.2,0 0.3,0 0.3,-0.2 1.7,0 2.4,1.7 2.1,3.2 -0.2,0.5 0,0.8 -0.2,1.1 -0.3,0.9 -0.6,1.2 -1,1.7 z m -15.3,-4.5 c -0.2,0.8 -0.2,1.7 -0.5,2.7 -0.2,0.8 -0.5,1.6 -0.6,2.4 -0.2,0.8 -0.2,2.4 0.2,3 0.3,0.8 1.9,1.9 2.9,1.1 0.2,-0.2 0.5,-0.3 0.5,-0.5 0.2,-0.2 0.2,-0.6 0.2,-1 -0.2,-0.5 -0.3,-1.3 -0.2,-1.9 0.2,-0.6 0.5,-1.1 0.6,-1.9 0.2,-1.3 0.2,-2.5 0.3,-4 0.5,-1.9 0.6,-4 -1.9,-4 -0.2,0.2 -0.5,0.2 -0.6,0.3 -0.5,0.6 -0.5,1.7 -0.6,2.7 -0.1,0.7 -0.1,0.8 -0.3,1.1 z m -39.7,6.9 c -0.3,0.5 -0.5,1 -0.8,1.4 -0.2,0.2 -0.3,0.5 -0.5,0.8 -0.2,0.3 -0.3,1 -0.5,1.3 0,0.3 0.2,0.5 0.3,0.6 0.3,0 0.5,0.2 0.8,0.2 0.6,0.2 1.3,-0.6 1.6,-1 0.3,-0.3 0.6,-0.8 0.8,-1.1 0.6,-1 1,-2.1 2.7,-1.7 0.6,0.2 1.4,-0.3 1.9,0.2 0.3,0.2 0.2,1.3 0.3,1.7 0.2,0.3 0.6,1.3 0.8,1.4 0.2,0.2 0.5,0.2 0.6,0.3 1,-0.2 1.1,-2.1 1.3,-2.9 0,-0.5 0,-1.1 0,-1.6 0,-0.3 0.2,-0.8 0.2,-1 0,-0.6 0,-1.1 0,-1.7 0.2,-0.5 0.2,-1 0.3,-1.4 0,-0.5 0,-1.1 0,-1.6 0.2,-0.5 0,-1.1 0,-1.6 0,-0.3 -0.2,-0.5 -0.2,-0.8 -0.2,-0.5 -1,-1.3 -1.4,-1.6 -0.3,-0.2 -0.8,-0.2 -1.3,-0.2 -0.2,0.2 -0.5,0.2 -0.6,0.3 -0.3,0.2 -0.5,1 -0.8,1.3 -0.2,0.3 -0.5,0.8 -0.6,1.1 -0.2,0.2 -0.3,0.3 -0.5,0.5 -0.2,0.3 -0.3,0.6 -0.5,1 -0.3,0.5 -0.6,0.8 -1,1.1 -0.8,1.3 -1.4,2.5 -2.2,3.7 0,0.5 -0.5,0.8 -0.7,1.3 z m 6.1,-4.2 c 0.2,-0.3 0.2,-0.6 0.3,-0.8 h 0.2 c 0.2,0 0.2,0 0.2,0 0.2,0.6 0.3,1.9 0,2.4 -0.3,0.2 -0.8,0.2 -1.3,0.2 -0.1,-0.7 0.3,-1.3 0.6,-1.8 z m 75.5,-5.2 c -0.3,-0.3 -1.3,-0.3 -1.7,-0.3 -1.3,-0.3 -2.7,-0.5 -4.3,-0.5 -0.3,0.2 -1.1,0 -1.4,0.3 -0.3,0.2 -0.3,0.5 -0.5,0.6 -0.2,0.5 -0.5,1.1 -0.6,1.7 0,0.2 0,0.3 0,0.6 -0.5,2.1 -1.1,3.8 -1.7,5.7 v 0.5 c 0,0.2 -0.2,0.5 -0.2,0.8 -0.3,1.1 0.3,2.4 0.8,2.9 0.5,0.3 1,0.6 1.6,0.8 0.5,0.2 1.3,0 1.7,-0.2 0.6,-0.2 1.3,0 1.9,-0.2 0.5,-0.2 1.7,-0.2 1.9,-0.3 0,0 0,-0.2 0.2,-0.3 0,-0.3 -0.2,-0.3 -0.3,-0.5 -0.2,-0.5 -0.3,-1.1 -0.8,-1.4 -0.8,-0.5 -2.5,-0.3 -3.3,-0.8 0,-1 -0.2,-1.4 0.5,-2.1 0,-0.2 0.2,-0.2 0.2,-0.3 0.3,-0.2 1,-0.2 1.4,0 h 0.6 c 0.8,0.2 1.6,0.2 2.2,-0.3 0,-1.1 -0.3,-1.6 -1.1,-1.9 -0.3,0 -0.5,-0.2 -0.8,-0.2 -0.5,-0.2 -1,-0.3 -1.4,-0.3 -0.2,-0.6 0.2,-1.9 0.5,-2.4 0,-0.2 0.2,-0.3 0.2,-0.5 0.8,-0.2 1.7,0 2.5,0.3 0.6,0 1.3,0 1.7,0 0.2,-0.2 0.5,-0.3 0.6,-0.5 0,-0.2 0.2,-0.3 0.2,-0.5 0,-0.3 -0.2,-0.3 -0.3,-0.6 -0.1,0.4 -0.1,0 -0.3,-0.1 z M 642,669 c 0.2,-0.5 -0.2,-0.8 -0.2,-1.1 0,-1.3 0.3,-1.6 -0.6,-2.2 -0.3,-0.2 -0.5,-0.3 -1.1,-0.3 -1,0.6 -1.3,1.6 -1.6,2.9 -0.2,0.5 -0.2,1 -0.3,1.4 -0.2,0.5 -0.5,1 -0.6,1.4 -0.2,0.5 -0.2,1 -0.3,1.3 -0.3,1 -1,1.6 -1.4,2.4 -0.3,0.3 -0.6,0.6 -1,1 -0.2,0 -0.2,0 -0.2,0 0,-0.5 0,-1 0,-1.4 0.2,-0.8 0.3,-1.6 0.5,-2.2 0,-0.3 0.2,-0.6 0.2,-1 0.3,-0.8 0.6,-1.7 0.8,-2.5 0.2,-0.5 0,-1.1 -0.2,-1.4 -0.5,-1 -1,-1.4 -2.2,-1.4 -0.6,1.4 -1,3.3 -1.4,4.9 -0.2,0.3 -0.2,0.8 -0.2,1.1 v 0.6 c -0.2,0.6 -0.2,2.2 0,2.7 0.5,1.9 1.4,3 3.3,3.3 1.3,0.3 2.2,-0.8 2.5,-1.4 0.3,-0.3 0.6,-0.6 0.8,-1.1 0.3,-0.5 0.3,-1 0.6,-1.4 0.2,-0.3 0.5,-0.6 0.8,-1 0.3,-0.5 0.5,-1 0.6,-1.4 0.2,-0.5 0.2,-1 0.3,-1.4 0.6,-0.5 0.8,-1.2 0.9,-1.8 z m -43.3,25.2 c -0.5,-0.3 -1.4,-0.2 -2.1,-0.2 h -0.8 c -0.3,0 -1,0.2 -1.3,0 -0.5,-0.2 -1.1,0 -1.6,-0.2 -0.3,0 -0.6,-0.2 -1.1,-0.2 v 0 0 c 0,-1 0.3,-1.6 0.5,-2.4 0,-0.3 0,-0.6 0.2,-1 0.2,-0.8 0.3,-1.7 0.6,-2.5 0.2,-0.5 0.6,-0.8 0.8,-1.1 0.2,-0.3 0.3,-0.8 0.5,-1.3 0.2,-0.3 0.3,-0.6 0.5,-1 0.5,-1.1 -0.2,-2.1 -1.1,-2.2 -0.2,0 -0.2,0 -0.3,0.2 -0.2,0.2 -0.3,0.3 -0.5,0.5 -0.2,0.3 -0.3,0.6 -0.5,1 -0.3,0.5 -0.6,1.1 -0.8,1.7 -0.3,1.1 -0.3,2.2 -0.8,3.2 -0.2,0.5 -0.5,0.8 -0.8,1.1 -0.2,0.3 -0.3,0.8 -0.5,1.3 -0.3,0.6 -0.5,1.3 -0.8,2.1 -0.2,0.2 -0.3,0.5 -0.2,1 0.2,0.6 0.5,1.4 1,1.7 0.5,0.3 1.1,0.5 1.7,0.6 h 0.6 c 0.6,0.2 1.3,0 1.9,0.2 h 1 c 0.5,0.2 1,0 1.4,0.2 1.3,0.3 2.9,0 3.7,-0.5 0,-0.2 0,-0.2 0.2,-0.2 0,-0.3 -0.3,-0.6 -0.5,-0.8 -0.4,-0.5 -0.6,-1 -0.9,-1.2 z m -14.6,-0.4 c -0.8,0.2 -1.7,0.6 -2.4,0.2 0,-0.2 -0.2,-0.5 -0.2,-0.8 0.3,-1 0.6,-1.9 1.1,-2.9 0.2,-0.3 0.2,-0.6 0.3,-1 0,-0.5 -0.2,-0.5 -0.3,-0.8 -1.6,-0.3 -1.6,0.8 -2.2,1.7 -0.3,0.5 -0.6,1 -1,1.4 -0.5,0.6 -1.1,1.1 -1.6,1.6 h -0.2 c 0,-1.6 0.6,-2.4 1,-3.5 0.2,-0.3 0,-1 -0.2,-1.1 -0.5,-0.3 -1.4,0 -1.7,0.3 -0.5,0.3 -0.6,1.4 -1,1.9 -0.3,0.5 -0.6,1.1 -1.1,1.4 -0.2,0.2 -0.5,0.3 -0.6,0.5 -0.2,0 -0.2,0 -0.3,0 -0.2,-0.2 0,-0.3 0,-0.6 0,-1 0.3,-1.4 0.6,-2.2 0.5,-1.6 1,-3.2 1.6,-4.6 0.2,-0.3 0.3,-0.6 0.5,-0.8 0.2,-0.3 0.3,-1 0.5,-1.3 0,-0.6 -0.3,-0.8 -1,-0.8 -0.3,0.2 -0.6,0.3 -0.8,0.6 -0.5,0.6 -0.5,1.4 -0.8,2.1 -0.5,1.1 -0.8,2.4 -1.6,3.3 -0.2,0.2 -0.5,0.2 -0.6,0.3 -0.5,0.2 -1.1,0.5 -1.6,0.6 -0.2,0 -0.3,0.2 -0.5,0.3 -0.5,0.2 -1,0.3 -1.3,0.6 -0.3,0.3 -0.6,0.8 -1,1.3 -0.2,0.3 -0.6,0.6 -0.8,1.1 -0.2,0.3 0,1 0.2,1.1 0.3,0.8 1.6,1.9 2.9,1.6 1,-0.3 1.3,-1.1 2.1,-1.6 0,0 0.6,0.3 0.8,0.3 0.8,0.3 1.7,0.6 2.9,0.3 0.5,0.5 1.6,1.1 2.7,0.8 0.5,-0.2 1,-0.5 1.4,-0.6 0.2,0.2 0.6,0.3 0.8,0.5 0.3,0.2 0.5,0.5 0.8,0.6 0.5,0.3 1.6,0.3 2.2,0.2 0.6,-0.3 1.1,-0.6 1.4,-1.3 0.2,-0.2 0.2,-0.8 0,-1 0,0.1 -0.8,0.3 -1,0.3 z M 570.6,692 c -0.5,0.6 -0.8,1.6 -1.7,1.7 0,0 0,0 -0.2,-0.2 -0.3,-0.3 0,-0.8 0.2,-1 0.5,-0.8 1.4,-1 2.1,-1.6 h 0.2 c -0.1,0.6 -0.4,0.8 -0.6,1.1 z m 64,-9 c -0.3,0.5 -0.5,1.1 -0.8,1.7 -0.3,0.6 -0.3,1.3 -0.5,1.9 -0.3,0.8 -0.6,1.6 -1,2.2 -0.3,0 -0.6,0.2 -1,0.2 -0.3,0 -0.6,-0.2 -1.1,-0.2 -0.2,-1.6 1.7,-4.3 -0.5,-5.1 -0.3,-0.2 -0.8,0 -1.1,0 -0.2,0.2 -0.5,0.3 -0.6,0.5 -0.2,0.2 -0.2,0.5 -0.3,0.8 -0.2,0.3 -0.3,0.8 -0.5,1.3 -0.2,0.8 -0.2,1.6 -0.3,2.2 -0.2,0.6 -0.5,1.3 -0.6,2.1 -0.3,0.8 -0.3,1.6 -0.5,2.2 -0.3,1 -1,2.5 0,3.2 0.2,0.2 0.5,0.2 0.6,0.2 0.2,0 0.6,0.3 1,0.2 0.3,-0.2 0.5,-0.5 0.6,-0.8 0.5,-1 0.5,-2.2 1,-3.2 0.2,-0.2 0.2,-0.5 0.3,-0.6 0.2,-0.3 1.1,-0.5 1.6,-0.3 0.2,0 0.5,0.2 0.6,0.3 0,0.8 0,1.6 -0.2,2.2 -0.2,0.5 -0.3,0.8 -0.5,1.1 -0.2,0.6 0.2,1.4 0.3,1.7 0.2,0.3 1,0.6 1.4,0.8 0.3,0.2 0.6,0.2 0.8,0.3 h 0.5 c 0.2,0 0.2,-0.5 0.3,-0.6 0.5,-0.8 0.3,-2.2 0.6,-3.2 0.3,-1.3 0.6,-2.7 1,-4 0.5,-1.6 1.1,-2.9 1.6,-4.6 0.5,-1.7 -1.3,-2.9 -2.7,-2.5 z m -15.4,5.5 c 0.6,-1 1.7,-1.3 2.7,-1.9 0.5,-0.3 0.8,-0.8 1.3,-1.3 -0.2,-1.3 -1.3,-1.6 -2.7,-1.6 -0.2,0.2 -0.3,0 -0.5,0.2 -0.2,0.2 -0.3,0.3 -0.5,0.3 -0.3,0.2 -0.6,0.3 -1,0.5 -0.3,0.2 -0.5,0.5 -0.8,0.8 -1.3,1 -2.1,2.2 -2.4,4 v 0.8 c -0.2,0.5 -0.2,1.1 -0.3,1.7 v 0.3 c 0,0.2 -0.2,0.5 -0.2,0.6 0.5,1.7 1.6,3 3.2,3.7 1,0.3 2.5,1 3.8,0.5 0.3,-0.2 0.6,-0.5 1,-0.8 0.2,-0.6 -0.2,-1 -0.3,-1.4 -0.2,-0.2 0,-0.3 -0.2,-0.5 -0.2,0 -0.2,0.2 -0.3,0.2 -0.3,0.2 -0.6,0 -0.8,0.2 -0.8,0.2 -1.9,-0.2 -2.4,-0.5 -1,-0.6 -0.5,-2.2 -0.3,-3.3 0.2,-1.1 0.2,-1.7 0.7,-2.5 z m -5.9,-0.6 c -0.2,-0.5 0,-0.8 -0.2,-1.3 -0.2,-0.6 -0.8,-1 -1,-1.6 -0.8,-0.2 -1.6,-0.5 -2.7,-0.5 -0.6,0.3 -2.7,-0.3 -3.3,0.2 -0.6,0.3 -1.1,1 -1.6,1.6 -0.2,0.2 -0.5,0.3 -0.8,0.6 -0.2,0.2 -0.2,0.3 -0.3,0.5 -0.2,0.2 -0.3,0.2 -0.5,0.3 -0.5,0.6 -0.6,1.6 -1,2.4 -0.2,0.2 -0.3,0.5 -0.3,0.8 -0.2,0.6 0,1.6 0.2,2.1 0.5,1.4 1.1,2.5 2.2,3.3 0.6,0.3 2.2,1 3,0.6 0.8,-0.3 1.6,-0.8 2.2,-1.3 0.5,-0.3 1.1,-0.5 1.6,-0.8 0.5,-0.5 0.8,-1.1 1.1,-1.6 0.3,-0.5 0.8,-0.8 1,-1.3 0.2,-0.5 0.6,-2.2 0.5,-3 0.2,-0.2 0.1,-0.7 -0.1,-1 z m -3.3,1.7 c -0.5,1.4 -1.6,3.2 -2.5,4 -0.6,0.5 -1.1,1 -2.1,1 -0.5,-0.6 -1.1,-1.6 -0.8,-2.9 0.2,-0.3 0.3,-0.8 0.5,-1.1 0.2,-0.3 0.2,-0.6 0.3,-1 0.3,-0.3 1,-0.8 1.1,-1.1 0.3,-0.5 0.6,-1 1.1,-1.3 0.5,-0.3 1,-0.5 1.4,-0.8 1,0.2 1.3,2.1 1,3.2 z m -7.5,-1.9 v 0 0 0 c 0,-0.1 0,0 0,0 z" />
        </g>
      </g>
      <g
         id="g18">
        <g
           id="g16">
          <path
             style="fill:#f96d5a"
             inkscape:connector-curvature="0"
             id="path14"
             d="m 605.5,748.2 c 0,1 0,1.9 -0.2,2.9 -0.2,0.5 0,1 -0.2,1.3 v 1.9 c 0,1 0,2.2 -0.2,3.2 v 1.9 c 0,0.3 0,0.8 -0.2,1.1 -0.2,0.6 -0.3,1.4 -0.3,2.2 0,0.6 0,1.3 0.2,1.9 -0.3,1.3 -0.2,2.5 -0.2,4 0,1.1 -0.2,2.4 0.2,3.3 0.2,0.5 0.2,1 0.3,1.3 v 2.4 c 0.2,1 0.5,2.4 0.2,3.5 0,0.8 0,1.4 0,2.2 -0.2,0.6 0,1.3 -0.2,1.9 -0.2,0.6 -0.3,1.3 -0.3,1.9 0,0.3 0,0.8 -0.2,1.1 -0.2,0.6 -0.2,1.3 -0.3,1.9 -0.2,0.5 0,1.4 0.2,1.9 0,0.3 0,0.8 0,1.1 0.2,0.8 0.3,1.7 0.5,2.5 0,1.1 0,2.4 0,3.5 0.2,0.8 0.2,2.2 0,3 -0.2,0.6 -0.2,1.4 -0.6,1.7 -0.6,0.5 -1.7,0 -2.4,-0.3 -1.3,-0.6 -2.7,-1.3 -4,-1.9 -1,-0.5 -1.9,-0.6 -2.9,-1.1 -0.8,-0.5 -1.4,-1 -2.2,-1.4 -0.5,-0.3 -1,-0.5 -1.4,-0.6 -0.3,-0.2 -0.8,-0.5 -1.1,-0.6 -1.3,-0.5 -2.5,-1 -3.7,-1.4 -1.1,-0.5 -1.9,-1.3 -3,-1.7 -1,-0.3 -2.1,-0.6 -3,-1 -0.8,-0.3 -1.6,-1 -2.4,-1.3 -1,-0.5 -2.1,-0.5 -3,-1 -0.6,-0.3 -1.3,-0.8 -1.7,-1.1 -0.8,-0.5 -1.6,-1 -2.4,-1.4 -0.6,-0.3 -1.3,-0.6 -1.9,-0.8 -0.6,-0.2 -1.3,-0.3 -1.9,-0.5 -0.6,-0.3 -1.3,-0.6 -1.9,-1 -0.5,-0.3 -1.3,-0.5 -1.6,-1.1 -0.2,-0.5 -0.2,-1.1 0,-1.6 0.2,-0.6 0,-1.7 -0.2,-2.2 0,-0.5 0,-0.8 0,-1.3 -0.2,-0.6 0,-1.4 -0.2,-2.1 -0.2,-0.8 -0.3,-1.4 -0.6,-2.4 -0.2,-0.6 0.2,-1.6 0.2,-2.2 0,-0.5 0,-1.1 0,-1.6 0,-0.3 -0.2,-1.1 0,-1.4 0.2,-0.5 0,-1.3 0.2,-1.9 0.3,-1.3 0.2,-3.2 -0.2,-4.3 -0.2,-0.6 0,-1.3 0.2,-1.6 0.2,-0.5 0,-1.4 -0.2,-1.9 -0.2,-0.6 -0.2,-1.3 -0.3,-1.9 v -0.8 c -0.3,-1.7 -0.3,-4.1 0.2,-5.9 0,-0.8 0,-1.4 -0.2,-2.2 0.3,-1.1 0.2,-2.9 0.2,-4.1 0,-0.5 0,-1 0,-1.4 0,-0.3 0,-0.6 0,-1 0.2,-1.1 0.3,-2.2 0.5,-3.2 0.3,-1.3 0,-2.9 0.3,-4.1 0.2,-0.6 0,-1.3 0.3,-1.6 0.2,-0.2 0.3,-0.2 0.5,-0.3 1.1,0 1.7,0.3 2.4,0.6 0.6,0.3 1.3,0.3 1.7,0.6 0.6,0.3 1.3,0.8 1.9,1.1 0.5,0.3 1.1,0.5 1.6,0.8 0.6,0.3 1.3,0.6 1.7,0.8 1,0.3 1.9,0.5 2.9,0.8 1,0.3 1.9,0.6 2.9,1 0.5,0.2 0.8,0.2 1.3,0.3 1.1,0.3 2.5,0.6 3.7,1.1 0.8,0.2 1.4,0.3 2.1,0.5 1.4,0.5 2.7,1.1 4.1,1.7 0.6,0.3 1.1,0.3 1.7,0.6 1.1,0.5 2.2,1.1 3.3,1.6 0.8,0.3 1.6,0.5 2.2,0.6 1,0.3 1.9,0.8 2.9,1.1 0.6,0.3 1.4,0.3 1.9,0.6 0.8,0.3 2.2,0.5 2.5,1.4 0.5,-0.9 0.3,-0.1 0.3,0.4 z m 35,-21.6 c 1.1,-0.6 2.1,-1.6 3,-2.2 0.6,-0.3 1.3,-0.6 1.9,-0.8 0.3,-0.2 0.8,-0.2 1.1,-0.3 0.2,0 0.5,0 0.6,0.2 0.3,0.2 0.5,1.1 0.5,1.7 -0.3,1.1 -0.2,2.7 -0.2,4 v 1.9 c 0.2,0.5 0,1 0.2,1.4 0.3,1.1 0.2,2.4 0.2,3.8 v 2.5 c 0.2,0.8 0.2,1.6 0.3,2.5 v 1.3 c 0.2,0.5 0,1.3 0,1.7 -0.2,0.5 0,0.8 -0.2,1.3 0,0.5 0,1 0,1.6 0,1.3 0.2,2.4 0.2,3.7 0,1 0,2.1 -0.2,2.9 0,0.6 0,1.1 0,1.7 -0.2,0.3 -0.3,1.6 -0.2,2.1 0.2,0.8 0.5,1.4 0.6,2.1 0.2,0.6 0.3,1.4 0.3,2.1 0.2,0.5 -0.2,2.1 -0.2,2.5 0,0.3 0,0.6 0,0.8 -0.2,0.5 0,1 0,1.4 -0.2,0.5 0,1.3 0,1.9 0,1.1 0.2,2.4 0,3.3 -0.2,0.8 0.2,1.6 -0.2,2.4 -0.6,1.4 -2.1,3 -3.2,4 -0.2,0.2 -0.3,0.3 -0.3,0.5 -0.5,0.3 -0.8,0.8 -1.1,1.1 -0.2,0.2 -0.5,0.3 -0.5,0.5 -0.3,0.3 -0.5,0.6 -0.6,1 -0.2,0.3 -0.5,0.5 -0.8,0.8 -0.2,0.2 -0.3,0.3 -0.5,0.5 -0.2,0.2 -0.3,0.3 -0.6,0.5 -0.6,0.6 -1.3,1.4 -2.1,2.1 -1,0.6 -1.9,1.3 -2.9,1.9 -0.5,0.3 -1,0.8 -1.6,1.3 -0.8,0.6 -1.6,1 -2.4,1.6 -0.8,0.6 -1.6,1.6 -2.2,2.4 -0.2,0.2 -0.5,0.5 -0.6,0.6 -0.6,0.5 -1.3,1.1 -2.1,1.6 -0.5,0.3 -0.8,1.1 -1.3,1.4 -0.6,0.5 -1.1,0.8 -1.7,1.3 -0.8,0.5 -1.3,1.3 -2.1,1.7 -0.6,0.5 -1.4,1 -2.2,1.4 -0.3,0.2 -0.8,0.3 -1.1,0.5 -0.5,0.3 -0.8,1 -1.4,1.3 -0.3,0.2 -0.5,0.3 -0.8,0.6 -1.1,0.8 -1.9,1.7 -3.2,2.4 -0.5,0.2 -0.8,0.5 -1.4,0.5 -0.8,-0.8 -0.5,-1.6 -0.8,-2.7 v -1.3 c 0,-0.3 -0.2,-1.1 -0.2,-1.4 0.2,-0.3 0.2,-1.4 0.2,-1.9 -0.2,-0.5 -0.2,-1.4 0,-1.9 0.2,-0.5 0.5,-1.1 0.3,-1.7 -0.2,-0.6 -0.3,-1.4 -0.5,-2.1 -0.2,-0.5 0,-1 -0.2,-1.4 -0.2,-0.6 -0.5,-1.7 -0.3,-2.5 0.3,-1.4 0.8,-2.7 1.1,-4.1 0.2,-0.5 0.5,-1.4 0.3,-2.1 -0.2,-0.8 -0.3,-1.6 -0.5,-2.4 V 779 c -0.2,-0.5 0,-1.1 -0.2,-1.6 -0.2,-0.8 0.2,-1.1 0,-1.7 -0.3,-1.4 -0.8,-2.5 -0.8,-4.4 v -1.4 c 0.2,-0.8 0.3,-1.4 0.5,-2.2 0,-0.8 -0.2,-1.6 -0.2,-2.5 0,-1.6 0,-3.2 -0.3,-4.6 -0.2,-0.6 0,-1.3 -0.2,-1.9 v -0.8 c -0.2,-1 0,-2.9 0.2,-3.5 v -2.7 c 0.2,-0.6 0,-1.3 0.2,-1.9 0.2,-0.8 0.3,-1.7 0.6,-2.4 0.6,-1.1 2.2,-1.3 3.3,-1.9 0.6,-0.3 1.1,-0.8 1.7,-1.1 1,-0.6 1.9,-1.1 2.9,-1.7 0.5,-0.3 0.8,-0.6 1.3,-1 0.5,-0.3 1,-0.5 1.4,-0.8 0.5,-0.3 0.8,-0.8 1.3,-1.1 1.1,-0.8 2.1,-1.4 3.2,-2.2 0.5,-0.3 0.8,-0.8 1.1,-1.1 0.5,-0.5 1.3,-0.6 1.7,-1 0.6,-0.5 1.3,-1 1.9,-1.4 0.5,-0.3 0.8,-0.8 1.1,-1.1 0.5,-0.5 1,-0.8 1.6,-1.3 0.3,-0.2 0.5,-0.5 0.8,-0.8 0.5,-0.3 1.1,-0.5 1.6,-0.8 0.6,-0.5 1.1,-1 1.7,-1.4 1.4,-1 2.2,-1.5 3.2,-2.1 z"
             class="st4" />
        </g>
      </g>
    </g>
    <g
       id="Calque_4"
       transform="matrix(0.28580781,0,0,0.28580781,-14.813126,27.130218)">
      <g
         id="g51">
        <text
           transform="translate(261.9265,365.1952)"
           class="st12 st13 st14"
           id="text29"
           style="font-size:175.77890015px;font-family:CinzelDecorative-Regular;letter-spacing:33">lgoric</text>
        <g
           id="g49">
          <path
             d="m 195.6,329.4 c 4,3.7 7.6,7.6 10.8,12.1 4.1,5.9 7.5,12.2 9.8,19 l 0.5,1.4 -1.4,0.3 c -4.6,1 -9.4,1.4 -14.1,1.4 -2.1,0 -4.3,-0.2 -6.3,-0.3 -2.9,3.3 -6,6.3 -9.5,9 10.8,2.1 21.7,2.1 32.5,-0.2 3.8,-0.8 7.6,-1.7 11.3,-3.2 -0.8,-3.8 -1.7,-7.6 -3,-11.3 -3.8,-11.4 -10.3,-22.2 -18.6,-30.9 -4.1,-4.3 -8.7,-8.3 -13.6,-11.7 -5.4,-3.8 -11.4,-7 -17.6,-9.4 -0.6,3.5 -1.6,6.8 -2.5,10.2 7.9,3.2 15.2,7.7 21.7,13.6 z"
             id="path31"
             inkscape:connector-curvature="0" />
          <path
             d="m 195.5,332.7 c -2.2,10.3 -7.8,19.8 -15.7,27 -4.1,3.7 -8.7,6.7 -13.8,8.9 -6.3,2.7 -13,4.1 -20,4.1 -6.8,0 -13.3,-1.3 -19.5,-4 -4.4,2.1 -9,3.7 -13.8,4.8 10,6.5 21.4,9.8 33.3,9.8 12.9,0 25.2,-4 35.7,-11.4 4.3,-3.2 8.3,-6.8 11.7,-11 4.6,-5.6 8.3,-11.9 10.6,-18.7 -2.5,-3.3 -5.3,-6.5 -8.5,-9.5 z"
             id="path33"
             inkscape:connector-curvature="0" />
          <path
             d="m 136.6,347.6 c -7,5.4 -14.8,9.5 -23.2,12.2 -5.1,1.6 -10.3,2.7 -15.6,3.2 -2.4,0.2 -4.6,0.3 -7,0.3 -4.8,0 -9.4,-0.5 -14.1,-1.4 l -1.4,-0.3 0.5,-1.4 c 2.2,-6.7 5.4,-12.9 9.5,-18.6 -1.4,-4.3 -2.4,-8.6 -2.9,-13.2 -7.5,8.4 -13.2,18.3 -16.7,28.9 -1.3,3.7 -2.2,7.5 -2.9,11.3 3.7,1.3 7.5,2.4 11.3,3.2 11.7,2.4 23.5,2.2 35.2,-0.3 5.7,-1.3 11.3,-3.2 16.7,-5.6 6.5,-3 12.5,-6.7 18.1,-11.1 -2.6,-2.1 -5.1,-4.5 -7.5,-7.2 z"
             id="path35"
             inkscape:connector-curvature="0" />
          <path
             d="m 145,337.8 c -3,-3.5 -5.9,-7.5 -8.3,-11.6 -2.2,-3.8 -4,-7.8 -5.6,-11.9 -3.5,0.6 -6.8,1.7 -10,2.9 1.7,4.9 4,9.7 6.5,14.3 2.9,4.9 6.2,9.5 9.8,13.6 2.9,3.2 5.9,6.2 9.2,8.9 5.7,4.8 11.9,8.7 18.7,11.9 4,-1.7 7.6,-4 11,-6.7 -7.9,-2.9 -15.4,-6.8 -22.1,-12.2 -3.2,-2.7 -6.3,-5.9 -9.2,-9.2 z"
             id="path37"
             inkscape:connector-curvature="0" />
          <path
             d="m 96,330.5 c -0.5,-2.7 -0.8,-5.7 -0.8,-8.6 0,-2.7 0.2,-5.6 0.6,-8.1 2.1,-12.4 8.4,-23.5 18.3,-31.4 0.3,-4.9 1.3,-9.7 2.4,-14.4 -19.5,10.6 -32.1,31.6 -32.1,54 0,1.4 0,2.7 0.2,3.8 0.3,5.4 1.4,10.8 3.2,16 2.4,6.8 5.9,13.2 10.5,18.7 4.3,-0.5 8.4,-1.3 12.4,-2.4 C 103,350.6 97.9,340.9 96,330.5 Z"
             id="path39"
             inkscape:connector-curvature="0" />
          <path
             d="m 131.8,311.6 c 8.9,-1.7 18.4,-1.7 27.3,-0.2 1.1,-3.3 1.9,-6.7 2.5,-10 -10.6,-1.9 -21.9,-1.9 -32.4,0.2 -4.1,0.8 -8.3,2.1 -12.2,3.5 -6.5,2.4 -12.9,5.6 -18.6,9.5 -0.3,2.4 -0.5,4.8 -0.5,7.1 0,2.1 0.2,4 0.3,5.9 6.3,-5.4 13.3,-9.5 21.1,-12.5 4,-1.5 8.3,-2.6 12.5,-3.5 z"
             id="path41"
             inkscape:connector-curvature="0" />
          <path
             d="m 164.2,300.6 c -0.6,4.3 -1.7,8.6 -3.2,12.7 -1.6,4.4 -3.5,8.9 -5.9,13 -2.2,3.8 -4.8,7.5 -7.6,10.8 2.4,2.5 4.8,5.1 7.5,7.1 3.3,-4 6.3,-8.3 9,-12.7 2.9,-4.9 5.2,-10 7,-15.4 1.4,-4 2.4,-8.1 3.2,-12.4 1.1,-6.5 1.6,-13.3 1.1,-20 -3.5,-2.7 -7.1,-4.8 -11.1,-6.3 1.3,7.7 1.3,15.5 0,23.2 z"
             id="path43"
             inkscape:connector-curvature="0" />
          <path
             d="m 172.9,266.5 c -4.8,-2.4 -10,-4.1 -15.2,-5.1 -7.5,-1.4 -15.4,-1.4 -22.7,-0.2 -1.6,4 -2.9,7.9 -3.8,12.1 10.3,-3.2 21.7,-2.9 31.9,0.6 5.1,1.9 10,4.4 14.3,7.9 l -0.8,1 v 0 l 0.8,-1 c 9.8,7.8 16.5,18.9 18.6,31.3 4.1,2.9 7.9,6.2 11.4,9.7 0,-0.3 0,-0.6 0,-1 0.1,-23.7 -13.2,-44.8 -34.5,-55.3 z"
             id="path45"
             inkscape:connector-curvature="0" />
          <path
             d="m 128.2,275.1 c 1,-5.2 2.5,-10.3 4.8,-15.2 3,-7.1 7.1,-13.6 12.2,-19.4 l 1,-1.1 1,1.1 c 4.9,5.6 8.9,11.9 11.9,18.7 4.3,0.8 8.6,2.2 12.5,4 -3.5,-11.1 -9.4,-21.4 -17,-30 -2.5,-2.9 -5.4,-5.7 -8.4,-8.3 -3,2.5 -5.7,5.2 -8.3,8.3 -8.3,9.4 -14.4,20.6 -17.9,32.7 -1.6,5.6 -2.7,11.4 -3,17.3 -0.5,6.3 -0.2,12.9 0.8,19.2 3.3,-1.1 6.7,-2.1 10,-2.9 -1.4,-8.2 -1.2,-16.3 0.4,-24.4 z"
             id="path47"
             inkscape:connector-curvature="0" />
        </g>
      </g>
    </g>
  </g>
</svg>
