<svg width="263" height="203" xmlns="http://www.w3.org/2000/svg" xmlns:xlink="http://www.w3.org/1999/xlink" overflow="hidden"><defs><clipPath id="clip0"><rect x="602" y="197" width="263" height="203"/></clipPath><clipPath id="clip1"><rect x="603" y="304" width="96" height="96"/></clipPath><clipPath id="clip2"><rect x="603" y="304" width="96" height="96"/></clipPath><clipPath id="clip3"><rect x="603" y="304" width="96" height="96"/></clipPath><clipPath id="clip4"><rect x="768" y="304" width="96" height="96"/></clipPath><clipPath id="clip5"><rect x="768" y="304" width="96" height="96"/></clipPath><clipPath id="clip6"><rect x="768" y="304" width="96" height="96"/></clipPath><clipPath id="clip7"><rect x="685" y="197" width="96" height="96"/></clipPath><clipPath id="clip8"><rect x="685" y="197" width="96" height="96"/></clipPath><clipPath id="clip9"><rect x="685" y="197" width="96" height="96"/></clipPath></defs><g clip-path="url(#clip0)" transform="translate(-602 -197)"><g clip-path="url(#clip1)"><g clip-path="url(#clip2)"><g clip-path="url(#clip3)"><path d="M633 323.5 618 332.6 651 352.6 666 343.5Z"/><path d="M684 332.6 651 312.6 636.8 321.2 669.8 341.2Z"/><path d="M618 340.6 618 372.6 649 391.4 649 356.1 618 337.3Z"/><path d="M664 361.6 657 365.6 657 358.6 664 354.6 664 361.6ZM653 356.1 653 391.4 684 372.6 684 337.3 653 356.1Z"/></g></g></g><g clip-path="url(#clip4)"><g clip-path="url(#clip5)"><g clip-path="url(#clip6)"><path d="M791 386 791 318 816 318 816 339 841 339 841 386 791 386ZM822 320.5 834.5 333 822 333 822 320.5ZM822 312 785 312 785 392 847 392 847 334 822 312Z"/><path d="M797 349 835 349 835 353 797 353Z"/><path d="M797 341 810 341 810 345 797 345Z"/><path d="M797 357 835 357 835 361 797 361Z"/><path d="M797 365 835 365 835 369 797 369Z"/><path d="M797 373 835 373 835 377 797 377Z"/></g></g></g><g clip-path="url(#clip7)"><g clip-path="url(#clip8)"><g clip-path="url(#clip9)"><path d="M733 257C726.4 257 721 251.6 721 245 721 238.4 726.4 233 733 233 739.6 233 745 238.4 745 245 745 251.6 739.6 257 733 257ZM760 237.5C759.4 235.3 758.5 233.2 757.4 231.3L759.9 223.8 754.2 218.1 746.7 220.6C744.7 219.5 742.6 218.6 740.4 218L737 211 729 211 725.5 218C723.3 218.6 721.2 219.5 719.3 220.6L711.8 218.1 706.1 223.8 708.6 231.3C707.5 233.3 706.6 235.4 706 237.6L699 241 699 249 706 252.5C706.6 254.7 707.5 256.8 708.6 258.7L706.1 266.2 711.8 271.9 719.3 269.4C721.3 270.5 723.4 271.4 725.6 272L729.1 279 737.1 279 740.6 272C742.8 271.4 744.9 270.5 746.8 269.4L754.3 271.9 760 266.2 757.5 258.7C758.6 256.7 759.5 254.6 760.1 252.4L767.1 248.9 767.1 240.9 760 237.5Z"/></g></g></g><path d="M2-5.4549e-06 2.00008 28.4927-1.99992 28.4927-2 5.4549e-06ZM-6 1.63647e-05C-6.00001-3.31369-3.31372-5.99999-1.63647e-05-6 3.31369-6.00001 5.99999-3.31372 6-1.63647e-05 6.00001 3.31369 3.31372 5.99999 1.63647e-05 6-3.31369 6.00001-5.99999 3.31372-6 1.63647e-05ZM6.00007 26.4927 0.000104987 38.4927-5.99993 26.4927Z" fill="#FFC000" transform="matrix(1 0 0 -1 733 331.493)"/><path d="M733.996 330.266 759.953 345.177 757.961 348.646 732.004 333.734ZM730.011 337.203C727.138 335.552 726.147 331.885 727.797 329.011 729.448 326.138 733.115 325.147 735.989 326.797 738.862 328.448 739.853 332.115 738.203 334.989 736.552 337.862 732.885 338.853 730.011 337.203ZM760.211 340.712 767.628 351.893 754.234 351.118Z" fill="#FFC000"/><path d="M0.996252-1.73421 26.9529 13.1771 24.9604 16.6456-0.996252 1.73421ZM-2.98876 5.20263C-5.86209 3.55198-6.85327-0.115425-5.20263-2.98876-3.55198-5.86209 0.115425-6.85327 2.98876-5.20263 5.86209-3.55198 6.85327 0.115425 5.20263 2.98876 3.55198 5.86209-0.115425 6.85327-2.98876 5.20263ZM27.2112 8.71246 34.6277 19.8926 21.2337 19.1177Z" fill="#FFC000" transform="matrix(-1 0 0 1 733.628 332)"/></g></svg>