<svg width="1280" height="720" xmlns="http://www.w3.org/2000/svg" xmlns:xlink="http://www.w3.org/1999/xlink" overflow="hidden"><defs><clipPath id="clip0"><path d="M0 0 1280 0 1280 720 0 720Z" fill-rule="evenodd" clip-rule="evenodd"/></clipPath></defs><g clip-path="url(#clip0)"><rect x="0" y="0" width="1280" height="720" fill="#FFFFFF"/><path d="M202.188 215.5C204.776 215.5 206.875 213.401 206.875 210.813L202.188 210.813C203.482 210.813 204.531 209.763 204.531 208.469 204.531 207.174 203.482 206.125 202.188 206.125L206.875 206.125 206.875 133.188C206.875 130.599 208.974 128.5 211.563 128.5L267.813 128.5C270.401 128.5 272.5 130.599 272.5 133.188 272.5 135.776 270.401 137.875 267.813 137.875L263.125 137.875 263.125 210.813C263.125 213.401 261.026 215.5 258.438 215.5ZM216.25 133.188C216.25 135.776 214.151 137.875 211.563 137.875 210.268 137.875 209.219 136.826 209.219 135.531 209.219 134.237 210.268 133.187 211.563 133.187Z" fill="#FFFFFF" fill-rule="evenodd"/><path d="M216.25 133.188C216.25 135.776 214.151 137.875 211.563 137.875 210.268 137.875 209.219 136.826 209.219 135.531 209.219 134.237 210.268 133.187 211.563 133.187ZM206.875 210.813C206.875 213.401 204.776 215.5 202.188 215.5 199.599 215.5 197.5 213.401 197.5 210.813 197.5 208.224 199.599 206.125 202.188 206.125 203.482 206.125 204.531 207.174 204.531 208.469 204.531 209.763 203.482 210.813 202.188 210.813Z" fill="#CDCDCD" fill-rule="evenodd"/><path d="M206.875 206.125 206.875 133.188C206.875 130.599 208.974 128.5 211.563 128.5L267.813 128.5C270.401 128.5 272.5 130.599 272.5 133.188 272.5 135.776 270.401 137.875 267.813 137.875L263.125 137.875 263.125 210.813C263.125 213.401 261.026 215.5 258.438 215.5L202.188 215.5C199.599 215.5 197.5 213.401 197.5 210.813 197.5 208.224 199.599 206.125 202.188 206.125ZM211.563 128.5C214.151 128.5 216.25 130.599 216.25 133.188 216.25 135.776 214.151 137.875 211.563 137.875 210.268 137.875 209.219 136.826 209.219 135.531 209.219 134.237 210.268 133.187 211.563 133.187L216.25 133.188M263.125 137.875 211.563 137.875M202.188 206.125C203.482 206.125 204.531 207.174 204.531 208.469 204.531 209.763 203.482 210.813 202.188 210.813L206.875 210.813M202.188 215.5C204.776 215.5 206.875 213.401 206.875 210.813L206.875 206.125" stroke="#0D0D0D" stroke-miterlimit="8" fill="none" fill-rule="evenodd"/><text font-family="Calibri,Calibri_MSFontService,sans-serif" font-weight="400" font-size="19" transform="translate(154.081 107)">i<tspan x="4.33334" y="0">nstallations.yml</tspan></text><path d="M320 280C309.507 280 301 278.582 301 276.833L301 186.166C301 184.418 292.493 183 282 183 292.493 183 301 181.582 301 179.833L301 89.1665C301 87.4177 309.507 86 320 86" stroke="#000000" stroke-width="2" stroke-miterlimit="8" fill="none" fill-rule="evenodd"/><path d="M310.687 99.4553 431.493 99.4553 431.493 128.455 310.687 128.455Z" fill="#00FF00" fill-rule="evenodd"/><path d="M310.687 128.455 321.687 128.455 321.687 157.455 310.687 157.455Z" fill="#FFFF00" fill-rule="evenodd"/><path d="M321.687 128.455 438.82 128.455 438.82 157.455 321.687 157.455Z" fill="#FFFF00" fill-rule="evenodd"/><path d="M438.82 128.455 450.82 128.455 450.82 157.455 438.82 157.455Z" fill="#FFFF00" fill-rule="evenodd"/><path d="M450.82 128.455 581.427 128.455 581.427 157.455 450.82 157.455Z" fill="#FFFF00" fill-rule="evenodd"/><path d="M310.687 157.455 321.687 157.455 321.687 186.455 310.687 186.455Z" fill="#FFFF00" fill-rule="evenodd"/><path d="M321.687 157.455 352.52 157.455 352.52 186.455 321.687 186.455Z" fill="#FFFF00" fill-rule="evenodd"/><path d="M352.52 157.455 364.52 157.455 364.52 186.455 352.52 186.455Z" fill="#FFFF00" fill-rule="evenodd"/><path d="M364.52 157.455 425.353 157.455 425.353 186.455 364.52 186.455Z" fill="#FFFF00" fill-rule="evenodd"/><path d="M310.687 186.455 468.427 186.455 468.427 215.455 310.687 215.455Z" fill="#00FF00" fill-rule="evenodd"/><path d="M468.427 186.455 474.927 186.455 474.927 215.455 468.427 215.455Z" fill="#00FF00" fill-rule="evenodd"/><path d="M310.687 215.455 321.687 215.455 321.687 244.455 310.687 244.455Z" fill="#FFFF00" fill-rule="evenodd"/><path d="M321.687 215.455 438.82 215.455 438.82 244.455 321.687 244.455Z" fill="#FFFF00" fill-rule="evenodd"/><path d="M438.82 215.455 450.82 215.455 450.82 244.455 438.82 244.455Z" fill="#FFFF00" fill-rule="evenodd"/><path d="M450.82 215.455 581.66 215.455 581.66 244.455 450.82 244.455Z" fill="#FFFF00" fill-rule="evenodd"/><path d="M310.687 243.455 321.687 243.455 321.687 272.455 310.687 272.455Z" fill="#FFFF00" fill-rule="evenodd"/><path d="M321.687 243.455 352.52 243.455 352.52 272.455 321.687 272.455Z" fill="#FFFF00" fill-rule="evenodd"/><path d="M352.52 243.455 425.353 243.455 425.353 272.455 352.52 272.455Z" fill="#FFFF00" fill-rule="evenodd"/><text font-family="Calibri,Calibri_MSFontService,sans-serif" font-weight="400" font-size="24" transform="translate(310.687 122)">livenetimg1:<tspan x="288" y="0">-</tspan><tspan x="295.333" y="0">&gt; image </tspan>name<tspan x="0" y="29">  </tspan>image_class: LivenetImage<tspan x="287.24" y="29">-</tspan><tspan x="294.573" y="29">&gt; image class</tspan><tspan x="0" y="58">  </tspan>pid<tspan x="41.8333" y="58">: </tspan>31251<tspan x="288" y="58">-</tspan><tspan x="295.333" y="58">&gt; process </tspan>that<tspan x="437.893" y="58">install</tspan><tspan x="500.833" y="58">image </tspan><tspan x="565.633" y="58">pid</tspan><tspan x="0" y="87">mystagingimage</tspan><tspan x="157.74" y="87">:</tspan><tspan x="0" y="116">  </tspan>image_class: StagingImage<tspan x="0" y="144">  </tspan>pid<tspan x="41.8333" y="144">: 31391</tspan></text></g></svg>