<svg width="1112" height="492" xmlns="http://www.w3.org/2000/svg" xmlns:xlink="http://www.w3.org/1999/xlink" overflow="hidden"><defs><filter id="fx0" x="-10%" y="-10%" width="120%" height="120%" filterUnits="userSpaceOnUse" primitiveUnits="userSpaceOnUse"><feComponentTransfer color-interpolation-filters="sRGB"><feFuncR type="discrete" tableValues="0 0"/><feFuncG type="discrete" tableValues="0 0"/><feFuncB type="discrete" tableValues="0 0"/><feFuncA type="linear" slope="0.4" intercept="0"/></feComponentTransfer><feGaussianBlur stdDeviation="1.77778 1.77778"/></filter><filter id="fx1" x="-10%" y="-10%" width="120%" height="120%" filterUnits="userSpaceOnUse" primitiveUnits="userSpaceOnUse"><feComponentTransfer color-interpolation-filters="sRGB"><feFuncR type="discrete" tableValues="0 0"/><feFuncG type="discrete" tableValues="0 0"/><feFuncB type="discrete" tableValues="0 0"/><feFuncA type="linear" slope="0.4" intercept="0"/></feComponentTransfer><feGaussianBlur stdDeviation="1.77778 1.77778"/></filter><clipPath id="clip2"><rect x="-37" y="187" width="1112" height="492"/></clipPath><clipPath id="clip3"><rect x="-18" y="265" width="96" height="96"/></clipPath><clipPath id="clip4"><rect x="-18" y="265" width="96" height="96"/></clipPath><clipPath id="clip5"><rect x="-18" y="265" width="96" height="96"/></clipPath><clipPath id="clip6"><rect x="-26" y="458" width="96" height="96"/></clipPath><clipPath id="clip7"><rect x="-26" y="458" width="96" height="96"/></clipPath><clipPath id="clip8"><rect x="-26" y="458" width="96" height="96"/></clipPath><clipPath id="clip9"><rect x="3" y="455" width="96" height="96"/></clipPath><clipPath id="clip10"><rect x="3" y="455" width="96" height="96"/></clipPath><clipPath id="clip11"><rect x="3" y="455" width="96" height="96"/></clipPath><clipPath id="clip12"><rect x="-2" y="-2" width="93" height="79"/></clipPath><clipPath id="clip13"><rect x="0" y="0" width="90" height="75"/></clipPath><clipPath id="clip14"><rect x="3" y="3" width="74" height="74"/></clipPath><clipPath id="clip15"><rect x="0" y="0" width="80" height="80"/></clipPath><clipPath id="clip16"><rect x="6" y="6" width="67" height="67"/></clipPath><clipPath id="clip17"><rect x="6" y="6" width="67" height="67"/></clipPath><clipPath id="clip18"><rect x="6" y="6" width="67" height="67"/></clipPath><clipPath id="clip19"><rect x="190" y="554" width="66" height="66"/></clipPath><clipPath id="clip20"><rect x="190" y="554" width="66" height="66"/></clipPath><clipPath id="clip21"><rect x="190" y="554" width="66" height="66"/></clipPath></defs><g clip-path="url(#clip2)" transform="translate(37 -187)"><path d="M0 0 250.118 234.253" stroke="#4472C4" stroke-width="0.666667" stroke-miterlimit="8" fill="none" fill-rule="evenodd" transform="matrix(-1 0 0 1 715.618 403.5)"/><path d="M465.5 290.5 715.187 403.97" stroke="#4472C4" stroke-width="0.666667" stroke-miterlimit="8" fill="none" fill-rule="evenodd"/><path d="M787.187 392.121 766.5 227.5" stroke="#4472C4" stroke-width="0.666667" stroke-miterlimit="8" fill="none" fill-rule="evenodd"/><path d="M0 0 74.1263 116.577" stroke="#4472C4" stroke-width="0.666667" stroke-miterlimit="8" fill="none" fill-rule="evenodd" transform="matrix(1 0 0 -1 787.5 392.077)"/><path d="M0 0 168.939 68.5326" stroke="#4472C4" stroke-width="0.666667" stroke-miterlimit="8" fill="none" fill-rule="evenodd" transform="matrix(1 0 0 -1 787.5 392.033)"/><path d="M0 0 20.2696 80.9692" stroke="#4472C4" stroke-width="0.666667" stroke-miterlimit="8" fill="none" fill-rule="evenodd" transform="matrix(-1 0 0 1 787.77 415.5)"/><path d="M787.5 415.5 862.043 545.145" stroke="#4472C4" stroke-width="0.666667" stroke-miterlimit="8" fill="none" fill-rule="evenodd"/><path d="M787.5 415.5 957.923 591.649" stroke="#4472C4" stroke-width="0.666667" stroke-miterlimit="8" stroke-dasharray="2.66667 2" fill="none" fill-rule="evenodd"/><rect x="230" y="270" width="235" height="40" fill="#404040"/><rect x="237" y="275" width="36" height="8" fill="#7F7F7F"/><rect x="237" y="286" width="36" height="8" fill="#7F7F7F"/><rect x="237" y="296" width="36" height="9" fill="#7F7F7F"/><path d="M269 277.5C269 276.672 269.672 276 270.5 276 271.328 276 272 276.672 272 277.5 272 278.328 271.328 279 270.5 279 269.672 279 269 278.328 269 277.5Z" fill="#00A1DA" fill-rule="evenodd"/><path d="M442 277.5C442 276.119 443.343 275 445 275 446.657 275 448 276.119 448 277.5 448 278.881 446.657 280 445 280 443.343 280 442 278.881 442 277.5Z" fill="#FF0000" fill-rule="evenodd"/><rect x="237.5" y="275.5" width="6" height="8" stroke="#404040" stroke-width="1.33333" stroke-miterlimit="8" fill="#9966FF"/><rect x="237.5" y="286.5" width="6" height="8" stroke="#404040" stroke-width="1.33333" stroke-miterlimit="8" fill="#9966FF"/><rect x="237.5" y="296.5" width="6" height="9" stroke="#404040" stroke-width="1.33333" stroke-miterlimit="8" fill="#9966FF"/><path d="M269 288C269 287.448 269.672 287 270.5 287 271.328 287 272 287.448 272 288 272 288.552 271.328 289 270.5 289 269.672 289 269 288.552 269 288Z" fill="#00A1DA" fill-rule="evenodd"/><path d="M269 299C269 298.448 269.672 298 270.5 298 271.328 298 272 298.448 272 299 272 299.552 271.328 300 270.5 300 269.672 300 269 299.552 269 299Z" fill="#00A1DA" fill-rule="evenodd"/><rect x="230" y="335" width="235" height="40" fill="#404040"/><rect x="237" y="340" width="36" height="8" fill="#7F7F7F"/><rect x="237" y="351" width="36" height="8" fill="#7F7F7F"/><rect x="237" y="361" width="36" height="8" fill="#7F7F7F"/><path d="M269 342.5C269 341.672 269.672 341 270.5 341 271.328 341 272 341.672 272 342.5 272 343.328 271.328 344 270.5 344 269.672 344 269 343.328 269 342.5Z" fill="#00A1DA" fill-rule="evenodd"/><path d="M442 342C442 340.343 443.343 339 445 339 446.657 339 448 340.343 448 342 448 343.657 446.657 345 445 345 443.343 345 442 343.657 442 342Z" fill="#FF0000" fill-rule="evenodd"/><rect x="237.5" y="340.5" width="6" height="8" stroke="#404040" stroke-width="1.33333" stroke-miterlimit="8" fill="#9966FF"/><rect x="237.5" y="350.5" width="6" height="9" stroke="#404040" stroke-width="1.33333" stroke-miterlimit="8" fill="#9966FF"/><rect x="237.5" y="361.5" width="6" height="8" stroke="#404040" stroke-width="1.33333" stroke-miterlimit="8" fill="#9966FF"/><path d="M269 353C269 352.448 269.672 352 270.5 352 271.328 352 272 352.448 272 353 272 353.552 271.328 354 270.5 354 269.672 354 269 353.552 269 353Z" fill="#00A1DA" fill-rule="evenodd"/><path d="M269 364C269 363.448 269.672 363 270.5 363 271.328 363 272 363.448 272 364 272 364.552 271.328 365 270.5 365 269.672 365 269 364.552 269 364Z" fill="#00A1DA" fill-rule="evenodd"/><path d="M0 0 75.6147 34.6888" stroke="#4472C4" stroke-width="0.666667" stroke-miterlimit="8" fill="none" fill-rule="evenodd" transform="matrix(-1 0 0 1 230.115 290.5)"/><path d="M230.115 355.752 154.5 325.5" stroke="#4472C4" stroke-width="0.666667" stroke-miterlimit="8" fill="none" fill-rule="evenodd"/><path d="M71.5001 325.5 154.715 325.5" stroke="#4472C4" stroke-width="0.666667" stroke-miterlimit="8" fill="none" fill-rule="evenodd"/><g clip-path="url(#clip3)"><g clip-path="url(#clip4)"><g clip-path="url(#clip5)"><path d="M60.2 312.9C59.9 312.9 59.5 312.9 59.2 312.9 59.2 312.9 59.2 312.9 59.2 312.9 59.2 308 56.8 303.5 52.9 300.7 48.9 297.9 43.8 297.2 39.2 298.8 35.4 291.4 27 287.6 19 289.5 11 291.4 5.2 298.6 5.2 306.9 5.2 306.9 5.2 307 5.2 307.1-0.299999 306.2-5.8 308.5-9.2 312.9-12.5 317.4-13.1 323.3-10.8 328.3-8.4 333.3-3.4 336.6 2.1 336.9L2.1 337 60.1 337C66.7 337 72.1 331.6 72.1 325 72.1 318.4 66.8 312.9 60.2 312.9Z" fill="#595959"/></g></g></g><text fill="#595959" font-family="Consolas,Consolas_MSFontService,sans-serif" font-weight="400" font-size="24" transform="translate(4.46955 363)">Outside <tspan font-size="24" x="13.1667" y="28">world</tspan></text><path d="M148 324.5C148 320.91 150.91 318 154.5 318 158.09 318 161 320.91 161 324.5 161 328.09 158.09 331 154.5 331 150.91 331 148 328.09 148 324.5Z" fill="#4472C4" fill-rule="evenodd"/><rect x="649" y="187" width="235" height="40" fill="#404040"/><rect x="656" y="192" width="36" height="8" fill="#7F7F7F"/><rect x="656" y="203" width="36" height="8" fill="#7F7F7F"/><rect x="656" y="213" width="36" height="9" fill="#7F7F7F"/><path d="M688 194.5C688 193.672 688.672 193 689.5 193 690.328 193 691 193.672 691 194.5 691 195.328 690.328 196 689.5 196 688.672 196 688 195.328 688 194.5Z" fill="#00A1DA" fill-rule="evenodd"/><path d="M861 195C861 193.343 862.343 192 864 192 865.657 192 867 193.343 867 195 867 196.657 865.657 198 864 198 862.343 198 861 196.657 861 195Z" fill="#FF0000" fill-rule="evenodd"/><rect x="656.5" y="192.5" width="6" height="8" stroke="#404040" stroke-width="1.33333" stroke-miterlimit="8" fill="#9966FF"/><rect x="656.5" y="203.5" width="6" height="8" stroke="#404040" stroke-width="1.33333" stroke-miterlimit="8" fill="#9966FF"/><rect x="656.5" y="213.5" width="6" height="9" stroke="#404040" stroke-width="1.33333" stroke-miterlimit="8" fill="#9966FF"/><path d="M688 205C688 204.448 688.672 204 689.5 204 690.328 204 691 204.448 691 205 691 205.552 690.328 206 689.5 206 688.672 206 688 205.552 688 205Z" fill="#00A1DA" fill-rule="evenodd"/><path d="M688 216C688 215.448 688.672 215 689.5 215 690.328 215 691 215.448 691 216 691 216.552 690.328 217 689.5 217 688.672 217 688 216.552 688 216Z" fill="#00A1DA" fill-rule="evenodd"/><rect x="744" y="236" width="235" height="39" fill="#404040"/><rect x="751" y="241" width="36" height="8" fill="#7F7F7F"/><rect x="751" y="251" width="36" height="9" fill="#7F7F7F"/><rect x="751" y="262" width="36" height="8" fill="#7F7F7F"/><path d="M783 243C783 242.448 783.448 242 784 242 784.552 242 785 242.448 785 243 785 243.552 784.552 244 784 244 783.448 244 783 243.552 783 243Z" fill="#00A1DA" fill-rule="evenodd"/><path d="M956 243C956 241.343 957.343 240 959 240 960.657 240 962 241.343 962 243 962 244.657 960.657 246 959 246 957.343 246 956 244.657 956 243Z" fill="#FF0000" fill-rule="evenodd"/><rect x="751.5" y="241.5" width="6" height="8" stroke="#404040" stroke-width="1.33333" stroke-miterlimit="8" fill="#9966FF"/><rect x="751.5" y="251.5" width="6" height="7.99998" stroke="#404040" stroke-width="1.33333" stroke-miterlimit="8" fill="#9966FF"/><rect x="751.5" y="262.5" width="6" height="8" stroke="#404040" stroke-width="1.33333" stroke-miterlimit="8" fill="#9966FF"/><path d="M783 254C783 253.448 783.448 253 784 253 784.552 253 785 253.448 785 254 785 254.552 784.552 255 784 255 783.448 255 783 254.552 783 254Z" fill="#00A1DA" fill-rule="evenodd"/><path d="M783 264.5C783 263.672 783.448 263 784 263 784.552 263 785 263.672 785 264.5 785 265.328 784.552 266 784 266 783.448 266 783 265.328 783 264.5Z" fill="#00A1DA" fill-rule="evenodd"/><rect x="838" y="284" width="236" height="39" fill="#404040"/><rect x="846" y="289" width="36" height="8" fill="#7F7F7F"/><rect x="846" y="300" width="36" height="8" fill="#7F7F7F"/><rect x="846" y="310" width="36" height="8" fill="#7F7F7F"/><path d="M878 291C878 290.448 878.448 290 879 290 879.552 290 880 290.448 880 291 880 291.552 879.552 292 879 292 878.448 292 878 291.552 878 291Z" fill="#00A1DA" fill-rule="evenodd"/><path d="M1051 291C1051 289.343 1052.34 288 1054 288 1055.66 288 1057 289.343 1057 291 1057 292.657 1055.66 294 1054 294 1052.34 294 1051 292.657 1051 291Z" fill="#FF0000" fill-rule="evenodd"/><rect x="846.5" y="289.5" width="6" height="8" stroke="#404040" stroke-width="1.33333" stroke-miterlimit="8" fill="#9966FF"/><rect x="846.5" y="299.5" width="6" height="8" stroke="#404040" stroke-width="1.33333" stroke-miterlimit="8" fill="#9966FF"/><rect x="846.5" y="310.5" width="6" height="8" stroke="#404040" stroke-width="1.33333" stroke-miterlimit="8" fill="#9966FF"/><path d="M878 302C878 301.448 878.448 301 879 301 879.552 301 880 301.448 880 302 880 302.552 879.552 303 879 303 878.448 303 878 302.552 878 302Z" fill="#00A1DA" fill-rule="evenodd"/><path d="M878 312.5C878 311.672 878.448 311 879 311 879.552 311 880 311.672 880 312.5 880 313.328 879.552 314 879 314 878.448 314 878 313.328 878 312.5Z" fill="#00A1DA" fill-rule="evenodd"/><rect x="649" y="496" width="235" height="40" fill="#404040"/><rect x="657" y="501" width="36" height="8" fill="#7F7F7F"/><rect x="657" y="512" width="36" height="8" fill="#7F7F7F"/><rect x="657" y="523" width="36" height="8" fill="#7F7F7F"/><path d="M689 503.5C689 502.672 689.448 502 690 502 690.552 502 691 502.672 691 503.5 691 504.328 690.552 505 690 505 689.448 505 689 504.328 689 503.5Z" fill="#00A1DA" fill-rule="evenodd"/><path d="M862 504C862 502.343 863.343 501 865 501 866.657 501 868 502.343 868 504 868 505.657 866.657 507 865 507 863.343 507 862 505.657 862 504Z" fill="#FF0000" fill-rule="evenodd"/><rect x="657.5" y="501.5" width="6" height="8" stroke="#404040" stroke-width="1.33333" stroke-miterlimit="8" fill="#9966FF"/><rect x="657.5" y="512.5" width="6" height="8" stroke="#404040" stroke-width="1.33333" stroke-miterlimit="8" fill="#9966FF"/><rect x="657.5" y="523.5" width="6" height="8" stroke="#404040" stroke-width="1.33333" stroke-miterlimit="8" fill="#9966FF"/><path d="M689 514C689 513.448 689.448 513 690 513 690.552 513 691 513.448 691 514 691 514.552 690.552 515 690 515 689.448 515 689 514.552 689 514Z" fill="#00A1DA" fill-rule="evenodd"/><path d="M689 525C689 524.448 689.448 524 690 524 690.552 524 691 524.448 691 525 691 525.552 690.552 526 690 526 689.448 526 689 525.552 689 525Z" fill="#00A1DA" fill-rule="evenodd"/><rect x="744" y="545" width="235" height="39" fill="#404040"/><rect x="752" y="550" width="35" height="8" fill="#7F7F7F"/><rect x="752" y="561" width="35" height="8" fill="#7F7F7F"/><rect x="752" y="571" width="35" height="8" fill="#7F7F7F"/><path d="M783 552C783 551.448 783.672 551 784.5 551 785.328 551 786 551.448 786 552 786 552.552 785.328 553 784.5 553 783.672 553 783 552.552 783 552Z" fill="#00A1DA" fill-rule="evenodd"/><path d="M956 552C956 550.343 957.343 549 959 549 960.657 549 962 550.343 962 552 962 553.657 960.657 555 959 555 957.343 555 956 553.657 956 552Z" fill="#FF0000" fill-rule="evenodd"/><rect x="752.5" y="550.5" width="5" height="8" stroke="#404040" stroke-width="1.33333" stroke-miterlimit="8" fill="#9966FF"/><rect x="752.5" y="560.5" width="5" height="8" stroke="#404040" stroke-width="1.33333" stroke-miterlimit="8" fill="#9966FF"/><rect x="752.5" y="571.5" width="5" height="8" stroke="#404040" stroke-width="1.33333" stroke-miterlimit="8" fill="#9966FF"/><path d="M783 563C783 562.448 783.672 562 784.5 562 785.328 562 786 562.448 786 563 786 563.552 785.328 564 784.5 564 783.672 564 783 563.552 783 563Z" fill="#00A1DA" fill-rule="evenodd"/><path d="M783 573.5C783 572.672 783.672 572 784.5 572 785.328 572 786 572.672 786 573.5 786 574.328 785.328 575 784.5 575 783.672 575 783 574.328 783 573.5Z" fill="#00A1DA" fill-rule="evenodd"/><rect x="839" y="593" width="235" height="40" fill="#404040" fill-opacity="0.658824"/><rect x="846" y="598" width="36" height="8" fill="#7F7F7F" fill-opacity="0.219608"/><rect x="846" y="609" width="36" height="8" fill="#7F7F7F" fill-opacity="0.219608"/><rect x="846" y="619" width="36" height="8" fill="#7F7F7F" fill-opacity="0.219608"/><path d="M878 600C878 599.448 878.672 599 879.5 599 880.328 599 881 599.448 881 600 881 600.552 880.328 601 879.5 601 878.672 601 878 600.552 878 600Z" fill="#00A1DA" fill-rule="evenodd" fill-opacity="0.219608"/><path d="M1051 600C1051 598.343 1052.34 597 1054 597 1055.66 597 1057 598.343 1057 600 1057 601.657 1055.66 603 1054 603 1052.34 603 1051 601.657 1051 600Z" fill="#FF0000" fill-rule="evenodd"/><rect x="846.5" y="598.5" width="6" height="8" stroke="#404040" stroke-width="1.33333" stroke-miterlimit="8" stroke-opacity="0.258824" fill="#9966FF" fill-opacity="0.219608"/><rect x="846.5" y="608.5" width="6" height="8" stroke="#404040" stroke-width="1.33333" stroke-miterlimit="8" stroke-opacity="0.258824" fill="#9966FF" fill-opacity="0.219608"/><rect x="846.5" y="619.5" width="6" height="8" stroke="#404040" stroke-width="1.33333" stroke-miterlimit="8" stroke-opacity="0.258824" fill="#9966FF" fill-opacity="0.219608"/><path d="M878 611C878 610.448 878.672 610 879.5 610 880.328 610 881 610.448 881 611 881 611.552 880.328 612 879.5 612 878.672 612 878 611.552 878 611Z" fill="#00A1DA" fill-rule="evenodd" fill-opacity="0.219608"/><path d="M878 621.5C878 620.672 878.672 620 879.5 620 880.328 620 881 620.672 881 621.5 881 622.328 880.328 623 879.5 623 878.672 623 878 622.328 878 621.5Z" fill="#00A1DA" fill-rule="evenodd" fill-opacity="0.219608"/><rect x="715" y="391" width="144" height="24" fill="#595959"/><path d="M848 399C848 397.343 849.343 396 851 396 852.657 396 854 397.343 854 399 854 400.657 852.657 402 851 402 849.343 402 848 400.657 848 399Z" fill="#00B0F0" fill-rule="evenodd"/><rect x="719" y="404" width="6" height="7" fill="#262626"/><rect x="729" y="404" width="6" height="7" fill="#262626"/><rect x="740" y="404" width="5" height="7" fill="#262626"/><rect x="749" y="404" width="6" height="7" fill="#262626"/><rect x="760" y="404" width="6" height="7" fill="#262626"/><rect x="770" y="404" width="6" height="7" fill="#262626"/><rect x="780" y="404" width="6" height="7" fill="#262626"/><rect x="790" y="404" width="6" height="7" fill="#262626"/><rect x="719" y="395" width="6" height="7" fill="#262626"/><rect x="729" y="395" width="6" height="7" fill="#262626"/><rect x="740" y="395" width="5" height="7" fill="#262626"/><rect x="749" y="395" width="6" height="7" fill="#262626"/><rect x="760" y="395" width="6" height="7" fill="#262626"/><rect x="770" y="395" width="6" height="7" fill="#262626"/><rect x="780" y="395" width="6" height="7" fill="#262626"/><rect x="790" y="395" width="6" height="7" fill="#262626"/><rect x="800" y="404" width="6" height="7" fill="#262626"/><rect x="811" y="404" width="6" height="7" fill="#262626"/><rect x="821" y="404" width="6" height="7" fill="#262626"/><rect x="800" y="395" width="6" height="7" fill="#262626"/><rect x="811" y="395" width="6" height="7" fill="#262626"/><rect x="821" y="395" width="6" height="7" fill="#262626"/><rect x="230" y="452" width="235" height="40" fill="#404040"/><rect x="237" y="457" width="36" height="8" fill="#7F7F7F"/><rect x="237" y="468" width="36" height="8" fill="#7F7F7F"/><rect x="237" y="478" width="36" height="9" fill="#7F7F7F"/><path d="M269 459.5C269 458.672 269.672 458 270.5 458 271.328 458 272 458.672 272 459.5 272 460.328 271.328 461 270.5 461 269.672 461 269 460.328 269 459.5Z" fill="#00A1DA" fill-rule="evenodd"/><path d="M442 459.5C442 458.119 443.343 457 445 457 446.657 457 448 458.119 448 459.5 448 460.881 446.657 462 445 462 443.343 462 442 460.881 442 459.5Z" fill="#FF0000" fill-rule="evenodd"/><rect x="237.5" y="457.5" width="6" height="8" stroke="#404040" stroke-width="1.33333" stroke-miterlimit="8" fill="#9966FF"/><rect x="237.5" y="468.5" width="6" height="8" stroke="#404040" stroke-width="1.33333" stroke-miterlimit="8" fill="#9966FF"/><rect x="237.5" y="478.5" width="6" height="9" stroke="#404040" stroke-width="1.33333" stroke-miterlimit="8" fill="#9966FF"/><path d="M269 470C269 469.448 269.672 469 270.5 469 271.328 469 272 469.448 272 470 272 470.552 271.328 471 270.5 471 269.672 471 269 470.552 269 470Z" fill="#00A1DA" fill-rule="evenodd"/><path d="M269 481C269 480.448 269.672 480 270.5 480 271.328 480 272 480.448 272 481 272 481.552 271.328 482 270.5 482 269.672 482 269 481.552 269 481Z" fill="#00A1DA" fill-rule="evenodd"/><rect x="230" y="517" width="235" height="40" fill="#404040"/><rect x="237" y="522" width="36" height="8" fill="#7F7F7F"/><rect x="237" y="533" width="36" height="8" fill="#7F7F7F"/><rect x="237" y="543" width="36" height="8" fill="#7F7F7F"/><path d="M269 524.5C269 523.672 269.672 523 270.5 523 271.328 523 272 523.672 272 524.5 272 525.328 271.328 526 270.5 526 269.672 526 269 525.328 269 524.5Z" fill="#00A1DA" fill-rule="evenodd"/><path d="M442 524C442 522.343 443.343 521 445 521 446.657 521 448 522.343 448 524 448 525.657 446.657 527 445 527 443.343 527 442 525.657 442 524Z" fill="#FF0000" fill-rule="evenodd"/><rect x="237.5" y="522.5" width="6" height="8" stroke="#404040" stroke-width="1.33333" stroke-miterlimit="8" fill="#9966FF"/><rect x="237.5" y="532.5" width="6" height="9" stroke="#404040" stroke-width="1.33333" stroke-miterlimit="8" fill="#9966FF"/><rect x="237.5" y="543.5" width="6" height="8" stroke="#404040" stroke-width="1.33333" stroke-miterlimit="8" fill="#9966FF"/><path d="M269 535C269 534.448 269.672 534 270.5 534 271.328 534 272 534.448 272 535 272 535.552 271.328 536 270.5 536 269.672 536 269 535.552 269 535Z" fill="#00A1DA" fill-rule="evenodd"/><path d="M269 545.5C269 544.672 269.672 544 270.5 544 271.328 544 272 544.672 272 545.5 272 546.328 271.328 547 270.5 547 269.672 547 269 546.328 269 545.5Z" fill="#00A1DA" fill-rule="evenodd"/><path d="M0 0 75.6147 34.6888" stroke="#4472C4" stroke-width="0.666667" stroke-miterlimit="8" fill="none" fill-rule="evenodd" transform="matrix(-1 0 0 1 230.115 472.5)"/><path d="M230.115 537.752 154.5 507.5" stroke="#4472C4" stroke-width="0.666667" stroke-miterlimit="8" fill="none" fill-rule="evenodd"/><path d="M148 506.5C148 502.91 150.91 500 154.5 500 158.09 500 161 502.91 161 506.5 161 510.09 158.09 513 154.5 513 150.91 513 148 510.09 148 506.5Z" fill="#4472C4" fill-rule="evenodd"/><path d="M0 0 249.687 68.5168" stroke="#4472C4" stroke-width="0.666667" stroke-miterlimit="8" fill="none" fill-rule="evenodd" transform="matrix(1 0 0 -1 465.5 472.017)"/><path d="M465.5 355.5 715.187 404.029" stroke="#4472C4" stroke-width="0.666667" stroke-miterlimit="8" fill="none" fill-rule="evenodd"/><path d="M0 0 249.687 133.458" stroke="#4472C4" stroke-width="0.666667" stroke-miterlimit="8" fill="none" fill-rule="evenodd" transform="matrix(1 0 0 -1 465.5 536.958)"/><path d="M83.5001 506.5 150.7 506.5" stroke="#4472C4" stroke-width="0.666667" stroke-miterlimit="8" fill="none" fill-rule="evenodd"/><g clip-path="url(#clip6)"><g clip-path="url(#clip7)"><g clip-path="url(#clip8)"><path d="M38 488C38 496.837 30.8366 504 22 504 13.1634 504 6 496.837 6 488 6 479.163 13.1634 472 22 472 30.8366 472 38 479.163 38 488Z" fill="#595959"/><path d="M54 540 54 524C54 521.6 52.8 519.2 50.8 517.6 46.4 514 40.8 511.6 35.2 510 31.2 508.8 26.8 508 22 508 17.6 508 13.2 508.8 8.8 510 3.2 511.6-2.4 514.4-6.8 517.6-8.8 519.2-10 521.6-10 524L-10 540 54 540Z" fill="#595959"/></g></g></g><g clip-path="url(#clip9)"><g clip-path="url(#clip10)"><g clip-path="url(#clip11)"><path d="M79 515 23 515 23 481 79 481 79 515ZM85 479C85 476.8 83.2 475 81 475L21 475C18.8 475 17 476.8 17 479L17 521 85 521 85 479Z" fill="#595959"/><path d="M57 525 57 526C57 526.6 56.6 527 56 527L46 527C45.4 527 45 526.6 45 526L45 525 5 525 5 527C5 529.2 6.8 531 9 531L93 531C95.2 531 97 529.2 97 527L97 525 57 525Z" fill="#595959"/></g></g></g><text fill="#595959" font-family="Consolas,Consolas_MSFontService,sans-serif" font-weight="400" font-size="24" transform="translate(23.4299 577)">Admins</text><rect x="229" y="618" width="236" height="39" fill="#404040"/><rect x="237" y="623" width="36" height="8" fill="#7F7F7F"/><rect x="237" y="633" width="36" height="9" fill="#7F7F7F"/><rect x="237" y="644" width="36" height="8" fill="#7F7F7F"/><path d="M269 625C269 624.448 269.448 624 270 624 270.552 624 271 624.448 271 625 271 625.552 270.552 626 270 626 269.448 626 269 625.552 269 625Z" fill="#00A1DA" fill-rule="evenodd"/><path d="M453 625C453 623.343 454.343 622 456 622 457.657 622 459 623.343 459 625 459 626.657 457.657 628 456 628 454.343 628 453 626.657 453 625Z" fill="#FFC000" fill-rule="evenodd"/><path d="M442 625C442 623.343 443.343 622 445 622 446.657 622 448 623.343 448 625 448 626.657 446.657 628 445 628 443.343 628 442 626.657 442 625Z" fill="#92D050" fill-rule="evenodd"/><rect x="237.5" y="623.5" width="6" height="8" stroke="#404040" stroke-width="1.33333" stroke-miterlimit="8" fill="#9966FF"/><rect x="237.5" y="633.5" width="6" height="8" stroke="#404040" stroke-width="1.33333" stroke-miterlimit="8" fill="#9966FF"/><rect x="237.5" y="644.5" width="6" height="8" stroke="#404040" stroke-width="1.33333" stroke-miterlimit="8" fill="#9966FF"/><path d="M269 636C269 635.448 269.448 635 270 635 270.552 635 271 635.448 271 636 271 636.552 270.552 637 270 637 269.448 637 269 636.552 269 636Z" fill="#00A1DA" fill-rule="evenodd"/><path d="M269 646.5C269 645.672 269.448 645 270 645 270.552 645 271 645.672 271 646.5 271 647.328 270.552 648 270 648 269.448 648 269 647.328 269 646.5Z" fill="#00A1DA" fill-rule="evenodd"/><text fill="#FFFFFF" font-family="Consolas,Consolas_MSFontService,sans-serif" font-weight="400" font-size="24" transform="translate(307.712 646)">ansible</text><path d="M114.5 506.5 229.872 637.932" stroke="#4472C4" stroke-width="0.666667" stroke-miterlimit="8" fill="none" fill-rule="evenodd"/><g clip-path="url(#clip12)" filter="url(#fx0)" transform="translate(226 574)"><g clip-path="url(#clip13)"><path d="M0 48.3613 13.8808 48.3613 13.8808 0 41.6423 0 41.6423 48.3613 55.5229 48.3613 27.7615 83.0236Z" fill="#00B0F0" fill-rule="evenodd" transform="matrix(-0.567734 0.823212 0.823212 0.567734 30.4737 -4.75342)"/></g></g><path d="M0 48.3613 13.8808 48.3613 13.8808 0 41.6423 0 41.6423 48.3613 55.5229 48.3613 27.7615 83.0236Z" fill="#00B0F0" fill-rule="evenodd" transform="matrix(-0.567734 0.823212 0.823212 0.567734 253.645 566.418)"/><g clip-path="url(#clip14)" filter="url(#fx1)" transform="translate(186 550)"><g clip-path="url(#clip15)"><g clip-path="url(#clip16)"><g clip-path="url(#clip17)"><g clip-path="url(#clip18)"><path d="M69.5284 39.8284C69.5284 56.2313 56.2313 69.5284 39.8284 69.5284 23.4256 69.5284 10.1284 56.2313 10.1284 39.8284 10.1284 23.4256 23.4256 10.1284 39.8284 10.1284 56.2313 10.1284 69.5284 23.4256 69.5284 39.8284Z" fill="#F47421"/><path d="M54.2329 39.8284C54.2329 47.7838 47.7838 54.2329 39.8284 54.2329 31.873 54.2329 25.4239 47.7838 25.4239 39.8284 25.4239 31.873 31.873 25.4239 39.8284 25.4239 47.7838 25.4239 54.2329 31.873 54.2329 39.8284Z" stroke="#FFFFFF" stroke-width="5.643" fill="none"/><path d="M25.2012 39.8284C25.2012 42.904 22.708 45.3972 19.6324 45.3972 16.5569 45.3972 14.0636 42.904 14.0636 39.8284 14.0636 36.7529 16.5569 34.2596 19.6324 34.2596 22.708 34.2596 25.2012 36.7529 25.2012 39.8284Z" fill="#F47421"/><path d="M51.0484 39.8284 57.6484 39.8284" stroke="#F47421" stroke-width="2.13695" fill="none"/><path d="M23.5973 39.8284C23.5973 42.0182 21.8222 43.7934 19.6324 43.7934 17.4427 43.7934 15.6675 42.0182 15.6675 39.8284 15.6675 37.6387 17.4427 35.8635 19.6324 35.8635 21.8222 35.8635 23.5973 37.6387 23.5973 39.8284Z" fill="#FFFFFF"/><path d="M47.142 27.1609C44.4785 25.6231 43.5659 22.2173 45.1037 19.5538 46.6415 16.8902 50.0473 15.9776 52.7108 17.5154 55.3744 19.0532 56.2869 22.459 54.7492 25.1226 53.2114 27.7861 49.8055 28.6987 47.142 27.1609Z" fill="#F47421"/><path d="M34.2184 49.5452 30.9184 55.261" stroke="#F47421" stroke-width="2.13695" fill="none"/><path d="M47.944 25.7719C46.0476 24.677 45.3978 22.2521 46.4927 20.3557 47.5876 18.4593 50.0125 17.8096 51.9089 18.9044 53.8053 19.9993 54.455 22.4242 53.3601 24.3206 52.2653 26.217 49.8403 26.8668 47.944 25.7719Z" fill="#FFFFFF"/><path d="M47.142 52.496C49.8055 50.9582 53.2114 51.8708 54.7492 54.5343 56.2869 57.1978 55.3744 60.6036 52.7108 62.1414 50.0473 63.6792 46.6415 62.7666 45.1037 60.1031 43.5659 57.4396 44.4785 54.0337 47.142 52.496Z" fill="#F47421"/><path d="M34.2184 30.1116 30.9184 24.3959" stroke="#F47421" stroke-width="2.13695" fill="none"/><path d="M47.944 53.885C49.8404 52.7901 52.2653 53.4398 53.3601 55.3362 54.455 57.2326 53.8053 59.6575 51.9089 60.7524 50.0125 61.8473 47.5876 61.1975 46.4927 59.3012 45.3978 57.4048 46.0476 54.9799 47.944 53.885Z" fill="#FFFFFF"/></g></g></g></g></g><g clip-path="url(#clip19)"><g clip-path="url(#clip20)"><g clip-path="url(#clip21)"><path d="M252.7 587C252.7 603.403 239.403 616.7 223 616.7 206.597 616.7 193.3 603.403 193.3 587 193.3 570.597 206.597 557.3 223 557.3 239.403 557.3 252.7 570.597 252.7 587Z" fill="#F47421"/><path d="M237.404 587C237.404 594.955 230.955 601.404 223 601.404 215.045 601.404 208.595 594.955 208.595 587 208.595 579.045 215.045 572.596 223 572.596 230.955 572.596 237.404 579.045 237.404 587Z" stroke="#FFFFFF" stroke-width="5.643" fill="none"/><path d="M208.373 587C208.373 590.076 205.88 592.569 202.804 592.569 199.728 592.569 197.235 590.076 197.235 587 197.235 583.924 199.728 581.431 202.804 581.431 205.88 581.431 208.373 583.924 208.373 587Z" fill="#F47421"/><path d="M234.22 587 240.82 587" stroke="#F47421" stroke-width="2.13695" fill="none"/><path d="M206.769 587C206.769 589.19 204.994 590.965 202.804 590.965 200.614 590.965 198.839 589.19 198.839 587 198.839 584.81 200.614 583.035 202.804 583.035 204.994 583.035 206.769 584.81 206.769 587Z" fill="#FFFFFF"/><path d="M230.314 574.332C227.65 572.795 226.737 569.389 228.275 566.725 229.813 564.062 233.219 563.149 235.882 564.687 238.546 566.225 239.459 569.631 237.921 572.294 236.383 574.958 232.977 575.87 230.314 574.332Z" fill="#F47421"/><path d="M217.39 596.717 214.09 602.433" stroke="#F47421" stroke-width="2.13695" fill="none"/><path d="M231.116 572.943C229.219 571.849 228.569 569.424 229.664 567.527 230.759 565.631 233.184 564.981 235.08 566.076 236.977 567.171 237.627 569.596 236.532 571.492 235.437 573.389 233.012 574.038 231.116 572.943Z" fill="#FFFFFF"/><path d="M230.314 599.668C232.977 598.13 236.383 599.042 237.921 601.706 239.459 604.369 238.546 607.775 235.882 609.313 233.219 610.851 229.813 609.938 228.275 607.275 226.737 604.611 227.65 601.205 230.314 599.668Z" fill="#F47421"/><path d="M217.39 577.283 214.09 571.567" stroke="#F47421" stroke-width="2.13695" fill="none"/><path d="M231.116 601.057C233.012 599.962 235.437 600.611 236.532 602.508 237.627 604.404 236.977 606.829 235.08 607.924 233.184 609.019 230.759 608.369 229.664 606.473 228.569 604.576 229.219 602.151 231.116 601.057Z" fill="#FFFFFF"/></g></g></g><text fill="#262626" font-family="Consolas,Consolas_MSFontService,sans-serif" font-style="italic" font-weight="400" font-size="16" transform="translate(79.5584 645)">192.168.1.28/24<tspan font-size="16" x="0" y="19">(</tspan><tspan font-size="16" x="8.83334" y="19">dhcp</tspan><tspan font-size="16" x="44.1667" y="19">)</tspan></text></g></svg>