<svg width="349" height="51" xmlns="http://www.w3.org/2000/svg" xmlns:xlink="http://www.w3.org/1999/xlink" overflow="hidden"><defs><clipPath id="clip0"><path d="M150 134 499 134 499 185 150 185Z" fill-rule="evenodd" clip-rule="evenodd"/></clipPath></defs><g clip-path="url(#clip0)" transform="translate(-150 -134)"><rect x="151.5" y="135.5" width="346" height="48" stroke="#000000" stroke-miterlimit="8" fill="#767171"/><path d="M475.5 150.5C475.5 147.186 478.41 144.5 482 144.5 485.59 144.5 488.5 147.186 488.5 150.5 488.5 153.814 485.59 156.5 482 156.5 478.41 156.5 475.5 153.814 475.5 150.5Z" stroke="#00B050" stroke-miterlimit="8" fill="#92D050" fill-rule="evenodd"/><path d="M455.5 150.5C455.5 147.186 458.41 144.5 462 144.5 465.59 144.5 468.5 147.186 468.5 150.5 468.5 153.814 465.59 156.5 462 156.5 458.41 156.5 455.5 153.814 455.5 150.5Z" stroke="#00B050" stroke-miterlimit="8" fill="#92D050" fill-rule="evenodd"/><path d="M436.5 150.5C436.5 147.186 439.186 144.5 442.5 144.5 445.814 144.5 448.5 147.186 448.5 150.5 448.5 153.814 445.814 156.5 442.5 156.5 439.186 156.5 436.5 153.814 436.5 150.5Z" stroke="#C00000" stroke-miterlimit="8" fill="#FF0000" fill-rule="evenodd"/><rect x="178.5" y="147.5" width="7" height="24" stroke="#000000" stroke-miterlimit="8" fill="#404040"/><rect x="194.5" y="147.5" width="7" height="24" stroke="#000000" stroke-miterlimit="8" fill="#404040"/><rect x="210.5" y="147.5" width="7" height="24" stroke="#000000" stroke-miterlimit="8" fill="#404040"/><rect x="225.5" y="147.5" width="7" height="24" stroke="#000000" stroke-miterlimit="8" fill="#404040"/><rect x="241.5" y="147.5" width="6" height="24" stroke="#000000" stroke-miterlimit="8" fill="#404040"/><rect x="256.5" y="147.5" width="7" height="24" stroke="#000000" stroke-miterlimit="8" fill="#404040"/></g></svg>