<svg width="1112" height="500" xmlns="http://www.w3.org/2000/svg" xmlns:xlink="http://www.w3.org/1999/xlink" overflow="hidden"><defs><clipPath id="clip0"><rect x="-37" y="187" width="1112" height="500"/></clipPath><clipPath id="clip1"><rect x="-18" y="265" width="96" height="96"/></clipPath><clipPath id="clip2"><rect x="-18" y="265" width="96" height="96"/></clipPath><clipPath id="clip3"><rect x="-18" y="265" width="96" height="96"/></clipPath><clipPath id="clip4"><rect x="-26" y="458" width="96" height="96"/></clipPath><clipPath id="clip5"><rect x="-26" y="458" width="96" height="96"/></clipPath><clipPath id="clip6"><rect x="-26" y="458" width="96" height="96"/></clipPath><clipPath id="clip7"><rect x="3" y="455" width="96" height="96"/></clipPath><clipPath id="clip8"><rect x="3" y="455" width="96" height="96"/></clipPath><clipPath id="clip9"><rect x="3" y="455" width="96" height="96"/></clipPath><clipPath id="clip10"><rect x="227" y="555" width="60" height="67"/></clipPath><clipPath id="clip11"><rect x="227" y="555" width="60" height="67"/></clipPath><clipPath id="clip12"><rect x="227" y="555" width="60" height="67"/></clipPath></defs><g clip-path="url(#clip0)" transform="translate(37 -187)"><path d="M0 0 250.118 234.253" stroke="#4472C4" stroke-width="0.666667" stroke-miterlimit="8" fill="none" fill-rule="evenodd" transform="matrix(-1 0 0 1 715.618 403.5)"/><path d="M465.5 290.5 715.187 403.97" stroke="#4472C4" stroke-width="0.666667" stroke-miterlimit="8" fill="none" fill-rule="evenodd"/><path d="M787.187 392.121 766.5 227.5" stroke="#4472C4" stroke-width="0.666667" stroke-miterlimit="8" fill="none" fill-rule="evenodd"/><path d="M0 0 74.1263 116.577" stroke="#4472C4" stroke-width="0.666667" stroke-miterlimit="8" fill="none" fill-rule="evenodd" transform="matrix(1 0 0 -1 787.5 392.077)"/><path d="M0 0 168.939 68.5326" stroke="#4472C4" stroke-width="0.666667" stroke-miterlimit="8" fill="none" fill-rule="evenodd" transform="matrix(1 0 0 -1 787.5 392.033)"/><path d="M0 0 20.2696 80.9692" stroke="#4472C4" stroke-width="0.666667" stroke-miterlimit="8" fill="none" fill-rule="evenodd" transform="matrix(-1 0 0 1 787.77 415.5)"/><path d="M787.5 415.5 862.043 545.145" stroke="#4472C4" stroke-width="0.666667" stroke-miterlimit="8" fill="none" fill-rule="evenodd"/><path d="M787.5 415.5 957.923 591.649" stroke="#4472C4" stroke-width="0.666667" stroke-miterlimit="8" stroke-dasharray="2.66667 2" fill="none" fill-rule="evenodd"/><rect x="230" y="270" width="235" height="40" fill="#404040"/><rect x="237" y="275" width="36" height="8" fill="#7F7F7F"/><rect x="237" y="286" width="36" height="8" fill="#7F7F7F"/><rect x="237" y="296" width="36" height="9" fill="#7F7F7F"/><path d="M269 277.5C269 276.672 269.672 276 270.5 276 271.328 276 272 276.672 272 277.5 272 278.328 271.328 279 270.5 279 269.672 279 269 278.328 269 277.5Z" fill="#00A1DA" fill-rule="evenodd"/><path d="M442 277.5C442 276.119 443.343 275 445 275 446.657 275 448 276.119 448 277.5 448 278.881 446.657 280 445 280 443.343 280 442 278.881 442 277.5Z" fill="#FF0000" fill-rule="evenodd"/><rect x="237.5" y="275.5" width="6" height="8" stroke="#404040" stroke-width="1.33333" stroke-miterlimit="8" fill="#9966FF"/><rect x="237.5" y="286.5" width="6" height="8" stroke="#404040" stroke-width="1.33333" stroke-miterlimit="8" fill="#9966FF"/><rect x="237.5" y="296.5" width="6" height="9" stroke="#404040" stroke-width="1.33333" stroke-miterlimit="8" fill="#9966FF"/><path d="M269 288C269 287.448 269.672 287 270.5 287 271.328 287 272 287.448 272 288 272 288.552 271.328 289 270.5 289 269.672 289 269 288.552 269 288Z" fill="#00A1DA" fill-rule="evenodd"/><path d="M269 299C269 298.448 269.672 298 270.5 298 271.328 298 272 298.448 272 299 272 299.552 271.328 300 270.5 300 269.672 300 269 299.552 269 299Z" fill="#00A1DA" fill-rule="evenodd"/><rect x="230" y="335" width="235" height="40" fill="#404040"/><rect x="237" y="340" width="36" height="8" fill="#7F7F7F"/><rect x="237" y="351" width="36" height="8" fill="#7F7F7F"/><rect x="237" y="361" width="36" height="8" fill="#7F7F7F"/><path d="M269 342.5C269 341.672 269.672 341 270.5 341 271.328 341 272 341.672 272 342.5 272 343.328 271.328 344 270.5 344 269.672 344 269 343.328 269 342.5Z" fill="#00A1DA" fill-rule="evenodd"/><path d="M442 342C442 340.343 443.343 339 445 339 446.657 339 448 340.343 448 342 448 343.657 446.657 345 445 345 443.343 345 442 343.657 442 342Z" fill="#FF0000" fill-rule="evenodd"/><rect x="237.5" y="340.5" width="6" height="8" stroke="#404040" stroke-width="1.33333" stroke-miterlimit="8" fill="#9966FF"/><rect x="237.5" y="350.5" width="6" height="9" stroke="#404040" stroke-width="1.33333" stroke-miterlimit="8" fill="#9966FF"/><rect x="237.5" y="361.5" width="6" height="8" stroke="#404040" stroke-width="1.33333" stroke-miterlimit="8" fill="#9966FF"/><path d="M269 353C269 352.448 269.672 352 270.5 352 271.328 352 272 352.448 272 353 272 353.552 271.328 354 270.5 354 269.672 354 269 353.552 269 353Z" fill="#00A1DA" fill-rule="evenodd"/><path d="M269 364C269 363.448 269.672 363 270.5 363 271.328 363 272 363.448 272 364 272 364.552 271.328 365 270.5 365 269.672 365 269 364.552 269 364Z" fill="#00A1DA" fill-rule="evenodd"/><path d="M0 0 75.6147 34.6888" stroke="#4472C4" stroke-width="0.666667" stroke-miterlimit="8" fill="none" fill-rule="evenodd" transform="matrix(-1 0 0 1 230.115 290.5)"/><path d="M230.115 355.752 154.5 325.5" stroke="#4472C4" stroke-width="0.666667" stroke-miterlimit="8" fill="none" fill-rule="evenodd"/><path d="M71.5001 325.5 154.715 325.5" stroke="#4472C4" stroke-width="0.666667" stroke-miterlimit="8" fill="none" fill-rule="evenodd"/><g clip-path="url(#clip1)"><g clip-path="url(#clip2)"><g clip-path="url(#clip3)"><path d="M60.2 312.9C59.9 312.9 59.5 312.9 59.2 312.9 59.2 312.9 59.2 312.9 59.2 312.9 59.2 308 56.8 303.5 52.9 300.7 48.9 297.9 43.8 297.2 39.2 298.8 35.4 291.4 27 287.6 19 289.5 11 291.4 5.2 298.6 5.2 306.9 5.2 306.9 5.2 307 5.2 307.1-0.299999 306.2-5.8 308.5-9.2 312.9-12.5 317.4-13.1 323.3-10.8 328.3-8.4 333.3-3.4 336.6 2.1 336.9L2.1 337 60.1 337C66.7 337 72.1 331.6 72.1 325 72.1 318.4 66.8 312.9 60.2 312.9Z" fill="#595959"/></g></g></g><text fill="#595959" font-family="Consolas,Consolas_MSFontService,sans-serif" font-weight="400" font-size="24" transform="translate(4.46955 363)">Outside <tspan font-size="24" x="13.1667" y="28">world</tspan></text><path d="M148 324.5C148 320.91 150.91 318 154.5 318 158.09 318 161 320.91 161 324.5 161 328.09 158.09 331 154.5 331 150.91 331 148 328.09 148 324.5Z" fill="#4472C4" fill-rule="evenodd"/><rect x="649" y="187" width="235" height="40" fill="#404040"/><rect x="656" y="192" width="36" height="8" fill="#7F7F7F"/><rect x="656" y="203" width="36" height="8" fill="#7F7F7F"/><rect x="656" y="213" width="36" height="9" fill="#7F7F7F"/><path d="M688 194.5C688 193.672 688.672 193 689.5 193 690.328 193 691 193.672 691 194.5 691 195.328 690.328 196 689.5 196 688.672 196 688 195.328 688 194.5Z" fill="#00A1DA" fill-rule="evenodd"/><path d="M861 195C861 193.343 862.343 192 864 192 865.657 192 867 193.343 867 195 867 196.657 865.657 198 864 198 862.343 198 861 196.657 861 195Z" fill="#FF0000" fill-rule="evenodd"/><rect x="656.5" y="192.5" width="6" height="8" stroke="#404040" stroke-width="1.33333" stroke-miterlimit="8" fill="#9966FF"/><rect x="656.5" y="203.5" width="6" height="8" stroke="#404040" stroke-width="1.33333" stroke-miterlimit="8" fill="#9966FF"/><rect x="656.5" y="213.5" width="6" height="9" stroke="#404040" stroke-width="1.33333" stroke-miterlimit="8" fill="#9966FF"/><path d="M688 205C688 204.448 688.672 204 689.5 204 690.328 204 691 204.448 691 205 691 205.552 690.328 206 689.5 206 688.672 206 688 205.552 688 205Z" fill="#00A1DA" fill-rule="evenodd"/><path d="M688 216C688 215.448 688.672 215 689.5 215 690.328 215 691 215.448 691 216 691 216.552 690.328 217 689.5 217 688.672 217 688 216.552 688 216Z" fill="#00A1DA" fill-rule="evenodd"/><rect x="744" y="236" width="235" height="39" fill="#404040"/><rect x="751" y="241" width="36" height="8" fill="#7F7F7F"/><rect x="751" y="251" width="36" height="9" fill="#7F7F7F"/><rect x="751" y="262" width="36" height="8" fill="#7F7F7F"/><path d="M783 243C783 242.448 783.448 242 784 242 784.552 242 785 242.448 785 243 785 243.552 784.552 244 784 244 783.448 244 783 243.552 783 243Z" fill="#00A1DA" fill-rule="evenodd"/><path d="M956 243C956 241.343 957.343 240 959 240 960.657 240 962 241.343 962 243 962 244.657 960.657 246 959 246 957.343 246 956 244.657 956 243Z" fill="#FF0000" fill-rule="evenodd"/><rect x="751.5" y="241.5" width="6" height="8" stroke="#404040" stroke-width="1.33333" stroke-miterlimit="8" fill="#9966FF"/><rect x="751.5" y="251.5" width="6" height="7.99998" stroke="#404040" stroke-width="1.33333" stroke-miterlimit="8" fill="#9966FF"/><rect x="751.5" y="262.5" width="6" height="8" stroke="#404040" stroke-width="1.33333" stroke-miterlimit="8" fill="#9966FF"/><path d="M783 254C783 253.448 783.448 253 784 253 784.552 253 785 253.448 785 254 785 254.552 784.552 255 784 255 783.448 255 783 254.552 783 254Z" fill="#00A1DA" fill-rule="evenodd"/><path d="M783 264.5C783 263.672 783.448 263 784 263 784.552 263 785 263.672 785 264.5 785 265.328 784.552 266 784 266 783.448 266 783 265.328 783 264.5Z" fill="#00A1DA" fill-rule="evenodd"/><rect x="838" y="284" width="236" height="39" fill="#404040"/><rect x="846" y="289" width="36" height="8" fill="#7F7F7F"/><rect x="846" y="300" width="36" height="8" fill="#7F7F7F"/><rect x="846" y="310" width="36" height="8" fill="#7F7F7F"/><path d="M878 291C878 290.448 878.448 290 879 290 879.552 290 880 290.448 880 291 880 291.552 879.552 292 879 292 878.448 292 878 291.552 878 291Z" fill="#00A1DA" fill-rule="evenodd"/><path d="M1051 291C1051 289.343 1052.34 288 1054 288 1055.66 288 1057 289.343 1057 291 1057 292.657 1055.66 294 1054 294 1052.34 294 1051 292.657 1051 291Z" fill="#FF0000" fill-rule="evenodd"/><rect x="846.5" y="289.5" width="6" height="8" stroke="#404040" stroke-width="1.33333" stroke-miterlimit="8" fill="#9966FF"/><rect x="846.5" y="299.5" width="6" height="8" stroke="#404040" stroke-width="1.33333" stroke-miterlimit="8" fill="#9966FF"/><rect x="846.5" y="310.5" width="6" height="8" stroke="#404040" stroke-width="1.33333" stroke-miterlimit="8" fill="#9966FF"/><path d="M878 302C878 301.448 878.448 301 879 301 879.552 301 880 301.448 880 302 880 302.552 879.552 303 879 303 878.448 303 878 302.552 878 302Z" fill="#00A1DA" fill-rule="evenodd"/><path d="M878 312.5C878 311.672 878.448 311 879 311 879.552 311 880 311.672 880 312.5 880 313.328 879.552 314 879 314 878.448 314 878 313.328 878 312.5Z" fill="#00A1DA" fill-rule="evenodd"/><rect x="649" y="496" width="235" height="40" fill="#404040"/><rect x="657" y="501" width="36" height="8" fill="#7F7F7F"/><rect x="657" y="512" width="36" height="8" fill="#7F7F7F"/><rect x="657" y="523" width="36" height="8" fill="#7F7F7F"/><path d="M689 503.5C689 502.672 689.448 502 690 502 690.552 502 691 502.672 691 503.5 691 504.328 690.552 505 690 505 689.448 505 689 504.328 689 503.5Z" fill="#00A1DA" fill-rule="evenodd"/><path d="M862 504C862 502.343 863.343 501 865 501 866.657 501 868 502.343 868 504 868 505.657 866.657 507 865 507 863.343 507 862 505.657 862 504Z" fill="#FF0000" fill-rule="evenodd"/><rect x="657.5" y="501.5" width="6" height="8" stroke="#404040" stroke-width="1.33333" stroke-miterlimit="8" fill="#9966FF"/><rect x="657.5" y="512.5" width="6" height="8" stroke="#404040" stroke-width="1.33333" stroke-miterlimit="8" fill="#9966FF"/><rect x="657.5" y="523.5" width="6" height="8" stroke="#404040" stroke-width="1.33333" stroke-miterlimit="8" fill="#9966FF"/><path d="M689 514C689 513.448 689.448 513 690 513 690.552 513 691 513.448 691 514 691 514.552 690.552 515 690 515 689.448 515 689 514.552 689 514Z" fill="#00A1DA" fill-rule="evenodd"/><path d="M689 525C689 524.448 689.448 524 690 524 690.552 524 691 524.448 691 525 691 525.552 690.552 526 690 526 689.448 526 689 525.552 689 525Z" fill="#00A1DA" fill-rule="evenodd"/><rect x="744" y="545" width="235" height="39" fill="#404040"/><rect x="752" y="550" width="35" height="8" fill="#7F7F7F"/><rect x="752" y="561" width="35" height="8" fill="#7F7F7F"/><rect x="752" y="571" width="35" height="8" fill="#7F7F7F"/><path d="M783 552C783 551.448 783.672 551 784.5 551 785.328 551 786 551.448 786 552 786 552.552 785.328 553 784.5 553 783.672 553 783 552.552 783 552Z" fill="#00A1DA" fill-rule="evenodd"/><path d="M956 552C956 550.343 957.343 549 959 549 960.657 549 962 550.343 962 552 962 553.657 960.657 555 959 555 957.343 555 956 553.657 956 552Z" fill="#FF0000" fill-rule="evenodd"/><rect x="752.5" y="550.5" width="5" height="8" stroke="#404040" stroke-width="1.33333" stroke-miterlimit="8" fill="#9966FF"/><rect x="752.5" y="560.5" width="5" height="8" stroke="#404040" stroke-width="1.33333" stroke-miterlimit="8" fill="#9966FF"/><rect x="752.5" y="571.5" width="5" height="8" stroke="#404040" stroke-width="1.33333" stroke-miterlimit="8" fill="#9966FF"/><path d="M783 563C783 562.448 783.672 562 784.5 562 785.328 562 786 562.448 786 563 786 563.552 785.328 564 784.5 564 783.672 564 783 563.552 783 563Z" fill="#00A1DA" fill-rule="evenodd"/><path d="M783 573.5C783 572.672 783.672 572 784.5 572 785.328 572 786 572.672 786 573.5 786 574.328 785.328 575 784.5 575 783.672 575 783 574.328 783 573.5Z" fill="#00A1DA" fill-rule="evenodd"/><rect x="839" y="593" width="235" height="40" fill="#404040" fill-opacity="0.658824"/><rect x="846" y="598" width="36" height="8" fill="#7F7F7F" fill-opacity="0.219608"/><rect x="846" y="609" width="36" height="8" fill="#7F7F7F" fill-opacity="0.219608"/><rect x="846" y="619" width="36" height="8" fill="#7F7F7F" fill-opacity="0.219608"/><path d="M878 600C878 599.448 878.672 599 879.5 599 880.328 599 881 599.448 881 600 881 600.552 880.328 601 879.5 601 878.672 601 878 600.552 878 600Z" fill="#00A1DA" fill-rule="evenodd" fill-opacity="0.219608"/><path d="M1051 600C1051 598.343 1052.34 597 1054 597 1055.66 597 1057 598.343 1057 600 1057 601.657 1055.66 603 1054 603 1052.34 603 1051 601.657 1051 600Z" fill="#FF0000" fill-rule="evenodd"/><rect x="846.5" y="598.5" width="6" height="8" stroke="#404040" stroke-width="1.33333" stroke-miterlimit="8" stroke-opacity="0.258824" fill="#9966FF" fill-opacity="0.219608"/><rect x="846.5" y="608.5" width="6" height="8" stroke="#404040" stroke-width="1.33333" stroke-miterlimit="8" stroke-opacity="0.258824" fill="#9966FF" fill-opacity="0.219608"/><rect x="846.5" y="619.5" width="6" height="8" stroke="#404040" stroke-width="1.33333" stroke-miterlimit="8" stroke-opacity="0.258824" fill="#9966FF" fill-opacity="0.219608"/><path d="M878 611C878 610.448 878.672 610 879.5 610 880.328 610 881 610.448 881 611 881 611.552 880.328 612 879.5 612 878.672 612 878 611.552 878 611Z" fill="#00A1DA" fill-rule="evenodd" fill-opacity="0.219608"/><path d="M878 621.5C878 620.672 878.672 620 879.5 620 880.328 620 881 620.672 881 621.5 881 622.328 880.328 623 879.5 623 878.672 623 878 622.328 878 621.5Z" fill="#00A1DA" fill-rule="evenodd" fill-opacity="0.219608"/><rect x="715" y="391" width="144" height="24" fill="#595959"/><path d="M848 399C848 397.343 849.343 396 851 396 852.657 396 854 397.343 854 399 854 400.657 852.657 402 851 402 849.343 402 848 400.657 848 399Z" fill="#00B0F0" fill-rule="evenodd"/><rect x="719" y="404" width="6" height="7" fill="#262626"/><rect x="729" y="404" width="6" height="7" fill="#262626"/><rect x="740" y="404" width="5" height="7" fill="#262626"/><rect x="749" y="404" width="6" height="7" fill="#262626"/><rect x="760" y="404" width="6" height="7" fill="#262626"/><rect x="770" y="404" width="6" height="7" fill="#262626"/><rect x="780" y="404" width="6" height="7" fill="#262626"/><rect x="790" y="404" width="6" height="7" fill="#262626"/><rect x="719" y="395" width="6" height="7" fill="#262626"/><rect x="729" y="395" width="6" height="7" fill="#262626"/><rect x="740" y="395" width="5" height="7" fill="#262626"/><rect x="749" y="395" width="6" height="7" fill="#262626"/><rect x="760" y="395" width="6" height="7" fill="#262626"/><rect x="770" y="395" width="6" height="7" fill="#262626"/><rect x="780" y="395" width="6" height="7" fill="#262626"/><rect x="790" y="395" width="6" height="7" fill="#262626"/><rect x="800" y="404" width="6" height="7" fill="#262626"/><rect x="811" y="404" width="6" height="7" fill="#262626"/><rect x="821" y="404" width="6" height="7" fill="#262626"/><rect x="800" y="395" width="6" height="7" fill="#262626"/><rect x="811" y="395" width="6" height="7" fill="#262626"/><rect x="821" y="395" width="6" height="7" fill="#262626"/><rect x="230" y="452" width="235" height="40" fill="#404040"/><rect x="237" y="457" width="36" height="8" fill="#7F7F7F"/><rect x="237" y="468" width="36" height="8" fill="#7F7F7F"/><rect x="237" y="478" width="36" height="9" fill="#7F7F7F"/><path d="M269 459.5C269 458.672 269.672 458 270.5 458 271.328 458 272 458.672 272 459.5 272 460.328 271.328 461 270.5 461 269.672 461 269 460.328 269 459.5Z" fill="#00A1DA" fill-rule="evenodd"/><path d="M442 459.5C442 458.119 443.343 457 445 457 446.657 457 448 458.119 448 459.5 448 460.881 446.657 462 445 462 443.343 462 442 460.881 442 459.5Z" fill="#FF0000" fill-rule="evenodd"/><rect x="237.5" y="457.5" width="6" height="8" stroke="#404040" stroke-width="1.33333" stroke-miterlimit="8" fill="#9966FF"/><rect x="237.5" y="468.5" width="6" height="8" stroke="#404040" stroke-width="1.33333" stroke-miterlimit="8" fill="#9966FF"/><rect x="237.5" y="478.5" width="6" height="9" stroke="#404040" stroke-width="1.33333" stroke-miterlimit="8" fill="#9966FF"/><path d="M269 470C269 469.448 269.672 469 270.5 469 271.328 469 272 469.448 272 470 272 470.552 271.328 471 270.5 471 269.672 471 269 470.552 269 470Z" fill="#00A1DA" fill-rule="evenodd"/><path d="M269 481C269 480.448 269.672 480 270.5 480 271.328 480 272 480.448 272 481 272 481.552 271.328 482 270.5 482 269.672 482 269 481.552 269 481Z" fill="#00A1DA" fill-rule="evenodd"/><rect x="230" y="517" width="235" height="40" fill="#404040"/><rect x="237" y="522" width="36" height="8" fill="#7F7F7F"/><rect x="237" y="533" width="36" height="8" fill="#7F7F7F"/><rect x="237" y="543" width="36" height="8" fill="#7F7F7F"/><path d="M269 524.5C269 523.672 269.672 523 270.5 523 271.328 523 272 523.672 272 524.5 272 525.328 271.328 526 270.5 526 269.672 526 269 525.328 269 524.5Z" fill="#00A1DA" fill-rule="evenodd"/><path d="M442 524C442 522.343 443.343 521 445 521 446.657 521 448 522.343 448 524 448 525.657 446.657 527 445 527 443.343 527 442 525.657 442 524Z" fill="#FF0000" fill-rule="evenodd"/><rect x="237.5" y="522.5" width="6" height="8" stroke="#404040" stroke-width="1.33333" stroke-miterlimit="8" fill="#9966FF"/><rect x="237.5" y="532.5" width="6" height="9" stroke="#404040" stroke-width="1.33333" stroke-miterlimit="8" fill="#9966FF"/><rect x="237.5" y="543.5" width="6" height="8" stroke="#404040" stroke-width="1.33333" stroke-miterlimit="8" fill="#9966FF"/><path d="M269 535C269 534.448 269.672 534 270.5 534 271.328 534 272 534.448 272 535 272 535.552 271.328 536 270.5 536 269.672 536 269 535.552 269 535Z" fill="#00A1DA" fill-rule="evenodd"/><path d="M269 545.5C269 544.672 269.672 544 270.5 544 271.328 544 272 544.672 272 545.5 272 546.328 271.328 547 270.5 547 269.672 547 269 546.328 269 545.5Z" fill="#00A1DA" fill-rule="evenodd"/><path d="M0 0 75.6147 34.6888" stroke="#4472C4" stroke-width="0.666667" stroke-miterlimit="8" fill="none" fill-rule="evenodd" transform="matrix(-1 0 0 1 230.115 472.5)"/><path d="M230.115 537.752 154.5 507.5" stroke="#4472C4" stroke-width="0.666667" stroke-miterlimit="8" fill="none" fill-rule="evenodd"/><path d="M148 506.5C148 502.91 150.91 500 154.5 500 158.09 500 161 502.91 161 506.5 161 510.09 158.09 513 154.5 513 150.91 513 148 510.09 148 506.5Z" fill="#4472C4" fill-rule="evenodd"/><path d="M0 0 249.687 68.5168" stroke="#4472C4" stroke-width="0.666667" stroke-miterlimit="8" fill="none" fill-rule="evenodd" transform="matrix(1 0 0 -1 465.5 472.017)"/><path d="M465.5 355.5 715.187 404.029" stroke="#4472C4" stroke-width="0.666667" stroke-miterlimit="8" fill="none" fill-rule="evenodd"/><path d="M0 0 249.687 133.458" stroke="#4472C4" stroke-width="0.666667" stroke-miterlimit="8" fill="none" fill-rule="evenodd" transform="matrix(1 0 0 -1 465.5 536.958)"/><path d="M83.5001 506.5 150.7 506.5" stroke="#4472C4" stroke-width="0.666667" stroke-miterlimit="8" fill="none" fill-rule="evenodd"/><g clip-path="url(#clip4)"><g clip-path="url(#clip5)"><g clip-path="url(#clip6)"><path d="M38 488C38 496.837 30.8366 504 22 504 13.1634 504 6 496.837 6 488 6 479.163 13.1634 472 22 472 30.8366 472 38 479.163 38 488Z" fill="#595959"/><path d="M54 540 54 524C54 521.6 52.8 519.2 50.8 517.6 46.4 514 40.8 511.6 35.2 510 31.2 508.8 26.8 508 22 508 17.6 508 13.2 508.8 8.8 510 3.2 511.6-2.4 514.4-6.8 517.6-8.8 519.2-10 521.6-10 524L-10 540 54 540Z" fill="#595959"/></g></g></g><g clip-path="url(#clip7)"><g clip-path="url(#clip8)"><g clip-path="url(#clip9)"><path d="M79 515 23 515 23 481 79 481 79 515ZM85 479C85 476.8 83.2 475 81 475L21 475C18.8 475 17 476.8 17 479L17 521 85 521 85 479Z" fill="#595959"/><path d="M57 525 57 526C57 526.6 56.6 527 56 527L46 527C45.4 527 45 526.6 45 526L45 525 5 525 5 527C5 529.2 6.8 531 9 531L93 531C95.2 531 97 529.2 97 527L97 525 57 525Z" fill="#595959"/></g></g></g><text fill="#595959" font-family="Consolas,Consolas_MSFontService,sans-serif" font-weight="400" font-size="24" transform="translate(23.4299 577)">Admins</text><rect x="229" y="618" width="236" height="39" fill="#404040"/><rect x="237" y="623" width="36" height="8" fill="#7F7F7F"/><rect x="237" y="633" width="36" height="9" fill="#7F7F7F"/><rect x="237" y="644" width="36" height="8" fill="#7F7F7F"/><path d="M269 625C269 624.448 269.448 624 270 624 270.552 624 271 624.448 271 625 271 625.552 270.552 626 270 626 269.448 626 269 625.552 269 625Z" fill="#00A1DA" fill-rule="evenodd"/><path d="M453 625C453 623.343 454.343 622 456 622 457.657 622 459 623.343 459 625 459 626.657 457.657 628 456 628 454.343 628 453 626.657 453 625Z" fill="#FFC000" fill-rule="evenodd"/><path d="M442 625C442 623.343 443.343 622 445 622 446.657 622 448 623.343 448 625 448 626.657 446.657 628 445 628 443.343 628 442 626.657 442 625Z" fill="#92D050" fill-rule="evenodd"/><rect x="237.5" y="623.5" width="6" height="8" stroke="#404040" stroke-width="1.33333" stroke-miterlimit="8" fill="#9966FF"/><rect x="237.5" y="633.5" width="6" height="8" stroke="#404040" stroke-width="1.33333" stroke-miterlimit="8" fill="#9966FF"/><rect x="237.5" y="644.5" width="6" height="8" stroke="#404040" stroke-width="1.33333" stroke-miterlimit="8" fill="#9966FF"/><path d="M269 636C269 635.448 269.448 635 270 635 270.552 635 271 635.448 271 636 271 636.552 270.552 637 270 637 269.448 637 269 636.552 269 636Z" fill="#00A1DA" fill-rule="evenodd"/><path d="M269 646.5C269 645.672 269.448 645 270 645 270.552 645 271 645.672 271 646.5 271 647.328 270.552 648 270 648 269.448 648 269 647.328 269 646.5Z" fill="#00A1DA" fill-rule="evenodd"/><text fill="#FFFFFF" font-family="Consolas,Consolas_MSFontService,sans-serif" font-weight="400" font-size="24" transform="translate(307.712 646)">ansible</text><path d="M114.5 506.5 229.872 637.932" stroke="#4472C4" stroke-width="0.666667" stroke-miterlimit="8" fill="none" fill-rule="evenodd"/><text fill="#262626" font-family="Consolas,Consolas_MSFontService,sans-serif" font-style="italic" font-weight="400" font-size="16" transform="translate(481.927 647)">10.10.0.1/16<tspan font-size="16" x="-402.369" y="-2">192.168.1.28/24</tspan><tspan font-size="16" x="-402.369" y="17">(</tspan><tspan font-size="16" x="-393.536" y="17">dhcp</tspan>)</text><rect x="216.5" y="557.5" width="379" height="129" stroke="#92D050" stroke-width="1.33333" stroke-miterlimit="8" stroke-dasharray="5.33333 4" fill="none"/><text font-family="Segoe UI Light,Segoe UI Light_MSFontService,sans-serif" font-weight="300" font-size="24" transform="translate(295.232 594)">BlueBanquise<tspan font-size="24" x="140" y="0">CORE</tspan></text><g clip-path="url(#clip10)"><g clip-path="url(#clip11)"><g clip-path="url(#clip12)"><path d="M57.8212 32.6434C57.4845 32.1056 57.1399 31.5491 57.0554 31.4068L56.9021 31.1481 57.1879 30.9332C57.3451 30.815 57.4934 30.7418 57.5176 30.7706 57.5775 30.8417 58.4832 33.5771 58.4555 33.6017 58.4431 33.6125 58.1579 33.1813 57.8212 32.6434Z" fill="#108BDE" fill-opacity="0.3" transform="matrix(1 0 0 1.00281 205.49 532.244)"/><path d="M49.6795 31.0286C48.7683 30.4796 48.0221 30.0104 48.0213 29.9858 48.0205 29.9613 48.7528 28.552 49.6489 26.8541L51.2779 23.767 51.314 25.1089C51.3921 28.0329 51.4341 32.0339 51.3867 32.0304 51.3585 32.0283 50.5907 31.5776 49.6795 31.0286Z" fill="#108BDE" fill-opacity="0.3" transform="matrix(1 0 0 1.00281 205.49 532.244)"/><path d="M46.1339 31.9954C45.0331 30.7842 44.7639 30.4539 44.8289 30.3944 44.9748 30.2607 46.7425 29.2736 46.7759 29.3072 46.8248 29.3562 47.5582 33.323 47.5381 33.4293 47.5284 33.4801 46.8988 32.8372 46.1339 31.9954Z" fill="#108BDE" fill-opacity="0.3" transform="matrix(1 0 0 1.00281 205.49 532.244)"/><path d="M39.884 33.1034C38.3947 32.2008 37.1868 31.4399 37.1997 31.4125 37.2377 31.332 41.5528 27.38 41.603 27.38 41.6282 27.38 41.7035 28.5934 41.911 29.9358 42.1185 31.2781 42.3713 32.9106 42.4727 33.5635 42.5742 34.2163 42.6425 34.7492 42.6245 34.7476 42.6065 34.746 41.3733 34.0061 39.884 33.1034Z" fill="#108BDE" fill-opacity="0.3" transform="matrix(1 0 0 1.00281 205.49 532.244)"/><path d="M33.4823 34.5225C32.7908 34.2533 32.1752 34.012 32.1141 33.9863 32.0219 33.9475 32.3002 33.6774 33.7604 32.3885 34.727 31.5353 35.5239 30.8429 35.5314 30.8497 35.5421 30.8594 34.8184 34.679 34.7556 34.9441 34.7456 34.9863 34.2635 34.8266 33.4823 34.5225Z" fill="#108BDE" fill-opacity="0.3" transform="matrix(1 0 0 1.00281 205.49 532.244)"/><path d="M48.929 82.1384C48.9043 82.0613 48.4987 80.3907 48.0276 78.4255L47.171 74.8525 48.3966 69.2446C49.0707 66.1601 49.6252 63.6407 49.6286 63.6456 49.6331 63.6501 49.4946 67.6062 49.3222 72.4355 49.15 77.2642 49.0011 81.4547 48.9914 81.7468 48.9798 82.0969 48.9586 82.2304 48.929 82.1384Z" fill="#108BDE" transform="matrix(1 0 0 1.00281 205.49 532.244)"/><path d="M41.3917 71.0729 40.8452 69.8938 41.1207 68.5629C41.2722 67.8307 41.5223 66.6501 41.6764 65.9391L41.9566 64.6463 41.964 68.4492C41.968 70.5404 41.9639 72.2515 41.9548 72.2515 41.9457 72.2515 41.6923 71.7211 41.3917 71.0729Z" fill="#108BDE" transform="matrix(1 0 0 1.00281 205.49 532.244)"/><path d="M42.041 80.7679C41.003 76.5547 40.1367 73.0688 40.116 73.0213 40.0844 72.9491 40.5521 70.2389 40.6416 69.9753 40.6575 69.9284 40.9265 70.5103 41.2394 71.2687 41.5523 72.0271 41.8349 72.693 41.8675 72.7484 41.9551 72.8967 42.2345 72.8794 42.3288 72.7192 42.3707 72.6485 42.612 71.814 42.8649 70.8653 43.3063 69.21 43.3254 69.1547 43.3394 69.4854 43.4095 71.1471 43.9572 88.1443 43.9446 88.2674 43.9356 88.3564 43.079 84.9812 42.041 80.7679Z" fill="#108BDE" transform="matrix(1 0 0 1.00281 205.49 532.244)"/><path d="M36.1712 77.503 34.7085 72.2115 35.7505 67.2982C36.3327 64.5529 36.7985 62.468 36.8061 62.5728 36.8463 63.1305 37.846 82.9027 37.8332 83.0006 37.8248 83.0644 36.9756 80.4135 36.1712 77.503Z" fill="#108BDE" transform="matrix(1 0 0 1.00281 205.49 532.244)"/><path d="M61.8535 46.6351 50.828 85.5868 51.9676 69.9996 49.0714 83.6107 49.7952 62.0359 44.1482 89.2581 43.4242 68.5515 42.121 73.1854 42.121 62.9045 37.9218 84.4794 36.9082 61.3116 34.0123 74.633 21.8491 37.7094 28.7995 32.6414 34.8811 35.103 35.7499 30.4694 42.8451 34.9582 41.6866 27.139 47.7682 33.7998 46.8994 29.1663 51.533 32.207 51.3882 22.9399 59.2075 35.103 57.6145 30.4694 63.9858 37.7094" stroke="#141414" stroke-width="0.346075" stroke-linejoin="round" fill="none" transform="matrix(1 0 0 1.00281 205.49 532.244)"/><path d="M35.7499 30.4694 31.9699 33.8094" stroke="#141414" stroke-width="0.395514" stroke-linecap="round" fill="none" transform="matrix(1 0 0 1.00281 205.49 532.244)"/><path d="M41.6866 27.139 37.3089 31.302" stroke="#141414" stroke-width="0.395514" stroke-linecap="round" fill="none" transform="matrix(1 0 0 1.00281 205.49 532.244)"/><path d="M46.8994 29.1663 44.8302 30.2804" stroke="#141414" stroke-width="0.395514" stroke-linecap="round" fill="none" transform="matrix(1 0 0 1.00281 205.49 532.244)"/><path d="M51.3882 22.9399 48.1381 29.6891" stroke="#141414" stroke-width="0.395514" stroke-linecap="round" fill="none" transform="matrix(1 0 0 1.00281 205.49 532.244)"/><path d="M57.6145 30.4694 56.6119 31.2309" stroke="#141414" stroke-width="0.494393" fill="none" transform="matrix(1 0 0 1.00281 205.49 532.244)"/><path d="M34.7085 72.2115 37.8763 84.206" stroke="#141414" stroke-width="0.395514" stroke-linecap="round" fill="none" transform="matrix(1 0 0 1.00281 205.49 532.244)"/><path d="M42.121 73.1854 40.8452 69.8938" stroke="#141414" stroke-width="0.395514" stroke-linecap="round" fill="none" transform="matrix(1 0 0 1.00281 205.49 532.244)"/><path d="M44.1482 89.2581 40.1895 73.3694" stroke="#141414" stroke-width="0.395514" stroke-linecap="round" fill="none" transform="matrix(1 0 0 1.00281 205.49 532.244)"/><path d="M49.0714 83.6107 47.171 74.8525" stroke="#141414" stroke-width="0.395514" stroke-linecap="round" fill="none" transform="matrix(1 0 0 1.00281 205.49 532.244)"/><path d="M21.8491 37.7094 81.1753 37.7228" stroke="#108BDE" stroke-width="0.346075" stroke-linecap="round" fill="none" transform="matrix(1 0 0 1.00281 205.49 532.244)"/><path d="M32.1715 38.8473 33.7424 38.8473C34.4502 38.8473 34.9699 38.9674 35.3015 39.2077 35.6332 39.4479 35.7991 39.811 35.7991 40.2968 35.7991 40.6284 35.6972 40.9053 35.4935 41.1272 35.2924 41.3466 34.9973 41.4877 34.6082 41.5503L34.6082 41.5738C35.0652 41.6417 35.4008 41.7867 35.6149 42.0086 35.8317 42.228 35.9401 42.5349 35.9401 42.9293 35.9401 43.4568 35.7651 43.8629 35.4151 44.1476 35.0652 44.4323 34.569 44.5746 33.9265 44.5746L32.1715 44.5746ZM32.5711 41.3975 33.8325 41.3975C34.3705 41.3975 34.7609 41.3087 35.0038 41.1311 35.2493 40.9509 35.3721 40.6702 35.3721 40.2889 35.3721 39.9076 35.2336 39.6308 34.9568 39.4584 34.6826 39.286 34.2725 39.1999 33.7267 39.1999L32.5711 39.1999ZM32.5711 41.7501 32.5711 44.222 33.9187 44.222C34.979 44.222 35.5092 43.7911 35.5092 42.9293 35.5092 42.1432 34.9503 41.7501 33.8325 41.7501Z" fill="#108BDE" transform="matrix(1 0 0 1.00281 205.49 532.244)"/><path d="M37.4914 44.5746 37.1036 44.5746 37.1036 38.479 37.4914 38.479Z" fill="#108BDE" transform="matrix(1 0 0 1.00281 205.49 532.244)"/><path d="M39.2581 40.3163 39.2581 43.0742C39.2581 43.5025 39.3483 43.8146 39.5284 44.0104 39.7086 44.2037 39.9881 44.3004 40.3668 44.3004 40.8734 44.3004 41.2456 44.1724 41.4833 43.9165 41.7235 43.6605 41.8437 43.2439 41.8437 42.6668L41.8437 40.3163 42.2276 40.3163 42.2276 44.5746 41.8985 44.5746 41.828 43.987 41.8045 43.987C41.5277 44.4309 41.0353 44.6529 40.3276 44.6529 39.3587 44.6529 38.8742 44.1345 38.8742 43.0977L38.8742 40.3163Z" fill="#108BDE" transform="matrix(1 0 0 1.00281 205.49 532.244)"/><path d="M45.3732 44.6529C44.7543 44.6529 44.2711 44.4623 43.9238 44.081 43.5791 43.6997 43.4067 43.1656 43.4067 42.4788 43.4067 41.7997 43.5738 41.2565 43.9082 40.8491 44.2424 40.439 44.6929 40.2341 45.2596 40.2341 45.7611 40.2341 46.1567 40.409 46.4466 40.759 46.7365 41.1089 46.8815 41.5843 46.8815 42.1849L46.8815 42.4983 43.8141 42.4983C43.8194 43.0834 43.9551 43.5299 44.2215 43.8381 44.4905 44.1463 44.8744 44.3004 45.3732 44.3004 45.6161 44.3004 45.829 44.2834 46.0118 44.2494 46.1972 44.2155 46.4309 44.1423 46.713 44.0301L46.713 44.3826C46.4728 44.4871 46.2507 44.5576 46.047 44.5942 45.8434 44.6333 45.6188 44.6529 45.3732 44.6529ZM45.2596 40.5788C44.8496 40.5788 44.5206 40.7146 44.2725 40.9862 44.0243 41.2552 43.8794 41.6443 43.8376 42.1536L46.4701 42.1536C46.4701 41.66 46.3631 41.2748 46.1489 40.998 45.9348 40.7185 45.6383 40.5788 45.2596 40.5788Z" fill="#108BDE" transform="matrix(1 0 0 1.00281 205.49 532.244)"/><path d="M48.1546 38.8473 49.7255 38.8473C50.4335 38.8473 50.9531 38.9674 51.2848 39.2077 51.6161 39.4479 51.7822 39.811 51.7822 40.2968 51.7822 40.6284 51.6804 40.9053 51.4767 41.1272 51.2754 41.3466 50.9803 41.4877 50.5912 41.5503L50.5912 41.5738C51.0485 41.6417 51.3837 41.7867 51.5983 42.0086 51.8148 42.228 51.9231 42.5349 51.9231 42.9293 51.9231 43.4568 51.7481 43.8629 51.3981 44.1476 51.0485 44.4323 50.5521 44.5746 49.9094 44.5746L48.1546 44.5746ZM48.5542 41.3975 49.8155 41.3975C50.3534 41.3975 50.744 41.3087 50.9867 41.1311 51.2324 40.9509 51.355 40.6702 51.355 40.2889 51.355 39.9076 51.2166 39.6308 50.9398 39.4584 50.6659 39.286 50.2555 39.1999 49.7097 39.1999L48.5542 39.1999ZM48.5542 41.7501 48.5542 44.222 49.902 44.222C50.962 44.222 51.4925 43.7911 51.4925 42.9293 51.4925 42.1432 50.9333 41.7501 49.8155 41.7501Z" fill="#565656" transform="matrix(1 0 0 1.00281 205.49 532.244)"/><path d="M55.6721 44.5746 55.5742 43.9008 55.543 43.9008C55.329 44.175 55.108 44.3696 54.8811 44.4845 54.6561 44.5968 54.3896 44.6529 54.0816 44.6529 53.6639 44.6529 53.3385 44.5458 53.1062 44.3317 52.8738 44.1175 52.7576 43.8211 52.7576 43.4424 52.7576 43.0272 52.9302 42.7047 53.2748 42.4748 53.6218 42.245 54.1236 42.1235 54.7792 42.1105L55.59 42.087 55.59 41.805C55.59 41.4002 55.5074 41.0946 55.3433 40.8883 55.1787 40.6819 54.9137 40.5788 54.5478 40.5788 54.1533 40.5788 53.7449 40.6885 53.3217 40.9079L53.1769 40.571C53.6441 40.3516 54.1063 40.2419 54.5636 40.2419 55.0308 40.2419 55.3799 40.3634 55.6093 40.6062 55.8421 40.8491 55.9583 41.2278 55.9583 41.7423L55.9583 44.5746ZM54.1054 44.3004C54.5597 44.3004 54.9176 44.1711 55.1787 43.9125 55.4422 43.6514 55.5742 43.2897 55.5742 42.8274L55.5742 42.4082 54.8301 42.4396C54.2319 42.4683 53.8048 42.5623 53.5492 42.7216 53.2955 42.8783 53.169 43.1238 53.169 43.4581 53.169 43.7245 53.25 43.9321 53.4117 44.081 53.5763 44.2272 53.8077 44.3004 54.1054 44.3004Z" fill="#565656" transform="matrix(1 0 0 1.00281 205.49 532.244)"/><path d="M60.3026 44.5746 60.3026 41.8128C60.3026 41.3845 60.2126 41.0737 60.0321 40.8804 59.8522 40.6846 59.5728 40.5866 59.1941 40.5866 58.6849 40.5866 58.3111 40.7159 58.0733 40.9745 57.8385 41.2304 57.7208 41.6469 57.7208 42.2241L57.7208 44.5746 57.3332 44.5746 57.3332 40.3163 57.662 40.3163 57.7367 40.9 57.7599 40.9C58.0368 40.4561 58.5292 40.2341 59.2371 40.2341 60.2032 40.2341 60.6867 40.7524 60.6867 41.7893L60.6867 44.5746Z" fill="#565656" transform="matrix(1 0 0 1.00281 205.49 532.244)"/><path d="M63.5814 44.6529C63.0227 44.6529 62.5891 44.4675 62.2811 44.0967 61.9726 43.7258 61.8184 43.1904 61.8184 42.4905 61.8184 41.7723 61.9726 41.2173 62.2811 40.8256 62.5891 40.4312 63.0306 40.2341 63.6051 40.2341 64.2211 40.2341 64.6824 40.4612 64.9879 40.9157L65.0112 40.9157 65.0819 40.3163 65.4111 40.3163 65.4111 46.5019 65.027 46.5019 65.027 44.8801C65.027 44.5615 65.0349 44.2377 65.0502 43.9086L65.027 43.9086C64.719 44.4048 64.2369 44.6529 63.5814 44.6529ZM63.5893 44.3082C64.1064 44.3082 64.4747 44.1658 64.6938 43.8812 64.9157 43.5965 65.027 43.1186 65.027 42.4474L65.027 42.4004C65.027 41.7606 64.9157 41.2983 64.6938 41.0136 64.4718 40.729 64.1183 40.5866 63.6323 40.5866 63.1725 40.5866 62.823 40.7485 62.5827 41.0724 62.3449 41.3962 62.2262 41.8716 62.2262 42.4983 62.2262 43.0964 62.3424 43.5482 62.5748 43.8538 62.8096 44.1567 63.1478 44.3082 63.5893 44.3082Z" fill="#565656" transform="matrix(1 0 0 1.00281 205.49 532.244)"/><path d="M67.1815 40.3163 67.1815 43.0742C67.1815 43.5025 67.2715 43.8146 67.452 44.0104 67.6319 44.2037 67.9118 44.3004 68.29 44.3004 68.7967 44.3004 69.169 44.1724 69.4068 43.9165 69.6471 43.6605 69.7672 43.2439 69.7672 42.6668L69.7672 40.3163 70.1509 40.3163 70.1509 44.5746 69.8221 44.5746 69.7514 43.987 69.7277 43.987C69.4513 44.4309 68.9589 44.6529 68.2509 44.6529 67.2819 44.6529 66.7979 44.1345 66.7979 43.0977L66.7979 40.3163Z" fill="#565656" transform="matrix(1 0 0 1.00281 205.49 532.244)"/><path d="M71.9648 44.5746 71.5767 44.5746 71.5767 40.3163 71.9648 40.3163ZM71.5223 39.1333C71.5223 38.8826 71.6044 38.7572 71.769 38.7572 71.8501 38.7572 71.9124 38.7899 71.9569 38.8551 72.0039 38.9204 72.0276 39.0131 72.0276 39.1333 72.0276 39.2508 72.0039 39.3435 71.9569 39.4114 71.9124 39.4793 71.8501 39.5132 71.769 39.5132 71.6044 39.5132 71.5223 39.3866 71.5223 39.1333Z" fill="#565656" transform="matrix(1 0 0 1.00281 205.49 532.244)"/><path d="M76.0351 43.4659C76.0351 43.8472 75.8903 44.1411 75.6001 44.3474 75.3103 44.5511 74.899 44.6529 74.3661 44.6529 73.797 44.6529 73.3451 44.5654 73.0109 44.3904L73.0109 43.9713C73.4391 44.1855 73.8909 44.2925 74.3661 44.2925 74.7868 44.2925 75.1052 44.2233 75.3222 44.0849 75.5412 43.9438 75.651 43.7571 75.651 43.5247 75.651 43.3105 75.5635 43.1303 75.3885 42.9841 75.2164 42.8378 74.9316 42.6942 74.5346 42.5532 74.109 42.3991 73.8099 42.2672 73.6373 42.1575 73.4653 42.0452 73.3347 41.9199 73.2458 41.7814 73.1597 41.6404 73.1167 41.4694 73.1167 41.2682 73.1167 40.9497 73.2497 40.6976 73.5162 40.5122 73.7851 40.3268 74.1599 40.2341 74.6404 40.2341 75.1002 40.2341 75.5363 40.3202 75.9486 40.4926L75.8037 40.8452C75.386 40.6728 74.9984 40.5866 74.6404 40.5866 74.2929 40.5866 74.0175 40.6441 73.8138 40.759 73.6101 40.8739 73.5083 41.0332 73.5083 41.2369 73.5083 41.4589 73.5864 41.6365 73.7431 41.7697 73.9028 41.9029 74.2123 42.0518 74.6716 42.2163 75.0557 42.3547 75.3351 42.48 75.5101 42.5924 75.6851 42.702 75.8156 42.8274 75.9016 42.9684 75.9906 43.1095 76.0351 43.2753 76.0351 43.4659Z" fill="#565656" transform="matrix(1 0 0 1.00281 205.49 532.244)"/><path d="M78.8596 44.6529C78.2406 44.6529 77.7571 44.4623 77.41 44.081 77.0654 43.6997 76.8929 43.1656 76.8929 42.4788 76.8929 41.7997 77.06 41.2565 77.3942 40.8491 77.7284 40.439 78.1793 40.2341 78.7459 40.2341 79.2472 40.2341 79.6427 40.409 79.9329 40.759 80.2226 41.1089 80.3675 41.5843 80.3675 42.1849L80.3675 42.4983 77.3003 42.4983C77.3057 43.0834 77.4412 43.5299 77.7076 43.8381 77.9766 44.1463 78.3607 44.3004 78.8596 44.3004 79.1023 44.3004 79.3149 44.2834 79.4978 44.2494 79.6832 44.2155 79.9171 44.1423 80.1994 44.0301L80.1994 44.3826C79.9591 44.4871 79.7371 44.5576 79.5334 44.5942 79.3298 44.6333 79.1048 44.6529 78.8596 44.6529ZM78.7459 40.5788C78.336 40.5788 78.0068 40.7146 77.7586 40.9862 77.5104 41.2552 77.3655 41.6443 77.324 42.1536L79.9562 42.1536C79.9562 41.66 79.8494 41.2748 79.6353 40.998 79.4207 40.7185 79.1246 40.5788 78.7459 40.5788Z" fill="#565656" transform="matrix(1 0 0 1.00281 205.49 532.244)"/></g></g></g></g></svg>