<svg width="1223" height="671" xmlns="http://www.w3.org/2000/svg" xmlns:xlink="http://www.w3.org/1999/xlink" overflow="hidden"><defs><clipPath id="clip0"><rect x="-25" y="14" width="1223" height="671"/></clipPath><clipPath id="clip1"><rect x="991" y="130" width="96" height="96"/></clipPath><clipPath id="clip2"><rect x="991" y="130" width="96" height="96"/></clipPath><clipPath id="clip3"><rect x="991" y="130" width="96" height="96"/></clipPath><clipPath id="clip4"><rect x="1095" y="130" width="96" height="96"/></clipPath><clipPath id="clip5"><rect x="1095" y="130" width="96" height="96"/></clipPath><clipPath id="clip6"><rect x="1095" y="130" width="96" height="96"/></clipPath><clipPath id="clip7"><rect x="678" y="526" width="130" height="130"/></clipPath><clipPath id="clip8"><rect x="678" y="526" width="130" height="130"/></clipPath><clipPath id="clip9"><rect x="678" y="526" width="130" height="130"/></clipPath></defs><g clip-path="url(#clip0)" transform="translate(25 -14)"><path d="M0 0 664.506 551.223" stroke="#7030A0" stroke-width="0.666667" stroke-miterlimit="8" stroke-dasharray="5.33333 2" fill="none" fill-rule="evenodd" transform="matrix(-1 0 0 1 755.006 40.5001)"/><rect x="436" y="221" width="163" height="35" fill="#404040"/><text fill="#FFFFFF" font-family="Verdana,Verdana_MSFontService,sans-serif" font-weight="400" font-size="21" transform="translate(454.033 247)">Prometheus</text><rect x="99" y="221" width="163" height="35" fill="#404040"/><text fill="#FFFFFF" font-family="Verdana,Verdana_MSFontService,sans-serif" font-weight="400" font-size="21" transform="translate(109.3 247)">AlertManager</text><rect x="951" y="221" width="177" height="35" fill="#404040"/><text fill="#FFFFFF" font-family="Verdana,Verdana_MSFontService,sans-serif" font-weight="400" font-size="21" transform="translate(962.945 247)">IPMI_exporter</text><rect x="436" y="49" width="163" height="36" fill="#404040"/><text fill="#FFFFFF" font-family="Verdana,Verdana_MSFontService,sans-serif" font-weight="400" font-size="21" transform="translate(475.47 75)">Grafana</text><path d="M599.5 238.833 944.833 238.833 944.833 240.167 599.5 240.167ZM943.5 235.5 951.5 239.5 943.5 243.5Z" fill="#4472C4"/><path d="M0.504309-0.436023 210.887 242.895 209.878 243.767-0.504309 0.436023ZM212.537 239.707 214.743 248.374 206.485 244.939Z" fill="#ED7D31" transform="matrix(-1 0 0 1 1040.24 256.5)"/><path d="M519.081 256.173 654.229 496.089 653.068 496.743 517.919 256.827ZM656.48 493.292 656.921 502.225 649.509 497.218Z" fill="#4472C4"/><text font-family="Verdana,Verdana_MSFontService,sans-serif" font-style="italic" font-weight="400" font-size="21" transform="translate(557.954 528)">custom_exporter<tspan fill="#7F7F7F" font-size="16" x="-7.74048" y="-33">http:9777</tspan><tspan font-size="21" x="243.164" y="3">BMC</tspan></text><text fill="#ED7D31" font-family="Verdana,Verdana_MSFontService,sans-serif" font-style="italic" font-weight="400" font-size="21" transform="matrix(0.629482 -0.777015 0.777015 0.629482 940.578 412)">ipmi</text><text fill="#4472C4" font-family="Verdana,Verdana_MSFontService,sans-serif" font-style="italic" font-weight="400" font-size="21" transform="matrix(0.499577 0.866269 -0.866269 0.499577 548.386 371)">http</text><text fill="#4472C4" font-family="Verdana,Verdana_MSFontService,sans-serif" font-style="italic" font-weight="400" font-size="21" transform="translate(760.803 266)">http<tspan fill="#7F7F7F" font-size="16" x="103.588" y="-56">http:9290</tspan></text><path d="M4.02557e-07-0.666667 167.2-0.666566 167.2 0.666768-4.02557e-07 0.666667ZM165.867-3.9999 173.867 0.000104987 165.867 4.0001Z" fill="#7F7F7F" transform="matrix(-1 0 0 1 436.367 239.5)"/><path d="M519.167 85.5001 519.167 214.835 517.833 214.835 517.833 85.5001ZM522.5 213.502 518.5 221.502 514.5 213.502Z" fill="#7F7F7F"/><text fill="#7F7F7F" font-family="Verdana,Verdana_MSFontService,sans-serif" font-style="italic" font-weight="400" font-size="16" transform="translate(312.927 261)">push data<tspan font-size="16" x="216.153" y="-116">pull data</tspan></text><text fill="#7F7F7F" font-family="Verdana,Verdana_MSFontService,sans-serif" font-style="italic" font-weight="400" font-size="16" transform="matrix(0.49869 0.86678 -0.86678 0.49869 585.239 340)">pull data</text><text fill="#7F7F7F" font-family="Verdana,Verdana_MSFontService,sans-serif" font-style="italic" font-weight="400" font-size="16" transform="translate(747.607 226)">pull data<tspan font-size="16" x="-524.194" y="-16">http:9093</tspan><tspan font-size="16" x="-328.001" y="-16">http:9090</tspan><tspan font-size="16" x="-270.157" y="-190">http:3000</tspan><tspan fill="#000000" font-style="normal" font-size="21" x="-26.1499" y="441">host</tspan></text><rect x="99" y="49" width="164" height="36" fill="#404040"/><text fill="#FFFFFF" font-family="Verdana,Verdana_MSFontService,sans-serif" font-weight="400" font-size="21" transform="translate(146.153 75)">Karma</text><path d="M182.167 85.5001 182.167 214.835 180.833 214.835 180.833 85.5001ZM185.5 213.502 181.5 221.502 177.5 213.502Z" fill="#7F7F7F"/><text fill="#7F7F7F" font-family="Verdana,Verdana_MSFontService,sans-serif" font-style="italic" font-weight="400" font-size="16" transform="translate(191.995 143)">pull data<tspan font-size="16" x="-51.3218" y="-107">http:8080</tspan></text><g clip-path="url(#clip1)"><g clip-path="url(#clip2)"><g clip-path="url(#clip3)"><path d="M1069.6 147 1008.4 147C1006.51 147.011 1004.99 148.551 1005 150.44 1005 150.44 1005 150.44 1005 150.44L1005 191.78C1005.01 193.569 1006.47 195.013 1008.26 195.004 1008.3 195.004 1008.35 195.002 1008.4 195L1045.8 195 1059 209 1059 195 1069.6 195C1071.39 195.088 1072.91 193.711 1073 191.924 1073 191.876 1073 191.828 1073 191.78L1073 150.44C1073.01 148.551 1071.49 147.011 1069.6 147 1069.6 147 1069.6 147 1069.6 147ZM1012 173 1024 173 1024 177 1012 177ZM1031 185 1012 185 1012 181 1031 181ZM1046 185 1035 185 1035 181 1046 181ZM1049 177 1029 177 1029 173 1049 173ZM1061 185 1050 185 1050 181 1061 181ZM1066 177 1053 177 1053 173 1066 173Z" fill="#4472C4"/></g></g></g><g clip-path="url(#clip4)"><g clip-path="url(#clip5)"><g clip-path="url(#clip6)"><path d="M1112.4 147C1110.51 147.011 1108.99 148.551 1109 150.44 1109 150.44 1109 150.44 1109 150.44L1109 191.92C1109.09 193.707 1110.6 195.087 1112.39 195 1112.39 195 1112.4 195 1112.4 195L1123 195 1123 209 1136.2 195 1173.74 195C1175.53 195.011 1176.99 193.57 1177 191.78 1177 191.78 1177 191.78 1177 191.78L1177 150.44 1177 150.44C1177.01 148.551 1175.49 147.011 1173.6 147 1173.6 147 1173.6 147 1173.6 147ZM1170 177 1158 177 1158 173 1170 173ZM1151 181 1170 181 1170 185 1151 185ZM1136 181 1147 181 1147 185 1136 185ZM1133 173 1153 173 1153 177 1133 177ZM1121 181 1132 181 1132 185 1121 185ZM1116 173 1129 173 1129 177 1116 177Z" fill="#ED7D31"/></g></g></g><path d="M1103 174.25 1083.5 174.25 1083.5 177 1078 171.5 1083.5 166 1083.5 168.75 1103 168.75Z" fill="#404040" fill-rule="evenodd"/><g clip-path="url(#clip7)"><g clip-path="url(#clip8)"><g clip-path="url(#clip9)"><path d="M738.938 616.729 747.062 616.729 747.062 627.562 738.938 627.562Z" fill="#404040"/><path d="M738.938 632.979 747.062 632.979 747.062 641.104 738.938 641.104Z" fill="#404040"/><path d="M752.479 632.979 791.75 632.979 791.75 641.104 752.479 641.104Z" fill="#404040"/><path d="M694.25 632.979 733.521 632.979 733.521 641.104 694.25 641.104Z" fill="#404040"/><path d="M781.485 595.062 704.515 595.062C701.837 595.062 699.667 597.233 699.667 599.91L699.667 611.881C699.667 614.559 701.837 616.729 704.515 616.729L781.485 616.729C784.163 616.729 786.333 614.559 786.333 611.881L786.333 599.91C786.333 597.233 784.163 595.062 781.485 595.062ZM713.208 608.604C711.713 608.604 710.5 607.392 710.5 605.896 710.5 604.4 711.713 603.188 713.208 603.188 714.704 603.188 715.917 604.4 715.917 605.896 715.917 607.392 714.704 608.604 713.208 608.604ZM726.75 608.604C725.254 608.604 724.042 607.392 724.042 605.896 724.042 604.4 725.254 603.188 726.75 603.188 728.246 603.188 729.458 604.4 729.458 605.896 729.458 607.392 728.246 608.604 726.75 608.604ZM740.292 608.604C738.796 608.604 737.583 607.392 737.583 605.896 737.583 604.4 738.796 603.188 740.292 603.188 741.787 603.188 743 604.4 743 605.896 743 607.392 741.787 608.604 740.292 608.604Z" fill="#404040"/><path d="M781.485 567.979 704.515 567.979C701.837 567.979 699.667 570.15 699.667 572.827L699.667 584.798C699.667 587.475 701.837 589.646 704.515 589.646L781.485 589.646C784.163 589.646 786.333 587.475 786.333 584.798L786.333 572.827C786.333 570.15 784.163 567.979 781.485 567.979ZM713.208 581.521C711.713 581.521 710.5 580.308 710.5 578.812 710.5 577.317 711.713 576.104 713.208 576.104 714.704 576.104 715.917 577.317 715.917 578.812 715.917 580.308 714.704 581.521 713.208 581.521ZM726.75 581.521C725.254 581.521 724.042 580.308 724.042 578.812 724.042 577.317 725.254 576.104 726.75 576.104 728.246 576.104 729.458 577.317 729.458 578.812 729.458 580.308 728.246 581.521 726.75 581.521ZM740.292 581.521C738.796 581.521 737.583 580.308 737.583 578.812 737.583 577.317 738.796 576.104 740.292 576.104 741.787 576.104 743 577.317 743 578.812 743 580.308 741.787 581.521 740.292 581.521Z" fill="#404040"/><path d="M781.485 540.896 704.515 540.896C701.837 540.896 699.667 543.066 699.667 545.744L699.667 557.715C699.667 560.392 701.837 562.562 704.515 562.562L781.485 562.562C784.163 562.562 786.333 560.392 786.333 557.715L786.333 545.744C786.333 543.066 784.163 540.896 781.485 540.896ZM713.208 554.438C711.713 554.438 710.5 553.225 710.5 551.729 710.5 550.233 711.713 549.021 713.208 549.021 714.704 549.021 715.917 550.233 715.917 551.729 715.917 553.225 714.704 554.438 713.208 554.438ZM726.75 554.438C725.254 554.438 724.042 553.225 724.042 551.729 724.042 550.233 725.254 549.021 726.75 549.021 728.246 549.021 729.458 550.233 729.458 551.729 729.458 553.225 728.246 554.438 726.75 554.438ZM740.292 554.438C738.796 554.438 737.583 553.225 737.583 551.729 737.583 550.233 738.796 549.021 740.292 549.021 741.787 549.021 743 550.233 743 551.729 743 553.225 741.787 554.438 740.292 554.438Z" fill="#404040"/></g></g></g><path d="M182.167 256.5 182.167 383.051 180.833 383.051 180.833 256.5ZM185.5 381.718 181.5 389.718 177.5 381.718Z" fill="#7F7F7F"/><rect x="99" y="390" width="163" height="35" fill="#404040"/><text fill="#FFFFFF" font-family="Verdana,Verdana_MSFontService,sans-serif" font-weight="400" font-size="21" transform="translate(111.76 415)">Am<tspan font-size="21" x="35.5" y="0">-</tspan><tspan font-size="21" x="45.1667" y="0">executor</tspan><tspan fill="#7F7F7F" font-style="italic" font-size="16" x="84.1978" y="-83">push data</tspan><tspan fill="#7F7F7F" font-style="italic" font-size="16" x="78.6977" y="-37">http:23222</tspan><tspan fill="#7030A0" font-style="italic" font-size="16" x="39.6864" y="176">Data gathering</tspan><tspan fill="#7030A0" font-style="italic" font-size="16" x="-88.2604" y="91">Data processing</tspan><tspan fill="#7F7F7F" font-style="italic" font-size="16" x="895.661" y="-283">Translate </tspan><tspan fill="#7F7F7F" font-style="italic" font-size="16" x="975.995" y="-283">ipmi</tspan><tspan fill="#7F7F7F" font-style="italic" font-size="16" x="1015.83" y="-283">to http</tspan></text></g></svg>