<svg width="431" height="397" xmlns="http://www.w3.org/2000/svg" xmlns:xlink="http://www.w3.org/1999/xlink" overflow="hidden"><g transform="translate(-230 -75)"><path d="M231.5 284.5C231.5 239.765 270.004 203.5 317.5 203.5 364.997 203.5 403.5 239.765 403.5 284.5 403.5 329.235 364.997 365.5 317.5 365.5 270.004 365.5 231.5 329.235 231.5 284.5Z" stroke="#7030A0" stroke-width="1.33333" stroke-miterlimit="8" fill="#CC00FF" fill-rule="evenodd" fill-opacity="0.298039"/><path d="M437.5 261C437.5 215.989 476.004 179.5 523.5 179.5 570.997 179.5 609.5 215.989 609.5 261 609.5 306.011 570.997 342.5 523.5 342.5 476.004 342.5 437.5 306.011 437.5 261Z" stroke="#92D050" stroke-width="1.33333" stroke-miterlimit="8" fill="#66FF66" fill-rule="evenodd" fill-opacity="0.298039"/><path d="M283.5 389C283.5 343.989 322.004 307.5 369.5 307.5 416.997 307.5 455.5 343.989 455.5 389 455.5 434.011 416.997 470.5 369.5 470.5 322.004 470.5 283.5 434.011 283.5 389Z" stroke="#FF0000" stroke-width="1.33333" stroke-miterlimit="8" fill="#FF6600" fill-rule="evenodd" fill-opacity="0.298039"/><path d="M373.5 165C373.5 119.989 412.004 83.5001 459.5 83.5001 506.997 83.5001 545.5 119.989 545.5 165 545.5 210.011 506.997 246.5 459.5 246.5 412.004 246.5 373.5 210.011 373.5 165Z" stroke="#4472C4" stroke-width="1.33333" stroke-miterlimit="8" fill="#8FAADC" fill-rule="evenodd" fill-opacity="0.301961"/><path d="M247.928 385.802C227.329 357.851 301.991 267.861 414.691 184.803 527.391 101.746 635.451 57.0731 656.051 85.0244 676.65 112.976 601.988 202.966 489.288 286.023 376.588 369.081 268.528 413.753 247.928 385.802Z" stroke="#FFC000" stroke-width="1.33333" stroke-miterlimit="8" fill="#FFCC66" fill-rule="evenodd" fill-opacity="0.298039"/><text fill="#595959" font-family="Consolas,Consolas_MSFontService,sans-serif" font-weight="400" font-size="13" transform="translate(554.41 121)">os_debian_12</text><text fill="#595959" font-family="Consolas,Consolas_MSFontService,sans-serif" font-weight="400" font-size="13" transform="translate(407.62 117)">fn_management</text><text fill="#595959" font-family="Consolas,Consolas_MSFontService,sans-serif" font-weight="400" font-size="13" transform="translate(361.064 416)">fn_worker</text><text fill="#595959" font-family="Consolas,Consolas_MSFontService,sans-serif" font-weight="400" font-size="13" transform="translate(268.496 251)">hw_X1</text><text fill="#595959" font-family="Consolas,Consolas_MSFontService,sans-serif" font-weight="400" font-size="13" transform="translate(534.061 296)">hw_X2</text><text fill="#595959" font-family="Consolas,Consolas_MSFontService,sans-serif" font-weight="400" font-size="13" transform="translate(519.721 398)">B,C</text><text fill="#595959" font-family="Consolas,Consolas_MSFontService,sans-serif" font-weight="400" font-size="13" transform="translate(640.307 215)">A</text><path d="M510.107 393.821 359.666 340.057 359.89 339.43 510.331 393.194ZM359.687 343.959 353.5 337.5 362.38 336.426Z"/><path d="M2.73211e-07-0.333333 121.423-0.333234 121.423 0.333433-2.73211e-07 0.333333ZM120.09-3.9999 128.09 0.000104987 120.09 4.0001Z" transform="matrix(-1 0 0 1 631.59 210.5)"/></g></svg>