<svg width="622" height="566" xmlns="http://www.w3.org/2000/svg" xmlns:xlink="http://www.w3.org/1999/xlink" overflow="hidden"><defs><clipPath id="clip0"><rect x="125" y="32" width="622" height="566"/></clipPath><clipPath id="clip1"><rect x="608" y="77" width="78" height="20"/></clipPath><clipPath id="clip2"><rect x="608" y="77" width="78" height="20"/></clipPath><clipPath id="clip3"><rect x="599" y="68" width="96" height="96"/></clipPath><clipPath id="clip4"><rect x="242" y="324" width="79" height="20"/></clipPath><clipPath id="clip5"><rect x="242" y="324" width="79" height="20"/></clipPath><clipPath id="clip6"><rect x="233" y="315" width="97" height="96"/></clipPath><clipPath id="clip7"><rect x="129" y="402" width="96" height="96"/></clipPath><clipPath id="clip8"><rect x="129" y="402" width="96" height="96"/></clipPath><clipPath id="clip9"><rect x="129" y="402" width="96" height="96"/></clipPath><clipPath id="clip10"><rect x="233" y="402" width="96" height="96"/></clipPath><clipPath id="clip11"><rect x="233" y="402" width="96" height="96"/></clipPath><clipPath id="clip12"><rect x="233" y="402" width="96" height="96"/></clipPath><clipPath id="clip13"><rect x="338" y="402" width="96" height="96"/></clipPath><clipPath id="clip14"><rect x="338" y="402" width="96" height="96"/></clipPath><clipPath id="clip15"><rect x="338" y="402" width="96" height="96"/></clipPath><clipPath id="clip16"><rect x="129" y="498" width="96" height="96"/></clipPath><clipPath id="clip17"><rect x="129" y="498" width="96" height="96"/></clipPath><clipPath id="clip18"><rect x="129" y="498" width="96" height="96"/></clipPath><clipPath id="clip19"><rect x="233" y="498" width="96" height="96"/></clipPath><clipPath id="clip20"><rect x="233" y="498" width="96" height="96"/></clipPath><clipPath id="clip21"><rect x="233" y="498" width="96" height="96"/></clipPath><clipPath id="clip22"><rect x="338" y="498" width="96" height="96"/></clipPath><clipPath id="clip23"><rect x="338" y="498" width="96" height="96"/></clipPath><clipPath id="clip24"><rect x="338" y="498" width="96" height="96"/></clipPath><clipPath id="clip25"><rect x="625" y="139" width="35" height="35"/></clipPath><clipPath id="clip26"><rect x="625" y="139" width="35" height="35"/></clipPath><clipPath id="clip27"><rect x="625" y="139" width="35" height="35"/></clipPath><clipPath id="clip28"><rect x="465" y="171" width="42" height="43"/></clipPath><clipPath id="clip29"><rect x="465" y="171" width="42" height="43"/></clipPath><clipPath id="clip30"><rect x="465" y="171" width="42" height="43"/></clipPath><clipPath id="clip31"><rect x="454" y="178" width="43" height="42"/></clipPath><clipPath id="clip32"><rect x="454" y="178" width="43" height="42"/></clipPath><clipPath id="clip33"><rect x="454" y="178" width="43" height="42"/></clipPath><clipPath id="clip34"><rect x="443" y="184" width="43" height="42"/></clipPath><clipPath id="clip35"><rect x="443" y="184" width="43" height="42"/></clipPath><clipPath id="clip36"><rect x="443" y="184" width="43" height="42"/></clipPath><clipPath id="clip37"><rect x="381" y="222" width="43" height="43"/></clipPath><clipPath id="clip38"><rect x="381" y="222" width="43" height="43"/></clipPath><clipPath id="clip39"><rect x="381" y="222" width="43" height="43"/></clipPath><clipPath id="clip40"><rect x="370" y="229" width="43" height="42"/></clipPath><clipPath id="clip41"><rect x="370" y="229" width="43" height="42"/></clipPath><clipPath id="clip42"><rect x="370" y="229" width="43" height="42"/></clipPath><clipPath id="clip43"><rect x="360" y="235" width="42" height="42"/></clipPath><clipPath id="clip44"><rect x="360" y="235" width="42" height="42"/></clipPath><clipPath id="clip45"><rect x="360" y="235" width="42" height="42"/></clipPath><clipPath id="clip46"><rect x="549" y="119" width="43" height="43"/></clipPath><clipPath id="clip47"><rect x="549" y="119" width="43" height="43"/></clipPath><clipPath id="clip48"><rect x="549" y="119" width="43" height="43"/></clipPath><clipPath id="clip49"><rect x="538" y="126" width="43" height="42"/></clipPath><clipPath id="clip50"><rect x="538" y="126" width="43" height="42"/></clipPath><clipPath id="clip51"><rect x="538" y="126" width="43" height="42"/></clipPath><clipPath id="clip52"><rect x="527" y="132" width="43" height="42"/></clipPath><clipPath id="clip53"><rect x="527" y="132" width="43" height="42"/></clipPath><clipPath id="clip54"><rect x="527" y="132" width="43" height="42"/></clipPath></defs><g clip-path="url(#clip0)" transform="translate(-125 -32)"><g clip-path="url(#clip1)"><g clip-path="url(#clip2)"><g clip-path="url(#clip3)"><path d="M44.4439 66.1721 50.3698 66.1721 50.3698 74.0732 44.4439 74.0732Z" fill="#262626" transform="matrix(1.00286 0 -0 1 599.137 68.2364)"/><path d="M44.4439 78.0238 50.3698 78.0238 50.3698 83.9496 44.4439 83.9496Z" fill="#262626" transform="matrix(1.00286 0 -0 1 599.137 68.2364)"/><path d="M54.3203 78.0238 82.962 78.0238 82.962 83.9496 54.3203 83.9496Z" fill="#262626" transform="matrix(1.00286 0 -0 1 599.137 68.2364)"/><path d="M11.8517 78.0238 40.4933 78.0238 40.4933 83.9496 11.8517 83.9496Z" fill="#262626" transform="matrix(1.00286 0 -0 1 599.137 68.2364)"/><path d="M75.4756 50.3698 19.338 50.3698C17.3853 50.3698 15.8023 51.9528 15.8023 53.9055L15.8023 62.6363C15.8023 64.5891 17.3853 66.1721 19.338 66.1721L75.4756 66.1721C77.4284 66.1721 79.0114 64.5891 79.0114 62.6363L79.0114 53.9055C79.0114 51.9528 77.4284 50.3698 75.4756 50.3698ZM25.6787 60.2462C24.5878 60.2462 23.7034 59.3619 23.7034 58.2709 23.7034 57.18 24.5878 56.2956 25.6787 56.2956 26.7697 56.2956 27.654 57.18 27.654 58.2709 27.654 59.3619 26.7697 60.2462 25.6787 60.2462ZM35.5551 60.2462C34.4642 60.2462 33.5798 59.3619 33.5798 58.2709 33.5798 57.18 34.4642 56.2956 35.5551 56.2956 36.6461 56.2956 37.5304 57.18 37.5304 58.2709 37.5304 59.3619 36.6461 60.2462 35.5551 60.2462ZM45.4316 60.2462C44.3406 60.2462 43.4563 59.3619 43.4563 58.2709 43.4563 57.18 44.3406 56.2956 45.4316 56.2956 46.5225 56.2956 47.4068 57.18 47.4068 58.2709 47.4068 59.3619 46.5225 60.2462 45.4316 60.2462Z" fill="#262626" transform="matrix(1.00286 0 -0 1 599.137 68.2364)"/><path d="M75.4756 30.6169 19.338 30.6169C17.3853 30.6169 15.8023 32.1999 15.8023 34.1527L15.8023 42.8834C15.8023 44.8362 17.3853 46.4192 19.338 46.4192L75.4756 46.4192C77.4284 46.4192 79.0114 44.8362 79.0114 42.8834L79.0114 34.1527C79.0114 32.1999 77.4284 30.6169 75.4756 30.6169ZM25.6787 40.4933C24.5878 40.4933 23.7034 39.609 23.7034 38.5181 23.7034 37.4271 24.5878 36.5428 25.6787 36.5428 26.7697 36.5428 27.654 37.4271 27.654 38.5181 27.654 39.609 26.7697 40.4933 25.6787 40.4933ZM35.5551 40.4933C34.4642 40.4933 33.5798 39.609 33.5798 38.5181 33.5798 37.4271 34.4642 36.5428 35.5551 36.5428 36.6461 36.5428 37.5304 37.4271 37.5304 38.5181 37.5304 39.609 36.6461 40.4933 35.5551 40.4933ZM45.4316 40.4933C44.3406 40.4933 43.4563 39.609 43.4563 38.5181 43.4563 37.4271 44.3406 36.5428 45.4316 36.5428 46.5225 36.5428 47.4068 37.4271 47.4068 38.5181 47.4068 39.609 46.5225 40.4933 45.4316 40.4933Z" fill="#262626" transform="matrix(1.00286 0 -0 1 599.137 68.2364)"/><path d="M75.4756 10.8641 19.338 10.8641C17.3853 10.8641 15.8023 12.4471 15.8023 14.3998L15.8023 23.1306C15.8023 25.0834 17.3853 26.6663 19.338 26.6663L75.4756 26.6663C77.4284 26.6663 79.0114 25.0834 79.0114 23.1306L79.0114 14.3998C79.0114 12.4471 77.4284 10.8641 75.4756 10.8641ZM25.6787 20.7405C24.5878 20.7405 23.7034 19.8562 23.7034 18.7652 23.7034 17.6743 24.5878 16.7899 25.6787 16.7899 26.7697 16.7899 27.654 17.6743 27.654 18.7652 27.654 19.8562 26.7697 20.7405 25.6787 20.7405ZM35.5551 20.7405C34.4642 20.7405 33.5798 19.8562 33.5798 18.7652 33.5798 17.6743 34.4642 16.7899 35.5551 16.7899 36.6461 16.7899 37.5304 17.6743 37.5304 18.7652 37.5304 19.8562 36.6461 20.7405 35.5551 20.7405ZM45.4316 20.7405C44.3406 20.7405 43.4563 19.8562 43.4563 18.7652 43.4563 17.6743 44.3406 16.7899 45.4316 16.7899 46.5225 16.7899 47.4068 17.6743 47.4068 18.7652 47.4068 19.8562 46.5225 20.7405 45.4316 20.7405Z" fill="#262626" transform="matrix(1.00286 0 -0 1 599.137 68.2364)"/></g></g></g><g clip-path="url(#clip4)"><g clip-path="url(#clip5)"><g clip-path="url(#clip6)"><path d="M44.4439 66.1721 50.3698 66.1721 50.3698 74.0732 44.4439 74.0732Z" fill="#262626" transform="matrix(1.01572 0 -0 1 233.024 315.236)"/><path d="M44.4439 78.0238 50.3698 78.0238 50.3698 83.9496 44.4439 83.9496Z" fill="#262626" transform="matrix(1.01572 0 -0 1 233.024 315.236)"/><path d="M54.3203 78.0238 82.962 78.0238 82.962 83.9496 54.3203 83.9496Z" fill="#262626" transform="matrix(1.01572 0 -0 1 233.024 315.236)"/><path d="M11.8517 78.0238 40.4933 78.0238 40.4933 83.9496 11.8517 83.9496Z" fill="#262626" transform="matrix(1.01572 0 -0 1 233.024 315.236)"/><path d="M75.4756 50.3698 19.338 50.3698C17.3853 50.3698 15.8023 51.9528 15.8023 53.9055L15.8023 62.6363C15.8023 64.5891 17.3853 66.1721 19.338 66.1721L75.4756 66.1721C77.4284 66.1721 79.0114 64.5891 79.0114 62.6363L79.0114 53.9055C79.0114 51.9528 77.4284 50.3698 75.4756 50.3698ZM25.6787 60.2462C24.5878 60.2462 23.7034 59.3619 23.7034 58.2709 23.7034 57.18 24.5878 56.2956 25.6787 56.2956 26.7697 56.2956 27.654 57.18 27.654 58.2709 27.654 59.3619 26.7697 60.2462 25.6787 60.2462ZM35.5551 60.2462C34.4642 60.2462 33.5798 59.3619 33.5798 58.2709 33.5798 57.18 34.4642 56.2956 35.5551 56.2956 36.6461 56.2956 37.5304 57.18 37.5304 58.2709 37.5304 59.3619 36.6461 60.2462 35.5551 60.2462ZM45.4316 60.2462C44.3406 60.2462 43.4563 59.3619 43.4563 58.2709 43.4563 57.18 44.3406 56.2956 45.4316 56.2956 46.5225 56.2956 47.4068 57.18 47.4068 58.2709 47.4068 59.3619 46.5225 60.2462 45.4316 60.2462Z" fill="#262626" transform="matrix(1.01572 0 -0 1 233.024 315.236)"/><path d="M75.4756 30.6169 19.338 30.6169C17.3853 30.6169 15.8023 32.1999 15.8023 34.1527L15.8023 42.8834C15.8023 44.8362 17.3853 46.4192 19.338 46.4192L75.4756 46.4192C77.4284 46.4192 79.0114 44.8362 79.0114 42.8834L79.0114 34.1527C79.0114 32.1999 77.4284 30.6169 75.4756 30.6169ZM25.6787 40.4933C24.5878 40.4933 23.7034 39.609 23.7034 38.5181 23.7034 37.4271 24.5878 36.5428 25.6787 36.5428 26.7697 36.5428 27.654 37.4271 27.654 38.5181 27.654 39.609 26.7697 40.4933 25.6787 40.4933ZM35.5551 40.4933C34.4642 40.4933 33.5798 39.609 33.5798 38.5181 33.5798 37.4271 34.4642 36.5428 35.5551 36.5428 36.6461 36.5428 37.5304 37.4271 37.5304 38.5181 37.5304 39.609 36.6461 40.4933 35.5551 40.4933ZM45.4316 40.4933C44.3406 40.4933 43.4563 39.609 43.4563 38.5181 43.4563 37.4271 44.3406 36.5428 45.4316 36.5428 46.5225 36.5428 47.4068 37.4271 47.4068 38.5181 47.4068 39.609 46.5225 40.4933 45.4316 40.4933Z" fill="#262626" transform="matrix(1.01572 0 -0 1 233.024 315.236)"/><path d="M75.4756 10.8641 19.338 10.8641C17.3853 10.8641 15.8023 12.4471 15.8023 14.3998L15.8023 23.1306C15.8023 25.0834 17.3853 26.6663 19.338 26.6663L75.4756 26.6663C77.4284 26.6663 79.0114 25.0834 79.0114 23.1306L79.0114 14.3998C79.0114 12.4471 77.4284 10.8641 75.4756 10.8641ZM25.6787 20.7405C24.5878 20.7405 23.7034 19.8562 23.7034 18.7652 23.7034 17.6743 24.5878 16.7899 25.6787 16.7899 26.7697 16.7899 27.654 17.6743 27.654 18.7652 27.654 19.8562 26.7697 20.7405 25.6787 20.7405ZM35.5551 20.7405C34.4642 20.7405 33.5798 19.8562 33.5798 18.7652 33.5798 17.6743 34.4642 16.7899 35.5551 16.7899 36.6461 16.7899 37.5304 17.6743 37.5304 18.7652 37.5304 19.8562 36.6461 20.7405 35.5551 20.7405ZM45.4316 20.7405C44.3406 20.7405 43.4563 19.8562 43.4563 18.7652 43.4563 17.6743 44.3406 16.7899 45.4316 16.7899 46.5225 16.7899 47.4068 17.6743 47.4068 18.7652 47.4068 19.8562 46.5225 20.7405 45.4316 20.7405Z" fill="#262626" transform="matrix(1.01572 0 -0 1 233.024 315.236)"/></g></g></g><g clip-path="url(#clip7)"><g clip-path="url(#clip8)"><g clip-path="url(#clip9)"><path d="M174 469 180 469 180 477 174 477Z" fill="#262626"/><path d="M174 481 180 481 180 487 174 487Z" fill="#262626"/><path d="M184 481 213 481 213 487 184 487Z" fill="#262626"/><path d="M141 481 170 481 170 487 141 487Z" fill="#262626"/><path d="M205.42 453 148.58 453C146.603 453 145 454.603 145 456.58L145 465.42C145 467.397 146.603 469 148.58 469L205.42 469C207.397 469 209 467.397 209 465.42L209 456.58C209 454.603 207.397 453 205.42 453ZM155 463C153.895 463 153 462.105 153 461 153 459.895 153.895 459 155 459 156.105 459 157 459.895 157 461 157 462.105 156.105 463 155 463ZM165 463C163.895 463 163 462.105 163 461 163 459.895 163.895 459 165 459 166.105 459 167 459.895 167 461 167 462.105 166.105 463 165 463ZM175 463C173.895 463 173 462.105 173 461 173 459.895 173.895 459 175 459 176.105 459 177 459.895 177 461 177 462.105 176.105 463 175 463Z" fill="#262626"/><path d="M205.42 433 148.58 433C146.603 433 145 434.603 145 436.58L145 445.42C145 447.397 146.603 449 148.58 449L205.42 449C207.397 449 209 447.397 209 445.42L209 436.58C209 434.603 207.397 433 205.42 433ZM155 443C153.895 443 153 442.105 153 441 153 439.895 153.895 439 155 439 156.105 439 157 439.895 157 441 157 442.105 156.105 443 155 443ZM165 443C163.895 443 163 442.105 163 441 163 439.895 163.895 439 165 439 166.105 439 167 439.895 167 441 167 442.105 166.105 443 165 443ZM175 443C173.895 443 173 442.105 173 441 173 439.895 173.895 439 175 439 176.105 439 177 439.895 177 441 177 442.105 176.105 443 175 443Z" fill="#262626"/><path d="M205.42 413 148.58 413C146.603 413 145 414.603 145 416.58L145 425.42C145 427.397 146.603 429 148.58 429L205.42 429C207.397 429 209 427.397 209 425.42L209 416.58C209 414.603 207.397 413 205.42 413ZM155 423C153.895 423 153 422.105 153 421 153 419.895 153.895 419 155 419 156.105 419 157 419.895 157 421 157 422.105 156.105 423 155 423ZM165 423C163.895 423 163 422.105 163 421 163 419.895 163.895 419 165 419 166.105 419 167 419.895 167 421 167 422.105 166.105 423 165 423ZM175 423C173.895 423 173 422.105 173 421 173 419.895 173.895 419 175 419 176.105 419 177 419.895 177 421 177 422.105 176.105 423 175 423Z" fill="#262626"/></g></g></g><g clip-path="url(#clip10)"><g clip-path="url(#clip11)"><g clip-path="url(#clip12)"><path d="M278 469 284 469 284 477 278 477Z" fill="#262626"/><path d="M278 481 284 481 284 487 278 487Z" fill="#262626"/><path d="M288 481 317 481 317 487 288 487Z" fill="#262626"/><path d="M245 481 274 481 274 487 245 487Z" fill="#262626"/><path d="M309.42 453 252.58 453C250.603 453 249 454.603 249 456.58L249 465.42C249 467.397 250.603 469 252.58 469L309.42 469C311.397 469 313 467.397 313 465.42L313 456.58C313 454.603 311.397 453 309.42 453ZM259 463C257.895 463 257 462.105 257 461 257 459.895 257.895 459 259 459 260.105 459 261 459.895 261 461 261 462.105 260.105 463 259 463ZM269 463C267.895 463 267 462.105 267 461 267 459.895 267.895 459 269 459 270.105 459 271 459.895 271 461 271 462.105 270.105 463 269 463ZM279 463C277.895 463 277 462.105 277 461 277 459.895 277.895 459 279 459 280.105 459 281 459.895 281 461 281 462.105 280.105 463 279 463Z" fill="#262626"/><path d="M309.42 433 252.58 433C250.603 433 249 434.603 249 436.58L249 445.42C249 447.397 250.603 449 252.58 449L309.42 449C311.397 449 313 447.397 313 445.42L313 436.58C313 434.603 311.397 433 309.42 433ZM259 443C257.895 443 257 442.105 257 441 257 439.895 257.895 439 259 439 260.105 439 261 439.895 261 441 261 442.105 260.105 443 259 443ZM269 443C267.895 443 267 442.105 267 441 267 439.895 267.895 439 269 439 270.105 439 271 439.895 271 441 271 442.105 270.105 443 269 443ZM279 443C277.895 443 277 442.105 277 441 277 439.895 277.895 439 279 439 280.105 439 281 439.895 281 441 281 442.105 280.105 443 279 443Z" fill="#262626"/><path d="M309.42 413 252.58 413C250.603 413 249 414.603 249 416.58L249 425.42C249 427.397 250.603 429 252.58 429L309.42 429C311.397 429 313 427.397 313 425.42L313 416.58C313 414.603 311.397 413 309.42 413ZM259 423C257.895 423 257 422.105 257 421 257 419.895 257.895 419 259 419 260.105 419 261 419.895 261 421 261 422.105 260.105 423 259 423ZM269 423C267.895 423 267 422.105 267 421 267 419.895 267.895 419 269 419 270.105 419 271 419.895 271 421 271 422.105 270.105 423 269 423ZM279 423C277.895 423 277 422.105 277 421 277 419.895 277.895 419 279 419 280.105 419 281 419.895 281 421 281 422.105 280.105 423 279 423Z" fill="#262626"/></g></g></g><g clip-path="url(#clip13)"><g clip-path="url(#clip14)"><g clip-path="url(#clip15)"><path d="M383 469 389 469 389 477 383 477Z" fill="#262626"/><path d="M383 481 389 481 389 487 383 487Z" fill="#262626"/><path d="M393 481 422 481 422 487 393 487Z" fill="#262626"/><path d="M350 481 379 481 379 487 350 487Z" fill="#262626"/><path d="M414.42 453 357.58 453C355.603 453 354 454.603 354 456.58L354 465.42C354 467.397 355.603 469 357.58 469L414.42 469C416.397 469 418 467.397 418 465.42L418 456.58C418 454.603 416.397 453 414.42 453ZM364 463C362.895 463 362 462.105 362 461 362 459.895 362.895 459 364 459 365.105 459 366 459.895 366 461 366 462.105 365.105 463 364 463ZM374 463C372.895 463 372 462.105 372 461 372 459.895 372.895 459 374 459 375.105 459 376 459.895 376 461 376 462.105 375.105 463 374 463ZM384 463C382.895 463 382 462.105 382 461 382 459.895 382.895 459 384 459 385.105 459 386 459.895 386 461 386 462.105 385.105 463 384 463Z" fill="#262626"/><path d="M414.42 433 357.58 433C355.603 433 354 434.603 354 436.58L354 445.42C354 447.397 355.603 449 357.58 449L414.42 449C416.397 449 418 447.397 418 445.42L418 436.58C418 434.603 416.397 433 414.42 433ZM364 443C362.895 443 362 442.105 362 441 362 439.895 362.895 439 364 439 365.105 439 366 439.895 366 441 366 442.105 365.105 443 364 443ZM374 443C372.895 443 372 442.105 372 441 372 439.895 372.895 439 374 439 375.105 439 376 439.895 376 441 376 442.105 375.105 443 374 443ZM384 443C382.895 443 382 442.105 382 441 382 439.895 382.895 439 384 439 385.105 439 386 439.895 386 441 386 442.105 385.105 443 384 443Z" fill="#262626"/><path d="M414.42 413 357.58 413C355.603 413 354 414.603 354 416.58L354 425.42C354 427.397 355.603 429 357.58 429L414.42 429C416.397 429 418 427.397 418 425.42L418 416.58C418 414.603 416.397 413 414.42 413ZM364 423C362.895 423 362 422.105 362 421 362 419.895 362.895 419 364 419 365.105 419 366 419.895 366 421 366 422.105 365.105 423 364 423ZM374 423C372.895 423 372 422.105 372 421 372 419.895 372.895 419 374 419 375.105 419 376 419.895 376 421 376 422.105 375.105 423 374 423ZM384 423C382.895 423 382 422.105 382 421 382 419.895 382.895 419 384 419 385.105 419 386 419.895 386 421 386 422.105 385.105 423 384 423Z" fill="#262626"/></g></g></g><g clip-path="url(#clip16)"><g clip-path="url(#clip17)"><g clip-path="url(#clip18)"><path d="M174 565 180 565 180 573 174 573Z" fill="#262626"/><path d="M174 577 180 577 180 583 174 583Z" fill="#262626"/><path d="M184 577 213 577 213 583 184 583Z" fill="#262626"/><path d="M141 577 170 577 170 583 141 583Z" fill="#262626"/><path d="M205.42 549 148.58 549C146.603 549 145 550.603 145 552.58L145 561.42C145 563.397 146.603 565 148.58 565L205.42 565C207.397 565 209 563.397 209 561.42L209 552.58C209 550.603 207.397 549 205.42 549ZM155 559C153.895 559 153 558.105 153 557 153 555.895 153.895 555 155 555 156.105 555 157 555.895 157 557 157 558.105 156.105 559 155 559ZM165 559C163.895 559 163 558.105 163 557 163 555.895 163.895 555 165 555 166.105 555 167 555.895 167 557 167 558.105 166.105 559 165 559ZM175 559C173.895 559 173 558.105 173 557 173 555.895 173.895 555 175 555 176.105 555 177 555.895 177 557 177 558.105 176.105 559 175 559Z" fill="#262626"/><path d="M205.42 529 148.58 529C146.603 529 145 530.603 145 532.58L145 541.42C145 543.397 146.603 545 148.58 545L205.42 545C207.397 545 209 543.397 209 541.42L209 532.58C209 530.603 207.397 529 205.42 529ZM155 539C153.895 539 153 538.105 153 537 153 535.895 153.895 535 155 535 156.105 535 157 535.895 157 537 157 538.105 156.105 539 155 539ZM165 539C163.895 539 163 538.105 163 537 163 535.895 163.895 535 165 535 166.105 535 167 535.895 167 537 167 538.105 166.105 539 165 539ZM175 539C173.895 539 173 538.105 173 537 173 535.895 173.895 535 175 535 176.105 535 177 535.895 177 537 177 538.105 176.105 539 175 539Z" fill="#262626"/><path d="M205.42 509 148.58 509C146.603 509 145 510.603 145 512.58L145 521.42C145 523.397 146.603 525 148.58 525L205.42 525C207.397 525 209 523.397 209 521.42L209 512.58C209 510.603 207.397 509 205.42 509ZM155 519C153.895 519 153 518.105 153 517 153 515.895 153.895 515 155 515 156.105 515 157 515.895 157 517 157 518.105 156.105 519 155 519ZM165 519C163.895 519 163 518.105 163 517 163 515.895 163.895 515 165 515 166.105 515 167 515.895 167 517 167 518.105 166.105 519 165 519ZM175 519C173.895 519 173 518.105 173 517 173 515.895 173.895 515 175 515 176.105 515 177 515.895 177 517 177 518.105 176.105 519 175 519Z" fill="#262626"/></g></g></g><g clip-path="url(#clip19)"><g clip-path="url(#clip20)"><g clip-path="url(#clip21)"><path d="M278 565 284 565 284 573 278 573Z" fill="#262626"/><path d="M278 577 284 577 284 583 278 583Z" fill="#262626"/><path d="M288 577 317 577 317 583 288 583Z" fill="#262626"/><path d="M245 577 274 577 274 583 245 583Z" fill="#262626"/><path d="M309.42 549 252.58 549C250.603 549 249 550.603 249 552.58L249 561.42C249 563.397 250.603 565 252.58 565L309.42 565C311.397 565 313 563.397 313 561.42L313 552.58C313 550.603 311.397 549 309.42 549ZM259 559C257.895 559 257 558.105 257 557 257 555.895 257.895 555 259 555 260.105 555 261 555.895 261 557 261 558.105 260.105 559 259 559ZM269 559C267.895 559 267 558.105 267 557 267 555.895 267.895 555 269 555 270.105 555 271 555.895 271 557 271 558.105 270.105 559 269 559ZM279 559C277.895 559 277 558.105 277 557 277 555.895 277.895 555 279 555 280.105 555 281 555.895 281 557 281 558.105 280.105 559 279 559Z" fill="#262626"/><path d="M309.42 529 252.58 529C250.603 529 249 530.603 249 532.58L249 541.42C249 543.397 250.603 545 252.58 545L309.42 545C311.397 545 313 543.397 313 541.42L313 532.58C313 530.603 311.397 529 309.42 529ZM259 539C257.895 539 257 538.105 257 537 257 535.895 257.895 535 259 535 260.105 535 261 535.895 261 537 261 538.105 260.105 539 259 539ZM269 539C267.895 539 267 538.105 267 537 267 535.895 267.895 535 269 535 270.105 535 271 535.895 271 537 271 538.105 270.105 539 269 539ZM279 539C277.895 539 277 538.105 277 537 277 535.895 277.895 535 279 535 280.105 535 281 535.895 281 537 281 538.105 280.105 539 279 539Z" fill="#262626"/><path d="M309.42 509 252.58 509C250.603 509 249 510.603 249 512.58L249 521.42C249 523.397 250.603 525 252.58 525L309.42 525C311.397 525 313 523.397 313 521.42L313 512.58C313 510.603 311.397 509 309.42 509ZM259 519C257.895 519 257 518.105 257 517 257 515.895 257.895 515 259 515 260.105 515 261 515.895 261 517 261 518.105 260.105 519 259 519ZM269 519C267.895 519 267 518.105 267 517 267 515.895 267.895 515 269 515 270.105 515 271 515.895 271 517 271 518.105 270.105 519 269 519ZM279 519C277.895 519 277 518.105 277 517 277 515.895 277.895 515 279 515 280.105 515 281 515.895 281 517 281 518.105 280.105 519 279 519Z" fill="#262626"/></g></g></g><g clip-path="url(#clip22)"><g clip-path="url(#clip23)"><g clip-path="url(#clip24)"><path d="M383 565 389 565 389 573 383 573Z" fill="#262626"/><path d="M383 577 389 577 389 583 383 583Z" fill="#262626"/><path d="M393 577 422 577 422 583 393 583Z" fill="#262626"/><path d="M350 577 379 577 379 583 350 583Z" fill="#262626"/><path d="M414.42 549 357.58 549C355.603 549 354 550.603 354 552.58L354 561.42C354 563.397 355.603 565 357.58 565L414.42 565C416.397 565 418 563.397 418 561.42L418 552.58C418 550.603 416.397 549 414.42 549ZM364 559C362.895 559 362 558.105 362 557 362 555.895 362.895 555 364 555 365.105 555 366 555.895 366 557 366 558.105 365.105 559 364 559ZM374 559C372.895 559 372 558.105 372 557 372 555.895 372.895 555 374 555 375.105 555 376 555.895 376 557 376 558.105 375.105 559 374 559ZM384 559C382.895 559 382 558.105 382 557 382 555.895 382.895 555 384 555 385.105 555 386 555.895 386 557 386 558.105 385.105 559 384 559Z" fill="#262626"/><path d="M414.42 529 357.58 529C355.603 529 354 530.603 354 532.58L354 541.42C354 543.397 355.603 545 357.58 545L414.42 545C416.397 545 418 543.397 418 541.42L418 532.58C418 530.603 416.397 529 414.42 529ZM364 539C362.895 539 362 538.105 362 537 362 535.895 362.895 535 364 535 365.105 535 366 535.895 366 537 366 538.105 365.105 539 364 539ZM374 539C372.895 539 372 538.105 372 537 372 535.895 372.895 535 374 535 375.105 535 376 535.895 376 537 376 538.105 375.105 539 374 539ZM384 539C382.895 539 382 538.105 382 537 382 535.895 382.895 535 384 535 385.105 535 386 535.895 386 537 386 538.105 385.105 539 384 539Z" fill="#262626"/><path d="M414.42 509 357.58 509C355.603 509 354 510.603 354 512.58L354 521.42C354 523.397 355.603 525 357.58 525L414.42 525C416.397 525 418 523.397 418 521.42L418 512.58C418 510.603 416.397 509 414.42 509ZM364 519C362.895 519 362 518.105 362 517 362 515.895 362.895 515 364 515 365.105 515 366 515.895 366 517 366 518.105 365.105 519 364 519ZM374 519C372.895 519 372 518.105 372 517 372 515.895 372.895 515 374 515 375.105 515 376 515.895 376 517 376 518.105 375.105 519 374 519ZM384 519C382.895 519 382 518.105 382 517 382 515.895 382.895 515 384 515 385.105 515 386 515.895 386 517 386 518.105 385.105 519 384 519Z" fill="#262626"/></g></g></g><path d="M0 0 365.425 226.737" stroke="#4472C4" stroke-width="0.666667" stroke-miterlimit="8" fill="none" fill-rule="evenodd" transform="matrix(-1 -8.74228e-08 -8.74228e-08 1 646.925 97.5001)"/><path d="M0 0 104.015 57.798" stroke="#ED7D31" stroke-width="0.666667" stroke-miterlimit="8" fill="none" fill-rule="evenodd" transform="matrix(1 0 0 -1 177.5 402.298)"/><path d="M0 0 0.000104987 57.798" stroke="#ED7D31" stroke-width="0.666667" stroke-miterlimit="8" fill="none" fill-rule="evenodd" transform="matrix(1 0 0 -1 281.5 402.298)"/><path d="M385.515 402.298 281.5 344.5" stroke="#ED7D31" stroke-width="0.666667" stroke-miterlimit="8" fill="none" fill-rule="evenodd"/><text font-family="Arial,Arial_MSFontService,sans-serif" font-weight="400" font-size="16" transform="translate(689.62 93)">mngt1<tspan x="-365.452" y="246">mngt2</tspan></text><rect x="225" y="35" width="519" height="316" stroke="#4472C4" stroke-width="4" stroke-miterlimit="8" fill="none"/><rect x="0" y="0" width="311" height="310" stroke="#ED7D31" stroke-width="1.33333" stroke-miterlimit="8" fill="none" transform="matrix(1 0 0 -1 126.5 597.5)"/><text fill="#4472C4" font-family="Arial,Arial_MSFontService,sans-serif" font-weight="700" font-size="16" transform="translate(235.491 56)">iceberg1<tspan fill="#ED7D31" font-weight="400" x="-97.9799" y="252">iceberg2</tspan><tspan fill="#ED7D31" font-weight="400" x="54.6306" y="334">Ice2</tspan><tspan fill="#ED7D31" font-weight="400" x="84.7972" y="334">-</tspan><tspan fill="#ED7D31" font-weight="400" x="90.1306" y="334">1</tspan><tspan x="346.76" y="107">Ice1</tspan>-<tspan x="383.093" y="107">1</tspan></text><g clip-path="url(#clip25)"><g clip-path="url(#clip26)"><g clip-path="url(#clip27)"><path d="M646.62 152.599C645.089 152.599 643.885 151.359 643.885 149.865 643.885 148.37 645.125 147.13 646.62 147.13 648.151 147.13 649.354 148.37 649.354 149.865 649.354 151.359 648.115 152.599 646.62 152.599ZM652.781 148.151C652.635 147.641 652.453 147.167 652.198 146.729L652.781 145.016 651.469 143.703 649.755 144.286C649.318 144.031 648.844 143.849 648.333 143.703L647.531 142.099 645.708 142.099 644.906 143.703C644.396 143.849 643.922 144.031 643.484 144.286L641.771 143.703 640.458 145.016 641.042 146.729C640.786 147.167 640.604 147.641 640.458 148.151L638.854 148.953 638.854 150.776 640.458 151.578C640.604 152.089 640.786 152.562 641.042 153L640.458 154.714 641.734 155.99 643.448 155.406C643.885 155.661 644.359 155.844 644.87 155.99L645.672 157.594 647.495 157.594 648.297 155.99C648.807 155.844 649.281 155.661 649.719 155.406L651.432 155.99 652.745 154.714 652.161 153C652.417 152.562 652.635 152.052 652.781 151.578L654.385 150.776 654.385 148.953 652.781 148.151Z" fill="#4472C4"/><path d="M638.38 165.87C636.849 165.87 635.646 164.63 635.646 163.135 635.646 161.604 636.885 160.401 638.38 160.401 639.911 160.401 641.115 161.641 641.115 163.135 641.115 164.63 639.911 165.87 638.38 165.87L638.38 165.87ZM643.958 160 644.542 158.286 643.229 156.974 641.516 157.557C641.078 157.302 640.568 157.12 640.094 156.974L639.292 155.37 637.469 155.37 636.667 156.974C636.156 157.12 635.682 157.302 635.245 157.557L633.531 156.974 632.255 158.25 632.802 159.964C632.547 160.401 632.365 160.911 632.219 161.385L630.615 162.188 630.615 164.01 632.219 164.812C632.365 165.323 632.547 165.797 632.802 166.234L632.255 167.948 633.531 169.224 635.245 168.677C635.682 168.932 636.156 169.115 636.667 169.26L637.469 170.865 639.292 170.865 640.094 169.26C640.604 169.115 641.078 168.932 641.516 168.677L643.229 169.26 644.505 167.948 643.958 166.271C644.214 165.833 644.396 165.359 644.542 164.849L646.146 164.047 646.146 162.224 644.542 161.422C644.396 160.911 644.214 160.438 643.958 160Z" fill="#4472C4"/></g></g></g><g clip-path="url(#clip28)"><g clip-path="url(#clip29)"><g clip-path="url(#clip30)"><path d="M13.125 8.53125 6.5625 12.5125 21 21.2625 27.5625 17.2812Z" fill="#D9D9D9" fill-opacity="0.4" transform="matrix(1 0 -0 1.02381 465 171)"/><path d="M35.4375 12.5125 21 3.7625 14.7875 7.525 29.225 16.275Z" fill="#D9D9D9" fill-opacity="0.4" transform="matrix(1 0 -0 1.02381 465 171)"/><path d="M6.5625 16.0125 6.5625 30.0125 20.125 38.2375 20.125 22.7937 6.5625 14.5687Z" fill="#D9D9D9" fill-opacity="0.4" transform="matrix(1 0 -0 1.02381 465 171)"/><path d="M26.6875 25.2 23.625 26.95 23.625 23.8875 26.6875 22.1375 26.6875 25.2ZM21.875 22.7937 21.875 38.2375 35.4375 30.0125 35.4375 14.5687 21.875 22.7937Z" fill="#D9D9D9" fill-opacity="0.4" transform="matrix(1 0 -0 1.02381 465 171)"/></g></g></g><g clip-path="url(#clip31)"><g clip-path="url(#clip32)"><g clip-path="url(#clip33)"><path d="M13.125 8.53125 6.5625 12.5125 21 21.2625 27.5625 17.2812Z" fill="#A6A6A6" fill-opacity="0.4" transform="matrix(1.02381 0 -0 1 454 178)"/><path d="M35.4375 12.5125 21 3.7625 14.7875 7.525 29.225 16.275Z" fill="#A6A6A6" fill-opacity="0.4" transform="matrix(1.02381 0 -0 1 454 178)"/><path d="M6.5625 16.0125 6.5625 30.0125 20.125 38.2375 20.125 22.7937 6.5625 14.5687Z" fill="#A6A6A6" fill-opacity="0.4" transform="matrix(1.02381 0 -0 1 454 178)"/><path d="M26.6875 25.2 23.625 26.95 23.625 23.8875 26.6875 22.1375 26.6875 25.2ZM21.875 22.7937 21.875 38.2375 35.4375 30.0125 35.4375 14.5687 21.875 22.7937Z" fill="#A6A6A6" fill-opacity="0.4" transform="matrix(1.02381 0 -0 1 454 178)"/></g></g></g><g clip-path="url(#clip34)"><g clip-path="url(#clip35)"><g clip-path="url(#clip36)"><path d="M13.125 8.53125 6.5625 12.5125 21 21.2625 27.5625 17.2812Z" fill="#262626" transform="matrix(1.02381 0 -0 1 443 184)"/><path d="M35.4375 12.5125 21 3.7625 14.7875 7.525 29.225 16.275Z" fill="#262626" transform="matrix(1.02381 0 -0 1 443 184)"/><path d="M6.5625 16.0125 6.5625 30.0125 20.125 38.2375 20.125 22.7937 6.5625 14.5687Z" fill="#262626" transform="matrix(1.02381 0 -0 1 443 184)"/><path d="M26.6875 25.2 23.625 26.95 23.625 23.8875 26.6875 22.1375 26.6875 25.2ZM21.875 22.7937 21.875 38.2375 35.4375 30.0125 35.4375 14.5687 21.875 22.7937Z" fill="#262626" transform="matrix(1.02381 0 -0 1 443 184)"/></g></g></g><g clip-path="url(#clip37)"><g clip-path="url(#clip38)"><g clip-path="url(#clip39)"><path d="M394.438 230.734 387.719 234.81 402.5 243.769 409.219 239.693Z" fill="#D9D9D9" fill-opacity="0.4"/><path d="M417.281 234.81 402.5 225.852 396.14 229.704 410.921 238.663Z" fill="#D9D9D9" fill-opacity="0.4"/><path d="M387.719 238.394 387.719 252.727 401.604 261.148 401.604 245.336 387.719 236.916Z" fill="#D9D9D9" fill-opacity="0.4"/><path d="M408.323 247.8 405.188 249.592 405.188 246.456 408.323 244.665 408.323 247.8ZM403.396 245.336 403.396 261.148 417.281 252.727 417.281 236.916 403.396 245.336Z" fill="#D9D9D9" fill-opacity="0.4"/></g></g></g><g clip-path="url(#clip40)"><g clip-path="url(#clip41)"><g clip-path="url(#clip42)"><path d="M13.125 8.53125 6.5625 12.5125 21 21.2625 27.5625 17.2812Z" fill="#A6A6A6" fill-opacity="0.4" transform="matrix(1.02381 0 -0 1 370 229)"/><path d="M35.4375 12.5125 21 3.7625 14.7875 7.525 29.225 16.275Z" fill="#A6A6A6" fill-opacity="0.4" transform="matrix(1.02381 0 -0 1 370 229)"/><path d="M6.5625 16.0125 6.5625 30.0125 20.125 38.2375 20.125 22.7937 6.5625 14.5687Z" fill="#A6A6A6" fill-opacity="0.4" transform="matrix(1.02381 0 -0 1 370 229)"/><path d="M26.6875 25.2 23.625 26.95 23.625 23.8875 26.6875 22.1375 26.6875 25.2ZM21.875 22.7937 21.875 38.2375 35.4375 30.0125 35.4375 14.5687 21.875 22.7937Z" fill="#A6A6A6" fill-opacity="0.4" transform="matrix(1.02381 0 -0 1 370 229)"/></g></g></g><g clip-path="url(#clip43)"><g clip-path="url(#clip44)"><g clip-path="url(#clip45)"><path d="M373.125 243.531 366.562 247.512 381 256.263 387.562 252.281Z" fill="#262626"/><path d="M395.438 247.512 381 238.762 374.788 242.525 389.225 251.275Z" fill="#262626"/><path d="M366.562 251.012 366.562 265.013 380.125 273.237 380.125 257.794 366.562 249.569Z" fill="#262626"/><path d="M386.688 260.2 383.625 261.95 383.625 258.888 386.688 257.138 386.688 260.2ZM381.875 257.794 381.875 273.237 395.438 265.013 395.438 249.569 381.875 257.794Z" fill="#262626"/></g></g></g><g clip-path="url(#clip46)"><g clip-path="url(#clip47)"><g clip-path="url(#clip48)"><path d="M562.438 127.734 555.719 131.81 570.5 140.769 577.219 136.693Z" fill="#D9D9D9" fill-opacity="0.4"/><path d="M585.281 131.81 570.5 122.852 564.14 126.704 578.921 135.663Z" fill="#D9D9D9" fill-opacity="0.4"/><path d="M555.719 135.394 555.719 149.727 569.604 158.148 569.604 142.336 555.719 133.916Z" fill="#D9D9D9" fill-opacity="0.4"/><path d="M576.323 144.8 573.188 146.592 573.188 143.456 576.323 141.665 576.323 144.8ZM571.396 142.336 571.396 158.148 585.281 149.727 585.281 133.916 571.396 142.336Z" fill="#D9D9D9" fill-opacity="0.4"/></g></g></g><g clip-path="url(#clip49)"><g clip-path="url(#clip50)"><g clip-path="url(#clip51)"><path d="M13.125 8.53125 6.5625 12.5125 21 21.2625 27.5625 17.2812Z" fill="#A6A6A6" fill-opacity="0.4" transform="matrix(1.02381 0 -0 1 538 126)"/><path d="M35.4375 12.5125 21 3.7625 14.7875 7.525 29.225 16.275Z" fill="#A6A6A6" fill-opacity="0.4" transform="matrix(1.02381 0 -0 1 538 126)"/><path d="M6.5625 16.0125 6.5625 30.0125 20.125 38.2375 20.125 22.7937 6.5625 14.5687Z" fill="#A6A6A6" fill-opacity="0.4" transform="matrix(1.02381 0 -0 1 538 126)"/><path d="M26.6875 25.2 23.625 26.95 23.625 23.8875 26.6875 22.1375 26.6875 25.2ZM21.875 22.7937 21.875 38.2375 35.4375 30.0125 35.4375 14.5687 21.875 22.7937Z" fill="#A6A6A6" fill-opacity="0.4" transform="matrix(1.02381 0 -0 1 538 126)"/></g></g></g><g clip-path="url(#clip52)"><g clip-path="url(#clip53)"><g clip-path="url(#clip54)"><path d="M13.125 8.53125 6.5625 12.5125 21 21.2625 27.5625 17.2812Z" fill="#262626" transform="matrix(1.02381 0 -0 1 527 132)"/><path d="M35.4375 12.5125 21 3.7625 14.7875 7.525 29.225 16.275Z" fill="#262626" transform="matrix(1.02381 0 -0 1 527 132)"/><path d="M6.5625 16.0125 6.5625 30.0125 20.125 38.2375 20.125 22.7937 6.5625 14.5687Z" fill="#262626" transform="matrix(1.02381 0 -0 1 527 132)"/><path d="M26.6875 25.2 23.625 26.95 23.625 23.8875 26.6875 22.1375 26.6875 25.2ZM21.875 22.7937 21.875 38.2375 35.4375 30.0125 35.4375 14.5687 21.875 22.7937Z" fill="#262626" transform="matrix(1.02381 0 -0 1 527 132)"/></g></g></g></g></svg>