<svg width="1030" height="575" xmlns="http://www.w3.org/2000/svg" xmlns:xlink="http://www.w3.org/1999/xlink" overflow="hidden"><defs><clipPath id="clip0"><rect x="125" y="23" width="1030" height="575"/></clipPath><clipPath id="clip1"><rect x="608" y="77" width="78" height="20"/></clipPath><clipPath id="clip2"><rect x="608" y="77" width="78" height="20"/></clipPath><clipPath id="clip3"><rect x="599" y="68" width="96" height="96"/></clipPath><clipPath id="clip4"><rect x="1038" y="135" width="96" height="96"/></clipPath><clipPath id="clip5"><rect x="1038" y="135" width="96" height="96"/></clipPath><clipPath id="clip6"><rect x="1038" y="135" width="96" height="96"/></clipPath><clipPath id="clip7"><rect x="242" y="324" width="79" height="20"/></clipPath><clipPath id="clip8"><rect x="242" y="324" width="79" height="20"/></clipPath><clipPath id="clip9"><rect x="233" y="315" width="97" height="96"/></clipPath><clipPath id="clip10"><rect x="129" y="402" width="96" height="96"/></clipPath><clipPath id="clip11"><rect x="129" y="402" width="96" height="96"/></clipPath><clipPath id="clip12"><rect x="129" y="402" width="96" height="96"/></clipPath><clipPath id="clip13"><rect x="233" y="402" width="96" height="96"/></clipPath><clipPath id="clip14"><rect x="233" y="402" width="96" height="96"/></clipPath><clipPath id="clip15"><rect x="233" y="402" width="96" height="96"/></clipPath><clipPath id="clip16"><rect x="338" y="402" width="96" height="96"/></clipPath><clipPath id="clip17"><rect x="338" y="402" width="96" height="96"/></clipPath><clipPath id="clip18"><rect x="338" y="402" width="96" height="96"/></clipPath><clipPath id="clip19"><rect x="129" y="498" width="96" height="96"/></clipPath><clipPath id="clip20"><rect x="129" y="498" width="96" height="96"/></clipPath><clipPath id="clip21"><rect x="129" y="498" width="96" height="96"/></clipPath><clipPath id="clip22"><rect x="233" y="498" width="96" height="96"/></clipPath><clipPath id="clip23"><rect x="233" y="498" width="96" height="96"/></clipPath><clipPath id="clip24"><rect x="233" y="498" width="96" height="96"/></clipPath><clipPath id="clip25"><rect x="338" y="498" width="96" height="96"/></clipPath><clipPath id="clip26"><rect x="338" y="498" width="96" height="96"/></clipPath><clipPath id="clip27"><rect x="338" y="498" width="96" height="96"/></clipPath><clipPath id="clip28"><rect x="601" y="324" width="78" height="20"/></clipPath><clipPath id="clip29"><rect x="601" y="324" width="78" height="20"/></clipPath><clipPath id="clip30"><rect x="592" y="315" width="96" height="96"/></clipPath><clipPath id="clip31"><rect x="488" y="402" width="96" height="96"/></clipPath><clipPath id="clip32"><rect x="488" y="402" width="96" height="96"/></clipPath><clipPath id="clip33"><rect x="488" y="402" width="96" height="96"/></clipPath><clipPath id="clip34"><rect x="592" y="402" width="96" height="96"/></clipPath><clipPath id="clip35"><rect x="592" y="402" width="96" height="96"/></clipPath><clipPath id="clip36"><rect x="592" y="402" width="96" height="96"/></clipPath><clipPath id="clip37"><rect x="696" y="402" width="96" height="96"/></clipPath><clipPath id="clip38"><rect x="696" y="402" width="96" height="96"/></clipPath><clipPath id="clip39"><rect x="696" y="402" width="96" height="96"/></clipPath><clipPath id="clip40"><rect x="488" y="498" width="96" height="96"/></clipPath><clipPath id="clip41"><rect x="488" y="498" width="96" height="96"/></clipPath><clipPath id="clip42"><rect x="488" y="498" width="96" height="96"/></clipPath><clipPath id="clip43"><rect x="592" y="498" width="96" height="96"/></clipPath><clipPath id="clip44"><rect x="592" y="498" width="96" height="96"/></clipPath><clipPath id="clip45"><rect x="592" y="498" width="96" height="96"/></clipPath><clipPath id="clip46"><rect x="696" y="498" width="96" height="96"/></clipPath><clipPath id="clip47"><rect x="696" y="498" width="96" height="96"/></clipPath><clipPath id="clip48"><rect x="696" y="498" width="96" height="96"/></clipPath><clipPath id="clip49"><rect x="959" y="324" width="79" height="20"/></clipPath><clipPath id="clip50"><rect x="959" y="324" width="79" height="20"/></clipPath><clipPath id="clip51"><rect x="950" y="315" width="97" height="96"/></clipPath><clipPath id="clip52"><rect x="846" y="402" width="96" height="96"/></clipPath><clipPath id="clip53"><rect x="846" y="402" width="96" height="96"/></clipPath><clipPath id="clip54"><rect x="846" y="402" width="96" height="96"/></clipPath><clipPath id="clip55"><rect x="951" y="402" width="96" height="96"/></clipPath><clipPath id="clip56"><rect x="951" y="402" width="96" height="96"/></clipPath><clipPath id="clip57"><rect x="951" y="402" width="96" height="96"/></clipPath><clipPath id="clip58"><rect x="1055" y="402" width="96" height="96"/></clipPath><clipPath id="clip59"><rect x="1055" y="402" width="96" height="96"/></clipPath><clipPath id="clip60"><rect x="1055" y="402" width="96" height="96"/></clipPath><clipPath id="clip61"><rect x="846" y="498" width="96" height="96"/></clipPath><clipPath id="clip62"><rect x="846" y="498" width="96" height="96"/></clipPath><clipPath id="clip63"><rect x="846" y="498" width="96" height="96"/></clipPath><clipPath id="clip64"><rect x="951" y="498" width="96" height="96"/></clipPath><clipPath id="clip65"><rect x="951" y="498" width="96" height="96"/></clipPath><clipPath id="clip66"><rect x="951" y="498" width="96" height="96"/></clipPath><clipPath id="clip67"><rect x="1055" y="498" width="96" height="96"/></clipPath><clipPath id="clip68"><rect x="1055" y="498" width="96" height="96"/></clipPath><clipPath id="clip69"><rect x="1055" y="498" width="96" height="96"/></clipPath><clipPath id="clip70"><rect x="942" y="135" width="96" height="96"/></clipPath><clipPath id="clip71"><rect x="942" y="135" width="96" height="96"/></clipPath><clipPath id="clip72"><rect x="942" y="135" width="96" height="96"/></clipPath><clipPath id="clip73"><rect x="307" y="172" width="79" height="21"/></clipPath><clipPath id="clip74"><rect x="307" y="172" width="79" height="21"/></clipPath><clipPath id="clip75"><rect x="298" y="162" width="97" height="101"/></clipPath><clipPath id="clip76"><rect x="143" y="140" width="81" height="81"/></clipPath><clipPath id="clip77"><rect x="143" y="140" width="81" height="81"/></clipPath><clipPath id="clip78"><rect x="143" y="140" width="81" height="81"/></clipPath><clipPath id="clip79"><rect x="307" y="140" width="79" height="20"/></clipPath><clipPath id="clip80"><rect x="307" y="140" width="79" height="20"/></clipPath><clipPath id="clip81"><rect x="298" y="131" width="97" height="96"/></clipPath><clipPath id="clip82"><rect x="982" y="178" width="59" height="59"/></clipPath><clipPath id="clip83"><rect x="982" y="178" width="59" height="59"/></clipPath><clipPath id="clip84"><rect x="982" y="178" width="59" height="59"/></clipPath><clipPath id="clip85"><rect x="1077" y="178" width="60" height="59"/></clipPath><clipPath id="clip86"><rect x="1077" y="178" width="60" height="59"/></clipPath><clipPath id="clip87"><rect x="1077" y="178" width="60" height="59"/></clipPath><clipPath id="clip88"><rect x="143" y="24" width="74" height="74"/></clipPath><clipPath id="clip89"><rect x="143" y="24" width="74" height="74"/></clipPath><clipPath id="clip90"><rect x="143" y="24" width="74" height="74"/></clipPath></defs><g clip-path="url(#clip0)" transform="translate(-125 -23)"><g clip-path="url(#clip1)"><g clip-path="url(#clip2)"><g clip-path="url(#clip3)"><path d="M44.4439 66.1721 50.3698 66.1721 50.3698 74.0732 44.4439 74.0732Z" fill="#262626" transform="matrix(1.00286 0 0 1 599.137 68.2364)"/><path d="M44.4439 78.0238 50.3698 78.0238 50.3698 83.9496 44.4439 83.9496Z" fill="#262626" transform="matrix(1.00286 0 0 1 599.137 68.2364)"/><path d="M54.3203 78.0238 82.962 78.0238 82.962 83.9496 54.3203 83.9496Z" fill="#262626" transform="matrix(1.00286 0 0 1 599.137 68.2364)"/><path d="M11.8517 78.0238 40.4933 78.0238 40.4933 83.9496 11.8517 83.9496Z" fill="#262626" transform="matrix(1.00286 0 0 1 599.137 68.2364)"/><path d="M75.4756 50.3698 19.338 50.3698C17.3853 50.3698 15.8023 51.9528 15.8023 53.9055L15.8023 62.6363C15.8023 64.5891 17.3853 66.1721 19.338 66.1721L75.4756 66.1721C77.4284 66.1721 79.0114 64.5891 79.0114 62.6363L79.0114 53.9055C79.0114 51.9528 77.4284 50.3698 75.4756 50.3698ZM25.6787 60.2462C24.5878 60.2462 23.7034 59.3619 23.7034 58.2709 23.7034 57.18 24.5878 56.2956 25.6787 56.2956 26.7697 56.2956 27.654 57.18 27.654 58.2709 27.654 59.3619 26.7697 60.2462 25.6787 60.2462ZM35.5551 60.2462C34.4642 60.2462 33.5798 59.3619 33.5798 58.2709 33.5798 57.18 34.4642 56.2956 35.5551 56.2956 36.6461 56.2956 37.5304 57.18 37.5304 58.2709 37.5304 59.3619 36.6461 60.2462 35.5551 60.2462ZM45.4316 60.2462C44.3406 60.2462 43.4563 59.3619 43.4563 58.2709 43.4563 57.18 44.3406 56.2956 45.4316 56.2956 46.5225 56.2956 47.4068 57.18 47.4068 58.2709 47.4068 59.3619 46.5225 60.2462 45.4316 60.2462Z" fill="#262626" transform="matrix(1.00286 0 0 1 599.137 68.2364)"/><path d="M75.4756 30.6169 19.338 30.6169C17.3853 30.6169 15.8023 32.1999 15.8023 34.1527L15.8023 42.8834C15.8023 44.8362 17.3853 46.4192 19.338 46.4192L75.4756 46.4192C77.4284 46.4192 79.0114 44.8362 79.0114 42.8834L79.0114 34.1527C79.0114 32.1999 77.4284 30.6169 75.4756 30.6169ZM25.6787 40.4933C24.5878 40.4933 23.7034 39.609 23.7034 38.5181 23.7034 37.4271 24.5878 36.5428 25.6787 36.5428 26.7697 36.5428 27.654 37.4271 27.654 38.5181 27.654 39.609 26.7697 40.4933 25.6787 40.4933ZM35.5551 40.4933C34.4642 40.4933 33.5798 39.609 33.5798 38.5181 33.5798 37.4271 34.4642 36.5428 35.5551 36.5428 36.6461 36.5428 37.5304 37.4271 37.5304 38.5181 37.5304 39.609 36.6461 40.4933 35.5551 40.4933ZM45.4316 40.4933C44.3406 40.4933 43.4563 39.609 43.4563 38.5181 43.4563 37.4271 44.3406 36.5428 45.4316 36.5428 46.5225 36.5428 47.4068 37.4271 47.4068 38.5181 47.4068 39.609 46.5225 40.4933 45.4316 40.4933Z" fill="#262626" transform="matrix(1.00286 0 0 1 599.137 68.2364)"/><path d="M75.4756 10.8641 19.338 10.8641C17.3853 10.8641 15.8023 12.4471 15.8023 14.3998L15.8023 23.1306C15.8023 25.0834 17.3853 26.6663 19.338 26.6663L75.4756 26.6663C77.4284 26.6663 79.0114 25.0834 79.0114 23.1306L79.0114 14.3998C79.0114 12.4471 77.4284 10.8641 75.4756 10.8641ZM25.6787 20.7405C24.5878 20.7405 23.7034 19.8562 23.7034 18.7652 23.7034 17.6743 24.5878 16.7899 25.6787 16.7899 26.7697 16.7899 27.654 17.6743 27.654 18.7652 27.654 19.8562 26.7697 20.7405 25.6787 20.7405ZM35.5551 20.7405C34.4642 20.7405 33.5798 19.8562 33.5798 18.7652 33.5798 17.6743 34.4642 16.7899 35.5551 16.7899 36.6461 16.7899 37.5304 17.6743 37.5304 18.7652 37.5304 19.8562 36.6461 20.7405 35.5551 20.7405ZM45.4316 20.7405C44.3406 20.7405 43.4563 19.8562 43.4563 18.7652 43.4563 17.6743 44.3406 16.7899 45.4316 16.7899 46.5225 16.7899 47.4068 17.6743 47.4068 18.7652 47.4068 19.8562 46.5225 20.7405 45.4316 20.7405Z" fill="#262626" transform="matrix(1.00286 0 0 1 599.137 68.2364)"/></g></g></g><g clip-path="url(#clip4)"><g clip-path="url(#clip5)"><g clip-path="url(#clip6)"><path d="M1083 202 1089 202 1089 210 1083 210Z" fill="#262626"/><path d="M1083 214 1089 214 1089 220 1083 220Z" fill="#262626"/><path d="M1093 214 1122 214 1122 220 1093 220Z" fill="#262626"/><path d="M1050 214 1079 214 1079 220 1050 220Z" fill="#262626"/><path d="M1114.42 186 1057.58 186C1055.6 186 1054 187.603 1054 189.58L1054 198.42C1054 200.397 1055.6 202 1057.58 202L1114.42 202C1116.4 202 1118 200.397 1118 198.42L1118 189.58C1118 187.603 1116.4 186 1114.42 186ZM1064 196C1062.9 196 1062 195.105 1062 194 1062 192.895 1062.9 192 1064 192 1065.1 192 1066 192.895 1066 194 1066 195.105 1065.1 196 1064 196ZM1074 196C1072.9 196 1072 195.105 1072 194 1072 192.895 1072.9 192 1074 192 1075.1 192 1076 192.895 1076 194 1076 195.105 1075.1 196 1074 196ZM1084 196C1082.9 196 1082 195.105 1082 194 1082 192.895 1082.9 192 1084 192 1085.1 192 1086 192.895 1086 194 1086 195.105 1085.1 196 1084 196Z" fill="#262626"/><path d="M1114.42 166 1057.58 166C1055.6 166 1054 167.603 1054 169.58L1054 178.42C1054 180.397 1055.6 182 1057.58 182L1114.42 182C1116.4 182 1118 180.397 1118 178.42L1118 169.58C1118 167.603 1116.4 166 1114.42 166ZM1064 176C1062.9 176 1062 175.105 1062 174 1062 172.895 1062.9 172 1064 172 1065.1 172 1066 172.895 1066 174 1066 175.105 1065.1 176 1064 176ZM1074 176C1072.9 176 1072 175.105 1072 174 1072 172.895 1072.9 172 1074 172 1075.1 172 1076 172.895 1076 174 1076 175.105 1075.1 176 1074 176ZM1084 176C1082.9 176 1082 175.105 1082 174 1082 172.895 1082.9 172 1084 172 1085.1 172 1086 172.895 1086 174 1086 175.105 1085.1 176 1084 176Z" fill="#262626"/><path d="M1114.42 146 1057.58 146C1055.6 146 1054 147.603 1054 149.58L1054 158.42C1054 160.397 1055.6 162 1057.58 162L1114.42 162C1116.4 162 1118 160.397 1118 158.42L1118 149.58C1118 147.603 1116.4 146 1114.42 146ZM1064 156C1062.9 156 1062 155.105 1062 154 1062 152.895 1062.9 152 1064 152 1065.1 152 1066 152.895 1066 154 1066 155.105 1065.1 156 1064 156ZM1074 156C1072.9 156 1072 155.105 1072 154 1072 152.895 1072.9 152 1074 152 1075.1 152 1076 152.895 1076 154 1076 155.105 1075.1 156 1074 156ZM1084 156C1082.9 156 1082 155.105 1082 154 1082 152.895 1082.9 152 1084 152 1085.1 152 1086 152.895 1086 154 1086 155.105 1085.1 156 1084 156Z" fill="#262626"/></g></g></g><g clip-path="url(#clip7)"><g clip-path="url(#clip8)"><g clip-path="url(#clip9)"><path d="M44.4439 66.1721 50.3698 66.1721 50.3698 74.0732 44.4439 74.0732Z" fill="#262626" transform="matrix(1.01572 0 0 1 233.024 315.236)"/><path d="M44.4439 78.0238 50.3698 78.0238 50.3698 83.9496 44.4439 83.9496Z" fill="#262626" transform="matrix(1.01572 0 0 1 233.024 315.236)"/><path d="M54.3203 78.0238 82.962 78.0238 82.962 83.9496 54.3203 83.9496Z" fill="#262626" transform="matrix(1.01572 0 0 1 233.024 315.236)"/><path d="M11.8517 78.0238 40.4933 78.0238 40.4933 83.9496 11.8517 83.9496Z" fill="#262626" transform="matrix(1.01572 0 0 1 233.024 315.236)"/><path d="M75.4756 50.3698 19.338 50.3698C17.3853 50.3698 15.8023 51.9528 15.8023 53.9055L15.8023 62.6363C15.8023 64.5891 17.3853 66.1721 19.338 66.1721L75.4756 66.1721C77.4284 66.1721 79.0114 64.5891 79.0114 62.6363L79.0114 53.9055C79.0114 51.9528 77.4284 50.3698 75.4756 50.3698ZM25.6787 60.2462C24.5878 60.2462 23.7034 59.3619 23.7034 58.2709 23.7034 57.18 24.5878 56.2956 25.6787 56.2956 26.7697 56.2956 27.654 57.18 27.654 58.2709 27.654 59.3619 26.7697 60.2462 25.6787 60.2462ZM35.5551 60.2462C34.4642 60.2462 33.5798 59.3619 33.5798 58.2709 33.5798 57.18 34.4642 56.2956 35.5551 56.2956 36.6461 56.2956 37.5304 57.18 37.5304 58.2709 37.5304 59.3619 36.6461 60.2462 35.5551 60.2462ZM45.4316 60.2462C44.3406 60.2462 43.4563 59.3619 43.4563 58.2709 43.4563 57.18 44.3406 56.2956 45.4316 56.2956 46.5225 56.2956 47.4068 57.18 47.4068 58.2709 47.4068 59.3619 46.5225 60.2462 45.4316 60.2462Z" fill="#262626" transform="matrix(1.01572 0 0 1 233.024 315.236)"/><path d="M75.4756 30.6169 19.338 30.6169C17.3853 30.6169 15.8023 32.1999 15.8023 34.1527L15.8023 42.8834C15.8023 44.8362 17.3853 46.4192 19.338 46.4192L75.4756 46.4192C77.4284 46.4192 79.0114 44.8362 79.0114 42.8834L79.0114 34.1527C79.0114 32.1999 77.4284 30.6169 75.4756 30.6169ZM25.6787 40.4933C24.5878 40.4933 23.7034 39.609 23.7034 38.5181 23.7034 37.4271 24.5878 36.5428 25.6787 36.5428 26.7697 36.5428 27.654 37.4271 27.654 38.5181 27.654 39.609 26.7697 40.4933 25.6787 40.4933ZM35.5551 40.4933C34.4642 40.4933 33.5798 39.609 33.5798 38.5181 33.5798 37.4271 34.4642 36.5428 35.5551 36.5428 36.6461 36.5428 37.5304 37.4271 37.5304 38.5181 37.5304 39.609 36.6461 40.4933 35.5551 40.4933ZM45.4316 40.4933C44.3406 40.4933 43.4563 39.609 43.4563 38.5181 43.4563 37.4271 44.3406 36.5428 45.4316 36.5428 46.5225 36.5428 47.4068 37.4271 47.4068 38.5181 47.4068 39.609 46.5225 40.4933 45.4316 40.4933Z" fill="#262626" transform="matrix(1.01572 0 0 1 233.024 315.236)"/><path d="M75.4756 10.8641 19.338 10.8641C17.3853 10.8641 15.8023 12.4471 15.8023 14.3998L15.8023 23.1306C15.8023 25.0834 17.3853 26.6663 19.338 26.6663L75.4756 26.6663C77.4284 26.6663 79.0114 25.0834 79.0114 23.1306L79.0114 14.3998C79.0114 12.4471 77.4284 10.8641 75.4756 10.8641ZM25.6787 20.7405C24.5878 20.7405 23.7034 19.8562 23.7034 18.7652 23.7034 17.6743 24.5878 16.7899 25.6787 16.7899 26.7697 16.7899 27.654 17.6743 27.654 18.7652 27.654 19.8562 26.7697 20.7405 25.6787 20.7405ZM35.5551 20.7405C34.4642 20.7405 33.5798 19.8562 33.5798 18.7652 33.5798 17.6743 34.4642 16.7899 35.5551 16.7899 36.6461 16.7899 37.5304 17.6743 37.5304 18.7652 37.5304 19.8562 36.6461 20.7405 35.5551 20.7405ZM45.4316 20.7405C44.3406 20.7405 43.4563 19.8562 43.4563 18.7652 43.4563 17.6743 44.3406 16.7899 45.4316 16.7899 46.5225 16.7899 47.4068 17.6743 47.4068 18.7652 47.4068 19.8562 46.5225 20.7405 45.4316 20.7405Z" fill="#262626" transform="matrix(1.01572 0 0 1 233.024 315.236)"/></g></g></g><g clip-path="url(#clip10)"><g clip-path="url(#clip11)"><g clip-path="url(#clip12)"><path d="M174 469 180 469 180 477 174 477Z" fill="#262626"/><path d="M174 481 180 481 180 487 174 487Z" fill="#262626"/><path d="M184 481 213 481 213 487 184 487Z" fill="#262626"/><path d="M141 481 170 481 170 487 141 487Z" fill="#262626"/><path d="M205.42 453 148.58 453C146.603 453 145 454.603 145 456.58L145 465.42C145 467.397 146.603 469 148.58 469L205.42 469C207.397 469 209 467.397 209 465.42L209 456.58C209 454.603 207.397 453 205.42 453ZM155 463C153.895 463 153 462.105 153 461 153 459.895 153.895 459 155 459 156.105 459 157 459.895 157 461 157 462.105 156.105 463 155 463ZM165 463C163.895 463 163 462.105 163 461 163 459.895 163.895 459 165 459 166.105 459 167 459.895 167 461 167 462.105 166.105 463 165 463ZM175 463C173.895 463 173 462.105 173 461 173 459.895 173.895 459 175 459 176.105 459 177 459.895 177 461 177 462.105 176.105 463 175 463Z" fill="#262626"/><path d="M205.42 433 148.58 433C146.603 433 145 434.603 145 436.58L145 445.42C145 447.397 146.603 449 148.58 449L205.42 449C207.397 449 209 447.397 209 445.42L209 436.58C209 434.603 207.397 433 205.42 433ZM155 443C153.895 443 153 442.105 153 441 153 439.895 153.895 439 155 439 156.105 439 157 439.895 157 441 157 442.105 156.105 443 155 443ZM165 443C163.895 443 163 442.105 163 441 163 439.895 163.895 439 165 439 166.105 439 167 439.895 167 441 167 442.105 166.105 443 165 443ZM175 443C173.895 443 173 442.105 173 441 173 439.895 173.895 439 175 439 176.105 439 177 439.895 177 441 177 442.105 176.105 443 175 443Z" fill="#262626"/><path d="M205.42 413 148.58 413C146.603 413 145 414.603 145 416.58L145 425.42C145 427.397 146.603 429 148.58 429L205.42 429C207.397 429 209 427.397 209 425.42L209 416.58C209 414.603 207.397 413 205.42 413ZM155 423C153.895 423 153 422.105 153 421 153 419.895 153.895 419 155 419 156.105 419 157 419.895 157 421 157 422.105 156.105 423 155 423ZM165 423C163.895 423 163 422.105 163 421 163 419.895 163.895 419 165 419 166.105 419 167 419.895 167 421 167 422.105 166.105 423 165 423ZM175 423C173.895 423 173 422.105 173 421 173 419.895 173.895 419 175 419 176.105 419 177 419.895 177 421 177 422.105 176.105 423 175 423Z" fill="#262626"/></g></g></g><g clip-path="url(#clip13)"><g clip-path="url(#clip14)"><g clip-path="url(#clip15)"><path d="M278 469 284 469 284 477 278 477Z" fill="#262626"/><path d="M278 481 284 481 284 487 278 487Z" fill="#262626"/><path d="M288 481 317 481 317 487 288 487Z" fill="#262626"/><path d="M245 481 274 481 274 487 245 487Z" fill="#262626"/><path d="M309.42 453 252.58 453C250.603 453 249 454.603 249 456.58L249 465.42C249 467.397 250.603 469 252.58 469L309.42 469C311.397 469 313 467.397 313 465.42L313 456.58C313 454.603 311.397 453 309.42 453ZM259 463C257.895 463 257 462.105 257 461 257 459.895 257.895 459 259 459 260.105 459 261 459.895 261 461 261 462.105 260.105 463 259 463ZM269 463C267.895 463 267 462.105 267 461 267 459.895 267.895 459 269 459 270.105 459 271 459.895 271 461 271 462.105 270.105 463 269 463ZM279 463C277.895 463 277 462.105 277 461 277 459.895 277.895 459 279 459 280.105 459 281 459.895 281 461 281 462.105 280.105 463 279 463Z" fill="#262626"/><path d="M309.42 433 252.58 433C250.603 433 249 434.603 249 436.58L249 445.42C249 447.397 250.603 449 252.58 449L309.42 449C311.397 449 313 447.397 313 445.42L313 436.58C313 434.603 311.397 433 309.42 433ZM259 443C257.895 443 257 442.105 257 441 257 439.895 257.895 439 259 439 260.105 439 261 439.895 261 441 261 442.105 260.105 443 259 443ZM269 443C267.895 443 267 442.105 267 441 267 439.895 267.895 439 269 439 270.105 439 271 439.895 271 441 271 442.105 270.105 443 269 443ZM279 443C277.895 443 277 442.105 277 441 277 439.895 277.895 439 279 439 280.105 439 281 439.895 281 441 281 442.105 280.105 443 279 443Z" fill="#262626"/><path d="M309.42 413 252.58 413C250.603 413 249 414.603 249 416.58L249 425.42C249 427.397 250.603 429 252.58 429L309.42 429C311.397 429 313 427.397 313 425.42L313 416.58C313 414.603 311.397 413 309.42 413ZM259 423C257.895 423 257 422.105 257 421 257 419.895 257.895 419 259 419 260.105 419 261 419.895 261 421 261 422.105 260.105 423 259 423ZM269 423C267.895 423 267 422.105 267 421 267 419.895 267.895 419 269 419 270.105 419 271 419.895 271 421 271 422.105 270.105 423 269 423ZM279 423C277.895 423 277 422.105 277 421 277 419.895 277.895 419 279 419 280.105 419 281 419.895 281 421 281 422.105 280.105 423 279 423Z" fill="#262626"/></g></g></g><g clip-path="url(#clip16)"><g clip-path="url(#clip17)"><g clip-path="url(#clip18)"><path d="M383 469 389 469 389 477 383 477Z" fill="#262626"/><path d="M383 481 389 481 389 487 383 487Z" fill="#262626"/><path d="M393 481 422 481 422 487 393 487Z" fill="#262626"/><path d="M350 481 379 481 379 487 350 487Z" fill="#262626"/><path d="M414.42 453 357.58 453C355.603 453 354 454.603 354 456.58L354 465.42C354 467.397 355.603 469 357.58 469L414.42 469C416.397 469 418 467.397 418 465.42L418 456.58C418 454.603 416.397 453 414.42 453ZM364 463C362.895 463 362 462.105 362 461 362 459.895 362.895 459 364 459 365.105 459 366 459.895 366 461 366 462.105 365.105 463 364 463ZM374 463C372.895 463 372 462.105 372 461 372 459.895 372.895 459 374 459 375.105 459 376 459.895 376 461 376 462.105 375.105 463 374 463ZM384 463C382.895 463 382 462.105 382 461 382 459.895 382.895 459 384 459 385.105 459 386 459.895 386 461 386 462.105 385.105 463 384 463Z" fill="#262626"/><path d="M414.42 433 357.58 433C355.603 433 354 434.603 354 436.58L354 445.42C354 447.397 355.603 449 357.58 449L414.42 449C416.397 449 418 447.397 418 445.42L418 436.58C418 434.603 416.397 433 414.42 433ZM364 443C362.895 443 362 442.105 362 441 362 439.895 362.895 439 364 439 365.105 439 366 439.895 366 441 366 442.105 365.105 443 364 443ZM374 443C372.895 443 372 442.105 372 441 372 439.895 372.895 439 374 439 375.105 439 376 439.895 376 441 376 442.105 375.105 443 374 443ZM384 443C382.895 443 382 442.105 382 441 382 439.895 382.895 439 384 439 385.105 439 386 439.895 386 441 386 442.105 385.105 443 384 443Z" fill="#262626"/><path d="M414.42 413 357.58 413C355.603 413 354 414.603 354 416.58L354 425.42C354 427.397 355.603 429 357.58 429L414.42 429C416.397 429 418 427.397 418 425.42L418 416.58C418 414.603 416.397 413 414.42 413ZM364 423C362.895 423 362 422.105 362 421 362 419.895 362.895 419 364 419 365.105 419 366 419.895 366 421 366 422.105 365.105 423 364 423ZM374 423C372.895 423 372 422.105 372 421 372 419.895 372.895 419 374 419 375.105 419 376 419.895 376 421 376 422.105 375.105 423 374 423ZM384 423C382.895 423 382 422.105 382 421 382 419.895 382.895 419 384 419 385.105 419 386 419.895 386 421 386 422.105 385.105 423 384 423Z" fill="#262626"/></g></g></g><g clip-path="url(#clip19)"><g clip-path="url(#clip20)"><g clip-path="url(#clip21)"><path d="M174 565 180 565 180 573 174 573Z" fill="#262626"/><path d="M174 577 180 577 180 583 174 583Z" fill="#262626"/><path d="M184 577 213 577 213 583 184 583Z" fill="#262626"/><path d="M141 577 170 577 170 583 141 583Z" fill="#262626"/><path d="M205.42 549 148.58 549C146.603 549 145 550.603 145 552.58L145 561.42C145 563.397 146.603 565 148.58 565L205.42 565C207.397 565 209 563.397 209 561.42L209 552.58C209 550.603 207.397 549 205.42 549ZM155 559C153.895 559 153 558.105 153 557 153 555.895 153.895 555 155 555 156.105 555 157 555.895 157 557 157 558.105 156.105 559 155 559ZM165 559C163.895 559 163 558.105 163 557 163 555.895 163.895 555 165 555 166.105 555 167 555.895 167 557 167 558.105 166.105 559 165 559ZM175 559C173.895 559 173 558.105 173 557 173 555.895 173.895 555 175 555 176.105 555 177 555.895 177 557 177 558.105 176.105 559 175 559Z" fill="#262626"/><path d="M205.42 529 148.58 529C146.603 529 145 530.603 145 532.58L145 541.42C145 543.397 146.603 545 148.58 545L205.42 545C207.397 545 209 543.397 209 541.42L209 532.58C209 530.603 207.397 529 205.42 529ZM155 539C153.895 539 153 538.105 153 537 153 535.895 153.895 535 155 535 156.105 535 157 535.895 157 537 157 538.105 156.105 539 155 539ZM165 539C163.895 539 163 538.105 163 537 163 535.895 163.895 535 165 535 166.105 535 167 535.895 167 537 167 538.105 166.105 539 165 539ZM175 539C173.895 539 173 538.105 173 537 173 535.895 173.895 535 175 535 176.105 535 177 535.895 177 537 177 538.105 176.105 539 175 539Z" fill="#262626"/><path d="M205.42 509 148.58 509C146.603 509 145 510.603 145 512.58L145 521.42C145 523.397 146.603 525 148.58 525L205.42 525C207.397 525 209 523.397 209 521.42L209 512.58C209 510.603 207.397 509 205.42 509ZM155 519C153.895 519 153 518.105 153 517 153 515.895 153.895 515 155 515 156.105 515 157 515.895 157 517 157 518.105 156.105 519 155 519ZM165 519C163.895 519 163 518.105 163 517 163 515.895 163.895 515 165 515 166.105 515 167 515.895 167 517 167 518.105 166.105 519 165 519ZM175 519C173.895 519 173 518.105 173 517 173 515.895 173.895 515 175 515 176.105 515 177 515.895 177 517 177 518.105 176.105 519 175 519Z" fill="#262626"/></g></g></g><g clip-path="url(#clip22)"><g clip-path="url(#clip23)"><g clip-path="url(#clip24)"><path d="M278 565 284 565 284 573 278 573Z" fill="#262626"/><path d="M278 577 284 577 284 583 278 583Z" fill="#262626"/><path d="M288 577 317 577 317 583 288 583Z" fill="#262626"/><path d="M245 577 274 577 274 583 245 583Z" fill="#262626"/><path d="M309.42 549 252.58 549C250.603 549 249 550.603 249 552.58L249 561.42C249 563.397 250.603 565 252.58 565L309.42 565C311.397 565 313 563.397 313 561.42L313 552.58C313 550.603 311.397 549 309.42 549ZM259 559C257.895 559 257 558.105 257 557 257 555.895 257.895 555 259 555 260.105 555 261 555.895 261 557 261 558.105 260.105 559 259 559ZM269 559C267.895 559 267 558.105 267 557 267 555.895 267.895 555 269 555 270.105 555 271 555.895 271 557 271 558.105 270.105 559 269 559ZM279 559C277.895 559 277 558.105 277 557 277 555.895 277.895 555 279 555 280.105 555 281 555.895 281 557 281 558.105 280.105 559 279 559Z" fill="#262626"/><path d="M309.42 529 252.58 529C250.603 529 249 530.603 249 532.58L249 541.42C249 543.397 250.603 545 252.58 545L309.42 545C311.397 545 313 543.397 313 541.42L313 532.58C313 530.603 311.397 529 309.42 529ZM259 539C257.895 539 257 538.105 257 537 257 535.895 257.895 535 259 535 260.105 535 261 535.895 261 537 261 538.105 260.105 539 259 539ZM269 539C267.895 539 267 538.105 267 537 267 535.895 267.895 535 269 535 270.105 535 271 535.895 271 537 271 538.105 270.105 539 269 539ZM279 539C277.895 539 277 538.105 277 537 277 535.895 277.895 535 279 535 280.105 535 281 535.895 281 537 281 538.105 280.105 539 279 539Z" fill="#262626"/><path d="M309.42 509 252.58 509C250.603 509 249 510.603 249 512.58L249 521.42C249 523.397 250.603 525 252.58 525L309.42 525C311.397 525 313 523.397 313 521.42L313 512.58C313 510.603 311.397 509 309.42 509ZM259 519C257.895 519 257 518.105 257 517 257 515.895 257.895 515 259 515 260.105 515 261 515.895 261 517 261 518.105 260.105 519 259 519ZM269 519C267.895 519 267 518.105 267 517 267 515.895 267.895 515 269 515 270.105 515 271 515.895 271 517 271 518.105 270.105 519 269 519ZM279 519C277.895 519 277 518.105 277 517 277 515.895 277.895 515 279 515 280.105 515 281 515.895 281 517 281 518.105 280.105 519 279 519Z" fill="#262626"/></g></g></g><g clip-path="url(#clip25)"><g clip-path="url(#clip26)"><g clip-path="url(#clip27)"><path d="M383 565 389 565 389 573 383 573Z" fill="#262626"/><path d="M383 577 389 577 389 583 383 583Z" fill="#262626"/><path d="M393 577 422 577 422 583 393 583Z" fill="#262626"/><path d="M350 577 379 577 379 583 350 583Z" fill="#262626"/><path d="M414.42 549 357.58 549C355.603 549 354 550.603 354 552.58L354 561.42C354 563.397 355.603 565 357.58 565L414.42 565C416.397 565 418 563.397 418 561.42L418 552.58C418 550.603 416.397 549 414.42 549ZM364 559C362.895 559 362 558.105 362 557 362 555.895 362.895 555 364 555 365.105 555 366 555.895 366 557 366 558.105 365.105 559 364 559ZM374 559C372.895 559 372 558.105 372 557 372 555.895 372.895 555 374 555 375.105 555 376 555.895 376 557 376 558.105 375.105 559 374 559ZM384 559C382.895 559 382 558.105 382 557 382 555.895 382.895 555 384 555 385.105 555 386 555.895 386 557 386 558.105 385.105 559 384 559Z" fill="#262626"/><path d="M414.42 529 357.58 529C355.603 529 354 530.603 354 532.58L354 541.42C354 543.397 355.603 545 357.58 545L414.42 545C416.397 545 418 543.397 418 541.42L418 532.58C418 530.603 416.397 529 414.42 529ZM364 539C362.895 539 362 538.105 362 537 362 535.895 362.895 535 364 535 365.105 535 366 535.895 366 537 366 538.105 365.105 539 364 539ZM374 539C372.895 539 372 538.105 372 537 372 535.895 372.895 535 374 535 375.105 535 376 535.895 376 537 376 538.105 375.105 539 374 539ZM384 539C382.895 539 382 538.105 382 537 382 535.895 382.895 535 384 535 385.105 535 386 535.895 386 537 386 538.105 385.105 539 384 539Z" fill="#262626"/><path d="M414.42 509 357.58 509C355.603 509 354 510.603 354 512.58L354 521.42C354 523.397 355.603 525 357.58 525L414.42 525C416.397 525 418 523.397 418 521.42L418 512.58C418 510.603 416.397 509 414.42 509ZM364 519C362.895 519 362 518.105 362 517 362 515.895 362.895 515 364 515 365.105 515 366 515.895 366 517 366 518.105 365.105 519 364 519ZM374 519C372.895 519 372 518.105 372 517 372 515.895 372.895 515 374 515 375.105 515 376 515.895 376 517 376 518.105 375.105 519 374 519ZM384 519C382.895 519 382 518.105 382 517 382 515.895 382.895 515 384 515 385.105 515 386 515.895 386 517 386 518.105 385.105 519 384 519Z" fill="#262626"/></g></g></g><g clip-path="url(#clip28)"><g clip-path="url(#clip29)"><g clip-path="url(#clip30)"><path d="M44.4439 66.1721 50.3698 66.1721 50.3698 74.0732 44.4439 74.0732Z" fill="#262626" transform="matrix(1.00286 0 0 1 592.137 315.236)"/><path d="M44.4439 78.0238 50.3698 78.0238 50.3698 83.9496 44.4439 83.9496Z" fill="#262626" transform="matrix(1.00286 0 0 1 592.137 315.236)"/><path d="M54.3203 78.0238 82.962 78.0238 82.962 83.9496 54.3203 83.9496Z" fill="#262626" transform="matrix(1.00286 0 0 1 592.137 315.236)"/><path d="M11.8517 78.0238 40.4933 78.0238 40.4933 83.9496 11.8517 83.9496Z" fill="#262626" transform="matrix(1.00286 0 0 1 592.137 315.236)"/><path d="M75.4756 50.3698 19.338 50.3698C17.3853 50.3698 15.8023 51.9528 15.8023 53.9055L15.8023 62.6363C15.8023 64.5891 17.3853 66.1721 19.338 66.1721L75.4756 66.1721C77.4284 66.1721 79.0114 64.5891 79.0114 62.6363L79.0114 53.9055C79.0114 51.9528 77.4284 50.3698 75.4756 50.3698ZM25.6787 60.2462C24.5878 60.2462 23.7034 59.3619 23.7034 58.2709 23.7034 57.18 24.5878 56.2956 25.6787 56.2956 26.7697 56.2956 27.654 57.18 27.654 58.2709 27.654 59.3619 26.7697 60.2462 25.6787 60.2462ZM35.5551 60.2462C34.4642 60.2462 33.5798 59.3619 33.5798 58.2709 33.5798 57.18 34.4642 56.2956 35.5551 56.2956 36.6461 56.2956 37.5304 57.18 37.5304 58.2709 37.5304 59.3619 36.6461 60.2462 35.5551 60.2462ZM45.4316 60.2462C44.3406 60.2462 43.4563 59.3619 43.4563 58.2709 43.4563 57.18 44.3406 56.2956 45.4316 56.2956 46.5225 56.2956 47.4068 57.18 47.4068 58.2709 47.4068 59.3619 46.5225 60.2462 45.4316 60.2462Z" fill="#262626" transform="matrix(1.00286 0 0 1 592.137 315.236)"/><path d="M75.4756 30.6169 19.338 30.6169C17.3853 30.6169 15.8023 32.1999 15.8023 34.1527L15.8023 42.8834C15.8023 44.8362 17.3853 46.4192 19.338 46.4192L75.4756 46.4192C77.4284 46.4192 79.0114 44.8362 79.0114 42.8834L79.0114 34.1527C79.0114 32.1999 77.4284 30.6169 75.4756 30.6169ZM25.6787 40.4933C24.5878 40.4933 23.7034 39.609 23.7034 38.5181 23.7034 37.4271 24.5878 36.5428 25.6787 36.5428 26.7697 36.5428 27.654 37.4271 27.654 38.5181 27.654 39.609 26.7697 40.4933 25.6787 40.4933ZM35.5551 40.4933C34.4642 40.4933 33.5798 39.609 33.5798 38.5181 33.5798 37.4271 34.4642 36.5428 35.5551 36.5428 36.6461 36.5428 37.5304 37.4271 37.5304 38.5181 37.5304 39.609 36.6461 40.4933 35.5551 40.4933ZM45.4316 40.4933C44.3406 40.4933 43.4563 39.609 43.4563 38.5181 43.4563 37.4271 44.3406 36.5428 45.4316 36.5428 46.5225 36.5428 47.4068 37.4271 47.4068 38.5181 47.4068 39.609 46.5225 40.4933 45.4316 40.4933Z" fill="#262626" transform="matrix(1.00286 0 0 1 592.137 315.236)"/><path d="M75.4756 10.8641 19.338 10.8641C17.3853 10.8641 15.8023 12.4471 15.8023 14.3998L15.8023 23.1306C15.8023 25.0834 17.3853 26.6663 19.338 26.6663L75.4756 26.6663C77.4284 26.6663 79.0114 25.0834 79.0114 23.1306L79.0114 14.3998C79.0114 12.4471 77.4284 10.8641 75.4756 10.8641ZM25.6787 20.7405C24.5878 20.7405 23.7034 19.8562 23.7034 18.7652 23.7034 17.6743 24.5878 16.7899 25.6787 16.7899 26.7697 16.7899 27.654 17.6743 27.654 18.7652 27.654 19.8562 26.7697 20.7405 25.6787 20.7405ZM35.5551 20.7405C34.4642 20.7405 33.5798 19.8562 33.5798 18.7652 33.5798 17.6743 34.4642 16.7899 35.5551 16.7899 36.6461 16.7899 37.5304 17.6743 37.5304 18.7652 37.5304 19.8562 36.6461 20.7405 35.5551 20.7405ZM45.4316 20.7405C44.3406 20.7405 43.4563 19.8562 43.4563 18.7652 43.4563 17.6743 44.3406 16.7899 45.4316 16.7899 46.5225 16.7899 47.4068 17.6743 47.4068 18.7652 47.4068 19.8562 46.5225 20.7405 45.4316 20.7405Z" fill="#262626" transform="matrix(1.00286 0 0 1 592.137 315.236)"/></g></g></g><g clip-path="url(#clip31)"><g clip-path="url(#clip32)"><g clip-path="url(#clip33)"><path d="M533 469 539 469 539 477 533 477Z" fill="#262626"/><path d="M533 481 539 481 539 487 533 487Z" fill="#262626"/><path d="M543 481 572 481 572 487 543 487Z" fill="#262626"/><path d="M500 481 529 481 529 487 500 487Z" fill="#262626"/><path d="M564.42 453 507.58 453C505.603 453 504 454.603 504 456.58L504 465.42C504 467.397 505.603 469 507.58 469L564.42 469C566.397 469 568 467.397 568 465.42L568 456.58C568 454.603 566.397 453 564.42 453ZM514 463C512.895 463 512 462.105 512 461 512 459.895 512.895 459 514 459 515.105 459 516 459.895 516 461 516 462.105 515.105 463 514 463ZM524 463C522.895 463 522 462.105 522 461 522 459.895 522.895 459 524 459 525.105 459 526 459.895 526 461 526 462.105 525.105 463 524 463ZM534 463C532.895 463 532 462.105 532 461 532 459.895 532.895 459 534 459 535.105 459 536 459.895 536 461 536 462.105 535.105 463 534 463Z" fill="#262626"/><path d="M564.42 433 507.58 433C505.603 433 504 434.603 504 436.58L504 445.42C504 447.397 505.603 449 507.58 449L564.42 449C566.397 449 568 447.397 568 445.42L568 436.58C568 434.603 566.397 433 564.42 433ZM514 443C512.895 443 512 442.105 512 441 512 439.895 512.895 439 514 439 515.105 439 516 439.895 516 441 516 442.105 515.105 443 514 443ZM524 443C522.895 443 522 442.105 522 441 522 439.895 522.895 439 524 439 525.105 439 526 439.895 526 441 526 442.105 525.105 443 524 443ZM534 443C532.895 443 532 442.105 532 441 532 439.895 532.895 439 534 439 535.105 439 536 439.895 536 441 536 442.105 535.105 443 534 443Z" fill="#262626"/><path d="M564.42 413 507.58 413C505.603 413 504 414.603 504 416.58L504 425.42C504 427.397 505.603 429 507.58 429L564.42 429C566.397 429 568 427.397 568 425.42L568 416.58C568 414.603 566.397 413 564.42 413ZM514 423C512.895 423 512 422.105 512 421 512 419.895 512.895 419 514 419 515.105 419 516 419.895 516 421 516 422.105 515.105 423 514 423ZM524 423C522.895 423 522 422.105 522 421 522 419.895 522.895 419 524 419 525.105 419 526 419.895 526 421 526 422.105 525.105 423 524 423ZM534 423C532.895 423 532 422.105 532 421 532 419.895 532.895 419 534 419 535.105 419 536 419.895 536 421 536 422.105 535.105 423 534 423Z" fill="#262626"/></g></g></g><g clip-path="url(#clip34)"><g clip-path="url(#clip35)"><g clip-path="url(#clip36)"><path d="M637 469 643 469 643 477 637 477Z" fill="#262626"/><path d="M637 481 643 481 643 487 637 487Z" fill="#262626"/><path d="M647 481 676 481 676 487 647 487Z" fill="#262626"/><path d="M604 481 633 481 633 487 604 487Z" fill="#262626"/><path d="M668.42 453 611.58 453C609.603 453 608 454.603 608 456.58L608 465.42C608 467.397 609.603 469 611.58 469L668.42 469C670.397 469 672 467.397 672 465.42L672 456.58C672 454.603 670.397 453 668.42 453ZM618 463C616.895 463 616 462.105 616 461 616 459.895 616.895 459 618 459 619.105 459 620 459.895 620 461 620 462.105 619.105 463 618 463ZM628 463C626.895 463 626 462.105 626 461 626 459.895 626.895 459 628 459 629.105 459 630 459.895 630 461 630 462.105 629.105 463 628 463ZM638 463C636.895 463 636 462.105 636 461 636 459.895 636.895 459 638 459 639.105 459 640 459.895 640 461 640 462.105 639.105 463 638 463Z" fill="#262626"/><path d="M668.42 433 611.58 433C609.603 433 608 434.603 608 436.58L608 445.42C608 447.397 609.603 449 611.58 449L668.42 449C670.397 449 672 447.397 672 445.42L672 436.58C672 434.603 670.397 433 668.42 433ZM618 443C616.895 443 616 442.105 616 441 616 439.895 616.895 439 618 439 619.105 439 620 439.895 620 441 620 442.105 619.105 443 618 443ZM628 443C626.895 443 626 442.105 626 441 626 439.895 626.895 439 628 439 629.105 439 630 439.895 630 441 630 442.105 629.105 443 628 443ZM638 443C636.895 443 636 442.105 636 441 636 439.895 636.895 439 638 439 639.105 439 640 439.895 640 441 640 442.105 639.105 443 638 443Z" fill="#262626"/><path d="M668.42 413 611.58 413C609.603 413 608 414.603 608 416.58L608 425.42C608 427.397 609.603 429 611.58 429L668.42 429C670.397 429 672 427.397 672 425.42L672 416.58C672 414.603 670.397 413 668.42 413ZM618 423C616.895 423 616 422.105 616 421 616 419.895 616.895 419 618 419 619.105 419 620 419.895 620 421 620 422.105 619.105 423 618 423ZM628 423C626.895 423 626 422.105 626 421 626 419.895 626.895 419 628 419 629.105 419 630 419.895 630 421 630 422.105 629.105 423 628 423ZM638 423C636.895 423 636 422.105 636 421 636 419.895 636.895 419 638 419 639.105 419 640 419.895 640 421 640 422.105 639.105 423 638 423Z" fill="#262626"/></g></g></g><g clip-path="url(#clip37)"><g clip-path="url(#clip38)"><g clip-path="url(#clip39)"><path d="M741 469 747 469 747 477 741 477Z" fill="#262626"/><path d="M741 481 747 481 747 487 741 487Z" fill="#262626"/><path d="M751 481 780 481 780 487 751 487Z" fill="#262626"/><path d="M708 481 737 481 737 487 708 487Z" fill="#262626"/><path d="M772.42 453 715.58 453C713.603 453 712 454.603 712 456.58L712 465.42C712 467.397 713.603 469 715.58 469L772.42 469C774.397 469 776 467.397 776 465.42L776 456.58C776 454.603 774.397 453 772.42 453ZM722 463C720.895 463 720 462.105 720 461 720 459.895 720.895 459 722 459 723.105 459 724 459.895 724 461 724 462.105 723.105 463 722 463ZM732 463C730.895 463 730 462.105 730 461 730 459.895 730.895 459 732 459 733.105 459 734 459.895 734 461 734 462.105 733.105 463 732 463ZM742 463C740.895 463 740 462.105 740 461 740 459.895 740.895 459 742 459 743.105 459 744 459.895 744 461 744 462.105 743.105 463 742 463Z" fill="#262626"/><path d="M772.42 433 715.58 433C713.603 433 712 434.603 712 436.58L712 445.42C712 447.397 713.603 449 715.58 449L772.42 449C774.397 449 776 447.397 776 445.42L776 436.58C776 434.603 774.397 433 772.42 433ZM722 443C720.895 443 720 442.105 720 441 720 439.895 720.895 439 722 439 723.105 439 724 439.895 724 441 724 442.105 723.105 443 722 443ZM732 443C730.895 443 730 442.105 730 441 730 439.895 730.895 439 732 439 733.105 439 734 439.895 734 441 734 442.105 733.105 443 732 443ZM742 443C740.895 443 740 442.105 740 441 740 439.895 740.895 439 742 439 743.105 439 744 439.895 744 441 744 442.105 743.105 443 742 443Z" fill="#262626"/><path d="M772.42 413 715.58 413C713.603 413 712 414.603 712 416.58L712 425.42C712 427.397 713.603 429 715.58 429L772.42 429C774.397 429 776 427.397 776 425.42L776 416.58C776 414.603 774.397 413 772.42 413ZM722 423C720.895 423 720 422.105 720 421 720 419.895 720.895 419 722 419 723.105 419 724 419.895 724 421 724 422.105 723.105 423 722 423ZM732 423C730.895 423 730 422.105 730 421 730 419.895 730.895 419 732 419 733.105 419 734 419.895 734 421 734 422.105 733.105 423 732 423ZM742 423C740.895 423 740 422.105 740 421 740 419.895 740.895 419 742 419 743.105 419 744 419.895 744 421 744 422.105 743.105 423 742 423Z" fill="#262626"/></g></g></g><g clip-path="url(#clip40)"><g clip-path="url(#clip41)"><g clip-path="url(#clip42)"><path d="M533 565 539 565 539 573 533 573Z" fill="#262626"/><path d="M533 577 539 577 539 583 533 583Z" fill="#262626"/><path d="M543 577 572 577 572 583 543 583Z" fill="#262626"/><path d="M500 577 529 577 529 583 500 583Z" fill="#262626"/><path d="M564.42 549 507.58 549C505.603 549 504 550.603 504 552.58L504 561.42C504 563.397 505.603 565 507.58 565L564.42 565C566.397 565 568 563.397 568 561.42L568 552.58C568 550.603 566.397 549 564.42 549ZM514 559C512.895 559 512 558.105 512 557 512 555.895 512.895 555 514 555 515.105 555 516 555.895 516 557 516 558.105 515.105 559 514 559ZM524 559C522.895 559 522 558.105 522 557 522 555.895 522.895 555 524 555 525.105 555 526 555.895 526 557 526 558.105 525.105 559 524 559ZM534 559C532.895 559 532 558.105 532 557 532 555.895 532.895 555 534 555 535.105 555 536 555.895 536 557 536 558.105 535.105 559 534 559Z" fill="#262626"/><path d="M564.42 529 507.58 529C505.603 529 504 530.603 504 532.58L504 541.42C504 543.397 505.603 545 507.58 545L564.42 545C566.397 545 568 543.397 568 541.42L568 532.58C568 530.603 566.397 529 564.42 529ZM514 539C512.895 539 512 538.105 512 537 512 535.895 512.895 535 514 535 515.105 535 516 535.895 516 537 516 538.105 515.105 539 514 539ZM524 539C522.895 539 522 538.105 522 537 522 535.895 522.895 535 524 535 525.105 535 526 535.895 526 537 526 538.105 525.105 539 524 539ZM534 539C532.895 539 532 538.105 532 537 532 535.895 532.895 535 534 535 535.105 535 536 535.895 536 537 536 538.105 535.105 539 534 539Z" fill="#262626"/><path d="M564.42 509 507.58 509C505.603 509 504 510.603 504 512.58L504 521.42C504 523.397 505.603 525 507.58 525L564.42 525C566.397 525 568 523.397 568 521.42L568 512.58C568 510.603 566.397 509 564.42 509ZM514 519C512.895 519 512 518.105 512 517 512 515.895 512.895 515 514 515 515.105 515 516 515.895 516 517 516 518.105 515.105 519 514 519ZM524 519C522.895 519 522 518.105 522 517 522 515.895 522.895 515 524 515 525.105 515 526 515.895 526 517 526 518.105 525.105 519 524 519ZM534 519C532.895 519 532 518.105 532 517 532 515.895 532.895 515 534 515 535.105 515 536 515.895 536 517 536 518.105 535.105 519 534 519Z" fill="#262626"/></g></g></g><g clip-path="url(#clip43)"><g clip-path="url(#clip44)"><g clip-path="url(#clip45)"><path d="M637 565 643 565 643 573 637 573Z" fill="#262626"/><path d="M637 577 643 577 643 583 637 583Z" fill="#262626"/><path d="M647 577 676 577 676 583 647 583Z" fill="#262626"/><path d="M604 577 633 577 633 583 604 583Z" fill="#262626"/><path d="M668.42 549 611.58 549C609.603 549 608 550.603 608 552.58L608 561.42C608 563.397 609.603 565 611.58 565L668.42 565C670.397 565 672 563.397 672 561.42L672 552.58C672 550.603 670.397 549 668.42 549ZM618 559C616.895 559 616 558.105 616 557 616 555.895 616.895 555 618 555 619.105 555 620 555.895 620 557 620 558.105 619.105 559 618 559ZM628 559C626.895 559 626 558.105 626 557 626 555.895 626.895 555 628 555 629.105 555 630 555.895 630 557 630 558.105 629.105 559 628 559ZM638 559C636.895 559 636 558.105 636 557 636 555.895 636.895 555 638 555 639.105 555 640 555.895 640 557 640 558.105 639.105 559 638 559Z" fill="#262626"/><path d="M668.42 529 611.58 529C609.603 529 608 530.603 608 532.58L608 541.42C608 543.397 609.603 545 611.58 545L668.42 545C670.397 545 672 543.397 672 541.42L672 532.58C672 530.603 670.397 529 668.42 529ZM618 539C616.895 539 616 538.105 616 537 616 535.895 616.895 535 618 535 619.105 535 620 535.895 620 537 620 538.105 619.105 539 618 539ZM628 539C626.895 539 626 538.105 626 537 626 535.895 626.895 535 628 535 629.105 535 630 535.895 630 537 630 538.105 629.105 539 628 539ZM638 539C636.895 539 636 538.105 636 537 636 535.895 636.895 535 638 535 639.105 535 640 535.895 640 537 640 538.105 639.105 539 638 539Z" fill="#262626"/><path d="M668.42 509 611.58 509C609.603 509 608 510.603 608 512.58L608 521.42C608 523.397 609.603 525 611.58 525L668.42 525C670.397 525 672 523.397 672 521.42L672 512.58C672 510.603 670.397 509 668.42 509ZM618 519C616.895 519 616 518.105 616 517 616 515.895 616.895 515 618 515 619.105 515 620 515.895 620 517 620 518.105 619.105 519 618 519ZM628 519C626.895 519 626 518.105 626 517 626 515.895 626.895 515 628 515 629.105 515 630 515.895 630 517 630 518.105 629.105 519 628 519ZM638 519C636.895 519 636 518.105 636 517 636 515.895 636.895 515 638 515 639.105 515 640 515.895 640 517 640 518.105 639.105 519 638 519Z" fill="#262626"/></g></g></g><g clip-path="url(#clip46)"><g clip-path="url(#clip47)"><g clip-path="url(#clip48)"><path d="M741 565 747 565 747 573 741 573Z" fill="#262626"/><path d="M741 577 747 577 747 583 741 583Z" fill="#262626"/><path d="M751 577 780 577 780 583 751 583Z" fill="#262626"/><path d="M708 577 737 577 737 583 708 583Z" fill="#262626"/><path d="M772.42 549 715.58 549C713.603 549 712 550.603 712 552.58L712 561.42C712 563.397 713.603 565 715.58 565L772.42 565C774.397 565 776 563.397 776 561.42L776 552.58C776 550.603 774.397 549 772.42 549ZM722 559C720.895 559 720 558.105 720 557 720 555.895 720.895 555 722 555 723.105 555 724 555.895 724 557 724 558.105 723.105 559 722 559ZM732 559C730.895 559 730 558.105 730 557 730 555.895 730.895 555 732 555 733.105 555 734 555.895 734 557 734 558.105 733.105 559 732 559ZM742 559C740.895 559 740 558.105 740 557 740 555.895 740.895 555 742 555 743.105 555 744 555.895 744 557 744 558.105 743.105 559 742 559Z" fill="#262626"/><path d="M772.42 529 715.58 529C713.603 529 712 530.603 712 532.58L712 541.42C712 543.397 713.603 545 715.58 545L772.42 545C774.397 545 776 543.397 776 541.42L776 532.58C776 530.603 774.397 529 772.42 529ZM722 539C720.895 539 720 538.105 720 537 720 535.895 720.895 535 722 535 723.105 535 724 535.895 724 537 724 538.105 723.105 539 722 539ZM732 539C730.895 539 730 538.105 730 537 730 535.895 730.895 535 732 535 733.105 535 734 535.895 734 537 734 538.105 733.105 539 732 539ZM742 539C740.895 539 740 538.105 740 537 740 535.895 740.895 535 742 535 743.105 535 744 535.895 744 537 744 538.105 743.105 539 742 539Z" fill="#262626"/><path d="M772.42 509 715.58 509C713.603 509 712 510.603 712 512.58L712 521.42C712 523.397 713.603 525 715.58 525L772.42 525C774.397 525 776 523.397 776 521.42L776 512.58C776 510.603 774.397 509 772.42 509ZM722 519C720.895 519 720 518.105 720 517 720 515.895 720.895 515 722 515 723.105 515 724 515.895 724 517 724 518.105 723.105 519 722 519ZM732 519C730.895 519 730 518.105 730 517 730 515.895 730.895 515 732 515 733.105 515 734 515.895 734 517 734 518.105 733.105 519 732 519ZM742 519C740.895 519 740 518.105 740 517 740 515.895 740.895 515 742 515 743.105 515 744 515.895 744 517 744 518.105 743.105 519 742 519Z" fill="#262626"/></g></g></g><g clip-path="url(#clip49)"><g clip-path="url(#clip50)"><g clip-path="url(#clip51)"><path d="M44.4439 66.1721 50.3698 66.1721 50.3698 74.0732 44.4439 74.0732Z" fill="#262626" transform="matrix(1.01572 0 0 1 950.023 315.236)"/><path d="M44.4439 78.0238 50.3698 78.0238 50.3698 83.9496 44.4439 83.9496Z" fill="#262626" transform="matrix(1.01572 0 0 1 950.023 315.236)"/><path d="M54.3203 78.0238 82.962 78.0238 82.962 83.9496 54.3203 83.9496Z" fill="#262626" transform="matrix(1.01572 0 0 1 950.023 315.236)"/><path d="M11.8517 78.0238 40.4933 78.0238 40.4933 83.9496 11.8517 83.9496Z" fill="#262626" transform="matrix(1.01572 0 0 1 950.023 315.236)"/><path d="M75.4756 50.3698 19.338 50.3698C17.3853 50.3698 15.8023 51.9528 15.8023 53.9055L15.8023 62.6363C15.8023 64.5891 17.3853 66.1721 19.338 66.1721L75.4756 66.1721C77.4284 66.1721 79.0114 64.5891 79.0114 62.6363L79.0114 53.9055C79.0114 51.9528 77.4284 50.3698 75.4756 50.3698ZM25.6787 60.2462C24.5878 60.2462 23.7034 59.3619 23.7034 58.2709 23.7034 57.18 24.5878 56.2956 25.6787 56.2956 26.7697 56.2956 27.654 57.18 27.654 58.2709 27.654 59.3619 26.7697 60.2462 25.6787 60.2462ZM35.5551 60.2462C34.4642 60.2462 33.5798 59.3619 33.5798 58.2709 33.5798 57.18 34.4642 56.2956 35.5551 56.2956 36.6461 56.2956 37.5304 57.18 37.5304 58.2709 37.5304 59.3619 36.6461 60.2462 35.5551 60.2462ZM45.4316 60.2462C44.3406 60.2462 43.4563 59.3619 43.4563 58.2709 43.4563 57.18 44.3406 56.2956 45.4316 56.2956 46.5225 56.2956 47.4068 57.18 47.4068 58.2709 47.4068 59.3619 46.5225 60.2462 45.4316 60.2462Z" fill="#262626" transform="matrix(1.01572 0 0 1 950.023 315.236)"/><path d="M75.4756 30.6169 19.338 30.6169C17.3853 30.6169 15.8023 32.1999 15.8023 34.1527L15.8023 42.8834C15.8023 44.8362 17.3853 46.4192 19.338 46.4192L75.4756 46.4192C77.4284 46.4192 79.0114 44.8362 79.0114 42.8834L79.0114 34.1527C79.0114 32.1999 77.4284 30.6169 75.4756 30.6169ZM25.6787 40.4933C24.5878 40.4933 23.7034 39.609 23.7034 38.5181 23.7034 37.4271 24.5878 36.5428 25.6787 36.5428 26.7697 36.5428 27.654 37.4271 27.654 38.5181 27.654 39.609 26.7697 40.4933 25.6787 40.4933ZM35.5551 40.4933C34.4642 40.4933 33.5798 39.609 33.5798 38.5181 33.5798 37.4271 34.4642 36.5428 35.5551 36.5428 36.6461 36.5428 37.5304 37.4271 37.5304 38.5181 37.5304 39.609 36.6461 40.4933 35.5551 40.4933ZM45.4316 40.4933C44.3406 40.4933 43.4563 39.609 43.4563 38.5181 43.4563 37.4271 44.3406 36.5428 45.4316 36.5428 46.5225 36.5428 47.4068 37.4271 47.4068 38.5181 47.4068 39.609 46.5225 40.4933 45.4316 40.4933Z" fill="#262626" transform="matrix(1.01572 0 0 1 950.023 315.236)"/><path d="M75.4756 10.8641 19.338 10.8641C17.3853 10.8641 15.8023 12.4471 15.8023 14.3998L15.8023 23.1306C15.8023 25.0834 17.3853 26.6663 19.338 26.6663L75.4756 26.6663C77.4284 26.6663 79.0114 25.0834 79.0114 23.1306L79.0114 14.3998C79.0114 12.4471 77.4284 10.8641 75.4756 10.8641ZM25.6787 20.7405C24.5878 20.7405 23.7034 19.8562 23.7034 18.7652 23.7034 17.6743 24.5878 16.7899 25.6787 16.7899 26.7697 16.7899 27.654 17.6743 27.654 18.7652 27.654 19.8562 26.7697 20.7405 25.6787 20.7405ZM35.5551 20.7405C34.4642 20.7405 33.5798 19.8562 33.5798 18.7652 33.5798 17.6743 34.4642 16.7899 35.5551 16.7899 36.6461 16.7899 37.5304 17.6743 37.5304 18.7652 37.5304 19.8562 36.6461 20.7405 35.5551 20.7405ZM45.4316 20.7405C44.3406 20.7405 43.4563 19.8562 43.4563 18.7652 43.4563 17.6743 44.3406 16.7899 45.4316 16.7899 46.5225 16.7899 47.4068 17.6743 47.4068 18.7652 47.4068 19.8562 46.5225 20.7405 45.4316 20.7405Z" fill="#262626" transform="matrix(1.01572 0 0 1 950.023 315.236)"/></g></g></g><g clip-path="url(#clip52)"><g clip-path="url(#clip53)"><g clip-path="url(#clip54)"><path d="M891 469 897 469 897 477 891 477Z" fill="#262626"/><path d="M891 481 897 481 897 487 891 487Z" fill="#262626"/><path d="M901 481 930 481 930 487 901 487Z" fill="#262626"/><path d="M858 481 887 481 887 487 858 487Z" fill="#262626"/><path d="M922.42 453 865.58 453C863.603 453 862 454.603 862 456.58L862 465.42C862 467.397 863.603 469 865.58 469L922.42 469C924.397 469 926 467.397 926 465.42L926 456.58C926 454.603 924.397 453 922.42 453ZM872 463C870.895 463 870 462.105 870 461 870 459.895 870.895 459 872 459 873.105 459 874 459.895 874 461 874 462.105 873.105 463 872 463ZM882 463C880.895 463 880 462.105 880 461 880 459.895 880.895 459 882 459 883.105 459 884 459.895 884 461 884 462.105 883.105 463 882 463ZM892 463C890.895 463 890 462.105 890 461 890 459.895 890.895 459 892 459 893.105 459 894 459.895 894 461 894 462.105 893.105 463 892 463Z" fill="#262626"/><path d="M922.42 433 865.58 433C863.603 433 862 434.603 862 436.58L862 445.42C862 447.397 863.603 449 865.58 449L922.42 449C924.397 449 926 447.397 926 445.42L926 436.58C926 434.603 924.397 433 922.42 433ZM872 443C870.895 443 870 442.105 870 441 870 439.895 870.895 439 872 439 873.105 439 874 439.895 874 441 874 442.105 873.105 443 872 443ZM882 443C880.895 443 880 442.105 880 441 880 439.895 880.895 439 882 439 883.105 439 884 439.895 884 441 884 442.105 883.105 443 882 443ZM892 443C890.895 443 890 442.105 890 441 890 439.895 890.895 439 892 439 893.105 439 894 439.895 894 441 894 442.105 893.105 443 892 443Z" fill="#262626"/><path d="M922.42 413 865.58 413C863.603 413 862 414.603 862 416.58L862 425.42C862 427.397 863.603 429 865.58 429L922.42 429C924.397 429 926 427.397 926 425.42L926 416.58C926 414.603 924.397 413 922.42 413ZM872 423C870.895 423 870 422.105 870 421 870 419.895 870.895 419 872 419 873.105 419 874 419.895 874 421 874 422.105 873.105 423 872 423ZM882 423C880.895 423 880 422.105 880 421 880 419.895 880.895 419 882 419 883.105 419 884 419.895 884 421 884 422.105 883.105 423 882 423ZM892 423C890.895 423 890 422.105 890 421 890 419.895 890.895 419 892 419 893.105 419 894 419.895 894 421 894 422.105 893.105 423 892 423Z" fill="#262626"/></g></g></g><g clip-path="url(#clip55)"><g clip-path="url(#clip56)"><g clip-path="url(#clip57)"><path d="M996 469 1002 469 1002 477 996 477Z" fill="#262626"/><path d="M996 481 1002 481 1002 487 996 487Z" fill="#262626"/><path d="M1006 481 1035 481 1035 487 1006 487Z" fill="#262626"/><path d="M963 481 992 481 992 487 963 487Z" fill="#262626"/><path d="M1027.42 453 970.58 453C968.603 453 967 454.603 967 456.58L967 465.42C967 467.397 968.603 469 970.58 469L1027.42 469C1029.4 469 1031 467.397 1031 465.42L1031 456.58C1031 454.603 1029.4 453 1027.42 453ZM977 463C975.895 463 975 462.105 975 461 975 459.895 975.895 459 977 459 978.105 459 979 459.895 979 461 979 462.105 978.105 463 977 463ZM987 463C985.895 463 985 462.105 985 461 985 459.895 985.895 459 987 459 988.105 459 989 459.895 989 461 989 462.105 988.105 463 987 463ZM997 463C995.895 463 995 462.105 995 461 995 459.895 995.895 459 997 459 998.105 459 999 459.895 999 461 999 462.105 998.105 463 997 463Z" fill="#262626"/><path d="M1027.42 433 970.58 433C968.603 433 967 434.603 967 436.58L967 445.42C967 447.397 968.603 449 970.58 449L1027.42 449C1029.4 449 1031 447.397 1031 445.42L1031 436.58C1031 434.603 1029.4 433 1027.42 433ZM977 443C975.895 443 975 442.105 975 441 975 439.895 975.895 439 977 439 978.105 439 979 439.895 979 441 979 442.105 978.105 443 977 443ZM987 443C985.895 443 985 442.105 985 441 985 439.895 985.895 439 987 439 988.105 439 989 439.895 989 441 989 442.105 988.105 443 987 443ZM997 443C995.895 443 995 442.105 995 441 995 439.895 995.895 439 997 439 998.105 439 999 439.895 999 441 999 442.105 998.105 443 997 443Z" fill="#262626"/><path d="M1027.42 413 970.58 413C968.603 413 967 414.603 967 416.58L967 425.42C967 427.397 968.603 429 970.58 429L1027.42 429C1029.4 429 1031 427.397 1031 425.42L1031 416.58C1031 414.603 1029.4 413 1027.42 413ZM977 423C975.895 423 975 422.105 975 421 975 419.895 975.895 419 977 419 978.105 419 979 419.895 979 421 979 422.105 978.105 423 977 423ZM987 423C985.895 423 985 422.105 985 421 985 419.895 985.895 419 987 419 988.105 419 989 419.895 989 421 989 422.105 988.105 423 987 423ZM997 423C995.895 423 995 422.105 995 421 995 419.895 995.895 419 997 419 998.105 419 999 419.895 999 421 999 422.105 998.105 423 997 423Z" fill="#262626"/></g></g></g><g clip-path="url(#clip58)"><g clip-path="url(#clip59)"><g clip-path="url(#clip60)"><path d="M1100 469 1106 469 1106 477 1100 477Z" fill="#262626"/><path d="M1100 481 1106 481 1106 487 1100 487Z" fill="#262626"/><path d="M1110 481 1139 481 1139 487 1110 487Z" fill="#262626"/><path d="M1067 481 1096 481 1096 487 1067 487Z" fill="#262626"/><path d="M1131.42 453 1074.58 453C1072.6 453 1071 454.603 1071 456.58L1071 465.42C1071 467.397 1072.6 469 1074.58 469L1131.42 469C1133.4 469 1135 467.397 1135 465.42L1135 456.58C1135 454.603 1133.4 453 1131.42 453ZM1081 463C1079.9 463 1079 462.105 1079 461 1079 459.895 1079.9 459 1081 459 1082.1 459 1083 459.895 1083 461 1083 462.105 1082.1 463 1081 463ZM1091 463C1089.9 463 1089 462.105 1089 461 1089 459.895 1089.9 459 1091 459 1092.1 459 1093 459.895 1093 461 1093 462.105 1092.1 463 1091 463ZM1101 463C1099.9 463 1099 462.105 1099 461 1099 459.895 1099.9 459 1101 459 1102.1 459 1103 459.895 1103 461 1103 462.105 1102.1 463 1101 463Z" fill="#262626"/><path d="M1131.42 433 1074.58 433C1072.6 433 1071 434.603 1071 436.58L1071 445.42C1071 447.397 1072.6 449 1074.58 449L1131.42 449C1133.4 449 1135 447.397 1135 445.42L1135 436.58C1135 434.603 1133.4 433 1131.42 433ZM1081 443C1079.9 443 1079 442.105 1079 441 1079 439.895 1079.9 439 1081 439 1082.1 439 1083 439.895 1083 441 1083 442.105 1082.1 443 1081 443ZM1091 443C1089.9 443 1089 442.105 1089 441 1089 439.895 1089.9 439 1091 439 1092.1 439 1093 439.895 1093 441 1093 442.105 1092.1 443 1091 443ZM1101 443C1099.9 443 1099 442.105 1099 441 1099 439.895 1099.9 439 1101 439 1102.1 439 1103 439.895 1103 441 1103 442.105 1102.1 443 1101 443Z" fill="#262626"/><path d="M1131.42 413 1074.58 413C1072.6 413 1071 414.603 1071 416.58L1071 425.42C1071 427.397 1072.6 429 1074.58 429L1131.42 429C1133.4 429 1135 427.397 1135 425.42L1135 416.58C1135 414.603 1133.4 413 1131.42 413ZM1081 423C1079.9 423 1079 422.105 1079 421 1079 419.895 1079.9 419 1081 419 1082.1 419 1083 419.895 1083 421 1083 422.105 1082.1 423 1081 423ZM1091 423C1089.9 423 1089 422.105 1089 421 1089 419.895 1089.9 419 1091 419 1092.1 419 1093 419.895 1093 421 1093 422.105 1092.1 423 1091 423ZM1101 423C1099.9 423 1099 422.105 1099 421 1099 419.895 1099.9 419 1101 419 1102.1 419 1103 419.895 1103 421 1103 422.105 1102.1 423 1101 423Z" fill="#262626"/></g></g></g><g clip-path="url(#clip61)"><g clip-path="url(#clip62)"><g clip-path="url(#clip63)"><path d="M891 565 897 565 897 573 891 573Z" fill="#262626"/><path d="M891 577 897 577 897 583 891 583Z" fill="#262626"/><path d="M901 577 930 577 930 583 901 583Z" fill="#262626"/><path d="M858 577 887 577 887 583 858 583Z" fill="#262626"/><path d="M922.42 549 865.58 549C863.603 549 862 550.603 862 552.58L862 561.42C862 563.397 863.603 565 865.58 565L922.42 565C924.397 565 926 563.397 926 561.42L926 552.58C926 550.603 924.397 549 922.42 549ZM872 559C870.895 559 870 558.105 870 557 870 555.895 870.895 555 872 555 873.105 555 874 555.895 874 557 874 558.105 873.105 559 872 559ZM882 559C880.895 559 880 558.105 880 557 880 555.895 880.895 555 882 555 883.105 555 884 555.895 884 557 884 558.105 883.105 559 882 559ZM892 559C890.895 559 890 558.105 890 557 890 555.895 890.895 555 892 555 893.105 555 894 555.895 894 557 894 558.105 893.105 559 892 559Z" fill="#262626"/><path d="M922.42 529 865.58 529C863.603 529 862 530.603 862 532.58L862 541.42C862 543.397 863.603 545 865.58 545L922.42 545C924.397 545 926 543.397 926 541.42L926 532.58C926 530.603 924.397 529 922.42 529ZM872 539C870.895 539 870 538.105 870 537 870 535.895 870.895 535 872 535 873.105 535 874 535.895 874 537 874 538.105 873.105 539 872 539ZM882 539C880.895 539 880 538.105 880 537 880 535.895 880.895 535 882 535 883.105 535 884 535.895 884 537 884 538.105 883.105 539 882 539ZM892 539C890.895 539 890 538.105 890 537 890 535.895 890.895 535 892 535 893.105 535 894 535.895 894 537 894 538.105 893.105 539 892 539Z" fill="#262626"/><path d="M922.42 509 865.58 509C863.603 509 862 510.603 862 512.58L862 521.42C862 523.397 863.603 525 865.58 525L922.42 525C924.397 525 926 523.397 926 521.42L926 512.58C926 510.603 924.397 509 922.42 509ZM872 519C870.895 519 870 518.105 870 517 870 515.895 870.895 515 872 515 873.105 515 874 515.895 874 517 874 518.105 873.105 519 872 519ZM882 519C880.895 519 880 518.105 880 517 880 515.895 880.895 515 882 515 883.105 515 884 515.895 884 517 884 518.105 883.105 519 882 519ZM892 519C890.895 519 890 518.105 890 517 890 515.895 890.895 515 892 515 893.105 515 894 515.895 894 517 894 518.105 893.105 519 892 519Z" fill="#262626"/></g></g></g><g clip-path="url(#clip64)"><g clip-path="url(#clip65)"><g clip-path="url(#clip66)"><path d="M996 565 1002 565 1002 573 996 573Z" fill="#262626"/><path d="M996 577 1002 577 1002 583 996 583Z" fill="#262626"/><path d="M1006 577 1035 577 1035 583 1006 583Z" fill="#262626"/><path d="M963 577 992 577 992 583 963 583Z" fill="#262626"/><path d="M1027.42 549 970.58 549C968.603 549 967 550.603 967 552.58L967 561.42C967 563.397 968.603 565 970.58 565L1027.42 565C1029.4 565 1031 563.397 1031 561.42L1031 552.58C1031 550.603 1029.4 549 1027.42 549ZM977 559C975.895 559 975 558.105 975 557 975 555.895 975.895 555 977 555 978.105 555 979 555.895 979 557 979 558.105 978.105 559 977 559ZM987 559C985.895 559 985 558.105 985 557 985 555.895 985.895 555 987 555 988.105 555 989 555.895 989 557 989 558.105 988.105 559 987 559ZM997 559C995.895 559 995 558.105 995 557 995 555.895 995.895 555 997 555 998.105 555 999 555.895 999 557 999 558.105 998.105 559 997 559Z" fill="#262626"/><path d="M1027.42 529 970.58 529C968.603 529 967 530.603 967 532.58L967 541.42C967 543.397 968.603 545 970.58 545L1027.42 545C1029.4 545 1031 543.397 1031 541.42L1031 532.58C1031 530.603 1029.4 529 1027.42 529ZM977 539C975.895 539 975 538.105 975 537 975 535.895 975.895 535 977 535 978.105 535 979 535.895 979 537 979 538.105 978.105 539 977 539ZM987 539C985.895 539 985 538.105 985 537 985 535.895 985.895 535 987 535 988.105 535 989 535.895 989 537 989 538.105 988.105 539 987 539ZM997 539C995.895 539 995 538.105 995 537 995 535.895 995.895 535 997 535 998.105 535 999 535.895 999 537 999 538.105 998.105 539 997 539Z" fill="#262626"/><path d="M1027.42 509 970.58 509C968.603 509 967 510.603 967 512.58L967 521.42C967 523.397 968.603 525 970.58 525L1027.42 525C1029.4 525 1031 523.397 1031 521.42L1031 512.58C1031 510.603 1029.4 509 1027.42 509ZM977 519C975.895 519 975 518.105 975 517 975 515.895 975.895 515 977 515 978.105 515 979 515.895 979 517 979 518.105 978.105 519 977 519ZM987 519C985.895 519 985 518.105 985 517 985 515.895 985.895 515 987 515 988.105 515 989 515.895 989 517 989 518.105 988.105 519 987 519ZM997 519C995.895 519 995 518.105 995 517 995 515.895 995.895 515 997 515 998.105 515 999 515.895 999 517 999 518.105 998.105 519 997 519Z" fill="#262626"/></g></g></g><g clip-path="url(#clip67)"><g clip-path="url(#clip68)"><g clip-path="url(#clip69)"><path d="M1100 565 1106 565 1106 573 1100 573Z" fill="#262626"/><path d="M1100 577 1106 577 1106 583 1100 583Z" fill="#262626"/><path d="M1110 577 1139 577 1139 583 1110 583Z" fill="#262626"/><path d="M1067 577 1096 577 1096 583 1067 583Z" fill="#262626"/><path d="M1131.42 549 1074.58 549C1072.6 549 1071 550.603 1071 552.58L1071 561.42C1071 563.397 1072.6 565 1074.58 565L1131.42 565C1133.4 565 1135 563.397 1135 561.42L1135 552.58C1135 550.603 1133.4 549 1131.42 549ZM1081 559C1079.9 559 1079 558.105 1079 557 1079 555.895 1079.9 555 1081 555 1082.1 555 1083 555.895 1083 557 1083 558.105 1082.1 559 1081 559ZM1091 559C1089.9 559 1089 558.105 1089 557 1089 555.895 1089.9 555 1091 555 1092.1 555 1093 555.895 1093 557 1093 558.105 1092.1 559 1091 559ZM1101 559C1099.9 559 1099 558.105 1099 557 1099 555.895 1099.9 555 1101 555 1102.1 555 1103 555.895 1103 557 1103 558.105 1102.1 559 1101 559Z" fill="#262626"/><path d="M1131.42 529 1074.58 529C1072.6 529 1071 530.603 1071 532.58L1071 541.42C1071 543.397 1072.6 545 1074.58 545L1131.42 545C1133.4 545 1135 543.397 1135 541.42L1135 532.58C1135 530.603 1133.4 529 1131.42 529ZM1081 539C1079.9 539 1079 538.105 1079 537 1079 535.895 1079.9 535 1081 535 1082.1 535 1083 535.895 1083 537 1083 538.105 1082.1 539 1081 539ZM1091 539C1089.9 539 1089 538.105 1089 537 1089 535.895 1089.9 535 1091 535 1092.1 535 1093 535.895 1093 537 1093 538.105 1092.1 539 1091 539ZM1101 539C1099.9 539 1099 538.105 1099 537 1099 535.895 1099.9 535 1101 535 1102.1 535 1103 535.895 1103 537 1103 538.105 1102.1 539 1101 539Z" fill="#262626"/><path d="M1131.42 509 1074.58 509C1072.6 509 1071 510.603 1071 512.58L1071 521.42C1071 523.397 1072.6 525 1074.58 525L1131.42 525C1133.4 525 1135 523.397 1135 521.42L1135 512.58C1135 510.603 1133.4 509 1131.42 509ZM1081 519C1079.9 519 1079 518.105 1079 517 1079 515.895 1079.9 515 1081 515 1082.1 515 1083 515.895 1083 517 1083 518.105 1082.1 519 1081 519ZM1091 519C1089.9 519 1089 518.105 1089 517 1089 515.895 1089.9 515 1091 515 1092.1 515 1093 515.895 1093 517 1093 518.105 1092.1 519 1091 519ZM1101 519C1099.9 519 1099 518.105 1099 517 1099 515.895 1099.9 515 1101 515 1102.1 515 1103 515.895 1103 517 1103 518.105 1102.1 519 1101 519Z" fill="#262626"/></g></g></g><g clip-path="url(#clip70)"><g clip-path="url(#clip71)"><g clip-path="url(#clip72)"><path d="M987 202 993 202 993 210 987 210Z" fill="#262626"/><path d="M987 214 993 214 993 220 987 220Z" fill="#262626"/><path d="M997 214 1026 214 1026 220 997 220Z" fill="#262626"/><path d="M954 214 983 214 983 220 954 220Z" fill="#262626"/><path d="M1018.42 186 961.58 186C959.603 186 958 187.603 958 189.58L958 198.42C958 200.397 959.603 202 961.58 202L1018.42 202C1020.4 202 1022 200.397 1022 198.42L1022 189.58C1022 187.603 1020.4 186 1018.42 186ZM968 196C966.895 196 966 195.105 966 194 966 192.895 966.895 192 968 192 969.105 192 970 192.895 970 194 970 195.105 969.105 196 968 196ZM978 196C976.895 196 976 195.105 976 194 976 192.895 976.895 192 978 192 979.105 192 980 192.895 980 194 980 195.105 979.105 196 978 196ZM988 196C986.895 196 986 195.105 986 194 986 192.895 986.895 192 988 192 989.105 192 990 192.895 990 194 990 195.105 989.105 196 988 196Z" fill="#262626"/><path d="M1018.42 166 961.58 166C959.603 166 958 167.603 958 169.58L958 178.42C958 180.397 959.603 182 961.58 182L1018.42 182C1020.4 182 1022 180.397 1022 178.42L1022 169.58C1022 167.603 1020.4 166 1018.42 166ZM968 176C966.895 176 966 175.105 966 174 966 172.895 966.895 172 968 172 969.105 172 970 172.895 970 174 970 175.105 969.105 176 968 176ZM978 176C976.895 176 976 175.105 976 174 976 172.895 976.895 172 978 172 979.105 172 980 172.895 980 174 980 175.105 979.105 176 978 176ZM988 176C986.895 176 986 175.105 986 174 986 172.895 986.895 172 988 172 989.105 172 990 172.895 990 174 990 175.105 989.105 176 988 176Z" fill="#262626"/><path d="M1018.42 146 961.58 146C959.603 146 958 147.603 958 149.58L958 158.42C958 160.397 959.603 162 961.58 162L1018.42 162C1020.4 162 1022 160.397 1022 158.42L1022 149.58C1022 147.603 1020.4 146 1018.42 146ZM968 156C966.895 156 966 155.105 966 154 966 152.895 966.895 152 968 152 969.105 152 970 152.895 970 154 970 155.105 969.105 156 968 156ZM978 156C976.895 156 976 155.105 976 154 976 152.895 976.895 152 978 152 979.105 152 980 152.895 980 154 980 155.105 979.105 156 978 156ZM988 156C986.895 156 986 155.105 986 154 986 152.895 986.895 152 988 152 989.105 152 990 152.895 990 154 990 155.105 989.105 156 988 156Z" fill="#262626"/></g></g></g><g clip-path="url(#clip73)"><g clip-path="url(#clip74)"><g clip-path="url(#clip75)"><path d="M45.1424 67.2121 51.1614 67.2121 51.1614 75.2374 45.1424 75.2374Z" fill="#262626" transform="matrix(1 0 0 1.03375 298.024 162.798)"/><path d="M45.1424 79.2501 51.1614 79.2501 51.1614 85.2691 45.1424 85.2691Z" fill="#262626" transform="matrix(1 0 0 1.03375 298.024 162.798)"/><path d="M55.1741 79.2501 84.2659 79.2501 84.2659 85.2691 55.1741 85.2691Z" fill="#262626" transform="matrix(1 0 0 1.03375 298.024 162.798)"/><path d="M12.038 79.2501 41.1298 79.2501 41.1298 85.2691 12.038 85.2691Z" fill="#262626" transform="matrix(1 0 0 1.03375 298.024 162.798)"/><path d="M76.6619 51.1614 19.642 51.1614C17.6585 51.1614 16.0506 52.7693 16.0506 54.7528L16.0506 63.6208C16.0506 65.6042 17.6585 67.2121 19.642 67.2121L76.6619 67.2121C78.6454 67.2121 80.2532 65.6042 80.2532 63.6208L80.2532 54.7528C80.2532 52.7693 78.6454 51.1614 76.6619 51.1614ZM26.0823 61.1931C24.9742 61.1931 24.076 60.2949 24.076 59.1868 24.076 58.0787 24.9742 57.1804 26.0823 57.1804 27.1904 57.1804 28.0886 58.0787 28.0886 59.1868 28.0886 60.2949 27.1904 61.1931 26.0823 61.1931ZM36.114 61.1931C35.0059 61.1931 34.1076 60.2949 34.1076 59.1868 34.1076 58.0787 35.0059 57.1804 36.114 57.1804 37.2221 57.1804 38.1203 58.0787 38.1203 59.1868 38.1203 60.2949 37.2221 61.1931 36.114 61.1931ZM46.1456 61.1931C45.0375 61.1931 44.1393 60.2949 44.1393 59.1868 44.1393 58.0787 45.0375 57.1804 46.1456 57.1804 47.2537 57.1804 48.1519 58.0787 48.1519 59.1868 48.1519 60.2949 47.2537 61.1931 46.1456 61.1931Z" fill="#262626" transform="matrix(1 0 0 1.03375 298.024 162.798)"/><path d="M76.6619 31.0981 19.642 31.0981C17.6585 31.0981 16.0506 32.706 16.0506 34.6895L16.0506 43.5574C16.0506 45.5409 17.6585 47.1488 19.642 47.1488L76.6619 47.1488C78.6454 47.1488 80.2532 45.5409 80.2532 43.5574L80.2532 34.6895C80.2532 32.706 78.6454 31.0981 76.6619 31.0981ZM26.0823 41.1298C24.9742 41.1298 24.076 40.2315 24.076 39.1235 24.076 38.0154 24.9742 37.1171 26.0823 37.1171 27.1904 37.1171 28.0886 38.0154 28.0886 39.1235 28.0886 40.2315 27.1904 41.1298 26.0823 41.1298ZM36.114 41.1298C35.0059 41.1298 34.1076 40.2315 34.1076 39.1235 34.1076 38.0154 35.0059 37.1171 36.114 37.1171 37.2221 37.1171 38.1203 38.0154 38.1203 39.1235 38.1203 40.2315 37.2221 41.1298 36.114 41.1298ZM46.1456 41.1298C45.0375 41.1298 44.1393 40.2315 44.1393 39.1235 44.1393 38.0154 45.0375 37.1171 46.1456 37.1171 47.2537 37.1171 48.1519 38.0154 48.1519 39.1235 48.1519 40.2315 47.2537 41.1298 46.1456 41.1298Z" fill="#262626" transform="matrix(1 0 0 1.03375 298.024 162.798)"/><path d="M76.6619 11.0348 19.642 11.0348C17.6585 11.0348 16.0506 12.6427 16.0506 14.6262L16.0506 23.4941C16.0506 25.4776 17.6585 27.0855 19.642 27.0855L76.6619 27.0855C78.6454 27.0855 80.2532 25.4776 80.2532 23.4941L80.2532 14.6262C80.2532 12.6427 78.6454 11.0348 76.6619 11.0348ZM26.0823 21.0665C24.9742 21.0665 24.076 20.1682 24.076 19.0601 24.076 17.952 24.9742 17.0538 26.0823 17.0538 27.1904 17.0538 28.0886 17.952 28.0886 19.0601 28.0886 20.1682 27.1904 21.0665 26.0823 21.0665ZM36.114 21.0665C35.0059 21.0665 34.1076 20.1682 34.1076 19.0601 34.1076 17.952 35.0059 17.0538 36.114 17.0538 37.2221 17.0538 38.1203 17.952 38.1203 19.0601 38.1203 20.1682 37.2221 21.0665 36.114 21.0665ZM46.1456 21.0665C45.0375 21.0665 44.1393 20.1682 44.1393 19.0601 44.1393 17.952 45.0375 17.0538 46.1456 17.0538 47.2537 17.0538 48.1519 17.952 48.1519 19.0601 48.1519 20.1682 47.2537 21.0665 46.1456 21.0665Z" fill="#262626" transform="matrix(1 0 0 1.03375 298.024 162.798)"/></g></g></g><g clip-path="url(#clip76)"><g clip-path="url(#clip77)"><g clip-path="url(#clip78)"><path d="M208.981 180.416C208.728 180.416 208.391 180.416 208.137 180.416 208.137 180.416 208.137 180.416 208.137 180.416 208.137 176.281 206.113 172.484 202.822 170.122 199.447 167.759 195.144 167.169 191.262 168.519 188.056 162.275 180.969 159.069 174.219 160.672 167.469 162.275 162.575 168.35 162.575 175.353 162.575 175.353 162.575 175.438 162.575 175.522 157.934 174.762 153.294 176.703 150.425 180.416 147.641 184.212 147.134 189.191 149.075 193.409 151.1 197.628 155.319 200.413 159.959 200.666L159.959 200.75 208.897 200.75C214.466 200.75 219.022 196.194 219.022 190.625 219.022 185.056 214.55 180.416 208.981 180.416Z" fill="#A6A6A6"/></g></g></g><g clip-path="url(#clip79)"><g clip-path="url(#clip80)"><g clip-path="url(#clip81)"><path d="M44.4439 66.1721 50.3698 66.1721 50.3698 74.0732 44.4439 74.0732Z" fill="#262626" transform="matrix(1.01572 0 0 1 298.024 131.236)"/><path d="M44.4439 78.0238 50.3698 78.0238 50.3698 83.9496 44.4439 83.9496Z" fill="#262626" transform="matrix(1.01572 0 0 1 298.024 131.236)"/><path d="M54.3203 78.0238 82.962 78.0238 82.962 83.9496 54.3203 83.9496Z" fill="#262626" transform="matrix(1.01572 0 0 1 298.024 131.236)"/><path d="M11.8517 78.0238 40.4933 78.0238 40.4933 83.9496 11.8517 83.9496Z" fill="#262626" transform="matrix(1.01572 0 0 1 298.024 131.236)"/><path d="M75.4756 50.3698 19.338 50.3698C17.3853 50.3698 15.8023 51.9528 15.8023 53.9055L15.8023 62.6363C15.8023 64.5891 17.3853 66.1721 19.338 66.1721L75.4756 66.1721C77.4284 66.1721 79.0114 64.5891 79.0114 62.6363L79.0114 53.9055C79.0114 51.9528 77.4284 50.3698 75.4756 50.3698ZM25.6787 60.2462C24.5878 60.2462 23.7034 59.3619 23.7034 58.2709 23.7034 57.18 24.5878 56.2956 25.6787 56.2956 26.7697 56.2956 27.654 57.18 27.654 58.2709 27.654 59.3619 26.7697 60.2462 25.6787 60.2462ZM35.5551 60.2462C34.4642 60.2462 33.5798 59.3619 33.5798 58.2709 33.5798 57.18 34.4642 56.2956 35.5551 56.2956 36.6461 56.2956 37.5304 57.18 37.5304 58.2709 37.5304 59.3619 36.6461 60.2462 35.5551 60.2462ZM45.4316 60.2462C44.3406 60.2462 43.4563 59.3619 43.4563 58.2709 43.4563 57.18 44.3406 56.2956 45.4316 56.2956 46.5225 56.2956 47.4068 57.18 47.4068 58.2709 47.4068 59.3619 46.5225 60.2462 45.4316 60.2462Z" fill="#262626" transform="matrix(1.01572 0 0 1 298.024 131.236)"/><path d="M75.4756 30.6169 19.338 30.6169C17.3853 30.6169 15.8023 32.1999 15.8023 34.1527L15.8023 42.8834C15.8023 44.8362 17.3853 46.4192 19.338 46.4192L75.4756 46.4192C77.4284 46.4192 79.0114 44.8362 79.0114 42.8834L79.0114 34.1527C79.0114 32.1999 77.4284 30.6169 75.4756 30.6169ZM25.6787 40.4933C24.5878 40.4933 23.7034 39.609 23.7034 38.5181 23.7034 37.4271 24.5878 36.5428 25.6787 36.5428 26.7697 36.5428 27.654 37.4271 27.654 38.5181 27.654 39.609 26.7697 40.4933 25.6787 40.4933ZM35.5551 40.4933C34.4642 40.4933 33.5798 39.609 33.5798 38.5181 33.5798 37.4271 34.4642 36.5428 35.5551 36.5428 36.6461 36.5428 37.5304 37.4271 37.5304 38.5181 37.5304 39.609 36.6461 40.4933 35.5551 40.4933ZM45.4316 40.4933C44.3406 40.4933 43.4563 39.609 43.4563 38.5181 43.4563 37.4271 44.3406 36.5428 45.4316 36.5428 46.5225 36.5428 47.4068 37.4271 47.4068 38.5181 47.4068 39.609 46.5225 40.4933 45.4316 40.4933Z" fill="#262626" transform="matrix(1.01572 0 0 1 298.024 131.236)"/><path d="M75.4756 10.8641 19.338 10.8641C17.3853 10.8641 15.8023 12.4471 15.8023 14.3998L15.8023 23.1306C15.8023 25.0834 17.3853 26.6663 19.338 26.6663L75.4756 26.6663C77.4284 26.6663 79.0114 25.0834 79.0114 23.1306L79.0114 14.3998C79.0114 12.4471 77.4284 10.8641 75.4756 10.8641ZM25.6787 20.7405C24.5878 20.7405 23.7034 19.8562 23.7034 18.7652 23.7034 17.6743 24.5878 16.7899 25.6787 16.7899 26.7697 16.7899 27.654 17.6743 27.654 18.7652 27.654 19.8562 26.7697 20.7405 25.6787 20.7405ZM35.5551 20.7405C34.4642 20.7405 33.5798 19.8562 33.5798 18.7652 33.5798 17.6743 34.4642 16.7899 35.5551 16.7899 36.6461 16.7899 37.5304 17.6743 37.5304 18.7652 37.5304 19.8562 36.6461 20.7405 35.5551 20.7405ZM45.4316 20.7405C44.3406 20.7405 43.4563 19.8562 43.4563 18.7652 43.4563 17.6743 44.3406 16.7899 45.4316 16.7899 46.5225 16.7899 47.4068 17.6743 47.4068 18.7652 47.4068 19.8562 46.5225 20.7405 45.4316 20.7405Z" fill="#262626" transform="matrix(1.01572 0 0 1 298.024 131.236)"/></g></g></g><path d="M0 0 261.41 52.9077" stroke="#4472C4" stroke-width="0.666667" stroke-miterlimit="8" fill="none" fill-rule="evenodd" transform="matrix(-1 0 0 1 647.91 97.5001)"/><path d="M0 0 261.41 85.6282" stroke="#4472C4" stroke-width="0.666667" stroke-miterlimit="8" fill="none" fill-rule="evenodd" transform="matrix(-1 0 0 1 647.91 97.5001)"/><path d="M647.5 97.5001 943.062 183.128" stroke="#4472C4" stroke-width="0.666667" stroke-miterlimit="8" fill="none" fill-rule="evenodd"/><path d="M224.508 180.167 300.956 182.054 300.94 182.72 224.492 180.833ZM299.714 178.355 307.613 182.551 299.517 186.353Z" fill="#7F7F7F"/><path d="M0.115396-0.312722 76.9738 28.0485 76.743 28.674-0.115396 0.312722ZM76.9922 24.147 83.1128 30.6692 74.2227 31.6523Z" fill="#7F7F7F" transform="matrix(1 0 0 -1 224.5 181.169)"/><path d="M0 0 365.425 226.737" stroke="#4472C4" stroke-width="0.666667" stroke-miterlimit="8" fill="none" fill-rule="evenodd" transform="matrix(-1 0 0 1 646.925 97.5001)"/><path d="M0 0 6.92399 226.737" stroke="#4472C4" stroke-width="0.666667" stroke-miterlimit="8" fill="none" fill-rule="evenodd" transform="matrix(-1 0 0 1 647.424 97.5001)"/><path d="M647.5 97.5001 999.077 324.237" stroke="#4472C4" stroke-width="0.666667" stroke-miterlimit="8" fill="none" fill-rule="evenodd"/><path d="M0 0 104.015 57.798" stroke="#ED7D31" stroke-width="0.666667" stroke-miterlimit="8" fill="none" fill-rule="evenodd" transform="matrix(1 0 0 -1 177.5 402.298)"/><path d="M0 0 0.000104987 57.798" stroke="#ED7D31" stroke-width="0.666667" stroke-miterlimit="8" fill="none" fill-rule="evenodd" transform="matrix(1 0 0 -1 281.5 402.298)"/><path d="M385.515 402.298 281.5 344.5" stroke="#ED7D31" stroke-width="0.666667" stroke-miterlimit="8" fill="none" fill-rule="evenodd"/><path d="M0 0 104.015 57.798" stroke="#70AD47" stroke-width="0.666667" stroke-miterlimit="8" fill="none" fill-rule="evenodd" transform="matrix(1 0 0 -1 536.5 402.298)"/><path d="M0 0 0.000104987 57.798" stroke="#70AD47" stroke-width="0.666667" stroke-miterlimit="8" fill="none" fill-rule="evenodd" transform="matrix(1 0 0 -1 640.5 402.298)"/><path d="M744.515 402.298 640.5 344.5" stroke="#70AD47" stroke-width="0.666667" stroke-miterlimit="8" fill="none" fill-rule="evenodd"/><path d="M0 0 104.015 57.798" stroke="#7030A0" stroke-width="0.666667" stroke-miterlimit="8" fill="none" fill-rule="evenodd" transform="matrix(1 0 0 -1 894.5 402.298)"/><path d="M0 0 0.000104987 57.798" stroke="#7030A0" stroke-width="0.666667" stroke-miterlimit="8" fill="none" fill-rule="evenodd" transform="matrix(1 0 0 -1 999.5 402.298)"/><path d="M1103.52 402.298 999.5 344.5" stroke="#7030A0" stroke-width="0.666667" stroke-miterlimit="8" fill="none" fill-rule="evenodd"/><g clip-path="url(#clip82)"><g clip-path="url(#clip83)"><g clip-path="url(#clip84)"><path d="M1028.71 189.062C1028.71 191.778 1021 193.979 1011.5 193.979 1002 193.979 994.292 191.778 994.292 189.062 994.292 186.347 1002 184.146 1011.5 184.146 1021 184.146 1028.71 186.347 1028.71 189.062Z" fill="#FFC000"/><path d="M1023.79 201.354C1023.05 201.354 1022.56 200.863 1022.56 200.125 1022.56 199.387 1023.05 198.896 1023.79 198.896 1024.53 198.896 1025.02 199.387 1025.02 200.125 1025.02 200.863 1024.53 201.354 1023.79 201.354ZM1011.5 196.438C1002.04 196.438 994.292 194.225 994.292 191.521L994.292 201.354C994.292 204.058 1002.04 206.271 1011.5 206.271 1020.96 206.271 1028.71 204.058 1028.71 201.354L1028.71 191.521C1028.71 194.225 1020.96 196.438 1011.5 196.438Z" fill="#FFC000"/><path d="M1023.79 213.646C1023.05 213.646 1022.56 213.154 1022.56 212.417 1022.56 211.679 1023.05 211.188 1023.79 211.188 1024.53 211.188 1025.02 211.679 1025.02 212.417 1025.02 213.154 1024.53 213.646 1023.79 213.646ZM1011.5 208.729C1002.04 208.729 994.292 206.517 994.292 203.812L994.292 213.646C994.292 216.35 1002.04 218.562 1011.5 218.562 1020.96 218.562 1028.71 216.35 1028.71 213.646L1028.71 203.812C1028.71 206.517 1020.96 208.729 1011.5 208.729Z" fill="#FFC000"/><path d="M1023.79 225.938C1023.05 225.938 1022.56 225.446 1022.56 224.708 1022.56 223.971 1023.05 223.479 1023.79 223.479 1024.53 223.479 1025.02 223.971 1025.02 224.708 1025.02 225.446 1024.53 225.938 1023.79 225.938ZM1011.5 221.021C1002.04 221.021 994.292 218.808 994.292 216.104L994.292 225.938C994.292 228.642 1002.04 230.854 1011.5 230.854 1020.96 230.854 1028.71 228.642 1028.71 225.938L1028.71 216.104C1028.71 218.808 1020.96 221.021 1011.5 221.021Z" fill="#FFC000"/></g></g></g><g clip-path="url(#clip85)"><g clip-path="url(#clip86)"><g clip-path="url(#clip87)"><path d="M46.7083 11.0625C46.7083 13.7779 39.0039 15.9792 29.5 15.9792 19.9961 15.9792 12.2917 13.7779 12.2917 11.0625 12.2917 8.3471 19.9961 6.14583 29.5 6.14583 39.0039 6.14583 46.7083 8.3471 46.7083 11.0625Z" fill="#FFC000" transform="matrix(1.01695 0 0 1 1077 178)"/><path d="M41.7917 23.3542C41.0542 23.3542 40.5625 22.8625 40.5625 22.125 40.5625 21.3875 41.0542 20.8958 41.7917 20.8958 42.5292 20.8958 43.0208 21.3875 43.0208 22.125 43.0208 22.8625 42.5292 23.3542 41.7917 23.3542ZM29.5 18.4375C20.0354 18.4375 12.2917 16.225 12.2917 13.5208L12.2917 23.3542C12.2917 26.0583 20.0354 28.2708 29.5 28.2708 38.9646 28.2708 46.7083 26.0583 46.7083 23.3542L46.7083 13.5208C46.7083 16.225 38.9646 18.4375 29.5 18.4375Z" fill="#FFC000" transform="matrix(1.01695 0 0 1 1077 178)"/><path d="M41.7917 35.6458C41.0542 35.6458 40.5625 35.1542 40.5625 34.4167 40.5625 33.6792 41.0542 33.1875 41.7917 33.1875 42.5292 33.1875 43.0208 33.6792 43.0208 34.4167 43.0208 35.1542 42.5292 35.6458 41.7917 35.6458ZM29.5 30.7292C20.0354 30.7292 12.2917 28.5167 12.2917 25.8125L12.2917 35.6458C12.2917 38.35 20.0354 40.5625 29.5 40.5625 38.9646 40.5625 46.7083 38.35 46.7083 35.6458L46.7083 25.8125C46.7083 28.5167 38.9646 30.7292 29.5 30.7292Z" fill="#FFC000" transform="matrix(1.01695 0 0 1 1077 178)"/><path d="M41.7917 47.9375C41.0542 47.9375 40.5625 47.4458 40.5625 46.7083 40.5625 45.9708 41.0542 45.4792 41.7917 45.4792 42.5292 45.4792 43.0208 45.9708 43.0208 46.7083 43.0208 47.4458 42.5292 47.9375 41.7917 47.9375ZM29.5 43.0208C20.0354 43.0208 12.2917 40.8083 12.2917 38.1042L12.2917 47.9375C12.2917 50.6417 20.0354 52.8542 29.5 52.8542 38.9646 52.8542 46.7083 50.6417 46.7083 47.9375L46.7083 38.1042C46.7083 40.8083 38.9646 43.0208 29.5 43.0208Z" fill="#FFC000" transform="matrix(1.01695 0 0 1 1077 178)"/></g></g></g><path d="M180.832 98.47 185.457 149.628 184.793 149.688 180.168 98.5301ZM188.989 147.97 185.726 156.298 181.021 148.691Z" fill="#7F7F7F"/><g clip-path="url(#clip88)"><g clip-path="url(#clip89)"><g clip-path="url(#clip90)"><path d="M192.333 47.125C192.333 53.9365 186.812 59.4583 180 59.4583 173.188 59.4583 167.667 53.9365 167.667 47.125 167.667 40.3135 173.188 34.7917 180 34.7917 186.812 34.7917 192.333 40.3135 192.333 47.125Z" fill="#A6A6A6"/><path d="M202.354 68.639C202.144 67.0332 201.348 65.5618 200.119 64.5073 196.826 62.2522 193.139 60.6339 189.25 59.7358 188.811 59.6356 188.348 59.5508 187.886 59.466 183.105 62.529 176.979 62.529 172.199 59.466L170.812 59.7204C166.919 60.6727 163.221 62.2922 159.881 64.5073 158.509 65.386 157.939 67.0202 157.646 68.639L155.333 81.8896C155.195 83.0079 155.658 84.1161 156.551 84.8033L161.831 88.2875 161.831 71.599C161.831 69.6662 163.398 68.0994 165.331 68.0993 165.339 68.0993 165.346 68.0993 165.354 68.0994L194.646 68.0994C196.579 68.0994 198.145 69.6662 198.145 71.599L198.145 87.8635 203.711 84.3717C204.37 83.9267 204.736 83.1595 204.667 82.3675Z" fill="#A6A6A6"/><path d="M196.627 90.8081 196.627 71.599C196.627 70.5176 195.75 69.641 194.669 69.6409 194.661 69.6409 194.654 69.641 194.646 69.641L165.354 69.641C164.273 69.641 163.396 70.5176 163.396 71.599L163.396 90.8081 157.499 90.8081 157.499 91.7871C157.504 92.8666 158.378 93.7408 159.457 93.745L200.543 93.745C201.622 93.7408 202.496 92.8666 202.501 91.7871L202.501 90.8081ZM176.007 84.3717 174.92 85.4585 170.596 81.1342 174.92 76.8098 176.007 77.8967 172.777 81.1342ZM178.882 85.9981 177.456 85.4046 181.071 76.6787 182.49 77.2723ZM185.049 85.4585 183.962 84.3717 187.192 81.1342 183.962 77.8967 185.049 76.8098 189.373 81.1342Z" fill="#A6A6A6"/></g></g></g><text font-family="Arial,Arial_MSFontService,sans-serif" font-weight="400" font-size="16" transform="translate(689.62 93)">mngt1<tspan x="-365.452" y="246">mngt2</tspan><tspan x="-6.95062" y="247">mngt3</tspan><tspan x="351.044" y="246">mngt4</tspan><tspan x="-364.527" y="37">logins</tspan><tspan x="323.05" y="38">storage</tspan></text><rect x="281.5" y="35.5001" width="873" height="236" stroke="#4472C4" stroke-width="1.33333" stroke-miterlimit="8" fill="none"/><rect x="0" y="0" width="311" height="310" stroke="#ED7D31" stroke-width="1.33333" stroke-miterlimit="8" fill="none" transform="matrix(1 0 0 -1 126.5 597.5)"/><rect x="0" y="0" width="310" height="309" stroke="#70AD47" stroke-width="1.33333" stroke-miterlimit="8" fill="none" transform="matrix(1 0 0 -1 484.5 596.5)"/><rect x="0" y="0" width="311" height="310" stroke="#7030A0" stroke-width="1.33333" stroke-miterlimit="8" fill="none" transform="matrix(1 0 0 -1 843.5 597.5)"/><text fill="#4472C4" font-family="Arial,Arial_MSFontService,sans-serif" font-weight="400" font-size="16" transform="translate(291.099 55)">Iceberg1:<tspan font-size="13" x="0" y="16">master: top</tspan><tspan fill="#ED7D31" x="-153.588" y="253">Iceberg2</tspan><tspan fill="#ED7D31" font-size="13" x="-153.588" y="269">master: </tspan><tspan font-size="13" x="-105.588" y="269">iceberg1</tspan><tspan fill="#70AD47" x="203.744" y="252">Iceberg3</tspan><tspan fill="#70AD47" font-size="13" x="203.744" y="268">master: </tspan><tspan font-size="13" x="251.744" y="268">iceberg1</tspan><tspan fill="#7030A0" x="562.285" y="252">Iceberg4</tspan><tspan fill="#7030A0" font-size="13" x="562.285" y="268">master: </tspan><tspan font-size="13" x="610.285" y="268">iceberg1</tspan><tspan fill="#ED7D31" x="-0.97699" y="335">Ice2</tspan><tspan fill="#ED7D31" x="29.1897" y="335">-</tspan><tspan fill="#ED7D31" x="34.523" y="335">1</tspan><tspan x="291.152" y="108">Ice1</tspan><tspan x="321.319" y="108">-</tspan><tspan x="326.652" y="108">1</tspan><tspan fill="#70AD47" x="357.211" y="334">Ice3</tspan><tspan fill="#70AD47" x="387.377" y="334">-</tspan><tspan fill="#70AD47" x="392.711" y="334">1</tspan><tspan fill="#7030A0" x="715.458" y="335">Ice4</tspan><tspan fill="#7030A0" x="745.625" y="335">-</tspan><tspan fill="#7030A0" x="750.958" y="335">1</tspan></text></g></svg>