<svg width="1204" height="588" xmlns="http://www.w3.org/2000/svg" xmlns:xlink="http://www.w3.org/1999/xlink" overflow="hidden"><defs><clipPath id="clip0"><rect x="-37" y="99" width="1204" height="588"/></clipPath><clipPath id="clip1"><rect x="-18" y="265" width="96" height="96"/></clipPath><clipPath id="clip2"><rect x="-18" y="265" width="96" height="96"/></clipPath><clipPath id="clip3"><rect x="-18" y="265" width="96" height="96"/></clipPath><clipPath id="clip4"><rect x="-26" y="458" width="96" height="96"/></clipPath><clipPath id="clip5"><rect x="-26" y="458" width="96" height="96"/></clipPath><clipPath id="clip6"><rect x="-26" y="458" width="96" height="96"/></clipPath><clipPath id="clip7"><rect x="3" y="455" width="96" height="96"/></clipPath><clipPath id="clip8"><rect x="3" y="455" width="96" height="96"/></clipPath><clipPath id="clip9"><rect x="3" y="455" width="96" height="96"/></clipPath><clipPath id="clip10"><rect x="910" y="161" width="206" height="37"/></clipPath><clipPath id="clip11"><rect x="910" y="161" width="206" height="37"/></clipPath><clipPath id="clip12"><rect x="910" y="161" width="206" height="37"/></clipPath><clipPath id="clip13"><rect x="239" y="110" width="60" height="67"/></clipPath><clipPath id="clip14"><rect x="239" y="110" width="60" height="67"/></clipPath><clipPath id="clip15"><rect x="239" y="110" width="60" height="67"/></clipPath></defs><g clip-path="url(#clip0)" transform="translate(37 -99)"><path d="M0 0 250.118 234.253" stroke="#4472C4" stroke-width="0.666667" stroke-miterlimit="8" fill="none" fill-rule="evenodd" transform="matrix(-1 0 0 1 715.618 403.5)"/><path d="M465.5 290.5 715.187 403.97" stroke="#4472C4" stroke-width="0.666667" stroke-miterlimit="8" fill="none" fill-rule="evenodd"/><path d="M787.187 392.121 766.5 227.5" stroke="#4472C4" stroke-width="0.666667" stroke-miterlimit="8" fill="none" fill-rule="evenodd"/><path d="M0 0 74.1263 116.577" stroke="#4472C4" stroke-width="0.666667" stroke-miterlimit="8" fill="none" fill-rule="evenodd" transform="matrix(1 0 0 -1 787.5 392.077)"/><path d="M0 0 168.939 68.5326" stroke="#4472C4" stroke-width="0.666667" stroke-miterlimit="8" fill="none" fill-rule="evenodd" transform="matrix(1 0 0 -1 787.5 392.033)"/><path d="M0 0 20.2696 80.9692" stroke="#4472C4" stroke-width="0.666667" stroke-miterlimit="8" fill="none" fill-rule="evenodd" transform="matrix(-1 0 0 1 787.77 415.5)"/><path d="M787.5 415.5 862.043 545.145" stroke="#4472C4" stroke-width="0.666667" stroke-miterlimit="8" fill="none" fill-rule="evenodd"/><path d="M787.5 415.5 957.923 591.649" stroke="#4472C4" stroke-width="0.666667" stroke-miterlimit="8" stroke-dasharray="2.66667 2" fill="none" fill-rule="evenodd"/><rect x="230" y="270" width="235" height="40" fill="#404040"/><rect x="237" y="275" width="36" height="8" fill="#7F7F7F"/><rect x="237" y="286" width="36" height="8" fill="#7F7F7F"/><rect x="237" y="296" width="36" height="9" fill="#7F7F7F"/><path d="M269 277.5C269 276.672 269.672 276 270.5 276 271.328 276 272 276.672 272 277.5 272 278.328 271.328 279 270.5 279 269.672 279 269 278.328 269 277.5Z" fill="#00A1DA" fill-rule="evenodd"/><path d="M454 277C454 275.343 455.343 274 457 274 458.657 274 460 275.343 460 277 460 278.657 458.657 280 457 280 455.343 280 454 278.657 454 277Z" fill="#FFC000" fill-rule="evenodd"/><path d="M442 277.5C442 276.119 443.343 275 445 275 446.657 275 448 276.119 448 277.5 448 278.881 446.657 280 445 280 443.343 280 442 278.881 442 277.5Z" fill="#92D050" fill-rule="evenodd"/><rect x="237.5" y="275.5" width="6" height="8" stroke="#404040" stroke-width="1.33333" stroke-miterlimit="8" fill="#9966FF"/><rect x="237.5" y="286.5" width="6" height="8" stroke="#404040" stroke-width="1.33333" stroke-miterlimit="8" fill="#9966FF"/><rect x="237.5" y="296.5" width="6" height="9" stroke="#404040" stroke-width="1.33333" stroke-miterlimit="8" fill="#9966FF"/><path d="M269 288C269 287.448 269.672 287 270.5 287 271.328 287 272 287.448 272 288 272 288.552 271.328 289 270.5 289 269.672 289 269 288.552 269 288Z" fill="#00A1DA" fill-rule="evenodd"/><path d="M269 299C269 298.448 269.672 298 270.5 298 271.328 298 272 298.448 272 299 272 299.552 271.328 300 270.5 300 269.672 300 269 299.552 269 299Z" fill="#00A1DA" fill-rule="evenodd"/><text fill="#FFFFFF" font-family="Consolas,Consolas_MSFontService,sans-serif" font-weight="400" font-size="24" transform="translate(321.023 298)">hap1</text><rect x="230" y="335" width="235" height="40" fill="#404040"/><rect x="237" y="340" width="36" height="8" fill="#7F7F7F"/><rect x="237" y="351" width="36" height="8" fill="#7F7F7F"/><rect x="237" y="361" width="36" height="8" fill="#7F7F7F"/><path d="M269 342.5C269 341.672 269.672 341 270.5 341 271.328 341 272 341.672 272 342.5 272 343.328 271.328 344 270.5 344 269.672 344 269 343.328 269 342.5Z" fill="#00A1DA" fill-rule="evenodd"/><path d="M454 342C454 340.343 455.343 339 457 339 458.657 339 460 340.343 460 342 460 343.657 458.657 345 457 345 455.343 345 454 343.657 454 342Z" fill="#FFC000" fill-rule="evenodd"/><path d="M442 342C442 340.343 443.343 339 445 339 446.657 339 448 340.343 448 342 448 343.657 446.657 345 445 345 443.343 345 442 343.657 442 342Z" fill="#92D050" fill-rule="evenodd"/><rect x="237.5" y="340.5" width="6" height="8" stroke="#404040" stroke-width="1.33333" stroke-miterlimit="8" fill="#9966FF"/><rect x="237.5" y="350.5" width="6" height="9" stroke="#404040" stroke-width="1.33333" stroke-miterlimit="8" fill="#9966FF"/><rect x="237.5" y="361.5" width="6" height="8" stroke="#404040" stroke-width="1.33333" stroke-miterlimit="8" fill="#9966FF"/><path d="M269 353C269 352.448 269.672 352 270.5 352 271.328 352 272 352.448 272 353 272 353.552 271.328 354 270.5 354 269.672 354 269 353.552 269 353Z" fill="#00A1DA" fill-rule="evenodd"/><path d="M269 364C269 363.448 269.672 363 270.5 363 271.328 363 272 363.448 272 364 272 364.552 271.328 365 270.5 365 269.672 365 269 364.552 269 364Z" fill="#00A1DA" fill-rule="evenodd"/><text fill="#FFFFFF" font-family="Consolas,Consolas_MSFontService,sans-serif" font-weight="400" font-size="24" transform="translate(321.023 363)">hap2</text><path d="M0 0 75.6147 34.6888" stroke="#4472C4" stroke-width="0.666667" stroke-miterlimit="8" fill="none" fill-rule="evenodd" transform="matrix(-1 0 0 1 230.115 290.5)"/><path d="M230.115 355.752 154.5 325.5" stroke="#4472C4" stroke-width="0.666667" stroke-miterlimit="8" fill="none" fill-rule="evenodd"/><path d="M71.5001 325.5 154.715 325.5" stroke="#4472C4" stroke-width="0.666667" stroke-miterlimit="8" fill="none" fill-rule="evenodd"/><g clip-path="url(#clip1)"><g clip-path="url(#clip2)"><g clip-path="url(#clip3)"><path d="M60.2 312.9C59.9 312.9 59.5 312.9 59.2 312.9 59.2 312.9 59.2 312.9 59.2 312.9 59.2 308 56.8 303.5 52.9 300.7 48.9 297.9 43.8 297.2 39.2 298.8 35.4 291.4 27 287.6 19 289.5 11 291.4 5.2 298.6 5.2 306.9 5.2 306.9 5.2 307 5.2 307.1-0.299999 306.2-5.8 308.5-9.2 312.9-12.5 317.4-13.1 323.3-10.8 328.3-8.4 333.3-3.4 336.6 2.1 336.9L2.1 337 60.1 337C66.7 337 72.1 331.6 72.1 325 72.1 318.4 66.8 312.9 60.2 312.9Z" fill="#595959"/></g></g></g><text fill="#595959" font-family="Consolas,Consolas_MSFontService,sans-serif" font-weight="400" font-size="24" transform="translate(4.46955 363)">Outside <tspan font-size="24" x="13.1667" y="28">world</tspan><tspan font-style="italic" font-size="15" x="109.019" y="-64">Virtual </tspan><tspan font-style="italic" font-size="15" x="173.019" y="-64">ip</tspan></text><path d="M148 324.5C148 320.91 150.91 318 154.5 318 158.09 318 161 320.91 161 324.5 161 328.09 158.09 331 154.5 331 150.91 331 148 328.09 148 324.5Z" fill="#4472C4" fill-rule="evenodd"/><rect x="649" y="187" width="235" height="40" fill="#404040"/><rect x="656" y="192" width="36" height="8" fill="#7F7F7F"/><rect x="656" y="203" width="36" height="8" fill="#7F7F7F"/><rect x="656" y="213" width="36" height="9" fill="#7F7F7F"/><path d="M688 194.5C688 193.672 688.672 193 689.5 193 690.328 193 691 193.672 691 194.5 691 195.328 690.328 196 689.5 196 688.672 196 688 195.328 688 194.5Z" fill="#00A1DA" fill-rule="evenodd"/><path d="M873 194C873 192.343 874.119 191 875.5 191 876.881 191 878 192.343 878 194 878 195.657 876.881 197 875.5 197 874.119 197 873 195.657 873 194Z" fill="#FFC000" fill-rule="evenodd"/><path d="M861 195C861 193.343 862.343 192 864 192 865.657 192 867 193.343 867 195 867 196.657 865.657 198 864 198 862.343 198 861 196.657 861 195Z" fill="#92D050" fill-rule="evenodd"/><rect x="656.5" y="192.5" width="6" height="8" stroke="#404040" stroke-width="1.33333" stroke-miterlimit="8" fill="#9966FF"/><rect x="656.5" y="203.5" width="6" height="8" stroke="#404040" stroke-width="1.33333" stroke-miterlimit="8" fill="#9966FF"/><rect x="656.5" y="213.5" width="6" height="9" stroke="#404040" stroke-width="1.33333" stroke-miterlimit="8" fill="#9966FF"/><path d="M688 205C688 204.448 688.672 204 689.5 204 690.328 204 691 204.448 691 205 691 205.552 690.328 206 689.5 206 688.672 206 688 205.552 688 205Z" fill="#00A1DA" fill-rule="evenodd"/><path d="M688 216C688 215.448 688.672 215 689.5 215 690.328 215 691 215.448 691 216 691 216.552 690.328 217 689.5 217 688.672 217 688 216.552 688 216Z" fill="#00A1DA" fill-rule="evenodd"/><text fill="#FFFFFF" font-family="Consolas,Consolas_MSFontService,sans-serif" font-weight="400" font-size="24" transform="translate(753.177 215)">m1</text><rect x="744" y="236" width="235" height="39" fill="#404040"/><rect x="751" y="241" width="36" height="8" fill="#7F7F7F"/><rect x="751" y="251" width="36" height="9" fill="#7F7F7F"/><rect x="751" y="262" width="36" height="8" fill="#7F7F7F"/><path d="M783 243C783 242.448 783.448 242 784 242 784.552 242 785 242.448 785 243 785 243.552 784.552 244 784 244 783.448 244 783 243.552 783 243Z" fill="#00A1DA" fill-rule="evenodd"/><path d="M967 243C967 241.343 968.343 240 970 240 971.657 240 973 241.343 973 243 973 244.657 971.657 246 970 246 968.343 246 967 244.657 967 243Z" fill="#FFC000" fill-rule="evenodd"/><path d="M956 243C956 241.343 957.343 240 959 240 960.657 240 962 241.343 962 243 962 244.657 960.657 246 959 246 957.343 246 956 244.657 956 243Z" fill="#92D050" fill-rule="evenodd"/><rect x="751.5" y="241.5" width="6" height="8" stroke="#404040" stroke-width="1.33333" stroke-miterlimit="8" fill="#9966FF"/><rect x="751.5" y="251.5" width="6" height="7.99998" stroke="#404040" stroke-width="1.33333" stroke-miterlimit="8" fill="#9966FF"/><rect x="751.5" y="262.5" width="6" height="8" stroke="#404040" stroke-width="1.33333" stroke-miterlimit="8" fill="#9966FF"/><path d="M783 254C783 253.448 783.448 253 784 253 784.552 253 785 253.448 785 254 785 254.552 784.552 255 784 255 783.448 255 783 254.552 783 254Z" fill="#00A1DA" fill-rule="evenodd"/><path d="M783 264.5C783 263.672 783.448 263 784 263 784.552 263 785 263.672 785 264.5 785 265.328 784.552 266 784 266 783.448 266 783 265.328 783 264.5Z" fill="#00A1DA" fill-rule="evenodd"/><text fill="#FFFFFF" font-family="Consolas,Consolas_MSFontService,sans-serif" font-weight="400" font-size="24" transform="translate(847.99 264)">m2</text><rect x="838" y="284" width="236" height="39" fill="#404040"/><rect x="846" y="289" width="36" height="8" fill="#7F7F7F"/><rect x="846" y="300" width="36" height="8" fill="#7F7F7F"/><rect x="846" y="310" width="36" height="8" fill="#7F7F7F"/><path d="M878 291C878 290.448 878.448 290 879 290 879.552 290 880 290.448 880 291 880 291.552 879.552 292 879 292 878.448 292 878 291.552 878 291Z" fill="#00A1DA" fill-rule="evenodd"/><path d="M1062 291C1062 289.343 1063.34 288 1065 288 1066.66 288 1068 289.343 1068 291 1068 292.657 1066.66 294 1065 294 1063.34 294 1062 292.657 1062 291Z" fill="#FFC000" fill-rule="evenodd"/><path d="M1051 291C1051 289.343 1052.34 288 1054 288 1055.66 288 1057 289.343 1057 291 1057 292.657 1055.66 294 1054 294 1052.34 294 1051 292.657 1051 291Z" fill="#92D050" fill-rule="evenodd"/><rect x="846.5" y="289.5" width="6" height="8" stroke="#404040" stroke-width="1.33333" stroke-miterlimit="8" fill="#9966FF"/><rect x="846.5" y="299.5" width="6" height="8" stroke="#404040" stroke-width="1.33333" stroke-miterlimit="8" fill="#9966FF"/><rect x="846.5" y="310.5" width="6" height="8" stroke="#404040" stroke-width="1.33333" stroke-miterlimit="8" fill="#9966FF"/><path d="M878 302C878 301.448 878.448 301 879 301 879.552 301 880 301.448 880 302 880 302.552 879.552 303 879 303 878.448 303 878 302.552 878 302Z" fill="#00A1DA" fill-rule="evenodd"/><path d="M878 312.5C878 311.672 878.448 311 879 311 879.552 311 880 311.672 880 312.5 880 313.328 879.552 314 879 314 878.448 314 878 313.328 878 312.5Z" fill="#00A1DA" fill-rule="evenodd"/><text fill="#FFFFFF" font-family="Consolas,Consolas_MSFontService,sans-serif" font-weight="400" font-size="24" transform="translate(942.803 312)">m3</text><rect x="649" y="496" width="235" height="40" fill="#404040"/><rect x="657" y="501" width="36" height="8" fill="#7F7F7F"/><rect x="657" y="512" width="36" height="8" fill="#7F7F7F"/><rect x="657" y="523" width="36" height="8" fill="#7F7F7F"/><path d="M689 503.5C689 502.672 689.448 502 690 502 690.552 502 691 502.672 691 503.5 691 504.328 690.552 505 690 505 689.448 505 689 504.328 689 503.5Z" fill="#00A1DA" fill-rule="evenodd"/><path d="M873 503.5C873 502.119 874.343 501 876 501 877.657 501 879 502.119 879 503.5 879 504.881 877.657 506 876 506 874.343 506 873 504.881 873 503.5Z" fill="#FFC000" fill-rule="evenodd"/><path d="M862 504C862 502.343 863.343 501 865 501 866.657 501 868 502.343 868 504 868 505.657 866.657 507 865 507 863.343 507 862 505.657 862 504Z" fill="#92D050" fill-rule="evenodd"/><rect x="657.5" y="501.5" width="6" height="8" stroke="#404040" stroke-width="1.33333" stroke-miterlimit="8" fill="#9966FF"/><rect x="657.5" y="512.5" width="6" height="8" stroke="#404040" stroke-width="1.33333" stroke-miterlimit="8" fill="#9966FF"/><rect x="657.5" y="523.5" width="6" height="8" stroke="#404040" stroke-width="1.33333" stroke-miterlimit="8" fill="#9966FF"/><path d="M689 514C689 513.448 689.448 513 690 513 690.552 513 691 513.448 691 514 691 514.552 690.552 515 690 515 689.448 515 689 514.552 689 514Z" fill="#00A1DA" fill-rule="evenodd"/><path d="M689 525C689 524.448 689.448 524 690 524 690.552 524 691 524.448 691 525 691 525.552 690.552 526 690 526 689.448 526 689 525.552 689 525Z" fill="#00A1DA" fill-rule="evenodd"/><text fill="#FFFFFF" font-family="Consolas,Consolas_MSFontService,sans-serif" font-weight="400" font-size="24" transform="translate(753.594 524)">w1</text><rect x="744" y="545" width="235" height="39" fill="#404040"/><rect x="752" y="550" width="35" height="8" fill="#7F7F7F"/><rect x="752" y="561" width="35" height="8" fill="#7F7F7F"/><rect x="752" y="571" width="35" height="8" fill="#7F7F7F"/><path d="M783 552C783 551.448 783.672 551 784.5 551 785.328 551 786 551.448 786 552 786 552.552 785.328 553 784.5 553 783.672 553 783 552.552 783 552Z" fill="#00A1DA" fill-rule="evenodd"/><path d="M968 552C968 550.343 969.343 549 971 549 972.657 549 974 550.343 974 552 974 553.657 972.657 555 971 555 969.343 555 968 553.657 968 552Z" fill="#FFC000" fill-rule="evenodd"/><path d="M956 552C956 550.343 957.343 549 959 549 960.657 549 962 550.343 962 552 962 553.657 960.657 555 959 555 957.343 555 956 553.657 956 552Z" fill="#92D050" fill-rule="evenodd"/><rect x="752.5" y="550.5" width="5" height="8" stroke="#404040" stroke-width="1.33333" stroke-miterlimit="8" fill="#9966FF"/><rect x="752.5" y="560.5" width="5" height="8" stroke="#404040" stroke-width="1.33333" stroke-miterlimit="8" fill="#9966FF"/><rect x="752.5" y="571.5" width="5" height="8" stroke="#404040" stroke-width="1.33333" stroke-miterlimit="8" fill="#9966FF"/><path d="M783 563C783 562.448 783.672 562 784.5 562 785.328 562 786 562.448 786 563 786 563.552 785.328 564 784.5 564 783.672 564 783 563.552 783 563Z" fill="#00A1DA" fill-rule="evenodd"/><path d="M783 573.5C783 572.672 783.672 572 784.5 572 785.328 572 786 572.672 786 573.5 786 574.328 785.328 575 784.5 575 783.672 575 783 574.328 783 573.5Z" fill="#00A1DA" fill-rule="evenodd"/><text fill="#FFFFFF" font-family="Consolas,Consolas_MSFontService,sans-serif" font-weight="400" font-size="24" transform="translate(848.407 573)">w2</text><rect x="839" y="593" width="235" height="40" fill="#404040" fill-opacity="0.658824"/><rect x="846" y="598" width="36" height="8" fill="#7F7F7F" fill-opacity="0.219608"/><rect x="846" y="609" width="36" height="8" fill="#7F7F7F" fill-opacity="0.219608"/><rect x="846" y="619" width="36" height="8" fill="#7F7F7F" fill-opacity="0.219608"/><path d="M878 600C878 599.448 878.672 599 879.5 599 880.328 599 881 599.448 881 600 881 600.552 880.328 601 879.5 601 878.672 601 878 600.552 878 600Z" fill="#00A1DA" fill-rule="evenodd" fill-opacity="0.219608"/><path d="M1063 600C1063 598.343 1064.34 597 1066 597 1067.66 597 1069 598.343 1069 600 1069 601.657 1067.66 603 1066 603 1064.34 603 1063 601.657 1063 600Z" fill="#FFC000" fill-rule="evenodd" fill-opacity="0.501961"/><path d="M1051 600C1051 598.343 1052.34 597 1054 597 1055.66 597 1057 598.343 1057 600 1057 601.657 1055.66 603 1054 603 1052.34 603 1051 601.657 1051 600Z" fill="#92D050" fill-rule="evenodd" fill-opacity="0.501961"/><rect x="846.5" y="598.5" width="6" height="8" stroke="#404040" stroke-width="1.33333" stroke-miterlimit="8" stroke-opacity="0.258824" fill="#9966FF" fill-opacity="0.219608"/><rect x="846.5" y="608.5" width="6" height="8" stroke="#404040" stroke-width="1.33333" stroke-miterlimit="8" stroke-opacity="0.258824" fill="#9966FF" fill-opacity="0.219608"/><rect x="846.5" y="619.5" width="6" height="8" stroke="#404040" stroke-width="1.33333" stroke-miterlimit="8" stroke-opacity="0.258824" fill="#9966FF" fill-opacity="0.219608"/><path d="M878 611C878 610.448 878.672 610 879.5 610 880.328 610 881 610.448 881 611 881 611.552 880.328 612 879.5 612 878.672 612 878 611.552 878 611Z" fill="#00A1DA" fill-rule="evenodd" fill-opacity="0.219608"/><path d="M878 621.5C878 620.672 878.672 620 879.5 620 880.328 620 881 620.672 881 621.5 881 622.328 880.328 623 879.5 623 878.672 623 878 622.328 878 621.5Z" fill="#00A1DA" fill-rule="evenodd" fill-opacity="0.219608"/><text fill="#FFFFFF" font-family="Consolas,Consolas_MSFontService,sans-serif" font-weight="400" font-size="24" transform="translate(944.286 619)">w…</text><rect x="715" y="391" width="144" height="24" fill="#595959"/><path d="M848 399C848 397.343 849.343 396 851 396 852.657 396 854 397.343 854 399 854 400.657 852.657 402 851 402 849.343 402 848 400.657 848 399Z" fill="#00B0F0" fill-rule="evenodd"/><rect x="719" y="404" width="6" height="7" fill="#262626"/><rect x="729" y="404" width="6" height="7" fill="#262626"/><rect x="740" y="404" width="5" height="7" fill="#262626"/><rect x="749" y="404" width="6" height="7" fill="#262626"/><rect x="760" y="404" width="6" height="7" fill="#262626"/><rect x="770" y="404" width="6" height="7" fill="#262626"/><rect x="780" y="404" width="6" height="7" fill="#262626"/><rect x="790" y="404" width="6" height="7" fill="#262626"/><rect x="719" y="395" width="6" height="7" fill="#262626"/><rect x="729" y="395" width="6" height="7" fill="#262626"/><rect x="740" y="395" width="5" height="7" fill="#262626"/><rect x="749" y="395" width="6" height="7" fill="#262626"/><rect x="760" y="395" width="6" height="7" fill="#262626"/><rect x="770" y="395" width="6" height="7" fill="#262626"/><rect x="780" y="395" width="6" height="7" fill="#262626"/><rect x="790" y="395" width="6" height="7" fill="#262626"/><rect x="800" y="404" width="6" height="7" fill="#262626"/><rect x="811" y="404" width="6" height="7" fill="#262626"/><rect x="821" y="404" width="6" height="7" fill="#262626"/><rect x="800" y="395" width="6" height="7" fill="#262626"/><rect x="811" y="395" width="6" height="7" fill="#262626"/><rect x="821" y="395" width="6" height="7" fill="#262626"/><rect x="230" y="452" width="235" height="40" fill="#404040"/><rect x="237" y="457" width="36" height="8" fill="#7F7F7F"/><rect x="237" y="468" width="36" height="8" fill="#7F7F7F"/><rect x="237" y="478" width="36" height="9" fill="#7F7F7F"/><path d="M269 459.5C269 458.672 269.672 458 270.5 458 271.328 458 272 458.672 272 459.5 272 460.328 271.328 461 270.5 461 269.672 461 269 460.328 269 459.5Z" fill="#00A1DA" fill-rule="evenodd"/><path d="M454 459C454 457.343 455.343 456 457 456 458.657 456 460 457.343 460 459 460 460.657 458.657 462 457 462 455.343 462 454 460.657 454 459Z" fill="#FFC000" fill-rule="evenodd"/><path d="M442 459.5C442 458.119 443.343 457 445 457 446.657 457 448 458.119 448 459.5 448 460.881 446.657 462 445 462 443.343 462 442 460.881 442 459.5Z" fill="#92D050" fill-rule="evenodd"/><rect x="237.5" y="457.5" width="6" height="8" stroke="#404040" stroke-width="1.33333" stroke-miterlimit="8" fill="#9966FF"/><rect x="237.5" y="468.5" width="6" height="8" stroke="#404040" stroke-width="1.33333" stroke-miterlimit="8" fill="#9966FF"/><rect x="237.5" y="478.5" width="6" height="9" stroke="#404040" stroke-width="1.33333" stroke-miterlimit="8" fill="#9966FF"/><path d="M269 470C269 469.448 269.672 469 270.5 469 271.328 469 272 469.448 272 470 272 470.552 271.328 471 270.5 471 269.672 471 269 470.552 269 470Z" fill="#00A1DA" fill-rule="evenodd"/><path d="M269 481C269 480.448 269.672 480 270.5 480 271.328 480 272 480.448 272 481 272 481.552 271.328 482 270.5 482 269.672 482 269 481.552 269 481Z" fill="#00A1DA" fill-rule="evenodd"/><text fill="#FFFFFF" font-family="Consolas,Consolas_MSFontService,sans-serif" font-weight="400" font-size="24" transform="translate(321.023 480)">hap3</text><rect x="230" y="517" width="235" height="40" fill="#404040"/><rect x="237" y="522" width="36" height="8" fill="#7F7F7F"/><rect x="237" y="533" width="36" height="8" fill="#7F7F7F"/><rect x="237" y="543" width="36" height="8" fill="#7F7F7F"/><path d="M269 524.5C269 523.672 269.672 523 270.5 523 271.328 523 272 523.672 272 524.5 272 525.328 271.328 526 270.5 526 269.672 526 269 525.328 269 524.5Z" fill="#00A1DA" fill-rule="evenodd"/><path d="M454 524C454 522.343 455.343 521 457 521 458.657 521 460 522.343 460 524 460 525.657 458.657 527 457 527 455.343 527 454 525.657 454 524Z" fill="#FFC000" fill-rule="evenodd"/><path d="M442 524C442 522.343 443.343 521 445 521 446.657 521 448 522.343 448 524 448 525.657 446.657 527 445 527 443.343 527 442 525.657 442 524Z" fill="#92D050" fill-rule="evenodd"/><rect x="237.5" y="522.5" width="6" height="8" stroke="#404040" stroke-width="1.33333" stroke-miterlimit="8" fill="#9966FF"/><rect x="237.5" y="532.5" width="6" height="9" stroke="#404040" stroke-width="1.33333" stroke-miterlimit="8" fill="#9966FF"/><rect x="237.5" y="543.5" width="6" height="8" stroke="#404040" stroke-width="1.33333" stroke-miterlimit="8" fill="#9966FF"/><path d="M269 535C269 534.448 269.672 534 270.5 534 271.328 534 272 534.448 272 535 272 535.552 271.328 536 270.5 536 269.672 536 269 535.552 269 535Z" fill="#00A1DA" fill-rule="evenodd"/><path d="M269 545.5C269 544.672 269.672 544 270.5 544 271.328 544 272 544.672 272 545.5 272 546.328 271.328 547 270.5 547 269.672 547 269 546.328 269 545.5Z" fill="#00A1DA" fill-rule="evenodd"/><text fill="#FFFFFF" font-family="Consolas,Consolas_MSFontService,sans-serif" font-weight="400" font-size="24" transform="translate(321.023 545)">hap4</text><path d="M0 0 75.6147 34.6888" stroke="#4472C4" stroke-width="0.666667" stroke-miterlimit="8" fill="none" fill-rule="evenodd" transform="matrix(-1 0 0 1 230.115 472.5)"/><path d="M230.115 537.752 154.5 507.5" stroke="#4472C4" stroke-width="0.666667" stroke-miterlimit="8" fill="none" fill-rule="evenodd"/><path d="M148 506.5C148 502.91 150.91 500 154.5 500 158.09 500 161 502.91 161 506.5 161 510.09 158.09 513 154.5 513 150.91 513 148 510.09 148 506.5Z" fill="#4472C4" fill-rule="evenodd"/><path d="M0 0 249.687 68.5168" stroke="#4472C4" stroke-width="0.666667" stroke-miterlimit="8" fill="none" fill-rule="evenodd" transform="matrix(1 0 0 -1 465.5 472.017)"/><path d="M465.5 355.5 715.187 404.029" stroke="#4472C4" stroke-width="0.666667" stroke-miterlimit="8" fill="none" fill-rule="evenodd"/><path d="M0 0 249.687 133.458" stroke="#4472C4" stroke-width="0.666667" stroke-miterlimit="8" fill="none" fill-rule="evenodd" transform="matrix(1 0 0 -1 465.5 536.958)"/><path d="M83.5001 506.5 150.7 506.5" stroke="#4472C4" stroke-width="0.666667" stroke-miterlimit="8" fill="none" fill-rule="evenodd"/><g clip-path="url(#clip4)"><g clip-path="url(#clip5)"><g clip-path="url(#clip6)"><path d="M38 488C38 496.837 30.8366 504 22 504 13.1634 504 6 496.837 6 488 6 479.163 13.1634 472 22 472 30.8366 472 38 479.163 38 488Z" fill="#595959"/><path d="M54 540 54 524C54 521.6 52.8 519.2 50.8 517.6 46.4 514 40.8 511.6 35.2 510 31.2 508.8 26.8 508 22 508 17.6 508 13.2 508.8 8.8 510 3.2 511.6-2.4 514.4-6.8 517.6-8.8 519.2-10 521.6-10 524L-10 540 54 540Z" fill="#595959"/></g></g></g><g clip-path="url(#clip7)"><g clip-path="url(#clip8)"><g clip-path="url(#clip9)"><path d="M79 515 23 515 23 481 79 481 79 515ZM85 479C85 476.8 83.2 475 81 475L21 475C18.8 475 17 476.8 17 479L17 521 85 521 85 479Z" fill="#595959"/><path d="M57 525 57 526C57 526.6 56.6 527 56 527L46 527C45.4 527 45 526.6 45 526L45 525 5 525 5 527C5 529.2 6.8 531 9 531L93 531C95.2 531 97 529.2 97 527L97 525 57 525Z" fill="#595959"/></g></g></g><text fill="#595959" font-family="Consolas,Consolas_MSFontService,sans-serif" font-weight="400" font-size="24" transform="translate(23.4299 577)">Admins</text><rect x="229" y="618" width="236" height="39" fill="#404040"/><rect x="237" y="623" width="36" height="8" fill="#7F7F7F"/><rect x="237" y="633" width="36" height="9" fill="#7F7F7F"/><rect x="237" y="644" width="36" height="8" fill="#7F7F7F"/><path d="M269 625C269 624.448 269.448 624 270 624 270.552 624 271 624.448 271 625 271 625.552 270.552 626 270 626 269.448 626 269 625.552 269 625Z" fill="#00A1DA" fill-rule="evenodd"/><path d="M453 625C453 623.343 454.343 622 456 622 457.657 622 459 623.343 459 625 459 626.657 457.657 628 456 628 454.343 628 453 626.657 453 625Z" fill="#FFC000" fill-rule="evenodd"/><path d="M442 625C442 623.343 443.343 622 445 622 446.657 622 448 623.343 448 625 448 626.657 446.657 628 445 628 443.343 628 442 626.657 442 625Z" fill="#92D050" fill-rule="evenodd"/><rect x="237.5" y="623.5" width="6" height="8" stroke="#404040" stroke-width="1.33333" stroke-miterlimit="8" fill="#9966FF"/><rect x="237.5" y="633.5" width="6" height="8" stroke="#404040" stroke-width="1.33333" stroke-miterlimit="8" fill="#9966FF"/><rect x="237.5" y="644.5" width="6" height="8" stroke="#404040" stroke-width="1.33333" stroke-miterlimit="8" fill="#9966FF"/><path d="M269 636C269 635.448 269.448 635 270 635 270.552 635 271 635.448 271 636 271 636.552 270.552 637 270 637 269.448 637 269 636.552 269 636Z" fill="#00A1DA" fill-rule="evenodd"/><path d="M269 646.5C269 645.672 269.448 645 270 645 270.552 645 271 645.672 271 646.5 271 647.328 270.552 648 270 648 269.448 648 269 647.328 269 646.5Z" fill="#00A1DA" fill-rule="evenodd"/><text fill="#FFFFFF" font-family="Consolas,Consolas_MSFontService,sans-serif" font-weight="400" font-size="24" transform="translate(307.712 646)">ansible</text><path d="M114.5 506.5 229.872 637.932" stroke="#4472C4" stroke-width="0.666667" stroke-miterlimit="8" fill="none" fill-rule="evenodd"/><text fill="#595959" font-family="Consolas,Consolas_MSFontService,sans-serif" font-style="italic" font-weight="400" font-size="15" transform="translate(110.378 484)">Virtual ip</text><rect x="597.5" y="154.5" width="535" height="511" stroke="#00B0F0" stroke-width="1.33333" stroke-miterlimit="8" stroke-dasharray="5.33333 4" fill="none"/><g clip-path="url(#clip10)"><g clip-path="url(#clip11)"><g clip-path="url(#clip12)"><path d="M32.4277 7.63986C32.2245 6.98966 31.7369 6.46137 31.1273 6.13627L18.7329 0.203188C18.4078 0.0406376 18.042 7.21869e-16 17.7169 7.21869e-16 17.3918 7.21869e-16 17.0261 7.21869e-16 16.701 0.0812751L4.30652 6.055C3.69698 6.33946 3.24996 6.86775 3.08741 7.55859L0.0395955 20.9283C-0.0823171 21.6192 0.0802332 22.31 0.48661 22.8789L9.06112 33.4854C9.54877 33.973 10.2396 34.2981 10.9304 34.3387L24.5847 34.3387C25.3161 34.42 26.007 34.0949 26.454 33.4854L35.0285 22.8789C35.4349 22.31 35.5974 21.6192 35.5162 20.9283L32.4277 7.63986Z" fill="#326DE6" transform="matrix(1 0 0 1.01615 911.281 162.047)"/><path d="M30.5178 20.4001 30.5178 20.4001C30.4771 20.4001 30.4365 20.4001 30.4365 20.3594 30.4365 20.3188 30.3552 20.3188 30.2739 20.3188 30.1114 20.2781 29.9488 20.2781 29.7863 20.2781 29.705 20.2781 29.6237 20.2781 29.5425 20.2375L29.5018 20.2375C29.0548 20.1969 28.5672 20.1156 28.1201 19.9937 27.9982 19.953 27.8763 19.8311 27.8357 19.7092 27.8763 19.7092 27.8357 19.7092 27.8357 19.7092L27.8357 19.7092 27.5106 19.6279C27.6731 18.4495 27.5918 17.2303 27.348 16.0518 27.0636 14.8733 26.5759 13.7355 25.9257 12.7196L26.1695 12.4757 26.1695 12.4757 26.1695 12.4351C26.1695 12.3132 26.2102 12.1506 26.2914 12.0694 26.6572 11.7443 27.0229 11.5004 27.4293 11.2566L27.4293 11.2566C27.5106 11.216 27.5918 11.1753 27.6731 11.1347 27.8357 11.0534 27.9576 10.9721 28.1201 10.8909 28.1608 10.8502 28.2014 10.8502 28.242 10.8096 28.2827 10.769 28.242 10.769 28.242 10.7283L28.242 10.7283C28.6078 10.4439 28.6891 9.9562 28.4046 9.59046 28.2827 9.42791 28.0389 9.306 27.8357 9.306 27.6325 9.306 27.4293 9.38728 27.2667 9.50919L27.2667 9.50919 27.2261 9.54983C27.1855 9.59046 27.1448 9.6311 27.1042 9.6311 26.9823 9.75301 26.8604 9.87493 26.7791 9.99684 26.7385 10.0781 26.6572 10.1188 26.6165 10.1594L26.6165 10.1594C26.3321 10.4845 25.9663 10.8096 25.6006 11.0534 25.5193 11.0941 25.4381 11.1347 25.3568 11.1347 25.3161 11.1347 25.2349 11.1347 25.1942 11.0941L25.1536 11.0941 24.8285 11.2972C24.5034 10.9721 24.1377 10.647 23.8126 10.3219 22.309 9.14345 20.4396 8.41198 18.5297 8.20879L18.489 7.88369 18.489 7.88369 18.489 7.92432C18.3671 7.84305 18.3265 7.72114 18.2858 7.59922 18.2858 7.15221 18.2858 6.7052 18.3671 6.21755L18.3671 6.17691C18.3671 6.09563 18.4078 6.01436 18.4078 5.93308 18.4484 5.77053 18.4484 5.60798 18.489 5.44543L18.489 5.20161 18.489 5.20161C18.5297 4.79523 18.2046 4.38886 17.7982 4.34822 17.5544 4.30758 17.3105 4.42949 17.1074 4.63268 16.9448 4.79523 16.8635 4.99842 16.8635 5.20161L16.8635 5.20161 16.8635 5.4048C16.8635 5.56735 16.9042 5.7299 16.9448 5.89245 16.9854 5.97372 16.9854 6.055 16.9854 6.13627L16.9854 6.17691C17.0667 6.62392 17.0667 7.07094 17.0667 7.55859 17.0261 7.6805 16.9854 7.80241 16.8635 7.88369L16.8635 7.96496 16.8635 7.96496 16.8229 8.29006C16.3759 8.3307 15.9289 8.41198 15.4412 8.49325 13.5313 8.89963 11.7838 9.91556 10.4428 11.3379L10.199 11.1753 10.1583 11.1753C10.1177 11.1753 10.0771 11.216 9.99578 11.216 9.91451 11.216 9.83323 11.1753 9.75196 11.1347 9.38622 10.8502 9.02048 10.5251 8.73602 10.2L8.73602 10.2C8.69538 10.1188 8.61411 10.0781 8.57347 10.0375 8.45156 9.91556 8.37028 9.79365 8.24837 9.67174 8.20773 9.6311 8.16709 9.6311 8.12646 9.59046 8.08582 9.54983 8.08582 9.54983 8.08582 9.54983L8.08582 9.54983C7.92327 9.42791 7.72008 9.34664 7.51689 9.34664 7.27307 9.34664 7.06988 9.42791 6.94797 9.6311 6.70414 9.99684 6.78542 10.4845 7.11052 10.769L7.11052 10.769C7.15115 10.769 7.15115 10.8096 7.15115 10.8096 7.15115 10.8096 7.23243 10.8909 7.27307 10.8909 7.39498 10.9721 7.55753 11.0534 7.72008 11.1347 7.80135 11.1753 7.88263 11.216 7.96391 11.2566L7.96391 11.2566C8.37028 11.5004 8.77666 11.7443 9.10176 12.0694 9.18303 12.1506 9.26431 12.3132 9.22367 12.4351L9.22367 12.3945 9.22367 12.3945 9.46749 12.6383C9.42686 12.7196 9.38622 12.7602 9.34558 12.8415 8.08582 14.8327 7.55753 17.1897 7.92327 19.506L7.59817 19.5873 7.59817 19.5873C7.59817 19.6279 7.55753 19.6279 7.55753 19.6279 7.51689 19.7499 7.39498 19.8311 7.27307 19.9124 6.82605 20.0343 6.37904 20.1156 5.89139 20.1562L5.89139 20.1562C5.81011 20.1562 5.72884 20.1562 5.64756 20.1969 5.48501 20.1969 5.32246 20.2375 5.15991 20.2375 5.11928 20.2375 5.07864 20.2781 4.99736 20.2781 4.95673 20.2781 4.95673 20.2781 4.91609 20.3188L4.91609 20.3188C4.46908 20.4001 4.18461 20.8064 4.26589 21.2534 4.26589 21.2534 4.26589 21.2534 4.26589 21.2534 4.34716 21.6192 4.7129 21.863 5.07864 21.8224 5.15991 21.8224 5.20055 21.8224 5.28183 21.7817L5.28183 21.7817C5.32246 21.7817 5.32246 21.7817 5.32246 21.7411 5.32246 21.7005 5.44438 21.7411 5.48501 21.7411 5.64756 21.7005 5.81011 21.6192 5.93203 21.5785 6.0133 21.5379 6.09458 21.4973 6.17585 21.4973L6.21649 21.4973C6.6635 21.3347 7.06988 21.2128 7.55753 21.1315L7.59817 21.1315C7.72008 21.1315 7.84199 21.1722 7.92327 21.2534 7.96391 21.2534 7.96391 21.2941 7.96391 21.2941L7.96391 21.2941 8.32964 21.2534C8.93921 23.1228 10.0771 24.7889 11.6619 26.008 12.0277 26.2925 12.3528 26.5363 12.7591 26.7395L12.556 27.024 12.556 27.024C12.556 27.0646 12.5966 27.0646 12.5966 27.0646 12.6779 27.1865 12.6779 27.3491 12.6372 27.471 12.4747 27.8774 12.2309 28.2837 11.987 28.6495L11.987 28.6901C11.9464 28.7714 11.9057 28.812 11.8245 28.8933 11.7432 28.9746 11.6619 29.1371 11.54 29.2997 11.4994 29.3403 11.4994 29.381 11.4587 29.4216 11.4587 29.4216 11.4587 29.4622 11.4181 29.4622L11.4181 29.4622C11.2149 29.8686 11.3775 30.3563 11.7432 30.5594 11.8245 30.6001 11.9464 30.6407 12.0277 30.6407 12.3528 30.6407 12.6372 30.4375 12.7998 30.1531L12.7998 30.1531C12.7998 30.1531 12.7998 30.1124 12.8404 30.1124 12.8404 30.0718 12.8811 30.0312 12.9217 29.9905 12.9623 29.828 13.0436 29.7061 13.0842 29.5435L13.1655 29.2997 13.1655 29.2997C13.2874 28.8527 13.4906 28.4463 13.6938 28.0399 13.7751 27.918 13.897 27.8367 14.0189 27.7961 14.0595 27.7961 14.0595 27.7961 14.0595 27.7555L14.0595 27.7555 14.2221 27.4304C15.3599 27.8774 16.5384 28.0806 17.7576 28.0806 18.489 28.0806 19.2205 27.9993 19.952 27.7961 20.399 27.7148 20.846 27.5523 21.2524 27.4304L21.4149 27.7148 21.4149 27.7148C21.4556 27.7148 21.4556 27.7148 21.4556 27.7555 21.5775 27.7961 21.6994 27.8774 21.7807 27.9993 21.9839 28.4057 22.1871 28.812 22.309 29.259L22.309 29.2997 22.3902 29.5435C22.4309 29.7061 22.4715 29.8686 22.5528 29.9905 22.5934 30.0312 22.5934 30.0718 22.6341 30.1124 22.6341 30.1124 22.6341 30.1531 22.6747 30.1531L22.6747 30.1531C22.8373 30.4375 23.1217 30.6407 23.4468 30.6407 23.5687 30.6407 23.65 30.6001 23.7719 30.5594 23.9345 30.4782 24.097 30.3156 24.1377 30.1124 24.1783 29.9092 24.1783 29.7061 24.097 29.5029L24.097 29.5029C24.097 29.4622 24.0564 29.4622 24.0564 29.4622 24.0564 29.4216 24.0157 29.381 23.9751 29.3403 23.8938 29.1778 23.8126 29.0559 23.6906 28.9339 23.65 28.8527 23.6094 28.812 23.5281 28.7308L23.5281 28.6495C23.2436 28.2837 23.0404 27.8774 22.8779 27.471 22.8373 27.3491 22.8373 27.1865 22.9185 27.0646 22.9185 27.024 22.9592 27.024 22.9592 27.024L22.9592 27.024 22.8373 26.6989C24.9098 25.4391 26.4946 23.4885 27.2261 21.1722L27.5512 21.2128 27.5512 21.2128C27.5918 21.2128 27.5918 21.1722 27.5918 21.1722 27.6731 21.0909 27.795 21.0503 27.917 21.0503L27.9576 21.0503C28.4046 21.1315 28.8516 21.2534 29.258 21.416L29.2986 21.416C29.3799 21.4566 29.4612 21.4973 29.5425 21.4973 29.705 21.5785 29.8269 21.6598 29.9895 21.7005 30.0301 21.7005 30.0707 21.7411 30.152 21.7411 30.1927 21.7411 30.1927 21.7411 30.2333 21.7817L30.2333 21.7817C30.3146 21.8224 30.3552 21.8224 30.4365 21.8224 30.8022 21.8224 31.1273 21.5785 31.2492 21.2534 31.2086 20.8064 30.8835 20.4813 30.5178 20.4001ZM18.7735 19.1403 17.6763 19.6686 16.5791 19.1403 16.2946 17.9618 17.0667 16.9865 18.2858 16.9865 19.058 17.9618 18.7735 19.1403ZM25.3974 16.4988C25.6006 17.3522 25.6412 18.2056 25.56 19.059L21.6994 17.9618 21.6994 17.9618C21.3337 17.8805 21.1305 17.5148 21.2118 17.1491 21.2524 17.0271 21.293 16.9459 21.3743 16.8646L24.4221 14.1012C24.8691 14.8327 25.1942 15.6455 25.3974 16.4988ZM23.203 12.5976 19.8707 14.9546C19.5862 15.1172 19.1799 15.0765 18.9767 14.7921 18.8954 14.7108 18.8548 14.6295 18.8548 14.5076L18.6109 10.4032C20.399 10.6064 21.9839 11.3785 23.203 12.5976L23.203 12.5976ZM15.8476 10.5251 16.6603 10.3626 16.4572 14.4263 16.4572 14.4263C16.4572 14.7921 16.1321 15.0765 15.7663 15.0765 15.6444 15.0765 15.5631 15.0359 15.4412 14.9953L12.0683 12.5976C13.1249 11.5817 14.4253 10.8502 15.8476 10.5251ZM10.8898 14.1012 13.897 16.7833 13.897 16.7833C14.1815 17.0271 14.2221 17.4335 13.9783 17.718 13.897 17.8399 13.8157 17.8805 13.6532 17.9212L9.71132 19.059C9.58941 17.3522 9.99578 15.6048 10.8898 14.1012ZM10.199 20.969 14.2221 20.2781C14.5472 20.2781 14.8723 20.4813 14.9129 20.8064 14.9536 20.9283 14.9536 21.0909 14.8723 21.2128L14.8723 21.2128 13.3281 24.9515C11.9057 24.0168 10.7679 22.5945 10.199 20.969ZM19.4237 26.008C18.8548 26.13 18.2858 26.2112 17.6763 26.2112 16.8229 26.2112 15.9289 26.0487 15.1161 25.8049L17.1074 22.1881C17.3105 21.9443 17.6356 21.863 17.9201 22.0256 18.042 22.1068 18.1233 22.1881 18.2452 22.31L18.2452 22.31 20.1958 25.8455C19.952 25.8861 19.7082 25.9268 19.4237 26.008ZM24.3815 22.4726C23.7719 23.4479 22.9185 24.3013 21.9432 24.9108L20.3584 21.0909C20.2771 20.7658 20.4396 20.4407 20.7241 20.3188 20.846 20.2781 20.9679 20.2375 21.0898 20.2375L25.1536 20.9283C24.9504 21.4973 24.7066 22.0256 24.3815 22.4726Z" fill="#FFFFFF" transform="matrix(1 0 0 1.01615 911.281 162.047)"/><path d="M196.888 25.3985C197.457 25.4391 198.066 25.3578 198.595 25.1547 198.92 24.9921 199.123 24.6264 199.082 24.2606 199.042 23.8542 198.798 23.4885 198.432 23.3666 197.822 23.0009 197.132 22.6758 196.441 22.4726 195.75 22.2287 195.14 21.9443 194.571 21.6598 194.043 21.416 193.596 21.0909 193.149 20.6845 192.743 20.2781 192.458 19.8311 192.255 19.3028 192.011 18.6933 191.93 18.0431 191.93 17.3929 191.889 16.0518 192.499 14.7514 193.555 13.9387 194.653 13.0853 196.116 12.6789 197.985 12.6789 198.879 12.6789 199.814 12.7602 200.708 12.9634 201.399 13.0853 202.089 13.2478 202.78 13.4917L202.008 16.9459C201.439 16.7427 200.911 16.6208 200.342 16.4582 199.692 16.2957 199.001 16.255 198.351 16.255 196.969 16.255 196.278 16.6208 196.278 17.3929 196.278 17.5554 196.319 17.718 196.359 17.8805 196.441 18.0431 196.563 18.165 196.725 18.2869 196.888 18.4088 197.132 18.5307 197.416 18.6933 197.701 18.8558 198.107 19.0184 198.595 19.1809 199.407 19.4654 200.22 19.8311 200.952 20.2375 201.52 20.522 202.008 20.8877 202.414 21.3754 202.78 21.7411 203.024 22.1881 203.187 22.7164 203.349 23.2853 203.43 23.8542 203.43 24.4232 203.512 25.8049 202.861 27.1459 201.683 27.918 200.545 28.6901 198.92 29.0965 196.806 29.0965 195.628 29.1371 194.49 29.0152 193.352 28.7308 192.702 28.5682 192.093 28.365 191.483 28.1618L192.214 24.5857C192.946 24.8702 193.718 25.114 194.49 25.2766 195.303 25.3172 196.075 25.3985 196.888 25.3985M174.496 20.9283C174.456 19.7092 174.7 18.4901 175.106 17.3522 175.472 16.3769 176.041 15.5235 176.772 14.7514 177.463 14.0606 178.235 13.5323 179.129 13.2072 180.023 12.8415 180.958 12.6789 181.893 12.6789 184.087 12.6789 185.834 13.3698 187.094 14.7108 188.354 16.0518 189.004 18.0431 189.004 20.6439 189.004 20.8877 189.004 21.1722 188.963 21.4973 188.963 21.8224 188.923 22.0662 188.923 22.31L179.007 22.31C179.089 23.1634 179.536 23.9762 180.267 24.4638 181.161 25.0327 182.218 25.3172 183.274 25.2766 184.046 25.2766 184.859 25.1953 185.631 25.0734 186.281 24.9515 186.932 24.7483 187.541 24.4638L188.151 28.0399C187.866 28.2025 187.541 28.2837 187.216 28.4057 186.769 28.5276 186.322 28.6495 185.875 28.6901 185.387 28.7714 184.9 28.8527 184.331 28.9339 183.802 28.9746 183.234 29.0152 182.665 29.0152 181.405 29.0559 180.186 28.8527 179.007 28.4057 178.032 28.0399 177.179 27.471 176.447 26.7395 175.756 26.008 175.269 25.114 174.943 24.1793 174.659 23.0821 174.496 21.9849 174.496 20.9283M184.778 19.2622C184.778 18.8965 184.697 18.5307 184.575 18.165 184.493 17.7993 184.29 17.5148 184.087 17.2303 183.843 16.9459 183.559 16.702 183.234 16.5395 182.827 16.3363 182.421 16.255 181.974 16.255 181.527 16.255 181.12 16.3363 180.714 16.5395 180.389 16.702 180.064 16.9052 179.82 17.1897 179.576 17.4742 179.373 17.7993 179.251 18.165 179.129 18.5307 179.048 18.8965 179.007 19.2622L184.778 19.2622M162.59 9.18409 166.979 8.49325 166.979 13.0447 172.261 13.0447 172.261 16.702 166.979 16.702 166.979 22.1475C166.938 22.9196 167.1 23.6917 167.466 24.3419 167.791 24.8702 168.441 25.1547 169.457 25.1547 169.945 25.1547 170.433 25.114 170.88 25.0327 171.367 24.9515 171.814 24.8295 172.261 24.667L172.871 28.0806C172.302 28.3244 171.692 28.4869 171.083 28.6495 170.311 28.812 169.498 28.8933 168.685 28.8933 167.669 28.9339 166.653 28.7714 165.719 28.4057 164.987 28.1212 164.337 27.6335 163.849 27.0646 163.362 26.4551 163.037 25.7236 162.833 24.9515 162.63 24.0574 162.549 23.1228 162.59 22.2287L162.59 9.18409M144.831 20.9283C144.79 19.7092 145.034 18.4901 145.441 17.3522 145.806 16.3769 146.375 15.5235 147.107 14.7514 147.798 14.0606 148.57 13.5323 149.464 13.2072 150.358 12.8415 151.292 12.6789 152.227 12.6789 154.422 12.6789 156.169 13.3698 157.429 14.7108 158.688 16.0518 159.339 18.0431 159.339 20.6439 159.339 20.8877 159.339 21.1722 159.298 21.4973 159.257 21.8224 159.257 22.0662 159.257 22.31L149.301 22.31C149.382 23.1634 149.829 23.9762 150.561 24.4638 151.455 25.0327 152.512 25.3172 153.568 25.2766 154.34 25.2766 155.153 25.1953 155.925 25.0734 156.575 24.9515 157.226 24.7483 157.876 24.4638L158.485 28.0399C158.201 28.2025 157.876 28.2837 157.551 28.4057 157.104 28.5276 156.657 28.6495 156.21 28.6901 155.722 28.7714 155.234 28.8527 154.665 28.9339 154.137 28.9746 153.568 29.0152 152.999 29.0152 151.739 29.0559 150.52 28.8527 149.342 28.4057 148.367 28.0399 147.513 27.471 146.782 26.7395 146.091 26.008 145.603 25.114 145.278 24.1793 144.953 23.0821 144.79 21.9849 144.831 20.9283M155.112 19.2622C155.112 18.8965 155.031 18.5307 154.909 18.165 154.828 17.7993 154.625 17.5148 154.422 17.2303 154.178 16.9459 153.893 16.702 153.568 16.5395 153.162 16.3363 152.755 16.255 152.308 16.255 151.861 16.255 151.455 16.3363 151.049 16.5395 150.723 16.702 150.439 16.9052 150.195 17.1897 149.951 17.4742 149.748 17.7993 149.626 18.165 149.504 18.5307 149.423 18.8965 149.382 19.2622L155.112 19.2622M128.17 13.5729C129.104 13.3291 130.08 13.1259 131.055 12.9634 132.274 12.7602 133.534 12.6789 134.753 12.6789 135.85 12.6383 136.947 12.8415 138.004 13.2072 138.817 13.4917 139.548 13.9793 140.076 14.6295 140.605 15.2797 140.97 16.0518 141.174 16.8646 141.417 17.7993 141.499 18.7746 141.499 19.7499L141.499 28.4869 137.151 28.4869 137.151 20.3188C137.151 18.8965 136.947 17.9212 136.582 17.3116 136.216 16.7427 135.525 16.4176 134.509 16.4176 134.184 16.4176 133.859 16.4176 133.493 16.4582 133.127 16.4582 132.843 16.4988 132.559 16.5395L132.559 28.4869 128.17 28.4869 128.17 13.5729M125.081 16.9459C124.675 16.8646 124.228 16.7427 123.7 16.6614 123.131 16.5395 122.562 16.4988 121.993 16.4988 121.668 16.4988 121.343 16.5395 120.977 16.5801 120.692 16.6208 120.408 16.6614 120.123 16.7427L120.123 28.5682 115.735 28.5682 115.735 13.8574C116.629 13.5323 117.563 13.2885 118.498 13.0853 119.676 12.8008 120.896 12.6789 122.074 12.7196 122.358 12.7196 122.643 12.7602 122.927 12.7602 123.253 12.7602 123.578 12.8008 123.943 12.8821 124.268 12.9227 124.594 12.9634 124.959 13.0447 125.244 13.0853 125.528 13.1666 125.813 13.2885L125.081 16.9459M97.8134 20.9283C97.7728 19.7092 98.0166 18.4901 98.423 17.3522 98.7887 16.3769 99.3576 15.5235 100.089 14.7514 100.78 14.0606 101.552 13.5323 102.446 13.2072 103.34 12.8415 104.275 12.6789 105.209 12.6789 107.404 12.6789 109.151 13.3698 110.411 14.7108 111.671 16.0518 112.321 18.0431 112.321 20.6032 112.321 20.8471 112.321 21.1315 112.28 21.4566 112.24 21.7817 112.24 22.0256 112.24 22.2694L102.284 22.2694C102.365 23.1228 102.812 23.9355 103.543 24.4232 104.437 24.9921 105.494 25.2766 106.55 25.2359 107.323 25.2359 108.135 25.1547 108.907 25.0327 109.558 24.9108 110.208 24.7076 110.817 24.4638L111.427 28.0399C111.143 28.2025 110.817 28.2837 110.492 28.4057 110.045 28.5276 109.598 28.6495 109.151 28.6901 108.664 28.7714 108.176 28.8527 107.607 28.9339 107.079 28.9746 106.51 29.0152 105.941 29.0152 104.681 29.0559 103.462 28.8527 102.284 28.4057 101.308 28.0399 100.455 27.471 99.7234 26.7395 99.0325 26.008 98.5449 25.114 98.2198 24.1793 97.9759 23.0821 97.8134 22.0256 97.8134 20.9283M108.135 19.2622C108.135 18.8965 108.054 18.5307 107.932 18.165 107.851 17.7993 107.648 17.5148 107.444 17.2303 107.201 16.9459 106.916 16.702 106.591 16.5395 106.185 16.3363 105.778 16.255 105.331 16.255 104.884 16.255 104.478 16.3363 104.072 16.5395 103.746 16.702 103.421 16.9052 103.178 17.1897 102.934 17.4742 102.731 17.7993 102.609 18.165 102.487 18.5307 102.405 18.8965 102.365 19.2622L108.135 19.2622M90.7018 20.6845C90.7018 17.8399 89.6452 16.4582 87.5727 16.4582 87.1257 16.4582 86.6787 16.4988 86.2317 16.6208 85.8659 16.702 85.5002 16.8646 85.1751 17.0678L85.1751 25.0327C85.3783 25.0734 85.6628 25.114 85.9879 25.1547 86.313 25.1953 86.6787 25.1953 87.0851 25.1953 88.1417 25.2766 89.1576 24.8295 89.8078 23.9762 90.4174 23.0009 90.7425 21.863 90.7018 20.6845M95.172 20.8471C95.172 21.9849 95.0094 23.1228 94.603 24.22 94.2779 25.1953 93.7496 26.0487 93.0588 26.7802 92.3273 27.5116 91.4739 28.0806 90.5393 28.4463 89.4421 28.8527 88.3042 29.0152 87.1257 29.0152 86.5974 29.0152 86.0285 28.9746 85.4596 28.9339 84.8906 28.8933 84.3217 28.812 83.7528 28.7714 83.2245 28.6901 82.6962 28.6088 82.1679 28.4869 81.6396 28.4057 81.1926 28.2837 80.8269 28.1212L80.8269 6.3801 85.2158 5.68926 85.2158 13.4104C85.7034 13.2072 86.2317 13.0447 86.76 12.9227 87.3289 12.8008 87.8978 12.7602 88.4668 12.7602 89.4827 12.7602 90.458 12.9227 91.3927 13.3698 92.2054 13.7355 92.9369 14.3044 93.5058 14.9953 94.1154 15.7674 94.5624 16.6208 94.8062 17.5554 95.05 18.5714 95.172 19.7092 95.172 20.8471M76.6412 27.9993C75.7066 28.2431 74.7313 28.4463 73.756 28.5682 72.5368 28.7714 71.2771 28.8527 70.0579 28.8527 68.9201 28.8933 67.8229 28.6901 66.7663 28.3244 65.9535 27.9993 65.2627 27.5116 64.6938 26.8614 64.1655 26.1706 63.7998 25.3985 63.5966 24.5451 63.3527 23.6104 63.2715 22.5945 63.2715 21.6192L63.2715 13.0447 67.6603 13.0447 67.6603 21.1315C67.6603 22.5538 67.8635 23.5698 68.2292 24.1793 68.595 24.7889 69.2858 25.114 70.3018 25.114 70.6269 25.114 70.952 25.114 71.3177 25.0734 71.6834 25.0327 71.9679 25.0327 72.2524 24.9515L72.2524 13.0447 76.6412 13.0447 76.6412 27.9993M51.0396 18.6526C51.4866 18.165 51.8929 17.6773 52.3806 17.1897 52.8276 16.6614 53.2746 16.1737 53.7216 15.6861 54.1686 15.1578 54.575 14.7108 54.9408 14.2638 55.3065 13.8168 55.6722 13.4104 55.9567 13.0853L61.1583 13.0853C60.1017 14.2638 59.0858 15.4423 58.1105 16.5395 57.0946 17.6367 56.038 18.7746 54.8595 19.9124 55.5097 20.522 56.1193 21.1315 56.6882 21.8224 57.2977 22.5538 57.9073 23.2853 58.5169 24.0981 59.0858 24.8702 59.6547 25.6829 60.1424 26.4551 60.63 27.2272 61.0364 27.9586 61.3615 28.6088L56.3224 28.6088C55.9973 28.0806 55.6316 27.5523 55.2252 26.9427 54.8189 26.3331 54.3718 25.7236 53.9655 25.0734 53.5185 24.4638 53.0308 23.8542 52.5025 23.2853 52.0555 22.757 51.5678 22.2694 51.0396 21.863L51.0396 28.6495 46.6507 28.6495 46.6507 6.3801 51.0396 5.68926 51.0396 18.6526" transform="matrix(1 0 0 1.01615 911.281 162.047)"/></g></g></g><rect x="216.5" y="100.5" width="950" height="586" stroke="#92D050" stroke-width="1.33333" stroke-miterlimit="8" stroke-dasharray="5.33333 4" fill="none"/><text font-family="Segoe UI Light,Segoe UI Light_MSFontService,sans-serif" font-weight="300" font-size="24" transform="translate(306.872 149)">BlueBanquise<tspan font-size="24" x="140" y="0">CORE</tspan></text><g clip-path="url(#clip13)"><g clip-path="url(#clip14)"><g clip-path="url(#clip15)"><path d="M57.8212 32.6434C57.4845 32.1056 57.1399 31.5491 57.0554 31.4068L56.9021 31.1481 57.1879 30.9332C57.3451 30.815 57.4934 30.7418 57.5176 30.7706 57.5775 30.8417 58.4832 33.5771 58.4555 33.6017 58.4431 33.6125 58.1579 33.1813 57.8212 32.6434Z" fill="#108BDE" fill-opacity="0.3" transform="matrix(1 0 0 1.00281 217.49 87.2435)"/><path d="M49.6795 31.0286C48.7683 30.4796 48.0221 30.0104 48.0213 29.9858 48.0205 29.9613 48.7528 28.552 49.6489 26.8541L51.2779 23.767 51.314 25.1089C51.3921 28.0329 51.4341 32.0339 51.3867 32.0304 51.3585 32.0283 50.5907 31.5776 49.6795 31.0286Z" fill="#108BDE" fill-opacity="0.3" transform="matrix(1 0 0 1.00281 217.49 87.2435)"/><path d="M46.1339 31.9954C45.0331 30.7842 44.7639 30.4539 44.8289 30.3944 44.9748 30.2607 46.7425 29.2736 46.7759 29.3072 46.8248 29.3562 47.5582 33.323 47.5381 33.4293 47.5284 33.4801 46.8988 32.8372 46.1339 31.9954Z" fill="#108BDE" fill-opacity="0.3" transform="matrix(1 0 0 1.00281 217.49 87.2435)"/><path d="M39.884 33.1034C38.3947 32.2008 37.1868 31.4399 37.1997 31.4125 37.2377 31.332 41.5528 27.38 41.603 27.38 41.6282 27.38 41.7035 28.5934 41.911 29.9358 42.1185 31.2781 42.3713 32.9106 42.4727 33.5635 42.5742 34.2163 42.6425 34.7492 42.6245 34.7476 42.6065 34.746 41.3733 34.0061 39.884 33.1034Z" fill="#108BDE" fill-opacity="0.3" transform="matrix(1 0 0 1.00281 217.49 87.2435)"/><path d="M33.4823 34.5225C32.7908 34.2533 32.1752 34.012 32.1141 33.9863 32.0219 33.9475 32.3002 33.6774 33.7604 32.3885 34.727 31.5353 35.5239 30.8429 35.5314 30.8497 35.5421 30.8594 34.8184 34.679 34.7556 34.9441 34.7456 34.9863 34.2635 34.8266 33.4823 34.5225Z" fill="#108BDE" fill-opacity="0.3" transform="matrix(1 0 0 1.00281 217.49 87.2435)"/><path d="M48.929 82.1384C48.9043 82.0613 48.4987 80.3907 48.0276 78.4255L47.171 74.8525 48.3966 69.2446C49.0707 66.1601 49.6252 63.6407 49.6286 63.6456 49.6331 63.6501 49.4946 67.6062 49.3222 72.4355 49.15 77.2642 49.0011 81.4547 48.9914 81.7468 48.9798 82.0969 48.9586 82.2304 48.929 82.1384Z" fill="#108BDE" transform="matrix(1 0 0 1.00281 217.49 87.2435)"/><path d="M41.3917 71.0729 40.8452 69.8938 41.1207 68.5629C41.2722 67.8307 41.5223 66.6501 41.6764 65.9391L41.9566 64.6463 41.964 68.4492C41.968 70.5404 41.9639 72.2515 41.9548 72.2515 41.9457 72.2515 41.6923 71.7211 41.3917 71.0729Z" fill="#108BDE" transform="matrix(1 0 0 1.00281 217.49 87.2435)"/><path d="M42.041 80.7679C41.003 76.5547 40.1367 73.0688 40.116 73.0213 40.0844 72.9491 40.5521 70.2389 40.6416 69.9753 40.6575 69.9284 40.9265 70.5103 41.2394 71.2687 41.5523 72.0271 41.8349 72.693 41.8675 72.7484 41.9551 72.8967 42.2345 72.8794 42.3288 72.7192 42.3707 72.6485 42.612 71.814 42.8649 70.8653 43.3063 69.21 43.3254 69.1547 43.3394 69.4854 43.4095 71.1471 43.9572 88.1443 43.9446 88.2674 43.9356 88.3564 43.079 84.9812 42.041 80.7679Z" fill="#108BDE" transform="matrix(1 0 0 1.00281 217.49 87.2435)"/><path d="M36.1712 77.503 34.7085 72.2115 35.7505 67.2982C36.3327 64.5529 36.7985 62.468 36.8061 62.5728 36.8463 63.1305 37.846 82.9027 37.8332 83.0006 37.8248 83.0644 36.9756 80.4135 36.1712 77.503Z" fill="#108BDE" transform="matrix(1 0 0 1.00281 217.49 87.2435)"/><path d="M61.8535 46.6351 50.828 85.5868 51.9676 69.9996 49.0714 83.6107 49.7952 62.0359 44.1482 89.2581 43.4242 68.5515 42.121 73.1854 42.121 62.9045 37.9218 84.4794 36.9082 61.3116 34.0123 74.633 21.8491 37.7094 28.7995 32.6414 34.8811 35.103 35.7499 30.4694 42.8451 34.9582 41.6866 27.139 47.7682 33.7998 46.8994 29.1663 51.533 32.207 51.3882 22.9399 59.2075 35.103 57.6145 30.4694 63.9858 37.7094" stroke="#141414" stroke-width="0.346075" stroke-linejoin="round" fill="none" transform="matrix(1 0 0 1.00281 217.49 87.2435)"/><path d="M35.7499 30.4694 31.9699 33.8094" stroke="#141414" stroke-width="0.395514" stroke-linecap="round" fill="none" transform="matrix(1 0 0 1.00281 217.49 87.2435)"/><path d="M41.6866 27.139 37.3089 31.302" stroke="#141414" stroke-width="0.395514" stroke-linecap="round" fill="none" transform="matrix(1 0 0 1.00281 217.49 87.2435)"/><path d="M46.8994 29.1663 44.8302 30.2804" stroke="#141414" stroke-width="0.395514" stroke-linecap="round" fill="none" transform="matrix(1 0 0 1.00281 217.49 87.2435)"/><path d="M51.3882 22.9399 48.1381 29.6891" stroke="#141414" stroke-width="0.395514" stroke-linecap="round" fill="none" transform="matrix(1 0 0 1.00281 217.49 87.2435)"/><path d="M57.6145 30.4694 56.6119 31.2309" stroke="#141414" stroke-width="0.494393" fill="none" transform="matrix(1 0 0 1.00281 217.49 87.2435)"/><path d="M34.7085 72.2115 37.8763 84.206" stroke="#141414" stroke-width="0.395514" stroke-linecap="round" fill="none" transform="matrix(1 0 0 1.00281 217.49 87.2435)"/><path d="M42.121 73.1854 40.8452 69.8938" stroke="#141414" stroke-width="0.395514" stroke-linecap="round" fill="none" transform="matrix(1 0 0 1.00281 217.49 87.2435)"/><path d="M44.1482 89.2581 40.1895 73.3694" stroke="#141414" stroke-width="0.395514" stroke-linecap="round" fill="none" transform="matrix(1 0 0 1.00281 217.49 87.2435)"/><path d="M49.0714 83.6107 47.171 74.8525" stroke="#141414" stroke-width="0.395514" stroke-linecap="round" fill="none" transform="matrix(1 0 0 1.00281 217.49 87.2435)"/><path d="M21.8491 37.7094 81.1753 37.7228" stroke="#108BDE" stroke-width="0.346075" stroke-linecap="round" fill="none" transform="matrix(1 0 0 1.00281 217.49 87.2435)"/><path d="M32.1715 38.8473 33.7424 38.8473C34.4502 38.8473 34.9699 38.9674 35.3015 39.2077 35.6332 39.4479 35.7991 39.811 35.7991 40.2968 35.7991 40.6284 35.6972 40.9053 35.4935 41.1272 35.2924 41.3466 34.9973 41.4877 34.6082 41.5503L34.6082 41.5738C35.0652 41.6417 35.4008 41.7867 35.6149 42.0086 35.8317 42.228 35.9401 42.5349 35.9401 42.9293 35.9401 43.4568 35.7651 43.8629 35.4151 44.1476 35.0652 44.4323 34.569 44.5746 33.9265 44.5746L32.1715 44.5746ZM32.5711 41.3975 33.8325 41.3975C34.3705 41.3975 34.7609 41.3087 35.0038 41.1311 35.2493 40.9509 35.3721 40.6702 35.3721 40.2889 35.3721 39.9076 35.2336 39.6308 34.9568 39.4584 34.6826 39.286 34.2725 39.1999 33.7267 39.1999L32.5711 39.1999ZM32.5711 41.7501 32.5711 44.222 33.9187 44.222C34.979 44.222 35.5092 43.7911 35.5092 42.9293 35.5092 42.1432 34.9503 41.7501 33.8325 41.7501Z" fill="#108BDE" transform="matrix(1 0 0 1.00281 217.49 87.2435)"/><path d="M37.4914 44.5746 37.1036 44.5746 37.1036 38.479 37.4914 38.479Z" fill="#108BDE" transform="matrix(1 0 0 1.00281 217.49 87.2435)"/><path d="M39.2581 40.3163 39.2581 43.0742C39.2581 43.5025 39.3483 43.8146 39.5284 44.0104 39.7086 44.2037 39.9881 44.3004 40.3668 44.3004 40.8734 44.3004 41.2456 44.1724 41.4833 43.9165 41.7235 43.6605 41.8437 43.2439 41.8437 42.6668L41.8437 40.3163 42.2276 40.3163 42.2276 44.5746 41.8985 44.5746 41.828 43.987 41.8045 43.987C41.5277 44.4309 41.0353 44.6529 40.3276 44.6529 39.3587 44.6529 38.8742 44.1345 38.8742 43.0977L38.8742 40.3163Z" fill="#108BDE" transform="matrix(1 0 0 1.00281 217.49 87.2435)"/><path d="M45.3732 44.6529C44.7543 44.6529 44.2711 44.4623 43.9238 44.081 43.5791 43.6997 43.4067 43.1656 43.4067 42.4788 43.4067 41.7997 43.5738 41.2565 43.9082 40.8491 44.2424 40.439 44.6929 40.2341 45.2596 40.2341 45.7611 40.2341 46.1567 40.409 46.4466 40.759 46.7365 41.1089 46.8815 41.5843 46.8815 42.1849L46.8815 42.4983 43.8141 42.4983C43.8194 43.0834 43.9551 43.5299 44.2215 43.8381 44.4905 44.1463 44.8744 44.3004 45.3732 44.3004 45.6161 44.3004 45.829 44.2834 46.0118 44.2494 46.1972 44.2155 46.4309 44.1423 46.713 44.0301L46.713 44.3826C46.4728 44.4871 46.2507 44.5576 46.047 44.5942 45.8434 44.6333 45.6188 44.6529 45.3732 44.6529ZM45.2596 40.5788C44.8496 40.5788 44.5206 40.7146 44.2725 40.9862 44.0243 41.2552 43.8794 41.6443 43.8376 42.1536L46.4701 42.1536C46.4701 41.66 46.3631 41.2748 46.1489 40.998 45.9348 40.7185 45.6383 40.5788 45.2596 40.5788Z" fill="#108BDE" transform="matrix(1 0 0 1.00281 217.49 87.2435)"/><path d="M48.1546 38.8473 49.7255 38.8473C50.4335 38.8473 50.9531 38.9674 51.2848 39.2077 51.6161 39.4479 51.7822 39.811 51.7822 40.2968 51.7822 40.6284 51.6804 40.9053 51.4767 41.1272 51.2754 41.3466 50.9803 41.4877 50.5912 41.5503L50.5912 41.5738C51.0485 41.6417 51.3837 41.7867 51.5983 42.0086 51.8148 42.228 51.9231 42.5349 51.9231 42.9293 51.9231 43.4568 51.7481 43.8629 51.3981 44.1476 51.0485 44.4323 50.5521 44.5746 49.9094 44.5746L48.1546 44.5746ZM48.5542 41.3975 49.8155 41.3975C50.3534 41.3975 50.744 41.3087 50.9867 41.1311 51.2324 40.9509 51.355 40.6702 51.355 40.2889 51.355 39.9076 51.2166 39.6308 50.9398 39.4584 50.6659 39.286 50.2555 39.1999 49.7097 39.1999L48.5542 39.1999ZM48.5542 41.7501 48.5542 44.222 49.902 44.222C50.962 44.222 51.4925 43.7911 51.4925 42.9293 51.4925 42.1432 50.9333 41.7501 49.8155 41.7501Z" fill="#565656" transform="matrix(1 0 0 1.00281 217.49 87.2435)"/><path d="M55.6721 44.5746 55.5742 43.9008 55.543 43.9008C55.329 44.175 55.108 44.3696 54.8811 44.4845 54.6561 44.5968 54.3896 44.6529 54.0816 44.6529 53.6639 44.6529 53.3385 44.5458 53.1062 44.3317 52.8738 44.1175 52.7576 43.8211 52.7576 43.4424 52.7576 43.0272 52.9302 42.7047 53.2748 42.4748 53.6218 42.245 54.1236 42.1235 54.7792 42.1105L55.59 42.087 55.59 41.805C55.59 41.4002 55.5074 41.0946 55.3433 40.8883 55.1787 40.6819 54.9137 40.5788 54.5478 40.5788 54.1533 40.5788 53.7449 40.6885 53.3217 40.9079L53.1769 40.571C53.6441 40.3516 54.1063 40.2419 54.5636 40.2419 55.0308 40.2419 55.3799 40.3634 55.6093 40.6062 55.8421 40.8491 55.9583 41.2278 55.9583 41.7423L55.9583 44.5746ZM54.1054 44.3004C54.5597 44.3004 54.9176 44.1711 55.1787 43.9125 55.4422 43.6514 55.5742 43.2897 55.5742 42.8274L55.5742 42.4082 54.8301 42.4396C54.2319 42.4683 53.8048 42.5623 53.5492 42.7216 53.2955 42.8783 53.169 43.1238 53.169 43.4581 53.169 43.7245 53.25 43.9321 53.4117 44.081 53.5763 44.2272 53.8077 44.3004 54.1054 44.3004Z" fill="#565656" transform="matrix(1 0 0 1.00281 217.49 87.2435)"/><path d="M60.3026 44.5746 60.3026 41.8128C60.3026 41.3845 60.2126 41.0737 60.0321 40.8804 59.8522 40.6846 59.5728 40.5866 59.1941 40.5866 58.6849 40.5866 58.3111 40.7159 58.0733 40.9745 57.8385 41.2304 57.7208 41.6469 57.7208 42.2241L57.7208 44.5746 57.3332 44.5746 57.3332 40.3163 57.662 40.3163 57.7367 40.9 57.7599 40.9C58.0368 40.4561 58.5292 40.2341 59.2371 40.2341 60.2032 40.2341 60.6867 40.7524 60.6867 41.7893L60.6867 44.5746Z" fill="#565656" transform="matrix(1 0 0 1.00281 217.49 87.2435)"/><path d="M63.5814 44.6529C63.0227 44.6529 62.5891 44.4675 62.2811 44.0967 61.9726 43.7258 61.8184 43.1904 61.8184 42.4905 61.8184 41.7723 61.9726 41.2173 62.2811 40.8256 62.5891 40.4312 63.0306 40.2341 63.6051 40.2341 64.2211 40.2341 64.6824 40.4612 64.9879 40.9157L65.0112 40.9157 65.0819 40.3163 65.4111 40.3163 65.4111 46.5019 65.027 46.5019 65.027 44.8801C65.027 44.5615 65.0349 44.2377 65.0502 43.9086L65.027 43.9086C64.719 44.4048 64.2369 44.6529 63.5814 44.6529ZM63.5893 44.3082C64.1064 44.3082 64.4747 44.1658 64.6938 43.8812 64.9157 43.5965 65.027 43.1186 65.027 42.4474L65.027 42.4004C65.027 41.7606 64.9157 41.2983 64.6938 41.0136 64.4718 40.729 64.1183 40.5866 63.6323 40.5866 63.1725 40.5866 62.823 40.7485 62.5827 41.0724 62.3449 41.3962 62.2262 41.8716 62.2262 42.4983 62.2262 43.0964 62.3424 43.5482 62.5748 43.8538 62.8096 44.1567 63.1478 44.3082 63.5893 44.3082Z" fill="#565656" transform="matrix(1 0 0 1.00281 217.49 87.2435)"/><path d="M67.1815 40.3163 67.1815 43.0742C67.1815 43.5025 67.2715 43.8146 67.452 44.0104 67.6319 44.2037 67.9118 44.3004 68.29 44.3004 68.7967 44.3004 69.169 44.1724 69.4068 43.9165 69.6471 43.6605 69.7672 43.2439 69.7672 42.6668L69.7672 40.3163 70.1509 40.3163 70.1509 44.5746 69.8221 44.5746 69.7514 43.987 69.7277 43.987C69.4513 44.4309 68.9589 44.6529 68.2509 44.6529 67.2819 44.6529 66.7979 44.1345 66.7979 43.0977L66.7979 40.3163Z" fill="#565656" transform="matrix(1 0 0 1.00281 217.49 87.2435)"/><path d="M71.9648 44.5746 71.5767 44.5746 71.5767 40.3163 71.9648 40.3163ZM71.5223 39.1333C71.5223 38.8826 71.6044 38.7572 71.769 38.7572 71.8501 38.7572 71.9124 38.7899 71.9569 38.8551 72.0039 38.9204 72.0276 39.0131 72.0276 39.1333 72.0276 39.2508 72.0039 39.3435 71.9569 39.4114 71.9124 39.4793 71.8501 39.5132 71.769 39.5132 71.6044 39.5132 71.5223 39.3866 71.5223 39.1333Z" fill="#565656" transform="matrix(1 0 0 1.00281 217.49 87.2435)"/><path d="M76.0351 43.4659C76.0351 43.8472 75.8903 44.1411 75.6001 44.3474 75.3103 44.5511 74.899 44.6529 74.3661 44.6529 73.797 44.6529 73.3451 44.5654 73.0109 44.3904L73.0109 43.9713C73.4391 44.1855 73.8909 44.2925 74.3661 44.2925 74.7868 44.2925 75.1052 44.2233 75.3222 44.0849 75.5412 43.9438 75.651 43.7571 75.651 43.5247 75.651 43.3105 75.5635 43.1303 75.3885 42.9841 75.2164 42.8378 74.9316 42.6942 74.5346 42.5532 74.109 42.3991 73.8099 42.2672 73.6373 42.1575 73.4653 42.0452 73.3347 41.9199 73.2458 41.7814 73.1597 41.6404 73.1167 41.4694 73.1167 41.2682 73.1167 40.9497 73.2497 40.6976 73.5162 40.5122 73.7851 40.3268 74.1599 40.2341 74.6404 40.2341 75.1002 40.2341 75.5363 40.3202 75.9486 40.4926L75.8037 40.8452C75.386 40.6728 74.9984 40.5866 74.6404 40.5866 74.2929 40.5866 74.0175 40.6441 73.8138 40.759 73.6101 40.8739 73.5083 41.0332 73.5083 41.2369 73.5083 41.4589 73.5864 41.6365 73.7431 41.7697 73.9028 41.9029 74.2123 42.0518 74.6716 42.2163 75.0557 42.3547 75.3351 42.48 75.5101 42.5924 75.6851 42.702 75.8156 42.8274 75.9016 42.9684 75.9906 43.1095 76.0351 43.2753 76.0351 43.4659Z" fill="#565656" transform="matrix(1 0 0 1.00281 217.49 87.2435)"/><path d="M78.8596 44.6529C78.2406 44.6529 77.7571 44.4623 77.41 44.081 77.0654 43.6997 76.8929 43.1656 76.8929 42.4788 76.8929 41.7997 77.06 41.2565 77.3942 40.8491 77.7284 40.439 78.1793 40.2341 78.7459 40.2341 79.2472 40.2341 79.6427 40.409 79.9329 40.759 80.2226 41.1089 80.3675 41.5843 80.3675 42.1849L80.3675 42.4983 77.3003 42.4983C77.3057 43.0834 77.4412 43.5299 77.7076 43.8381 77.9766 44.1463 78.3607 44.3004 78.8596 44.3004 79.1023 44.3004 79.3149 44.2834 79.4978 44.2494 79.6832 44.2155 79.9171 44.1423 80.1994 44.0301L80.1994 44.3826C79.9591 44.4871 79.7371 44.5576 79.5334 44.5942 79.3298 44.6333 79.1048 44.6529 78.8596 44.6529ZM78.7459 40.5788C78.336 40.5788 78.0068 40.7146 77.7586 40.9862 77.5104 41.2552 77.3655 41.6443 77.324 42.1536L79.9562 42.1536C79.9562 41.66 79.8494 41.2748 79.6353 40.998 79.4207 40.7185 79.1246 40.5788 78.7459 40.5788Z" fill="#565656" transform="matrix(1 0 0 1.00281 217.49 87.2435)"/></g></g></g></g></svg>