<?xml version="1.0" encoding="UTF-8" standalone="no"?>
<svg
   width="858"
   height="274"
   overflow="hidden"
   version="1.1"
   id="svg193"
   sodipodi:docname="K8S_o_BB_o_BM.svg"
   inkscape:version="1.1.2 (b8e25be833, 2022-02-05)"
   xmlns:inkscape="http://www.inkscape.org/namespaces/inkscape"
   xmlns:sodipodi="http://sodipodi.sourceforge.net/DTD/sodipodi-0.dtd"
   xmlns="http://www.w3.org/2000/svg"
   xmlns:svg="http://www.w3.org/2000/svg">
  <sodipodi:namedview
     id="namedview195"
     pagecolor="#ffffff"
     bordercolor="#666666"
     borderopacity="1.0"
     inkscape:pageshadow="2"
     inkscape:pageopacity="0.0"
     inkscape:pagecheckerboard="0"
     showgrid="false"
     inkscape:zoom="1.6911422"
     inkscape:cx="429"
     inkscape:cy="137.18539"
     inkscape:window-width="1920"
     inkscape:window-height="986"
     inkscape:window-x="-11"
     inkscape:window-y="-11"
     inkscape:window-maximized="1"
     inkscape:current-layer="svg193" />
  <defs
     id="defs23">
    <clipPath
       id="clip0">
      <rect
         x="248"
         y="251"
         width="858"
         height="274"
         id="rect2" />
    </clipPath>
    <clipPath
       id="clip1">
      <rect
         x="541"
         y="377"
         width="60"
         height="67"
         id="rect5" />
    </clipPath>
    <clipPath
       id="clip2">
      <rect
         x="541"
         y="377"
         width="60"
         height="67"
         id="rect8" />
    </clipPath>
    <clipPath
       id="clip3">
      <rect
         x="541"
         y="377"
         width="60"
         height="67"
         id="rect11" />
    </clipPath>
    <clipPath
       id="clip4">
      <rect
         x="522"
         y="266"
         width="311"
         height="55"
         id="rect14" />
    </clipPath>
    <clipPath
       id="clip5">
      <rect
         x="522"
         y="266"
         width="311"
         height="55"
         id="rect17" />
    </clipPath>
    <clipPath
       id="clip6">
      <rect
         x="522"
         y="266"
         width="311"
         height="55"
         id="rect20" />
    </clipPath>
  </defs>
  <g
     clip-path="url(#clip0)"
     transform="translate(-248 -251)"
     id="g191">
    <path
       id="rect25"
       style="fill:#404040"
       d="m 250,485 h 235 v 40 H 250 Z" />
    <path
       id="rect27"
       style="fill:#7f7f7f"
       d="m 258,490 h 35 v 8 h -35 z" />
    <path
       id="rect29"
       style="fill:#7f7f7f"
       d="m 258,501 h 35 v 8 h -35 z" />
    <path
       id="rect31"
       style="fill:#7f7f7f"
       d="m 258,511 h 35 v 8 h -35 z" />
    <path
       d="M289 492C289 491.448 289.672 491 290.5 491 291.328 491 292 491.448 292 492 292 492.552 291.328 493 290.5 493 289.672 493 289 492.552 289 492Z"
       fill="#00A1DA"
       fill-rule="evenodd"
       id="path33" />
    <path
       d="M474 492C474 490.343 475.343 489 477 489 478.657 489 480 490.343 480 492 480 493.657 478.657 495 477 495 475.343 495 474 493.657 474 492Z"
       fill="#FFC000"
       fill-rule="evenodd"
       id="path35" />
    <path
       d="M462 492C462 490.343 463.343 489 465 489 466.657 489 468 490.343 468 492 468 493.657 466.657 495 465 495 463.343 495 462 493.657 462 492Z"
       fill="#92D050"
       fill-rule="evenodd"
       id="path37" />
    <g
       id="rect39">
      <path
         style="color:#000000;fill:#9966ff;stroke-width:1.33333;stroke-miterlimit:8;-inkscape-stroke:none"
         d="m 258.5,490.5 h 6 v 8 h -6 z"
         id="path287" />
      <path
         style="color:#000000;fill:#404040;stroke-miterlimit:8;-inkscape-stroke:none"
         d="m 257.83398,489.83398 v 0.66602 8.66602 h 7.33204 v -9.33204 z m 1.33204,1.33204 h 4.66796 v 6.66796 h -4.66796 z"
         id="path289" />
    </g>
    <g
       id="rect41">
      <path
         style="color:#000000;fill:#9966ff;stroke-width:1.33333;stroke-miterlimit:8;-inkscape-stroke:none"
         d="m 258.5,500.5 h 6 v 9 h -6 z"
         id="path293" />
      <path
         style="color:#000000;fill:#404040;stroke-miterlimit:8;-inkscape-stroke:none"
         d="m 257.83398,499.83398 v 0.66602 9.66602 h 7.33204 v -10.33204 z m 1.33204,1.33204 h 4.66796 v 7.66796 h -4.66796 z"
         id="path295" />
    </g>
    <g
       id="rect43">
      <path
         style="color:#000000;fill:#9966ff;stroke-width:1.33333;stroke-miterlimit:8;-inkscape-stroke:none"
         d="m 258.5,511.5 h 6 v 8 h -6 z"
         id="path299" />
      <path
         style="color:#000000;fill:#404040;stroke-miterlimit:8;-inkscape-stroke:none"
         d="m 257.83398,510.83398 v 0.66602 8.66602 h 7.33204 v -9.33204 z m 1.33204,1.33204 h 4.66796 v 6.66796 h -4.66796 z"
         id="path301" />
    </g>
    <path
       d="M289 503C289 502.448 289.672 502 290.5 502 291.328 502 292 502.448 292 503 292 503.552 291.328 504 290.5 504 289.672 504 289 503.552 289 503Z"
       fill="#00A1DA"
       fill-rule="evenodd"
       id="path45" />
    <path
       d="M290 513.5C290 512.672 290.448 512 291 512 291.552 512 292 512.672 292 513.5 292 514.328 291.552 515 291 515 290.448 515 290 514.328 290 513.5Z"
       fill="#00A1DA"
       fill-rule="evenodd"
       id="path47" />
    <path
       id="rect49"
       style="fill:#404040"
       d="m 560,485 h 235 v 40 H 560 Z" />
    <path
       id="rect51"
       style="fill:#7f7f7f"
       d="m 567,490 h 36 v 8 h -36 z" />
    <path
       id="rect53"
       style="fill:#7f7f7f"
       d="m 567,501 h 36 v 8 h -36 z" />
    <path
       id="rect55"
       style="fill:#7f7f7f"
       d="m 567,511 h 36 v 8 h -36 z" />
    <path
       d="M599 492C599 491.448 599.448 491 600 491 600.552 491 601 491.448 601 492 601 492.552 600.552 493 600 493 599.448 493 599 492.552 599 492Z"
       fill="#00A1DA"
       fill-rule="evenodd"
       id="path57" />
    <path
       d="M783 492C783 490.343 784.343 489 786 489 787.657 489 789 490.343 789 492 789 493.657 787.657 495 786 495 784.343 495 783 493.657 783 492Z"
       fill="#FFC000"
       fill-rule="evenodd"
       id="path59" />
    <path
       d="M772 492C772 490.343 773.343 489 775 489 776.657 489 778 490.343 778 492 778 493.657 776.657 495 775 495 773.343 495 772 493.657 772 492Z"
       fill="#92D050"
       fill-rule="evenodd"
       id="path61" />
    <g
       id="rect63">
      <path
         style="color:#000000;fill:#9966ff;stroke-width:1.33333;stroke-miterlimit:8;-inkscape-stroke:none"
         d="m 567.5,490.5 h 6 v 8 h -6 z"
         id="path323" />
      <path
         style="color:#000000;fill:#404040;stroke-miterlimit:8;-inkscape-stroke:none"
         d="m 566.83398,489.83398 v 0.66602 8.66602 h 7.33204 v -9.33204 z m 1.33204,1.33204 h 4.66796 v 6.66796 h -4.66796 z"
         id="path325" />
    </g>
    <g
       id="rect65">
      <path
         style="color:#000000;fill:#9966ff;stroke-width:1.33333;stroke-miterlimit:8;-inkscape-stroke:none"
         d="m 567.5,500.5 h 6 v 9 h -6 z"
         id="path329" />
      <path
         style="color:#000000;fill:#404040;stroke-miterlimit:8;-inkscape-stroke:none"
         d="m 566.83398,499.83398 v 0.66602 9.66602 h 7.33204 v -10.33204 z m 1.33204,1.33204 h 4.66796 v 7.66796 h -4.66796 z"
         id="path331" />
    </g>
    <g
       id="rect67">
      <path
         style="color:#000000;fill:#9966ff;stroke-width:1.33333;stroke-miterlimit:8;-inkscape-stroke:none"
         d="m 567.5,511.5 h 6 v 8 h -6 z"
         id="path335" />
      <path
         style="color:#000000;fill:#404040;stroke-miterlimit:8;-inkscape-stroke:none"
         d="m 566.83398,510.83398 v 0.66602 8.66602 h 7.33204 v -9.33204 z m 1.33204,1.33204 h 4.66796 v 6.66796 h -4.66796 z"
         id="path337" />
    </g>
    <path
       d="M599 503C599 502.448 599.448 502 600 502 600.552 502 601 502.448 601 503 601 503.552 600.552 504 600 504 599.448 504 599 503.552 599 503Z"
       fill="#00A1DA"
       fill-rule="evenodd"
       id="path69" />
    <path
       d="M599 513.5C599 512.672 599.448 512 600 512 600.552 512 601 512.672 601 513.5 601 514.328 600.552 515 600 515 599.448 515 599 514.328 599 513.5Z"
       fill="#00A1DA"
       fill-rule="evenodd"
       id="path71" />
    <path
       id="rect73"
       style="fill:#404040"
       d="m 869,484 h 235 v 40 H 869 Z" />
    <path
       id="rect75"
       style="fill:#7f7f7f"
       d="m 877,489 h 36 v 9 h -36 z" />
    <path
       id="rect77"
       style="fill:#7f7f7f"
       d="m 877,500 h 36 v 8 h -36 z" />
    <path
       id="rect79"
       style="fill:#7f7f7f"
       d="m 877,511 h 36 v 8 h -36 z" />
    <path
       d="M909 492C909 491.448 909.448 491 910 491 910.552 491 911 491.448 911 492 911 492.552 910.552 493 910 493 909.448 493 909 492.552 909 492Z"
       fill="#00A1DA"
       fill-rule="evenodd"
       id="path81" />
    <path
       d="M1093 492C1093 490.343 1094.34 489 1096 489 1097.66 489 1099 490.343 1099 492 1099 493.657 1097.66 495 1096 495 1094.34 495 1093 493.657 1093 492Z"
       fill="#FFC000"
       fill-rule="evenodd"
       id="path83" />
    <path
       d="M1082 492C1082 490.343 1083.12 489 1084.5 489 1085.88 489 1087 490.343 1087 492 1087 493.657 1085.88 495 1084.5 495 1083.12 495 1082 493.657 1082 492Z"
       fill="#92D050"
       fill-rule="evenodd"
       id="path85" />
    <g
       id="rect87">
      <path
         style="color:#000000;fill:#9966ff;stroke-width:1.33333;stroke-miterlimit:8;-inkscape-stroke:none"
         d="m 877.5,489.5 h 6 v 8 h -6 z"
         id="path359" />
      <path
         style="color:#000000;fill:#404040;stroke-miterlimit:8;-inkscape-stroke:none"
         d="m 876.83398,488.83398 v 0.66602 8.66602 h 7.33204 v -9.33204 z m 1.33204,1.33204 h 4.66796 v 6.66796 h -4.66796 z"
         id="path361" />
    </g>
    <g
       id="rect89">
      <path
         style="color:#000000;fill:#9966ff;stroke-width:1.33333;stroke-miterlimit:8;-inkscape-stroke:none"
         d="m 877.5,500.5 h 6 v 8 h -6 z"
         id="path365" />
      <path
         style="color:#000000;fill:#404040;stroke-miterlimit:8;-inkscape-stroke:none"
         d="m 876.83398,499.83398 v 0.66602 8.66602 h 7.33204 v -9.33204 z m 1.33204,1.33204 h 4.66796 v 6.66796 h -4.66796 z"
         id="path367" />
    </g>
    <g
       id="rect91">
      <path
         style="color:#000000;fill:#9966ff;stroke-width:1.33333;stroke-miterlimit:8;-inkscape-stroke:none"
         d="m 877.5,511.5 h 6 v 8 h -6 z"
         id="path371" />
      <path
         style="color:#000000;fill:#404040;stroke-miterlimit:8;-inkscape-stroke:none"
         d="m 876.83398,510.83398 v 0.66602 8.66602 h 7.33204 v -9.33204 z m 1.33204,1.33204 h 4.66796 v 6.66796 h -4.66796 z"
         id="path373" />
    </g>
    <path
       d="M909 502.5C909 501.672 909.448 501 910 501 910.552 501 911 501.672 911 502.5 911 503.328 910.552 504 910 504 909.448 504 909 503.328 909 502.5Z"
       fill="#00A1DA"
       fill-rule="evenodd"
       id="path93" />
    <path
       d="M909 513C909 512.448 909.448 512 910 512 910.552 512 911 512.448 911 513 911 513.552 910.552 514 910 514 909.448 514 909 513.552 909 513Z"
       fill="#00A1DA"
       fill-rule="evenodd"
       id="path95" />
    <path
       style="color:#000000;fill:#262626;stroke-miterlimit:8;-inkscape-stroke:none"
       d="m 249,368 v 1 83 h 856 v -84 z m 2,2 h 852 v 80 H 251 Z"
       id="rect97" />
    <g
       aria-label="BlueBanquiseCORE"
       transform="translate(609.51 416)"
       id="text101"
       style="font-weight:300;font-size:24px;font-family:'Segoe UI Light', 'Segoe UI Light_MSFontService', sans-serif">
      <path
         d="m 2.15625,0 v -16.804687 h 4.4179687 q 1.9804688,0 3.1523438,1.066406 1.1718755,1.066406 1.1718755,2.824218 0,1.464844 -0.785157,2.542969 -0.7734372,1.0664065 -2.1679685,1.511719 V -8.8125 q 1.7460938,0.1640625 2.7539065,1.2539063 1.007812,1.078125 1.007812,2.7539062 0,2.1210937 -1.371093,3.46875 Q 8.9648438,0 6.6679687,0 Z m 1.1601563,-15.738281 v 6.503906 h 2.3437499 q 1.828125,0 2.9296876,-0.9375 1.1015625,-0.9375 1.1015625,-2.542969 0,-3.023437 -3.5742188,-3.023437 z m 0,7.5585935 v 7.125 h 3.1171874 q 1.9804688,0 3.0234376,-0.9492188 1.0546877,-0.9492187 1.0546877,-2.6953124 0,-3.4804688 -4.7226565,-3.4804688 z"
         id="path219" />
      <path
         d="m 14.976563,0 v -17.765625 h 1.078124 V 0 Z"
         id="path221" />
      <path
         d="m 27.820312,0 v -2.1796875 h -0.04687 q -1.253906,2.47265625 -3.867187,2.47265625 -4.253906,0 -4.253906,-5.35546875 V -12 h 1.089843 v 6.6679688 q 0,2.4374999 0.796875,3.5390625 0.808594,1.10156245 2.53125,1.10156245 1.675782,0 2.707032,-1.23046875 1.042968,-1.2304688 1.042968,-3.28125 V -12 h 1.078125 V 0 Z"
         id="path223" />
      <path
         d="m 33,-5.953125 q 0,2.4726562 1.136719,3.8671875 1.148437,1.39453125 3.140625,1.39453125 2.015625,0 3.9375,-1.48828125 V -1.03125 q -1.863282,1.32421875 -4.160157,1.32421875 -2.320312,0 -3.75,-1.66406245 Q 31.875,-3.0351563 31.875,-6.0703125 q 0,-2.625 1.488281,-4.4179685 1.5,-1.804688 3.890625,-1.804688 2.238281,0 3.433594,1.570313 1.195312,1.5703122 1.195312,4.2890623 V -5.953125 Z M 40.757812,-6.9375 q -0.07031,-2.0742188 -0.996093,-3.222656 -0.925782,-1.148438 -2.554688,-1.148438 -1.6875,0 -2.800781,1.136719 -1.101563,1.125 -1.359375,3.234375 z"
         id="path225" />
      <path
         d="m 45.09375,0 v -16.804687 h 4.417969 q 1.980468,0 3.152343,1.066406 1.171875,1.066406 1.171875,2.824218 0,1.464844 -0.785156,2.542969 -0.773437,1.0664065 -2.167969,1.511719 V -8.8125 q 1.746094,0.1640625 2.753907,1.2539063 1.007812,1.078125 1.007812,2.7539062 0,2.1210937 -1.371094,3.46875 Q 51.902344,0 49.605469,0 Z m 1.160156,-15.738281 v 6.503906 h 2.34375 q 1.828125,0 2.929688,-0.9375 1.101562,-0.9375 1.101562,-2.542969 0,-3.023437 -3.574219,-3.023437 z m 0,7.5585935 v 7.125 h 3.117188 q 1.980468,0 3.023437,-0.9492188 1.054688,-0.9492187 1.054688,-2.6953124 0,-3.4804688 -4.722657,-3.4804688 z"
         id="path227" />
      <path
         d="m 65.085937,0 v -2.4023438 h -0.04687 q -0.574218,1.2304688 -1.675781,1.96875005 -1.089844,0.7265625 -2.425781,0.7265625 -1.710938,0 -2.707031,-0.9609375 -0.996094,-0.96093745 -0.996094,-2.42578125 0,-3.140625 4.160156,-3.796875 l 3.691406,-0.5507812 q 0,-3.8671878 -2.90625,-3.8671878 -1.980468,0 -3.855468,1.5937502 v -1.3007812 q 0.667968,-0.527344 1.804687,-0.902344 1.148438,-0.375 2.15625,-0.375 1.851563,0 2.859375,1.148438 1.019531,1.1484372 1.019531,3.3398435 V 0 Z M 61.78125,-5.9765625 Q 59.894531,-5.7070312 59.132812,-5.0976562 58.371094,-4.5 58.371094,-3.140625 q 0,1.0664062 0.703125,1.7578125 0.714843,0.69140625 1.980468,0.69140625 1.734375,0 2.882813,-1.27734375 1.148437,-1.2890625 1.148437,-3.3164062 v -1.171875 z"
         id="path229" />
      <path
         d="m 77.929687,0 v -6.984375 q 0,-4.324219 -3.117187,-4.324219 -1.734375,0 -2.847656,1.277344 -1.113282,1.265625 -1.113282,3.140625 V 0 h -1.078125 v -12 h 1.078125 v 2.1796875 h 0.04687 Q 72.210937,-12.292969 75,-12.292969 q 1.945312,0 2.976562,1.300781 1.03125,1.289063 1.03125,3.6914068 V 0 Z"
         id="path231" />
      <path
         d="M 91.136719,5.5195312 V -2.203125 h -0.04687 q -1.335938,2.49609375 -4.347657,2.49609375 -2.25,0 -3.621093,-1.65234375 Q 81.75,-3.0117188 81.75,-5.8125 q 0,-2.9882813 1.558594,-4.734375 1.558593,-1.746094 3.960937,-1.746094 2.683594,0 3.820313,2.238281 h 0.04687 V -12 h 1.078125 V 5.5195312 Z m 0,-12.7148437 q 0,-1.7929688 -1.042969,-2.9531255 -1.042969,-1.160156 -2.894531,-1.160156 -1.863282,0 -3.09375,1.4414065 Q 82.875,-8.4375 82.875,-5.859375 q 0,2.4140625 1.089844,3.796875 1.101562,1.37109375 2.847656,1.37109375 2.097656,0 3.210937,-1.28906245 1.113282,-1.2890626 1.113282,-3.1523438 z"
         id="path233" />
      <path
         d="m 103.98047,0 v -2.1796875 h -0.0469 q -1.2539,2.47265625 -3.86718,2.47265625 -4.25391,0 -4.25391,-5.35546875 V -12 h 1.089844 v 6.6679688 q 0,2.4374999 0.796875,3.5390625 0.808593,1.10156245 2.531251,1.10156245 1.67578,0 2.70703,-1.23046875 1.04297,-1.2304688 1.04297,-3.28125 V -12 h 1.07812 V 0 Z"
         id="path235" />
      <path
         d="m 109.42969,-15.023438 q -0.35156,0 -0.6211,-0.257812 -0.26953,-0.257813 -0.26953,-0.65625 0,-0.386719 0.26953,-0.621094 0.28125,-0.246093 0.6211,-0.246093 0.36328,0 0.63281,0.234375 0.28125,0.234375 0.28125,0.632812 0,0.375 -0.26953,0.644531 -0.26953,0.269531 -0.64453,0.269531 z M 108.90234,0 v -12 h 1.07813 V 0 Z"
         id="path237" />
      <path
         d="M 113.20313,-0.52734375 V -1.828125 q 0.60937,0.5273438 1.47656,0.83203125 0.86719,0.3046875 1.5,0.3046875 2.82422,0 2.82422,-2.30859375 0,-0.796875 -0.6211,-1.359375 -0.62109,-0.5625 -2.01562,-1.1601562 -1.72266,-0.75 -2.42578,-1.546875 Q 113.25,-7.875 113.25,-9.0234375 q 0,-1.4648435 1.11328,-2.3671875 1.125,-0.902344 2.76563,-0.902344 1.54687,0 2.64843,0.632813 v 1.21875 q -1.33593,-0.867188 -2.76562,-0.867188 -1.18359,0 -1.91016,0.621094 -0.72656,0.609375 -0.72656,1.59375 0,0.8554687 0.45703,1.3945313 0.45703,0.5273437 2.01563,1.21875 1.875,0.84375 2.57812,1.5703125 0.70313,0.7148437 0.70313,1.9101562 0,1.4296875 -1.07813,2.3671875 -1.0664,0.92578125 -2.95312,0.92578125 -1.73438,0 -2.89453,-0.8203125 z"
         id="path239" />
      <path
         d="m 123.39844,-5.953125 q 0,2.4726562 1.13672,3.8671875 1.14843,1.39453125 3.14062,1.39453125 2.01563,0 3.9375,-1.48828125 V -1.03125 q -1.86328,1.32421875 -4.16015,1.32421875 -2.32032,0 -3.75,-1.66406245 -1.42969,-1.6640626 -1.42969,-4.6992188 0,-2.625 1.48828,-4.4179685 1.5,-1.804688 3.89062,-1.804688 2.23828,0 3.4336,1.570313 1.19531,1.5703122 1.19531,4.2890623 v 0.4804687 z m 7.75781,-0.984375 q -0.0703,-2.0742188 -0.99609,-3.222656 -0.92579,-1.148438 -2.55469,-1.148438 -1.6875,0 -2.80078,1.136719 -1.10156,1.125 -1.35938,3.234375 z"
         id="path241" />
      <path
         d="m 153.32422,-0.55078125 q -2.03906,0.84375 -4.25391,0.84375 -3.44531,0 -5.625,-2.30859375 -2.16797,-2.3203125 -2.16797,-6.046875 0,-4.089844 2.35547,-6.550781 2.35547,-2.472656 5.98828,-2.472656 1.9336,0 3.70313,0.621093 v 1.230469 q -1.76953,-0.796875 -3.72656,-0.796875 -3.16407,0 -5.14454,2.144531 -1.98046,2.144531 -1.98046,5.7070315 0,3.4335938 1.88671,5.4257812 1.89844,1.9804688 4.80469,1.9804688 2.32031,0 4.16016,-0.9023437 z"
         id="path243" />
      <path
         d="m 163.49609,0.29296875 q -3.5625,0 -5.68359,-2.36718755 -2.10938,-2.3671874 -2.10938,-6.1523437 0,-4.0195315 2.16797,-6.4335935 2.17969,-2.425781 5.94141,-2.425781 3.39844,0 5.49609,2.332031 2.10938,2.320312 2.10938,6.0937497 0,4.1718751 -2.15625,6.5625 -2.15625,2.39062505 -5.76563,2.39062505 z M 163.61328,-16.03125 q -2.92969,0 -4.82812,2.121094 -1.88672,2.121093 -1.88672,5.5546872 0,3.4687501 1.79297,5.53125 1.79296,2.0507813 4.78125,2.0507813 3.11718,0 4.93359,-2.0273438 1.81641,-2.0390624 1.81641,-5.671875 0,-3.5624997 -1.78125,-5.5546877 -1.76954,-2.003906 -4.82813,-2.003906 z"
         id="path245" />
      <path
         d="m 183.45312,0 -2.23828,-4.921875 q -0.6914,-1.5234375 -1.38281,-2.0390625 -0.69141,-0.5273437 -1.73437,-0.5273437 h -2.08594 V 0 h -1.16016 v -16.804687 h 4.66406 q 2.22657,0 3.49219,1.207031 1.27735,1.195312 1.27735,3.164062 0,1.816406 -1.04297,3.0351565 -1.04297,1.21875 -2.91797,1.5703125 v 0.046875 q 0.99609,0.3984375 1.94531,2.4257813 L 184.76562,0 Z m -7.4414,-15.738281 v 7.1953122 h 2.89453 q 1.92187,0 3.04687,-1.0078125 1.13672,-1.0078127 1.13672,-2.7656247 0,-1.605469 -1.01953,-2.507813 -1.01953,-0.914062 -2.91797,-0.914062 z"
         id="path247" />
      <path
         d="m 188.17578,0 v -16.804687 h 7.85156 v 1.066406 h -6.6914 V -9 h 6.21093 v 1.0546875 h -6.21093 v 6.890625 h 7.07812 V 0 Z"
         id="path249" />
    </g>
    <path
       style="color:#000000;fill:#262626;stroke-miterlimit:8;-inkscape-stroke:none"
       d="m 249,251 v 1 84 h 856 v -85 z m 2,2 h 852 v 81 H 251 Z"
       id="rect103" />
    <g
       clip-path="url(#clip1)"
       id="g173">
      <g
         clip-path="url(#clip2)"
         id="g171">
        <g
           clip-path="url(#clip3)"
           id="g169">
          <path
             d="M57.8212 32.6434C57.4845 32.1056 57.1399 31.5491 57.0554 31.4068L56.9021 31.1481 57.1879 30.9332C57.3451 30.815 57.4934 30.7418 57.5176 30.7706 57.5775 30.8417 58.4832 33.5771 58.4555 33.6017 58.4431 33.6125 58.1579 33.1813 57.8212 32.6434Z"
             fill="#108BDE"
             fill-opacity="0.3"
             transform="matrix(1 0 0 1.00281 519.49 354.243)"
             id="path105" />
          <path
             d="M49.6795 31.0286C48.7683 30.4796 48.0221 30.0104 48.0213 29.9858 48.0205 29.9613 48.7528 28.552 49.6489 26.8541L51.2779 23.767 51.314 25.1089C51.3921 28.0329 51.4341 32.0339 51.3867 32.0304 51.3585 32.0283 50.5907 31.5776 49.6795 31.0286Z"
             fill="#108BDE"
             fill-opacity="0.3"
             transform="matrix(1 0 0 1.00281 519.49 354.243)"
             id="path107" />
          <path
             d="M46.1339 31.9954C45.0331 30.7842 44.7639 30.4539 44.8289 30.3944 44.9748 30.2607 46.7425 29.2736 46.7759 29.3072 46.8248 29.3562 47.5582 33.323 47.5381 33.4293 47.5284 33.4801 46.8988 32.8372 46.1339 31.9954Z"
             fill="#108BDE"
             fill-opacity="0.3"
             transform="matrix(1 0 0 1.00281 519.49 354.243)"
             id="path109" />
          <path
             d="M39.884 33.1034C38.3947 32.2008 37.1868 31.4399 37.1997 31.4125 37.2377 31.332 41.5528 27.38 41.603 27.38 41.6282 27.38 41.7035 28.5934 41.911 29.9358 42.1185 31.2781 42.3713 32.9106 42.4727 33.5635 42.5742 34.2163 42.6425 34.7492 42.6245 34.7476 42.6065 34.746 41.3733 34.0061 39.884 33.1034Z"
             fill="#108BDE"
             fill-opacity="0.3"
             transform="matrix(1 0 0 1.00281 519.49 354.243)"
             id="path111" />
          <path
             d="M33.4823 34.5225C32.7908 34.2533 32.1752 34.012 32.1141 33.9863 32.0219 33.9475 32.3002 33.6774 33.7604 32.3885 34.727 31.5353 35.5239 30.8429 35.5314 30.8497 35.5421 30.8594 34.8184 34.679 34.7556 34.9441 34.7456 34.9863 34.2635 34.8266 33.4823 34.5225Z"
             fill="#108BDE"
             fill-opacity="0.3"
             transform="matrix(1 0 0 1.00281 519.49 354.243)"
             id="path113" />
          <path
             d="M48.929 82.1384C48.9043 82.0613 48.4987 80.3907 48.0276 78.4255L47.171 74.8525 48.3966 69.2446C49.0707 66.1601 49.6252 63.6407 49.6286 63.6456 49.6331 63.6501 49.4946 67.6062 49.3222 72.4355 49.15 77.2642 49.0011 81.4547 48.9914 81.7468 48.9798 82.0969 48.9586 82.2304 48.929 82.1384Z"
             fill="#108BDE"
             transform="matrix(1 0 0 1.00281 519.49 354.243)"
             id="path115" />
          <path
             d="M41.3917 71.0729 40.8452 69.8938 41.1207 68.5629C41.2722 67.8307 41.5223 66.6501 41.6764 65.9391L41.9566 64.6463 41.964 68.4492C41.968 70.5404 41.9639 72.2515 41.9548 72.2515 41.9457 72.2515 41.6923 71.7211 41.3917 71.0729Z"
             fill="#108BDE"
             transform="matrix(1 0 0 1.00281 519.49 354.243)"
             id="path117" />
          <path
             d="M42.041 80.7679C41.003 76.5547 40.1367 73.0688 40.116 73.0213 40.0844 72.9491 40.5521 70.2389 40.6416 69.9753 40.6575 69.9284 40.9265 70.5103 41.2394 71.2687 41.5523 72.0271 41.8349 72.693 41.8675 72.7484 41.9551 72.8967 42.2345 72.8794 42.3288 72.7192 42.3707 72.6485 42.612 71.814 42.8649 70.8653 43.3063 69.21 43.3254 69.1547 43.3394 69.4854 43.4095 71.1471 43.9572 88.1443 43.9446 88.2674 43.9356 88.3564 43.079 84.9812 42.041 80.7679Z"
             fill="#108BDE"
             transform="matrix(1 0 0 1.00281 519.49 354.243)"
             id="path119" />
          <path
             d="M36.1712 77.503 34.7085 72.2115 35.7505 67.2982C36.3327 64.5529 36.7985 62.468 36.8061 62.5728 36.8463 63.1305 37.846 82.9027 37.8332 83.0006 37.8248 83.0644 36.9756 80.4135 36.1712 77.503Z"
             fill="#108BDE"
             transform="matrix(1 0 0 1.00281 519.49 354.243)"
             id="path121" />
          <path
             style="color:#000000;fill:#141414;stroke-linejoin:round;-inkscape-stroke:none"
             d="m 51.337891,22.773437 a 0.1730548,0.1730548 0 0 0 -0.123047,0.169922 l 0.138672,8.939453 -4.359375,-2.861328 a 0.1730548,0.1730548 0 0 0 -0.265625,0.175782 l 0.757812,4.035156 -5.671875,-6.210938 a 0.1730548,0.1730548 0 0 0 -0.298828,0.142578 l 1.103516,7.447266 -6.777344,-4.289062 A 0.1730548,0.1730548 0 0 0 35.580078,30.4375 L 34.75,34.863281 28.865234,32.480469 a 0.1730548,0.1730548 0 0 0 -0.167968,0.02148 l -6.949219,5.068359 a 0.1730548,0.1730548 0 0 0 -0.0625,0.19336 L 33.847656,74.6875 a 0.1730548,0.1730548 0 0 0 0.333985,-0.01758 l 2.611328,-12.011719 0.955078,21.828125 a 0.1730548,0.1730548 0 0 0 0.34375,0.02539 l 3.855469,-19.808594 v 8.482422 a 0.1730548,0.1730548 0 0 0 0.339843,0.04687 l 1.003907,-3.570313 0.683593,19.601563 a 0.1730548,0.1730548 0 0 0 0.34375,0.0293 l 5.236328,-25.248047 -0.65625,19.560547 a 0.1730548,0.1730548 0 0 0 0.341797,0.04102 l 2.371094,-11.140625 -0.955078,13.06836 a 0.1730548,0.1730548 0 0 0 0.337891,0.06055 L 62.019531,46.681641 61.6875,46.587891 51.123047,83.908203 52.140625,70.011719 a 0.1730548,0.1730548 0 0 0 -0.341797,-0.04883 l -0.0039,0.02344 -2.484375,11.671875 0.658203,-19.617187 A 0.17309415,0.17309415 0 0 0 49.625,62 L 44.269531,87.816406 43.597656,68.544922 a 0.1730548,0.1730548 0 0 0 -0.339844,-0.04102 l -0.96289,3.425781 v -9.02539 a 0.1730548,0.1730548 0 0 0 -0.34375,-0.0332 L 38.029297,83.017578 37.082031,61.304687 a 0.1730548,0.1730548 0 0 0 -0.34375,-0.0293 l -2.759765,12.703125 -11.925782,-36.203125 6.771485,-4.9375 5.992187,2.425781 a 0.1730548,0.1730548 0 0 0 0.234375,-0.128906 l 0.822266,-4.382813 6.878906,4.351563 a 0.1730548,0.1730548 0 0 0 0.263672,-0.169922 l -1.074219,-7.259766 5.699219,6.242188 A 0.1730548,0.1730548 0 0 0 47.9375,33.767578 l -0.792969,-4.234375 4.292969,2.818359 a 0.1730548,0.1730548 0 0 0 0.267578,-0.146484 L 51.570312,23.542969 59.0625,35.197266 a 0.1730548,0.1730548 0 0 0 0.308594,-0.150391 l -1.310547,-3.806641 5.794922,6.583985 0.259765,-0.228516 -6.371093,-7.240234 a 0.1730548,0.1730548 0 0 0 -0.292969,0.169922 l 1.125,3.27539 -7.042969,-10.955078 a 0.1730548,0.1730548 0 0 0 -0.195312,-0.07227 z"
             id="path123"
             transform="matrix(1 0 0 1.00281 519.49 354.243)" />
          <path
             style="color:#000000;fill:#141414;stroke-linecap:round;-inkscape-stroke:none"
             d="m 35.761719,30.271484 a 0.19775701,0.19775701 0 0 0 -0.142578,0.04883 l -3.779297,3.341797 a 0.19775701,0.19775701 0 0 0 -0.01758,0.277344 0.19775701,0.19775701 0 0 0 0.279296,0.01758 l 3.779297,-3.339844 a 0.19775701,0.19775701 0 0 0 0.01758,-0.279296 0.19775701,0.19775701 0 0 0 -0.136718,-0.06641 z"
             id="path125"
             transform="matrix(1 0 0 1.00281 519.49 354.243)" />
          <path
             style="color:#000000;fill:#141414;stroke-linecap:round;-inkscape-stroke:none"
             d="m 41.691406,26.941406 a 0.19775701,0.19775701 0 0 0 -0.140625,0.05469 l -4.378906,4.162109 a 0.19775701,0.19775701 0 0 0 -0.0059,0.279297 0.19775701,0.19775701 0 0 0 0.279296,0.0078 l 4.376954,-4.162109 a 0.19775701,0.19775701 0 0 0 0.0078,-0.28125 0.19775701,0.19775701 0 0 0 -0.138672,-0.06055 z"
             id="path127"
             transform="matrix(1 0 0 1.00281 519.49 354.243)" />
          <path
             style="color:#000000;fill:#141414;stroke-linecap:round;-inkscape-stroke:none"
             d="m 46.957031,28.976562 a 0.19775701,0.19775701 0 0 0 -0.152344,0.01563 l -2.068359,1.113282 a 0.19775701,0.19775701 0 0 0 -0.08008,0.269531 0.19775701,0.19775701 0 0 0 0.267578,0.08008 l 2.068359,-1.115234 a 0.19775701,0.19775701 0 0 0 0.08203,-0.267578 0.19775701,0.19775701 0 0 0 -0.117188,-0.0957 z"
             id="path129"
             transform="matrix(1 0 0 1.00281 519.49 354.243)" />
          <path
             style="color:#000000;fill:#141414;stroke-linecap:round;-inkscape-stroke:none"
             d="m 51.474609,22.761719 a 0.19775701,0.19775701 0 0 0 -0.263672,0.0918 l -3.251953,6.75 a 0.19775701,0.19775701 0 0 0 0.09375,0.263671 0.19775701,0.19775701 0 0 0 0.263672,-0.0918 l 3.25,-6.75 a 0.19775701,0.19775701 0 0 0 -0.0918,-0.263672 z"
             id="path131"
             transform="matrix(1 0 0 1.00281 519.49 354.243)" />
          <path
             style="color:#000000;fill:#141414;-inkscape-stroke:none"
             d="m 57.464844,30.273437 -1.001953,0.759766 0.298828,0.394531 1.001953,-0.761718 z"
             id="path133"
             transform="matrix(1 0 0 1.00281 519.49 354.243)" />
          <path
             style="color:#000000;fill:#141414;stroke-linecap:round;-inkscape-stroke:none"
             d="m 34.658203,72.019531 a 0.19775701,0.19775701 0 0 0 -0.140625,0.242188 l 3.167969,11.99414 a 0.19775701,0.19775701 0 0 0 0.242187,0.140625 0.19775701,0.19775701 0 0 0 0.140625,-0.240234 L 34.900391,72.160156 a 0.19775701,0.19775701 0 0 0 -0.242188,-0.140625 z"
             id="path135"
             transform="matrix(1 0 0 1.00281 519.49 354.243)" />
          <path
             style="color:#000000;fill:#141414;stroke-linecap:round;-inkscape-stroke:none"
             d="m 40.773437,69.708984 a 0.19775701,0.19775701 0 0 0 -0.113281,0.25586 l 1.277344,3.292968 a 0.19775701,0.19775701 0 0 0 0.255859,0.111329 0.19775701,0.19775701 0 0 0 0.111328,-0.25586 l -1.27539,-3.291015 a 0.19775701,0.19775701 0 0 0 -0.25586,-0.113282 z"
             id="path137"
             transform="matrix(1 0 0 1.00281 519.49 354.243)" />
          <path
             style="color:#000000;fill:#141414;stroke-linecap:round;-inkscape-stroke:none"
             d="m 40.142578,73.177734 a 0.19775701,0.19775701 0 0 0 -0.144531,0.240235 l 3.958984,15.888672 a 0.19775701,0.19775701 0 0 0 0.238281,0.142578 0.19775701,0.19775701 0 0 0 0.144532,-0.238282 L 40.380859,73.322266 a 0.19775701,0.19775701 0 0 0 -0.238281,-0.144532 z"
             id="path139"
             transform="matrix(1 0 0 1.00281 519.49 354.243)" />
          <path
             style="color:#000000;fill:#141414;stroke-linecap:round;-inkscape-stroke:none"
             d="m 47.128906,74.660156 a 0.19775701,0.19775701 0 0 0 -0.15039,0.234375 l 1.90039,8.757813 a 0.19775701,0.19775701 0 0 0 0.234375,0.152343 0.19775701,0.19775701 0 0 0 0.152344,-0.236328 l -1.900391,-8.757812 a 0.19775701,0.19775701 0 0 0 -0.236328,-0.150391 z"
             id="path141"
             transform="matrix(1 0 0 1.00281 519.49 354.243)" />
          <path
             style="color:#000000;fill:#108bde;stroke-linecap:round;-inkscape-stroke:none"
             d="m 21.849609,37.537109 a 0.1730375,0.1730375 0 0 0 -0.173828,0.171875 0.1730375,0.1730375 0 0 0 0.173828,0.173828 l 59.326172,0.01367 a 0.1730375,0.1730375 0 0 0 0.171875,-0.173828 0.1730375,0.1730375 0 0 0 -0.171875,-0.173828 z"
             id="path143"
             transform="matrix(1 0 0 1.00281 519.49 354.243)" />
          <path
             d="M32.1715 38.8473 33.7424 38.8473C34.4502 38.8473 34.9699 38.9674 35.3015 39.2077 35.6332 39.4479 35.7991 39.811 35.7991 40.2968 35.7991 40.6284 35.6972 40.9053 35.4935 41.1272 35.2924 41.3466 34.9973 41.4877 34.6082 41.5503L34.6082 41.5738C35.0652 41.6417 35.4008 41.7867 35.6149 42.0086 35.8317 42.228 35.9401 42.5349 35.9401 42.9293 35.9401 43.4568 35.7651 43.8629 35.4151 44.1476 35.0652 44.4323 34.569 44.5746 33.9265 44.5746L32.1715 44.5746ZM32.5711 41.3975 33.8325 41.3975C34.3705 41.3975 34.7609 41.3087 35.0038 41.1311 35.2493 40.9509 35.3721 40.6702 35.3721 40.2889 35.3721 39.9076 35.2336 39.6308 34.9568 39.4584 34.6826 39.286 34.2725 39.1999 33.7267 39.1999L32.5711 39.1999ZM32.5711 41.7501 32.5711 44.222 33.9187 44.222C34.979 44.222 35.5092 43.7911 35.5092 42.9293 35.5092 42.1432 34.9503 41.7501 33.8325 41.7501Z"
             fill="#108BDE"
             transform="matrix(1 0 0 1.00281 519.49 354.243)"
             id="path145" />
          <path
             d="M37.4914 44.5746 37.1036 44.5746 37.1036 38.479 37.4914 38.479Z"
             fill="#108BDE"
             transform="matrix(1 0 0 1.00281 519.49 354.243)"
             id="path147" />
          <path
             d="M39.2581 40.3163 39.2581 43.0742C39.2581 43.5025 39.3483 43.8146 39.5284 44.0104 39.7086 44.2037 39.9881 44.3004 40.3668 44.3004 40.8734 44.3004 41.2456 44.1724 41.4833 43.9165 41.7235 43.6605 41.8437 43.2439 41.8437 42.6668L41.8437 40.3163 42.2276 40.3163 42.2276 44.5746 41.8985 44.5746 41.828 43.987 41.8045 43.987C41.5277 44.4309 41.0353 44.6529 40.3276 44.6529 39.3587 44.6529 38.8742 44.1345 38.8742 43.0977L38.8742 40.3163Z"
             fill="#108BDE"
             transform="matrix(1 0 0 1.00281 519.49 354.243)"
             id="path149" />
          <path
             d="M45.3732 44.6529C44.7543 44.6529 44.2711 44.4623 43.9238 44.081 43.5791 43.6997 43.4067 43.1656 43.4067 42.4788 43.4067 41.7997 43.5738 41.2565 43.9082 40.8491 44.2424 40.439 44.6929 40.2341 45.2596 40.2341 45.7611 40.2341 46.1567 40.409 46.4466 40.759 46.7365 41.1089 46.8815 41.5843 46.8815 42.1849L46.8815 42.4983 43.8141 42.4983C43.8194 43.0834 43.9551 43.5299 44.2215 43.8381 44.4905 44.1463 44.8744 44.3004 45.3732 44.3004 45.6161 44.3004 45.829 44.2834 46.0118 44.2494 46.1972 44.2155 46.4309 44.1423 46.713 44.0301L46.713 44.3826C46.4728 44.4871 46.2507 44.5576 46.047 44.5942 45.8434 44.6333 45.6188 44.6529 45.3732 44.6529ZM45.2596 40.5788C44.8496 40.5788 44.5206 40.7146 44.2725 40.9862 44.0243 41.2552 43.8794 41.6443 43.8376 42.1536L46.4701 42.1536C46.4701 41.66 46.3631 41.2748 46.1489 40.998 45.9348 40.7185 45.6383 40.5788 45.2596 40.5788Z"
             fill="#108BDE"
             transform="matrix(1 0 0 1.00281 519.49 354.243)"
             id="path151" />
          <path
             d="M48.1546 38.8473 49.7255 38.8473C50.4335 38.8473 50.9531 38.9674 51.2848 39.2077 51.6161 39.4479 51.7822 39.811 51.7822 40.2968 51.7822 40.6284 51.6804 40.9053 51.4767 41.1272 51.2754 41.3466 50.9803 41.4877 50.5912 41.5503L50.5912 41.5738C51.0485 41.6417 51.3837 41.7867 51.5983 42.0086 51.8148 42.228 51.9231 42.5349 51.9231 42.9293 51.9231 43.4568 51.7481 43.8629 51.3981 44.1476 51.0485 44.4323 50.5521 44.5746 49.9094 44.5746L48.1546 44.5746ZM48.5542 41.3975 49.8155 41.3975C50.3534 41.3975 50.744 41.3087 50.9867 41.1311 51.2324 40.9509 51.355 40.6702 51.355 40.2889 51.355 39.9076 51.2166 39.6308 50.9398 39.4584 50.6659 39.286 50.2555 39.1999 49.7097 39.1999L48.5542 39.1999ZM48.5542 41.7501 48.5542 44.222 49.902 44.222C50.962 44.222 51.4925 43.7911 51.4925 42.9293 51.4925 42.1432 50.9333 41.7501 49.8155 41.7501Z"
             fill="#565656"
             transform="matrix(1 0 0 1.00281 519.49 354.243)"
             id="path153" />
          <path
             d="M55.6721 44.5746 55.5742 43.9008 55.543 43.9008C55.329 44.175 55.108 44.3696 54.8811 44.4845 54.6561 44.5968 54.3896 44.6529 54.0816 44.6529 53.6639 44.6529 53.3385 44.5458 53.1062 44.3317 52.8738 44.1175 52.7576 43.8211 52.7576 43.4424 52.7576 43.0272 52.9302 42.7047 53.2748 42.4748 53.6218 42.245 54.1236 42.1235 54.7792 42.1105L55.59 42.087 55.59 41.805C55.59 41.4002 55.5074 41.0946 55.3433 40.8883 55.1787 40.6819 54.9137 40.5788 54.5478 40.5788 54.1533 40.5788 53.7449 40.6885 53.3217 40.9079L53.1769 40.571C53.6441 40.3516 54.1063 40.2419 54.5636 40.2419 55.0308 40.2419 55.3799 40.3634 55.6093 40.6062 55.8421 40.8491 55.9583 41.2278 55.9583 41.7423L55.9583 44.5746ZM54.1054 44.3004C54.5597 44.3004 54.9176 44.1711 55.1787 43.9125 55.4422 43.6514 55.5742 43.2897 55.5742 42.8274L55.5742 42.4082 54.8301 42.4396C54.2319 42.4683 53.8048 42.5623 53.5492 42.7216 53.2955 42.8783 53.169 43.1238 53.169 43.4581 53.169 43.7245 53.25 43.9321 53.4117 44.081 53.5763 44.2272 53.8077 44.3004 54.1054 44.3004Z"
             fill="#565656"
             transform="matrix(1 0 0 1.00281 519.49 354.243)"
             id="path155" />
          <path
             d="M60.3026 44.5746 60.3026 41.8128C60.3026 41.3845 60.2126 41.0737 60.0321 40.8804 59.8522 40.6846 59.5728 40.5866 59.1941 40.5866 58.6849 40.5866 58.3111 40.7159 58.0733 40.9745 57.8385 41.2304 57.7208 41.6469 57.7208 42.2241L57.7208 44.5746 57.3332 44.5746 57.3332 40.3163 57.662 40.3163 57.7367 40.9 57.7599 40.9C58.0368 40.4561 58.5292 40.2341 59.2371 40.2341 60.2032 40.2341 60.6867 40.7524 60.6867 41.7893L60.6867 44.5746Z"
             fill="#565656"
             transform="matrix(1 0 0 1.00281 519.49 354.243)"
             id="path157" />
          <path
             d="M63.5814 44.6529C63.0227 44.6529 62.5891 44.4675 62.2811 44.0967 61.9726 43.7258 61.8184 43.1904 61.8184 42.4905 61.8184 41.7723 61.9726 41.2173 62.2811 40.8256 62.5891 40.4312 63.0306 40.2341 63.6051 40.2341 64.2211 40.2341 64.6824 40.4612 64.9879 40.9157L65.0112 40.9157 65.0819 40.3163 65.4111 40.3163 65.4111 46.5019 65.027 46.5019 65.027 44.8801C65.027 44.5615 65.0349 44.2377 65.0502 43.9086L65.027 43.9086C64.719 44.4048 64.2369 44.6529 63.5814 44.6529ZM63.5893 44.3082C64.1064 44.3082 64.4747 44.1658 64.6938 43.8812 64.9157 43.5965 65.027 43.1186 65.027 42.4474L65.027 42.4004C65.027 41.7606 64.9157 41.2983 64.6938 41.0136 64.4718 40.729 64.1183 40.5866 63.6323 40.5866 63.1725 40.5866 62.823 40.7485 62.5827 41.0724 62.3449 41.3962 62.2262 41.8716 62.2262 42.4983 62.2262 43.0964 62.3424 43.5482 62.5748 43.8538 62.8096 44.1567 63.1478 44.3082 63.5893 44.3082Z"
             fill="#565656"
             transform="matrix(1 0 0 1.00281 519.49 354.243)"
             id="path159" />
          <path
             d="M67.1815 40.3163 67.1815 43.0742C67.1815 43.5025 67.2715 43.8146 67.452 44.0104 67.6319 44.2037 67.9118 44.3004 68.29 44.3004 68.7967 44.3004 69.169 44.1724 69.4068 43.9165 69.6471 43.6605 69.7672 43.2439 69.7672 42.6668L69.7672 40.3163 70.1509 40.3163 70.1509 44.5746 69.8221 44.5746 69.7514 43.987 69.7277 43.987C69.4513 44.4309 68.9589 44.6529 68.2509 44.6529 67.2819 44.6529 66.7979 44.1345 66.7979 43.0977L66.7979 40.3163Z"
             fill="#565656"
             transform="matrix(1 0 0 1.00281 519.49 354.243)"
             id="path161" />
          <path
             d="M71.9648 44.5746 71.5767 44.5746 71.5767 40.3163 71.9648 40.3163ZM71.5223 39.1333C71.5223 38.8826 71.6044 38.7572 71.769 38.7572 71.8501 38.7572 71.9124 38.7899 71.9569 38.8551 72.0039 38.9204 72.0276 39.0131 72.0276 39.1333 72.0276 39.2508 72.0039 39.3435 71.9569 39.4114 71.9124 39.4793 71.8501 39.5132 71.769 39.5132 71.6044 39.5132 71.5223 39.3866 71.5223 39.1333Z"
             fill="#565656"
             transform="matrix(1 0 0 1.00281 519.49 354.243)"
             id="path163" />
          <path
             d="M76.0351 43.4659C76.0351 43.8472 75.8903 44.1411 75.6001 44.3474 75.3103 44.5511 74.899 44.6529 74.3661 44.6529 73.797 44.6529 73.3451 44.5654 73.0109 44.3904L73.0109 43.9713C73.4391 44.1855 73.8909 44.2925 74.3661 44.2925 74.7868 44.2925 75.1052 44.2233 75.3222 44.0849 75.5412 43.9438 75.651 43.7571 75.651 43.5247 75.651 43.3105 75.5635 43.1303 75.3885 42.9841 75.2164 42.8378 74.9316 42.6942 74.5346 42.5532 74.109 42.3991 73.8099 42.2672 73.6373 42.1575 73.4653 42.0452 73.3347 41.9199 73.2458 41.7814 73.1597 41.6404 73.1167 41.4694 73.1167 41.2682 73.1167 40.9497 73.2497 40.6976 73.5162 40.5122 73.7851 40.3268 74.1599 40.2341 74.6404 40.2341 75.1002 40.2341 75.5363 40.3202 75.9486 40.4926L75.8037 40.8452C75.386 40.6728 74.9984 40.5866 74.6404 40.5866 74.2929 40.5866 74.0175 40.6441 73.8138 40.759 73.6101 40.8739 73.5083 41.0332 73.5083 41.2369 73.5083 41.4589 73.5864 41.6365 73.7431 41.7697 73.9028 41.9029 74.2123 42.0518 74.6716 42.2163 75.0557 42.3547 75.3351 42.48 75.5101 42.5924 75.6851 42.702 75.8156 42.8274 75.9016 42.9684 75.9906 43.1095 76.0351 43.2753 76.0351 43.4659Z"
             fill="#565656"
             transform="matrix(1 0 0 1.00281 519.49 354.243)"
             id="path165" />
          <path
             d="M78.8596 44.6529C78.2406 44.6529 77.7571 44.4623 77.41 44.081 77.0654 43.6997 76.8929 43.1656 76.8929 42.4788 76.8929 41.7997 77.06 41.2565 77.3942 40.8491 77.7284 40.439 78.1793 40.2341 78.7459 40.2341 79.2472 40.2341 79.6427 40.409 79.9329 40.759 80.2226 41.1089 80.3675 41.5843 80.3675 42.1849L80.3675 42.4983 77.3003 42.4983C77.3057 43.0834 77.4412 43.5299 77.7076 43.8381 77.9766 44.1463 78.3607 44.3004 78.8596 44.3004 79.1023 44.3004 79.3149 44.2834 79.4978 44.2494 79.6832 44.2155 79.9171 44.1423 80.1994 44.0301L80.1994 44.3826C79.9591 44.4871 79.7371 44.5576 79.5334 44.5942 79.3298 44.6333 79.1048 44.6529 78.8596 44.6529ZM78.7459 40.5788C78.336 40.5788 78.0068 40.7146 77.7586 40.9862 77.5104 41.2552 77.3655 41.6443 77.324 42.1536L79.9562 42.1536C79.9562 41.66 79.8494 41.2748 79.6353 40.998 79.4207 40.7185 79.1246 40.5788 78.7459 40.5788Z"
             fill="#565656"
             transform="matrix(1 0 0 1.00281 519.49 354.243)"
             id="path167" />
        </g>
      </g>
    </g>
    <g
       clip-path="url(#clip4)"
       id="g185">
      <g
         clip-path="url(#clip5)"
         id="g183">
        <g
           clip-path="url(#clip6)"
           id="g181">
          <path
             d="M48.9564 11.534C48.6497 10.5524 47.9134 9.75479 46.9932 9.26398L28.2812 0.306754C27.7904 0.0613509 27.2382 1.08981e-15 26.7474 1.08981e-15 26.2566 1.08981e-15 25.7044 1.08981e-15 25.2136 0.122702L6.5016 9.14128C5.58136 9.57074 4.9065 10.3683 4.6611 11.4113L0.0597777 31.5957C-0.124275 32.6387 0.121129 33.6816 0.73464 34.5405L13.6797 50.5531C14.4159 51.2893 15.4588 51.7801 16.5018 51.8415L37.1157 51.8415C38.22 51.9642 39.263 51.4734 39.9378 50.5531L52.8829 34.5405C53.4964 33.6816 53.7418 32.6387 53.6191 31.5957L48.9564 11.534Z"
             fill="#326DE6"
             transform="matrix(1 0 0 1.00052 523.934 267.557)"
             id="path175" />
          <path
             d="M46.0729 30.7981 46.0729 30.7981C46.0116 30.7981 45.9502 30.7981 45.9502 30.7368 45.9502 30.6754 45.8275 30.6754 45.7048 30.6754 45.4594 30.6141 45.214 30.6141 44.9686 30.6141 44.8459 30.6141 44.7232 30.6141 44.6005 30.5527L44.5391 30.5527C43.8643 30.4914 43.1281 30.3687 42.4532 30.1846 42.2692 30.1233 42.0851 29.9392 42.0238 29.7552 42.0851 29.7552 42.0238 29.7552 42.0238 29.7552L42.0238 29.7552 41.533 29.6325C41.7784 27.8533 41.6557 26.0128 41.2875 24.2336 40.8581 22.4544 40.1219 20.7366 39.1403 19.2028L39.5084 18.8347 39.5084 18.8347 39.5084 18.7734C39.5084 18.5893 39.5697 18.3439 39.6924 18.2212 40.2446 17.7304 40.7967 17.3623 41.4102 16.9942L41.4102 16.9942C41.533 16.9328 41.6557 16.8715 41.7784 16.8101 42.0238 16.6874 42.2078 16.5647 42.4532 16.442 42.5146 16.3807 42.5759 16.3807 42.6373 16.3193 42.6986 16.258 42.6373 16.258 42.6373 16.1966L42.6373 16.1966C43.1894 15.7672 43.3121 15.031 42.8827 14.4788 42.6986 14.2334 42.3305 14.0494 42.0238 14.0494 41.717 14.0494 41.4102 14.1721 41.1648 14.3561L41.1648 14.3561 41.1035 14.4175C41.0421 14.4788 40.9808 14.5402 40.9194 14.5402 40.7354 14.7242 40.5513 14.9083 40.4286 15.0923 40.3673 15.215 40.2446 15.2764 40.1832 15.3377L40.1832 15.3377C39.7538 15.8285 39.2016 16.3193 38.6495 16.6874 38.5268 16.7488 38.4041 16.8101 38.2814 16.8101 38.22 16.8101 38.0973 16.8101 38.0359 16.7488L37.9746 16.7488 37.4838 17.0555C36.993 16.5647 36.4408 16.0739 35.95 15.5831 33.68 13.8039 30.8579 12.6996 27.9744 12.3929L27.9131 11.9021 27.9131 11.9021 27.9131 11.9634C27.729 11.8407 27.6677 11.6567 27.6063 11.4726 27.6063 10.7978 27.6063 10.1229 27.729 9.38669L27.729 9.32533C27.729 9.20263 27.7904 9.07993 27.7904 8.95723 27.8517 8.71183 27.8517 8.46642 27.9131 8.22102L27.9131 7.85291 27.9131 7.85291C27.9744 7.2394 27.4836 6.6259 26.8701 6.56454 26.502 6.50319 26.1339 6.68725 25.8271 6.994 25.5817 7.2394 25.459 7.54616 25.459 7.85291L25.459 7.85291 25.459 8.15967C25.459 8.40507 25.5204 8.65047 25.5817 8.89588 25.6431 9.01858 25.6431 9.14128 25.6431 9.26398L25.6431 9.32533C25.7658 10.0002 25.7658 10.6751 25.7658 11.4113 25.7044 11.5953 25.6431 11.7794 25.459 11.9021L25.459 12.0248 25.459 12.0248 25.3977 12.5156C24.7228 12.5769 24.048 12.6996 23.3117 12.8223 20.4282 13.4358 17.7902 14.9696 15.7656 17.1169L15.3975 16.8715 15.3361 16.8715C15.2748 16.8715 15.2134 16.9328 15.0907 16.9328 14.968 16.9328 14.8453 16.8715 14.7226 16.8101 14.1705 16.3807 13.6183 15.8899 13.1888 15.3991L13.1888 15.3991C13.1275 15.2764 13.0048 15.215 12.9434 15.1537 12.7594 14.9696 12.6367 14.7856 12.4526 14.6015 12.3913 14.5402 12.3299 14.5402 12.2686 14.4788 12.2072 14.4175 12.2072 14.4175 12.2072 14.4175L12.2072 14.4175C11.9618 14.2334 11.6551 14.1107 11.3483 14.1107 10.9802 14.1107 10.6735 14.2334 10.4894 14.5402 10.1213 15.0923 10.244 15.8285 10.7348 16.258L10.7348 16.258C10.7962 16.258 10.7962 16.3193 10.7962 16.3193 10.7962 16.3193 10.9189 16.442 10.9802 16.442 11.1643 16.5647 11.4097 16.6874 11.6551 16.8101 11.7778 16.8715 11.9005 16.9328 12.0232 16.9942L12.0232 16.9942C12.6367 17.3623 13.2502 17.7304 13.741 18.2212 13.8637 18.3439 13.9864 18.5893 13.9251 18.7734L13.9251 18.712 13.9251 18.712 14.2932 19.0801C14.2318 19.2028 14.1705 19.2642 14.1091 19.3869 12.2072 22.3931 11.4097 25.9514 11.9618 29.4484L11.471 29.5711 11.471 29.5711C11.471 29.6325 11.4097 29.6325 11.4097 29.6325 11.3483 29.8165 11.1643 29.9392 10.9802 30.0619 10.3054 30.246 9.63049 30.3687 8.89428 30.43L8.89428 30.43C8.77158 30.43 8.64888 30.43 8.52618 30.4914 8.28077 30.4914 8.03537 30.5527 7.78997 30.5527 7.72862 30.5527 7.66727 30.6141 7.54456 30.6141 7.48321 30.6141 7.48321 30.6141 7.42186 30.6754L7.42186 30.6754C6.747 30.7981 6.31755 31.4117 6.44025 32.0865 6.44025 32.0865 6.44025 32.0865 6.44025 32.0865 6.56295 32.6387 7.11511 33.0068 7.66727 32.9454 7.78997 32.9454 7.85132 32.9454 7.97402 32.8841L7.97402 32.8841C8.03537 32.8841 8.03537 32.8841 8.03537 32.8227 8.03537 32.7614 8.21942 32.8227 8.28077 32.8227 8.52618 32.7614 8.77158 32.6387 8.95563 32.5773 9.07834 32.516 9.20104 32.4546 9.32374 32.4546L9.38509 32.4546C10.0599 32.2092 10.6735 32.0252 11.4097 31.9025L11.471 31.9025C11.6551 31.9025 11.8391 31.9638 11.9618 32.0865 12.0232 32.0865 12.0232 32.1479 12.0232 32.1479L12.0232 32.1479 12.5753 32.0865C13.4956 34.9087 15.2134 37.424 17.6061 39.2646 18.1583 39.694 18.6491 40.0621 19.2626 40.3689L18.9558 40.7983 18.9558 40.7983C18.9558 40.8597 19.0172 40.8597 19.0172 40.8597 19.1399 41.0437 19.1399 41.2891 19.0785 41.4732 18.8331 42.0867 18.465 42.7002 18.0969 43.2524L18.0969 43.3137C18.0356 43.4364 17.9742 43.4978 17.8515 43.6205 17.7288 43.7432 17.6061 43.9886 17.4221 44.234 17.3607 44.2953 17.3607 44.3567 17.2994 44.418 17.2994 44.418 17.2994 44.4794 17.238 44.4794L17.238 44.4794C16.9312 45.0929 17.1767 45.8291 17.7288 46.1359 17.8515 46.1972 18.0356 46.2586 18.1583 46.2586 18.6491 46.2586 19.0785 45.9518 19.3239 45.5224L19.3239 45.5224C19.3239 45.5224 19.3239 45.461 19.3853 45.461 19.3853 45.3997 19.4466 45.3383 19.508 45.277 19.5693 45.0315 19.692 44.8475 19.7534 44.6021L19.8761 44.234 19.8761 44.234C20.0601 43.5591 20.3669 42.9456 20.6737 42.3321 20.7964 42.1481 20.9804 42.0254 21.1645 41.964 21.2258 41.964 21.2258 41.964 21.2258 41.9027L21.2258 41.9027 21.4712 41.4118C23.189 42.0867 24.9682 42.3935 26.8087 42.3935 27.9131 42.3935 29.0174 42.2708 30.1217 41.964 30.7965 41.8413 31.4714 41.5959 32.0849 41.4118L32.3303 41.8413 32.3303 41.8413C32.3917 41.8413 32.3917 41.8413 32.3917 41.9027 32.5757 41.964 32.7598 42.0867 32.8825 42.2708 33.1892 42.8843 33.496 43.4978 33.68 44.1726L33.68 44.234 33.8027 44.6021C33.8641 44.8475 33.9254 45.0929 34.0481 45.277 34.1095 45.3383 34.1095 45.3997 34.1708 45.461 34.1708 45.461 34.1708 45.5224 34.2322 45.5224L34.2322 45.5224C34.4776 45.9518 34.9071 46.2586 35.3979 46.2586 35.5819 46.2586 35.7046 46.1972 35.8887 46.1359 36.1341 46.0132 36.3795 45.7678 36.4408 45.461 36.5022 45.1542 36.5022 44.8475 36.3795 44.5407L36.3795 44.5407C36.3795 44.4794 36.3181 44.4794 36.3181 44.4794 36.3181 44.418 36.2568 44.3567 36.1954 44.2953 36.0727 44.0499 35.95 43.8659 35.766 43.6818 35.7046 43.5591 35.6433 43.4978 35.5206 43.3751L35.5206 43.2524C35.0911 42.7002 34.7844 42.0867 34.539 41.4732 34.4776 41.2891 34.4776 41.0437 34.6003 40.8597 34.6003 40.7983 34.6617 40.7983 34.6617 40.7983L34.6617 40.7983 34.4776 40.3075C37.6065 38.4057 39.9992 35.4608 41.1035 31.9638L41.5943 32.0252 41.5943 32.0252C41.6557 32.0252 41.6557 31.9638 41.6557 31.9638 41.7784 31.8411 41.9624 31.7798 42.1465 31.7798L42.2078 31.7798C42.8827 31.9025 43.5575 32.0865 44.171 32.3319L44.2324 32.3319C44.3551 32.3933 44.4778 32.4546 44.6005 32.4546 44.8459 32.5773 45.03 32.7 45.2754 32.7614 45.3367 32.7614 45.3981 32.8227 45.5208 32.8227 45.5821 32.8227 45.5821 32.8227 45.6435 32.8841L45.6435 32.8841C45.7662 32.9454 45.8275 32.9454 45.9502 32.9454 46.5024 32.9454 46.9932 32.5773 47.1772 32.0865 47.1159 31.4117 46.6251 30.9208 46.0729 30.7981ZM28.3425 28.8963 26.686 29.6938 25.0296 28.8963 24.6001 27.1171 25.7658 25.6447 27.6063 25.6447 28.772 27.1171 28.3425 28.8963ZM38.3427 24.9085C38.6495 26.1968 38.7108 27.4852 38.5881 28.7736L32.7598 27.1171 32.7598 27.1171C32.2076 26.9944 31.9009 26.4422 32.0236 25.8901 32.0849 25.706 32.1463 25.5833 32.269 25.4606L36.8703 21.2888C37.5451 22.3931 38.0359 23.6201 38.3427 24.9085ZM35.0298 19.0188 29.999 22.5771C29.5695 22.8225 28.956 22.7612 28.6493 22.3317 28.5266 22.209 28.4652 22.0863 28.4652 21.9023L28.0971 15.7058C30.7965 16.0126 33.1892 17.1782 35.0298 19.0188L35.0298 19.0188ZM23.9252 15.8899 25.1523 15.6445 24.8455 21.7796 24.8455 21.7796C24.8455 22.3317 24.3547 22.7612 23.8025 22.7612 23.6185 22.7612 23.4958 22.6998 23.3117 22.6385L18.2196 19.0188C19.8147 17.485 21.778 16.3807 23.9252 15.8899ZM16.4404 21.2888 20.9804 25.3379 20.9804 25.3379C21.4099 25.706 21.4712 26.3195 21.1031 26.749 20.9804 26.933 20.8577 26.9944 20.6123 27.0557L14.6613 28.7736C14.4772 26.1968 15.0907 23.5587 16.4404 21.2888ZM15.3975 31.6571 21.4712 30.6141C21.962 30.6141 22.4528 30.9208 22.5142 31.4117 22.5755 31.5957 22.5755 31.8411 22.4528 32.0252L22.4528 32.0252 20.1215 37.6694C17.9742 36.2584 16.2564 34.1111 15.3975 31.6571ZM29.3241 39.2646C28.4652 39.4486 27.6063 39.5713 26.686 39.5713 25.3977 39.5713 24.048 39.3259 22.8209 38.9578L25.8271 33.4976C26.1339 33.1295 26.6247 33.0068 27.0541 33.2522 27.2382 33.3749 27.3609 33.4976 27.545 33.6816L27.545 33.6816 30.4898 39.0192C30.1217 39.0805 29.7536 39.1419 29.3241 39.2646ZM36.8089 33.927C35.8887 35.3995 34.6003 36.6878 33.1279 37.6081L30.7352 31.8411C30.6125 31.3503 30.8579 30.8595 31.2874 30.6754 31.4714 30.6141 31.6555 30.5527 31.8395 30.5527L37.9746 31.5957C37.6678 32.4546 37.2997 33.2522 36.8089 33.927Z"
             fill="#FFFFFF"
             transform="matrix(1 0 0 1.00052 523.934 267.557)"
             id="path177" />
          <path
             d="M297.243 38.3443C298.102 38.4057 299.022 38.283 299.82 37.9762 300.311 37.7308 300.617 37.1786 300.556 36.6265 300.495 36.013 300.127 35.4608 299.575 35.2768 298.654 34.7246 297.611 34.2338 296.568 33.927 295.525 33.5589 294.605 33.1295 293.746 32.7 292.949 32.3319 292.274 31.8411 291.599 31.2276 290.985 30.6141 290.556 29.9392 290.249 29.1417 289.881 28.2214 289.758 27.2398 289.758 26.2582 289.697 24.2336 290.617 22.2704 292.212 21.0434 293.869 19.755 296.078 19.1415 298.9 19.1415 300.249 19.1415 301.66 19.2642 303.01 19.5709 304.053 19.755 305.096 20.0004 306.139 20.3685L304.973 25.5833C304.114 25.2766 303.317 25.0925 302.458 24.8471 301.476 24.6017 300.433 24.5404 299.452 24.5404 297.366 24.5404 296.323 25.0925 296.323 26.2582 296.323 26.5036 296.384 26.749 296.446 26.9944 296.568 27.2398 296.752 27.4238 296.998 27.6079 297.243 27.7919 297.611 27.976 298.041 28.2214 298.47 28.4668 299.084 28.7122 299.82 28.9576 301.047 29.3871 302.274 29.9392 303.378 30.5527 304.237 30.9822 304.973 31.5344 305.587 32.2706 306.139 32.8227 306.507 33.4976 306.753 34.2951 306.998 35.1541 307.121 36.013 307.121 36.8719 307.243 38.9578 306.262 40.9824 304.483 42.1481 302.765 43.3137 300.311 43.9272 297.12 43.9272 295.341 43.9886 293.623 43.8045 291.906 43.3751 290.924 43.1297 290.004 42.8229 289.083 42.5162L290.188 37.1173C291.292 37.5467 292.458 37.9148 293.623 38.1602 294.85 38.2216 296.016 38.3443 297.243 38.3443M263.439 31.5957C263.378 29.7552 263.746 27.9147 264.359 26.1968 264.911 24.7244 265.77 23.436 266.875 22.2704 267.917 21.2274 269.083 20.4298 270.433 19.939 271.783 19.3869 273.194 19.1415 274.605 19.1415 277.918 19.1415 280.556 20.1844 282.458 22.209 284.359 24.2336 285.341 27.2398 285.341 31.1662 285.341 31.5344 285.341 31.9638 285.28 32.4546 285.28 32.9454 285.218 33.3135 285.218 33.6816L270.249 33.6816C270.371 34.97 271.046 36.197 272.151 36.9332 273.5 37.7921 275.096 38.2216 276.691 38.1602 277.856 38.1602 279.083 38.0375 280.249 37.8535 281.231 37.6694 282.212 37.3627 283.132 36.9332L284.053 42.3321C283.623 42.5775 283.132 42.7002 282.642 42.8843 281.967 43.0683 281.292 43.2524 280.617 43.3137 279.881 43.4364 279.145 43.5591 278.286 43.6818 277.488 43.7432 276.629 43.8045 275.77 43.8045 273.868 43.8659 272.028 43.5591 270.249 42.8843 268.776 42.3321 267.488 41.4732 266.384 40.3689 265.341 39.2646 264.605 37.9148 264.114 36.5038 263.684 34.8473 263.439 33.1908 263.439 31.5957M278.961 29.0803C278.961 28.5282 278.838 27.976 278.654 27.4238 278.531 26.8717 278.224 26.4422 277.918 26.0128 277.55 25.5833 277.12 25.2152 276.629 24.9698 276.016 24.6631 275.402 24.5404 274.727 24.5404 274.053 24.5404 273.439 24.6631 272.826 24.9698 272.335 25.2152 271.844 25.522 271.476 25.9514 271.108 26.3809 270.801 26.8717 270.617 27.4238 270.433 27.976 270.31 28.5282 270.249 29.0803L278.961 29.0803M245.463 13.8653 252.089 12.8223 252.089 19.6936 260.065 19.6936 260.065 25.2152 252.089 25.2152 252.089 33.4362C252.028 34.6019 252.273 35.7676 252.825 36.7492 253.316 37.5467 254.298 37.9762 255.831 37.9762 256.568 37.9762 257.304 37.9148 257.979 37.7921 258.715 37.6694 259.39 37.4854 260.065 37.24L260.985 42.3935C260.126 42.7616 259.206 43.007 258.285 43.2524 257.12 43.4978 255.893 43.6205 254.666 43.6205 253.132 43.6818 251.598 43.4364 250.187 42.8843 249.083 42.4548 248.101 41.7186 247.365 40.8597 246.629 39.9394 246.138 38.8351 245.831 37.6694 245.524 36.3197 245.402 34.9087 245.463 33.5589L245.463 13.8653M218.653 31.5957C218.591 29.7552 218.959 27.9147 219.573 26.1968 220.125 24.7244 220.984 23.436 222.088 22.2704 223.131 21.2274 224.297 20.4298 225.647 19.939 226.996 19.3869 228.407 19.1415 229.819 19.1415 233.132 19.1415 235.77 20.1844 237.671 22.209 239.573 24.2336 240.555 27.2398 240.555 31.1662 240.555 31.5344 240.555 31.9638 240.494 32.4546 240.432 32.9454 240.432 33.3135 240.432 33.6816L225.401 33.6816C225.524 34.97 226.199 36.197 227.303 36.9332 228.653 37.7921 230.248 38.2216 231.843 38.1602 233.009 38.1602 234.236 38.0375 235.401 37.8535 236.383 37.6694 237.365 37.3627 238.346 36.9332L239.267 42.3321C238.837 42.5775 238.346 42.7002 237.856 42.8843 237.181 43.0683 236.506 43.2524 235.831 43.3137 235.095 43.4364 234.359 43.5591 233.5 43.6818 232.702 43.7432 231.843 43.8045 230.984 43.8045 229.082 43.8659 227.242 43.5591 225.463 42.8843 223.99 42.3321 222.702 41.4732 221.598 40.3689 220.555 39.2646 219.818 37.9148 219.328 36.5038 218.837 34.8473 218.591 33.1908 218.653 31.5957M234.174 29.0803C234.174 28.5282 234.052 27.976 233.868 27.4238 233.745 26.8717 233.438 26.4422 233.132 26.0128 232.763 25.5833 232.334 25.2152 231.843 24.9698 231.23 24.6631 230.616 24.5404 229.941 24.5404 229.266 24.5404 228.653 24.6631 228.039 24.9698 227.549 25.2152 227.119 25.522 226.751 25.9514 226.383 26.3809 226.076 26.8717 225.892 27.4238 225.708 27.976 225.585 28.5282 225.524 29.0803L234.174 29.0803M193.499 20.4912C194.91 20.1231 196.382 19.8163 197.855 19.5709 199.695 19.2642 201.597 19.1415 203.438 19.1415 205.094 19.0801 206.751 19.3869 208.346 19.939 209.573 20.3685 210.677 21.1047 211.475 22.0863 212.272 23.0679 212.824 24.2336 213.131 25.4606 213.499 26.8717 213.622 28.3441 213.622 29.8165L213.622 43.007 207.057 43.007 207.057 30.6754C207.057 28.5282 206.751 27.0557 206.198 26.1355 205.646 25.2766 204.603 24.7858 203.07 24.7858 202.579 24.7858 202.088 24.7858 201.536 24.8471 200.984 24.8471 200.554 24.9085 200.125 24.9698L200.125 43.007 193.499 43.007 193.499 20.4912M188.836 25.5833C188.223 25.4606 187.548 25.2766 186.75 25.1539 185.891 24.9698 185.032 24.9085 184.174 24.9085 183.683 24.9085 183.192 24.9698 182.64 25.0312 182.21 25.0925 181.781 25.1539 181.351 25.2766L181.351 43.1297 174.725 43.1297 174.725 20.9207C176.075 20.4298 177.486 20.0617 178.897 19.755 180.677 19.3255 182.517 19.1415 184.296 19.2028 184.726 19.2028 185.155 19.2642 185.585 19.2642 186.075 19.2642 186.566 19.3255 187.118 19.4482 187.609 19.5096 188.1 19.5709 188.652 19.6936 189.082 19.755 189.511 19.8777 189.94 20.0617L188.836 25.5833M147.67 31.5957C147.608 29.7552 147.976 27.9147 148.59 26.1968 149.142 24.7244 150.001 23.436 151.105 22.2704 152.148 21.2274 153.314 20.4298 154.664 19.939 156.013 19.3869 157.425 19.1415 158.836 19.1415 162.149 19.1415 164.787 20.1844 166.689 22.209 168.59 24.2336 169.572 27.2398 169.572 31.1049 169.572 31.473 169.572 31.9025 169.511 32.3933 169.449 32.8841 169.449 33.2522 169.449 33.6203L154.418 33.6203C154.541 34.9087 155.216 36.1357 156.32 36.8719 157.67 37.7308 159.265 38.1602 160.86 38.0989 162.026 38.0989 163.253 37.9762 164.419 37.7921 165.4 37.6081 166.382 37.3013 167.302 36.9332L168.222 42.3321C167.793 42.5775 167.302 42.7002 166.811 42.8843 166.136 43.0683 165.461 43.2524 164.787 43.3137 164.05 43.4364 163.314 43.5591 162.455 43.6818 161.658 43.7432 160.799 43.8045 159.94 43.8045 158.038 43.8659 156.198 43.5591 154.418 42.8843 152.946 42.3321 151.658 41.4732 150.553 40.3689 149.51 39.2646 148.774 37.9148 148.283 36.5038 147.915 34.8473 147.67 33.2522 147.67 31.5957M163.253 29.0803C163.253 28.5282 163.13 27.976 162.946 27.4238 162.823 26.8717 162.517 26.4422 162.21 26.0128 161.842 25.5833 161.412 25.2152 160.922 24.9698 160.308 24.6631 159.695 24.5404 159.02 24.5404 158.345 24.5404 157.731 24.6631 157.118 24.9698 156.627 25.2152 156.136 25.522 155.768 25.9514 155.4 26.3809 155.093 26.8717 154.909 27.4238 154.725 27.976 154.602 28.5282 154.541 29.0803L163.253 29.0803M136.933 31.2276C136.933 26.933 135.338 24.8471 132.209 24.8471 131.534 24.8471 130.86 24.9085 130.185 25.0925 129.633 25.2152 129.08 25.4606 128.59 25.7674L128.59 37.7921C128.896 37.8535 129.326 37.9148 129.817 37.9762 130.307 38.0375 130.86 38.0375 131.473 38.0375 133.068 38.1602 134.602 37.4854 135.584 36.197 136.504 34.7246 136.995 33.0068 136.933 31.2276M143.682 31.473C143.682 33.1908 143.437 34.9087 142.823 36.5651 142.332 38.0375 141.535 39.3259 140.492 40.4302 139.387 41.5345 138.099 42.3935 136.688 42.9456 135.031 43.5591 133.314 43.8045 131.534 43.8045 130.737 43.8045 129.878 43.7432 129.019 43.6818 128.16 43.6205 127.301 43.4978 126.442 43.4364 125.645 43.3137 124.847 43.191 124.05 43.007 123.252 42.8843 122.577 42.7002 122.025 42.4548L122.025 9.63209 128.651 8.58912 128.651 20.2458C129.387 19.939 130.185 19.6936 130.982 19.5096 131.841 19.3255 132.7 19.2642 133.559 19.2642 135.093 19.2642 136.565 19.5096 137.976 20.1844 139.203 20.7366 140.308 21.5955 141.167 22.6385 142.087 23.8041 142.762 25.0925 143.13 26.5036 143.498 28.0374 143.682 29.7552 143.682 31.473M115.706 42.2708C114.295 42.6389 112.822 42.9456 111.35 43.1297 109.509 43.4364 107.608 43.5591 105.767 43.5591 104.049 43.6205 102.393 43.3137 100.798 42.7616 99.5706 42.2708 98.5277 41.5345 97.6688 40.5529 96.8712 39.51 96.319 38.3443 96.0123 37.0559 95.6442 35.6449 95.5215 34.1111 95.5215 32.6387L95.5215 19.6936 102.147 19.6936 102.147 31.9025C102.147 34.0497 102.454 35.5835 103.006 36.5038 103.558 37.424 104.601 37.9148 106.135 37.9148 106.626 37.9148 107.117 37.9148 107.669 37.8535 108.221 37.7921 108.651 37.7921 109.08 37.6694L109.08 19.6936 115.706 19.6936 115.706 42.2708M77.0549 28.1601C77.7297 27.4238 78.3432 26.6876 79.0794 25.9514 79.7543 25.1539 80.4292 24.4177 81.104 23.6814 81.7789 22.8839 82.3924 22.209 82.9446 21.5342 83.4967 20.8593 84.0489 20.2458 84.4783 19.755L92.3312 19.755C90.7361 21.5342 89.2023 23.3133 87.7299 24.9698 86.1961 26.6263 84.601 28.3441 82.8218 30.0619 83.8035 30.9822 84.7237 31.9025 85.5826 32.9454 86.5029 34.0497 87.4232 35.1541 88.3434 36.3811 89.2023 37.5467 90.0612 38.7738 90.7975 39.9394 91.5337 41.1051 92.1472 42.2094 92.638 43.191L85.0305 43.191C84.5397 42.3935 83.9875 41.5959 83.374 40.6756 82.7605 39.7554 82.0856 38.8351 81.4721 37.8535 80.7973 36.9332 80.0611 36.013 79.2635 35.1541 78.5886 34.3565 77.8524 33.6203 77.0549 33.0068L77.0549 43.2524 70.429 43.2524 70.429 9.63209 77.0549 8.58912 77.0549 28.1601"
             transform="matrix(1 0 0 1.00052 523.934 267.557)"
             id="path179" />
        </g>
      </g>
    </g>
    <path
       d="M630 351 653.5 351 653.5 339 700.5 339 700.5 351 724 351 677 363Z"
       fill="#00B0F0"
       fill-rule="evenodd"
       id="path187" />
    <path
       d="M630 468 653.5 468 653.5 456 700.5 456 700.5 468 724 468 677 480Z"
       fill="#00B0F0"
       fill-rule="evenodd"
       id="path189" />
  </g>
</svg>
