<svg width="1113" height="398" xmlns="http://www.w3.org/2000/svg" xmlns:xlink="http://www.w3.org/1999/xlink" overflow="hidden"><defs><clipPath id="clip0"><rect x="168" y="143" width="1113" height="398"/></clipPath></defs><g clip-path="url(#clip0)" transform="translate(-168 -143)"><path d="M191.5 221 267 145.5 342.5 221 267 296.5Z" stroke="#262626" stroke-width="1.33333" stroke-miterlimit="8" fill="none" fill-rule="evenodd"/><text font-family="Arial,Arial_MSFontService,sans-serif" font-weight="400" font-size="16" transform="translate(206.775 226)">icebergs_system</text><rect x="169.5" y="430.5" width="195" height="107" stroke="#262626" stroke-linejoin="round" stroke-miterlimit="10" fill="none"/><text font-family="Consolas,Consolas_MSFontService,sans-serif" font-weight="400" font-size="16" transform="translate(187.108 450)">j<tspan x="8.83333" y="0">2_current_iceberg</tspan><tspan x="75.0867" y="19">=</tspan><tspan x="0" y="38">iceberg_naming+</tspan><tspan x="132.5" y="38">'</tspan><tspan x="141.333" y="38">1</tspan><tspan x="150.167" y="38">'</tspan><tspan x="75.0867" y="58">=</tspan><tspan x="35.3333" y="77">'</tspan><tspan x="44.1667" y="77">iceberg1</tspan><tspan x="114.833" y="77">'</tspan></text><path d="M267.833 296.5 267.833 424.002 267.167 424.002 267.167 296.5ZM271.5 422.669 267.5 430.669 263.5 422.669Z" fill="#262626"/><text font-family="Arial,Arial_MSFontService,sans-serif" font-weight="700" font-size="16" transform="translate(284.106 316)">false<tspan x="69.9749" y="-108">true</tspan></text><path d="M342.5 221.167 495.448 221.167 495.448 221.833 342.5 221.833ZM494.115 217.5 502.115 221.5 494.115 225.5Z" fill="#262626"/><rect x="502.5" y="196.5" width="165" height="49" stroke="#262626" stroke-linejoin="round" stroke-miterlimit="10" fill="none"/><text font-family="Arial,Arial_MSFontService,sans-serif" font-weight="400" font-size="16" transform="translate(524.076 217)">Get list of groups <tspan x="-3.08667" y="19">host is member of</tspan></text><rect x="452.5" y="325.5" width="265" height="48" stroke="#262626" stroke-linejoin="round" stroke-miterlimit="10" fill="none"/><text font-family="Arial,Arial_MSFontService,sans-serif" font-weight="400" font-size="16" transform="translate(468.153 346)">Get in this list group with pattern:<tspan font-family="Consolas,Consolas_MSFontService,sans-serif" font-style="italic" x="-2.91333" y="18">'^'+</tspan><tspan font-family="Consolas,Consolas_MSFontService,sans-serif" font-style="italic" x="32.42" y="18">iceberg_naming</tspan><tspan font-family="Consolas,Consolas_MSFontService,sans-serif" font-style="italic" x="156.087" y="18">+'[0</tspan><tspan font-family="Consolas,Consolas_MSFontService,sans-serif" font-style="italic" x="191.42" y="18">-</tspan><tspan font-family="Consolas,Consolas_MSFontService,sans-serif" font-style="italic" x="200.253" y="18">9]+' </tspan></text><path d="M584.833 245.5 584.833 318.826 584.167 318.826 584.167 245.5ZM588.5 317.493 584.5 325.493 580.5 317.493Z" fill="#262626"/><text fill="#7F7F7F" font-family="Consolas,Consolas_MSFontService,sans-serif" font-weight="400" font-size="16" transform="translate(703.617 216)">group_names<tspan x="106" y="0">→ ['</tspan><tspan x="141.333" y="0">mg_management</tspan><tspan x="256.167" y="0">', 'iceberg2', '</tspan>equipment_typeC<tspan x="530" y="0">']</tspan><tspan x="47.5809" y="129">group_</tspan><tspan x="100.581" y="129">names</tspan><tspan x="153.581" y="129">| select('match','^'+</tspan>iceberg_naming<tspan x="462.747" y="129">+'[0</tspan><tspan x="498.081" y="129">-</tspan><tspan x="506.914" y="129">9]+'</tspan><tspan x="290.494" y="148">↓</tspan><tspan x="250.748" y="167">'iceberg2'</tspan></text><path d="M584.833 373.5 584.833 423.874 584.167 423.874 584.167 373.5ZM588.5 422.541 584.5 430.541 580.5 422.541Z" fill="#262626"/><rect x="487.5" y="430.5" width="195" height="68" stroke="#262626" stroke-linejoin="round" stroke-miterlimit="10" fill="none"/><text font-family="Consolas,Consolas_MSFontService,sans-serif" font-weight="400" font-size="16" transform="translate(504.99 450)">j2_current_iceberg <tspan x="75.0867" y="19">= </tspan><tspan x="35.3333" y="38">'iceberg2'</tspan></text></g></svg>