<svg width="923" height="452" xmlns="http://www.w3.org/2000/svg" xmlns:xlink="http://www.w3.org/1999/xlink" overflow="hidden"><defs><clipPath id="clip0"><rect x="186" y="127" width="923" height="452"/></clipPath></defs><g clip-path="url(#clip0)" transform="translate(-186 -127)"><rect x="213" y="379" width="361" height="142" fill="#00B0F0"/><rect x="213" y="293" width="361" height="67" fill="#92D050"/><rect x="213" y="218" width="361" height="56" fill="#FFC000"/><path d="M0.0748962-0.32481 186.355 42.6286 186.205 43.2782-0.0748962 0.32481ZM185.88 38.7561 192.777 44.4513 184.082 46.5515Z" fill="#262626" transform="matrix(-1 0 0 1 767.277 202.5)"/><path d="M767.235 352.084 581.073 328.663 581.156 328.001 767.318 351.423ZM581.938 332.467 574.5 327.5 582.937 324.53Z" fill="#262626"/><path d="M767.175 512.211 580.751 452.841 580.953 452.205 767.378 511.576ZM580.909 456.739 574.5 450.5 583.337 449.116Z" fill="#262626"/><rect x="767.5" y="129.5" width="341" height="145" stroke="#262626" stroke-linejoin="round" stroke-miterlimit="10" fill="none"/><text font-family="Consolas,Consolas_MSFontService,sans-serif" font-weight="700" font-size="19" transform="translate(776.513 152)">Host NIC settings:<tspan font-weight="400" font-size="19" x="20.6667" y="22">bmc</tspan><tspan font-weight="400" font-size="19" x="51.6667" y="22">:</tspan><tspan font-weight="400" font-size="19" x="51.6667" y="44">...</tspan><tspan font-weight="400" font-size="19" x="20.6667" y="67">network_interfaces</tspan><tspan font-weight="400" font-size="19" x="206.667" y="67">:</tspan><tspan font-weight="400" font-size="19" x="51.6667" y="89">...</tspan><tspan font-size="19" x="0" y="112">Groups</tspan></text><rect x="767.5" y="301.5" width="341" height="100" stroke="#262626" stroke-linejoin="round" stroke-miterlimit="10" fill="none"/><text font-family="Consolas,Consolas_MSFontService,sans-serif" font-weight="700" font-size="19" transform="translate(776.513 324)">Equipment_profiles:<tspan font-weight="400" font-size="19" x="20.6667" y="22">ep_operating_system</tspan><tspan font-weight="400" font-size="19" x="217" y="22">:</tspan><tspan font-weight="400" font-size="19" x="41.3334" y="44">...</tspan><tspan font-weight="400" font-size="19" x="20.6667" y="67">ep_...</tspan></text><rect x="767.5" y="450.5" width="341" height="123" stroke="#262626" stroke-linejoin="round" stroke-miterlimit="10" fill="none"/><text font-family="Consolas,Consolas_MSFontService,sans-serif" font-weight="700" font-size="19" transform="translate(776.513 473)">General_settings<tspan font-size="19" x="165.333" y="0">:</tspan><tspan font-weight="400" font-size="19" x="20.6666" y="22">networks:</tspan><tspan font-weight="400" font-size="19" x="41.3333" y="44">...</tspan><tspan font-weight="400" font-size="19" x="20.6666" y="67">time_zone</tspan><tspan font-weight="400" font-size="19" x="113.667" y="67">: ...</tspan><tspan font-size="19" x="0" y="89">Other global/roles variables...</tspan><tspan font-style="italic" font-weight="400" font-size="19" x="-553.476" y="-232">host_vars</tspan><tspan font-style="italic" font-weight="400" font-size="19" x="-460.476" y="-232">/ or </tspan><tspan font-style="italic" font-weight="400" font-size="19" x="-553.476" y="-210">cluster/{</tspan><tspan font-style="italic" font-weight="400" font-size="19" x="-460.476" y="-210">groups,nodes</tspan><tspan font-style="italic" font-weight="400" font-size="19" x="-336.476" y="-210">}/</tspan><tspan font-style="italic" font-weight="400" font-size="19" x="-553.476" y="-156">group_vars</tspan><tspan font-style="italic" font-weight="400" font-size="19" x="-450.142" y="-156">/</tspan><tspan font-style="italic" font-weight="400" font-size="19" x="-439.809" y="-156">equipment_X</tspan><tspan font-style="italic" font-weight="400" font-size="19" x="-326.142" y="-156">/</tspan><tspan font-style="italic" font-weight="400" font-size="19" x="-553.476" y="-70">group_vars</tspan><tspan font-style="italic" font-weight="400" font-size="19" x="-450.142" y="-70">/all/</tspan><tspan font-size="19" x="-578.641" y="-321">/inventory/</tspan></text><rect x="188.5" y="129.5" width="418" height="444" stroke="#262626" stroke-width="1.33333" stroke-miterlimit="8" stroke-dasharray="5.33333 4" fill="none"/></g></svg>