<?xml version="1.0" encoding="UTF-8" standalone="no"?>
<svg
   width="733"
   height="503"
   overflow="hidden"
   version="1.1"
   id="svg7083"
   sodipodi:docname="node_get_values.svg"
   inkscape:version="1.2.2 (b0a8486541, 2022-12-01)"
   xmlns:inkscape="http://www.inkscape.org/namespaces/inkscape"
   xmlns:sodipodi="http://sodipodi.sourceforge.net/DTD/sodipodi-0.dtd"
   xmlns="http://www.w3.org/2000/svg"
   xmlns:svg="http://www.w3.org/2000/svg">
  <sodipodi:namedview
     id="namedview7085"
     pagecolor="#ffffff"
     bordercolor="#000000"
     borderopacity="0.25"
     inkscape:showpageshadow="2"
     inkscape:pageopacity="0.0"
     inkscape:pagecheckerboard="0"
     inkscape:deskcolor="#d1d1d1"
     showgrid="false"
     inkscape:zoom="0.49907097"
     inkscape:cx="512.9531"
     inkscape:cy="208.3872"
     inkscape:window-width="1920"
     inkscape:window-height="1029"
     inkscape:window-x="0"
     inkscape:window-y="27"
     inkscape:window-maximized="1"
     inkscape:current-layer="svg7083" />
  <defs
     id="defs6981">
    <marker
       style="overflow:visible"
       id="marker9686"
       refX="0"
       refY="0"
       orient="auto-start-reverse"
       inkscape:stockid="TriangleStart"
       markerWidth="5.3244081"
       markerHeight="6.155385"
       viewBox="0 0 5.3244081 6.1553851"
       inkscape:isstock="true"
       inkscape:collect="always"
       preserveAspectRatio="xMidYMid">
      <path
         transform="scale(0.5)"
         style="fill:context-stroke;fill-rule:evenodd;stroke:context-stroke;stroke-width:1pt"
         d="M 5.77,0 -2.88,5 V -5 Z"
         id="path9684" />
    </marker>
    <marker
       style="overflow:visible"
       id="TriangleStart"
       refX="0"
       refY="0"
       orient="auto-start-reverse"
       inkscape:stockid="TriangleStart"
       markerWidth="5.3244081"
       markerHeight="6.155385"
       viewBox="0 0 5.3244081 6.1553851"
       inkscape:isstock="true"
       inkscape:collect="always"
       preserveAspectRatio="xMidYMid">
      <path
         transform="scale(0.5)"
         style="fill:context-stroke;fill-rule:evenodd;stroke:context-stroke;stroke-width:1pt"
         d="M 5.77,0 -2.88,5 V -5 Z"
         id="path135" />
    </marker>
    <clipPath
       clipPathUnits="userSpaceOnUse"
       id="clipPath8642">
      <g
         id="g8646">
        <rect
           x="0"
           y="0"
           width="733"
           height="503"
           id="rect8644" />
      </g>
    </clipPath>
    <clipPath
       clipPathUnits="userSpaceOnUse"
       id="clipPath8648">
      <g
         id="g8652">
        <rect
           x="0"
           y="0"
           width="733"
           height="503"
           id="rect8650" />
      </g>
    </clipPath>
    <clipPath
       clipPathUnits="userSpaceOnUse"
       id="clipPath8654">
      <g
         id="g8658">
        <rect
           x="0"
           y="0"
           width="733"
           height="503"
           id="rect8656" />
      </g>
    </clipPath>
    <clipPath
       clipPathUnits="userSpaceOnUse"
       id="clipPath8660">
      <g
         id="g8664">
        <rect
           x="0"
           y="0"
           width="733"
           height="503"
           id="rect8662" />
      </g>
    </clipPath>
    <clipPath
       clipPathUnits="userSpaceOnUse"
       id="clipPath8666">
      <g
         id="g8670">
        <rect
           x="0"
           y="0"
           width="733"
           height="503"
           id="rect8668" />
      </g>
    </clipPath>
    <clipPath
       clipPathUnits="userSpaceOnUse"
       id="clipPath8672">
      <g
         id="g8676">
        <rect
           x="0"
           y="0"
           width="733"
           height="503"
           id="rect8674" />
      </g>
    </clipPath>
    <clipPath
       clipPathUnits="userSpaceOnUse"
       id="clipPath8678">
      <g
         id="g8682">
        <rect
           x="0"
           y="0"
           width="733"
           height="503"
           id="rect8680" />
      </g>
    </clipPath>
    <clipPath
       clipPathUnits="userSpaceOnUse"
       id="clipPath8684">
      <g
         id="g8688">
        <rect
           x="0"
           y="0"
           width="733"
           height="503"
           id="rect8686" />
      </g>
    </clipPath>
    <clipPath
       clipPathUnits="userSpaceOnUse"
       id="clipPath8690">
      <g
         id="g8694">
        <rect
           x="0"
           y="0"
           width="733"
           height="503"
           id="rect8692" />
      </g>
    </clipPath>
  </defs>
  <rect
     x="1.5"
     y="247.5"
     width="155"
     height="39"
     stroke="#262626"
     stroke-linejoin="round"
     stroke-miterlimit="10"
     fill="none"
     id="rect6983"
     clip-path="url(#clipPath8690)" />
  <text
     font-family="Calibri, Calibri_MSFontService, sans-serif"
     font-weight="400"
     font-size="24px"
     id="text6985"
     x="39.152"
     y="274">host001</text>
  <rect
     x="324"
     y="2"
     width="361"
     height="190"
     fill="#ffc000"
     id="rect6987"
     clip-path="url(#clipPath8684)" />
  <rect
     x="324"
     y="210"
     width="361"
     height="123"
     fill="#92d050"
     id="rect7017"
     clip-path="url(#clipPath8678)" />
  <rect
     x="324"
     y="351"
     width="361"
     height="146"
     fill="#00b0f0"
     id="rect7041"
     clip-path="url(#clipPath8672)" />
  <path
     d="M 324.03013,97.26547 156.263,266.705 l 0.474,0.47 167.76687,-169.44047 z m 3.0793,3.04888 c 1.55432,-1.56983 1.54176,-4.10245 -0.0281,-5.65678 -1.56983,-1.55432 -4.10245,-1.54176 -5.65678,0.02808 -1.55432,1.56983 -1.54176,4.10245 0.0281,5.65678 1.56983,1.55432 4.10245,1.54176 5.65678,-0.0281 z M 153.658,264.126 c -1.554,1.569 -1.542,4.102 0.028,5.656 1.57,1.555 4.102,1.542 5.657,-0.028 1.554,-1.569 1.541,-4.102 -0.028,-5.656 -1.57,-1.555 -4.103,-1.542 -5.657,0.028 z"
     fill="#262626"
     id="path7071"
     clip-path="url(#clipPath8666)" />
  <path
     d="m 324.256,272.313 -167.767,-5.48 0.022,-0.666 167.766,5.479 z m 0.141,-4.331 c 2.208,0.072 3.94,1.92 3.867,4.128 -0.072,2.208 -1.92,3.939 -4.128,3.867 -2.208,-0.072 -3.939,-1.92 -3.867,-4.128 0.072,-2.208 1.92,-3.94 4.128,-3.867 z m -168.028,2.516 c -2.208,-0.072 -3.939,-1.921 -3.867,-4.129 0.072,-2.207 1.921,-3.939 4.129,-3.867 2.208,0.072 3.939,1.921 3.867,4.129 -0.072,2.208 -1.921,3.939 -4.129,3.867 z"
     fill="#262626"
     id="path7073"
     clip-path="url(#clipPath8660)" />
  <path
     d="m 324.038,424.523 -167.766,-157.78 0.456,-0.486 167.767,157.78 z m 2.969,-3.157 c 1.609,1.514 1.687,4.045 0.173,5.654 -1.513,1.61 -4.045,1.687 -5.654,0.174 -1.609,-1.514 -1.687,-4.045 -0.173,-5.654 1.513,-1.61 4.045,-1.687 5.654,-0.174 z M 153.76,269.414 c -1.61,-1.514 -1.687,-4.045 -0.174,-5.654 1.514,-1.61 4.045,-1.687 5.654,-0.174 1.61,1.514 1.687,4.045 0.174,5.654 -1.514,1.61 -4.045,1.687 -5.654,0.174 z"
     fill="#262626"
     id="path7075"
     clip-path="url(#clipPath8654)" />
  <text
     xml:space="preserve"
     style="font-style:italic;font-size:18.6667px;font-family:sans-serif;-inkscape-font-specification:'sans-serif Italic';fill:none;stroke-width:2"
     x="334.66064"
     y="28.643545"
     id="text4549"><tspan
       sodipodi:role="line"
       x="334.66064"
       y="28.643545"
       style="font-size:18.6667px;fill:#000000;fill-opacity:1"
       id="tspan5031">network_interfaces:</tspan><tspan
       sodipodi:role="line"
       x="334.66064"
       y="51.976917"
       style="font-size:18.6667px;fill:#000000;fill-opacity:1"
       id="tspan8573">  - name: eth0</tspan><tspan
       sodipodi:role="line"
       x="334.66064"
       y="75.310295"
       style="font-size:18.6667px;fill:#000000;fill-opacity:1"
       id="tspan8575">    ip4: 10.10.3.1</tspan><tspan
       sodipodi:role="line"
       x="334.66064"
       y="98.643669"
       style="font-size:18.6667px;fill:#000000;fill-opacity:1"
       id="tspan8577">    mac: AA:BB:CC:DD:EE:FF</tspan><tspan
       sodipodi:role="line"
       x="334.66064"
       y="121.97705"
       style="font-size:18.6667px;fill:#000000;fill-opacity:1"
       id="tspan8579">    network: <tspan
   style="font-style:italic;font-variant:normal;font-weight:bold;font-stretch:normal;font-family:sans-serif;-inkscape-font-specification:'sans-serif Bold Italic'"
   id="tspan8585">net-1</tspan></tspan><tspan
       sodipodi:role="line"
       x="334.66064"
       y="145.31042"
       style="font-size:18.6667px;fill:#000000;fill-opacity:1"
       id="tspan8581" /><tspan
       sodipodi:role="line"
       x="334.66064"
       y="168.6438"
       style="font-size:18.6667px;fill:#000000;fill-opacity:1"
       id="tspan8583">Member of group <tspan
   style="font-style:italic;font-variant:normal;font-weight:bold;font-stretch:normal;font-family:sans-serif;-inkscape-font-specification:'sans-serif Bold Italic'"
   id="tspan8587">os_debian_12</tspan></tspan></text>
  <text
     xml:space="preserve"
     style="font-style:italic;font-size:18.6667px;font-family:sans-serif;-inkscape-font-specification:'sans-serif Italic';fill:none;stroke-width:2"
     x="333.73456"
     y="231.55646"
     id="text4549-0"><tspan
       sodipodi:role="line"
       x="333.73456"
       y="231.55646"
       style="font-size:18.6667px;fill:#000000;fill-opacity:1"
       id="tspan8583-8">group_vars/os_debian_12/values.yml</tspan><tspan
       sodipodi:role="line"
       x="333.73456"
       y="254.88983"
       style="font-size:18.6667px;fill:#000000;fill-opacity:1"
       id="tspan8792">  os_operating_system:</tspan><tspan
       sodipodi:role="line"
       x="333.73456"
       y="278.22321"
       style="font-size:18.6667px;fill:#000000;fill-opacity:1"
       id="tspan8794">    distribution: debian</tspan><tspan
       sodipodi:role="line"
       x="333.73456"
       y="301.55658"
       style="font-size:18.6667px;fill:#000000;fill-opacity:1"
       id="tspan8796">    distribution_version: 12</tspan><tspan
       sodipodi:role="line"
       x="333.73456"
       y="324.88995"
       style="font-size:18.6667px;fill:#000000;fill-opacity:1"
       id="tspan8800">  os_partitioning: ...</tspan></text>
  <text
     xml:space="preserve"
     style="font-style:italic;font-size:18.6667px;font-family:sans-serif;-inkscape-font-specification:'sans-serif Italic';fill:none;stroke-width:2"
     x="332.51135"
     y="373.98212"
     id="text4549-0-7"><tspan
       sodipodi:role="line"
       x="332.51135"
       y="373.98212"
       style="font-size:18.6667px;fill:#000000;fill-opacity:1"
       id="tspan8583-8-3">group_vars/all/networks.yml</tspan><tspan
       sodipodi:role="line"
       x="332.51135"
       y="397.31549"
       style="font-size:18.6667px;fill:#000000;fill-opacity:1"
       id="tspan8792-6">  networks:</tspan><tspan
       sodipodi:role="line"
       x="332.51135"
       y="420.64886"
       style="font-size:18.6667px;fill:#000000;fill-opacity:1"
       id="tspan8794-1">    net-1:</tspan><tspan
       sodipodi:role="line"
       x="332.51135"
       y="443.98224"
       style="font-size:18.6667px;fill:#000000;fill-opacity:1"
       id="tspan8849">      subnet: 10.10.0.0</tspan><tspan
       sodipodi:role="line"
       x="332.51135"
       y="467.31561"
       style="font-size:18.6667px;fill:#000000;fill-opacity:1"
       id="tspan8800-9">      prefix: 16</tspan><tspan
       sodipodi:role="line"
       x="332.51135"
       y="490.64899"
       style="font-size:18.6667px;fill:#000000;fill-opacity:1"
       id="tspan8858">      ...</tspan></text>
  <path
     style="fill:none;stroke:#000000;stroke-width:2;stroke-dasharray:8, 8;stroke-dashoffset:0;stroke-opacity:1;marker-end:url(#marker9686)"
     d="m 514.17945,114.59754 c 152.61451,0.0535 223.19717,64.32254 222.12433,166.19592 -1.30447,123.868 -139.87181,129.82495 -278.7116,134.2201"
     id="path8914"
     sodipodi:nodetypes="csc" />
  <path
     style="fill:none;stroke:#000000;stroke-width:2;stroke-dasharray:8, 8;stroke-dashoffset:0;stroke-opacity:1;marker-end:url(#TriangleStart)"
     d="m 653.06983,163.05811 c 29.96671,8.61234 37.88831,42.91388 32.92973,82.23099 -4.31458,34.21084 -86.5715,32.17467 -115.95706,29.95122"
     id="path8914-3"
     sodipodi:nodetypes="csc" />
</svg>
